<?xml version="1.0" encoding="UTF-8"?>
<!DOCTYPE svg PUBLIC "-//W3C//DTD SVG 1.1//EN" "http://www.w3.org/Graphics/SVG/1.1/DTD/svg11.dtd">
<svg xmlns="http://www.w3.org/2000/svg" version="1.1" width="94px" height="94px" style="shape-rendering:geometricPrecision; text-rendering:geometricPrecision; image-rendering:optimizeQuality; fill-rule:evenodd; clip-rule:evenodd" xmlns:xlink="http://www.w3.org/1999/xlink">
<g><path style="opacity:1" fill="#fefefe" d="M -0.5,-0.5 C 30.8333,-0.5 62.1667,-0.5 93.5,-0.5C 93.5,0.833333 93.5,2.16667 93.5,3.5C 91.8739,1.75679 89.8739,1.25679 87.5,2C 80.1667,6.33333 72.8333,10.6667 65.5,15C 52.8333,15.6667 40.1667,15.6667 27.5,15C 19.5138,10.092 11.3471,5.59196 3,1.5C 1.56573,1.86179 0.399067,2.52846 -0.5,3.5C -0.5,2.16667 -0.5,0.833333 -0.5,-0.5 Z"/></g>
<g><path style="opacity:1" fill="#501bbc" d="M 93.5,3.5 C 93.5,22.5 93.5,41.5 93.5,60.5C 92.6724,66.3193 92.1724,72.3193 92,78.5C 84.7308,84.8814 76.2308,88.7148 66.5,90C 48.5937,92.7301 30.927,91.7301 13.5,87C 7.86311,85.0335 3.19645,81.8668 -0.5,77.5C -0.5,52.8333 -0.5,28.1667 -0.5,3.5C 0.399067,2.52846 1.56573,1.86179 3,1.5C 11.3471,5.59196 19.5138,10.092 27.5,15C 40.1667,15.6667 52.8333,15.6667 65.5,15C 72.8333,10.6667 80.1667,6.33333 87.5,2C 89.8739,1.25679 91.8739,1.75679 93.5,3.5 Z"/></g>
<g><path style="opacity:1" fill="#fefefe" d="M 6.5,11.5 C 13.4458,15.3087 20.4458,19.1421 27.5,23C 40.1667,23.6667 52.8333,23.6667 65.5,23C 72.3299,19.4194 78.9965,15.5861 85.5,11.5C 86.2195,32.8264 86.0529,54.1597 85,75.5C 72.8045,82.3747 59.6378,85.3747 45.5,84.5C 31.8655,85.3086 19.1988,82.3086 7.5,75.5C 6.50033,54.1771 6.16699,32.8437 6.5,11.5 Z"/></g>
<g><path style="opacity:1" fill="#5623bd" d="M 27.5,30.5 C 31.7411,29.7498 35.0745,31.0831 37.5,34.5C 37.1667,35.5 36.5,36.1667 35.5,36.5C 32.1667,33.8333 28.8333,33.8333 25.5,36.5C 24.5,36.1667 23.8333,35.5 23.5,34.5C 24.5487,32.7844 25.882,31.4511 27.5,30.5 Z"/></g>
<g><path style="opacity:1" fill="#521dbc" d="M 66.5,37.5 C 67.5,37.5 68.5,37.5 69.5,37.5C 69.0348,41.6294 66.7015,43.6294 62.5,43.5C 60.7722,43.4099 59.1056,43.0766 57.5,42.5C 56.2555,41.0446 56.4222,39.7113 58,38.5C 61.2376,41.2486 64.071,40.9153 66.5,37.5 Z"/></g>
<g><path style="opacity:1" fill="#4f1abb" d="M 29.5,47.5 C 34.5132,48.8195 37.1799,52.1528 37.5,57.5C 37.5212,62.3027 35.3545,65.636 31,67.5C 27.5,66.6667 25.3333,64.5 24.5,61C 25.444,59.5232 26.7774,58.5232 28.5,58C 23.4587,54.2135 23.792,50.7135 29.5,47.5 Z"/></g>
<g><path style="opacity:1" fill="#4e18bb" d="M 59.5,48.5 C 64.4058,47.3057 67.4058,49.139 68.5,54C 67.2011,55.3264 65.8678,56.6598 64.5,58C 69.3461,59.9064 69.6794,62.5731 65.5,66C 61.881,68.2413 59.0477,67.408 57,63.5C 54.7957,57.9861 55.629,52.9861 59.5,48.5 Z"/></g>
<g><path style="opacity:1" fill="#fbfafd" d="M 93.5,60.5 C 93.5,71.5 93.5,82.5 93.5,93.5C 62.1667,93.5 30.8333,93.5 -0.5,93.5C -0.5,88.1667 -0.5,82.8333 -0.5,77.5C 3.19645,81.8668 7.86311,85.0335 13.5,87C 30.927,91.7301 48.5937,92.7301 66.5,90C 76.2308,88.7148 84.7308,84.8814 92,78.5C 92.1724,72.3193 92.6724,66.3193 93.5,60.5 Z"/></g>
</svg>
