<?xml version="1.0" encoding="UTF-8"?>
<!DOCTYPE svg PUBLIC "-//W3C//DTD SVG 1.1//EN" "http://www.w3.org/Graphics/SVG/1.1/DTD/svg11.dtd">
<svg xmlns="http://www.w3.org/2000/svg" version="1.1" width="71px" height="71px" style="shape-rendering:geometricPrecision; text-rendering:geometricPrecision; image-rendering:optimizeQuality; fill-rule:evenodd; clip-rule:evenodd" xmlns:xlink="http://www.w3.org/1999/xlink">
<g><path style="opacity:1" fill="#f9f8f8" d="M -0.5,-0.5 C 8.83333,-0.5 18.1667,-0.5 27.5,-0.5C 26.3285,0.344644 24.9952,1.01131 23.5,1.5C 21.847,1.6596 20.5137,2.32627 19.5,3.5C 15.9754,4.75889 12.9754,6.75889 10.5,9.5C 10.508,13.1871 8.84129,15.5204 5.5,16.5C 3.12695,18.5792 1.79362,21.2459 1.5,24.5C 0.852871,25.2739 0.519537,26.2739 0.5,27.5C 0.986492,29.3042 1.65316,30.9709 2.5,32.5C 1.5,33.1667 0.5,33.8333 -0.5,34.5C -0.5,22.8333 -0.5,11.1667 -0.5,-0.5 Z"/></g>
<g><path style="opacity:1" fill="#fcfbfc" d="M 42.5,-0.5 C 51.8333,-0.5 61.1667,-0.5 70.5,-0.5C 70.5,8.83333 70.5,18.1667 70.5,27.5C 69.8333,26.5 69.1667,25.5 68.5,24.5C 68.5674,23.0413 68.2341,21.7079 67.5,20.5C 66.9744,18.7697 65.9744,17.4363 64.5,16.5C 61.7706,10.6215 57.4373,6.28816 51.5,3.5C 48.2609,2.53825 45.2609,1.20492 42.5,-0.5 Z"/></g>
<g><path style="opacity:1" fill="#433658" d="M 27.5,-0.5 C 32.5,-0.5 37.5,-0.5 42.5,-0.5C 45.2609,1.20492 48.2609,2.53825 51.5,3.5C 51.4606,4.58317 51.1272,5.58317 50.5,6.5C 53.3696,9.36026 55.3696,12.6936 56.5,16.5C 55.8826,16.6107 55.3826,16.944 55,17.5C 54.7216,16.5842 54.2216,15.9175 53.5,15.5C 53.6716,14.5084 53.3382,13.8417 52.5,13.5C 48.3802,10.7973 43.7135,9.46392 38.5,9.5C 38.5,8.5 38.5,7.5 38.5,6.5C 34.4862,6.66551 30.4862,6.49885 26.5,6C 24.6243,5.0816 23.6243,3.5816 23.5,1.5C 24.9952,1.01131 26.3285,0.344644 27.5,-0.5 Z"/></g>
<g><path style="opacity:1" fill="#5c4c66" d="M 23.5,1.5 C 23.6243,3.5816 24.6243,5.0816 26.5,6C 30.4862,6.49885 34.4862,6.66551 38.5,6.5C 38.5,7.5 38.5,8.5 38.5,9.5C 43.7135,9.46392 48.3802,10.7973 52.5,13.5C 49.7628,13.5987 47.0961,13.2653 44.5,12.5C 39.8215,12.6658 35.1548,12.4992 30.5,12C 28.4308,10.4766 26.0974,9.64323 23.5,9.5C 21.1782,8.19786 19.8449,6.19786 19.5,3.5C 20.5137,2.32627 21.847,1.6596 23.5,1.5 Z"/></g>
<g><path style="opacity:1" fill="#deaea2" d="M 19.5,3.5 C 19.8449,6.19786 21.1782,8.19786 23.5,9.5C 27.7906,12.8361 32.7906,14.3361 38.5,14C 34.8976,15.0762 31.231,15.9095 27.5,16.5C 26.5091,20.4454 26.1758,24.4454 26.5,28.5C 25.8333,25.1667 25.1667,21.8333 24.5,18.5C 24.5,17.1667 24.5,15.8333 24.5,14.5C 21.5,14.5 18.5,14.5 15.5,14.5C 15.5,13.5 15.5,12.5 15.5,11.5C 13.6776,11.1692 12.0109,10.5025 10.5,9.5C 12.9754,6.75889 15.9754,4.75889 19.5,3.5 Z"/></g>
<g><path style="opacity:1" fill="#bb7478" d="M 10.5,9.5 C 12.0109,10.5025 13.6776,11.1692 15.5,11.5C 15.5,12.5 15.5,13.5 15.5,14.5C 18.5,14.5 21.5,14.5 24.5,14.5C 24.5,15.8333 24.5,17.1667 24.5,18.5C 23.3713,22.1934 21.3713,25.1934 18.5,27.5C 19.3414,25.6208 19.6747,23.6208 19.5,21.5C 17.4352,21.5172 15.4352,21.8505 13.5,22.5C 13.7019,18.1547 12.3686,17.488 9.5,20.5C 8.43236,19.5655 7.09903,19.2322 5.5,19.5C 5.5,18.5 5.5,17.5 5.5,16.5C 8.84129,15.5204 10.508,13.1871 10.5,9.5 Z"/></g>
<g><path style="opacity:1" fill="#b84b7e" d="M 51.5,3.5 C 57.4373,6.28816 61.7706,10.6215 64.5,16.5C 64.5,17.5 64.5,18.5 64.5,19.5C 61.0825,19.977 58.4159,18.977 56.5,16.5C 55.3696,12.6936 53.3696,9.36026 50.5,6.5C 51.1272,5.58317 51.4606,4.58317 51.5,3.5 Z"/></g>
<g><path style="opacity:1" fill="#a06a6b" d="M 23.5,9.5 C 26.0974,9.64323 28.4308,10.4766 30.5,12C 35.1548,12.4992 39.8215,12.6658 44.5,12.5C 45.6256,13.8583 45.6256,15.1916 44.5,16.5C 43.109,15.3554 41.7757,15.3554 40.5,16.5C 41.6302,17.6223 42.2969,18.9557 42.5,20.5C 41.8333,22.1667 41.1667,23.8333 40.5,25.5C 40.5,23.5 40.5,21.5 40.5,19.5C 27.2859,17.365 23.9526,22.0317 30.5,33.5C 29.5,33.5 28.5,33.5 27.5,33.5C 27.4431,32.391 27.1098,31.391 26.5,30.5C 27.8333,29.8333 27.8333,29.1667 26.5,28.5C 26.1758,24.4454 26.5091,20.4454 27.5,16.5C 31.231,15.9095 34.8976,15.0762 38.5,14C 32.7906,14.3361 27.7906,12.8361 23.5,9.5 Z"/></g>
<g><path style="opacity:1" fill="#654154" d="M 44.5,12.5 C 47.0961,13.2653 49.7628,13.5987 52.5,13.5C 53.3382,13.8417 53.6716,14.5084 53.5,15.5C 52.596,16.209 52.2627,17.209 52.5,18.5C 51.1667,18.5 49.8333,18.5 48.5,18.5C 48.2641,21.6085 48.5975,24.6085 49.5,27.5C 46.1603,26.1604 43.827,23.827 42.5,20.5C 42.2969,18.9557 41.6302,17.6223 40.5,16.5C 41.7757,15.3554 43.109,15.3554 44.5,16.5C 45.6256,15.1916 45.6256,13.8583 44.5,12.5 Z"/></g>
<g><path style="opacity:1" fill="#46374b" d="M 5.5,16.5 C 5.5,17.5 5.5,18.5 5.5,19.5C 7.09903,19.2322 8.43236,19.5655 9.5,20.5C 9.5,21.5 9.5,22.5 9.5,23.5C 8.6365,22.537 7.96983,22.537 7.5,23.5C 9.09589,26.5668 8.76256,29.2335 6.5,31.5C 6.83333,29.5 7.16667,27.5 7.5,25.5C 5.82124,25.2852 4.82124,25.9519 4.5,27.5C 3.89992,26.0998 2.89992,25.0998 1.5,24.5C 1.79362,21.2459 3.12695,18.5792 5.5,16.5 Z"/></g>
<g><path style="opacity:1" fill="#664053" d="M 40.5,25.5 C 38.8123,30.0346 35.479,32.7012 30.5,33.5C 23.9526,22.0317 27.2859,17.365 40.5,19.5C 40.5,21.5 40.5,23.5 40.5,25.5 Z"/></g>
<g><path style="opacity:1" fill="#392747" d="M 53.5,15.5 C 54.2216,15.9175 54.7216,16.5842 55,17.5C 55.3826,16.944 55.8826,16.6107 56.5,16.5C 58.4159,18.977 61.0825,19.977 64.5,19.5C 64.5,18.5 64.5,17.5 64.5,16.5C 65.9744,17.4363 66.9744,18.7697 67.5,20.5C 66.0222,20.238 64.6888,20.5713 63.5,21.5C 62.1599,24.5293 60.8266,27.5293 59.5,30.5C 58.5041,30.4142 57.6708,30.7476 57,31.5C 56.502,34.4816 56.3354,37.4816 56.5,40.5C 55.1663,46.1681 52.9996,51.5014 50,56.5C 48.9938,51.6548 47.4938,51.3215 45.5,55.5C 44.8333,54.8333 44.1667,54.1667 43.5,53.5C 42.9002,52.1001 41.9002,51.1001 40.5,50.5C 42.0009,49.2485 43.6675,48.2485 45.5,47.5C 46.5,47.1667 47.1667,46.5 47.5,45.5C 51.269,44.608 53.1023,42.2746 53,38.5C 51.0924,41.3323 50.259,40.999 50.5,37.5C 50.5,36.1667 50.5,34.8333 50.5,33.5C 50.7947,31.2646 50.4614,29.2646 49.5,27.5C 48.5975,24.6085 48.2641,21.6085 48.5,18.5C 49.8333,18.5 51.1667,18.5 52.5,18.5C 52.2627,17.209 52.596,16.209 53.5,15.5 Z"/></g>
<g><path style="opacity:1" fill="#e6d1bf" d="M 24.5,18.5 C 25.1667,21.8333 25.8333,25.1667 26.5,28.5C 27.8333,29.1667 27.8333,29.8333 26.5,30.5C 23.9407,30.1984 21.6074,30.5318 19.5,31.5C 18.5655,30.4324 18.2322,29.099 18.5,27.5C 21.3713,25.1934 23.3713,22.1934 24.5,18.5 Z"/></g>
<g><path style="opacity:1" fill="#5f7681" d="M 1.5,24.5 C 2.89992,25.0998 3.89992,26.0998 4.5,27.5C 4.59794,29.5529 3.93127,31.2196 2.5,32.5C 1.65316,30.9709 0.986492,29.3042 0.5,27.5C 0.519537,26.2739 0.852871,25.2739 1.5,24.5 Z"/></g>
<g><path style="opacity:1" fill="#d7a190" d="M 42.5,20.5 C 43.827,23.827 46.1603,26.1604 49.5,27.5C 47.1433,29.0984 44.4766,30.0984 41.5,30.5C 40.596,31.209 40.2627,32.209 40.5,33.5C 37.0145,34.5905 33.6812,34.5905 30.5,33.5C 35.479,32.7012 38.8123,30.0346 40.5,25.5C 41.1667,23.8333 41.8333,22.1667 42.5,20.5 Z"/></g>
<g><path style="opacity:1" fill="#377094" d="M 68.5,24.5 C 69.1667,25.5 69.8333,26.5 70.5,27.5C 70.5,32.5 70.5,37.5 70.5,42.5C 70.1667,42.5 69.8333,42.5 69.5,42.5C 67.9387,37.9851 66.272,33.4851 64.5,29C 65.1173,26.7731 66.4506,25.2731 68.5,24.5 Z"/></g>
<g><path style="opacity:1" fill="#411b28" d="M 26.5,30.5 C 27.1098,31.391 27.4431,32.391 27.5,33.5C 25.2436,32.5615 22.9103,32.5615 20.5,33.5C 20.1667,32.8333 19.8333,32.1667 19.5,31.5C 21.6074,30.5318 23.9407,30.1984 26.5,30.5 Z"/></g>
<g><path style="opacity:1" fill="#80505b" d="M 18.5,27.5 C 18.2322,29.099 18.5655,30.4324 19.5,31.5C 19.8333,32.1667 20.1667,32.8333 20.5,33.5C 19.4138,33.62 18.7472,34.2867 18.5,35.5C 18.8457,36.8492 19.179,38.1825 19.5,39.5C 19.631,40.2389 19.4643,40.9056 19,41.5C 14.5548,36.0742 12.7215,29.7408 13.5,22.5C 15.4352,21.8505 17.4352,21.5172 19.5,21.5C 19.6747,23.6208 19.3414,25.6208 18.5,27.5 Z"/></g>
<g><path style="opacity:1" fill="#70383e" d="M 49.5,27.5 C 50.4614,29.2646 50.7947,31.2646 50.5,33.5C 49.2223,33.7822 48.2223,34.4489 47.5,35.5C 46.0821,33.6921 44.0821,33.0254 41.5,33.5C 41.1667,33.5 40.8333,33.5 40.5,33.5C 40.2627,32.209 40.596,31.209 41.5,30.5C 44.4766,30.0984 47.1433,29.0984 49.5,27.5 Z"/></g>
<g><path style="opacity:1" fill="#311727" d="M 41.5,30.5 C 44.2469,30.1866 46.9135,30.52 49.5,31.5C 48.1667,31.8333 46.8333,32.1667 45.5,32.5C 43.6672,32.4146 42.3339,31.7479 41.5,30.5 Z"/></g>
<g><path style="opacity:1" fill="#98626e" d="M 9.5,23.5 C 9.56884,28.8537 9.90218,34.187 10.5,39.5C 8.29443,37.5453 6.62776,35.212 5.5,32.5C 5.5,31.8333 5.83333,31.5 6.5,31.5C 8.76256,29.2335 9.09589,26.5668 7.5,23.5C 7.96983,22.537 8.6365,22.537 9.5,23.5 Z"/></g>
<g><path style="opacity:1" fill="#487587" d="M 2.5,32.5 C 2.23303,34.9653 1.56637,37.2986 0.5,39.5C 0.166667,39.5 -0.166667,39.5 -0.5,39.5C -0.5,37.8333 -0.5,36.1667 -0.5,34.5C 0.5,33.8333 1.5,33.1667 2.5,32.5 Z"/></g>
<g><path style="opacity:1" fill="#c58f88" d="M 13.5,22.5 C 12.7215,29.7408 14.5548,36.0742 19,41.5C 19.4643,40.9056 19.631,40.2389 19.5,39.5C 20.5375,40.9303 21.2041,42.597 21.5,44.5C 19.6096,44.7035 18.1096,44.0368 17,42.5C 16.6667,44.8333 16.3333,47.1667 16,49.5C 15.6667,49.1667 15.3333,48.8333 15,48.5C 14.79,50.0581 14.29,51.3915 13.5,52.5C 12.2231,48.2257 11.2231,43.8924 10.5,39.5C 9.90218,34.187 9.56884,28.8537 9.5,23.5C 9.5,22.5 9.5,21.5 9.5,20.5C 12.3686,17.488 13.7019,18.1547 13.5,22.5 Z"/></g>
<g><path style="opacity:1" fill="#b72523" d="M 27.5,33.5 C 27.5,34.5 27.5,35.5 27.5,36.5C 25.1667,36.5 22.8333,36.5 20.5,36.5C 20.5,35.5 20.5,34.5 20.5,33.5C 22.9103,32.5615 25.2436,32.5615 27.5,33.5 Z"/></g>
<g><path style="opacity:1" fill="#ba2826" d="M 41.5,33.5 C 44.0821,33.0254 46.0821,33.6921 47.5,35.5C 45.7354,36.4614 43.7354,36.7947 41.5,36.5C 41.5,36.1667 41.5,35.8333 41.5,35.5C 41.5,34.8333 41.5,34.1667 41.5,33.5 Z"/></g>
<g><path style="opacity:1" fill="#89384f" d="M 59.5,30.5 C 60.9468,31.1342 61.6134,32.3009 61.5,34C 61.2421,36.0093 60.5755,37.8427 59.5,39.5C 58.609,40.1098 57.609,40.4431 56.5,40.5C 56.3354,37.4816 56.502,34.4816 57,31.5C 57.6708,30.7476 58.5041,30.4142 59.5,30.5 Z"/></g>
<g><path style="opacity:1" fill="#c6ae9e" d="M 6.5,31.5 C 5.83333,31.5 5.5,31.8333 5.5,32.5C 4.60315,36.1338 3.26982,39.6338 1.5,43C 2.23348,44.7659 2.56681,46.5992 2.5,48.5C 0.881947,45.8291 0.21528,42.8291 0.5,39.5C 1.56637,37.2986 2.23303,34.9653 2.5,32.5C 3.93127,31.2196 4.59794,29.5529 4.5,27.5C 4.82124,25.9519 5.82124,25.2852 7.5,25.5C 7.16667,27.5 6.83333,29.5 6.5,31.5 Z"/></g>
<g><path style="opacity:1" fill="#e9a79c" d="M 50.5,33.5 C 50.5,34.8333 50.5,36.1667 50.5,37.5C 49.129,39.936 48.129,42.6027 47.5,45.5C 47.1667,46.5 46.5,47.1667 45.5,47.5C 45.7529,45.1727 45.0863,43.1727 43.5,41.5C 43.9767,40.5224 44.6433,39.6891 45.5,39C 44.1416,38.0656 42.8083,37.2323 41.5,36.5C 43.7354,36.7947 45.7354,36.4614 47.5,35.5C 48.2223,34.4489 49.2223,33.7822 50.5,33.5 Z"/></g>
<g><path style="opacity:1" fill="#241d3f" d="M 67.5,20.5 C 68.2341,21.7079 68.5674,23.0413 68.5,24.5C 66.4506,25.2731 65.1173,26.7731 64.5,29C 66.272,33.4851 67.9387,37.9851 69.5,42.5C 67.713,49.4117 64.3797,55.4117 59.5,60.5C 57.2646,60.7947 55.2646,60.4614 53.5,59.5C 55.2922,58.6909 57.2922,58.1909 59.5,58C 60.5742,57.2613 61.2409,56.2613 61.5,55C 60.1923,50.1536 60.1923,45.3203 61.5,40.5C 61.0431,39.7025 60.3764,39.3691 59.5,39.5C 60.5755,37.8427 61.2421,36.0093 61.5,34C 61.6134,32.3009 60.9468,31.1342 59.5,30.5C 60.8266,27.5293 62.1599,24.5293 63.5,21.5C 64.6888,20.5713 66.0222,20.238 67.5,20.5 Z"/></g>
<g><path style="opacity:1" fill="#231d3b" d="M 5.5,32.5 C 6.62776,35.212 8.29443,37.5453 10.5,39.5C 11.2231,43.8924 12.2231,48.2257 13.5,52.5C 13.5,53.5 13.5,54.5 13.5,55.5C 14.675,55.719 15.675,55.3857 16.5,54.5C 15.6744,53.549 15.5078,52.549 16,51.5C 17.4216,53.6381 19.255,54.8047 21.5,55C 17.8136,53.0287 16.8136,50.1954 18.5,46.5C 19.4168,45.8728 20.4168,45.5394 21.5,45.5C 23.5392,48.3916 26.2059,50.3916 29.5,51.5C 29.5,52.1667 29.5,52.8333 29.5,53.5C 25.8078,52.1571 23.4745,53.4904 22.5,57.5C 21.7375,58.2679 20.7375,58.7679 19.5,59C 16.1832,59.4983 12.8499,59.665 9.5,59.5C 6.4208,56.3495 4.08747,52.6829 2.5,48.5C 2.56681,46.5992 2.23348,44.7659 1.5,43C 3.26982,39.6338 4.60315,36.1338 5.5,32.5 Z"/></g>
<g><path style="opacity:1" fill="#7f4255" d="M 50.5,37.5 C 50.259,40.999 51.0924,41.3323 53,38.5C 53.1023,42.2746 51.269,44.608 47.5,45.5C 48.129,42.6027 49.129,39.936 50.5,37.5 Z"/></g>
<g><path style="opacity:1" fill="#fbf4d6" d="M 41.5,35.5 C 41.5,35.8333 41.5,36.1667 41.5,36.5C 42.8083,37.2323 44.1416,38.0656 45.5,39C 44.6433,39.6891 43.9767,40.5224 43.5,41.5C 45.0863,43.1727 45.7529,45.1727 45.5,47.5C 43.6675,48.2485 42.0009,49.2485 40.5,50.5C 37.5507,52.4986 34.5507,52.8319 31.5,51.5C 30.1854,49.8653 30.1854,48.1986 31.5,46.5C 28.9357,44.6841 28.9357,42.8508 31.5,41C 29.9926,40.1627 29.4926,38.9961 30,37.5C 33.757,35.5781 37.5903,34.9115 41.5,35.5 Z"/></g>
<g><path style="opacity:1" fill="#fbfbfc" d="M -0.5,39.5 C -0.166667,39.5 0.166667,39.5 0.5,39.5C 0.21528,42.8291 0.881947,45.8291 2.5,48.5C 4.08747,52.6829 6.4208,56.3495 9.5,59.5C 15.7866,66.1441 23.4533,69.8107 32.5,70.5C 21.5,70.5 10.5,70.5 -0.5,70.5C -0.5,60.1667 -0.5,49.8333 -0.5,39.5 Z"/></g>
<g><path style="opacity:1" fill="#fafafb" d="M 69.5,42.5 C 69.8333,42.5 70.1667,42.5 70.5,42.5C 70.5,51.8333 70.5,61.1667 70.5,70.5C 59.1667,70.5 47.8333,70.5 36.5,70.5C 36.3691,69.6236 36.7025,68.9569 37.5,68.5C 46.1948,69.6015 53.5281,66.9349 59.5,60.5C 64.3797,55.4117 67.713,49.4117 69.5,42.5 Z"/></g>
<g><path style="opacity:1" fill="#f7e7ce" d="M 20.5,33.5 C 20.5,34.5 20.5,35.5 20.5,36.5C 22.8333,36.5 25.1667,36.5 27.5,36.5C 27.5,35.5 27.5,34.5 27.5,33.5C 28.5,33.5 29.5,33.5 30.5,33.5C 33.6812,34.5905 37.0145,34.5905 40.5,33.5C 40.8333,33.5 41.1667,33.5 41.5,33.5C 41.5,34.1667 41.5,34.8333 41.5,35.5C 37.5903,34.9115 33.757,35.5781 30,37.5C 29.4926,38.9961 29.9926,40.1627 31.5,41C 28.9357,42.8508 28.9357,44.6841 31.5,46.5C 30.1854,48.1986 30.1854,49.8653 31.5,51.5C 30.8333,51.5 30.1667,51.5 29.5,51.5C 26.2059,50.3916 23.5392,48.3916 21.5,45.5C 21.5,45.1667 21.5,44.8333 21.5,44.5C 21.2041,42.597 20.5375,40.9303 19.5,39.5C 19.179,38.1825 18.8457,36.8492 18.5,35.5C 18.7472,34.2867 19.4138,33.62 20.5,33.5 Z"/></g>
<g><path style="opacity:1" fill="#704e60" d="M 21.5,44.5 C 21.5,44.8333 21.5,45.1667 21.5,45.5C 20.4168,45.5394 19.4168,45.8728 18.5,46.5C 16.8136,50.1954 17.8136,53.0287 21.5,55C 19.255,54.8047 17.4216,53.6381 16,51.5C 15.5078,52.549 15.6744,53.549 16.5,54.5C 15.675,55.3857 14.675,55.719 13.5,55.5C 13.5,54.5 13.5,53.5 13.5,52.5C 14.29,51.3915 14.79,50.0581 15,48.5C 15.3333,48.8333 15.6667,49.1667 16,49.5C 16.3333,47.1667 16.6667,44.8333 17,42.5C 18.1096,44.0368 19.6096,44.7035 21.5,44.5 Z"/></g>
<g><path style="opacity:1" fill="#161030" d="M 59.5,39.5 C 60.3764,39.3691 61.0431,39.7025 61.5,40.5C 60.1923,45.3203 60.1923,50.1536 61.5,55C 61.2409,56.2613 60.5742,57.2613 59.5,58C 57.2922,58.1909 55.2922,58.6909 53.5,59.5C 51.146,59.162 48.8127,58.662 46.5,58C 45.7476,57.3292 45.4142,56.4959 45.5,55.5C 47.4938,51.3215 48.9938,51.6548 50,56.5C 52.9996,51.5014 55.1663,46.1681 56.5,40.5C 57.609,40.4431 58.609,40.1098 59.5,39.5 Z"/></g>
<g><path style="opacity:1" fill="#ad3d49" d="M 40.5,50.5 C 41.9002,51.1001 42.9002,52.1001 43.5,53.5C 39.9763,54.5116 36.8096,56.1783 34,58.5C 31.599,57.6012 30.099,55.9345 29.5,53.5C 29.5,52.8333 29.5,52.1667 29.5,51.5C 30.1667,51.5 30.8333,51.5 31.5,51.5C 34.5507,52.8319 37.5507,52.4986 40.5,50.5 Z"/></g>
<g><path style="opacity:1" fill="#a5a1c2" d="M 29.5,53.5 C 30.099,55.9345 31.599,57.6012 34,58.5C 36.8096,56.1783 39.9763,54.5116 43.5,53.5C 44.1667,54.1667 44.8333,54.8333 45.5,55.5C 45.4142,56.4959 45.7476,57.3292 46.5,58C 48.8127,58.662 51.146,59.162 53.5,59.5C 55.2646,60.4614 57.2646,60.7947 59.5,60.5C 53.5281,66.9349 46.1948,69.6015 37.5,68.5C 36.7025,68.9569 36.3691,69.6236 36.5,70.5C 36.1667,70.5 35.8333,70.5 35.5,70.5C 35.4521,67.7081 36.7854,65.8747 39.5,65C 36.3415,59.2123 33.0081,59.0456 29.5,64.5C 29.631,63.7611 29.4643,63.0944 29,62.5C 27.6626,63.7649 26.1626,64.2649 24.5,64C 32.4817,60.0765 31.815,57.9098 22.5,57.5C 23.4745,53.4904 25.8078,52.1571 29.5,53.5 Z"/></g>
<g><path style="opacity:1" fill="#181942" d="M 35.5,70.5 C 34.8333,70.5 34.1667,70.5 33.5,70.5C 32.7075,68.1147 31.3742,66.1147 29.5,64.5C 33.0081,59.0456 36.3415,59.2123 39.5,65C 36.7854,65.8747 35.4521,67.7081 35.5,70.5 Z"/></g>
<g><path style="opacity:1" fill="#afb2ce" d="M 22.5,57.5 C 31.815,57.9098 32.4817,60.0765 24.5,64C 26.1626,64.2649 27.6626,63.7649 29,62.5C 29.4643,63.0944 29.631,63.7611 29.5,64.5C 31.3742,66.1147 32.7075,68.1147 33.5,70.5C 33.1667,70.5 32.8333,70.5 32.5,70.5C 23.4533,69.8107 15.7866,66.1441 9.5,59.5C 12.8499,59.665 16.1832,59.4983 19.5,59C 20.7375,58.7679 21.7375,58.2679 22.5,57.5 Z"/></g>
</svg>
