<?xml version="1.0" encoding="UTF-8"?>
<!DOCTYPE svg PUBLIC "-//W3C//DTD SVG 1.1//EN" "http://www.w3.org/Graphics/SVG/1.1/DTD/svg11.dtd">
<svg xmlns="http://www.w3.org/2000/svg" version="1.1" width="1000px" height="1000px" style="shape-rendering:geometricPrecision; text-rendering:geometricPrecision; image-rendering:optimizeQuality; fill-rule:evenodd; clip-rule:evenodd" xmlns:xlink="http://www.w3.org/1999/xlink">
<g><path style="opacity:0.988" fill="#00cd83" d="M 999.5,43.5 C 999.5,100.833 999.5,158.167 999.5,215.5C 998.167,218.5 998.167,221.5 999.5,224.5C 999.5,240.5 999.5,256.5 999.5,272.5C 997.981,292.811 997.315,313.311 997.5,334C 997.692,356.336 998.026,378.669 998.5,401C 998.52,416.864 997.853,432.697 996.5,448.5C 996.501,483.493 996.834,518.493 997.5,553.5C 997.506,569.364 996.84,585.197 995.5,601C 996.104,610.486 996.437,619.986 996.5,629.5C 995.159,658.483 994.493,687.483 994.5,716.5C 995.056,747.168 995.222,777.835 995,808.5C 993.87,811.861 993.703,815.194 994.5,818.5C 993.976,820.453 992.976,822.12 991.5,823.5C 992.226,826.463 991.226,828.963 988.5,831C 988.833,831.333 989.167,831.667 989.5,832C 985.761,837.985 981.427,843.485 976.5,848.5C 974.5,848.5 973.5,849.5 973.5,851.5C 971.973,851.427 970.973,852.094 970.5,853.5C 962.459,861.92 954.126,869.253 945.5,875.5C 923.015,891.711 898.015,905.877 870.5,918C 867.595,919.037 864.761,920.204 862,921.5C 860.434,920.939 859.101,921.606 858,923.5C 856.57,923.694 855.07,923.694 853.5,923.5C 851.227,926.141 848.561,927.141 845.5,926.5C 843.389,929.349 840.722,930.349 837.5,929.5C 835.228,931.651 832.561,933.151 829.5,934C 821.675,936.608 814.175,939.108 807,941.5C 805.984,940.366 805.317,940.699 805,942.5C 804.667,942.167 804.333,941.833 804,941.5C 801.25,941.923 798.416,942.923 795.5,944.5C 795.44,943.957 795.107,943.624 794.5,943.5C 793.064,945.822 791.23,946.489 789,945.5C 788.311,946.357 787.478,947.023 786.5,947.5C 785.313,946.347 784.313,946.347 783.5,947.5C 780.138,948.454 776.805,949.454 773.5,950.5C 772.833,949.167 772.167,949.167 771.5,950.5C 766.545,952 760.878,953.667 754.5,955.5C 753.914,955.291 753.414,954.957 753,954.5C 750.978,955.786 748.811,956.786 746.5,957.5C 743.141,958.19 739.975,958.19 737,957.5C 735.448,958.966 733.614,959.966 731.5,960.5C 728.609,960.872 725.609,960.872 722.5,960.5C 719.68,962.626 716.68,963.292 713.5,962.5C 710.173,964.357 706.84,965.024 703.5,964.5C 699.027,965.673 694.527,966.673 690,967.5C 686.421,966.528 683.088,966.528 680,967.5C 679.261,968.574 678.261,969.241 677,969.5C 673.346,969.714 669.68,969.714 666,969.5C 665.311,970.357 664.478,971.023 663.5,971.5C 658.185,972.131 652.685,972.131 647,971.5C 643.964,972.76 640.964,973.76 638,974.5C 635.329,974.328 632.662,973.995 630,973.5C 627.827,975.83 625.327,976.163 622.5,974.5C 621.328,974.919 620.328,975.585 619.5,976.5C 618.833,975.833 618.167,975.167 617.5,974.5C 613.488,975.734 609.488,976.734 605.5,977.5C 601.973,977.245 598.473,976.911 595,976.5C 593.426,977.848 591.593,978.514 589.5,978.5C 586.188,977.621 582.855,977.454 579.5,978C 582.063,978.763 582.063,979.263 579.5,979.5C 578.214,979.148 577.381,978.482 577,977.5C 570.277,978.719 563.61,979.719 557,980.5C 515,980.491 473,980.491 431,980.5C 423.741,979.714 416.408,978.714 409,977.5C 407.699,978.893 406.199,979.393 404.5,979C 405.167,978.667 405.833,978.333 406.5,978C 405.333,977.833 404.167,977.667 403,977.5C 394.851,977.017 386.851,977.017 379,977.5C 374.846,976.675 370.679,975.675 366.5,974.5C 365.676,976.748 364.676,976.914 363.5,975C 361.473,974.502 359.473,974.669 357.5,975.5C 355.971,975.471 354.804,974.804 354,973.5C 351.338,973.995 348.671,974.328 346,974.5C 342.657,974.23 339.657,973.23 337,971.5C 331.357,972.512 325.69,972.512 320,971.5C 318.445,969.854 316.779,969.521 315,970.5C 309.491,970.001 304.324,969.001 299.5,967.5C 297.831,966.34 295.997,966.34 294,967.5C 293.055,967.095 292.388,966.428 292,965.5C 290.318,965.807 288.652,966.14 287,966.5C 284.341,965.783 281.841,964.783 279.5,963.5C 278.446,963.68 277.446,964.013 276.5,964.5C 272.469,963.532 268.469,962.532 264.5,961.5C 263.177,960.392 261.677,960.392 260,961.5C 259.055,961.095 258.388,960.428 258,959.5C 254.742,960.71 251.408,960.044 248,957.5C 246.124,959.123 244.79,958.79 244,956.5C 240.627,957.606 237.127,956.939 233.5,954.5C 231.297,954.587 229.13,954.587 227,954.5C 223.266,952.114 219.432,950.78 215.5,950.5C 214.687,949.347 213.687,949.347 212.5,950.5C 211.808,949.975 211.308,949.308 211,948.5C 210,948.833 209,949.167 208,949.5C 206.601,948.773 205.101,948.273 203.5,948C 204.696,947.346 204.696,946.846 203.5,946.5C 201.2,946.868 199.033,946.868 197,946.5C 196.667,945.833 196.333,945.167 196,944.5C 195.23,945.598 194.397,945.598 193.5,944.5C 191.62,944.973 189.787,944.307 188,942.5C 187.667,942.833 187.333,943.167 187,943.5C 185.184,941.559 183.184,940.892 181,941.5C 178.07,940.976 175.57,939.642 173.5,937.5C 171.452,938.083 169.619,938.083 168,937.5C 166.686,936.687 165.519,935.687 164.5,934.5C 162.572,935.712 160.905,935.379 159.5,933.5C 159.167,932.167 158.833,932.167 158.5,933.5C 123.632,921.909 89.6323,905.075 56.5,883C 37.029,869.193 19.8623,853.026 5,834.5C 3.21875,831.667 1.71875,828.667 0.5,825.5C 1.98842,823.114 1.65509,822.448 -0.5,823.5C -0.5,564.167 -0.5,304.833 -0.5,45.5C 7.34038,24.5812 22.3404,15.4145 44.5,18C 48.4886,17.8928 51.9886,19.0595 55,21.5C 56.5581,20.6548 57.5581,21.3215 58,23.5C 59.5581,22.6548 60.5581,23.3215 61,25.5C 61.3333,25.1667 61.6667,24.8333 62,24.5C 134.408,67.8394 206.742,110.506 279,152.5C 290.238,158.976 300.738,165.643 310.5,172.5C 436.167,173.833 561.833,173.833 687.5,172.5C 694.059,168.042 701.559,163.375 710,158.5C 779.589,117.735 850.255,76.0681 922,33.5C 925.059,31.9323 928.392,29.9323 932,27.5C 932.333,27.8333 932.667,28.1667 933,28.5C 933.442,26.3215 934.442,25.6548 936,26.5C 938.914,23.6293 942.248,21.2959 946,19.5C 946.333,19.8333 946.667,20.1667 947,20.5C 948.154,19.2567 949.488,18.2567 951,17.5C 968.058,14.846 982.058,19.846 993,32.5C 996.44,36.0121 998.107,40.0121 998,44.5C 998.383,43.944 998.883,43.6107 999.5,43.5 Z M 835.5,847.5 C 833.233,848.423 830.9,849.256 828.5,850C 829.34,851.666 828.84,851.833 827,850.5C 824.675,850.872 822.509,852.205 820.5,854.5C 817.439,853.859 814.773,854.859 812.5,857.5C 809,856.842 805.833,857.842 803,860.5C 801.984,859.366 801.317,859.699 801,861.5C 799.605,860.185 798.605,860.519 798,862.5C 797.586,862.043 797.086,861.709 796.5,861.5C 793.987,862.337 791.654,863.337 789.5,864.5C 789.167,863.167 788.833,863.167 788.5,864.5C 785.185,865.329 781.852,866.162 778.5,867C 779.696,867.654 779.696,868.154 778.5,868.5C 776.622,868.377 774.789,868.377 773,868.5C 771.004,868.996 769.337,869.996 768,871.5C 765.911,871.255 763.911,871.255 762,871.5C 760.307,872.184 758.807,873.184 757.5,874.5C 752.761,873.883 748.261,874.883 744,877.5C 741.789,877.377 739.622,877.377 737.5,877.5C 735.566,877.901 734.066,878.901 733,880.5C 730.348,879.114 727.514,879.448 724.5,881.5C 719.123,882.5 714.123,883.5 709.5,884.5C 705.77,884.813 701.77,885.313 697.5,886C 695.39,886.554 693.39,887.388 691.5,888.5C 688.071,888.214 684.737,888.214 681.5,888.5C 678.235,889.186 675.068,890.186 672,891.5C 668.232,891.217 664.565,891.217 661,891.5C 659.739,891.759 658.739,892.426 658,893.5C 654.959,892.496 651.959,892.83 649,894.5C 644.395,894.209 639.895,894.209 635.5,894.5C 633.971,894.529 632.804,895.196 632,896.5C 628.146,895.561 624.313,895.894 620.5,897.5C 617.652,895.85 615.152,896.184 613,898.5C 607.053,899.526 600.886,899.526 594.5,898.5C 592.626,898.39 591.126,899.056 590,900.5C 585.723,900.46 581.39,900.127 577,899.5C 574.739,899.439 572.739,900.106 571,901.5C 569.6,900.884 568.1,900.551 566.5,900.5C 556.785,902.783 546.951,903.116 537,901.5C 532.701,901.397 528.534,902.064 524.5,903.5C 504.66,902.172 484.827,902.172 465,903.5C 455.598,901.268 446.098,900.935 436.5,902.5C 431.37,902.536 426.37,901.869 421.5,900.5C 419.571,900.54 417.738,900.873 416,901.5C 414.527,899.993 412.693,899.326 410.5,899.5C 405.964,899.915 401.464,900.249 397,900.5C 395.426,899.152 393.593,898.486 391.5,898.5C 387.67,899.624 384.004,899.624 380.5,898.5C 377.998,897.221 375.498,897.221 373,898.5C 372.044,897.106 370.711,896.439 369,896.5C 365.936,897.21 362.936,897.544 360,897.5C 358.207,895.194 356.04,894.861 353.5,896.5C 351.751,894.469 349.751,894.135 347.5,895.5C 345.068,894.6 342.568,893.934 340,893.5C 337.584,894.361 335.25,894.695 333,894.5C 330.436,892.923 327.603,891.923 324.5,891.5C 321.268,891.217 317.935,891.217 314.5,891.5C 313.522,891.023 312.689,890.357 312,889.5C 309.065,889.393 306.065,889.393 303,889.5C 300.626,887.754 298.126,887.42 295.5,888.5C 294.808,887.975 294.308,887.308 294,886.5C 291.448,886.131 288.781,886.131 286,886.5C 283.482,884.653 280.815,884.32 278,885.5C 275.613,883.139 272.947,882.472 270,883.5C 267.54,881.605 265.04,880.939 262.5,881.5C 259.113,880.007 255.779,879.007 252.5,878.5C 251.158,879.902 250.324,879.569 250,877.5C 247.814,876.978 245.481,876.978 243,877.5C 241.448,876.034 239.614,875.034 237.5,874.5C 235.378,874.377 233.211,874.377 231,874.5C 229.559,873.13 227.892,872.13 226,871.5C 224.089,871.255 222.089,871.255 220,871.5C 218.412,869.192 216.412,868.525 214,869.5C 213.311,868.643 212.478,867.977 211.5,867.5C 210.313,868.653 209.313,868.653 208.5,867.5C 206.107,866.146 203.774,865.146 201.5,864.5C 200.914,864.709 200.414,865.043 200,865.5C 198.12,862.982 195.787,862.315 193,863.5C 192.683,861.699 192.016,861.366 191,862.5C 186.992,859.935 182.659,857.935 178,856.5C 177.586,856.957 177.086,857.291 176.5,857.5C 171.563,855.504 166.563,853.171 161.5,850.5C 159.321,849.323 156.987,848.323 154.5,847.5C 134.27,838.384 114.437,827.051 95,813.5C 94.6667,813.833 94.3333,814.167 94,814.5C 92.7701,811.964 90.9368,809.964 88.5,808.5C 84.8955,805.398 81.3955,802.065 78,798.5C 77.5,580.834 77.3333,363.167 77.5,145.5C 77.1765,138.978 77.5098,132.645 78.5,126.5C 81.2178,127.338 83.3845,128.671 85,130.5C 85.3333,130.167 85.6667,129.833 86,129.5C 88.3724,132.844 91.3724,134.51 95,134.5C 97.3788,137.535 100.379,139.869 104,141.5C 104.333,141.167 104.667,140.833 105,140.5C 107.299,143.181 109.633,145.181 112,146.5C 119.353,150.397 126.52,154.397 133.5,158.5C 134.965,159.737 136.632,160.737 138.5,161.5C 147.561,167.234 157.228,172.901 167.5,178.5C 178.662,185.55 189.662,192.217 200.5,198.5C 201.965,197.391 202.965,197.891 203.5,200C 209.026,203.468 214.193,206.635 219,209.5C 219.333,209.167 219.667,208.833 220,208.5C 220.792,210.644 222.292,211.977 224.5,212.5C 225.965,213.737 227.632,214.737 229.5,215.5C 242.54,223.351 256.373,231.685 271,240.5C 271.333,240.167 271.667,239.833 272,239.5C 273.223,242.447 275.223,243.447 278,242.5C 278.792,244.644 280.292,245.977 282.5,246.5C 285.505,248.316 288.505,249.316 291.5,249.5C 293.403,250.357 295.403,251.023 297.5,251.5C 416.472,251.819 535.472,251.486 654.5,250.5C 663.73,251.066 672.897,251.733 682,252.5C 682.674,251.422 683.674,250.755 685,250.5C 690.737,251.417 696.404,251.751 702,251.5C 705.844,249.318 710.344,247.652 715.5,246.5C 724.995,241.65 733.828,236.65 742,231.5C 748.402,227.819 755.568,223.652 763.5,219C 764.126,218.25 764.626,217.416 765,216.5C 766.558,217.345 767.558,216.679 768,214.5C 768.333,214.833 768.667,215.167 769,215.5C 778.51,209.755 788.01,204.088 797.5,198.5C 803.326,195.625 809.159,191.958 815,187.5C 816.558,188.345 817.558,187.679 818,185.5C 822.753,184.203 827.253,181.87 831.5,178.5C 841.299,173.099 850.965,167.432 860.5,161.5C 862.368,160.737 864.035,159.737 865.5,158.5C 875.076,153.11 884.743,147.444 894.5,141.5C 896.368,140.737 898.035,139.737 899.5,138.5C 901.708,137.977 903.208,136.644 904,134.5C 904.333,134.833 904.667,135.167 905,135.5C 911.251,132.553 916.917,128.887 922,124.5C 922.615,156.183 922.115,187.85 920.5,219.5C 920.57,229.179 920.903,238.846 921.5,248.5C 920.147,264.303 919.48,280.136 919.5,296C 920.157,331.008 920.49,366.008 920.5,401C 919.16,416.803 918.494,432.636 918.5,448.5C 919.456,508.851 919.456,569.184 918.5,629.5C 917.186,645.305 916.519,661.138 916.5,677C 917.461,703.02 917.794,729.02 917.5,755C 915.968,769.451 915.135,783.951 915,798.5C 896.57,815.057 876.57,828.057 855,837.5C 854.085,838.328 853.419,839.328 853,840.5C 852.667,840.167 852.333,839.833 852,839.5C 846.363,842.07 840.863,844.736 835.5,847.5 Z"/></g>
<g><path style="opacity:0.007" fill="#00ff7f" d="M 78.5,126.5 C 77.5098,132.645 77.1765,138.978 77.5,145.5C 76.1819,138.989 76.1819,132.322 77.5,125.5C 78.1067,125.624 78.44,125.957 78.5,126.5 Z"/></g>
<g><path style="opacity:0.969" fill="#01cd84" d="M 379.5,339.5 C 381.368,340.263 383.035,341.263 384.5,342.5C 397.297,350.461 403.297,361.461 402.5,375.5C 399.841,382.991 394.674,387.991 387,390.5C 384.074,390.327 381.074,390.327 378,390.5C 376.272,390.101 374.772,389.434 373.5,388.5C 369.652,386.844 367.319,384.344 366.5,381C 363.667,379.5 361.5,377.333 360,374.5C 359.667,374.833 359.333,375.167 359,375.5C 356.868,374.072 354.701,372.739 352.5,371.5C 341.298,368.983 329.798,368.983 318,371.5C 317.127,371.265 316.293,370.931 315.5,370.5C 314.304,370.846 314.304,371.346 315.5,372C 309.178,373.887 303.178,376.554 297.5,380C 294.267,383.4 290.6,386.234 286.5,388.5C 285.359,389.339 284.026,390.006 282.5,390.5C 279.5,390.5 276.5,390.5 273.5,390.5C 271.974,390.006 270.641,389.339 269.5,388.5C 267.248,388.084 265.748,386.751 265,384.5C 264.667,384.833 264.333,385.167 264,385.5C 256.737,377.876 255.57,369.21 260.5,359.5C 261.306,358.272 262.306,357.272 263.5,356.5C 264.833,356.167 264.833,355.833 263.5,355.5C 266.944,353.33 270.278,350.33 273.5,346.5C 277.091,344.245 281.091,341.912 285.5,339.5C 292.04,336.047 299.04,333.38 306.5,331.5C 307.442,331.608 308.275,331.941 309,332.5C 310.182,330.765 311.849,329.765 314,329.5C 315.956,329.661 317.956,329.994 320,330.5C 320.674,329.422 321.674,328.755 323,328.5C 330,329.833 337,329.833 344,328.5C 347.151,329.093 350.318,329.593 353.5,330C 355.402,330.199 356.902,331.033 358,332.5C 362.073,331.603 365.74,332.603 369,335.5C 369.333,335.167 369.667,334.833 370,334.5C 373.174,336.271 376.34,337.937 379.5,339.5 Z"/></g>
<g><path style="opacity:0.004" fill="#1ae18d" d="M 999.5,301.5 C 999.5,314.167 999.5,326.833 999.5,339.5C 998.167,326.833 998.167,314.167 999.5,301.5 Z"/></g>
<g><path style="opacity:0.971" fill="#01cd84" d="M 738.5,441.5 C 732.169,449.141 724.502,455.141 715.5,459.5C 712.34,461.063 709.174,462.729 706,464.5C 705.667,464.167 705.333,463.833 705,463.5C 700.328,466.608 695.494,468.608 690.5,469.5C 687.317,470.068 683.983,470.068 680.5,469.5C 675.698,471.393 670.698,472.393 665.5,472.5C 660.485,471.583 655.319,470.583 650,469.5C 647.088,471.084 644.422,470.751 642,468.5C 639.684,469.367 637.684,468.701 636,466.5C 632.576,467.429 629.743,466.429 627.5,463.5C 623.426,463.999 620.259,462.332 618,458.5C 616.927,459.28 615.76,459.113 614.5,458C 612.237,456.383 610.237,454.55 608.5,452.5C 605.575,449.185 603.575,445.685 602.5,442C 603.833,439.667 603.833,437.333 602.5,435C 602.759,433.739 603.426,432.739 604.5,432C 603.939,430.434 604.606,429.101 606.5,428C 606.167,427.667 605.833,427.333 605.5,427C 611.784,418.8 620.117,415.8 630.5,418C 634.534,421.559 638.868,424.726 643.5,427.5C 643.833,428.833 644.167,428.833 644.5,427.5C 645.75,427.577 646.583,428.244 647,429.5C 650.43,428.353 653.597,429.02 656.5,431.5C 662.329,430.192 668.162,430.192 674,431.5C 676.168,430.498 678.335,429.498 680.5,428.5C 682.745,428.255 685.078,428.255 687.5,428.5C 688.696,428.154 688.696,427.654 687.5,427C 689.9,426.256 692.233,425.423 694.5,424.5C 697.131,422.847 699.797,421.181 702.5,419.5C 703.167,418.167 704.167,417.167 705.5,416.5C 707.344,414.805 708.677,412.805 709.5,410.5C 713.628,404.339 719.128,401.339 726,401.5C 732.64,402.153 738.307,404.82 743,409.5C 744.64,411.579 745.806,413.912 746.5,416.5C 746.455,419.968 746.455,423.468 746.5,427C 745.12,428.324 744.786,429.657 745.5,431C 744.5,431.833 743.5,432.667 742.5,433.5C 743.571,435.325 742.904,436.492 740.5,437C 740.833,437.333 741.167,437.667 741.5,438C 740.186,438.985 739.186,440.152 738.5,441.5 Z"/></g>
<g><path style="opacity:0.987" fill="#00cc83" d="M 368.5,529.5 C 375.322,535.397 380.989,542.73 385.5,551.5C 386.134,554.45 387.8,557.283 390.5,560C 390.167,560.333 389.833,560.667 389.5,561C 391.017,563.204 392.35,565.538 393.5,568C 393.043,568.414 392.709,568.914 392.5,569.5C 393.687,570.519 394.687,571.686 395.5,573C 395.167,573.333 394.833,573.667 394.5,574C 395.357,574.689 396.023,575.522 396.5,576.5C 395.347,577.687 395.347,578.687 396.5,579.5C 397.999,581.258 398.332,583.091 397.5,585C 398.43,586.194 399.097,587.527 399.5,589C 398.392,590.677 398.392,592.177 399.5,593.5C 400.288,596.096 400.954,598.763 401.5,601.5C 400.167,611.833 400.167,622.167 401.5,632.5C 401.471,634.029 400.804,635.196 399.5,636C 400.413,637.414 400.413,638.914 399.5,640.5C 398.392,641.823 398.392,643.323 399.5,645C 399.097,646.473 398.43,647.806 397.5,649C 398.815,650.395 398.481,651.395 396.5,652C 397.022,652.561 397.355,653.228 397.5,654C 396.65,655.904 395.65,657.904 394.5,660C 395.5,662.091 394.833,663.757 392.5,665C 392.957,665.414 393.291,665.914 393.5,666.5C 391.169,672.496 388.503,677.83 385.5,682.5C 385.068,683.71 384.401,684.71 383.5,685.5C 382.094,685.973 381.427,686.973 381.5,688.5C 379.565,692.707 376.898,696.373 373.5,699.5C 372.167,701.5 370.5,703.167 368.5,704.5C 362.313,710.096 355.313,714.429 347.5,717.5C 347.167,716.167 346.833,716.167 346.5,717.5C 343.367,718.094 340.033,719.094 336.5,720.5C 332.167,719.167 327.833,719.167 323.5,720.5C 306.61,717.114 292.277,707.614 280.5,692C 280.833,691.667 281.167,691.333 281.5,691C 278.24,689.391 276.574,687.058 276.5,684C 275.602,681.019 273.602,678.353 270.5,676C 270.5,674.667 270.5,673.333 270.5,672C 267.672,669.838 266.672,667.171 267.5,664C 265.578,662.54 264.911,660.873 265.5,659C 264.643,658.311 263.977,657.478 263.5,656.5C 264.653,655.313 264.653,654.313 263.5,653.5C 261.824,651.233 261.157,648.9 261.5,646.5C 264.094,645.007 266.761,643.007 269.5,640.5C 270.965,639.263 272.632,638.263 274.5,637.5C 275.965,636.263 277.632,635.263 279.5,634.5C 289.396,628.415 299.063,622.749 308.5,617.5C 308.141,615.515 307.308,614.849 306,615.5C 296.094,609.484 286.594,603.817 277.5,598.5C 275.632,597.737 273.965,596.737 272.5,595.5C 268.811,593.589 265.145,591.089 261.5,588C 261.023,585.379 261.69,582.879 263.5,580.5C 268.745,558.857 279.411,540.691 295.5,526C 301.788,521.12 308.288,517.62 315,515.5C 316.84,516.833 317.34,516.666 316.5,515C 318.698,514.627 320.865,514.127 323,513.5C 327.826,513.535 332.659,513.535 337.5,513.5C 348.359,515.616 358.693,520.95 368.5,529.5 Z"/></g>
<g><path style="opacity:0.987" fill="#00cc83" d="M 710.5,532.5 C 712.822,537.188 716.488,541.854 721.5,546.5C 722.601,547.848 723.601,549.348 724.5,551C 724.167,551.333 723.833,551.667 723.5,552C 726.124,552.576 726.791,553.91 725.5,556C 727.333,556.5 728.5,557.667 729,559.5C 730.282,566.245 732.449,572.912 735.5,579.5C 737.625,583.002 737.959,586.669 736.5,590.5C 734.61,590.297 733.11,590.963 732,592.5C 731.667,592.167 731.333,591.833 731,591.5C 730.208,593.644 728.708,594.977 726.5,595.5C 725.035,596.737 723.368,597.737 721.5,598.5C 717.253,601.87 712.753,604.203 708,605.5C 707.558,607.679 706.558,608.345 705,607.5C 701.371,610.155 697.705,612.821 694,615.5C 693.667,615.167 693.333,614.833 693,614.5C 692.626,615.416 692.126,616.25 691.5,617C 693.166,617.997 694.666,619.497 696,621.5C 696.333,621.167 696.667,620.833 697,620.5C 700.621,622.131 703.621,624.465 706,627.5C 708.33,626.844 709.997,627.844 711,630.5C 711.333,630.167 711.667,629.833 712,629.5C 716.316,632.066 720.483,634.733 724.5,637.5C 726.708,638.023 728.208,639.356 729,641.5C 731.562,641.262 733.896,642.262 736,644.5C 737.973,648.082 737.473,651.415 734.5,654.5C 734.624,655.107 734.957,655.44 735.5,655.5C 733.351,664.503 729.684,673.503 724.5,682.5C 720.626,689.462 715.626,696.129 709.5,702.5C 709.167,701.167 708.833,701.167 708.5,702.5C 702.407,709.326 695.407,714.326 687.5,717.5C 686.914,717.291 686.414,716.957 686,716.5C 684.54,718.422 682.873,719.089 681,718.5C 679.293,719.459 677.459,720.125 675.5,720.5C 671.167,719.167 666.833,719.167 662.5,720.5C 661.353,720.182 660.519,719.516 660,718.5C 658.602,719.051 657.268,719.384 656,719.5C 654.488,718.743 653.154,717.743 652,716.5C 651.667,716.833 651.333,717.167 651,717.5C 642.312,714.087 634.812,709.087 628.5,702.5C 625.365,699.192 622.365,695.692 619.5,692C 619.833,691.667 620.167,691.333 620.5,691C 619.5,690.667 618.5,690.333 617.5,690C 617.5,689 617.5,688 617.5,687C 615.356,686.208 614.023,684.708 613.5,682.5C 614.833,682.167 614.833,681.833 613.5,681.5C 609.381,674.768 606.048,667.935 603.5,661C 603.132,658.967 603.132,656.8 603.5,654.5C 603.154,653.304 602.654,653.304 602,654.5C 601.654,652.782 601.154,651.115 600.5,649.5C 600.128,646.609 600.128,643.609 600.5,640.5C 599.003,637.373 598.003,634.04 597.5,630.5C 597.5,621.5 597.5,612.5 597.5,603.5C 597.529,601.971 598.196,600.804 599.5,600C 600.147,597.012 600.147,593.845 599.5,590.5C 600.508,587.172 601.508,583.838 602.5,580.5C 603.653,579.687 603.653,578.687 602.5,577.5C 603.025,576.808 603.692,576.308 604.5,576C 603.339,573.279 604.006,570.946 606.5,569C 605.542,567.853 605.875,566.853 607.5,566C 607.167,565.667 606.833,565.333 606.5,565C 608.252,560.038 610.919,555.705 614.5,552C 613.844,549.67 614.844,548.003 617.5,547C 617.167,546.667 616.833,546.333 616.5,546C 618.201,542.965 620.535,540.632 623.5,539C 623.167,538.667 622.833,538.333 622.5,538C 624.396,535.932 626.396,534.099 628.5,532.5C 629.167,532.5 629.5,532.167 629.5,531.5C 634.246,526.103 639.912,521.77 646.5,518.5C 647.086,518.709 647.586,519.043 648,519.5C 648.419,518.328 649.085,517.328 650,516.5C 651.789,516.377 653.622,516.377 655.5,516.5C 656.696,516.154 656.696,515.654 655.5,515C 657.698,514.627 659.865,514.127 662,513.5C 666.826,513.535 671.659,513.535 676.5,513.5C 678.5,514 680.5,514.5 682.5,515C 681.304,515.654 681.304,516.154 682.5,516.5C 684.548,515.917 686.381,515.917 688,516.5C 696.539,520.564 704.039,525.898 710.5,532.5 Z"/></g>
<g><path style="opacity:0.005" fill="#00acac" d="M 383.5,685.5 C 383.573,687.027 382.906,688.027 381.5,688.5C 381.427,686.973 382.094,685.973 383.5,685.5 Z"/></g>
<g><path style="opacity:0.004" fill="#1be18c" d="M 995.5,682.5 C 996.66,694.993 996.827,707.66 996,720.5C 995.5,707.838 995.333,695.171 995.5,682.5 Z"/></g>
<g><path style="opacity:0.004" fill="#00fffe" d="M 976.5,848.5 C 975.833,849.833 974.833,850.833 973.5,851.5C 973.5,849.5 974.5,848.5 976.5,848.5 Z"/></g>
<g><path style="opacity:0.004" fill="#03fff8" d="M 973.5,851.5 C 973.027,852.906 972.027,853.573 970.5,853.5C 970.973,852.094 971.973,851.427 973.5,851.5 Z"/></g>
<g><path style="opacity:0.004" fill="#00fa81" d="M 158.5,933.5 C 158.833,933.5 159.167,933.5 159.5,933.5C 159.315,934.17 158.981,934.17 158.5,933.5 Z"/></g>
<g><path style="opacity:0.004" fill="#00aaa9" d="M 193.5,944.5 C 192.833,945.167 192.833,945.167 193.5,944.5 Z"/></g>
<g><path style="opacity:0.004" fill="#00aaa9" d="M 795.5,944.5 C 794.833,945.167 794.833,945.167 795.5,944.5 Z"/></g>
<g><path style="opacity:0.004" fill="#00aaa9" d="M 783.5,947.5 C 784.833,948.167 784.833,948.167 783.5,947.5 Z"/></g>
<g><path style="opacity:0.004" fill="#00b7a3" d="M 215.5,950.5 C 214.833,951.167 214.833,951.167 215.5,950.5 Z"/></g>
<g><path style="opacity:0.004" fill="#00c1c1" d="M 771.5,950.5 C 772.167,950.5 772.833,950.5 773.5,950.5C 772.833,951.833 772.167,951.833 771.5,950.5 Z"/></g>
<g><path style="opacity:0.004" fill="#00ed80" d="M 264.5,961.5 C 264.103,962.525 263.437,962.692 262.5,962C 263.094,961.536 263.761,961.369 264.5,961.5 Z"/></g>
<g><path style="opacity:0.004" fill="#00bb88" d="M 721.5,961.5 C 722.833,962.167 722.833,962.167 721.5,961.5 Z"/></g>
<g><path style="opacity:0.004" fill="#00bc85" d="M 279.5,964.5 C 280.833,965.167 280.833,965.167 279.5,964.5 Z"/></g>
<g><path style="opacity:0.004" fill="#14c594" d="M 703.5,964.5 C 704.239,964.369 704.906,964.536 705.5,965C 704.563,965.692 703.897,965.525 703.5,964.5 Z"/></g>
<g><path style="opacity:0.004" fill="#0ec88c" d="M 299.5,967.5 C 299.103,968.525 298.437,968.692 297.5,968C 298.094,967.536 298.761,967.369 299.5,967.5 Z"/></g>
<g><path style="opacity:0.004" fill="#02c891" d="M 684.5,968.5 C 684.897,967.475 685.563,967.308 686.5,968C 685.906,968.464 685.239,968.631 684.5,968.5 Z"/></g>
</svg>
