<?xml version="1.0" encoding="UTF-8"?>
<!DOCTYPE svg PUBLIC "-//W3C//DTD SVG 1.1//EN" "http://www.w3.org/Graphics/SVG/1.1/DTD/svg11.dtd">
<svg xmlns="http://www.w3.org/2000/svg" version="1.1" width="500px" height="500px" style="shape-rendering:geometricPrecision; text-rendering:geometricPrecision; image-rendering:optimizeQuality; fill-rule:evenodd; clip-rule:evenodd" xmlns:xlink="http://www.w3.org/1999/xlink">
<g><path style="opacity:0.987" fill="#4d15ba" d="M 499.5,18.5 C 499.5,76.8333 499.5,135.167 499.5,193.5C 498.167,196.5 498.167,199.5 499.5,202.5C 499.5,224.833 499.5,247.167 499.5,269.5C 498.698,270.952 498.198,272.618 498,274.5C 497.833,288 497.667,301.5 497.5,315C 498.147,345.834 498.314,376.667 498,407.5C 497.098,412.637 495.098,417.303 492,421.5C 474.449,439.346 455.783,451.679 436,458.5C 432.678,461.058 429.011,463.058 425,464.5C 424.667,464.167 424.333,463.833 424,463.5C 422.54,465.422 420.873,466.089 419,465.5C 416.371,468.155 413.371,469.155 410,468.5C 406.907,471.312 403.407,472.312 399.5,471.5C 398.304,471.846 398.304,472.346 399.5,473C 397.603,474.11 395.77,474.276 394,473.5C 391.006,476.271 388.006,476.938 385,475.5C 384.692,476.308 384.192,476.975 383.5,477.5C 382.232,476.572 380.899,476.405 379.5,477C 380.167,477.333 380.833,477.667 381.5,478C 372.673,480.151 364.006,481.651 355.5,482.5C 349.011,482.94 342.511,484.273 336,486.5C 331.251,487.041 326.418,487.041 321.5,486.5C 317.361,488.028 313.028,489.028 308.5,489.5C 304.991,489.236 301.491,488.903 298,488.5C 296.527,490.007 294.693,490.674 292.5,490.5C 261.5,490.5 230.5,490.5 199.5,490.5C 197.307,490.674 195.473,490.007 194,488.5C 190.345,488.839 186.678,489.172 183,489.5C 181.342,489.325 180.009,488.658 179,487.5C 178.275,488.059 177.442,488.392 176.5,488.5C 174.25,487.541 171.916,486.875 169.5,486.5C 164.529,487.045 159.696,487.045 155,486.5C 154.055,486.095 153.388,485.428 153,484.5C 150.978,485.991 149.312,485.658 148,483.5C 144.296,484.941 140.463,484.608 136.5,482.5C 127.839,481.895 119.839,480.228 112.5,477.5C 110.284,478.03 108.118,477.363 106,475.5C 104.002,476.271 102.335,475.605 101,473.5C 98.7009,474.58 96.5342,474.246 94.5,472.5C 83.2584,468.841 71.925,465.008 60.5,461C 52.8333,457 45.1667,453 37.5,449C 36.8742,448.25 36.3742,447.416 36,446.5C 35.6667,446.833 35.3333,447.167 35,447.5C 33.4301,446.386 32.0968,445.053 31,443.5C 30.6667,443.833 30.3333,444.167 30,444.5C 18.9484,436.413 8.78174,426.746 -0.5,415.5C -0.5,283.167 -0.5,150.833 -0.5,18.5C 1.79921,16.0062 4.13254,13.5062 6.5,11C 8.08059,10.2935 9.58059,9.46014 11,8.5C 16.1969,8.5248 21.3636,8.5248 26.5,8.5C 65.4011,31.7592 103.234,54.0925 140,75.5C 144.269,77.8655 148.602,80.8655 153,84.5C 216.627,84.6587 280.46,84.492 344.5,84C 353.411,78.9614 362.244,73.7948 371,68.5C 371.333,68.8333 371.667,69.1667 372,69.5C 372.442,67.3215 373.442,66.6548 375,67.5C 376.003,64.8438 377.67,63.8438 380,64.5C 380.442,62.3215 381.442,61.6548 383,62.5C 384.507,60.992 386.173,59.6587 388,58.5C 415.462,42.1977 443.795,25.5311 473,8.5C 477.803,8.5248 482.636,8.5248 487.5,8.5C 492.134,10.4124 496.134,13.7458 499.5,18.5 Z M 52.5,71.5 C 82.2098,89.5286 111.543,106.862 140.5,123.5C 142.678,125.275 145.011,126.109 147.5,126C 214.52,126.396 281.52,126.563 348.5,126.5C 350.593,126.514 352.426,125.848 354,124.5C 355.749,125.299 357.082,124.632 358,122.5C 358.333,122.833 358.667,123.167 359,123.5C 365.089,120.089 370.589,116.755 375.5,113.5C 377.708,112.977 379.208,111.644 380,109.5C 381.558,110.345 382.558,109.679 383,107.5C 384.503,107.835 385.836,107.835 387,107.5C 388.667,105.833 390.333,104.167 392,102.5C 394.33,103.156 395.997,102.156 397,99.5C 397.333,99.8333 397.667,100.167 398,100.5C 414.172,90.7884 430.339,81.1217 446.5,71.5C 450.5,69.1667 454.5,66.8333 458.5,64.5C 459.495,75.3206 459.828,86.3206 459.5,97.5C 458.805,150.495 458.805,203.662 459.5,257C 459,259.5 458.5,262 458,264.5C 457.195,289.184 457.362,313.85 458.5,338.5C 456.62,358.479 456.12,378.479 457,398.5C 452.661,401.812 448.328,405.812 444,410.5C 441.67,409.844 440.003,410.844 439,413.5C 434.3,414.42 429.8,416.42 425.5,419.5C 421.809,421.211 418.142,422.878 414.5,424.5C 410.188,425.986 405.854,427.486 401.5,429C 402.696,429.654 402.696,430.154 401.5,430.5C 397.883,430.044 394.383,431.044 391,433.5C 390.667,433.167 390.333,432.833 390,432.5C 388.052,433.109 386.218,433.776 384.5,434.5C 378.497,436.173 372.497,437.839 366.5,439.5C 365.833,438.167 365.167,438.167 364.5,439.5C 362.876,439.36 361.71,440.027 361,441.5C 357.211,440.198 353.378,440.865 349.5,443.5C 346.432,442.676 343.432,443.009 340.5,444.5C 336.576,444.127 332.576,444.794 328.5,446.5C 326.356,445.047 324.523,445.38 323,447.5C 320.618,446.134 318.452,446.467 316.5,448.5C 315.808,447.975 315.308,447.308 315,446.5C 313.011,448.751 310.678,449.084 308,447.5C 306.289,447.439 304.956,448.106 304,449.5C 303.107,448.919 302.107,448.585 301,448.5C 294.805,450.818 288.472,451.151 282,449.5C 279.001,449.481 276.168,450.148 273.5,451.5C 255.833,451.5 238.167,451.5 220.5,451.5C 217.832,450.148 214.999,449.481 212,449.5C 203.968,450.662 196.135,450.662 188.5,449.5C 187.312,448.16 185.812,447.493 184,447.5C 181.106,448.317 178.272,448.65 175.5,448.5C 172.574,446.921 169.407,445.921 166,445.5C 161.918,445.001 157.752,445.001 153.5,445.5C 150.383,443.216 147.05,442.549 143.5,443.5C 141.714,441.979 139.881,441.646 138,442.5C 137.395,440.519 136.395,440.185 135,441.5C 132.189,439.614 129.355,438.948 126.5,439.5C 125.193,438.847 123.86,438.18 122.5,437.5C 121.284,438.002 120.117,438.335 119,438.5C 116.628,436.352 113.794,435.018 110.5,434.5C 109.833,434.833 109.167,435.167 108.5,435.5C 107.304,435.154 107.304,434.654 108.5,434C 103.813,433.541 99.1466,432.041 94.5,429.5C 93.8333,429.833 93.1667,430.167 92.5,430.5C 91.3044,430.154 91.3044,429.654 92.5,429C 85.1463,426.846 77.4797,423.68 69.5,419.5C 68.469,418.751 67.3024,418.085 66,417.5C 65.6667,417.833 65.3333,418.167 65,418.5C 63.4884,416.314 61.4884,414.647 59,413.5C 58.6667,413.833 58.3333,414.167 58,414.5C 56.9971,411.844 55.3304,410.844 53,411.5C 49.2607,407.633 44.9274,403.633 40,399.5C 39.1667,287.832 39.3333,176.165 40.5,64.5C 44.5172,66.8609 48.5172,69.1942 52.5,71.5 Z"/></g>
<g><path style="opacity:0.008" fill="#7c027c" d="M 458.5,64.5 C 458.56,63.9569 458.893,63.6236 459.5,63.5C 460.824,74.9931 460.824,86.3265 459.5,97.5C 459.828,86.3206 459.495,75.3206 458.5,64.5 Z"/></g>
<g><path style="opacity:0.957" fill="#4d15b7" d="M 180.5,165.5 C 185.085,166.136 189.085,167.803 192.5,170.5C 196.962,173.829 200.129,177.829 202,182.5C 202.573,188.352 200.24,192.685 195,195.5C 192.333,194.167 189.667,194.167 187,195.5C 183.975,193.639 181.475,191.306 179.5,188.5C 170.557,183.303 161.557,183.303 152.5,188.5C 149.402,190.416 146.402,192.583 143.5,195C 137.6,196.687 132.6,195.02 128.5,190C 128.957,189.586 129.291,189.086 129.5,188.5C 127.205,185.711 127.039,182.711 129,179.5C 130.586,178.395 131.752,177.061 132.5,175.5C 132.833,176.833 133.167,176.833 133.5,175.5C 134.865,173.14 136.865,171.473 139.5,170.5C 141.609,169.672 143.609,168.505 145.5,167C 147.966,165.684 150.299,165.184 152.5,165.5C 154.267,164.744 156.1,164.077 158,163.5C 163.76,163.578 169.593,163.578 175.5,163.5C 177.195,164.174 178.862,164.841 180.5,165.5 Z"/></g>
<g><path style="opacity:0.959" fill="#4d14b8" d="M 373.5,213.5 C 371.579,219.597 367.912,224.43 362.5,228C 358.475,229.232 354.475,231.066 350.5,233.5C 350.167,232.167 349.833,232.167 349.5,233.5C 347.598,235.151 345.598,235.484 343.5,234.5C 342.833,234.5 342.167,234.5 341.5,234.5C 340.601,235.472 339.434,236.138 338,236.5C 334.333,235.167 330.667,235.167 327,236.5C 325.674,236.245 324.674,235.578 324,234.5C 323.374,236.991 322.541,236.991 321.5,234.5C 319.05,235.626 317.05,234.959 315.5,232.5C 314.893,232.624 314.56,232.957 314.5,233.5C 311.242,231.488 308.242,229.821 305.5,228.5C 300.874,225.428 299.207,221.261 300.5,216C 303.731,208.813 309.064,206.48 316.5,209C 318.928,211.276 321.095,213.109 323,214.5C 327.36,213.69 331.694,214.024 336,215.5C 336.953,213.408 338.286,213.075 340,214.5C 342.954,212.53 345.787,211.197 348.5,210.5C 351.745,206.648 355.411,203.315 359.5,200.5C 360.793,201.645 361.959,201.311 363,199.5C 364.498,201.614 366.331,202.114 368.5,201C 370.533,203.306 372.2,205.306 373.5,207C 372.189,209.274 372.189,211.44 373.5,213.5 Z"/></g>
<g><path style="opacity:0.004" fill="#000000" d="M 341.5,234.5 C 342.167,234.5 342.833,234.5 343.5,234.5C 342.833,237.167 342.167,237.167 341.5,234.5 Z"/></g>
<g><path style="opacity:0.981" fill="#4d15ba" d="M 173.5,257.5 C 177.505,258.498 180.839,260.498 183.5,263.5C 185.167,264.5 186.5,265.833 187.5,267.5C 190.514,271.005 193.181,274.838 195.5,279C 194.742,280.364 195.242,281.531 197,282.5C 197.77,285.153 198.27,287.486 198.5,289.5C 200.246,291.534 200.58,293.701 199.5,296C 202.167,304.333 202.167,312.667 199.5,321C 200.58,323.299 200.246,325.466 198.5,327.5C 196.429,338.613 190.929,347.946 182,355.5C 181.667,355.167 181.333,354.833 181,354.5C 178.73,357.477 175.73,359.477 172,360.5C 168.553,360.858 165.053,360.858 161.5,360.5C 158.915,360.812 156.248,360.312 153.5,359C 152.874,358.25 152.374,357.416 152,356.5C 150.687,357.287 149.52,356.954 148.5,355.5C 143.844,352.132 140.844,348.632 139.5,345C 136.844,343.997 135.844,342.33 136.5,340C 133.751,337.356 132.418,334.356 132.5,331C 131.418,329.67 130.751,328.17 130.5,326.5C 131.833,325.833 131.833,325.167 130.5,324.5C 129.294,323.12 129.627,321.953 131.5,321C 134.87,319.125 137.703,317.291 140,315.5C 140.333,315.833 140.667,316.167 141,316.5C 144.58,313.958 148.08,311.291 151.5,308.5C 149.803,307.636 148.637,306.303 148,304.5C 147.667,304.833 147.333,305.167 147,305.5C 140.324,301.719 134.491,297.552 129.5,293C 129.892,291.989 130.559,291.489 131.5,291.5C 131.167,290.833 130.833,290.167 130.5,289.5C 131.844,284.877 133.511,280.877 135.5,277.5C 136.234,276.292 136.567,274.959 136.5,273.5C 137.552,273.649 138.552,273.483 139.5,273C 139.5,272 139.5,271 139.5,270C 143.946,264.941 149.113,260.774 155,257.5C 155.977,258.774 156.811,258.774 157.5,257.5C 162.882,255.012 168.215,255.012 173.5,257.5 Z"/></g>
<g><path style="opacity:0.982" fill="#4d15ba" d="M 363.5,277.5 C 364.914,279.867 366.248,282.367 367.5,285C 367.167,285.333 366.833,285.667 366.5,286C 367.357,286.689 368.023,287.522 368.5,288.5C 367.347,289.687 367.347,290.687 368.5,291.5C 369.34,293.614 368.673,295.447 366.5,297C 361.473,299.845 356.473,302.679 351.5,305.5C 350.235,306.479 348.901,307.479 347.5,308.5C 351.087,312.025 354.92,314.358 359,315.5C 361.297,317.291 364.13,319.125 367.5,321C 369.548,322.226 369.881,323.726 368.5,325.5C 368.816,327.701 368.316,330.034 367,332.5C 366.355,333.646 365.522,334.646 364.5,335.5C 365.443,337.47 364.776,338.97 362.5,340C 362.833,340.333 363.167,340.667 363.5,341C 361.354,345.307 358.354,348.807 354.5,351.5C 351.221,353.317 348.055,355.983 345,359.5C 344.667,359.167 344.333,358.833 344,358.5C 343.311,359.357 342.478,360.023 341.5,360.5C 340.005,359.295 338.672,359.295 337.5,360.5C 334.245,361.209 331.245,361.209 328.5,360.5C 324.118,359.897 320.618,357.897 318,354.5C 317.667,354.833 317.333,355.167 317,355.5C 314.628,353.297 312.461,350.963 310.5,348.5C 309.046,347.48 308.713,346.313 309.5,345C 307.593,343.931 306.259,342.431 305.5,340.5C 302.977,336.938 301.31,332.938 300.5,328.5C 301.043,328.44 301.376,328.107 301.5,327.5C 299.165,325.511 298.498,323.178 299.5,320.5C 296.833,312.5 296.833,304.5 299.5,296.5C 297.978,294.844 298.311,293.677 300.5,293C 300.043,292.586 299.709,292.086 299.5,291.5C 301.475,290.251 301.809,288.751 300.5,287C 302.569,286.676 302.902,285.842 301.5,284.5C 304.144,277.598 308.144,271.265 313.5,265.5C 315.319,263.912 317.153,262.246 319,260.5C 319.333,260.833 319.667,261.167 320,261.5C 320.442,259.321 321.442,258.655 323,259.5C 323.417,258.244 324.25,257.577 325.5,257.5C 328.263,256.345 331.263,255.678 334.5,255.5C 347.833,257.068 357.499,264.402 363.5,277.5 Z"/></g>
<g><path style="opacity:0.004" fill="#21105c" d="M 499.5,283.5 C 499.5,297.833 499.5,312.167 499.5,326.5C 498.167,312.167 498.167,297.833 499.5,283.5 Z"/></g>
<g><path style="opacity:0.004" fill="#0000ff" d="M 94.5,472.5 C 93.8333,473.167 93.8333,473.167 94.5,472.5 Z"/></g>
<g><path style="opacity:0.004" fill="#000000" d="M 112.5,477.5 C 111.833,478.167 111.833,478.167 112.5,477.5 Z"/></g>
<g><path style="opacity:0.004" fill="#0000ff" d="M 136.5,482.5 C 135.833,483.167 135.833,483.167 136.5,482.5 Z"/></g>
<g><path style="opacity:0.004" fill="#0000ff" d="M 355.5,482.5 C 356.833,483.167 356.833,483.167 355.5,482.5 Z"/></g>
<g><path style="opacity:0.004" fill="#1f0f4f" d="M 169.5,488.5 C 169.897,487.475 170.563,487.308 171.5,488C 170.906,488.464 170.239,488.631 169.5,488.5 Z"/></g>
<g><path style="opacity:0.004" fill="#241177" d="M 319.5,488.5 C 320.251,487.427 321.251,487.26 322.5,488C 321.552,488.483 320.552,488.649 319.5,488.5 Z"/></g>
</svg>
