<?xml version="1.0" encoding="UTF-8"?>
<!DOCTYPE svg PUBLIC "-//W3C//DTD SVG 1.1//EN" "http://www.w3.org/Graphics/SVG/1.1/DTD/svg11.dtd">
<svg xmlns="http://www.w3.org/2000/svg" version="1.1" width="50px" height="50px" style="shape-rendering:geometricPrecision; text-rendering:geometricPrecision; image-rendering:optimizeQuality; fill-rule:evenodd; clip-rule:evenodd" xmlns:xlink="http://www.w3.org/1999/xlink">
<g><path style="opacity:1" fill="#fbfafd" d="M -0.5,-0.5 C 4.83333,-0.5 10.1667,-0.5 15.5,-0.5C 15.5,-0.166667 15.5,0.166667 15.5,0.5C 7.57226,2.76187 2.23892,7.76187 -0.5,15.5C -0.5,10.1667 -0.5,4.83333 -0.5,-0.5 Z"/></g>
<g><path style="opacity:1" fill="#fcfbfd" d="M 25.5,-0.5 C 33.5,-0.5 41.5,-0.5 49.5,-0.5C 49.5,14.1667 49.5,28.8333 49.5,43.5C 45.521,40.1877 41.8544,36.521 38.5,32.5C 44.972,17.1251 40.6387,6.12511 25.5,-0.5 Z"/></g>
<g><path style="opacity:1" fill="#6a21b4" d="M 15.5,0.5 C 15.5,0.166667 15.5,-0.166667 15.5,-0.5C 18.8333,-0.5 22.1667,-0.5 25.5,-0.5C 40.6387,6.12511 44.972,17.1251 38.5,32.5C 41.8544,36.521 45.521,40.1877 49.5,43.5C 49.5,44.8333 49.5,46.1667 49.5,47.5C 48.5,47.8333 47.8333,48.5 47.5,49.5C 46.1667,49.5 44.8333,49.5 43.5,49.5C 40.1877,45.521 36.521,41.8544 32.5,38.5C 29.9168,39.8089 27.2501,40.8089 24.5,41.5C 24.5,39.1667 24.5,36.8333 24.5,34.5C 21.9407,34.8016 19.6074,34.4682 17.5,33.5C 27.4392,34.7016 33.1059,30.3682 34.5,20.5C 32.7264,11.722 27.3931,7.38869 18.5,7.5C 19.209,6.59603 20.209,6.26269 21.5,6.5C 21.5,4.5 21.5,2.5 21.5,0.5C 19.5,0.5 17.5,0.5 15.5,0.5 Z"/></g>
<g><path style="opacity:1" fill="#fcfbfd" d="M 18.5,7.5 C 27.3931,7.38869 32.7264,11.722 34.5,20.5C 33.1059,30.3682 27.4392,34.7016 17.5,33.5C 7.56942,29.2107 5.06942,22.2107 10,12.5C 12.3575,9.90875 15.1908,8.24209 18.5,7.5 Z"/></g>
<g><path style="opacity:1" fill="#5a1fba" d="M 15.5,0.5 C 17.5,0.5 19.5,0.5 21.5,0.5C 21.5,2.5 21.5,4.5 21.5,6.5C 20.209,6.26269 19.209,6.59603 18.5,7.5C 15.1908,8.24209 12.3575,9.90875 10,12.5C 5.06942,22.2107 7.56942,29.2107 17.5,33.5C 19.6074,34.4682 21.9407,34.8016 24.5,34.5C 24.5,36.8333 24.5,39.1667 24.5,41.5C 12.0821,42.462 3.74876,37.1287 -0.5,25.5C -0.5,22.1667 -0.5,18.8333 -0.5,15.5C 2.23892,7.76187 7.57226,2.76187 15.5,0.5 Z"/></g>
<g><path style="opacity:1" fill="#fcfbfd" d="M -0.5,25.5 C 3.74876,37.1287 12.0821,42.462 24.5,41.5C 27.2501,40.8089 29.9168,39.8089 32.5,38.5C 36.521,41.8544 40.1877,45.521 43.5,49.5C 28.8333,49.5 14.1667,49.5 -0.5,49.5C -0.5,41.5 -0.5,33.5 -0.5,25.5 Z"/></g>
<g><path style="opacity:1" fill="#f2eaf8" d="M 49.5,47.5 C 49.5,48.1667 49.5,48.8333 49.5,49.5C 48.8333,49.5 48.1667,49.5 47.5,49.5C 47.8333,48.5 48.5,47.8333 49.5,47.5 Z"/></g>
</svg>
