<?xml version="1.0" encoding="UTF-8"?>
<!DOCTYPE svg PUBLIC "-//W3C//DTD SVG 1.1//EN" "http://www.w3.org/Graphics/SVG/1.1/DTD/svg11.dtd">
<svg xmlns="http://www.w3.org/2000/svg" version="1.1" width="32px" height="32px" style="shape-rendering:geometricPrecision; text-rendering:geometricPrecision; image-rendering:optimizeQuality; fill-rule:evenodd; clip-rule:evenodd" xmlns:xlink="http://www.w3.org/1999/xlink">
<g><path style="opacity:1" fill="#fefafc" d="M -0.5,-0.5 C 3.5,-0.5 7.5,-0.5 11.5,-0.5C 5.83333,1.83333 1.83333,5.83333 -0.5,11.5C -0.5,7.5 -0.5,3.5 -0.5,-0.5 Z"/></g>
<g><path style="opacity:1" fill="#fdf9fc" d="M 19.5,-0.5 C 23.5,-0.5 27.5,-0.5 31.5,-0.5C 31.5,3.5 31.5,7.5 31.5,11.5C 29.1667,5.83333 25.1667,1.83333 19.5,-0.5 Z"/></g>
<g><path style="opacity:1" fill="#ce3192" d="M 11.5,-0.5 C 14.1667,-0.5 16.8333,-0.5 19.5,-0.5C 25.1667,1.83333 29.1667,5.83333 31.5,11.5C 31.5,14.1667 31.5,16.8333 31.5,19.5C 29.1667,25.1667 25.1667,29.1667 19.5,31.5C 16.8333,31.5 14.1667,31.5 11.5,31.5C 5.83333,29.1667 1.83333,25.1667 -0.5,19.5C -0.5,16.8333 -0.5,14.1667 -0.5,11.5C 1.83333,5.83333 5.83333,1.83333 11.5,-0.5 Z"/></g>
<g><path style="opacity:1" fill="#fdf6fa" d="M 12.5,4.5 C 19.4971,3.66619 22.6637,6.66619 22,13.5C 17.7147,18.8208 13.3814,18.8208 9,13.5C 8.04313,9.63857 9.20979,6.63857 12.5,4.5 Z"/></g>
<g><path style="opacity:1" fill="#fdf7fb" d="M 8.5,16.5 C 10.4486,18.3054 12.7819,19.3054 15.5,19.5C 18.4362,18.3512 21.4362,17.8512 24.5,18C 27.7433,23.8224 25.91,27.3224 19,28.5C 13.6523,29.8405 8.98565,28.5071 5,24.5C 4.27926,20.9463 5.44593,18.2796 8.5,16.5 Z"/></g>
<g><path style="opacity:1" fill="#fdf9fc" d="M -0.5,19.5 C 1.83333,25.1667 5.83333,29.1667 11.5,31.5C 7.5,31.5 3.5,31.5 -0.5,31.5C -0.5,27.5 -0.5,23.5 -0.5,19.5 Z"/></g>
<g><path style="opacity:1" fill="#fdf9fc" d="M 31.5,19.5 C 31.5,23.5 31.5,27.5 31.5,31.5C 27.5,31.5 23.5,31.5 19.5,31.5C 25.1667,29.1667 29.1667,25.1667 31.5,19.5 Z"/></g>
</svg>
