<?xml version="1.0" encoding="UTF-8"?>
<!DOCTYPE svg PUBLIC "-//W3C//DTD SVG 1.1//EN" "http://www.w3.org/Graphics/SVG/1.1/DTD/svg11.dtd">
<svg xmlns="http://www.w3.org/2000/svg" version="1.1" width="616px" height="616px" style="shape-rendering:geometricPrecision; text-rendering:geometricPrecision; image-rendering:optimizeQuality; fill-rule:evenodd; clip-rule:evenodd" xmlns:xlink="http://www.w3.org/1999/xlink">
<g><path style="opacity:1" fill="#6119b3" d="M 313.5,-0.5 C 315.833,-0.5 318.167,-0.5 320.5,-0.5C 340.168,1.21349 359.834,3.88016 379.5,7.5C 380.167,7.5 380.833,7.5 381.5,7.5C 384.335,9.4131 387.668,10.4131 391.5,10.5C 394.341,11.6693 397.341,12.6693 400.5,13.5C 400.833,13.5 401.167,13.5 401.5,13.5C 402.78,14.9313 404.447,15.5979 406.5,15.5C 415.103,19.1297 423.77,22.7964 432.5,26.5C 431.942,27.7899 430.942,28.6232 429.5,29C 431.161,42.165 432.161,55.4983 432.5,69C 430.956,69.2896 429.623,69.9563 428.5,71C 431.097,71.7792 431.097,72.2792 428.5,72.5C 426.565,71.8505 424.565,71.5172 422.5,71.5C 422.047,70.5416 421.381,69.7083 420.5,69C 409.122,63.5989 397.455,59.0989 385.5,55.5C 383.565,54.8505 381.565,54.5172 379.5,54.5C 377.898,52.9261 375.898,52.2594 373.5,52.5C 373.167,52.5 372.833,52.5 372.5,52.5C 360.588,48.5676 348.254,46.2343 335.5,45.5C 328.361,44.2929 321.028,43.6262 313.5,43.5C 316.421,42.8061 319.421,41.9728 322.5,41C 321.692,40.6924 321.025,40.1924 320.5,39.5C 321.729,38.7189 323.062,38.2189 324.5,38C 323.195,33.0817 322.529,27.9151 322.5,22.5C 322.667,17.5 322.833,12.5 323,7.5C 325.096,6.28453 324.929,5.4512 322.5,5C 324.631,4.45694 326.631,3.62361 328.5,2.5C 324.204,1.67248 319.871,1.17248 315.5,1C 314.584,0.721579 313.918,0.221579 313.5,-0.5 Z"/></g>
<g><path style="opacity:0.314" fill="#9673be" d="M 320.5,-0.5 C 327.5,-0.5 334.5,-0.5 341.5,-0.5C 354.351,1.27017 367.017,3.93684 379.5,7.5C 359.834,3.88016 340.168,1.21349 320.5,-0.5 Z"/></g>
<g><path style="opacity:0.357" fill="#997cbe" d="M 272.5,-0.5 C 278.5,-0.5 284.5,-0.5 290.5,-0.5C 274.96,1.4012 259.293,3.4012 243.5,5.5C 253.055,2.94473 262.722,0.944734 272.5,-0.5 Z"/></g>
<g><path style="opacity:1" fill="#5b18b5" d="M 290.5,-0.5 C 298.167,-0.5 305.833,-0.5 313.5,-0.5C 313.918,0.221579 314.584,0.721579 315.5,1C 319.871,1.17248 324.204,1.67248 328.5,2.5C 326.631,3.62361 324.631,4.45694 322.5,5C 324.929,5.4512 325.096,6.28453 323,7.5C 322.833,12.5 322.667,17.5 322.5,22.5C 322.529,27.9151 323.195,33.0817 324.5,38C 323.062,38.2189 321.729,38.7189 320.5,39.5C 321.025,40.1924 321.692,40.6924 322.5,41C 319.421,41.9728 316.421,42.8061 313.5,43.5C 301.294,43.2172 289.294,43.8839 277.5,45.5C 272.703,45.5226 268.036,46.1892 263.5,47.5C 257.809,48.3715 252.142,49.3715 246.5,50.5C 228.897,54.4807 211.897,60.4807 195.5,68.5C 195.389,67.8826 195.056,67.3826 194.5,67C 199.625,65.8513 199.458,64.6846 194,63.5C 192.739,63.7591 191.739,64.4258 191,65.5C 190.301,63.9262 190.635,62.5929 192,61.5C 192.179,50.9234 192.679,40.4234 193.5,30C 192.584,29.6258 191.75,29.1258 191,28.5C 188.649,31.4328 187.649,31.0994 188,27.5C 192.746,25.7825 192.579,24.7825 187.5,24.5C 194.394,21.2188 201.394,18.2188 208.5,15.5C 210.403,15.2041 212.07,14.5375 213.5,13.5C 213.833,13.5 214.167,13.5 214.5,13.5C 217.659,12.6693 220.659,11.6693 223.5,10.5C 227.171,10.2429 230.505,9.24286 233.5,7.5C 233.833,7.5 234.167,7.5 234.5,7.5C 237.187,7.66409 239.854,7.49742 242.5,7C 243.056,6.61742 243.389,6.11742 243.5,5.5C 259.293,3.4012 274.96,1.4012 290.5,-0.5 Z"/></g>
<g><path style="opacity:0.157" fill="#8368a2" d="M 243.5,5.5 C 243.389,6.11742 243.056,6.61742 242.5,7C 239.854,7.49742 237.187,7.66409 234.5,7.5C 237.273,6.34281 240.273,5.67615 243.5,5.5 Z"/></g>
<g><path style="opacity:0.361" fill="#a58bc3" d="M 233.5,7.5 C 230.505,9.24286 227.171,10.2429 223.5,10.5C 226.495,8.75714 229.829,7.75714 233.5,7.5 Z"/></g>
<g><path style="opacity:0.482" fill="#9b7eb9" d="M 381.5,7.5 C 385.171,7.75714 388.505,8.75714 391.5,10.5C 387.668,10.4131 384.335,9.4131 381.5,7.5 Z"/></g>
<g><path style="opacity:0.18" fill="#a28cbb" d="M 223.5,10.5 C 220.659,11.6693 217.659,12.6693 214.5,13.5C 216.919,11.1376 219.919,10.1376 223.5,10.5 Z"/></g>
<g><path style="opacity:0.188" fill="#b29ec0" d="M 391.5,10.5 C 395.081,10.1376 398.081,11.1376 400.5,13.5C 397.341,12.6693 394.341,11.6693 391.5,10.5 Z"/></g>
<g><path style="opacity:0.188" fill="#8e7aa2" d="M 213.5,13.5 C 212.07,14.5375 210.403,15.2041 208.5,15.5C 209.635,13.7868 211.302,13.1201 213.5,13.5 Z"/></g>
<g><path style="opacity:0.012" fill="#796489" d="M 401.5,13.5 C 403.698,13.1201 405.365,13.7868 406.5,15.5C 404.447,15.5979 402.78,14.9313 401.5,13.5 Z"/></g>
<g><path style="opacity:0.255" fill="#9d86be" d="M 208.5,15.5 C 201.394,18.2188 194.394,21.2188 187.5,24.5C 186.833,24.5 186.167,24.5 185.5,24.5C 185.167,24.5 184.833,24.5 184.5,24.5C 191.853,19.9357 199.853,16.9357 208.5,15.5 Z"/></g>
<g><path style="opacity:0.255" fill="#957cad" d="M 406.5,15.5 C 416.741,17.7928 426.408,21.4594 435.5,26.5C 434.5,26.5 433.5,26.5 432.5,26.5C 423.77,22.7964 415.103,19.1297 406.5,15.5 Z"/></g>
<g><path style="opacity:1" fill="#5518b8" d="M 185.5,24.5 C 186.167,24.5 186.833,24.5 187.5,24.5C 192.579,24.7825 192.746,25.7825 188,27.5C 187.649,31.0994 188.649,31.4328 191,28.5C 191.75,29.1258 192.584,29.6258 193.5,30C 192.679,40.4234 192.179,50.9234 192,61.5C 190.635,62.5929 190.301,63.9262 191,65.5C 191.739,64.4258 192.739,63.7591 194,63.5C 199.458,64.6846 199.625,65.8513 194.5,67C 195.056,67.3826 195.389,67.8826 195.5,68.5C 193.365,70.0709 191.032,71.4043 188.5,72.5C 187.573,70.5241 186.24,70.1908 184.5,71.5C 184.833,72.1667 185.167,72.8333 185.5,73.5C 184.007,74.1411 183.007,75.1411 182.5,76.5C 181.127,76.3433 179.793,76.51 178.5,77C 176.308,78.0669 174.642,79.5669 173.5,81.5C 169.473,81.0056 166.473,82.5056 164.5,86C 156.557,90.9436 148.891,96.277 141.5,102C 139.536,103.451 138.203,105.284 137.5,107.5C 136.448,107.351 135.448,107.517 134.5,108C 125,116.167 116.167,125 108,134.5C 107.517,135.448 107.351,136.448 107.5,137.5C 104.833,138.167 103.167,139.833 102.5,142.5C 102.5,142.833 102.5,143.167 102.5,143.5C 100.629,143.859 99.129,144.859 98,146.5C 94.5168,150.807 91.6834,155.473 89.5,160.5C 86.818,162.53 85.1514,165.197 84.5,168.5C 83.5,169.167 82.5,169.833 81.5,170.5C 81.8269,148.925 81.4936,127.425 80.5,106C 81.4491,105.383 82.2825,105.549 83,106.5C 83.6667,105.5 83.6667,104.5 83,103.5C 82.1072,104.711 81.2739,104.711 80.5,103.5C 83.4607,100.431 83.1273,99.4314 79.5,100.5C 80.1098,99.609 80.4431,98.609 80.5,97.5C 82.8333,97.1667 84.1667,95.8333 84.5,93.5C 85.4734,93.0133 86.4734,92.5133 87.5,92C 90.484,89.0314 93.1506,85.8647 95.5,82.5C 98.7642,80.9059 101.431,78.5725 103.5,75.5C 103.833,74.5 104.5,73.8333 105.5,73.5C 111.708,70.2963 117.042,65.963 121.5,60.5C 124.198,60.1551 126.198,58.8218 127.5,56.5C 131.025,55.2411 134.025,53.2411 136.5,50.5C 141.709,48.2809 146.376,45.2809 150.5,41.5C 154.272,41.1162 157.272,39.4495 159.5,36.5C 161.027,36.573 162.027,35.9063 162.5,34.5C 163.167,34.5 163.833,34.5 164.5,34.5C 171.904,31.9642 178.904,28.6309 185.5,24.5 Z"/></g>
<g><path style="opacity:1" fill="#6719b1" d="M 432.5,26.5 C 433.5,26.5 434.5,26.5 435.5,26.5C 435.833,26.5 436.167,26.5 436.5,26.5C 436.414,27.4959 436.748,28.3292 437.5,29C 439.927,30.5914 442.593,31.4248 445.5,31.5C 455.53,37.3617 465.53,43.5284 475.5,50C 476.448,50.4828 477.448,50.6495 478.5,50.5C 478.833,50.5 479.167,50.5 479.5,50.5C 482.622,55.2748 486.955,58.6081 492.5,60.5C 492.833,60.5 493.167,60.5 493.5,60.5C 494.909,62.4169 496.576,64.2502 498.5,66C 502.224,68.52 505.891,71.02 509.5,73.5C 509.414,74.4959 509.748,75.3292 510.5,76C 512.734,77.7498 515.068,79.2498 517.5,80.5C 517.369,81.2389 517.536,81.9056 518,82.5C 522.75,87.0916 527.583,91.425 532.5,95.5C 533.057,98.0499 534.39,100.05 536.5,101.5C 536.06,106.46 538.06,109.96 542.5,112C 542,112.5 541.5,113 541,113.5C 539.308,111.755 537.475,111.422 535.5,112.5C 536.736,113.357 538.069,114.023 539.5,114.5C 540.333,133.158 540.833,151.824 541,170.5C 541.718,169.549 542.551,169.383 543.5,170C 540.403,172.781 540.403,174.947 543.5,176.5C 542.5,177.833 541.5,179.167 540.5,180.5C 539.269,179.349 539.269,178.183 540.5,177C 539.552,176.517 538.552,176.351 537.5,176.5C 537.657,173.656 536.324,171.989 533.5,171.5C 527.547,162.533 521.547,153.533 515.5,144.5C 514.583,143.873 513.583,143.539 512.5,143.5C 512.5,143.167 512.5,142.833 512.5,142.5C 509.626,137.446 506.126,132.78 502,128.5C 499.564,125.553 496.731,123.22 493.5,121.5C 493.5,119.5 492.5,118.5 490.5,118.5C 490.141,116.629 489.141,115.129 487.5,114C 482.89,109.544 477.89,105.71 472.5,102.5C 470.596,102.262 469.262,101.262 468.5,99.5C 468.027,98.0937 467.027,97.427 465.5,97.5C 464.738,95.7376 463.404,94.7376 461.5,94.5C 461.027,93.0937 460.027,92.427 458.5,92.5C 454.237,89.0191 449.903,85.5191 445.5,82C 444.207,81.51 442.873,81.3433 441.5,81.5C 440.508,81.6716 439.842,81.3382 439.5,80.5C 439.027,79.0937 438.027,78.427 436.5,78.5C 434.847,78.3404 433.514,77.6737 432.5,76.5C 431.167,75.1667 429.833,73.8333 428.5,72.5C 431.097,72.2792 431.097,71.7792 428.5,71C 429.623,69.9563 430.956,69.2896 432.5,69C 432.161,55.4983 431.161,42.165 429.5,29C 430.942,28.6232 431.942,27.7899 432.5,26.5 Z"/></g>
<g><path style="opacity:0.345" fill="#9976be" d="M 436.5,26.5 C 439.696,27.9287 442.696,29.5954 445.5,31.5C 442.593,31.4248 439.927,30.5914 437.5,29C 436.748,28.3292 436.414,27.4959 436.5,26.5 Z"/></g>
<g><path style="opacity:0.812" fill="#8663b9" d="M 184.5,24.5 C 184.833,24.5 185.167,24.5 185.5,24.5C 178.904,28.6309 171.904,31.9642 164.5,34.5C 170.511,30.1612 177.177,26.8278 184.5,24.5 Z"/></g>
<g><path style="opacity:0.051" fill="#463e50" d="M 162.5,34.5 C 162.027,35.9063 161.027,36.573 159.5,36.5C 159.973,35.0937 160.973,34.427 162.5,34.5 Z"/></g>
<g><path style="opacity:0.09" fill="#9e8bb6" d="M 159.5,36.5 C 157.272,39.4495 154.272,41.1162 150.5,41.5C 153.22,39.4735 156.22,37.8068 159.5,36.5 Z"/></g>
<g><path style="opacity:0.051" fill="#7e6297" d="M 445.5,31.5 C 457.51,36.1614 468.51,42.4947 478.5,50.5C 477.448,50.6495 476.448,50.4828 475.5,50C 465.53,43.5284 455.53,37.3617 445.5,31.5 Z"/></g>
<g><path style="opacity:0.086" fill="#a38fc4" d="M 150.5,41.5 C 146.376,45.2809 141.709,48.2809 136.5,50.5C 140.624,46.7191 145.291,43.7191 150.5,41.5 Z"/></g>
<g><path style="opacity:0.218" fill="#977eb7" d="M 313.5,43.5 C 321.028,43.6262 328.361,44.2929 335.5,45.5C 333.5,45.5 331.5,45.5 329.5,45.5C 314.827,44.2973 300.16,44.2973 285.5,45.5C 282.833,45.5 280.167,45.5 277.5,45.5C 289.294,43.8839 301.294,43.2172 313.5,43.5 Z"/></g>
<g><path style="opacity:0.039" fill="#5e4d70" d="M 277.5,45.5 C 280.167,45.5 282.833,45.5 285.5,45.5C 278.324,46.6485 270.991,47.6485 263.5,48.5C 263.5,48.1667 263.5,47.8333 263.5,47.5C 268.036,46.1892 272.703,45.5226 277.5,45.5 Z"/></g>
<g><path style="opacity:0.039" fill="#67577a" d="M 329.5,45.5 C 331.5,45.5 333.5,45.5 335.5,45.5C 348.254,46.2343 360.588,48.5676 372.5,52.5C 358.07,49.9648 343.737,47.6315 329.5,45.5 Z"/></g>
<g><path style="opacity:0.086" fill="#8a77a1" d="M 263.5,47.5 C 263.5,47.8333 263.5,48.1667 263.5,48.5C 257.372,50.1944 251.038,51.5277 244.5,52.5C 245.167,51.8333 245.833,51.1667 246.5,50.5C 252.142,49.3715 257.809,48.3715 263.5,47.5 Z"/></g>
<g><path style="opacity:0.235" fill="#937faf" d="M 136.5,50.5 C 134.025,53.2411 131.025,55.2411 127.5,56.5C 129.951,53.7232 132.951,51.7232 136.5,50.5 Z"/></g>
<g><path style="opacity:0.224" fill="#80629b" d="M 373.5,52.5 C 375.898,52.2594 377.898,52.9261 379.5,54.5C 376.99,54.9465 374.99,54.2798 373.5,52.5 Z"/></g>
<g><path style="opacity:0.098" fill="#806e94" d="M 379.5,54.5 C 381.565,54.5172 383.565,54.8505 385.5,55.5C 385.5,55.8333 385.5,56.1667 385.5,56.5C 383.102,56.7406 381.102,56.0739 379.5,54.5 Z"/></g>
<g><path style="opacity:0.302" fill="#8968a3" d="M 479.5,50.5 C 484.185,53.5365 488.519,56.8698 492.5,60.5C 486.955,58.6081 482.622,55.2748 479.5,50.5 Z"/></g>
<g><path style="opacity:0.075" fill="#85789d" d="M 127.5,56.5 C 126.198,58.8218 124.198,60.1551 121.5,60.5C 123.147,58.6736 125.147,57.3403 127.5,56.5 Z"/></g>
<g><path style="opacity:0.357" fill="#8566a7" d="M 385.5,56.5 C 385.5,56.1667 385.5,55.8333 385.5,55.5C 397.455,59.0989 409.122,63.5989 420.5,69C 421.381,69.7083 422.047,70.5416 422.5,71.5C 410.306,66.2389 397.972,61.2389 385.5,56.5 Z"/></g>
<g><path style="opacity:0.055" fill="#86749f" d="M 121.5,60.5 C 117.042,65.963 111.708,70.2963 105.5,73.5C 110.248,68.4159 115.581,64.0826 121.5,60.5 Z"/></g>
<g><path style="opacity:0.251" fill="#7b6391" d="M 493.5,60.5 C 499.438,64.106 504.771,68.4393 509.5,73.5C 505.891,71.02 502.224,68.52 498.5,66C 496.576,64.2502 494.909,62.4169 493.5,60.5 Z"/></g>
<g><path style="opacity:0.192" fill="#7c619f" d="M 246.5,50.5 C 245.833,51.1667 245.167,51.8333 244.5,52.5C 225.995,57.0827 208.328,63.9161 191.5,73C 190.207,73.49 188.873,73.6567 187.5,73.5C 187.5,72.8333 187.833,72.5 188.5,72.5C 191.032,71.4043 193.365,70.0709 195.5,68.5C 211.897,60.4807 228.897,54.4807 246.5,50.5 Z"/></g>
<g><path style="opacity:0.998" fill="#6f40ae" d="M 188.5,72.5 C 187.833,72.5 187.5,72.8333 187.5,73.5C 186.514,75.4077 184.848,76.4077 182.5,76.5C 183.007,75.1411 184.007,74.1411 185.5,73.5C 185.167,72.8333 184.833,72.1667 184.5,71.5C 186.24,70.1908 187.573,70.5241 188.5,72.5 Z"/></g>
<g><path style="opacity:0.475" fill="#80629f" d="M 422.5,71.5 C 424.565,71.5172 426.565,71.8505 428.5,72.5C 429.833,73.8333 431.167,75.1667 432.5,76.5C 428.873,75.2961 425.54,73.6294 422.5,71.5 Z"/></g>
<g><path style="opacity:0.306" fill="#704f89" d="M 509.5,73.5 C 512.784,75.117 515.451,77.4503 517.5,80.5C 515.068,79.2498 512.734,77.7498 510.5,76C 509.748,75.3292 509.414,74.4959 509.5,73.5 Z"/></g>
<g><path style="opacity:0.188" fill="#8268a4" d="M 182.5,76.5 C 179.992,78.9236 176.992,80.5903 173.5,81.5C 174.642,79.5669 176.308,78.0669 178.5,77C 179.793,76.51 181.127,76.3433 182.5,76.5 Z"/></g>
<g><path style="opacity:0.227" fill="#a28dc1" d="M 103.5,75.5 C 101.431,78.5725 98.7642,80.9059 95.5,82.5C 97.5691,79.4275 100.236,77.0941 103.5,75.5 Z"/></g>
<g><path style="opacity:0.059" fill="#8c7aa1" d="M 436.5,78.5 C 438.027,78.427 439.027,79.0937 439.5,80.5C 437.973,80.573 436.973,79.9063 436.5,78.5 Z"/></g>
<g><path style="opacity:0.278" fill="#8b6fa3" d="M 517.5,80.5 C 523.5,84.5 528.5,89.5 532.5,95.5C 527.583,91.425 522.75,87.0916 518,82.5C 517.536,81.9056 517.369,81.2389 517.5,80.5 Z"/></g>
<g><path style="opacity:0.063" fill="#8471a0" d="M 95.5,82.5 C 93.1506,85.8647 90.484,89.0314 87.5,92C 86.4734,92.5133 85.4734,93.0133 84.5,93.5C 87.1453,88.8547 90.8119,85.188 95.5,82.5 Z"/></g>
<g><path style="opacity:0.18" fill="#9073ac" d="M 441.5,81.5 C 442.873,81.3433 444.207,81.51 445.5,82C 449.903,85.5191 454.237,89.0191 458.5,92.5C 452.559,89.2197 446.892,85.553 441.5,81.5 Z"/></g>
<g><path style="opacity:0.071" fill="#7c6890" d="M 458.5,92.5 C 460.027,92.427 461.027,93.0937 461.5,94.5C 459.973,94.573 458.973,93.9063 458.5,92.5 Z"/></g>
<g><path style="opacity:0.098" fill="#b19bc7" d="M 461.5,94.5 C 463.404,94.7376 464.738,95.7376 465.5,97.5C 463.596,97.2624 462.262,96.2624 461.5,94.5 Z"/></g>
<g><path style="opacity:0.239" fill="#a691ce" d="M 84.5,93.5 C 84.1667,95.8333 82.8333,97.1667 80.5,97.5C 81.5,95.8333 82.8333,94.5 84.5,93.5 Z"/></g>
<g><path style="opacity:0.051" fill="#8a72ab" d="M 173.5,81.5 C 161.184,89.6647 149.184,98.3313 137.5,107.5C 138.203,105.284 139.536,103.451 141.5,102C 148.891,96.277 156.557,90.9436 164.5,86C 166.473,82.5056 169.473,81.0056 173.5,81.5 Z"/></g>
<g><path style="opacity:0.125" fill="#9179a5" d="M 465.5,97.5 C 467.027,97.427 468.027,98.0937 468.5,99.5C 466.973,99.573 465.973,98.9063 465.5,97.5 Z"/></g>
<g><path style="opacity:0.153" fill="#7f5d9b" d="M 532.5,95.5 C 535.881,97.8797 538.547,100.88 540.5,104.5C 538.97,103.789 537.637,102.789 536.5,101.5C 534.39,100.05 533.057,98.0499 532.5,95.5 Z"/></g>
<g><path style="opacity:0.314" fill="#8769a1" d="M 472.5,102.5 C 477.89,105.71 482.89,109.544 487.5,114C 489.141,115.129 490.141,116.629 490.5,118.5C 484.074,113.624 478.074,108.291 472.5,102.5 Z"/></g>
<g><path style="opacity:1" fill="#5017ba" d="M 81.5,170.5 C 81.5,171.5 81.5,172.5 81.5,173.5C 77.6121,177.344 74.9455,182.011 73.5,187.5C 73.5,188.167 73.5,188.833 73.5,189.5C 72.6236,189.369 71.9569,189.702 71.5,190.5C 63.5641,204.358 57.8975,219.025 54.5,234.5C 54.5,235.167 54.5,235.833 54.5,236.5C 53.0687,237.78 52.4021,239.447 52.5,241.5C 50.2688,248.446 48.6021,255.78 47.5,263.5C 46.1892,268.036 45.5226,272.703 45.5,277.5C 44.6004,282.332 43.9338,287.332 43.5,292.5C 43.2198,307.365 43.8865,322.032 45.5,336.5C 45.4443,341.731 46.111,346.731 47.5,351.5C 48.2505,359.159 49.9172,366.492 52.5,373.5C 52.5,373.833 52.5,374.167 52.5,374.5C 52.3627,379.124 53.6961,383.124 56.5,386.5C 56.5,386.833 56.5,387.167 56.5,387.5C 56.8349,394.144 58.8349,400.144 62.5,405.5C 65.5971,413.468 69.2637,421.135 73.5,428.5C 73.9399,432.252 75.6066,435.252 78.5,437.5C 78.366,439.292 78.6993,440.958 79.5,442.5C 79.0629,444.074 78.0629,445.241 76.5,446C 77.4491,446.617 78.2825,446.451 79,445.5C 79.4922,446.549 79.3256,447.549 78.5,448.5C 79.2739,449.711 80.1072,449.711 81,448.5C 81.1908,467.858 81.6908,487.191 82.5,506.5C 82.5472,508 81.8805,509 80.5,509.5C 78.298,507.57 75.9647,506.904 73.5,507.5C 69.8588,502.192 65.5255,497.525 60.5,493.5C 60.5,493.167 60.5,492.833 60.5,492.5C 58.5646,488.293 55.8979,484.627 52.5,481.5C 51.0937,481.027 50.427,480.027 50.5,478.5C 45.6026,468.931 40.2693,459.598 34.5,450.5C 34.4077,448.152 33.4077,446.486 31.5,445.5C 31.9689,442.607 30.9689,440.607 28.5,439.5C 24.758,428.275 20.4247,417.275 15.5,406.5C 15.405,404.214 14.7384,402.214 13.5,400.5C 12.6693,397.341 11.6693,394.341 10.5,391.5C 9.95518,388.187 9.45518,384.854 9,381.5C 8.61742,380.944 8.11742,380.611 7.5,380.5C 4.28364,361.454 1.61697,342.454 -0.5,323.5C -0.5,312.833 -0.5,302.167 -0.5,291.5C 1.00937,274.121 3.67603,256.788 7.5,239.5C 7.5,237.833 7.5,236.167 7.5,234.5C 7.5,234.167 7.5,233.833 7.5,233.5C 8.11742,233.611 8.61742,233.944 9,234.5C 9.54822,230.83 10.0482,227.163 10.5,223.5C 11.6693,220.659 12.6693,217.659 13.5,214.5C 13.5,214.167 13.5,213.833 13.5,213.5C 15.2132,212.365 15.8799,210.698 15.5,208.5C 20.1629,196.704 25.3295,185.037 31,173.5C 31.49,172.207 31.6567,170.873 31.5,169.5C 33.2231,168.395 34.2231,166.728 34.5,164.5C 36.2132,163.365 36.8799,161.698 36.5,159.5C 38.7271,158.599 39.7271,156.933 39.5,154.5C 40.6737,153.486 41.3404,152.153 41.5,150.5C 45.2809,146.376 48.2809,141.709 50.5,136.5C 53.2411,134.025 55.2411,131.025 56.5,127.5C 59.6608,126.188 61.6608,123.855 62.5,120.5C 66.9089,116.003 70.5756,111.003 73.5,105.5C 75.6957,104.162 77.6957,102.495 79.5,100.5C 83.1273,99.4314 83.4607,100.431 80.5,103.5C 81.2739,104.711 82.1072,104.711 83,103.5C 83.6667,104.5 83.6667,105.5 83,106.5C 82.2825,105.549 81.4491,105.383 80.5,106C 81.4936,127.425 81.8269,148.925 81.5,170.5 Z"/></g>
<g><path style="opacity:0.271" fill="#9c87bc" d="M 80.5,97.5 C 80.4431,98.609 80.1098,99.609 79.5,100.5C 77.6957,102.495 75.6957,104.162 73.5,105.5C 75.117,102.216 77.4503,99.5491 80.5,97.5 Z"/></g>
<g><path style="opacity:0.098" fill="#7e6d98" d="M 73.5,105.5 C 70.5756,111.003 66.9089,116.003 62.5,120.5C 61.8333,120.833 61.1667,121.167 60.5,121.5C 64.0826,115.581 68.4159,110.248 73.5,105.5 Z"/></g>
<g><path style="opacity:0.098" fill="#6d567f" d="M 540.5,104.5 C 543.243,106.239 545.243,108.573 546.5,111.5C 543.412,110.08 541.412,107.747 540.5,104.5 Z"/></g>
<g><path style="opacity:0.176" fill="#8166a2" d="M 323.5,109.5 C 320.167,109.5 316.833,109.5 313.5,109.5C 307.974,109.179 302.64,109.512 297.5,110.5C 292.113,110.405 286.78,110.905 281.5,112C 272.47,114.523 263.47,117.023 254.5,119.5C 271.066,111.385 288.733,107.719 307.5,108.5C 313.011,108.501 318.344,108.834 323.5,109.5 Z"/></g>
<g><path style="opacity:0.298" fill="#9b7bc0" d="M 313.5,109.5 C 316.833,109.5 320.167,109.5 323.5,109.5C 331.929,109.651 339.929,111.318 347.5,114.5C 336.124,112.331 324.791,110.664 313.5,109.5 Z"/></g>
<g><path style="opacity:1" fill="#5c17b5" d="M 297.5,110.5 C 305.895,109.757 313.895,111.09 321.5,114.5C 321.833,156.5 322.167,198.5 322.5,240.5C 322.497,282.878 321.831,325.045 320.5,367C 321.572,368.284 322.905,368.617 324.5,368C 323.619,369.471 322.286,370.304 320.5,370.5C 317.685,370.017 314.852,369.683 312,369.5C 304.576,371.06 297.076,371.726 289.5,371.5C 283.092,370.981 276.759,369.981 270.5,368.5C 263.658,365.585 256.658,362.919 249.5,360.5C 247.287,359.227 244.954,358.227 242.5,357.5C 238.181,354.004 233.515,351.004 228.5,348.5C 226.596,348.262 225.262,347.262 224.5,345.5C 222.006,341.662 218.673,338.995 214.5,337.5C 214.5,337.167 214.5,336.833 214.5,336.5C 213.833,335.167 213.167,333.833 212.5,332.5C 214.47,331.838 216.47,331.172 218.5,330.5C 218.153,332.14 218.653,333.807 220,335.5C 220.304,333.559 221.137,331.893 222.5,330.5C 221.167,271.167 221.167,211.833 222.5,152.5C 221.624,151.749 220.624,151.249 219.5,151C 219.958,148.169 221.292,145.836 223.5,144C 221.803,143.616 220.137,143.782 218.5,144.5C 219.96,142.537 221.627,140.704 223.5,139C 230.403,133.913 237.403,129.08 244.5,124.5C 246.153,124.34 247.486,123.674 248.5,122.5C 250.967,122.245 252.967,121.245 254.5,119.5C 263.47,117.023 272.47,114.523 281.5,112C 286.78,110.905 292.113,110.405 297.5,110.5 Z"/></g>
<g><path style="opacity:1" fill="#6118b3" d="M 297.5,110.5 C 302.64,109.512 307.974,109.179 313.5,109.5C 324.791,110.664 336.124,112.331 347.5,114.5C 351.203,117.517 355.536,119.184 360.5,119.5C 370.646,124.921 380.646,130.921 390.5,137.5C 391.167,137.5 391.5,137.833 391.5,138.5C 397.5,145.167 403.833,151.5 410.5,157.5C 411.738,160.738 413.738,163.404 416.5,165.5C 418.262,166.262 419.262,167.596 419.5,169.5C 421.074,174.32 423.407,178.653 426.5,182.5C 428.379,183.895 429.379,185.895 429.5,188.5C 428.749,192.866 430.082,196.199 433.5,198.5C 434.995,206.483 436.495,214.483 438,222.5C 438.383,223.056 438.883,223.389 439.5,223.5C 439.5,224.167 439.5,224.833 439.5,225.5C 439.341,241.89 438.341,258.224 436.5,274.5C 436.5,274.833 436.5,275.167 436.5,275.5C 435.503,275.47 434.836,275.97 434.5,277C 433.678,279.434 433.344,281.934 433.5,284.5C 430.84,287.113 429.507,290.446 429.5,294.5C 427.025,295.687 426.025,297.687 426.5,300.5C 421.428,308.971 416.095,317.304 410.5,325.5C 407.097,327.9 404.43,330.9 402.5,334.5C 401.5,334.833 400.833,335.5 400.5,336.5C 396.88,338.453 393.88,341.119 391.5,344.5C 387.587,345.45 384.92,347.783 383.5,351.5C 379.067,352.214 375.4,354.214 372.5,357.5C 372.5,357.833 372.5,358.167 372.5,358.5C 371.127,358.343 369.793,358.51 368.5,359C 364.055,360.597 360.055,362.763 356.5,365.5C 349.744,366.471 343.077,367.971 336.5,370C 334.68,370.2 333.347,371.034 332.5,372.5C 331.833,372.5 331.167,372.5 330.5,372.5C 323.007,372.9 315.507,373.233 308,373.5C 301.594,373.674 295.427,373.007 289.5,371.5C 297.076,371.726 304.576,371.06 312,369.5C 314.852,369.683 317.685,370.017 320.5,370.5C 322.286,370.304 323.619,369.471 324.5,368C 322.905,368.617 321.572,368.284 320.5,367C 321.831,325.045 322.497,282.878 322.5,240.5C 322.167,198.5 321.833,156.5 321.5,114.5C 313.895,111.09 305.895,109.757 297.5,110.5 Z"/></g>
<g><path style="opacity:0.157" fill="#7f6396" d="M 546.5,111.5 C 549.209,114.208 551.542,117.208 553.5,120.5C 550.027,118.363 547.694,115.363 546.5,111.5 Z"/></g>
<g><path style="opacity:0.098" fill="#725b96" d="M 137.5,107.5 C 132.695,112.134 127.695,116.634 122.5,121C 117.634,126.695 112.634,132.195 107.5,137.5C 107.351,136.448 107.517,135.448 108,134.5C 116.167,125 125,116.167 134.5,108C 135.448,107.517 136.448,107.351 137.5,107.5 Z"/></g>
<g><path style="opacity:0.494" fill="#9b74c5" d="M 347.5,114.5 C 352.263,115.395 356.597,117.061 360.5,119.5C 355.536,119.184 351.203,117.517 347.5,114.5 Z"/></g>
<g><path style="opacity:0.071" fill="#8c719e" d="M 490.5,118.5 C 492.5,118.5 493.5,119.5 493.5,121.5C 491.81,121.144 490.81,120.144 490.5,118.5 Z"/></g>
<g><path style="opacity:0.267" fill="#8569a3" d="M 254.5,119.5 C 252.967,121.245 250.967,122.245 248.5,122.5C 249.911,120.461 251.911,119.461 254.5,119.5 Z"/></g>
<g><path style="opacity:1" fill="#6c1aaf" d="M 536.5,101.5 C 537.637,102.789 538.97,103.789 540.5,104.5C 541.412,107.747 543.412,110.08 546.5,111.5C 547.694,115.363 550.027,118.363 553.5,120.5C 554.878,121.545 555.878,122.878 556.5,124.5C 556.427,126.027 557.094,127.027 558.5,127.5C 558.561,131.071 560.227,133.404 563.5,134.5C 563.238,135.978 563.571,137.311 564.5,138.5C 568.189,143.899 571.856,149.233 575.5,154.5C 576.554,160.501 579.221,165.501 583.5,169.5C 585.008,171.181 586.008,173.181 586.5,175.5C 586.343,176.873 586.51,178.207 587,179.5C 591.287,188.893 595.454,198.226 599.5,207.5C 599.5,207.833 599.5,208.167 599.5,208.5C 599.12,210.698 599.787,212.365 601.5,213.5C 601.5,213.833 601.5,214.167 601.5,214.5C 602.331,217.659 603.331,220.659 604.5,223.5C 604.337,225.857 604.503,228.19 605,230.5C 605.2,232.32 606.034,233.653 607.5,234.5C 607.171,237.228 607.837,239.562 609.5,241.5C 609.5,242.167 609.5,242.833 609.5,243.5C 611.309,258.994 613.309,274.328 615.5,289.5C 615.5,299.833 615.5,310.167 615.5,320.5C 613.764,337.397 611.764,354.397 609.5,371.5C 609.5,371.833 609.5,372.167 609.5,372.5C 607.631,374.635 606.964,377.302 607.5,380.5C 607.5,380.833 607.5,381.167 607.5,381.5C 606.883,381.611 606.383,381.944 606,382.5C 605.498,385.513 604.998,388.513 604.5,391.5C 604.5,392.5 604.5,393.5 604.5,394.5C 602.755,396.033 601.755,398.033 601.5,400.5C 601.5,401.5 601.5,402.5 601.5,403.5C 599.952,403.821 599.285,404.821 599.5,406.5C 599.5,407.5 599.5,408.5 599.5,409.5C 595.93,416.317 592.43,423.317 589,430.5C 587.57,433.353 586.737,436.353 586.5,439.5C 586.34,441.153 585.674,442.486 584.5,443.5C 581.601,446.881 579.601,450.881 578.5,455.5C 576.75,456.659 575.75,458.326 575.5,460.5C 575.5,461.167 575.5,461.833 575.5,462.5C 574.504,462.414 573.671,462.748 573,463.5C 569.357,468.455 566.524,473.788 564.5,479.5C 562.209,481.124 560.209,483.124 558.5,485.5C 557.438,487.022 556.771,488.688 556.5,490.5C 555.094,490.973 554.427,491.973 554.5,493.5C 552.107,494.353 550.774,496.019 550.5,498.5C 548.615,499.699 546.782,501.033 545,502.5C 542.48,501.178 541.98,501.845 543.5,504.5C 542.726,505.711 541.893,505.711 541,504.5C 540.027,506.392 539.36,508.392 539,510.5C 538.333,509.833 537.667,509.167 537,508.5C 535.448,513.11 533.614,516.777 531.5,519.5C 526.134,523.866 521.467,528.866 517.5,534.5C 514.585,537.959 511.252,540.959 507.5,543.5C 508.408,537.744 510.908,532.744 515,528.5C 515.599,505.725 515.599,483.059 515,460.5C 514.667,461.167 514.333,461.833 514,462.5C 513.86,460.479 513.693,458.645 513.5,457C 514.624,456.751 515.624,456.251 516.5,455.5C 515.752,453.668 514.752,452.001 513.5,450.5C 513.855,449.478 514.522,448.811 515.5,448.5C 517.047,450.968 518.38,453.635 519.5,456.5C 519.192,458.924 519.526,461.257 520.5,463.5C 523.547,462.125 524.88,459.792 524.5,456.5C 527.064,453.72 529.397,450.72 531.5,447.5C 534.289,444.844 535.956,441.511 536.5,437.5C 538.408,436.514 539.408,434.848 539.5,432.5C 539.5,432.167 539.5,431.833 539.5,431.5C 540.458,431.047 541.292,430.381 542,429.5C 543.806,424.554 546.139,419.888 549,415.5C 549.977,413.26 550.477,410.927 550.5,408.5C 551.458,408.047 552.292,407.381 553,406.5C 555.429,401.385 556.929,396.052 557.5,390.5C 557.5,390.167 557.5,389.833 557.5,389.5C 560.172,387.609 561.172,384.942 560.5,381.5C 561.924,379.485 562.59,377.152 562.5,374.5C 562.5,374.167 562.5,373.833 562.5,373.5C 565.011,366.476 566.677,359.143 567.5,351.5C 568.644,347.036 569.31,342.37 569.5,337.5C 573.695,305.037 571.362,273.037 562.5,241.5C 562.405,239.214 561.738,237.214 560.5,235.5C 560.5,235.167 560.5,234.833 560.5,234.5C 559.899,230.465 559.066,226.465 558,222.5C 557.34,220.676 556.173,219.343 554.5,218.5C 554.5,218.167 554.5,217.833 554.5,217.5C 551.787,206.746 547.453,196.746 541.5,187.5C 540.985,183.701 539.319,180.701 536.5,178.5C 536.741,175.966 535.741,174.3 533.5,173.5C 533.5,172.833 533.5,172.167 533.5,171.5C 536.324,171.989 537.657,173.656 537.5,176.5C 538.552,176.351 539.552,176.517 540.5,177C 539.269,178.183 539.269,179.349 540.5,180.5C 541.5,179.167 542.5,177.833 543.5,176.5C 540.403,174.947 540.403,172.781 543.5,170C 542.551,169.383 541.718,169.549 541,170.5C 540.833,151.824 540.333,133.158 539.5,114.5C 538.069,114.023 536.736,113.357 535.5,112.5C 537.475,111.422 539.308,111.755 541,113.5C 541.5,113 542,112.5 542.5,112C 538.06,109.96 536.06,106.46 536.5,101.5 Z"/></g>
<g><path style="opacity:0.275" fill="#876ea4" d="M 248.5,122.5 C 247.486,123.674 246.153,124.34 244.5,124.5C 245.183,122.824 246.517,122.157 248.5,122.5 Z"/></g>
<g><path style="opacity:0.588" fill="#8866c6" d="M 62.5,120.5 C 61.6608,123.855 59.6608,126.188 56.5,127.5C 57.3403,125.147 58.6736,123.147 60.5,121.5C 61.1667,121.167 61.8333,120.833 62.5,120.5 Z"/></g>
<g><path style="opacity:0.106" fill="#997fa6" d="M 556.5,124.5 C 557.906,124.973 558.573,125.973 558.5,127.5C 557.094,127.027 556.427,126.027 556.5,124.5 Z"/></g>
<g><path style="opacity:0.063" fill="#89719f" d="M 360.5,119.5 C 371.74,123.402 381.74,129.402 390.5,137.5C 380.646,130.921 370.646,124.921 360.5,119.5 Z"/></g>
<g><path style="opacity:0.118" fill="#9583b2" d="M 56.5,127.5 C 55.2411,131.025 53.2411,134.025 50.5,136.5C 51.7232,132.951 53.7232,129.951 56.5,127.5 Z"/></g>
<g><path style="opacity:0.537" fill="#815a9f" d="M 558.5,127.5 C 560.9,129.296 562.567,131.63 563.5,134.5C 560.227,133.404 558.561,131.071 558.5,127.5 Z"/></g>
<g><path style="opacity:0.09" fill="#947db1" d="M 244.5,124.5 C 237.403,129.08 230.403,133.913 223.5,139C 221.627,140.704 219.96,142.537 218.5,144.5C 217.395,145.6 216.062,146.267 214.5,146.5C 221.057,139.446 228.39,133.279 236.5,128C 239.11,126.519 241.777,125.352 244.5,124.5 Z"/></g>
<g><path style="opacity:0.118" fill="#80629b" d="M 493.5,121.5 C 496.731,123.22 499.564,125.553 502,128.5C 506.126,132.78 509.626,137.446 512.5,142.5C 505.854,135.85 499.521,128.85 493.5,121.5 Z"/></g>
<g><path style="opacity:0.184" fill="#8e7caf" d="M 50.5,136.5 C 48.2809,141.709 45.2809,146.376 41.5,150.5C 43.7191,145.291 46.7191,140.624 50.5,136.5 Z"/></g>
<g><path style="opacity:0.055" fill="#8875a8" d="M 107.5,137.5 C 106.118,139.549 104.452,141.215 102.5,142.5C 103.167,139.833 104.833,138.167 107.5,137.5 Z"/></g>
<g><path style="opacity:0.016" fill="#816198" d="M 563.5,134.5 C 568.521,140.54 572.521,147.206 575.5,154.5C 571.856,149.233 568.189,143.899 564.5,138.5C 563.571,137.311 563.238,135.978 563.5,134.5 Z"/></g>
<g><path style="opacity:0.035" fill="#826a98" d="M 391.5,138.5 C 399.167,143.5 405.5,149.833 410.5,157.5C 403.833,151.5 397.5,145.167 391.5,138.5 Z"/></g>
<g><path style="opacity:1" fill="#5818b7" d="M 212.5,332.5 C 206.463,326.465 200.796,320.131 195.5,313.5C 193.561,308.91 191.227,304.577 188.5,300.5C 188.088,298.113 187.088,296.113 185.5,294.5C 184.349,288.545 182.683,282.712 180.5,277C 180.164,275.97 179.497,275.47 178.5,275.5C 178.5,275.167 178.5,274.833 178.5,274.5C 178.45,270.812 178.116,267.145 177.5,263.5C 177.415,261.667 176.748,260.334 175.5,259.5C 175.5,259.167 175.5,258.833 175.5,258.5C 175.694,247.692 175.694,236.692 175.5,225.5C 175.5,224.833 175.5,224.167 175.5,223.5C 176.117,223.389 176.617,223.056 177,222.5C 177.977,216.448 179.144,210.448 180.5,204.5C 184.041,197.575 186.707,190.242 188.5,182.5C 190.696,178.123 193.529,174.123 197,170.5C 197.608,168.846 198.108,167.179 198.5,165.5C 202.38,164.281 204.38,161.615 204.5,157.5C 208.566,154.437 211.899,150.771 214.5,146.5C 216.062,146.267 217.395,145.6 218.5,144.5C 220.137,143.782 221.803,143.616 223.5,144C 221.292,145.836 219.958,148.169 219.5,151C 220.624,151.249 221.624,151.749 222.5,152.5C 221.167,211.833 221.167,271.167 222.5,330.5C 221.137,331.893 220.304,333.559 220,335.5C 218.653,333.807 218.153,332.14 218.5,330.5C 216.47,331.172 214.47,331.838 212.5,332.5 Z"/></g>
<g><path style="opacity:0.051" fill="#8c74af" d="M 102.5,143.5 C 98.5189,149.475 94.1856,155.142 89.5,160.5C 91.6834,155.473 94.5168,150.807 98,146.5C 99.129,144.859 100.629,143.859 102.5,143.5 Z"/></g>
<g><path style="opacity:0.051" fill="#352d42" d="M 41.5,150.5 C 41.3404,152.153 40.6737,153.486 39.5,154.5C 39.2291,152.62 39.8958,151.287 41.5,150.5 Z"/></g>
<g><path style="opacity:0.102" fill="#9585b4" d="M 39.5,154.5 C 39.7271,156.933 38.7271,158.599 36.5,159.5C 36.7497,157.326 37.7497,155.659 39.5,154.5 Z"/></g>
<g><path style="opacity:0.086" fill="#8976a2" d="M 214.5,146.5 C 211.899,150.771 208.566,154.437 204.5,157.5C 207.152,153.183 210.485,149.516 214.5,146.5 Z"/></g>
<g><path style="opacity:0.843" fill="#8560b7" d="M 204.5,157.5 C 204.38,161.615 202.38,164.281 198.5,165.5C 200.016,162.467 202.016,159.8 204.5,157.5 Z"/></g>
<g><path style="opacity:0.035" fill="#8768a0" d="M 410.5,157.5 C 413.471,159.443 415.471,162.109 416.5,165.5C 413.738,163.404 411.738,160.738 410.5,157.5 Z"/></g>
<g><path style="opacity:0.043" fill="#9072a9" d="M 512.5,143.5 C 513.583,143.539 514.583,143.873 515.5,144.5C 521.547,153.533 527.547,162.533 533.5,171.5C 533.5,172.167 533.5,172.833 533.5,173.5C 526.532,163.523 519.532,153.523 512.5,143.5 Z"/></g>
<g><path style="opacity:0.298" fill="#685092" d="M 36.5,159.5 C 36.8799,161.698 36.2132,163.365 34.5,164.5C 34.1201,162.302 34.7868,160.635 36.5,159.5 Z"/></g>
<g><path style="opacity:0.933" fill="#8352a8" d="M 575.5,154.5 C 579.193,158.862 581.86,163.862 583.5,169.5C 579.221,165.501 576.554,160.501 575.5,154.5 Z"/></g>
<g><path style="opacity:0.067" fill="#876eac" d="M 89.5,160.5 C 88.6167,163.704 86.9501,166.371 84.5,168.5C 85.1514,165.197 86.818,162.53 89.5,160.5 Z"/></g>
<g><path style="opacity:0.557" fill="#957dc2" d="M 34.5,164.5 C 34.2231,166.728 33.2231,168.395 31.5,169.5C 31.5923,167.152 32.5923,165.486 34.5,164.5 Z"/></g>
<g><path style="opacity:0.055" fill="#6c5c8c" d="M 84.5,168.5 C 84.2503,170.674 83.2503,172.341 81.5,173.5C 81.5,172.5 81.5,171.5 81.5,170.5C 82.5,169.833 83.5,169.167 84.5,168.5 Z"/></g>
<g><path style="opacity:0.035" fill="#8d74af" d="M 198.5,165.5 C 198.108,167.179 197.608,168.846 197,170.5C 193.529,174.123 190.696,178.123 188.5,182.5C 188.343,181.127 188.51,179.793 189,178.5C 191.699,173.744 194.866,169.411 198.5,165.5 Z"/></g>
<g><path style="opacity:0.239" fill="#906ca9" d="M 533.5,173.5 C 535.741,174.3 536.741,175.966 536.5,178.5C 534.75,177.341 533.75,175.674 533.5,173.5 Z"/></g>
<g><path style="opacity:0.051" fill="#846b9a" d="M 419.5,169.5 C 423.143,173.12 425.477,177.453 426.5,182.5C 423.407,178.653 421.074,174.32 419.5,169.5 Z"/></g>
<g><path style="opacity:0.439" fill="#8870b4" d="M 31.5,169.5 C 31.6567,170.873 31.49,172.207 31,173.5C 25.3295,185.037 20.1629,196.704 15.5,208.5C 18.9131,194.679 24.2464,181.679 31.5,169.5 Z"/></g>
<g><path style="opacity:0.435" fill="#86629f" d="M 586.5,175.5 C 589.892,181.954 593.058,188.621 596,195.5C 597.881,199.307 599.047,203.307 599.5,207.5C 595.454,198.226 591.287,188.893 587,179.5C 586.51,178.207 586.343,176.873 586.5,175.5 Z"/></g>
<g><path style="opacity:0.278" fill="#83669b" d="M 536.5,178.5 C 539.319,180.701 540.985,183.701 541.5,187.5C 539.109,185.065 537.442,182.065 536.5,178.5 Z"/></g>
<g><path style="opacity:0.071" fill="#7d659f" d="M 81.5,173.5 C 79.3045,178.572 76.6379,183.239 73.5,187.5C 74.9455,182.011 77.6121,177.344 81.5,173.5 Z"/></g>
<g><path style="opacity:0.016" fill="#9383ad" d="M 185.5,188.5 C 185.34,190.153 184.674,191.486 183.5,192.5C 183.229,190.62 183.896,189.287 185.5,188.5 Z"/></g>
<g><path style="opacity:0.937" fill="#8a5fb8" d="M 429.5,188.5 C 430.117,188.611 430.617,188.944 431,189.5C 432.131,192.445 432.964,195.445 433.5,198.5C 430.082,196.199 428.749,192.866 429.5,188.5 Z"/></g>
<g><path style="opacity:0.031" fill="#866b9d" d="M 541.5,187.5 C 547.453,196.746 551.787,206.746 554.5,217.5C 549.649,207.791 545.316,197.791 541.5,187.5 Z"/></g>
<g><path style="opacity:0.333" fill="#8158bb" d="M 188.5,182.5 C 186.707,190.242 184.041,197.575 180.5,204.5C 180.5,203.167 180.5,201.833 180.5,200.5C 181.108,197.673 182.108,195.007 183.5,192.5C 184.674,191.486 185.34,190.153 185.5,188.5C 185.621,185.895 186.621,183.895 188.5,182.5 Z"/></g>
<g><path style="opacity:0.153" fill="#8d6ca7" d="M 433.5,198.5 C 436.886,206.381 438.886,214.714 439.5,223.5C 438.883,223.389 438.383,223.056 438,222.5C 436.495,214.483 434.995,206.483 433.5,198.5 Z"/></g>
<g><path style="opacity:0.196" fill="#806aa2" d="M 15.5,208.5 C 15.8799,210.698 15.2132,212.365 13.5,213.5C 13.1201,211.302 13.7868,209.635 15.5,208.5 Z"/></g>
<g><path style="opacity:0.2" fill="#7f6399" d="M 599.5,208.5 C 601.256,209.552 601.923,211.219 601.5,213.5C 599.787,212.365 599.12,210.698 599.5,208.5 Z"/></g>
<g><path style="opacity:0.016" fill="#907fa8" d="M 13.5,214.5 C 12.6693,217.659 11.6693,220.659 10.5,223.5C 10.1376,219.919 11.1376,216.919 13.5,214.5 Z"/></g>
<g><path style="opacity:0.016" fill="#877098" d="M 601.5,214.5 C 603.862,216.919 604.862,219.919 604.5,223.5C 603.331,220.659 602.331,217.659 601.5,214.5 Z"/></g>
<g><path style="opacity:0.263" fill="#8d70b6" d="M 180.5,200.5 C 180.5,201.833 180.5,203.167 180.5,204.5C 179.144,210.448 177.977,216.448 177,222.5C 176.617,223.056 176.117,223.389 175.5,223.5C 176.091,215.485 177.757,207.818 180.5,200.5 Z"/></g>
<g><path style="opacity:0.584" fill="#9672b3" d="M 554.5,218.5 C 556.173,219.343 557.34,220.676 558,222.5C 559.066,226.465 559.899,230.465 560.5,234.5C 559.883,234.389 559.383,234.056 559,233.5C 557.997,228.327 556.497,223.327 554.5,218.5 Z"/></g>
<g><path style="opacity:0.569" fill="#7e65a8" d="M 73.5,189.5 C 66.3032,204.216 59.9699,219.216 54.5,234.5C 57.8975,219.025 63.5641,204.358 71.5,190.5C 71.9569,189.702 72.6236,189.369 73.5,189.5 Z"/></g>
<g><path style="opacity:0.38" fill="#9765b5" d="M 604.5,223.5 C 606.37,226.809 607.37,230.475 607.5,234.5C 606.034,233.653 605.2,232.32 605,230.5C 604.503,228.19 604.337,225.857 604.5,223.5 Z"/></g>
<g><path style="opacity:0.604" fill="#9577c5" d="M 10.5,223.5 C 10.0482,227.163 9.54822,230.83 9,234.5C 8.61742,233.944 8.11742,233.611 7.5,233.5C 7.75714,229.829 8.75714,226.495 10.5,223.5 Z"/></g>
<g><path style="opacity:0.165" fill="#7c6d95" d="M 7.5,234.5 C 7.5,236.167 7.5,237.833 7.5,239.5C 6.83333,240.167 6.16667,240.833 5.5,241.5C 5.72148,238.933 6.38815,236.599 7.5,234.5 Z"/></g>
<g><path style="opacity:0.031" fill="#9b8fb1" d="M 54.5,236.5 C 54.8799,238.698 54.2132,240.365 52.5,241.5C 52.4021,239.447 53.0687,237.78 54.5,236.5 Z"/></g>
<g><path style="opacity:0.188" fill="#7a658b" d="M 607.5,234.5 C 608.612,236.599 609.279,238.933 609.5,241.5C 607.837,239.562 607.171,237.228 607.5,234.5 Z"/></g>
<g><path style="opacity:0.016" fill="#92809f" d="M 560.5,235.5 C 561.738,237.214 562.405,239.214 562.5,241.5C 560.72,240.01 560.054,238.01 560.5,235.5 Z"/></g>
<g><path style="opacity:0.68" fill="#7a62a1" d="M 52.5,241.5 C 51.7679,249.063 50.4346,256.397 48.5,263.5C 48.1667,263.5 47.8333,263.5 47.5,263.5C 48.6021,255.78 50.2688,248.446 52.5,241.5 Z"/></g>
<g><path style="opacity:0.137" fill="#4f396d" d="M 175.5,225.5 C 175.694,236.692 175.694,247.692 175.5,258.5C 174.181,247.402 174.181,236.402 175.5,225.5 Z"/></g>
<g><path style="opacity:0.031" fill="#9a80ae" d="M 562.5,241.5 C 571.362,273.037 573.695,305.037 569.5,337.5C 569.5,335.167 569.5,332.833 569.5,330.5C 569.252,322.967 569.585,315.467 570.5,308C 569.548,285.599 566.882,263.432 562.5,241.5 Z"/></g>
<g><path style="opacity:0.118" fill="#9273b2" d="M 439.5,225.5 C 440.659,235.992 440.825,246.659 440,257.5C 439.461,263.43 438.295,269.096 436.5,274.5C 438.341,258.224 439.341,241.89 439.5,225.5 Z"/></g>
<g><path style="opacity:0.067" fill="#8e78ae" d="M 175.5,259.5 C 176.748,260.334 177.415,261.667 177.5,263.5C 178.116,267.145 178.45,270.812 178.5,274.5C 176.763,269.77 175.763,264.77 175.5,259.5 Z"/></g>
<g><path style="opacity:0.49" fill="#8f67ae" d="M 609.5,243.5 C 612.013,253.067 614.013,262.734 615.5,272.5C 615.5,278.167 615.5,283.833 615.5,289.5C 613.309,274.328 611.309,258.994 609.5,243.5 Z"/></g>
<g><path style="opacity:0.035" fill="#5c4f73" d="M 47.5,263.5 C 47.8333,263.5 48.1667,263.5 48.5,263.5C 47.7804,271.007 46.7804,278.34 45.5,285.5C 45.5,282.833 45.5,280.167 45.5,277.5C 45.5226,272.703 46.1892,268.036 47.5,263.5 Z"/></g>
<g><path style="opacity:0.216" fill="#8d75bd" d="M 7.5,239.5 C 3.67603,256.788 1.00937,274.121 -0.5,291.5C -0.5,285.167 -0.5,278.833 -0.5,272.5C 1.21936,262.233 3.21936,251.899 5.5,241.5C 6.16667,240.833 6.83333,240.167 7.5,239.5 Z"/></g>
<g><path style="opacity:0.341" fill="#9c7cba" d="M 436.5,275.5 C 436.253,278.854 435.253,281.854 433.5,284.5C 433.344,281.934 433.678,279.434 434.5,277C 434.836,275.97 435.503,275.47 436.5,275.5 Z"/></g>
<g><path style="opacity:0.447" fill="#9570c8" d="M 178.5,275.5 C 179.497,275.47 180.164,275.97 180.5,277C 182.683,282.712 184.349,288.545 185.5,294.5C 182.212,288.649 179.879,282.315 178.5,275.5 Z"/></g>
<g><path style="opacity:0.471" fill="#9d78c1" d="M 433.5,284.5 C 433.23,288.358 431.897,291.691 429.5,294.5C 429.507,290.446 430.84,287.113 433.5,284.5 Z"/></g>
<g><path style="opacity:0.498" fill="#8361c2" d="M 45.5,277.5 C 45.5,280.167 45.5,282.833 45.5,285.5C 45.5,287.167 45.5,288.833 45.5,290.5C 44.8333,291.167 44.1667,291.833 43.5,292.5C 43.9338,287.332 44.6004,282.332 45.5,277.5 Z"/></g>
<g><path style="opacity:0.522" fill="#865dae" d="M 429.5,294.5 C 429.379,297.105 428.379,299.105 426.5,300.5C 426.025,297.687 427.025,295.687 429.5,294.5 Z"/></g>
<g><path style="opacity:0.016" fill="#9181a6" d="M 185.5,294.5 C 187.088,296.113 188.088,298.113 188.5,300.5C 186.621,299.105 185.621,297.105 185.5,294.5 Z"/></g>
<g><path style="opacity:0.161" fill="#9886b8" d="M 45.5,290.5 C 44.8129,303.792 44.8129,317.126 45.5,330.5C 45.5,332.5 45.5,334.5 45.5,336.5C 43.8865,322.032 43.2198,307.365 43.5,292.5C 44.1667,291.833 44.8333,291.167 45.5,290.5 Z"/></g>
<g><path style="opacity:0.043" fill="#7c6a93" d="M 188.5,300.5 C 191.227,304.577 193.561,308.91 195.5,313.5C 191.857,309.88 189.523,305.547 188.5,300.5 Z"/></g>
<g><path style="opacity:0.039" fill="#866d9b" d="M 426.5,300.5 C 426.657,301.873 426.49,303.207 426,304.5C 421.788,312.28 416.622,319.28 410.5,325.5C 416.095,317.304 421.428,308.971 426.5,300.5 Z"/></g>
<g><path style="opacity:0.012" fill="#816e99" d="M 410.5,325.5 C 408.57,329.1 405.903,332.1 402.5,334.5C 404.43,330.9 407.097,327.9 410.5,325.5 Z"/></g>
<g><path style="opacity:0.02" fill="#8a74a5" d="M 195.5,313.5 C 200.796,320.131 206.463,326.465 212.5,332.5C 213.167,333.833 213.833,335.167 214.5,336.5C 206.517,330.203 200.183,322.536 195.5,313.5 Z"/></g>
<g><path style="opacity:0.004" fill="#a59bb0" d="M 402.5,334.5 C 402.5,335.833 401.833,336.5 400.5,336.5C 400.833,335.5 401.5,334.833 402.5,334.5 Z"/></g>
<g><path style="opacity:0.404" fill="#9b72ba" d="M 615.5,320.5 C 615.5,328.167 615.5,335.833 615.5,343.5C 613.885,352.908 611.885,362.242 609.5,371.5C 611.764,354.397 613.764,337.397 615.5,320.5 Z"/></g>
<g><path style="opacity:0.016" fill="#89789e" d="M 214.5,337.5 C 218.673,338.995 222.006,341.662 224.5,345.5C 220.873,343.206 217.539,340.54 214.5,337.5 Z"/></g>
<g><path style="opacity:0.012" fill="#8a769b" d="M 400.5,336.5 C 398.146,339.851 395.146,342.518 391.5,344.5C 393.88,341.119 396.88,338.453 400.5,336.5 Z"/></g>
<g><path style="opacity:0.467" fill="#5f4e7e" d="M 45.5,330.5 C 46.7313,337.332 47.7313,344.332 48.5,351.5C 48.1667,351.5 47.8333,351.5 47.5,351.5C 46.111,346.731 45.4443,341.731 45.5,336.5C 45.5,334.5 45.5,332.5 45.5,330.5 Z"/></g>
<g><path style="opacity:0.063" fill="#866e9c" d="M 391.5,344.5 C 389.249,347.295 386.582,349.628 383.5,351.5C 384.92,347.783 387.587,345.45 391.5,344.5 Z"/></g>
<g><path style="opacity:0.137" fill="#69527a" d="M 569.5,330.5 C 569.5,332.833 569.5,335.167 569.5,337.5C 569.31,342.37 568.644,347.036 567.5,351.5C 567.167,351.5 566.833,351.5 566.5,351.5C 567.292,344.339 568.292,337.339 569.5,330.5 Z"/></g>
<g><path style="opacity:0.267" fill="#946fbb" d="M 419.5,351.5 C 422.833,351.5 426.167,351.5 429.5,351.5C 438.497,351.83 446.83,354.163 454.5,358.5C 443.451,354.905 432.118,352.905 420.5,352.5C 419.833,352.5 419.5,352.167 419.5,351.5 Z"/></g>
<g><path style="opacity:0.067" fill="#584775" d="M 185.5,351.5 C 190.65,350.349 195.984,350.183 201.5,351C 203.766,352.426 205.433,354.259 206.5,356.5C 204.114,355.627 202.114,354.127 200.5,352C 196.848,351.501 193.182,351.335 189.5,351.5C 188.167,351.5 186.833,351.5 185.5,351.5 Z"/></g>
<g><path style="opacity:0.012" fill="#937eab" d="M 228.5,348.5 C 233.515,351.004 238.181,354.004 242.5,357.5C 237.191,355.511 232.524,352.511 228.5,348.5 Z"/></g>
<g><path style="opacity:0.227" fill="#624c78" d="M 429.5,351.5 C 426.167,351.5 422.833,351.5 419.5,351.5C 416.039,350.889 413.372,352.056 411.5,355C 410.552,355.483 409.552,355.649 408.5,355.5C 410.094,354.017 411.76,352.517 413.5,351C 419.016,350.183 424.35,350.349 429.5,351.5 Z"/></g>
<g><path style="opacity:0.051" fill="#735c87" d="M 383.5,351.5 C 380.279,354.278 376.612,356.278 372.5,357.5C 375.4,354.214 379.067,352.214 383.5,351.5 Z"/></g>
<g><path style="opacity:1" fill="#6618b1" d="M 420.5,352.5 C 432.118,352.905 443.451,354.905 454.5,358.5C 456.284,358.893 457.95,359.559 459.5,360.5C 461.903,363.209 464.903,365.209 468.5,366.5C 474.314,371.255 479.98,376.255 485.5,381.5C 486.419,384.089 488.086,386.089 490.5,387.5C 490.226,391.202 491.892,393.535 495.5,394.5C 495.201,396.604 495.534,398.604 496.5,400.5C 497.417,401.127 498.417,401.461 499.5,401.5C 500.338,401.842 500.672,402.508 500.5,403.5C 501.769,408.705 504.102,413.372 507.5,417.5C 508.931,418.78 509.598,420.447 509.5,422.5C 509.259,424.898 509.926,426.898 511.5,428.5C 512.167,428.5 512.5,428.833 512.5,429.5C 511.876,429.917 511.543,430.584 511.5,431.5C 512.512,433.563 513.512,435.563 514.5,437.5C 515.244,441.119 515.577,444.785 515.5,448.5C 514.522,448.811 513.855,449.478 513.5,450.5C 514.752,452.001 515.752,453.668 516.5,455.5C 515.624,456.251 514.624,456.751 513.5,457C 513.693,458.645 513.86,460.479 514,462.5C 514.333,461.833 514.667,461.167 515,460.5C 515.599,483.059 515.599,505.725 515,528.5C 510.908,532.744 508.408,537.744 507.5,543.5C 505.42,544.044 503.42,544.878 501.5,546C 498.961,548.37 496.628,550.87 494.5,553.5C 494.158,554.338 493.492,554.672 492.5,554.5C 489.817,555.877 487.483,557.543 485.5,559.5C 483.381,559.468 482.048,560.468 481.5,562.5C 479.821,562.892 478.154,563.392 476.5,564C 466.351,571.059 456.018,577.559 445.5,583.5C 443.819,585.008 441.819,586.008 439.5,586.5C 435.773,586.495 432.773,587.829 430.5,590.5C 428.708,590.366 427.042,590.699 425.5,591.5C 426.335,590.057 427.668,589.057 429.5,588.5C 428.359,587.575 428.359,586.741 429.5,586C 426.934,584.374 427.101,582.874 430,581.5C 430.333,581.833 430.667,582.167 431,582.5C 430.838,507.787 431.671,433.287 433.5,359C 432.541,357.536 431.208,356.703 429.5,356.5C 426.279,356.171 423.279,356.671 420.5,358C 419.692,357.692 419.025,357.192 418.5,356.5C 419.63,355.378 420.297,354.044 420.5,352.5 Z"/></g>
<g><path style="opacity:0.306" fill="#8d6ebd" d="M 185.5,351.5 C 186.833,351.5 188.167,351.5 189.5,351.5C 184.099,352.517 178.765,353.85 173.5,355.5C 169.214,356.707 164.88,357.707 160.5,358.5C 168.241,354.368 176.574,352.035 185.5,351.5 Z"/></g>
<g><path style="opacity:1" fill="#5517b7" d="M 173.5,355.5 C 176.813,356.672 180.147,357.505 183.5,358C 181.729,357.465 181.396,356.631 182.5,355.5C 184.444,356.189 186.444,356.689 188.5,357C 187.5,357.333 186.5,357.667 185.5,358C 187.568,358.687 189.568,358.52 191.5,357.5C 192.333,434.164 192.833,510.831 193,587.5C 197.168,588.336 197.335,589.336 193.5,590.5C 190.123,588.675 186.457,588.008 182.5,588.5C 181.5,588.5 180.5,588.5 179.5,588.5C 177.017,585.259 173.684,583.592 169.5,583.5C 168.508,583.672 167.842,583.338 167.5,582.5C 166.486,581.326 165.153,580.66 163.5,580.5C 163.167,580.5 162.833,580.5 162.5,580.5C 159.165,577.161 155.165,574.828 150.5,573.5C 147.531,571.008 144.531,568.508 141.5,566C 140.207,565.51 138.873,565.343 137.5,565.5C 137.027,564.094 136.027,563.427 134.5,563.5C 134.027,562.094 133.027,561.427 131.5,561.5C 129.704,559.1 127.37,557.433 124.5,556.5C 124.027,555.094 123.027,554.427 121.5,554.5C 120.415,552.413 118.749,551.08 116.5,550.5C 115.972,549.279 115.305,548.113 114.5,547C 110.66,544.644 106.994,542.144 103.5,539.5C 102.089,537.086 100.089,535.419 97.5,534.5C 97.5123,531.858 96.179,530.525 93.5,530.5C 91.4784,526.478 88.4784,523.478 84.5,521.5C 84.5123,518.858 83.179,517.525 80.5,517.5C 79.2498,515.068 77.7498,512.734 76,510.5C 75.3292,509.748 74.4959,509.414 73.5,509.5C 73.5,508.833 73.5,508.167 73.5,507.5C 75.9647,506.904 78.298,507.57 80.5,509.5C 81.8805,509 82.5472,508 82.5,506.5C 81.6908,487.191 81.1908,467.858 81,448.5C 80.1072,449.711 79.2739,449.711 78.5,448.5C 79.3256,447.549 79.4922,446.549 79,445.5C 78.2825,446.451 77.4491,446.617 76.5,446C 78.0629,445.241 79.0629,444.074 79.5,442.5C 82.1218,446.457 85.1218,450.124 88.5,453.5C 89.1355,455.795 90.4689,457.461 92.5,458.5C 92.5,458.833 92.5,459.167 92.5,459.5C 92.4148,460.995 93.0815,461.995 94.5,462.5C 95.4656,460.604 95.7989,458.604 95.5,456.5C 96.2216,456.082 96.7216,455.416 97,454.5C 97.4974,451.854 97.6641,449.187 97.5,446.5C 97.5,445.833 97.8333,445.5 98.5,445.5C 99.9238,443.485 100.59,441.152 100.5,438.5C 100.5,438.167 100.5,437.833 100.5,437.5C 102.402,433.345 104.069,429.011 105.5,424.5C 108.116,418.59 110.783,412.59 113.5,406.5C 116.093,404.929 117.093,402.596 116.5,399.5C 118.25,398.341 119.25,396.674 119.5,394.5C 123.557,390.716 126.891,386.383 129.5,381.5C 134.193,377.139 138.859,372.805 143.5,368.5C 143.973,367.094 144.973,366.427 146.5,366.5C 148.404,366.262 149.738,365.262 150.5,363.5C 152.153,363.34 153.486,362.674 154.5,361.5C 156.181,359.992 158.181,358.992 160.5,358.5C 164.88,357.707 169.214,356.707 173.5,355.5 Z"/></g>
<g><path style="opacity:1" fill="#6118b3" d="M 419.5,351.5 C 419.5,352.167 419.833,352.5 420.5,352.5C 420.297,354.044 419.63,355.378 418.5,356.5C 419.025,357.192 419.692,357.692 420.5,358C 423.279,356.671 426.279,356.171 429.5,356.5C 431.208,356.703 432.541,357.536 433.5,359C 431.671,433.287 430.838,507.787 431,582.5C 430.667,582.167 430.333,581.833 430,581.5C 427.101,582.874 426.934,584.374 429.5,586C 428.359,586.741 428.359,587.575 429.5,588.5C 427.668,589.057 426.335,590.057 425.5,591.5C 419.795,593.611 414.461,596.278 409.5,599.5C 408.5,599.5 407.5,599.5 406.5,599.5C 404.302,599.875 402.302,600.542 400.5,601.5C 400.5,601.833 400.5,602.167 400.5,602.5C 397.219,602.42 394.219,603.087 391.5,604.5C 389.143,604.337 386.81,604.503 384.5,605C 383.058,605.377 382.058,606.21 381.5,607.5C 381.167,607.5 380.833,607.5 380.5,607.5C 360.515,610.997 340.515,613.664 320.5,615.5C 311.833,615.5 303.167,615.5 294.5,615.5C 286.13,614.85 277.796,613.85 269.5,612.5C 282.675,612.95 295.842,613.617 309,614.5C 312.945,614.137 316.778,613.304 320.5,612C 319.584,611.626 318.75,611.126 318,610.5C 317.333,539.833 317.333,469.167 318,398.5C 319.067,397.809 320.234,397.309 321.5,397C 317.644,396.823 313.977,396.323 310.5,395.5C 318.916,395.542 327.25,394.709 335.5,393C 341.837,391.845 347.837,390.012 353.5,387.5C 354.167,387.5 354.833,387.5 355.5,387.5C 358.272,387.241 360.605,386.241 362.5,384.5C 362.833,384.5 363.167,384.5 363.5,384.5C 365.199,384.66 366.866,384.494 368.5,384C 371.761,381.548 375.094,379.381 378.5,377.5C 382.922,375.594 387.256,373.428 391.5,371C 397.652,366.677 403.319,361.843 408.5,356.5C 408.5,356.167 408.5,355.833 408.5,355.5C 409.552,355.649 410.552,355.483 411.5,355C 413.372,352.056 416.039,350.889 419.5,351.5 Z"/></g>
<g><path style="opacity:1" fill="#5818b7" d="M 189.5,351.5 C 193.182,351.335 196.848,351.501 200.5,352C 202.114,354.127 204.114,355.627 206.5,356.5C 211.575,361.873 217.241,366.539 223.5,370.5C 223.721,371.735 224.388,372.735 225.5,373.5C 224.372,374.262 223.205,374.929 222,375.5C 221.176,449.861 221.343,524.195 222.5,598.5C 224.103,598.312 225.437,598.812 226.5,600C 225.833,600.333 225.167,600.667 224.5,601C 225.252,601.671 225.586,602.504 225.5,603.5C 223.236,602.781 220.903,602.448 218.5,602.5C 216.958,601.699 215.292,601.366 213.5,601.5C 212.07,600.463 210.403,599.796 208.5,599.5C 208.167,599.5 207.833,599.5 207.5,599.5C 199.856,595.727 191.856,592.727 183.5,590.5C 183.167,589.833 182.833,589.167 182.5,588.5C 186.457,588.008 190.123,588.675 193.5,590.5C 197.335,589.336 197.168,588.336 193,587.5C 192.833,510.831 192.333,434.164 191.5,357.5C 189.568,358.52 187.568,358.687 185.5,358C 186.5,357.667 187.5,357.333 188.5,357C 186.444,356.689 184.444,356.189 182.5,355.5C 181.396,356.631 181.729,357.465 183.5,358C 180.147,357.505 176.813,356.672 173.5,355.5C 178.765,353.85 184.099,352.517 189.5,351.5 Z"/></g>
<g><path style="opacity:0.361" fill="#957cc6" d="M -0.5,323.5 C 1.61697,342.454 4.28364,361.454 7.5,380.5C 3.97343,368.005 1.30676,355.338 -0.5,342.5C -0.5,336.167 -0.5,329.833 -0.5,323.5 Z"/></g>
<g><path style="opacity:0.016" fill="#8c7ba2" d="M 242.5,357.5 C 244.954,358.227 247.287,359.227 249.5,360.5C 250.167,361.167 250.833,361.833 251.5,362.5C 248.874,361.578 246.207,360.578 243.5,359.5C 242.702,359.043 242.369,358.376 242.5,357.5 Z"/></g>
<g><path style="opacity:0.4" fill="#9780b1" d="M 459.5,360.5 C 463.046,361.719 466.046,363.719 468.5,366.5C 464.903,365.209 461.903,363.209 459.5,360.5 Z"/></g>
<g><path style="opacity:0.082" fill="#8f829e" d="M 154.5,361.5 C 153.486,362.674 152.153,363.34 150.5,363.5C 151.287,361.896 152.62,361.229 154.5,361.5 Z"/></g>
<g><path style="opacity:0.373" fill="#8567a3" d="M 372.5,358.5 C 367.503,361.428 362.17,363.761 356.5,365.5C 360.055,362.763 364.055,360.597 368.5,359C 369.793,358.51 371.127,358.343 372.5,358.5 Z"/></g>
<g><path style="opacity:0.133" fill="#ad9aca" d="M 150.5,363.5 C 149.738,365.262 148.404,366.262 146.5,366.5C 147.262,364.738 148.596,363.738 150.5,363.5 Z"/></g>
<g><path style="opacity:0.427" fill="#8d73a1" d="M 566.5,351.5 C 566.833,351.5 567.167,351.5 567.5,351.5C 566.677,359.143 565.011,366.476 562.5,373.5C 563.523,366.081 564.857,358.748 566.5,351.5 Z"/></g>
<g><path style="opacity:0.047" fill="#9181ac" d="M 47.5,351.5 C 47.8333,351.5 48.1667,351.5 48.5,351.5C 50.1434,358.748 51.4768,366.081 52.5,373.5C 49.9172,366.492 48.2505,359.159 47.5,351.5 Z"/></g>
<g><path style="opacity:0.31" fill="#875fbc" d="M 249.5,360.5 C 256.658,362.919 263.658,365.585 270.5,368.5C 269.5,368.5 268.5,368.5 267.5,368.5C 261.907,367.082 256.574,365.082 251.5,362.5C 250.833,361.833 250.167,361.167 249.5,360.5 Z"/></g>
<g><path style="opacity:0.506" fill="#8966b0" d="M 356.5,365.5 C 348.943,369.015 340.943,371.349 332.5,372.5C 333.347,371.034 334.68,370.2 336.5,370C 343.077,367.971 349.744,366.471 356.5,365.5 Z"/></g>
<g><path style="opacity:0.031" fill="#8e79a8" d="M 206.5,356.5 C 217.695,364.928 229.361,372.594 241.5,379.5C 240.127,379.657 238.793,379.49 237.5,379C 232.684,376.338 228.018,373.505 223.5,370.5C 217.241,366.539 211.575,361.873 206.5,356.5 Z"/></g>
<g><path style="opacity:0.192" fill="#8e75aa" d="M 408.5,356.5 C 403.319,361.843 397.652,366.677 391.5,371C 387.256,373.428 382.922,375.594 378.5,377.5C 388.495,370.507 398.495,363.507 408.5,356.5 Z"/></g>
<g><path style="opacity:0.161" fill="#6f5490" d="M 267.5,368.5 C 268.5,368.5 269.5,368.5 270.5,368.5C 276.759,369.981 283.092,370.981 289.5,371.5C 295.427,373.007 301.594,373.674 308,373.5C 315.507,373.233 323.007,372.9 330.5,372.5C 328.369,373.314 326.036,373.814 323.5,374C 312.833,374.667 302.167,374.667 291.5,374C 283.106,373.331 275.106,371.497 267.5,368.5 Z"/></g>
<g><path style="opacity:0.02" fill="#836d97" d="M 468.5,366.5 C 475.727,369.727 481.394,374.727 485.5,381.5C 479.98,376.255 474.314,371.255 468.5,366.5 Z"/></g>
<g><path style="opacity:0.184" fill="#a383b7" d="M 609.5,372.5 C 609.435,375.428 608.768,378.095 607.5,380.5C 606.964,377.302 607.631,374.635 609.5,372.5 Z"/></g>
<g><path style="opacity:0.078" fill="#827595" d="M 143.5,368.5 C 138.859,372.805 134.193,377.139 129.5,381.5C 132.885,375.781 137.552,371.448 143.5,368.5 Z"/></g>
<g><path style="opacity:0.059" fill="#9071a3" d="M 562.5,374.5 C 562.59,377.152 561.924,379.485 560.5,381.5C 560.338,379.473 560.505,377.473 561,375.5C 561.383,374.944 561.883,374.611 562.5,374.5 Z"/></g>
<g><path style="opacity:0.463" fill="#9982c0" d="M 7.5,380.5 C 8.11742,380.611 8.61742,380.944 9,381.5C 9.45518,384.854 9.95518,388.187 10.5,391.5C 8.63011,388.191 7.63011,384.525 7.5,380.5 Z"/></g>
<g><path style="opacity:0.612" fill="#8268af" d="M 52.5,374.5 C 53.1174,374.611 53.6174,374.944 54,375.5C 54.4144,379.351 55.2477,383.017 56.5,386.5C 53.6961,383.124 52.3627,379.124 52.5,374.5 Z"/></g>
<g><path style="opacity:0.506" fill="#9a74cb" d="M 241.5,379.5 C 244.877,381.175 248.211,382.842 251.5,384.5C 246.95,384.893 243.617,383.226 241.5,379.5 Z"/></g>
<g><path style="opacity:0.231" fill="#7a6194" d="M 485.5,381.5 C 487.914,382.911 489.581,384.911 490.5,387.5C 488.086,386.089 486.419,384.089 485.5,381.5 Z"/></g>
<g><path style="opacity:0.471" fill="#9573bd" d="M 378.5,377.5 C 375.094,379.381 371.761,381.548 368.5,384C 366.866,384.494 365.199,384.66 363.5,384.5C 368.039,381.4 373.039,379.067 378.5,377.5 Z"/></g>
<g><path style="opacity:0.373" fill="#9b79b4" d="M 607.5,381.5 C 607.243,385.171 606.243,388.505 604.5,391.5C 604.998,388.513 605.498,385.513 606,382.5C 606.383,381.944 606.883,381.611 607.5,381.5 Z"/></g>
<g><path style="opacity:0.502" fill="#9270b3" d="M 560.5,381.5 C 561.172,384.942 560.172,387.609 557.5,389.5C 558.06,387.199 558.56,384.866 559,382.5C 559.383,381.944 559.883,381.611 560.5,381.5 Z"/></g>
<g><path style="opacity:0.078" fill="#8d7aaa" d="M 129.5,381.5 C 126.891,386.383 123.557,390.716 119.5,394.5C 122.074,389.591 125.408,385.258 129.5,381.5 Z"/></g>
<g><path style="opacity:0.204" fill="#937daa" d="M 251.5,384.5 C 254.736,384.518 257.403,385.518 259.5,387.5C 256.514,387.097 253.848,386.097 251.5,384.5 Z"/></g>
<g><path style="opacity:0.192" fill="#917ba6" d="M 362.5,384.5 C 360.605,386.241 358.272,387.241 355.5,387.5C 357.395,385.759 359.728,384.759 362.5,384.5 Z"/></g>
<g><path style="opacity:0.024" fill="#6a5a7e" d="M 259.5,387.5 C 267.181,388.836 274.847,390.336 282.5,392C 290.651,392.837 298.651,393.67 306.5,394.5C 301.167,394.5 295.833,394.5 290.5,394.5C 279.667,393.873 269.334,391.539 259.5,387.5 Z"/></g>
<g><path style="opacity:0.663" fill="#7b509c" d="M 490.5,387.5 C 492.547,389.55 494.214,391.883 495.5,394.5C 491.892,393.535 490.226,391.202 490.5,387.5 Z"/></g>
<g><path style="opacity:0.298" fill="#7d6598" d="M 353.5,387.5 C 347.837,390.012 341.837,391.845 335.5,393C 327.25,394.709 318.916,395.542 310.5,395.5C 303.646,395.824 296.979,395.491 290.5,394.5C 295.833,394.5 301.167,394.5 306.5,394.5C 322.423,393.94 338.09,391.606 353.5,387.5 Z"/></g>
<g><path style="opacity:1" fill="#5c17b5" d="M 223.5,370.5 C 228.018,373.505 232.684,376.338 237.5,379C 238.793,379.49 240.127,379.657 241.5,379.5C 243.617,383.226 246.95,384.893 251.5,384.5C 253.848,386.097 256.514,387.097 259.5,387.5C 269.334,391.539 279.667,393.873 290.5,394.5C 296.979,395.491 303.646,395.824 310.5,395.5C 313.977,396.323 317.644,396.823 321.5,397C 320.234,397.309 319.067,397.809 318,398.5C 317.333,469.167 317.333,539.833 318,610.5C 318.75,611.126 319.584,611.626 320.5,612C 316.778,613.304 312.945,614.137 309,614.5C 295.842,613.617 282.675,612.95 269.5,612.5C 257.806,610.961 246.139,609.294 234.5,607.5C 231.943,605.393 228.943,604.059 225.5,603.5C 225.586,602.504 225.252,601.671 224.5,601C 225.167,600.667 225.833,600.333 226.5,600C 225.437,598.812 224.103,598.312 222.5,598.5C 221.343,524.195 221.176,449.861 222,375.5C 223.205,374.929 224.372,374.262 225.5,373.5C 224.388,372.735 223.721,371.735 223.5,370.5 Z"/></g>
<g><path style="opacity:0.031" fill="#726486" d="M 119.5,394.5 C 119.25,396.674 118.25,398.341 116.5,399.5C 116.75,397.326 117.75,395.659 119.5,394.5 Z"/></g>
<g><path style="opacity:0.361" fill="#976cba" d="M 557.5,390.5 C 556.929,396.052 555.429,401.385 553,406.5C 552.292,407.381 551.458,408.047 550.5,408.5C 552.32,402.21 554.654,396.21 557.5,390.5 Z"/></g>
<g><path style="opacity:0.039" fill="#94839f" d="M 604.5,394.5 C 604.245,396.967 603.245,398.967 601.5,400.5C 601.755,398.033 602.755,396.033 604.5,394.5 Z"/></g>
<g><path style="opacity:0.184" fill="#a394b8" d="M 10.5,391.5 C 11.6693,394.341 12.6693,397.341 13.5,400.5C 11.1376,398.081 10.1376,395.081 10.5,391.5 Z"/></g>
<g><path style="opacity:0.408" fill="#906fc6" d="M 56.5,387.5 C 58.678,392.692 60.678,398.026 62.5,403.5C 62.5,404.167 62.5,404.833 62.5,405.5C 58.8349,400.144 56.8349,394.144 56.5,387.5 Z"/></g>
<g><path style="opacity:0.988" fill="#8351ae" d="M 495.5,394.5 C 497.588,396.336 498.921,398.669 499.5,401.5C 498.417,401.461 497.417,401.127 496.5,400.5C 495.534,398.604 495.201,396.604 495.5,394.5 Z"/></g>
<g><path style="opacity:0.012" fill="#70628a" d="M 13.5,400.5 C 14.7384,402.214 15.405,404.214 15.5,406.5C 13.7202,405.01 13.0535,403.01 13.5,400.5 Z"/></g>
<g><path style="opacity:0.012" fill="#665370" d="M 601.5,403.5 C 601.573,405.027 600.906,406.027 599.5,406.5C 599.285,404.821 599.952,403.821 601.5,403.5 Z"/></g>
<g><path style="opacity:0.384" fill="#9474b4" d="M 500.5,403.5 C 503.588,407.75 505.922,412.416 507.5,417.5C 504.102,413.372 501.769,408.705 500.5,403.5 Z"/></g>
<g><path style="opacity:0.055" fill="#83709e" d="M 62.5,403.5 C 66.7386,411.537 70.4053,419.871 73.5,428.5C 69.2637,421.135 65.5971,413.468 62.5,405.5C 62.5,404.833 62.5,404.167 62.5,403.5 Z"/></g>
<g><path style="opacity:0.29" fill="#79609d" d="M 116.5,399.5 C 117.093,402.596 116.093,404.929 113.5,406.5C 110.783,412.59 108.116,418.59 105.5,424.5C 105.167,424.5 104.833,424.5 104.5,424.5C 107.734,415.701 111.734,407.368 116.5,399.5 Z"/></g>
<g><path style="opacity:0.094" fill="#7c5d94" d="M 599.5,409.5 C 596.228,420.035 591.895,430.035 586.5,439.5C 586.737,436.353 587.57,433.353 589,430.5C 592.43,423.317 595.93,416.317 599.5,409.5 Z"/></g>
<g><path style="opacity:0.035" fill="#8974ac" d="M 15.5,406.5 C 20.4247,417.275 24.758,428.275 28.5,439.5C 24.1682,431.496 20.3348,423.163 17,414.5C 15.9207,411.937 15.4207,409.271 15.5,406.5 Z"/></g>
<g><path style="opacity:0.267" fill="#9280ae" d="M 104.5,424.5 C 104.833,424.5 105.167,424.5 105.5,424.5C 104.069,429.011 102.402,433.345 100.5,437.5C 101.061,432.824 102.394,428.491 104.5,424.5 Z"/></g>
<g><path style="opacity:0.302" fill="#937ca6" d="M 509.5,422.5 C 511.074,424.102 511.741,426.102 511.5,428.5C 509.926,426.898 509.259,424.898 509.5,422.5 Z"/></g>
<g><path style="opacity:0.039" fill="#9b7fae" d="M 550.5,408.5 C 550.477,410.927 549.977,413.26 549,415.5C 546.139,419.888 543.806,424.554 542,429.5C 541.292,430.381 540.458,431.047 539.5,431.5C 542.914,423.673 546.581,416.007 550.5,408.5 Z"/></g>
<g><path style="opacity:0.569" fill="#8e6cac" d="M 512.5,429.5 C 513.774,431.993 514.44,434.659 514.5,437.5C 513.512,435.563 512.512,433.563 511.5,431.5C 511.543,430.584 511.876,429.917 512.5,429.5 Z"/></g>
<g><path style="opacity:0.341" fill="#9075b8" d="M 73.5,428.5 C 74.9059,430.474 76.4059,432.474 78,434.5C 78.4828,435.448 78.6495,436.448 78.5,437.5C 75.6066,435.252 73.9399,432.252 73.5,428.5 Z"/></g>
<g><path style="opacity:0.557" fill="#8d63b5" d="M 539.5,432.5 C 539.408,434.848 538.408,436.514 536.5,437.5C 536.75,435.326 537.75,433.659 539.5,432.5 Z"/></g>
<g><path style="opacity:0.6" fill="#7d5db0" d="M 78.5,437.5 C 82.3308,442.489 85.6641,447.822 88.5,453.5C 85.1218,450.124 82.1218,446.457 79.5,442.5C 78.6993,440.958 78.366,439.292 78.5,437.5 Z"/></g>
<g><path style="opacity:0.275" fill="#7f63af" d="M 28.5,439.5 C 30.9689,440.607 31.9689,442.607 31.5,445.5C 29.9925,443.819 28.9925,441.819 28.5,439.5 Z"/></g>
<g><path style="opacity:0.078" fill="#866da7" d="M 100.5,438.5 C 100.59,441.152 99.9238,443.485 98.5,445.5C 98.3379,443.473 98.5045,441.473 99,439.5C 99.3826,438.944 99.8826,438.611 100.5,438.5 Z"/></g>
<g><path style="opacity:0.902" fill="#8455b0" d="M 536.5,437.5 C 535.956,441.511 534.289,444.844 531.5,447.5C 531.5,446.833 531.5,446.167 531.5,445.5C 532.669,442.489 534.336,439.822 536.5,437.5 Z"/></g>
<g><path style="opacity:0.365" fill="#61407b" d="M 584.5,443.5 C 583.105,447.905 581.105,451.905 578.5,455.5C 579.601,450.881 581.601,446.881 584.5,443.5 Z"/></g>
<g><path style="opacity:0.278" fill="#8974aa" d="M 31.5,445.5 C 33.4077,446.486 34.4077,448.152 34.5,450.5C 32.5923,449.514 31.5923,447.848 31.5,445.5 Z"/></g>
<g><path style="opacity:0.616" fill="#8f6cab" d="M 514.5,437.5 C 515.877,440.353 517.044,443.353 518,446.5C 518.61,449.827 519.11,453.161 519.5,456.5C 518.38,453.635 517.047,450.968 515.5,448.5C 515.577,444.785 515.244,441.119 514.5,437.5 Z"/></g>
<g><path style="opacity:0.467" fill="#866eac" d="M 97.5,446.5 C 97.6641,449.187 97.4974,451.854 97,454.5C 96.7216,455.416 96.2216,456.082 95.5,456.5C 95.7526,452.96 96.4192,449.627 97.5,446.5 Z"/></g>
<g><path style="opacity:0.204" fill="#9b81b2" d="M 531.5,445.5 C 531.5,446.167 531.5,446.833 531.5,447.5C 529.397,450.72 527.064,453.72 524.5,456.5C 526.087,452.317 528.421,448.65 531.5,445.5 Z"/></g>
<g><path style="opacity:0.02" fill="#77688b" d="M 88.5,453.5 C 90.543,454.579 91.8763,456.246 92.5,458.5C 90.4689,457.461 89.1355,455.795 88.5,453.5 Z"/></g>
<g><path style="opacity:0.063" fill="#9374ab" d="M 578.5,455.5 C 578.25,457.674 577.25,459.341 575.5,460.5C 575.75,458.326 576.75,456.659 578.5,455.5 Z"/></g>
<g><path style="opacity:0.322" fill="#826da1" d="M 95.5,456.5 C 95.7989,458.604 95.4656,460.604 94.5,462.5C 93.0815,461.995 92.4148,460.995 92.5,459.5C 93.8999,458.9 94.8999,457.9 95.5,456.5 Z"/></g>
<g><path style="opacity:0.565" fill="#744c96" d="M 519.5,456.5 C 520.158,457.398 520.824,458.398 521.5,459.5C 522.288,458.23 523.288,457.23 524.5,456.5C 524.88,459.792 523.547,462.125 520.5,463.5C 519.526,461.257 519.192,458.924 519.5,456.5 Z"/></g>
<g><path style="opacity:0.043" fill="#7b689a" d="M 34.5,450.5 C 40.2693,459.598 45.6026,468.931 50.5,478.5C 43.6128,470.059 38.2794,460.726 34.5,450.5 Z"/></g>
<g><path style="opacity:0.039" fill="#7f6397" d="M 575.5,462.5 C 572.069,468.373 568.402,474.04 564.5,479.5C 566.524,473.788 569.357,468.455 573,463.5C 573.671,462.748 574.504,462.414 575.5,462.5 Z"/></g>
<g><path style="opacity:0.486" fill="#8572a4" d="M 52.5,481.5 C 55.8979,484.627 58.5646,488.293 60.5,492.5C 58.9256,492.063 57.7589,491.063 57,489.5C 55.2437,486.927 53.7437,484.26 52.5,481.5 Z"/></g>
<g><path style="opacity:0.357" fill="#845f9f" d="M 564.5,479.5 C 562.555,483.736 559.888,487.403 556.5,490.5C 556.771,488.688 557.438,487.022 558.5,485.5C 560.209,483.124 562.209,481.124 564.5,479.5 Z"/></g>
<g><path style="opacity:0.012" fill="#685f73" d="M 556.5,490.5 C 556.573,492.027 555.906,493.027 554.5,493.5C 554.427,491.973 555.094,490.973 556.5,490.5 Z"/></g>
<g><path style="opacity:0.208" fill="#725587" d="M 554.5,493.5 C 553.92,495.749 552.587,497.415 550.5,498.5C 550.774,496.019 552.107,494.353 554.5,493.5 Z"/></g>
<g><path style="opacity:0.235" fill="#78629e" d="M 60.5,493.5 C 65.5255,497.525 69.8588,502.192 73.5,507.5C 73.5,508.167 73.5,508.833 73.5,509.5C 68.4393,504.771 64.106,499.438 60.5,493.5 Z"/></g>
<g><path style="opacity:0.957" fill="#7e46ae" d="M 550.5,498.5 C 549.25,500.932 547.75,503.266 546,505.5C 541.714,510.434 537.214,515.1 532.5,519.5C 532.167,519.5 531.833,519.5 531.5,519.5C 533.614,516.777 535.448,513.11 537,508.5C 537.667,509.167 538.333,509.833 539,510.5C 539.36,508.392 540.027,506.392 541,504.5C 541.893,505.711 542.726,505.711 543.5,504.5C 541.98,501.845 542.48,501.178 545,502.5C 546.782,501.033 548.615,499.699 550.5,498.5 Z"/></g>
<g><path style="opacity:0.153" fill="#82709d" d="M 73.5,509.5 C 74.4959,509.414 75.3292,509.748 76,510.5C 77.7498,512.734 79.2498,515.068 80.5,517.5C 77.4503,515.451 75.117,512.784 73.5,509.5 Z"/></g>
<g><path style="opacity:0.757" fill="#9770cd" d="M 80.5,517.5 C 83.179,517.525 84.5123,518.858 84.5,521.5C 82.8333,520.5 81.5,519.167 80.5,517.5 Z"/></g>
<g><path style="opacity:0.043" fill="#77658f" d="M 84.5,521.5 C 88.4784,523.478 91.4784,526.478 93.5,530.5C 89.5,528.5 86.5,525.5 84.5,521.5 Z"/></g>
<g><path style="opacity:0.067" fill="#8b709f" d="M 531.5,519.5 C 531.833,519.5 532.167,519.5 532.5,519.5C 528.5,525.5 523.5,530.5 517.5,534.5C 521.467,528.866 526.134,523.866 531.5,519.5 Z"/></g>
<g><path style="opacity:0.714" fill="#9167c7" d="M 93.5,530.5 C 96.179,530.525 97.5123,531.858 97.5,534.5C 95.8333,533.5 94.5,532.167 93.5,530.5 Z"/></g>
<g><path style="opacity:0.204" fill="#786598" d="M 97.5,534.5 C 100.089,535.419 102.089,537.086 103.5,539.5C 100.911,538.581 98.9108,536.914 97.5,534.5 Z"/></g>
<g><path style="opacity:0.353" fill="#8b73b1" d="M 103.5,539.5 C 106.994,542.144 110.66,544.644 114.5,547C 115.305,548.113 115.972,549.279 116.5,550.5C 111.236,547.901 106.903,544.234 103.5,539.5 Z"/></g>
<g><path style="opacity:0.235" fill="#9988b6" d="M 116.5,550.5 C 118.749,551.08 120.415,552.413 121.5,554.5C 119.251,553.92 117.585,552.587 116.5,550.5 Z"/></g>
<g><path style="opacity:0.165" fill="#7c5c93" d="M 507.5,543.5 C 503.716,547.557 499.383,550.891 494.5,553.5C 496.628,550.87 498.961,548.37 501.5,546C 503.42,544.878 505.42,544.044 507.5,543.5 Z"/></g>
<g><path style="opacity:0.137" fill="#6f6585" d="M 121.5,554.5 C 123.027,554.427 124.027,555.094 124.5,556.5C 122.973,556.573 121.973,555.906 121.5,554.5 Z"/></g>
<g><path style="opacity:0.212" fill="#a793bf" d="M 124.5,556.5 C 127.37,557.433 129.704,559.1 131.5,561.5C 128.63,560.567 126.296,558.9 124.5,556.5 Z"/></g>
<g><path style="opacity:0.302" fill="#8966a8" d="M 492.5,554.5 C 491.052,557.264 488.719,558.931 485.5,559.5C 487.483,557.543 489.817,555.877 492.5,554.5 Z"/></g>
<g><path style="opacity:0.349" fill="#7e5da0" d="M 485.5,559.5 C 484.965,561.446 483.632,562.446 481.5,562.5C 482.048,560.468 483.381,559.468 485.5,559.5 Z"/></g>
<g><path style="opacity:0.082" fill="#9681b0" d="M 131.5,561.5 C 133.027,561.427 134.027,562.094 134.5,563.5C 132.973,563.573 131.973,562.906 131.5,561.5 Z"/></g>
<g><path style="opacity:0.075" fill="#766490" d="M 134.5,563.5 C 136.027,563.427 137.027,564.094 137.5,565.5C 135.973,565.573 134.973,564.906 134.5,563.5 Z"/></g>
<g><path style="opacity:0.133" fill="#8e75b1" d="M 137.5,565.5 C 138.873,565.343 140.207,565.51 141.5,566C 144.531,568.508 147.531,571.008 150.5,573.5C 145.657,571.582 141.323,568.916 137.5,565.5 Z"/></g>
<g><path style="opacity:0.02" fill="#7c6194" d="M 481.5,562.5 C 470.493,571.167 458.493,578.167 445.5,583.5C 456.018,577.559 466.351,571.059 476.5,564C 478.154,563.392 479.821,562.892 481.5,562.5 Z"/></g>
<g><path style="opacity:0.051" fill="#89799f" d="M 150.5,573.5 C 155.165,574.828 159.165,577.161 162.5,580.5C 157.835,579.172 153.835,576.839 150.5,573.5 Z"/></g>
<g><path style="opacity:0.043" fill="#9282a8" d="M 163.5,580.5 C 165.153,580.66 166.486,581.326 167.5,582.5C 165.62,582.771 164.287,582.104 163.5,580.5 Z"/></g>
<g><path style="opacity:0.424" fill="#8c6bbc" d="M 169.5,583.5 C 173.684,583.592 177.017,585.259 179.5,588.5C 175.569,587.868 172.235,586.201 169.5,583.5 Z"/></g>
<g><path style="opacity:0.404" fill="#8465a7" d="M 439.5,586.5 C 436.912,588.625 433.912,589.958 430.5,590.5C 432.773,587.829 435.773,586.495 439.5,586.5 Z"/></g>
<g><path style="opacity:0.102" fill="#a897bd" d="M 179.5,588.5 C 180.5,588.5 181.5,588.5 182.5,588.5C 182.833,589.167 183.167,589.833 183.5,590.5C 181.847,590.34 180.514,589.674 179.5,588.5 Z"/></g>
<g><path style="opacity:0.067" fill="#8e75b0" d="M 183.5,590.5 C 191.856,592.727 199.856,595.727 207.5,599.5C 199.038,597.597 191.038,594.597 183.5,590.5 Z"/></g>
<g><path style="opacity:0.176" fill="#8a75a1" d="M 430.5,590.5 C 423.916,594.287 416.916,597.287 409.5,599.5C 414.461,596.278 419.795,593.611 425.5,591.5C 427.042,590.699 428.708,590.366 430.5,590.5 Z"/></g>
<g><path style="opacity:0.02" fill="#817293" d="M 208.5,599.5 C 210.403,599.796 212.07,600.463 213.5,601.5C 211.219,601.923 209.552,601.256 208.5,599.5 Z"/></g>
<g><path style="opacity:0.016" fill="#6c5d79" d="M 406.5,599.5 C 405.082,601.308 403.082,601.975 400.5,601.5C 402.302,600.542 404.302,599.875 406.5,599.5 Z"/></g>
<g><path style="opacity:0.486" fill="#8972a7" d="M 213.5,601.5 C 215.292,601.366 216.958,601.699 218.5,602.5C 219.833,603.167 221.167,603.833 222.5,604.5C 218.919,604.862 215.919,603.862 213.5,601.5 Z"/></g>
<g><path style="opacity:0.949" fill="#7c52ba" d="M 218.5,602.5 C 220.903,602.448 223.236,602.781 225.5,603.5C 228.943,604.059 231.943,605.393 234.5,607.5C 230.198,607.346 226.198,606.346 222.5,604.5C 221.167,603.833 219.833,603.167 218.5,602.5 Z"/></g>
<g><path style="opacity:0.004" fill="#665871" d="M 400.5,602.5 C 397.781,603.913 394.781,604.58 391.5,604.5C 394.219,603.087 397.219,602.42 400.5,602.5 Z"/></g>
<g><path style="opacity:0.608" fill="#a07bc6" d="M 391.5,604.5 C 388.505,606.243 385.171,607.243 381.5,607.5C 382.058,606.21 383.058,605.377 384.5,605C 386.81,604.503 389.143,604.337 391.5,604.5 Z"/></g>
<g><path style="opacity:0.71" fill="#8564ad" d="M 234.5,607.5 C 246.139,609.294 257.806,610.961 269.5,612.5C 277.796,613.85 286.13,614.85 294.5,615.5C 287.167,615.5 279.833,615.5 272.5,615.5C 259.657,613.731 246.99,611.065 234.5,607.5 Z"/></g>
<g><path style="opacity:0.361" fill="#8968af" d="M 380.5,607.5 C 367.649,610.937 354.649,613.603 341.5,615.5C 334.5,615.5 327.5,615.5 320.5,615.5C 340.515,613.664 360.515,610.997 380.5,607.5 Z"/></g>
</svg>
