<?xml version="1.0" encoding="utf-8"?>
<svg version="1.1" xmlns:xlink="http://www.w3.org/1999/xlink" width="23px" height="23px" xmlns="http://www.w3.org/2000/svg">
  <g transform="matrix(1 0 0 1 -43 -99 )">
    <path d="M 18.882161458333332 13.132161458333336  C 19.071831597222225 12.942491319444443  19.166666666666668 12.717881944444443  19.166666666666668 12.458333333333336  L 19.166666666666668 10.541666666666668  C 19.166666666666668 10.282118055555554  19.071831597222225 10.057508680555554  18.882161458333332 9.867838541666668  C 18.692491319444446 9.678168402777779  18.467881944444446 9.583333333333332  18.208333333333332 9.583333333333332  L 13.416666666666668 9.583333333333332  L 13.416666666666668 4.791666666666668  C 13.416666666666668 4.5321180555555545  13.321831597222225 4.3075086805555545  13.132161458333332 4.117838541666668  C 12.942491319444446 3.928168402777776  12.717881944444446 3.8333333333333326  12.458333333333332 3.8333333333333326  L 10.541666666666666 3.8333333333333326  C 10.282118055555557 3.8333333333333326  10.057508680555557 3.928168402777776  9.867838541666666 4.117838541666668  C 9.678168402777779 4.3075086805555545  9.583333333333334 4.5321180555555545  9.583333333333334 4.791666666666668  L 9.583333333333334 9.583333333333332  L 4.791666666666667 9.583333333333332  C 4.532118055555556 9.583333333333332  4.307508680555556 9.678168402777779  4.117838541666667 9.867838541666668  C 3.9281684027777786 10.057508680555554  3.833333333333333 10.282118055555554  3.833333333333333 10.541666666666668  L 3.833333333333333 12.458333333333336  C 3.833333333333333 12.717881944444443  3.9281684027777786 12.942491319444443  4.117838541666667 13.132161458333336  C 4.307508680555556 13.321831597222221  4.532118055555556 13.416666666666664  4.791666666666667 13.416666666666664  L 9.583333333333334 13.416666666666664  L 9.583333333333334 18.208333333333332  C 9.583333333333334 18.467881944444443  9.678168402777779 18.692491319444443  9.867838541666666 18.882161458333332  C 10.057508680555557 19.071831597222225  10.282118055555557 19.166666666666668  10.541666666666666 19.166666666666668  L 12.458333333333332 19.166666666666668  C 12.717881944444446 19.166666666666668  12.942491319444446 19.071831597222225  13.132161458333332 18.882161458333332  C 13.321831597222225 18.692491319444443  13.416666666666668 18.467881944444443  13.416666666666668 18.208333333333332  L 13.416666666666668 13.416666666666664  L 18.208333333333332 13.416666666666664  C 18.467881944444446 13.416666666666664  18.692491319444446 13.321831597222221  18.882161458333332 13.132161458333336  Z M 21.734700520833332 1.2652994791666674  C 22.578233506944443 2.108832465277776  23 3.124565972222219  23 4.3125  L 23 18.6875  C 23 19.875434027777775  22.578233506944443 20.891167534722225  21.734700520833332 21.734700520833332  C 20.891167534722225 22.578233506944443  19.875434027777782 23  18.6875 23  L 4.3125 23  C 3.1245659722222223 23  2.108832465277778 22.578233506944443  1.2652994791666667 21.734700520833332  C 0.42176649305555547 20.891167534722225  0 19.875434027777775  0 18.6875  L 0 4.3125  C 0 3.124565972222219  0.42176649305555547 2.108832465277776  1.2652994791666667 1.2652994791666674  C 2.108832465277778 0.42176649305555414  3.1245659722222223 0  4.3125 0  L 18.6875 0  C 19.875434027777782 0  20.891167534722225 0.42176649305555414  21.734700520833332 1.2652994791666674  Z " fill-rule="nonzero" fill="#4d16bb" stroke="none" transform="matrix(1 0 0 1 43 99 )" />
  </g>
</svg>