<?xml version="1.0" encoding="utf-8"?>
<svg version="1.1" xmlns:xlink="http://www.w3.org/1999/xlink" width="19px" height="19px" xmlns="http://www.w3.org/2000/svg">
  <g transform="matrix(1 0 0 1 -326 -375 )">
    <path d="M 15.598307291666666 10.848307291666668  C 15.754991319444446 10.691623263888888  15.833333333333334 10.506076388888888  15.833333333333334 10.291666666666668  L 15.833333333333334 8.708333333333334  C 15.833333333333334 8.49392361111111  15.754991319444446 8.30837673611111  15.598307291666666 8.151692708333334  C 15.44162326388889 7.995008680555556  15.25607638888889 7.916666666666666  15.041666666666666 7.916666666666666  L 11.083333333333334 7.916666666666666  L 11.083333333333334 3.958333333333334  C 11.083333333333334 3.74392361111111  11.004991319444446 3.55837673611111  10.848307291666666 3.401692708333334  C 10.69162326388889 3.245008680555554  10.50607638888889 3.166666666666666  10.291666666666666 3.166666666666666  L 8.708333333333332 3.166666666666666  C 8.493923611111112 3.166666666666666  8.308376736111112 3.245008680555554  8.151692708333332 3.401692708333334  C 7.995008680555556 3.55837673611111  7.916666666666667 3.74392361111111  7.916666666666667 3.958333333333334  L 7.916666666666667 7.916666666666666  L 3.9583333333333335 7.916666666666666  C 3.7439236111111116 7.916666666666666  3.5583767361111116 7.995008680555556  3.4016927083333335 8.151692708333334  C 3.2450086805555562 8.30837673611111  3.1666666666666665 8.49392361111111  3.1666666666666665 8.708333333333334  L 3.1666666666666665 10.291666666666668  C 3.1666666666666665 10.506076388888888  3.2450086805555562 10.691623263888888  3.4016927083333335 10.848307291666668  C 3.5583767361111116 11.004991319444445  3.7439236111111116 11.083333333333332  3.9583333333333335 11.083333333333332  L 7.916666666666667 11.083333333333332  L 7.916666666666667 15.041666666666666  C 7.916666666666667 15.256076388888888  7.995008680555556 15.441623263888888  8.151692708333332 15.598307291666666  C 8.308376736111112 15.754991319444446  8.493923611111112 15.833333333333334  8.708333333333332 15.833333333333334  L 10.291666666666666 15.833333333333334  C 10.50607638888889 15.833333333333334  10.69162326388889 15.754991319444446  10.848307291666666 15.598307291666666  C 11.004991319444446 15.441623263888888  11.083333333333334 15.256076388888888  11.083333333333334 15.041666666666666  L 11.083333333333334 11.083333333333332  L 15.041666666666666 11.083333333333332  C 15.25607638888889 11.083333333333332  15.44162326388889 11.004991319444445  15.598307291666666 10.848307291666668  Z M 17.954752604166664 1.045247395833334  C 18.65158420138889 1.742078993055554  19 2.581163194444442  19 3.5625  L 19 15.4375  C 19 16.418836805555554  18.65158420138889 17.257921006944446  17.954752604166664 17.954752604166664  C 17.257921006944446 18.65158420138889  16.418836805555557 19  15.4375 19  L 3.5625 19  C 2.5811631944444446 19  1.7420789930555558 18.65158420138889  1.0452473958333335 17.954752604166664  C 0.34841579861111105 17.257921006944446  0 16.418836805555554  0 15.4375  L 0 3.5625  C 0 2.581163194444442  0.34841579861111105 1.742078993055554  1.0452473958333335 1.045247395833334  C 1.7420789930555558 0.34841579861110994  2.5811631944444446 0  3.5625 0  L 15.4375 0  C 16.418836805555557 0  17.257921006944446 0.34841579861110994  17.954752604166664 1.045247395833334  Z " fill-rule="nonzero" fill="#cb218c" stroke="none" transform="matrix(1 0 0 1 326 375 )" />
  </g>
</svg>