<?xml version="1.0" encoding="utf-8"?>
<svg version="1.1" xmlns:xlink="http://www.w3.org/1999/xlink" width="41px" height="41px" xmlns="http://www.w3.org/2000/svg">
  <g transform="matrix(1 0 0 1 -686 -276 )">
    <path d="M 25.331380208333332 25.331380208333336  C 26.666015625 23.996744791666664  27.333333333333332 22.38628472222222  27.333333333333332 20.5  C 27.333333333333332 18.613715277777775  26.666015625 17.003255208333332  25.331380208333332 15.668619791666668  C 23.996744791666668 14.333984375  22.386284722222225 13.666666666666668  20.5 13.666666666666668  C 18.61371527777778 13.666666666666668  17.003255208333336 14.333984375  15.668619791666666 15.668619791666668  C 14.333984375 17.003255208333332  13.666666666666666 18.613715277777775  13.666666666666666 20.5  C 13.666666666666666 22.38628472222222  14.333984375 23.996744791666664  15.668619791666666 25.331380208333336  C 17.003255208333336 26.666015625  18.61371527777778 27.333333333333336  20.5 27.333333333333336  C 22.386284722222225 27.333333333333336  23.996744791666668 26.666015625  25.331380208333332 25.331380208333336  Z M 40.78645833333333 16.963216145833332  C 40.92881944444444 17.150065104166668  41 17.35915798611111  41 17.590494791666668  L 41 23.516276041666664  C 41 23.729817708333336  40.92881944444444 23.934461805555557  40.78645833333333 24.130208333333336  C 40.64409722222223 24.325954861111107  40.46614583333333 24.441623263888886  40.25260416666667 24.477213541666664  L 35.314453125 25.224609375  C 34.976345486111114 26.185546875  34.629340277777786 26.995225694444443  34.2734375 27.653645833333336  C 34.896267361111114 28.54340277777778  35.84830729166667 29.771267361111107  37.12955729166667 31.337239583333332  C 37.30750868055556 31.55078125  37.396484375 31.77322048611111  37.396484375 32.00455729166667  C 37.396484375 32.23589409722223  37.31640625 32.44053819444444  37.15625 32.61848958333333  C 36.67578125 33.27690972222223  35.794921875 34.23784722222223  34.513671875 35.50130208333333  C 33.232421875 36.76475694444444  32.39605034722223 37.396484375  32.00455729166667 37.396484375  C 31.791015625 37.396484375  31.559678819444446 37.31640625  31.310546875 37.15625  L 27.626953125 34.2734375  C 26.84396701388889 34.68272569444444  26.034288194444446 35.02083333333333  25.197916666666668 35.28776041666667  C 24.913194444444446 37.70789930555556  24.655164930555557 39.36284722222223  24.423828125 40.25260416666667  C 24.29926215277778 40.75086805555556  23.97894965277778 41  23.462890625 41  L 17.537109375 41  C 17.287977430555557 41  17.069986979166664 40.92437065972223  16.883138020833336 40.77311197916667  C 16.6962890625 40.62185329861111  16.593967013888893 40.43055555555556  16.576171875 40.19921875  L 15.828776041666666 35.28776041666667  C 14.956814236111112 35.00303819444444  14.156032986111112 34.673828125  13.426432291666666 34.30013020833333  L 9.662760416666668 37.15625  C 9.484809027777779 37.31640625  9.262369791666668 37.396484375  8.995442708333332 37.396484375  C 8.74631076388889 37.396484375  8.523871527777779 37.29861111111111  8.328125 37.10286458333333  C 6.0859375 35.07421875  4.617838541666666 33.57942708333333  3.923828125 32.61848958333333  C 3.799262152777778 32.44053819444444  3.7369791666666665 32.23589409722223  3.7369791666666665 32.00455729166667  C 3.7369791666666665 31.791015625  3.8081597222222228 31.586371527777775  3.9505208333333335 31.390625  C 4.217447916666666 31.016927083333332  4.671223958333334 30.42523871527778  5.311848958333333 29.615559895833336  C 5.952473958333333 28.805881076388886  6.432942708333333 28.17860243055555  6.753255208333333 27.733723958333336  C 6.272786458333333 26.843967013888886  5.907986111111112 25.963107638888886  5.658854166666667 25.091145833333336  L 0.7740885416666666 24.370442708333336  C 0.5427517361111112 24.334852430555557  0.3559027777777778 24.2236328125  0.21354166666666666 24.036783854166664  C 0.07118055555555555 23.849934895833336  0 23.640842013888886  0 23.409505208333336  L 0 17.483723958333332  C 0 17.270182291666668  0.07118055555555555 17.065538194444443  0.21354166666666666 16.869791666666668  C 0.3559027777777778 16.67404513888889  0.5249565972222223 16.55837673611111  0.720703125 16.522786458333332  L 5.685546875 15.775390625  C 5.934678819444445 14.95681423611111  6.281684027777778 14.138237847222221  6.7265625 13.319661458333332  C 6.014756944444445 12.305338541666668  5.062717013888889 11.077473958333332  3.8704427083333335 9.636067708333332  C 3.6924913194444446 9.422526041666668  3.603515625 9.208984375  3.603515625 8.995442708333332  C 3.603515625 8.817491319444443  3.68359375 8.612847222222216  3.84375 8.381510416666668  C 4.306423611111112 7.740885416666668  5.182834201388889 6.784396701388885  6.472981770833333 5.512044270833332  C 7.763129340277779 4.239691840277774  8.603949652777779 3.603515625  8.995442708333332 3.603515625  C 9.22677951388889 3.603515625  9.458116319444446 3.6924913194444424  9.689453125 3.8704427083333317  L 13.373046875 6.7265625  C 14.156032986111112 6.317274305555553  14.965711805555557 5.979166666666668  15.802083333333334 5.712239583333332  C 16.086805555555557 3.2921006944444424  16.344835069444446 1.6371527777777741  16.576171875 0.7473958333333318  C 16.700737847222225 0.24913194444444242  17.021050347222225 0  17.537109375 0  L 23.462890625 0  C 23.712022569444446 0  23.930013020833332 0.07562934027777424  24.116861979166668 0.22688802083333182  C 24.3037109375 0.37814670138888484  24.40603298611111 0.5694444444444424  24.423828125 0.80078125  L 25.171223958333332 5.712239583333332  C 26.04318576388889 5.996961805555553  26.84396701388889 6.326171875  27.573567708333332 6.699869791666668  L 31.363932291666668 3.84375  C 31.524088541666668 3.68359375  31.737630208333332 3.603515625  32.00455729166667 3.603515625  C 32.23589409722223 3.603515625  32.45833333333333 3.6924913194444424  32.671875 3.8704427083333317  C 34.96744791666667 5.988064236111111  36.435546875 7.500651041666668  37.076171875 8.408203125  C 37.20073784722223 8.55056423611111  37.26302083333333 8.746310763888886  37.26302083333333 8.995442708333332  C 37.26302083333333 9.208984375  37.191840277777786 9.413628472222216  37.04947916666667 9.609375  C 36.78255208333333 9.983072916666668  36.32877604166667 10.574761284722216  35.68815104166667 11.384440104166668  C 35.04752604166667 12.19411892361111  34.56705729166667 12.821397569444443  34.24674479166667 13.266276041666668  C 34.709418402777786 14.15603298611111  35.07421875 15.027994791666664  35.34114583333333 15.882161458333332  L 40.22591145833333 16.629557291666668  C 40.45724826388889 16.665147569444443  40.64409722222223 16.776367187499996  40.78645833333333 16.963216145833332  Z " fill-rule="nonzero" fill="#9e5fef" stroke="none" transform="matrix(1 0 0 1 686 276 )" />
  </g>
</svg>