<?xml version="1.0" encoding="utf-8"?>
<svg version="1.1" xmlns:xlink="http://www.w3.org/1999/xlink" width="16px" height="19px" xmlns="http://www.w3.org/2000/svg">
  <g transform="matrix(1 0 0 1 -266 -395 )">
    <path d="M 14.185211773151472 12.434495192307693  C 14.71356783919598 13.18810096153846  15.31849724814549 13.66766826923077  16 13.873197115384613  C 15.701363962670495 14.82471955128205  15.230437903804738 15.776241987179487  14.587221823402729 16.727764423076923  C 13.599425699928213 18.219751602564102  12.61545824359895 18.965745192307693  11.635319454414931 18.965745192307693  C 11.260110074180426 18.965745192307693  10.724096673845418 18.84395032051282  10.027279253409906 18.600360576923077  C 9.368748504426897 18.356770833333336  8.790619765494137 18.23497596153846  8.29289303661163 18.23497596153846  C 7.825795644891123 18.23497596153846  7.282124910265614 18.360576923076923  6.661880832735104 18.611778846153847  C 6.041636755204594 18.87059294871795  5.536252692031587 19  5.1457286432160805 19  C 3.981813831060062 19  2.829385020339794 18.014222756410255  1.6884422110552764 16.04266826923077  C 0.5628140703517588 14.055889423076923  0 12.141426282051283  0 10.299278846153847  C 0 8.563701923076923  0.43263938741325675 7.140224358974359  1.2979181622397702 6.028846153846153  C 2.163196937066284 4.932692307692307  3.250538406317301 4.384615384615384  4.559942569992821 4.384615384615384  C 5.11127063890883 4.384615384615384  5.788944723618091 4.498798076923077  6.592964824120603 4.727163461538461  C 7.389327590332616 4.955528846153847  7.9176836563771245 5.069711538461539  8.178033022254128 5.069711538461539  C 8.522613065326633 5.069711538461539  9.070112467097392 4.9403044871794854  9.820531227566404 4.681490384615384  C 10.601579325197417 4.422676282051282  11.263938741325678 4.29326923076923  11.807609475951185 4.29326923076923  C 12.7188322565207 4.29326923076923  13.534338358458964 4.540665064102562  14.254127781765973 5.03545673076923  C 14.65230916487198 5.309495192307693  15.050490547977986 5.690104166666666  15.448671931083991 6.177283653846153  C 14.843742522134484 6.687299679487179  14.407274467575977 7.13641826923077  14.139267767408471 7.524639423076923  C 13.641541038525965 8.240184294871792  13.392677674084709 9.028044871794869  13.392677674084709 9.888221153846153  C 13.392677674084709 10.83213141025641  13.656855707106963 11.680889423076923  14.185211773151472 12.434495192307693  Z M 11.675520459440058 0.3653846153846162  C 11.67934912658531 0.41105769230769296  11.681263460157934 0.4491185897435892  11.681263460157933 0.47956730769230704  C 11.681263460157934 0.9439102564102552  11.570232112945682 1.4615384615384606  11.348169418521177 2.0324519230769234  C 11.118449389806173 2.6033653846153837  10.762383345297918 3.1286057692307696  10.27997128499641 3.6081730769230766  C 9.866475233309405 4.01923076923077  9.452979181622398 4.29326923076923  9.039483129935391 4.430288461538461  C 8.756161761186886 4.514022435897436  8.357980378080882 4.578725961538461  7.844938980617372 4.624399038461539  C 7.867910983488873 3.4901842948717925  8.166547020818378 2.5120192307692304  8.740847092605886 1.6899038461538465  C 9.307489830102895 0.875400641025639  10.264656616415412 0.3120993589743589  11.612347451543432 0  C 11.620004785833933 0.022836538461539435  11.629576453697057 0.06470352564102488  11.641062455132808 0.12560096153846056  C 11.652548456568557 0.18649839743589625  11.662120124431683 0.2283653846153838  11.669777458722182 0.25120192307692324  C 11.669777458722182 0.28165064102563897  11.671691792294808 0.31971153846153944  11.675520459440058 0.3653846153846162  Z " fill-rule="nonzero" fill="#000000" stroke="none" transform="matrix(1 0 0 1 266 395 )" />
  </g>
</svg>