<?xml version="1.0" encoding="utf-8"?>
<svg version="1.1" xmlns:xlink="http://www.w3.org/1999/xlink" width="33px" height="31px" xmlns="http://www.w3.org/2000/svg">
  <g transform="matrix(1 0 0 1 -1055 -836 )">
    <path d="M 30.790178571428573 6.423877683799608  C 32.263392857142854 8.407178486228583  33 10.568640208197788  33 12.90826284970722  C 33 15.247885491216655  32.263392857142854 17.409347213185857  30.790178571428573 19.392648015614835  C 29.316964285714285 21.37594881804381  27.315848214285715 22.942420299284322  24.786830357142858 24.09206245933637  C 22.257812500000004 25.24170461938842  19.495535714285715 25.81652569941444  16.5 25.81652569941444  C 15.640625000000002 25.81652569941444  14.750558035714286 25.762741270873995  13.829799107142858 25.655172413793103  C 11.398995535714286 28.00824116243765  8.575334821428573 29.63522012578616  5.358816964285714 30.536109303838646  C 4.757254464285715 30.724354803730208  4.057477678571429 30.87226198221644  3.259486607142857 30.979830839297332  C 3.05078125 31.00672305356756  2.863560267857143 30.946215571459557  2.6978236607142856 30.798308392973325  C 2.5320870535714284 30.650401214487097  2.4246651785714293 30.455432661027977  2.3755580357142856 30.213402732595966  L 2.3755580357142856 30.1932335718933  C 2.338727678571429 30.139449143352856  2.335658482142857 30.058772500542187  2.3663504464285716 29.951203643461287  C 2.397042410714286 29.843634786380395  2.4093191964285716 29.776404250704832  2.4031808035714284 29.749512036434613  C 2.397042410714286 29.72261982216439  2.4246651785714293 29.65875081327261  2.486049107142857 29.55790500975927  L 2.5965401785714284 29.376382563435264  C 2.5965401785714284 29.376382563435264  2.639508928571429 29.31923660811104  2.7254464285714284 29.20494469746259  C 2.8113839285714293 29.09065278681414  2.8604910714285716 29.030145304706135  2.872767857142857 29.02342225113858  C 2.9587053571428577 28.91585339405769  3.1489955357142856 28.683908045977013  3.443638392857143 28.327586206896548  C 3.73828125 27.97126436781609  3.9500558035714284 27.715788332248973  4.078962053571429 27.561158100195186  C 4.207868303571429 27.4065278681414  4.398158482142858 27.140967252222946  4.649832589285714 26.76447625243982  C 4.901506696428572 26.387985252656687  5.101004464285714 26.045109520711343  5.248325892857143 25.735849056603776  C 5.395647321428571 25.42658859249621  5.561383928571429 25.02992843201041  5.745535714285714 24.54586857514639  C 5.9296875 24.061808718282368  6.089285714285714 23.550856647148127  6.224330357142857 23.013012361743655  C 4.296875 21.81630882671871  2.777622767857143 20.337237041856433  1.6665736607142858 18.575797007156797  C 0.5555245535714285 16.814356972457166  0 14.925178919973975  0 12.90826284970722  C 0 11.1602689221427  0.4358258928571428 9.489590110605077  1.3074776785714286 7.8962264150943415  C 2.1791294642857144 6.302862719583606  3.3515625 4.927998265018433  4.824776785714286 3.7716330513988288  C 6.297991071428571 2.6152678377792213  8.053571428571429 1.697571025807846  10.091517857142858 1.0185426154847104  C 12.129464285714286 0.33951420516156783  14.265625 0  16.5 0  C 19.495535714285715 0  22.257812500000004 0.5748210800260248  24.786830357142858 1.7244632400780744  C 27.315848214285715 2.8741054001301243  29.316964285714285 4.440576881370631  30.790178571428573 6.423877683799608  Z " fill-rule="nonzero" fill="#4d16bb" stroke="none" transform="matrix(1 0 0 1 1055 836 )" />
  </g>
</svg>