<?xml version="1.0" encoding="utf-8"?>
<svg version="1.1" xmlns:xlink="http://www.w3.org/1999/xlink" width="39px" height="35px" xmlns="http://www.w3.org/2000/svg">
  <g transform="matrix(1 0 0 1 -545 -283 )">
    <path d="M 38.586495535714285 11.615625000000001  C 38.86216517857143 11.892708333333331  39 12.220833333333331  39 12.6  C 39 12.979166666666663  38.86216517857143 13.307291666666664  38.586495535714285 13.584375000000001  L 27.443638392857142 24.784375  C 27.16796875 25.06145833333333  26.841517857142858 25.2  26.464285714285715 25.2  C 26.087053571428573 25.2  25.76060267857143 25.06145833333333  25.484933035714285 24.784375  C 25.20926339285715 24.507291666666667  25.071428571428573 24.179166666666667  25.071428571428573 23.799999999999997  L 25.071428571428573 18.2  L 20.196428571428573 18.2  C 18.774553571428573 18.2  17.501395089285715 18.24375  16.376953125 18.331249999999997  C 15.252511160714286 18.41875  14.135323660714286 18.575520833333336  13.025390625 18.801562499999996  C 11.915457589285714 19.027604166666663  10.950613839285717 19.3375  10.130859375 19.73125  C 9.311104910714286 20.125  8.545758928571429 20.631770833333334  7.834821428571429 21.2515625  C 7.123883928571429 21.871354166666663  6.5435267857142865 22.6078125  6.09375 23.4609375  C 5.643973214285714 24.314062500000002  5.292131696428572 25.32395833333333  5.038225446428571 26.490624999999998  C 4.784319196428571 27.657291666666666  4.657366071428572 28.977083333333336  4.657366071428572 30.45  C 4.657366071428572 31.252083333333335  4.693638392857143 32.14895833333333  4.766183035714286 33.140625  C 4.7661830357142865 33.228125  4.784319196428572 33.399479166666666  4.820591517857142 33.6546875  C 4.856863839285714 33.90989583333334  4.875 34.103125  4.875 34.234375  C 4.875 34.453125  4.813337053571429 34.635416666666664  4.690011160714286 34.78125  C 4.566685267857144 34.927083333333336  4.396205357142858 35  4.178571428571428 35  C 3.9464285714285716 35  3.7433035714285716 34.876041666666666  3.5691964285714284 34.628125  C 3.467633928571429 34.496874999999996  3.373325892857143 34.33645833333333  3.2862723214285716 34.146875  C 3.19921875 33.95729166666667  3.101283482142857 33.73854166666666  2.992466517857143 33.490625  C 2.8836495535714284 33.24270833333333  2.8074776785714284 33.067708333333336  2.763950892857143 32.965625  C 0.9213169642857141 28.809375  0 25.52083333333333  0 23.099999999999998  C 0 20.197916666666664  0.38448660714285704 17.769791666666663  1.1534598214285714 15.815625  C 3.50390625 9.938541666666666  9.851562499999998 6.999999999999998  20.196428571428573 6.999999999999998  L 25.071428571428573 6.999999999999998  L 25.071428571428573 1.4000000000000012  C 25.071428571428573 1.0208333333333297  25.20926339285715 0.6927083333333289  25.484933035714285 0.4156249999999989  C 25.76060267857143 0.138541666666665  26.087053571428573 0  26.464285714285715 0  C 26.841517857142858 0  27.16796875 0.138541666666665  27.443638392857142 0.4156249999999989  L 38.586495535714285 11.615625000000001  Z " fill-rule="nonzero" fill="#9e5fef" stroke="none" transform="matrix(1 0 0 1 545 283 )" />
  </g>
</svg>