<?xml version="1.0" encoding="utf-8"?>
<svg version="1.1" xmlns:xlink="http://www.w3.org/1999/xlink" width="17px" height="14px" xmlns="http://www.w3.org/2000/svg">
  <g transform="matrix(1 0 0 1 -80 -620 )">
    <path d="M 14.002232142857142 7.510416666666666  C 15.191220238095239 6.3680555555555545  15.785714285714286 5.286458333333333  15.785714285714286 4.265625  C 15.785714285714286 3.7734375  15.71772693452381 3.3389756944444438  15.581752232142858 2.962239583333333  C 15.445777529761905 2.5855034722222205  15.271856398809526 2.2862413194444438  15.059988839285714 2.064453125  C 14.848121279761907 1.8426649305555547  14.590401785714288 1.661892361111111  14.286830357142858 1.5221354166666672  C 13.983258928571429 1.3823784722222203  13.686011904761905 1.2881944444444438  13.395089285714286 1.2395833333333328  C 13.104166666666668 1.1909722222222203  12.794270833333334 1.1666666666666672  12.465401785714286 1.1666666666666672  C 12.136532738095239 1.1666666666666672  11.782366071428571 1.244140625  11.402901785714286 1.3990885416666672  C 11.0234375 1.5540364583333328  10.674014136904763 1.7484809027777766  10.354631696428571 1.982421875  C 10.035249255952383 2.2163628472222205  9.76171875 2.4351128472222205  9.534040178571429 2.638671875  C 9.30636160714286 2.842230902777777  9.116629464285715 3.0290798611111107  8.96484375 3.19921875  C 8.851004464285715 3.3328993055555545  8.696056547619047 3.399739583333333  8.5 3.399739583333333  C 8.303943452380953 3.399739583333333  8.148995535714285 3.3328993055555545  8.03515625 3.19921875  C 7.883370535714286 3.0290798611111107  7.693638392857143 2.842230902777777  7.465959821428571 2.638671875  C 7.23828125 2.4351128472222205  6.9647507440476195 2.2163628472222205  6.645368303571429 1.982421875  C 6.325985863095239 1.7484809027777766  5.9765625 1.5540364583333328  5.597098214285714 1.3990885416666672  C 5.217633928571429 1.244140625  4.863467261904763 1.1666666666666672  4.534598214285714 1.1666666666666672  C 4.205729166666667 1.1666666666666672  3.895833333333334 1.1909722222222203  3.6049107142857144 1.2395833333333328  C 3.313988095238096 1.2881944444444438  3.0167410714285716 1.3823784722222203  2.713169642857143 1.5221354166666672  C 2.4095982142857144 1.661892361111111  2.1518787202380953 1.8426649305555547  1.9400111607142858 2.064453125  C 1.7281436011904763 2.2862413194444438  1.5542224702380953 2.5855034722222205  1.4182477678571428 2.962239583333333  C 1.2822730654761907 3.3389756944444438  1.2142857142857142 3.7734375  1.2142857142857142 4.265625  C 1.2142857142857142 5.286458333333333  1.8056175595238098 6.365017361111111  2.98828125 7.501302083333334  L 8.5 12.60546875  L 14.002232142857142 7.510416666666666  Z M 15.795200892857142 1.1302083333333328  C 16.598400297619047 1.8836805555555547  17 2.9288194444444438  17 4.265625  C 17 5.608506944444444  16.275855654761905 6.975694444444444  14.827566964285714 8.3671875  L 8.917410714285714 13.8359375  C 8.803571428571429 13.9453125  8.664434523809524 14  8.5 14  C 8.335565476190476 14  8.196428571428573 13.9453125  8.082589285714285 13.8359375  L 2.1629464285714284 8.348958333333334  C 2.099702380952381 8.300347222222221  2.0127418154761907 8.221354166666666  1.9020647321428572 8.111979166666666  C 1.791387648809524 8.002604166666666  1.6158854166666667 7.803602430555556  1.3755580357142858 7.514973958333334  C 1.1352306547619047 7.226345486111109  0.9202008928571429 6.930121527777777  0.73046875 6.626302083333333  C 0.5407366071428571 6.322482638888889  0.3715587797619048 5.954861111111111  0.22293526785714285 5.5234375  C 0.07431175595238096 5.0920138888888875  0 4.6727430555555545  0 4.265625  C 0 2.9288194444444438  0.40159970238095233 1.8836805555555547  1.2047991071428572 1.1302083333333328  C 2.007998511904762 0.37673611111111094  3.1179315476190474 0  4.534598214285714 0  C 4.926711309523809 0  5.326729910714286 0.06532118055555469  5.734654017857143 0.19596354166666718  C 6.142578125 0.32660590277777657  6.522042410714286 0.5028211805555547  6.873046875 0.724609375  C 7.224051339285715 0.9463975694444438  7.526041666666668 1.1545138888888875  7.779017857142857 1.3489583333333328  C 8.031994047619047 1.5434027777777766  8.272321428571429 1.75  8.5 1.96875  C 8.727678571428571 1.75  8.968005952380954 1.5434027777777766  9.220982142857142 1.3489583333333328  C 9.473958333333334 1.1545138888888875  9.775948660714286 0.9463975694444438  10.126953125 0.724609375  C 10.477957589285714 0.5028211805555547  10.857421875 0.32660590277777657  11.265345982142858 0.19596354166666718  C 11.673270089285714 0.06532118055555469  12.073288690476192 0  12.465401785714286 0  C 13.882068452380954 0  14.992001488095239 0.37673611111111094  15.795200892857142 1.1302083333333328  Z " fill-rule="nonzero" fill="#4d16bb" stroke="none" transform="matrix(1 0 0 1 80 620 )" />
  </g>
</svg>