<?xml version="1.0" encoding="utf-8"?>
<svg version="1.1" xmlns:xlink="http://www.w3.org/1999/xlink" width="34px" height="30px" xmlns="http://www.w3.org/2000/svg">
  <g transform="matrix(1 0 0 1 -1278 -839 )">
    <path d="M 28.004464285714285 16.093749999999996  C 30.382440476190478 13.645833333333332  31.571428571428573 11.328124999999998  31.571428571428573 9.140625  C 31.571428571428573 8.0859375  31.43545386904762 7.154947916666665  31.163504464285715 6.347656249999999  C 30.89155505952381 5.5403645833333295  30.54371279761905 4.899088541666665  30.119977678571427 4.423828125  C 29.696242559523814 3.9485677083333313  29.180803571428577 3.561197916666666  28.573660714285715 3.261718750000001  C 27.966517857142858 2.9622395833333295  27.37202380952381 2.760416666666665  26.790178571428573 2.656249999999999  C 26.208333333333336 2.5520833333333295  25.588541666666668 2.500000000000001  24.930803571428573 2.500000000000001  C 24.273065476190478 2.500000000000001  23.564732142857142 2.666015625  22.805803571428573 2.998046875000001  C 22.046875 3.330078124999999  21.348028273809526 3.7467447916666643  20.709263392857142 4.248046875  C 20.070498511904766 4.7493489583333295  19.5234375 5.2180989583333295  19.068080357142858 5.654296875  C 18.61272321428572 6.090494791666664  18.23325892857143 6.490885416666666  17.9296875 6.85546875  C 17.70200892857143 7.141927083333331  17.392113095238095 7.285156249999999  17 7.285156249999999  C 16.607886904761905 7.285156249999999  16.29799107142857 7.141927083333331  16.0703125 6.85546875  C 15.766741071428571 6.490885416666666  15.387276785714286 6.090494791666664  14.931919642857142 5.654296875  C 14.4765625 5.2180989583333295  13.929501488095239 4.7493489583333295  13.290736607142858 4.248046875  C 12.651971726190478 3.7467447916666643  11.953125 3.330078124999999  11.194196428571429 2.998046875000001  C 10.435267857142858 2.666015625  9.726934523809526 2.500000000000001  9.069196428571429 2.500000000000001  C 8.411458333333334 2.500000000000001  7.791666666666668 2.5520833333333295  7.209821428571429 2.656249999999999  C 6.627976190476192 2.760416666666665  6.033482142857143 2.9622395833333295  5.426339285714286 3.261718750000001  C 4.819196428571429 3.561197916666666  4.303757440476191 3.9485677083333313  3.8800223214285716 4.423828125  C 3.4562872023809526 4.899088541666665  3.1084449404761907 5.5403645833333295  2.8364955357142856 6.347656249999999  C 2.5645461309523814 7.154947916666665  2.4285714285714284 8.0859375  2.4285714285714284 9.140625  C 2.4285714285714284 11.328124999999998  3.6112351190476195 13.639322916666666  5.9765625 16.074218750000004  L 17 27.01171875  L 28.004464285714285 16.093749999999996  Z M 31.590401785714285 2.421874999999999  C 33.196800595238095 4.036458333333331  34 6.276041666666665  34 9.140625  C 34 12.018229166666664  32.55171130952381 14.947916666666664  29.655133928571427 17.9296875  L 17.834821428571427 29.6484375  C 17.607142857142858 29.8828125  17.328869047619047 30  17 30  C 16.671130952380953 30  16.392857142857146 29.8828125  16.16517857142857 29.6484375  L 4.325892857142857 17.890625000000004  C 4.199404761904762 17.786458333333332  4.025483630952381 17.617187499999996  3.8041294642857144 17.382812499999996  C 3.582775297619048 17.148437499999996  3.2317708333333335 16.722005208333336  2.7511160714285716 16.103515625000004  C 2.2704613095238093 15.485026041666663  1.8404017857142858 14.850260416666664  1.4609375 14.199218749999998  C 1.0814732142857142 13.548177083333334  0.7431175595238096 12.760416666666666  0.4458705357142857 11.8359375  C 0.14862351190476192 10.91145833333333  0 10.013020833333332  0 9.140625  C 0 6.276041666666665  0.8031994047619047 4.036458333333331  2.4095982142857144 2.421874999999999  C 4.015997023809524 0.8072916666666663  6.235863095238095 0  9.069196428571429 0  C 9.853422619047619 0  10.653459821428571 0.13997395833333148  11.469308035714286 0.4199218750000011  C 12.28515625 0.6998697916666641  13.044084821428571 1.0774739583333315  13.74609375 1.552734375  C 14.44810267857143 2.027994791666665  15.052083333333336 2.4739583333333304  15.558035714285714 2.890624999999999  C 16.063988095238095 3.3072916666666643  16.544642857142858 3.75  17 4.21875  C 17.455357142857142 3.75  17.93601190476191 3.3072916666666643  18.441964285714285 2.890624999999999  C 18.947916666666668 2.4739583333333304  19.551897321428573 2.027994791666665  20.25390625 1.552734375  C 20.955915178571427 1.0774739583333315  21.71484375 0.6998697916666641  22.530691964285715 0.4199218750000011  C 23.346540178571427 0.13997395833333148  24.146577380952383 0  24.930803571428573 0  C 27.76413690476191 0  29.984002976190478 0.8072916666666663  31.590401785714285 2.421874999999999  Z " fill-rule="nonzero" fill="#cb218c" stroke="none" transform="matrix(1 0 0 1 1278 839 )" />
  </g>
</svg>