<?xml version="1.0" encoding="utf-8"?>
<svg version="1.1" xmlns:xlink="http://www.w3.org/1999/xlink" width="57px" height="57px" xmlns="http://www.w3.org/2000/svg">
  <g transform="matrix(1 0 0 1 -29 -29 )">
    <path d="M 9.631683168316831 52.18415841584159  L 13.657425742574256 52.18415841584159  L 17.08118811881188 48.76039603960396  L 8.239603960396039 39.91881188118812  L 4.815841584158416 43.342574257425746  L 4.815841584158416 47.36831683168317  L 9.631683168316831 47.36831683168317  L 9.631683168316831 52.18415841584159  Z M 33.07128712871287 17.908910891089107  C 33.24686468646865 17.733333333333334  33.334653465346534 17.520132013201316  33.334653465346534 17.269306930693073  C 33.334653465346534 16.71749174917492  33.05874587458746 16.44158415841584  32.50693069306931 16.44158415841584  C 32.25610561056106 16.44158415841584  32.04290429042905 16.529372937293726  31.86732673267327 16.704950495049506  L 11.475247524752476 37.0970297029703  C 11.299669966996701 37.27260726072607  11.211881188118811 37.48580858085808  11.211881188118811 37.736633663366334  C 11.211881188118811 38.28844884488448  11.487788778877889 38.56435643564357  12.03960396039604 38.56435643564357  C 12.290429042904291 38.56435643564357  12.503630363036304 38.476567656765674  12.679207920792079 38.3009900990099  L 33.07128712871287 17.908910891089107  Z M 0 41.34851485148515  L 31.302970297029702 10.045544554455448  L 46.95445544554455 25.697029702970298  L 15.651485148514851 57  L 0 57  L 0 41.34851485148515  Z M 55.607920792079206 10.233663366336632  C 56.535973597359735 11.211881188118813  57 12.353135313531354  57 13.657425742574256  C 57 14.986798679867986  56.535973597359735 16.11551155115511  55.607920792079206 17.043564356435645  L 49.36237623762376 23.289108910891088  L 33.71089108910891 7.63762376237624  L 39.956435643564355 1.4297029702970268  C 40.85940594059406 0.47656765676567137  41.988118811881186 0  43.342574257425746 0  C 44.67194719471948 0  45.813201320132016 0.47656765676567137  46.766336633663364 1.4297029702970268  L 55.607920792079206 10.233663366336632  Z " fill-rule="nonzero" fill="#cb218c" stroke="none" transform="matrix(1 0 0 1 29 29 )" />
  </g>
</svg>