<?xml version="1.0" encoding="utf-8"?>
<svg version="1.1" xmlns:xlink="http://www.w3.org/1999/xlink" width="31px" height="27px" xmlns="http://www.w3.org/2000/svg">
  <g transform="matrix(1 0 0 1 -1386 -1077 )">
    <path d="M 25.533482142857142 14.484374999999998  C 27.70163690476191 12.281249999999998  28.78571428571429 10.195312499999998  28.78571428571429 8.2265625  C 28.78571428571429 7.27734375  28.661737351190478 6.439453124999998  28.413783482142858 5.712890624999999  C 28.165829613095237 4.9863281249999964  27.848679315476193 4.409179687499998  27.46233258928571 3.9814453125  C 27.07598586309524 3.5537109374999982  26.606026785714292 3.2050781249999996  26.052455357142858 2.935546875000001  C 25.49888392857143 2.6660156249999964  24.956845238095237 2.4843749999999987  24.42633928571429 2.390624999999999  C 23.895833333333336 2.2968749999999964  23.330729166666668 2.250000000000001  22.73102678571429 2.250000000000001  C 22.13132440476191 2.250000000000001  21.48549107142857 2.3994140625  20.79352678571429 2.698242187500001  C 20.1015625 2.997070312499999  19.464378720238095 3.372070312499998  18.88197544642857 3.8232421875  C 18.29957217261905 4.2744140624999964  17.80078125 4.6962890624999964  17.38560267857143 5.0888671875  C 16.97042410714286 5.481445312499997  16.624441964285715 5.841796875  16.34765625 6.169921875  C 16.140066964285715 6.427734374999998  15.857514880952383 6.556640624999999  15.5 6.556640624999999  C 15.142485119047619 6.556640624999999  14.859933035714285 6.427734374999998  14.65234375 6.169921875  C 14.375558035714285 5.841796875  14.029575892857144 5.481445312499997  13.614397321428571 5.0888671875  C 13.19921875 4.6962890624999964  12.700427827380954 4.2744140624999964  12.118024553571429 3.8232421875  C 11.535621279761907 3.372070312499998  10.8984375 2.997070312499999  10.206473214285715 2.698242187500001  C 9.514508928571429 2.3994140625  8.868675595238097 2.250000000000001  8.268973214285715 2.250000000000001  C 7.669270833333334 2.250000000000001  7.104166666666668 2.2968749999999964  6.573660714285714 2.390624999999999  C 6.043154761904763 2.4843749999999987  5.501116071428572 2.6660156249999964  4.947544642857142 2.935546875000001  C 4.393973214285714 3.2050781249999996  3.924014136904762 3.5537109374999982  3.537667410714286 3.9814453125  C 3.1513206845238098 4.409179687499998  2.834170386904762 4.9863281249999964  2.586216517857143 5.712890624999999  C 2.338262648809524 6.439453124999998  2.214285714285714 7.27734375  2.214285714285714 8.2265625  C 2.214285714285714 10.195312499999998  3.2925967261904767 12.275390625  5.44921875 14.466796875000002  L 15.5 24.310546875  L 25.533482142857142 14.484374999999998  Z M 28.803013392857142 2.179687499999999  C 30.267671130952383 3.6328124999999982  31 5.648437499999998  31 8.2265625  C 31 10.816406249999998  29.679501488095237 13.453124999999998  27.03850446428571 16.13671875  L 16.26116071428571 26.68359375  C 16.05357142857143 26.89453125  15.799851190476192 27  15.5 27  C 15.20014880952381 27  14.946428571428573 26.89453125  14.738839285714285 26.68359375  L 3.9441964285714284 16.101562500000004  C 3.828869047619048 16.0078125  3.670293898809524 15.855468749999998  3.468470982142857 15.644531249999998  C 3.2666480654761907 15.433593749999998  2.9466145833333335 15.049804687500002  2.508370535714286 14.493164062500002  C 2.070126488095238 13.936523437499996  1.678013392857143 13.365234374999998  1.33203125 12.779296874999998  C 0.9860491071428571 12.193359375  0.6775483630952381 11.484375  0.40652901785714285 10.65234375  C 0.13550967261904762 9.820312499999996  0 9.011718749999998  0 8.2265625  C 0 5.648437499999998  0.732328869047619 3.6328124999999982  2.196986607142857 2.179687499999999  C 3.661644345238096 0.7265624999999997  5.6856398809523805 0  8.268973214285715 0  C 8.984002976190476 0  9.713448660714285 0.12597656249999833  10.457310267857144 0.377929687500001  C 11.201171875 0.6298828124999977  11.893136160714285 0.9697265624999983  12.533203125 1.3974609375  C 13.173270089285717 1.8251953124999987  13.723958333333336 2.2265624999999973  14.185267857142856 2.601562499999999  C 14.646577380952383 2.976562499999998  15.084821428571429 3.375  15.5 3.796875  C 15.91517857142857 3.375  16.35342261904762 2.976562499999998  16.814732142857142 2.601562499999999  C 17.276041666666668 2.2265624999999973  17.82672991071429 1.8251953124999987  18.466796875 1.3974609375  C 19.10686383928571 0.9697265624999983  19.798828125 0.6298828124999977  20.542689732142858 0.377929687500001  C 21.28655133928571 0.12597656249999833  22.015997023809526 0  22.73102678571429 0  C 25.31436011904762 0  27.33835565476191 0.7265624999999997  28.803013392857142 2.179687499999999  Z " fill-rule="nonzero" fill="#9e5fef" stroke="none" transform="matrix(1 0 0 1 1386 1077 )" />
  </g>
</svg>