<?xml version="1.0" encoding="utf-8"?>
<svg version="1.1" xmlns:xlink="http://www.w3.org/1999/xlink" width="35px" height="33px" xmlns="http://www.w3.org/2000/svg">
  <g transform="matrix(1 0 0 1 -929 -834 )">
    <path d="M 33.82211538461539 11.831758034026466  C 34.607371794871796 11.956521739130437  35 12.27536231884058  35 12.788279773156901  C 35 13.093257718966601  34.817708333333336 13.425960932577187  34.453125 13.786389413988658  L 26.817908653846153 21.147448015122873  L 28.626802884615383 31.544423440453684  C 28.64082532051282 31.641461877756775  28.64783653846154 31.780088216761182  28.64783653846154 31.96030245746692  C 28.64783653846154 32.25141776937618  28.57421875 32.497479521109014  28.426983173076923 32.698487712665404  C 28.279747596153847 32.8994959042218  28.065905448717952 33  27.78545673076923 33  C 27.519030448717952 33  27.23858173076923 32.916824196597354  26.944110576923077 32.75047258979206  L 17.5 27.84310018903592  L 8.055889423076923 32.75047258979206  C 7.747395833333334 32.916824196597354  7.466947115384615 33  7.214543269230769 33  C 6.920072115384615 33  6.69921875 32.8994959042218  6.5519831730769225 32.698487712665404  C 6.404747596153846 32.497479521109014  6.3311298076923075 32.25141776937618  6.3311298076923075 31.96030245746692  C 6.3311298076923075 31.877126654064273  6.3451522435897445 31.73850031505986  6.373197115384615 31.544423440453684  L 8.182091346153847 21.147448015122873  L 0.5258413461538461 13.786389413988658  C 0.1752804487179487 13.412098298676748  0 13.079395085066164  0 12.788279773156901  C 0 12.27536231884058  0.39262820512820507 11.956521739130437  1.1778846153846154 11.831758034026466  L 11.736778846153845 10.313799621928165  L 16.469350961538463 0.852551984877125  C 16.735777243589745 0.28418399495904045  17.079326923076923 0  17.5 0  C 17.920673076923077 0  18.264222756410255 0.28418399495904045  18.53064903846154 0.852551984877125  L 23.263221153846153 10.313799621928165  L 33.82211538461539 11.831758034026466  Z " fill-rule="nonzero" fill="#ffa462" stroke="none" transform="matrix(1 0 0 1 929 834 )" />
  </g>
</svg>