<?xml version="1.0" encoding="utf-8"?>
<svg version="1.1" xmlns:xlink="http://www.w3.org/1999/xlink" width="44px" height="41px" xmlns="http://www.w3.org/2000/svg">
  <g transform="matrix(1 0 0 1 -412 -280 )">
    <path d="M 31.96875 35.9880277252678  L 30.064903846153847 25.11153119092628  L 38.15625 17.438563327032135  L 26.997596153846153 15.836798991808443  L 22 5.967863894139884  L 17.002403846153847 15.836798991808443  L 5.84375 17.438563327032135  L 13.935096153846155 25.11153119092628  L 12.004807692307692 35.9880277252678  L 22 30.846880907372398  L 31.96875 35.9880277252678  Z M 42.51923076923077 14.700063011972276  C 43.506410256410255 14.855072463768119  44 15.251207729468598  44 15.888468809073725  C 44 16.267380802352445  43.770833333333336 16.680739340474688  43.3125 17.128544423440452  L 33.71394230769231 26.274102079395085  L 35.98798076923077 39.19155639571518  C 36.00560897435898 39.31211930266751  36.01442307692308 39.484352026885105  36.01442307692308 39.70825456836799  C 36.01442307692308 40.569418189455995  35.653044871794876 41  34.93028846153846 41  C 34.59535256410257 41  34.24278846153846 40.89666036546944  33.87259615384615 40.68998109640832  L 22 34.59294265910523  L 10.127403846153845 40.68998109640832  C 9.739583333333334 40.89666036546944  9.38701923076923 41  9.069711538461538 41  C 8.69951923076923 41  8.421875 40.87513127494224  8.236778846153845 40.625393824826716  C 8.051682692307692 40.3756563747112  7.959134615384615 40.06994328922495  7.959134615384615 39.70825456836799  C 7.959134615384615 39.60491493383743  7.976762820512821 39.43268220961983  8.01201923076923 39.19155639571518  L 10.286057692307692 26.274102079395085  L 0.6610576923076923 17.128544423440452  C 0.2203525641025641 16.663516068052928  0 16.25015752993069  0 15.888468809073725  C 0 15.251207729468598  0.4935897435897435 14.855072463768119  1.4807692307692306 14.700063011972276  L 14.754807692307692 12.814114681789539  L 20.704326923076923 1.0592312539382462  C 21.03926282051282 0.35307708464608056  21.471153846153847 0  22 0  C 22.528846153846153 0  22.96073717948718 0.35307708464608056  23.29567307692308 1.0592312539382462  L 29.24519230769231 12.814114681789539  L 42.51923076923077 14.700063011972276  Z " fill-rule="nonzero" fill="#9e5fef" stroke="none" transform="matrix(1 0 0 1 412 280 )" />
  </g>
</svg>