<?xml version="1.0" encoding="utf-8"?>
<svg version="1.1" xmlns:xlink="http://www.w3.org/1999/xlink" width="51px" height="48px" xmlns="http://www.w3.org/2000/svg">
  <g transform="matrix(1 0 0 1 -773 -473 )">
    <path d="M 49.28365384615385 17.20982986767486  C 50.42788461538462 17.39130434782609  51 17.855072463768117  51 18.60113421550095  C 51 19.044738500315056  50.73437500000001 19.528670447384997  50.203125 20.052930056710775  L 39.07752403846154 30.75992438563327  L 41.71334134615385 45.882797731569  C 41.73377403846154 46.0239445494644  41.74399038461539 46.225582860743536  41.74399038461539 46.48771266540643  C 41.74399038461539 46.91115311909263  41.63671875 47.269061121613106  41.42217548076923 47.56143667296786  C 41.20763221153846 47.853812224322624  40.89603365384616 48  40.48737980769231 48  C 40.09915865384616 48  39.69050480769231 47.87901701323251  39.26141826923077 47.637051039697546  L 25.5 40.49905482041588  L 11.73858173076923 47.637051039697546  C 11.289062500000002 47.87901701323251  10.880408653846153 48  10.512620192307692 48  C 10.083533653846153 48  9.76171875 47.853812224322624  9.54717548076923 47.56143667296786  C 9.332632211538462 47.269061121613106  9.225360576923077 46.91115311909263  9.225360576923077 46.48771266540643  C 9.225360576923077 46.36672967863894  9.24579326923077 46.16509136735979  9.286658653846153 45.882797731569  L 11.922475961538462 30.75992438563327  L 0.7662259615384616 20.052930056710775  C 0.2554086538461538 19.508506616257087  0 19.024574669187146  0 18.60113421550095  C 0 17.855072463768117  0.5721153846153846 17.39130434782609  1.7163461538461537 17.20982986767486  L 17.10216346153846 15.00189035916824  L 23.998197115384617 1.2400756143667273  C 24.38641826923077 0.41335853812224066  24.88701923076923 0  25.5 0  C 26.112980769230766 0  26.61358173076923 0.41335853812224066  27.001802884615387 1.2400756143667273  L 33.89783653846154 15.00189035916824  L 49.28365384615385 17.20982986767486  Z " fill-rule="nonzero" fill="#ffffff" stroke="none" transform="matrix(1 0 0 1 773 473 )" />
  </g>
</svg>