<?xml version="1.0" encoding="utf-8"?>
<svg version="1.1" xmlns:xlink="http://www.w3.org/1999/xlink" width="20px" height="20px" xmlns="http://www.w3.org/2000/svg">
  <g transform="matrix(1 0 0 1 -179 -395 )">
    <path d="M 3.75 0  L 16.25 0  C 17.282986111111114 0  18.16623263888889 0.366753472222221  18.899739583333332 1.1002604166666674  C 19.63324652777778 1.8337673611111094  20 2.717013888888886  20 3.75  L 20 16.25  C 20 17.28298611111111  19.63324652777778 18.16623263888889  18.899739583333332 18.899739583333332  C 18.16623263888889 19.63324652777778  17.282986111111114 20  16.25 20  L 13.802083333333332 20  L 13.802083333333332 12.252604166666664  L 16.393229166666668 12.252604166666664  L 16.783854166666668 9.231770833333332  L 13.802083333333332 9.231770833333332  L 13.802083333333332 7.3046875  C 13.802083333333332 6.818576388888886  13.904079861111114 6.453993055555554  14.108072916666668 6.2109375  C 14.312065972222223 5.967881944444445  14.709201388888891 5.846354166666668  15.299479166666668 5.846354166666668  L 16.888020833333332 5.833333333333332  L 16.888020833333332 3.1380208333333326  C 16.341145833333332 3.0598958333333326  15.568576388888891 3.0208333333333326  14.5703125 3.0208333333333326  C 13.389756944444446 3.0208333333333326  12.445746527777779 3.3680555555555536  11.73828125 4.0625  C 11.030815972222223 4.756944444444445  10.677083333333332 5.737847222222221  10.677083333333332 7.005208333333332  L 10.677083333333332 9.231770833333332  L 8.072916666666666 9.231770833333332  L 8.072916666666666 12.252604166666664  L 10.677083333333332 12.252604166666664  L 10.677083333333332 20  L 3.75 20  C 2.717013888888889 20  1.8337673611111114 19.63324652777778  1.1002604166666667 18.899739583333332  C 0.36675347222222215 18.16623263888889  0 17.28298611111111  0 16.25  L 0 3.75  C 0 2.717013888888886  0.36675347222222215 1.8337673611111094  1.1002604166666667 1.1002604166666674  C 1.8337673611111114 0.366753472222221  2.717013888888889 0  3.75 0  Z " fill-rule="nonzero" fill="#000000" stroke="none" transform="matrix(1 0 0 1 179 395 )" />
  </g>
</svg>