<?xml version="1.0" encoding="utf-8"?>
<svg version="1.1" xmlns:xlink="http://www.w3.org/1999/xlink" width="31px" height="38px" xmlns="http://www.w3.org/2000/svg">
  <g transform="matrix(1 0 0 1 -690 -280 )">
    <path d="M 2.8093749999999997 0  L 28.190625 0  C 28.56197916666667 0  28.9171875 0.07534699272967682  29.256249999999998 0.22604097818903046  C 29.7890625 0.44371006829697635  30.212890625 0.7869574796210601  30.527734374999998 1.255783212161269  C 30.842578125 1.7246089447014739  31 2.243666005728131  31 2.812954395241241  L 31 35.18704560475876  C 31 35.75633399427187  30.842578125 36.27539105529852  30.527734374999998 36.74421678783873  C 30.212890625 37.21304252037894  29.7890625 37.55628993170301  29.256249999999998 37.77395902181097  C 28.94947916666667 37.90790923110817  28.594270833333336 37.97488433575678  28.190625 37.97488433575678  C 27.415625000000002 37.97488433575678  26.74557291666667 37.70698391716237  26.18046875 37.17118307997357  L 15.5 26.522141440846  L 4.81953125 37.17118307997357  C 4.23828125 37.72372769332452  3.568229166666667 38  2.8093749999999997 38  C 2.4380208333333333 38  2.0828124999999997 37.92465300727032  1.7437500000000001 37.77395902181097  C 1.2109375 37.55628993170301  0.787109375 37.21304252037894  0.47226562499999997 36.74421678783873  C 0.15742187500000002 36.27539105529852  0 35.75633399427187  0 35.18704560475876  L 0 2.812954395241241  C 0 2.243666005728131  0.15742187500000002 1.7246089447014739  0.47226562499999997 1.255783212161269  C 0.787109375 0.7869574796210601  1.2109375 0.44371006829697635  1.7437500000000001 0.22604097818903046  C 2.0828124999999997 0.07534699272967682  2.4380208333333333 0  2.8093749999999997 0  Z " fill-rule="nonzero" fill="#9e5fef" stroke="none" transform="matrix(1 0 0 1 690 280 )" />
  </g>
</svg>