<?xml version="1.0" encoding="utf-8"?>
<svg version="1.1" xmlns:xlink="http://www.w3.org/1999/xlink" width="42px" height="57px" xmlns="http://www.w3.org/2000/svg">
  <g transform="matrix(1 0 0 1 -37 -29 )">
    <path d="M 27.107027027027026 43.284375000000004  C 27.47027027027027 43.640625  27.651891891891893 44.05625  27 44.53125  L 27 55.21875  C 27.651891891891893 55.69375  27.47027027027027 56.109375  27.107027027027026 56.465624999999996  C 26.743783783783787 56.821875  26.32 57  25.835675675675677 57  L 14.938378378378378 57  C 14.454054054054055 57  14.030270270270274 56.821875  13.667027027027027 56.465624999999996  C 13.303783783783784 56.109375  13.12216216216216 55.69375  13.12216216216216 55.21875  L 13.12216216216216 44.53125  C 13.12216216216216 44.05625  13.303783783783784 43.640625  13.667027027027027 43.284375000000004  C 14.030270270270274 42.928125  14.454054054054055 42.75  14.938378378378378 42  L 25.835675675675677 42  C 26.32 42.75  26.743783783783787 42.928125  27.107027027027026 43.284375000000004  Z M 40.13837837837838 10.754296875000003  C 41.37945945945947 12.995703124999995  42.00000000000001 15.348437499999994  42 17.8125  C 42.00000000000001 19.415625  41.76540540540541 20.91484375  41.296216216216216 22.31015625  C 40.82702702702703 23.705468749999994  40.2972972972973 24.841015625  39.707027027027024 25.716796875  C 39.11675675675676 26.592578125  38.28432432432433 27.47578125  37.20972972972973 28.36640625  C 36.135135135135144 29.25703125  35.26486486486487 29.902734375  34.59891891891892 30.303515625  C 33.932972972972976 30.704296875  33.00972972972973 31.231249999999996  31.82918918918919 31.884375  C 30.588108108108113 32.567187499999996  29.551351351351354 33.532031249999996  28.71891891891892 34.77890625  C 27.88648648648649 36.02578125  27.47027027027027 37.020312499999996  27.47027027027027 37.762499999999996  C 27.47027027027027 38.2671875  27.28864864864865 38.74960937499999  26.925405405405407 39.209765624999996  C 26.56216216216216 39.66992187500001  26.13837837837838 39.9  25.654054054054054 39  L 14.756756756756758 39  C 14.302702702702707 39.9  13.91675675675676 39.62539062500001  13.598918918918919 39.076171875  C 13.28108108108108 38.52695312499999  13.12216216216216 37.97031249999999  13.12216216216216 37.40625  L 13.12216216216216 35.40234375  C 13.12216216216216 32.93828125  14.105945945945944 30.615234375  16.07351351351351 28.433203125  C 18.04108108108108 26.251171875  20.205405405405408 24.640624999999996  22.566486486486486 23.6015625  C 24.352432432432437 22.799999999999994  25.623783783783782 21.968749999999996  26.38054054054054 21.1078125  C 27.1372972972973 20.246875  27.515675675675674 19.118749999999995  27.515675675675674 17.7234375  C 27.515675675675674 16.476562499999993  26.811891891891893 15.378124999999999  25.404324324324325 14.428125000000003  C 23.99675675675676 13.478125  22.369729729729734 13.003125  20.523243243243243 13.003125  C 18.555675675675676 13.003125  16.92108108108108 13.433593749999996  15.619459459459458 14.294531249999997  C 14.56 15.03671875  12.94054054054054 16.74375  10.76108108108108 19.415625  C 10.36756756756757 19.890624999999996  9.898378378378379 20.128124999999994  9.353513513513514 20.128125  C 8.99027027027027 20.128124999999994  8.611891891891892 20.009374999999995  8.218378378378379 19.771875  L 0.7718918918918919 14.205468750000003  C 0.3783783783783788 13.908593749999994  0.14378378378378465 13.537500000000003  0.0681081081081081 13.092187500000003  C -0.007567567567567137 12.646875000000003  0.07567567567567589 12.231250000000001  0.3178378378378378 11.845312499999997  C 5.161081081081082 3.948437499999991  12.183783783783785 0  21.385945945945945 0  C 23.80756756756757 0  26.24432432432432 0.46015624999999916  28.696216216216218 1.3804687499999975  C 31.148108108108108 2.3007812499999956  33.35783783783784 3.5328124999999955  35.325405405405405 5.076562500000002  C 37.292972972972976 6.620312499999991  38.8972972972973 8.51289062499999  40.13837837837838 10.754296875000003  Z " fill-rule="nonzero" fill="#cb218c" stroke="none" transform="matrix(1 0 0 1 37 29 )" />
  </g>
</svg>