<?xml version="1.0" encoding="utf-8"?>
<svg version="1.1" xmlns:xlink="http://www.w3.org/1999/xlink" width="15px" height="15px" xmlns="http://www.w3.org/2000/svg">
  <g transform="matrix(1 0 0 1 -251 -405 )">
    <path d="M 14.298866855524079 0  C 14.596317280453258 0  14.805240793201133 0.1384943181818188  14.925637393767706 0.4154829545454547  C 15.046033994334278 0.7066761363636348  14.99645892351275 0.9552556818181807  14.776912181303118 1.1612215909090906  L 9.539660056657222 6.413352272727273  L 9.539660056657222 14.318181818181818  C 9.539660056657222 14.616477272727273  9.40155807365439 14.825994318181818  9.125354107648725 14.946732954545455  C 9.033286118980172 14.982244318181818  8.944759206798867 15  8.859773371104817 15  C 8.6685552407932 15  8.509206798866856 14.93252840909091  8.38172804532578 14.797585227272727  L 5.662181303116147 12.0703125  C 5.527620396600566 11.935369318181818  5.460339943342776 11.77556818181818  5.460339943342776 11.59090909090909  L 5.460339943342776 6.413352272727273  L 0.22308781869688385 1.1612215909090906  C 0.0035410764872521217 0.9552556818181807  -0.04603399433427762 0.7066761363636348  0.07436260623229461 0.4154829545454547  C 0.19475920679886688 0.1384943181818188  0.40368271954674223 0  0.7011331444759207 0  L 14.298866855524079 0  Z " fill-rule="nonzero" fill="#4d16bb" stroke="none" transform="matrix(1 0 0 1 251 405 )" />
  </g>
</svg>