<?xml version="1.0" encoding="utf-8"?>
<svg version="1.1" xmlns:xlink="http://www.w3.org/1999/xlink" width="45px" height="45px" xmlns="http://www.w3.org/2000/svg">
  <g transform="matrix(1 0 0 1 -624 -268 )">
    <path d="M 42.89660056657224 0  C 43.788951841359776 0  44.4157223796034 0.41548295454545636  44.77691218130312 1.2464488636363642  C 45.13810198300284 2.1200284090909043  44.98937677053824 2.865767045454542  44.33073654390935 3.4836647727272716  L 28 19.24005681818182  L 28 42.95454545454545  C 28.61898016997167 43.84943181818182  28.204674220963174 44.47798295454545  27.37606232294618 44.84019886363637  C 27.099858356940512 44.94673295454545  26.834277620396602 45  26.57932011331445 45  C 26.005665722379604 45  25.527620396600568 44.797585227272734  25.14518413597734 44.39275568181818  L 16.98654390934844 36.2109375  C 16.5828611898017 35.80610795454545  16.38101983002833 35.32670454545454  17 34.77272727272727  L 17 19.24005681818182  L 0.6692634560906516 3.4836647727272716  C 0.010623229461756365 2.865767045454542  -0.13810198300283288 2.1200284090909043  0.22308781869688385 1.2464488636363642  C 0.5842776203966006 0.41548295454545636  1.2110481586402266 0  2.103399433427762 0  L 42.89660056657224 0  Z " fill-rule="nonzero" fill="#9e5fef" stroke="none" transform="matrix(1 0 0 1 624 268 )" />
  </g>
</svg>