<?xml version="1.0" encoding="utf-8"?>
<svg version="1.1" xmlns:xlink="http://www.w3.org/1999/xlink" width="20px" height="20px" xmlns="http://www.w3.org/2000/svg">
  <g transform="matrix(1 0 0 1 -93 -395 )">
    <path d="M 10.205980066445182 12.005208333333336  L 10.205980066445182 8.567708333333332  L 19.840531561461795 8.567708333333332  C 19.946843853820596 9.149305555555555  20 9.704861111111109  20 10.234375  C 20 12.118055555555554  19.596899224806204 13.799913194444443  18.790697674418603 15.279947916666668  C 17.98449612403101 16.75998263888889  16.83499446290144 17.916666666666668  15.3421926910299 18.75  C 13.849390919158362 19.583333333333332  12.13732004429679 20  10.205980066445182 20  C 8.815060908084165 20  7.490586932447398 19.737413194444443  6.232558139534884 19.212239583333332  C 4.97452934662237 18.68706597222222  3.889258028792913 17.977430555555557  2.9767441860465116 17.083333333333332  C 2.0642303433001103 16.18923611111111  1.3399778516057586 15.125868055555555  0.8039867109634552 13.893229166666664  C 0.2679955703211517 12.660590277777777  0 11.362847222222223  0 10  C 0 8.637152777777777  0.2679955703211517 7.339409722222221  0.8039867109634552 6.106770833333332  C 1.3399778516057586 4.874131944444445  2.0642303433001103 3.810763888888886  2.9767441860465116 2.9166666666666674  C 3.889258028792913 2.022569444444444  4.97452934662237 1.3129340277777768  6.232558139534884 0.7877604166666674  C 7.490586932447398 0.2625868055555536  8.815060908084165 0  10.205980066445182 0  C 12.863787375415283 0  15.145071982281287 0.8723958333333326  17.04983388704319 2.6171875  L 14.272425249169435 5.234375  C 13.182724252491695 4.201388888888886  11.827242524916945 3.6848958333333326  10.205980066445182 3.6848958333333326  C 9.06312292358804 3.6848958333333326  8.006644518272426 3.967013888888886  7.0365448504983386 4.53125  C 6.0664451827242525 5.095486111111109  5.297895902547066 5.861545138888886  4.730897009966777 6.829427083333332  C 4.1638981173864895 7.797309027777777  3.8803986710963456 8.854166666666668  3.8803986710963456 10  C 3.8803986710963456 11.145833333333336  4.1638981173864895 12.202690972222218  4.730897009966777 13.170572916666664  C 5.297895902547066 14.13845486111111  6.0664451827242525 14.90451388888889  7.0365448504983386 15.46875  C 8.006644518272426 16.03298611111111  9.06312292358804 16.315104166666668  10.205980066445182 16.315104166666668  C 10.976744186046512 16.315104166666668  11.685492801771872 16.2109375  12.332225913621262 16.002604166666668  C 12.978959025470653 15.794270833333332  13.510520487264674 15.533854166666668  13.926910299003323 15.221354166666668  C 14.343300110741971 14.908854166666664  14.706533776301217 14.55295138888889  15.016611295681063 14.153645833333336  C 15.326688815060908 13.754340277777777  15.554817275747508 13.37673611111111  15.700996677740864 13.020833333333336  C 15.84717607973422 12.664930555555554  15.946843853820598 12.32638888888889  16 12.005208333333336  L 10.205980066445182 12.005208333333336  Z " fill-rule="nonzero" fill="#000000" stroke="none" transform="matrix(1 0 0 1 93 395 )" />
  </g>
</svg>