<?xml version="1.0" encoding="utf-8"?>
<svg version="1.1" xmlns:xlink="http://www.w3.org/1999/xlink" width="29px" height="34px" xmlns="http://www.w3.org/2000/svg">
  <g transform="matrix(1 0 0 1 -317 -283 )">
    <path d="M 26 30.786516853932586  L 26 3  L 3 3  L 3 30.786516853932586  L 12.48359375 21.662921348314608  L 14.5 19.75280898876404  L 16.516406250000003 21.662921348314608  L 26 30.786516853932586  Z M 2.628125 0  L 26.371875000000003 0  C 26.719270833333336 0  27.051562500000003 0.06741573033707926  27.36875 0.20224719101123778  C 27.8671875 0.39700374531834726  28.263671875 0.7041198501872643  28.558203125 1.1235955056179776  C 28.852734374999997 1.5430711610486871  29 2.0074906367041176  29 2.5168539325842687  L 29 31.48314606741573  C 29 31.992509363295884  28.852734374999997 32.456928838951306  28.558203125 32.87640449438202  C 28.263671875 33.29588014981274  27.8671875 33.60299625468164  27.36875 33.79775280898876  C 27.081770833333337 33.91760299625468  26.74947916666667 33.97752808988764  26.371875000000003 33.97752808988764  C 25.646875 33.97752808988764  25.020052083333336 33.737827715355806  24.491406249999997 33.258426966292134  L 14.5 23.730337078651683  L 4.508593749999999 33.258426966292134  C 3.96484375 33.752808988764045  3.3380208333333337 34  2.628125 34  C 2.2807291666666667 34  1.9484374999999998 33.93258426966292  1.63125 33.79775280898876  C 1.1328125 33.60299625468164  0.736328125 33.29588014981274  0.441796875 32.87640449438202  C 0.147265625 32.456928838951306  0 31.992509363295884  0 31.48314606741573  L 0 2.5168539325842687  C 0 2.0074906367041176  0.147265625 1.5430711610486871  0.441796875 1.1235955056179776  C 0.736328125 0.7041198501872643  1.1328125 0.39700374531834726  1.63125 0.20224719101123778  C 1.9484374999999998 0.06741573033707926  2.2807291666666667 0  2.628125 0  Z " fill-rule="nonzero" fill="#9e5fef" stroke="none" transform="matrix(1 0 0 1 317 283 )" />
  </g>
</svg>