<?xml version="1.0" encoding="utf-8"?>
<svg version="1.1" xmlns:xlink="http://www.w3.org/1999/xlink" width="18px" height="18px" xmlns="http://www.w3.org/2000/svg">
  <g transform="matrix(1 0 0 1 -701 -596 )">
    <path d="M 15.573529411764707 13.974264705882353  C 15.779411764705882 13.768382352941176  15.882352941176471 13.522058823529411  15.882352941176471 13.23529411764706  C 15.882352941176471 12.941176470588234  15.779411764705882 12.691176470588234  15.573529411764707 12.485294117647058  L 13.279411764705884 10.191176470588236  C 13.073529411764707 9.98529411764706  12.823529411764707 9.882352941176471  12.529411764705882 9.882352941176471  C 12.220588235294118 9.882352941176471  11.955882352941176 10  11.73529411764706 10.235294117647058  C 11.757352941176471 10.257352941176471  11.827205882352944 10.325367647058824  11.944852941176471 10.439338235294118  C 12.062500000000002 10.553308823529411  12.141544117647062 10.632352941176471  12.181985294117647 10.676470588235293  C 12.222426470588237 10.720588235294118  12.277573529411766 10.790441176470587  12.347426470588234 10.886029411764705  C 12.417279411764707 10.981617647058822  12.465073529411764 11.075367647058822  12.490808823529413 11.167279411764705  C 12.516544117647062 11.259191176470587  12.529411764705882 11.360294117647058  12.529411764705882 11.470588235294116  C 12.529411764705882 11.764705882352938  12.426470588235295 12.01470588235294  12.220588235294118 12.220588235294118  C 12.014705882352942 12.426470588235293  11.764705882352942 12.529411764705882  11.470588235294116 12.529411764705882  C 11.360294117647058 12.529411764705882  11.259191176470589 12.51654411764706  11.167279411764705 12.49080882352941  C 11.075367647058826 12.465073529411763  10.981617647058824 12.417279411764705  10.886029411764705 12.347426470588236  C 10.79044117647059 12.277573529411764  10.72058823529412 12.222426470588232  10.676470588235293 12.181985294117647  C 10.632352941176473 12.141544117647056  10.553308823529413 12.0625  10.439338235294118 11.944852941176471  C 10.325367647058824 11.827205882352942  10.257352941176471 11.757352941176471  10.235294117647058 11.73529411764706  C 9.992647058823529 11.963235294117645  9.871323529411766 12.231617647058822  9.871323529411766 12.54044117647059  C 9.871323529411766 12.83455882352941  9.974264705882353 13.084558823529411  10.180147058823529 13.290441176470587  L 12.45220588235294 15.573529411764707  C 12.650735294117647 15.772058823529411  12.900735294117647 15.871323529411764  13.20220588235294 15.871323529411764  C 13.496323529411764 15.871323529411764  13.746323529411766 15.775735294117647  13.952205882352942 15.584558823529413  L 15.573529411764707 13.974264705882353  Z M 7.764705882352942 6.264705882352941  C 8.007352941176471 6.0367647058823515  8.128676470588236 5.768382352941176  8.128676470588236 5.459558823529412  C 8.128676470588236 5.165441176470588  8.025735294117647 4.915441176470587  7.819852941176471 4.709558823529411  L 5.547794117647059 2.4264705882352935  C 5.341911764705882 2.2205882352941178  5.091911764705882 2.11764705882353  4.797794117647059 2.11764705882353  C 4.511029411764706 2.11764705882353  4.2610294117647065 2.2169117647058822  4.047794117647059 2.415441176470588  L 2.426470588235294 4.025735294117647  C 2.2205882352941178 4.2316176470588225  2.1176470588235294 4.477941176470589  2.1176470588235294 4.76470588235294  C 2.1176470588235294 5.058823529411763  2.2205882352941178 5.308823529411764  2.426470588235294 5.514705882352942  L 4.720588235294118 7.8088235294117645  C 4.919117647058824 8.007352941176471  5.169117647058824 8.106617647058822  5.470588235294117 8.106617647058822  C 5.779411764705883 8.106617647058822  6.044117647058823 7.992647058823529  6.264705882352941 7.764705882352942  C 6.242647058823529 7.742647058823528  6.17279411764706 7.674632352941176  6.05514705882353 7.560661764705882  C 5.937500000000001 7.446691176470589  5.858455882352942 7.367647058823529  5.818014705882353 7.323529411764706  C 5.777573529411765 7.279411764705882  5.7224264705882355 7.209558823529412  5.6525735294117645 7.113970588235295  C 5.582720588235295 7.018382352941176  5.5349264705882355 6.924632352941175  5.509191176470589 6.832720588235295  C 5.483455882352942 6.740808823529411  5.470588235294117 6.639705882352942  5.470588235294117 6.529411764705883  C 5.470588235294117 6.235294117647059  5.5735294117647065 5.985294117647058  5.779411764705883 5.779411764705882  C 5.98529411764706 5.573529411764704  6.23529411764706 5.470588235294118  6.529411764705882 5.470588235294118  C 6.639705882352942 5.470588235294118  6.740808823529413 5.4834558823529385  6.8327205882352935 5.509191176470588  C 6.924632352941177 5.534926470588235  7.018382352941177 5.5827205882352935  7.1139705882352935 5.652573529411765  C 7.209558823529412 5.722426470588234  7.279411764705882 5.777573529411763  7.323529411764706 5.818014705882353  C 7.367647058823529 5.858455882352939  7.446691176470589 5.937499999999999  7.560661764705882 6.05514705882353  C 7.6746323529411775 6.172794117647057  7.74264705882353 6.242647058823529  7.764705882352942 6.264705882352941  Z M 17.073529411764707 10.98529411764706  C 17.691176470588236 11.602941176470587  18 12.352941176470589  18 13.23529411764706  C 18 14.117647058823529  17.6875 14.863970588235295  17.0625 15.474264705882351  L 15.441176470588234 17.08455882352941  C 14.830882352941178 17.69485294117647  14.084558823529411 18  13.20220588235294 18  C 12.312500000000002 18  11.5625 17.6875  10.95220588235294 17.0625  L 8.680147058823529 14.779411764705882  C 8.069852941176471 14.169117647058826  7.764705882352942 13.42279411764706  7.764705882352942 12.54044117647059  C 7.764705882352942 11.636029411764707  8.088235294117647 10.867647058823529  8.735294117647058 10.235294117647058  L 7.764705882352942 9.26470588235294  C 7.132352941176471 9.911764705882353  6.36764705882353 10.235294117647058  5.470588235294117 10.235294117647058  C 4.588235294117647 10.235294117647058  3.8382352941176467 9.926470588235295  3.2205882352941178 9.308823529411764  L 0.926470588235294 7.01470588235294  C 0.3088235294117647 6.397058823529411  0 5.647058823529411  0 4.76470588235294  C 0 3.882352941176471  0.31249999999999994 3.1360294117647047  0.9375 2.525735294117646  L 2.5588235294117645 0.915441176470589  C 3.169117647058824 0.3051470588235283  3.9154411764705883 0  4.797794117647059 0  C 5.687500000000001 0  6.437500000000001 0.3124999999999989  7.047794117647059 0.9375000000000007  L 9.319852941176471 3.220588235294118  C 9.93014705882353 3.830882352941175  10.235294117647058 4.577205882352941  10.235294117647058 5.459558823529412  C 10.235294117647058 6.3639705882352935  9.911764705882353 7.132352941176469  9.26470588235294 7.764705882352942  L 10.235294117647058 8.73529411764706  C 10.86764705882353 8.088235294117647  11.632352941176471 7.764705882352939  12.529411764705882 7.764705882352942  C 13.411764705882353 7.764705882352939  14.161764705882353 8.073529411764705  14.779411764705882 8.691176470588234  L 17.073529411764707 10.98529411764706  Z " fill-rule="nonzero" fill="#cb218c" stroke="none" transform="matrix(1 0 0 1 701 596 )" />
  </g>
</svg>