<?xml version="1.0" encoding="utf-8"?>
<svg version="1.1" xmlns:xlink="http://www.w3.org/1999/xlink" width="23px" height="23px" xmlns="http://www.w3.org/2000/svg">
  <g transform="matrix(1 0 0 1 -176 -122 )">
    <path d="M 22.542613636363637 8.821022727272728  C 22.84753787878788 9.125946969696965  23 9.496212121212121  23 9.93181818181818  L 23 13.068181818181817  C 23 13.503787878787879  22.84753787878788 13.87405303030303  22.542613636363637 14.178977272727272  C 22.237689393939394 14.483901515151514  21.867424242424242 14.636363636363637  21.43181818181818 14.636363636363637  L 14.636363636363637 14.636363636363637  L 14.636363636363637 21.431818181818183  C 14.636363636363637 21.867424242424242  14.483901515151516 22.23768939393939  14.178977272727272 22.542613636363637  C 13.874053030303035 22.84753787878788  13.503787878787879 23  13.06818181818182 23  L 9.931818181818182 23  C 9.496212121212121 23  9.12594696969697 22.84753787878788  8.821022727272728 22.542613636363637  C 8.516098484848486 22.23768939393939  8.363636363636363 21.867424242424242  8.363636363636363 21.431818181818183  L 8.363636363636363 14.636363636363637  L 1.5681818181818181 14.636363636363637  C 1.1325757575757578 14.636363636363637  0.7623106060606062 14.483901515151514  0.45738636363636365 14.178977272727272  C 0.1524621212121212 13.87405303030303  0 13.503787878787879  0 13.068181818181817  L 0 9.93181818181818  C 0 9.496212121212121  0.1524621212121212 9.125946969696965  0.45738636363636365 8.821022727272728  C 0.7623106060606062 8.516098484848484  1.1325757575757578 8.363636363636363  1.5681818181818181 8.363636363636363  L 8.363636363636363 8.363636363636363  L 8.363636363636363 1.5681818181818192  C 8.363636363636363 1.1325757575757565  8.516098484848486 0.7623106060606047  8.821022727272728 0.45738636363636387  C 9.12594696969697 0.15246212121212044  9.496212121212121 0  9.931818181818182 0  L 13.06818181818182 0  C 13.503787878787879 0  13.874053030303035 0.15246212121212044  14.178977272727272 0.45738636363636387  C 14.483901515151516 0.7623106060606047  14.636363636363637 1.1325757575757565  14.636363636363637 1.5681818181818192  L 14.636363636363637 8.363636363636363  L 21.43181818181818 8.363636363636363  C 21.867424242424242 8.363636363636363  22.237689393939394 8.516098484848484  22.542613636363637 8.821022727272728  Z " fill-rule="nonzero" fill="#cb218c" stroke="none" transform="matrix(1 0 0 1 176 122 )" />
  </g>
</svg>