<?xml version="1.0" encoding="utf-8"?>
<svg version="1.1" xmlns:xlink="http://www.w3.org/1999/xlink" width="20px" height="20px" xmlns="http://www.w3.org/2000/svg">
  <g transform="matrix(1 0 0 1 -224 -314 )">
    <path d="M 11.752450980392158 1.796875  C 11.482843137254902 1.551339285714286  11.16013071895425 1.428571428571428  10.784313725490195 1.428571428571428  C 10.408496732026144 1.428571428571428  10.085784313725492 1.551339285714286  9.816176470588236 1.796875  C 9.54656862745098 2.042410714285714  9.411764705882353 2.3363095238095233  9.411764705882353 2.678571428571428  L 9.411764705882353 10  L 9.019607843137255 10  L 9.019607843137255 4.107142857142858  C 9.019607843137255 3.764880952380951  8.884803921568627 3.470982142857142  8.615196078431373 3.225446428571428  C 8.345588235294118 2.979910714285714  8.022875816993466 2.857142857142858  7.647058823529411 2.857142857142858  C 7.27124183006536 2.857142857142858  6.948529411764706 2.979910714285714  6.678921568627451 3.225446428571428  C 6.409313725490197 3.470982142857142  6.2745098039215685 3.764880952380951  6.2745098039215685 4.107142857142858  L 6.2745098039215685 10  L 6.2745098039215685 12.857142857142856  L 4.387254901960784 10.569196428571427  C 4.076797385620916 10.189732142857144  3.6601307189542487 10  3.1372549019607843 10  C 2.704248366013072 10  2.3345588235294117 10.139508928571427  2.028186274509804 10.418526785714286  C 1.721813725490196 10.697544642857144  1.5686274509803921 11.03422619047619  1.5686274509803921 11.428571428571427  C 1.5686274509803921 11.748511904761905  1.6748366013071898 12.034970238095237  1.8872549019607843 12.287946428571427  L 6.5931372549019605 18.002232142857142  C 6.903594771241831 18.381696428571427  7.320261437908497 18.571428571428573  7.8431372549019605 18.571428571428573  L 16.274509803921568 18.571428571428573  C 16.552287581699346 18.571428571428573  16.801470588235293 18.489583333333336  17.022058823529413 18.325892857142858  C 17.24264705882353 18.16220238095238  17.381535947712422 17.953869047619047  17.438725490196077 17.700892857142858  L 18.370098039215684 13.180803571428573  C 18.410947712418302 12.94270833333333  18.431372549019606 12.723214285714286  18.431372549019606 12.522321428571427  L 18.431372549019606 6.9642857142857135  C 18.431372549019606 6.622023809523809  18.29656862745098 6.328125  18.026960784313726 6.0825892857142865  C 17.75735294117647 5.837053571428572  17.434640522875817 5.7142857142857135  17.058823529411764 5.7142857142857135  C 16.683006535947715 5.7142857142857135  16.360294117647058 5.837053571428572  16.090686274509803 6.0825892857142865  C 15.821078431372548 6.328125  15.686274509803921 6.622023809523809  15.686274509803921 6.9642857142857135  L 15.686274509803921 10  L 15.294117647058822 10  L 15.294117647058822 4.107142857142858  C 15.294117647058822 3.764880952380951  15.159313725490195 3.470982142857142  14.889705882352942 3.225446428571428  C 14.620098039215685 2.979910714285714  14.297385620915033 2.857142857142858  13.92156862745098 2.857142857142858  C 13.545751633986931 2.857142857142858  13.223039215686274 2.979910714285714  12.95343137254902 3.225446428571428  C 12.683823529411764 3.470982142857142  12.549019607843137 3.764880952380951  12.549019607843137 4.107142857142858  L 12.549019607843137 10  L 12.156862745098039 10  L 12.156862745098039 2.678571428571428  C 12.156862745098039 2.3363095238095233  12.022058823529411 2.042410714285714  11.752450980392158 1.796875  Z M 9.246323529411764 0.3962053571428581  C 9.716094771241831 0.13206845238095344  10.228758169934641 0  10.784313725490195 0  C 11.339869281045754 0  11.852532679738562 0.13206845238095344  12.322303921568627 0.3962053571428581  C 12.792075163398696 0.6603422619047605  13.153594771241831 1.0193452380952372  13.406862745098039 1.473214285714286  C 13.562091503267975 1.4434523809523792  13.733660130718954 1.428571428571428  13.92156862745098 1.428571428571428  C 14.730392156862745 1.428571428571428  15.422794117647058 1.690848214285714  15.998774509803921 2.215401785714286  C 16.574754901960784 2.739955357142858  16.862745098039216 3.370535714285714  16.862745098039216 4.107142857142858  L 16.862745098039216 4.296875  C 17.720588235294116 4.252232142857142  18.457924836601308 4.49032738095238  19.074754901960784 5.0111607142857135  C 19.691584967320264 5.531994047619047  20.000000000000004 6.1830357142857135  20 6.9642857142857135  L 20 12.522321428571427  C 20.000000000000004 12.819940476190474  19.967320261437912 13.128720238095237  19.901960784313726 13.448660714285714  L 18.970588235294116 17.957589285714285  C 18.856209150326798 18.545386904761905  18.543709150326798 19.032738095238095  18.033088235294116 19.419642857142858  C 17.522467320261438 19.80654761904762  16.936274509803923 20  16.274509803921568 20  L 7.8431372549019605 20  C 7.352941176470589 20  6.885212418300654 19.897693452380953  6.439950980392157 19.693080357142858  C 5.994689542483661 19.488467261904763  5.625000000000001 19.211309523809526  5.330882352941177 18.861607142857142  L 0.625 13.147321428571427  C 0.20833333333333331 12.641369047619047  0 12.068452380952381  0 11.428571428571427  C 0 10.63988095238095  0.3063725490196078 9.966517857142858  0.9191176470588236 9.408482142857142  C 1.5318627450980393 8.850446428571427  2.2712418300653594 8.571428571428573  3.1372549019607843 8.571428571428573  C 3.7745098039215685 8.571428571428573  4.297385620915033 8.697916666666668  4.705882352941177 8.950892857142858  L 4.705882352941177 4.107142857142858  C 4.705882352941177 3.370535714285714  4.993872549019608 2.739955357142858  5.569852941176471 2.215401785714286  C 6.145833333333334 1.690848214285714  6.838235294117647 1.428571428571428  7.647058823529411 1.428571428571428  C 7.834967320261438 1.428571428571428  8.006535947712418 1.4434523809523792  8.161764705882353 1.473214285714286  C 8.415032679738562 1.0193452380952372  8.776552287581701 0.6603422619047605  9.246323529411764 0.3962053571428581  Z " fill-rule="nonzero" fill="#ffffff" stroke="none" transform="matrix(1 0 0 1 224 314 )" />
  </g>
</svg>