<?xml version="1.0" encoding="utf-8"?>
<svg version="1.1" xmlns:xlink="http://www.w3.org/1999/xlink" width="33px" height="33px" xmlns="http://www.w3.org/2000/svg">
  <g transform="matrix(1 0 0 1 -797 -834 )">
    <path d="M 19.056640625 8.443359375  C 19.185546875 8.572265625  19.25 8.736979166666663  19.25 8.937500000000002  L 19.25 18.5625  C 19.25 18.763020833333332  19.185546875 18.927734374999996  19.056640625 19.056640624999996  C 18.927734375 19.185546874999996  18.763020833333336 19.249999999999996  18.5625 19.249999999999996  L 11.6875 19.249999999999996  C 11.48697916666667 19.249999999999996  11.322265625 19.185546874999996  11.193359375 19.056640624999996  C 11.064453125 18.927734374999996  11 18.763020833333332  11 18.5625  L 11 17.187499999999996  C 11 16.986979166666664  11.064453125 16.822265625  11.193359375 16.693359375  C 11.322265625 16.564453125  11.48697916666667 16.5  11.6875 16.5  L 16.5 16.5  L 16.5 8.937500000000002  C 16.5 8.736979166666663  16.564453125 8.572265625  16.693359375 8.443359375  C 16.822265625000004 8.314453125  16.986979166666668 8.25  17.1875 8.25  L 18.5625 8.25  C 18.763020833333336 8.25  18.927734375 8.314453125  19.056640625 8.443359375  Z M 26.619140625 22.365234375  C 27.664713541666668 20.574869791666664  28.1875 18.619791666666668  28.1875 16.5  C 28.1875 14.380208333333332  27.664713541666668 12.425130208333332  26.619140625 10.634765625  C 25.573567708333336 8.844401041666664  24.155598958333336 7.426432291666663  22.365234375 6.380859375  C 20.574869791666668 5.335286458333333  18.619791666666668 4.812500000000001  16.5 4.812500000000001  C 14.380208333333334 4.812500000000001  12.425130208333334 5.335286458333333  10.634765625 6.380859375  C 8.844401041666668 7.426432291666663  7.426432291666667 8.844401041666664  6.380859375 10.634765625  C 5.335286458333334 12.425130208333332  4.8125 14.380208333333332  4.8125 16.5  C 4.8125 18.619791666666668  5.335286458333334 20.574869791666664  6.380859375 22.365234375  C 7.426432291666667 24.15559895833333  8.844401041666668 25.573567708333332  10.634765625 26.619140625  C 12.425130208333334 27.664713541666668  14.380208333333334 28.1875  16.5 28.1875  C 18.619791666666668 28.1875  20.574869791666668 27.664713541666668  22.365234375 26.619140625  C 24.155598958333336 25.573567708333332  25.573567708333336 24.15559895833333  26.619140625 22.365234375  Z M 30.787109375 8.2177734375  C 32.262369791666664 10.745768229166664  33 13.506510416666663  33 16.5  C 33 19.493489583333336  32.262369791666664 22.25423177083333  30.787109375 24.7822265625  C 29.311848958333336 27.310221354166668  27.310221354166668 29.311848958333332  24.7822265625 30.787109375  C 22.254231770833336 32.26236979166667  19.493489583333336 33  16.5 33  C 13.506510416666668 33  10.745768229166668 32.26236979166667  8.2177734375 30.787109375  C 5.689778645833334 29.311848958333332  3.688151041666667 27.310221354166668  2.212890625 24.7822265625  C 0.7376302083333333 22.25423177083333  0 19.493489583333336  0 16.5  C 0 13.506510416666663  0.7376302083333333 10.745768229166664  2.212890625 8.2177734375  C 3.688151041666667 5.689778645833333  5.689778645833334 3.6881510416666634  8.2177734375 2.2128906249999987  C 10.745768229166668 0.7376302083333305  13.506510416666668 0  16.5 0  C 19.493489583333336 0  22.254231770833336 0.7376302083333305  24.7822265625 2.2128906249999987  C 27.310221354166668 3.6881510416666634  29.311848958333336 5.689778645833333  30.787109375 8.2177734375  Z " fill-rule="nonzero" fill="#4d16bb" stroke="none" transform="matrix(1 0 0 1 797 834 )" />
  </g>
</svg>