<?xml version="1.0" encoding="utf-8"?>
<svg version="1.1" xmlns:xlink="http://www.w3.org/1999/xlink" width="18px" height="17px" xmlns="http://www.w3.org/2000/svg">
  <g transform="matrix(1 0 0 1 -284 -559 )">
    <path d="M 12.299278846153847 10.41209829867675  L 12.829326923076923 9.908632640201638  L 15.609375 7.230623818525519  L 11.758413461538462 6.6735979836168875  L 11.044471153846153 6.5664776307498425  L 10.719951923076923 5.923755513547573  L 9 2.4744801512287324  L 9 12.79017013232514  L 9.638221153846153 13.12224322621298  L 13.078125 14.921865154379333  L 12.429086538461538 11.119092627599244  L 12.299278846153847 10.41209829867675  Z M 17.978365384615383 6.46471329552615  C 18.043269230769234 6.661100609115731  17.95673076923077 6.8735559756353695  17.71875 7.102079395085066  L 13.792067307692308 10.89413988657845  L 14.72235576923077 16.250157529930686  C 14.758413461538463 16.485822306238187  14.736778846153848 16.669712245326615  14.657451923076923 16.801827347195967  C 14.578125 16.933942449065324  14.455528846153848 17  14.289663461538462 17  C 14.167067307692308 17  14.02283653846154 16.957151858853184  13.856971153846153 16.871455576559548  L 9 14.34341524889729  L 4.143028846153846 16.871455576559548  C 3.9771634615384617 16.957151858853184  3.8329326923076925 17  3.7103365384615383 17  C 3.544471153846154 17  3.4218750000000004 16.933942449065324  3.342548076923077 16.801827347195967  C 3.263221153846154 16.669712245326615  3.2415865384615383 16.485822306238187  3.277644230769231 16.250157529930686  L 4.2079326923076925 10.89413988657845  L 0.2704326923076923 7.102079395085066  C 0.03966346153846152 6.8735559756353695  -0.04326923076923077 6.661100609115731  0.021634615384615384 6.46471329552615  C 0.08653846153846154 6.268325981936567  0.28125 6.145137576139467  0.6057692307692307 6.095148078134846  L 6.036057692307692 5.313169502205418  L 8.469951923076923 0.4391934467548826  C 8.614182692307693 0.14639781558496023  8.790865384615385 0  9 0  C 9.201923076923078 0  9.37860576923077 0.14639781558496023  9.530048076923077 0.4391934467548826  L 11.963942307692308 5.313169502205418  L 17.39423076923077 6.095148078134846  C 17.718750000000004 6.145137576139467  17.91346153846154 6.268325981936567  17.978365384615383 6.46471329552615  Z " fill-rule="nonzero" fill="#9e5fef" stroke="none" transform="matrix(1 0 0 1 284 559 )" />
  </g>
</svg>