<?xml version="1.0" encoding="utf-8"?>
<svg version="1.1" xmlns:xlink="http://www.w3.org/1999/xlink" width="18px" height="17px" xmlns="http://www.w3.org/2000/svg">
  <g transform="matrix(1 0 0 1 -189 -559 )">
    <path d="M 17.39423076923077 6.095148078134846  C 17.798076923076923 6.159420289855073  18 6.323671497584541  18 6.587901701323252  C 18 6.745011552194916  17.90625 6.916404116782187  17.71875 7.102079395085066  L 13.792067307692308 10.89413988657845  L 14.72235576923077 16.250157529930686  C 14.729567307692308 16.30014702793531  14.733173076923077 16.371560596513337  14.733173076923077 16.464398235664778  C 14.733173076923077 16.61436672967864  14.6953125 16.74112581390464  14.619591346153847 16.844675488342784  C 14.543870192307692 16.94822516278093  14.433894230769232 17  14.289663461538462 17  C 14.152644230769232 17  14.008413461538462 16.957151858853184  13.856971153846153 16.871455576559548  L 9 14.34341524889729  L 4.143028846153846 16.871455576559548  C 3.9843750000000004 16.957151858853184  3.840144230769231 17  3.7103365384615383 17  C 3.558894230769231 17  3.4453125 16.94822516278093  3.369591346153846 16.844675488342784  C 3.2938701923076925 16.74112581390464  3.2560096153846154 16.61436672967864  3.2560096153846154 16.464398235664778  C 3.2560096153846154 16.421550094517958  3.263221153846154 16.350136525939927  3.277644230769231 16.250157529930686  L 4.2079326923076925 10.89413988657845  L 0.2704326923076923 7.102079395085066  C 0.09014423076923075 6.909262759924386  0 6.7378701953371145  0 6.587901701323252  C 0 6.323671497584541  0.2019230769230769 6.159420289855073  0.6057692307692307 6.095148078134846  L 6.036057692307692 5.313169502205418  L 8.469951923076923 0.4391934467548826  C 8.606971153846155 0.14639781558496023  8.783653846153847 0  9 0  C 9.216346153846153 0  9.393028846153847 0.14639781558496023  9.530048076923077 0.4391934467548826  L 11.963942307692308 5.313169502205418  L 17.39423076923077 6.095148078134846  Z " fill-rule="nonzero" fill="#9e5fef" stroke="none" transform="matrix(1 0 0 1 189 559 )" />
  </g>
</svg>