<?xml version="1.0" encoding="utf-8"?>
<svg version="1.1" xmlns:xlink="http://www.w3.org/1999/xlink" width="34px" height="34px" xmlns="http://www.w3.org/2000/svg">
  <g transform="matrix(1 0 0 1 -24 -224 )">
    <path d="M 19.634114583333336 8.69921875  C 19.766927083333336 8.83203125  19.833333333333336 9.001736111111107  19.833333333333336 9.208333333333334  L 19.833333333333336 19.125  C 19.833333333333336 19.33159722222222  19.766927083333336 19.501302083333332  19.634114583333336 19.634114583333332  C 19.501302083333336 19.766927083333332  19.331597222222225 19.833333333333332  19.125 19.833333333333332  L 12.041666666666668 19.833333333333332  C 11.835069444444446 19.833333333333332  11.665364583333332 19.766927083333332  11.532552083333332 19.634114583333332  C 11.399739583333332 19.501302083333332  11.333333333333332 19.33159722222222  11.333333333333332 19.125  L 11.333333333333332 17.708333333333332  C 11.333333333333332 17.50173611111111  11.399739583333332 17.33203125  11.532552083333332 17.19921875  C 11.665364583333332 17.06640625  11.835069444444446 17  12.041666666666668 17  L 17 17  L 17 9.208333333333334  C 17 9.001736111111107  17.06640625 8.83203125  17.19921875 8.69921875  C 17.332031250000004 8.56640625  17.501736111111114 8.5  17.708333333333336 8.5  L 19.125 8.5  C 19.331597222222225 8.5  19.501302083333336 8.56640625  19.634114583333336 8.69921875  Z M 27.42578125 23.04296875  C 28.503038194444446 21.198350694444443  29.041666666666664 19.18402777777778  29.041666666666664 17  C 29.041666666666664 14.815972222222221  28.503038194444446 12.801649305555555  27.42578125 10.95703125  C 26.348524305555557 9.112413194444441  24.887586805555557 7.651475694444441  23.04296875 6.57421875  C 21.198350694444446 5.496961805555555  19.18402777777778 4.958333333333335  17 4.958333333333335  C 14.815972222222223 4.958333333333335  12.801649305555557 5.496961805555555  10.95703125 6.57421875  C 9.112413194444445 7.651475694444441  7.651475694444445 9.112413194444441  6.57421875 10.95703125  C 5.496961805555556 12.801649305555555  4.958333333333334 14.815972222222221  4.958333333333334 17  C 4.958333333333334 19.18402777777778  5.496961805555556 21.198350694444443  6.57421875 23.04296875  C 7.651475694444445 24.88758680555555  9.112413194444445 26.348524305555554  10.95703125 27.42578125  C 12.801649305555557 28.503038194444446  14.815972222222223 29.041666666666664  17 29.041666666666664  C 19.18402777777778 29.041666666666664  21.198350694444446 28.503038194444446  23.04296875 27.42578125  C 24.887586805555557 26.348524305555554  26.348524305555557 24.88758680555555  27.42578125 23.04296875  Z M 31.720052083333336 8.466796875  C 33.24001736111111 11.071397569444441  34 13.915798611111107  34 17  C 34 20.08420138888889  33.24001736111111 22.92860243055555  31.720052083333336 25.533203125  C 30.200086805555557 28.137803819444446  28.137803819444446 30.200086805555554  25.533203125 31.720052083333336  C 22.928602430555557 33.240017361111114  20.08420138888889 34  17 34  C 13.915798611111112 34  11.071397569444445 33.240017361111114  8.466796875 31.720052083333336  C 5.862196180555556 30.200086805555554  3.7999131944444446 28.137803819444446  2.279947916666667 25.533203125  C 0.7599826388888888 22.92860243055555  0 20.08420138888889  0 17  C 0 13.915798611111107  0.7599826388888888 11.071397569444441  2.279947916666667 8.466796875  C 3.7999131944444446 5.862196180555555  5.862196180555556 3.799913194444441  8.466796875 2.279947916666665  C 11.071397569444445 0.759982638888886  13.915798611111112 0  17 0  C 20.08420138888889 0  22.928602430555557 0.759982638888886  25.533203125 2.279947916666665  C 28.137803819444446 3.799913194444441  30.200086805555557 5.862196180555555  31.720052083333336 8.466796875  Z " fill-rule="nonzero" fill="#909090" stroke="none" transform="matrix(1 0 0 1 24 224 )" />
  </g>
</svg>