<svg xmlns="http://www.w3.org/2000/svg" xmlns:xlink="http://www.w3.org/1999/xlink" width="40" zoomAndPan="magnify" viewBox="0 0 30 30.000001" height="40" preserveAspectRatio="xMidYMid meet" version="1.0"><path fill="#ffffff" d="M 25.988281 6.816406 C 25.265625 6.660156 24.582031 6.398438 23.945312 6.027344 C 23.304688 5.652344 22.742188 5.191406 22.25 4.636719 C 21.757812 4.085938 21.367188 3.46875 21.070312 2.789062 C 20.777344 2.113281 20.597656 1.40625 20.527344 0.667969 L 20.527344 0.03125 L 15.539062 0.03125 L 15.539062 19.832031 C 15.535156 20.269531 15.46875 20.695312 15.332031 21.113281 C 15.195312 21.53125 15 21.917969 14.746094 22.273438 C 14.488281 22.628906 14.183594 22.933594 13.828125 23.195312 C 13.476562 23.453125 13.09375 23.652344 12.675781 23.792969 C 12.261719 23.933594 11.835938 24.003906 11.394531 24.011719 C 10.957031 24.015625 10.527344 23.953125 10.109375 23.824219 C 9.691406 23.695312 9.300781 23.507812 8.941406 23.253906 C 8.582031 23.003906 8.269531 22.703125 8.003906 22.355469 C 7.734375 22 7.527344 21.613281 7.382812 21.191406 C 7.238281 20.769531 7.160156 20.335938 7.152344 19.890625 C 7.144531 19.445312 7.207031 19.011719 7.335938 18.585938 C 7.46875 18.160156 7.660156 17.765625 7.917969 17.402344 C 8.175781 17.039062 8.484375 16.722656 8.839844 16.457031 C 9.195312 16.191406 9.585938 15.984375 10.007812 15.84375 C 10.429688 15.703125 10.867188 15.628906 11.3125 15.625 C 11.757812 15.621094 12.191406 15.6875 12.617188 15.824219 L 12.617188 10.753906 C 11.667969 10.625 10.726562 10.640625 9.785156 10.804688 C 8.84375 10.96875 7.949219 11.273438 7.101562 11.71875 C 6.257812 12.160156 5.496094 12.722656 4.828125 13.40625 C 4.15625 14.085938 3.605469 14.851562 3.175781 15.707031 C 2.746094 16.558594 2.457031 17.457031 2.308594 18.402344 C 2.15625 19.34375 2.15625 20.289062 2.300781 21.234375 C 2.449219 22.179688 2.734375 23.078125 3.160156 23.933594 C 3.589844 24.785156 4.136719 25.554688 4.804688 26.238281 C 5.441406 26.890625 6.15625 27.4375 6.957031 27.875 C 7.757812 28.3125 8.601562 28.621094 9.492188 28.808594 C 10.386719 28.992188 11.285156 29.042969 12.191406 28.960938 C 13.101562 28.878906 13.976562 28.664062 14.820312 28.320312 C 15.664062 27.976562 16.4375 27.519531 17.144531 26.945312 C 17.851562 26.367188 18.460938 25.703125 18.96875 24.949219 C 19.476562 24.191406 19.863281 23.378906 20.128906 22.507812 C 20.394531 21.632812 20.527344 20.742188 20.527344 19.832031 L 20.527344 9.714844 C 22.59375 11.191406 24.898438 11.929688 27.441406 11.925781 L 27.441406 6.96875 C 26.949219 6.96875 26.464844 6.917969 25.988281 6.816406 Z M 25.988281 6.816406 " fill-opacity="1" fill-rule="nonzero"/></svg>