<?xml version="1.0" encoding="utf-8"?>
<svg version="1.1" xmlns:xlink="http://www.w3.org/1999/xlink" width="30px" height="24px" xmlns="http://www.w3.org/2000/svg">
  <g transform="matrix(1 0 0 1 -737 -631 )">
    <path d="M 26.45939086294416 3.7875000000000005  C 27.639593908629443 3.6624999999999996  28.81979695431472 3.349999999999996  30 2.8500000000000005  C 29.149746192893407 4.0749999999999975  28.121827411167516 5.1187499999999995  26.916243654822335 5.981250000000001  C 26.928934010152286 6.156249999999999  26.935279187817258 6.4187499999999975  26.935279187817258 6.768749999999999  C 26.935279187817258 8.393749999999997  26.694162436548226 10.015624999999998  26.211928934010153 11.634374999999999  C 25.729695431472084 13.253124999999997  24.996827411167512 14.80625  24.013324873096447 16.293750000000003  C 23.029822335025383 17.78125  21.859137055837568 19.096874999999997  20.501269035532996 20.240625  C 19.143401015228427 21.384375  17.506345177664976 22.296875  15.590101522842641 22.978125  C 13.673857868020306 23.659374999999997  11.624365482233504 24  9.441624365482234 24  C 6.002538071065991 24  2.8553299492385786 23.09375  0 21.28125  C 0.44416243654822357 21.331250000000004  0.9390862944162438 21.356250000000003  1.484771573604061 21.356250000000003  C 4.340101522842641 21.356250000000003  6.884517766497462 20.49375  9.118020304568528 18.768749999999997  C 7.785532994923859 18.74375  6.59263959390863 18.340624999999996  5.539340101522843 17.559375000000003  C 4.486040609137056 16.778124999999996  3.76269035532995 15.781249999999998  3.369289340101523 14.568750000000001  C 3.7880710659898478 14.63125  4.1751269035533 14.662500000000001  4.530456852791878 14.662500000000001  C 5.0761421319796955 14.662500000000001  5.615482233502538 14.59375  6.148477157360405 14.456249999999999  C 4.727157360406092 14.16875  3.5501269035533 13.471874999999999  2.6173857868020307 12.365625000000001  C 1.6846446700507616 11.259374999999999  1.2182741116751272 9.975000000000001  1.2182741116751268 8.512500000000001  L 1.2182741116751268 8.4375  C 2.0812182741116754 8.9125  3.0076142131979693 9.16875  3.9974619289340105 9.206249999999999  C 3.1598984771573604 8.656249999999998  2.4936548223350252 7.937499999999999  1.9987309644670053 7.049999999999999  C 1.5038071065989846 6.162499999999996  1.2563451776649746 5.1999999999999975  1.2563451776649746 4.1625000000000005  C 1.2563451776649746 3.062499999999999  1.535532994923858 2.043750000000001  2.0939086294416245 1.106250000000001  C 3.6294416243654823 2.968749999999999  5.498096446700508 4.459375  7.699873096446701 5.578125  C 9.901649746192895 6.696875  12.258883248730964 7.31875  14.771573604060913 7.4437500000000005  C 14.67005076142132 6.968749999999998  14.619289340101524 6.506249999999998  14.619289340101524 6.0562499999999995  C 14.619289340101524 4.381249999999996  15.218908629441623 2.953125  16.418147208121827 1.7718750000000005  C 17.61738578680203 0.5906250000000011  19.067258883248734 0  20.767766497461928 0  C 22.544416243654826 0  24.04187817258883 0.6375000000000011  25.26015228426396 1.9125000000000005  C 26.643401015228427 1.6499999999999995  27.944162436548222 1.1625000000000005  29.16243654822335 0.45000000000000107  C 28.692893401015233 1.8874999999999966  27.791878172588838 3  26.45939086294416 3.7875000000000005  Z " fill-rule="nonzero" fill="#cb218c" stroke="none" transform="matrix(1 0 0 1 737 631 )" />
  </g>
</svg>