<?xml version="1.0" encoding="utf-8"?>
<svg version="1.1" xmlns:xlink="http://www.w3.org/1999/xlink" width="6px" height="27px" xmlns="http://www.w3.org/2000/svg">
  <g transform="matrix(1 0 0 1 -1516 -430 )">
    <path d="M 5.5625 20.173295454545453  C 5.854166666666666 20.531249999999996  6 20.96590909090909  6 21.477272727272727  L 6 25.15909090909091  C 6 25.670454545454547  5.854166666666666 26.105113636363633  5.5625 26.46306818181818  C 5.270833333333334 26.821022727272727  4.916666666666667 27  4.5 27  L 1.5 27  C 1.0833333333333335 27  0.7291666666666667 26.821022727272727  0.4375 26.46306818181818  C 0.14583333333333331 26.105113636363633  0 25.670454545454547  0 25.15909090909091  L 0 21.477272727272727  C 0 20.96590909090909  0.14583333333333331 20.531249999999996  0.4375 20.173295454545453  C 0.7291666666666667 19.81534090909091  1.0833333333333335 19.636363636363637  1.5 19.636363636363637  L 4.5 19.636363636363637  C 4.916666666666667 19.636363636363637  5.270833333333334 19.81534090909091  5.5625 20.173295454545453  Z M 5.5625 10.355113636363637  C 5.854166666666666 10.713068181818178  6 11.147727272727272  6 11.659090909090908  L 6 15.34090909090909  C 6 15.852272727272728  5.854166666666666 16.286931818181817  5.5625 16.644886363636363  C 5.270833333333334 17.002840909090907  4.916666666666667 17.18181818181818  4.5 17.18181818181818  L 1.5 17.18181818181818  C 1.0833333333333335 17.18181818181818  0.7291666666666667 17.002840909090907  0.4375 16.644886363636363  C 0.14583333333333331 16.286931818181817  0 15.852272727272728  0 15.34090909090909  L 0 11.659090909090908  C 0 11.147727272727272  0.14583333333333331 10.713068181818178  0.4375 10.355113636363637  C 0.7291666666666667 9.99715909090909  1.0833333333333335 9.818181818181818  1.5 9.818181818181818  L 4.5 9.818181818181818  C 4.916666666666667 9.818181818181818  5.270833333333334 9.99715909090909  5.5625 10.355113636363637  Z M 5.5625 0.5369318181818185  C 5.854166666666666 0.8948863636363621  6 1.3295454545454533  6 1.8409090909090922  L 6 5.522727272727273  C 6 6.0340909090909065  5.854166666666666 6.468749999999998  5.5625 6.826704545454545  C 5.270833333333334 7.184659090909088  4.916666666666667 7.363636363636363  4.5 7.363636363636363  L 1.5 7.363636363636363  C 1.0833333333333335 7.363636363636363  0.7291666666666667 7.184659090909088  0.4375 6.826704545454545  C 0.14583333333333331 6.468749999999998  0 6.0340909090909065  0 5.522727272727273  L 0 1.8409090909090922  C 0 1.3295454545454533  0.14583333333333331 0.8948863636363621  0.4375 0.5369318181818185  C 0.7291666666666667 0.17897727272727182  1.0833333333333335 0  1.5 0  L 4.5 0  C 4.916666666666667 0  5.270833333333334 0.17897727272727182  5.5625 0.5369318181818185  Z " fill-rule="nonzero" fill="#ffffff" stroke="none" transform="matrix(1 0 0 1 1516 430 )" />
  </g>
</svg>