<?xml version="1.0" encoding="utf-8"?>
<svg version="1.1" xmlns:xlink="http://www.w3.org/1999/xlink" width="40px" height="42px" xmlns="http://www.w3.org/2000/svg">
  <g transform="matrix(1 0 0 1 -686 -275 )">
    <path d="M 20 40.125  C 20.25641025641026 40.125  20.384615384615387 40  20.384615384615383 39.75  C 20.384615384615387 39.5  20.25641025641026 39.375  20 39.375  C 19.054487179487182 39.375  18.2411858974359 39.04296874999999  17.560096153846153 38.37890625  C 16.879006410256412 37.71484375  16.538461538461537 36.921875  16.538461538461537 36  C 16.538461538461537 35.75  16.410256410256412 35.625  16.153846153846153 35.625  C 15.897435897435898 35.625  15.769230769230768 35.75  15.769230769230768 36  C 15.769230769230768 37.140625  16.181891025641026 38.11328125  17.007211538461537 38.91796875  C 17.83253205128205 39.72265625  18.830128205128208 40.125  20 40.125  Z M 37.8125 30.937499999999996  C 38.469551282051285 31.65625  39.19871794871795 32.34375  40 33  C 40.00000000000001 33.8125  39.695512820512825 34.51562500000001  39.08653846153846 35.109375  C 38.4775641025641 35.70312499999999  37.75641025641026 36  36.92307692307693 36  L 26.153846153846153 36  C 26.153846153846153 37.65625000000001  25.552884615384617 39.0703125  24.350961538461537 40.2421875  C 23.149038461538463 41.4140625  21.698717948717952 42  20 42  C 18.30128205128205 42  16.850961538461537 41.4140625  15.649038461538463 40.2421875  C 14.447115384615385 39.0703125  13.846153846153847 37.65625000000001  13.846153846153847 36  L 3.076923076923077 36  C 2.243589743589744 36  1.5224358974358976 35.70312499999999  0.9134615384615384 35.109375  C 0.30448717948717957 34.51562500000001  0 33.8125  0 33  C 0.8012820512820515 32.34375  1.5304487179487183 31.65625  2.1875 30.937499999999996  C 2.8445512820512824 30.218749999999996  3.525641025641026 29.28515625  4.230769230769231 28.13671875  C 4.935897435897437 26.98828125  5.532852564102565 25.749999999999996  6.021634615384616 24.421875  C 6.510416666666668 23.09375  6.9110576923076925 21.484375  7.2235576923076925 19.593749999999996  C 7.5360576923076925 17.703125  7.6923076923076925 15.671874999999995  7.6923076923076925 13.499999999999998  C 7.6923076923076925 11.124999999999998  8.629807692307693 8.91796875  10.504807692307692 6.878906249999998  C 12.379807692307692 4.83984375  14.839743589743591 3.6015624999999973  17.884615384615387 3.1640624999999987  C 17.75641025641026 2.8671874999999964  17.692307692307693 2.5625  17.692307692307693 2.2500000000000013  C 17.692307692307693 1.624999999999999  17.916666666666668 1.0937499999999984  18.365384615384613 0.65625  C 18.814102564102566 0.21875000000000155  19.358974358974358 0  20 0  C 20.641025641025642 0  21.18589743589744 0.21875000000000155  21.634615384615383 0.65625  C 22.083333333333336 1.0937499999999984  22.307692307692307 1.624999999999999  22.307692307692307 2.2500000000000013  C 22.307692307692307 2.5625  22.243589743589745 2.8671874999999964  22.115384615384617 3.1640624999999987  C 25.160256410256416 3.6015624999999973  27.620192307692307 4.83984375  29.495192307692307 6.878906249999998  C 31.370192307692307 8.91796875  32.30769230769231 11.124999999999998  32.30769230769231 13.499999999999998  C 32.30769230769231 15.671874999999995  32.46394230769231 17.703125  32.77644230769231 19.593749999999996  C 33.08894230769231 21.484375  33.489583333333336 23.09375  33.97836538461539 24.421875  C 34.46714743589744 25.749999999999996  35.06410256410256 26.98828125  35.769230769230774 28.13671875  C 36.47435897435898 29.28515625  37.15544871794873 30.218749999999996  37.8125 30.937499999999996  Z " fill-rule="nonzero" fill="#9e5fef" stroke="none" transform="matrix(1 0 0 1 686 275 )" />
  </g>
</svg>