<?xml version="1.0" encoding="UTF-8"?>
<!DOCTYPE svg PUBLIC "-//W3C//DTD SVG 1.1//EN" "http://www.w3.org/Graphics/SVG/1.1/DTD/svg11.dtd">
<svg xmlns="http://www.w3.org/2000/svg" version="1.1" width="500px" height="500px" style="shape-rendering:geometricPrecision; text-rendering:geometricPrecision; image-rendering:optimizeQuality; fill-rule:evenodd; clip-rule:evenodd" xmlns:xlink="http://www.w3.org/1999/xlink">
<g><path style="opacity:0.997" fill="#4d16ba" d="M 499.5,192.5 C 499.5,193.5 499.5,194.5 499.5,195.5C 457.898,234.934 416.731,274.934 376,315.5C 385.112,372.005 394.612,428.505 404.5,485C 404.167,485.833 403.833,486.667 403.5,487.5C 352.621,460.561 301.621,433.894 250.5,407.5C 198.889,433.639 147.556,460.306 96.5,487.5C 95.0542,486.829 94.3875,485.662 94.5,484C 104.06,427.976 113.726,371.976 123.5,316C 82.6162,274.616 41.2828,233.782 -0.5,193.5C -0.5,192.833 -0.5,192.167 -0.5,191.5C 56.8346,183.143 114.168,174.643 171.5,166C 196.963,114.24 222.797,62.7397 249,11.5C 249.772,11.6448 250.439,11.9781 251,12.5C 276.167,63.5 301.333,114.5 326.5,165.5C 383.036,174.601 439.703,183.101 496.5,191C 497.527,191.513 498.527,192.013 499.5,192.5 Z"/></g>
<g><path style="opacity:1" fill="#fdd463" d="M 209.5,193.5 C 235.502,193.333 261.502,193.5 287.5,194C 289.521,194.513 291.021,195.68 292,197.5C 292.667,204.5 292.667,211.5 292,218.5C 289.439,222.75 285.606,224.583 280.5,224C 266.5,224.333 252.5,224.667 238.5,225C 236.667,225.5 235.5,226.667 235,228.5C 233.789,233.43 234.955,237.597 238.5,241C 253.258,239.819 267.258,242.485 280.5,249C 292.888,258.124 299.221,270.458 299.5,286C 299.076,292.967 297.91,299.801 296,306.5C 292.919,312.331 289.585,317.998 286,323.5C 270.995,336.411 253.828,340.577 234.5,336C 216.138,329.637 204.805,316.97 200.5,298C 201.083,295.501 202.416,293.501 204.5,292C 212.897,291.13 221.23,291.463 229.5,293C 232.48,295.651 235.147,298.651 237.5,302C 244.629,305.418 251.629,305.251 258.5,301.5C 264.265,294.871 265.098,287.538 261,279.5C 259.127,277.291 256.96,275.458 254.5,274C 245.77,272.174 236.936,271.007 228,270.5C 221.52,271.52 215.02,271.686 208.5,271C 207.584,270.626 206.75,270.126 206,269.5C 204.406,249.049 203.573,228.549 203.5,208C 203.741,204.793 204.241,201.626 205,198.5C 206.025,196.313 207.525,194.646 209.5,193.5 Z"/></g>
</svg>
