<?xml version="1.0" encoding="UTF-8"?>
<!DOCTYPE svg PUBLIC "-//W3C//DTD SVG 1.1//EN" "http://www.w3.org/Graphics/SVG/1.1/DTD/svg11.dtd">
<svg xmlns="http://www.w3.org/2000/svg" version="1.1" width="30px" height="30px" style="shape-rendering:geometricPrecision; text-rendering:geometricPrecision; image-rendering:optimizeQuality; fill-rule:evenodd; clip-rule:evenodd" xmlns:xlink="http://www.w3.org/1999/xlink">
<g><path style="opacity:1" fill="#fdf5fa" d="M -0.5,-0.5 C 3.5,-0.5 7.5,-0.5 11.5,-0.5C 11.8841,1.66485 11.2174,3.33152 9.5,4.5C 6.42882,1.57955 4.09548,2.07955 2.5,6C 5.61946,9.92553 4.61946,11.7589 -0.5,11.5C -0.5,7.5 -0.5,3.5 -0.5,-0.5 Z"/></g>
<g><path style="opacity:1" fill="#cc2a8f" d="M 11.5,-0.5 C 13.5,-0.5 15.5,-0.5 17.5,-0.5C 17.1159,1.66485 17.7826,3.33152 19.5,4.5C 22.5712,1.57955 24.9045,2.07955 26.5,6C 23.3805,9.92553 24.3805,11.7589 29.5,11.5C 29.5,13.5 29.5,15.5 29.5,17.5C 27.3352,17.1159 25.6685,17.7826 24.5,19.5C 27.4204,22.5712 26.9204,24.9045 23,26.5C 19.0745,23.3805 17.2411,24.3805 17.5,29.5C 15.5,29.5 13.5,29.5 11.5,29.5C 11.8841,27.3352 11.2174,25.6685 9.5,24.5C 6.42882,27.4204 4.09548,26.9204 2.5,23C 5.61946,19.0745 4.61946,17.2411 -0.5,17.5C -0.5,15.5 -0.5,13.5 -0.5,11.5C 4.61946,11.7589 5.61946,9.92553 2.5,6C 4.09548,2.07955 6.42882,1.57955 9.5,4.5C 11.2174,3.33152 11.8841,1.66485 11.5,-0.5 Z"/></g>
<g><path style="opacity:1" fill="#fdf6fa" d="M 17.5,-0.5 C 21.5,-0.5 25.5,-0.5 29.5,-0.5C 29.5,3.5 29.5,7.5 29.5,11.5C 24.3805,11.7589 23.3805,9.92553 26.5,6C 24.9045,2.07955 22.5712,1.57955 19.5,4.5C 17.7826,3.33152 17.1159,1.66485 17.5,-0.5 Z"/></g>
<g><path style="opacity:1" fill="#fdf7fb" d="M 12.5,9.5 C 19.8211,10.3193 21.1545,13.486 16.5,19C 9.07498,18.4845 7.74164,15.3178 12.5,9.5 Z"/></g>
<g><path style="opacity:1" fill="#fdf7fb" d="M -0.5,17.5 C 4.61946,17.2411 5.61946,19.0745 2.5,23C 4.09548,26.9204 6.42882,27.4204 9.5,24.5C 11.2174,25.6685 11.8841,27.3352 11.5,29.5C 7.5,29.5 3.5,29.5 -0.5,29.5C -0.5,25.5 -0.5,21.5 -0.5,17.5 Z"/></g>
<g><path style="opacity:1" fill="#fcf4f9" d="M 29.5,17.5 C 29.5,21.5 29.5,25.5 29.5,29.5C 25.5,29.5 21.5,29.5 17.5,29.5C 17.2411,24.3805 19.0745,23.3805 23,26.5C 26.9204,24.9045 27.4204,22.5712 24.5,19.5C 25.6685,17.7826 27.3352,17.1159 29.5,17.5 Z"/></g>
</svg>
