<?xml version="1.0" encoding="UTF-8"?>
<!DOCTYPE svg PUBLIC "-//W3C//DTD SVG 1.1//EN" "http://www.w3.org/Graphics/SVG/1.1/DTD/svg11.dtd">
<svg xmlns="http://www.w3.org/2000/svg" version="1.1" width="512px" height="512px" style="shape-rendering:geometricPrecision; text-rendering:geometricPrecision; image-rendering:optimizeQuality; fill-rule:evenodd; clip-rule:evenodd" xmlns:xlink="http://www.w3.org/1999/xlink">
<g><path style="opacity:0.964" fill="#000000" d="M 169.5,51.5 C 201.86,50.3411 223.693,65.0078 235,95.5C 246.243,126.878 244.577,157.545 230,187.5C 212.092,218.469 186.592,227.302 153.5,214C 132.293,199.118 120.126,178.618 117,152.5C 112.859,122.732 119.526,95.7315 137,71.5C 145.783,61.3653 156.616,54.6987 169.5,51.5 Z M 174.5,84.5 C 185.302,83.7887 193.468,88.1221 199,97.5C 212.567,122.335 212.901,147.335 200,172.5C 184.946,193.021 170.613,192.354 157,170.5C 145.468,146.675 145.802,123.008 158,99.5C 160.5,96.3333 163,93.1667 165.5,90C 168.596,88.1282 171.596,86.2948 174.5,84.5 Z"/></g>
<g><path style="opacity:0.964" fill="#000000" d="M 322.5,51.5 C 345.246,49.2933 363.413,57.2933 377,75.5C 399.894,113.031 401.228,151.365 381,190.5C 360.699,221.491 334.199,228.324 301.5,211C 281.262,194.022 270.428,172.189 269,145.5C 266.797,118.637 273.464,94.304 289,72.5C 298.041,61.9297 309.208,54.9297 322.5,51.5 Z M 326.5,84.5 C 336.958,83.7851 345.125,87.7851 351,96.5C 365.01,120.612 366.01,145.278 354,170.5C 340.387,192.354 326.054,193.021 311,172.5C 297.322,145.342 298.656,119.009 315,93.5C 318.449,89.8766 322.283,86.8766 326.5,84.5 Z"/></g>
<g><path style="opacity:0.964" fill="#000000" d="M 55.5,179.5 C 84.0139,178.173 104.847,190.173 118,215.5C 128.627,237.51 130.294,260.177 123,283.5C 110.073,311.878 88.5734,321.711 58.5,313C 33.6503,300.454 19.1503,280.288 15,252.5C 10.6833,227.559 17.5166,206.393 35.5,189C 41.6008,184.448 48.2675,181.281 55.5,179.5 Z M 60.5,212.5 C 72.4584,212.619 81.2918,217.953 87,228.5C 96.4706,245.099 96.8039,261.766 88,278.5C 83.0018,283.607 77.1685,284.773 70.5,282C 55.311,272.301 47.6444,258.301 47.5,240C 46.6023,228.122 50.9357,218.955 60.5,212.5 Z"/></g>
<g><path style="opacity:0.963" fill="#000000" d="M 437.5,179.5 C 466.116,177.616 484.95,190.282 494,217.5C 500.86,246.882 494.86,273.215 476,296.5C 456.193,317.662 433.36,321.829 407.5,309C 390.846,295.413 382.846,277.746 383.5,256C 383.499,223.98 397.166,199.98 424.5,184C 428.893,182.329 433.226,180.829 437.5,179.5 Z M 442.5,212.5 C 454.387,212.545 461.221,218.545 463,230.5C 466.199,252.581 458.699,269.748 440.5,282C 430.091,285.277 422.924,281.777 419,271.5C 413.245,251.601 417.412,234.101 431.5,219C 434.933,216.289 438.6,214.123 442.5,212.5 Z"/></g>
<g><path style="opacity:0.964" fill="#000000" d="M 245.5,231.5 C 288.88,230.111 324.713,245.778 353,278.5C 381.122,312.757 395.789,352.09 397,396.5C 392.238,429.592 373.738,450.426 341.5,459C 334.5,459.667 327.5,459.667 320.5,459C 309.505,456.002 298.505,453.002 287.5,450C 266.165,445.378 244.831,445.378 223.5,450C 212.495,453.002 201.495,456.002 190.5,459C 154.39,461.192 129.89,445.358 117,411.5C 113.323,398.655 112.656,385.655 115,372.5C 123,324.967 145.5,286.134 182.5,256C 201.455,242.407 222.455,234.24 245.5,231.5 Z M 247.5,264.5 C 278.864,263.934 305.031,275.268 326,298.5C 347.742,324.36 360.575,354.193 364.5,388C 363.614,406.536 354.614,419.203 337.5,426C 333.167,426.667 328.833,426.667 324.5,426C 290.598,414.007 255.931,411.007 220.5,417C 206.968,420.181 193.468,423.347 180,426.5C 161.545,423.714 150.545,413.048 147,394.5C 148.568,358.042 161.234,326.042 185,298.5C 201.963,279.937 222.796,268.604 247.5,264.5 Z"/></g>
</svg>
