<?xml version="1.0" encoding="UTF-8"?>
<!DOCTYPE svg PUBLIC "-//W3C//DTD SVG 1.1//EN" "http://www.w3.org/Graphics/SVG/1.1/DTD/svg11.dtd">
<svg xmlns="http://www.w3.org/2000/svg" version="1.1" width="500px" height="500px" style="shape-rendering:geometricPrecision; text-rendering:geometricPrecision; image-rendering:optimizeQuality; fill-rule:evenodd; clip-rule:evenodd" xmlns:xlink="http://www.w3.org/1999/xlink">
<g><path style="opacity:0.973" fill="#ca2153" d="M 346.5,59.5 C 361.263,61.1028 365.763,68.7695 360,82.5C 343.333,99.1667 326.667,115.833 310,132.5C 305.941,140.657 307.774,147.157 315.5,152C 319.625,152.854 323.625,152.52 327.5,151C 344.528,133.638 361.862,116.638 379.5,100C 387.179,96.1105 393.679,97.6105 399,104.5C 401.472,110.591 400.805,116.258 397,121.5C 380.667,137.833 364.333,154.167 348,170.5C 343.941,178.657 345.774,185.157 353.5,190C 357.625,190.854 361.625,190.52 365.5,189C 382.167,172.333 398.833,155.667 415.5,139C 425.389,133.299 432.889,135.466 438,145.5C 439.109,150.648 438.109,155.315 435,159.5C 408.139,186.695 380.972,213.528 353.5,240C 330.968,254.291 308.635,253.957 286.5,239C 275.97,228.804 265.803,218.304 256,207.5C 243.925,185.823 244.925,164.823 259,144.5C 286.5,117 314,89.5 341.5,62C 343.315,61.2432 344.981,60.4098 346.5,59.5 Z"/></g>
<g><path style="opacity:0.983" fill="#ca2153" d="M 80.5,67.5 C 189.417,174.917 297.917,282.917 406,391.5C 412.103,400.925 413.103,410.925 409,421.5C 398.422,436.685 384.922,439.851 368.5,431C 323.5,386 278.5,341 233.5,296C 201.688,286.268 173.355,270.602 148.5,249C 133.667,234.167 118.833,219.333 104,204.5C 71.5552,163.168 63.7219,117.501 80.5,67.5 Z"/></g>
<g><path style="opacity:0.979" fill="#ca2153" d="M 169.5,297.5 C 170.873,297.343 172.207,297.51 173.5,298C 184.894,304.03 196.561,309.53 208.5,314.5C 209.521,315.002 209.688,315.668 209,316.5C 188.085,347.328 167.419,378.328 147,409.5C 138.726,418.78 129.559,426.947 119.5,434C 110.066,437.451 101.066,436.451 92.5,431C 82.5993,421.769 73.4326,411.936 65,401.5C 61.272,392.174 61.9387,383.174 67,374.5C 75.1667,366.333 83.3333,358.167 91.5,350C 117.738,332.725 143.738,315.225 169.5,297.5 Z"/></g>
</svg>
