<?xml version="1.0" encoding="UTF-8"?>
<!DOCTYPE svg PUBLIC "-//W3C//DTD SVG 1.1//EN" "http://www.w3.org/Graphics/SVG/1.1/DTD/svg11.dtd">
<svg xmlns="http://www.w3.org/2000/svg" version="1.1" width="500px" height="500px" style="shape-rendering:geometricPrecision; text-rendering:geometricPrecision; image-rendering:optimizeQuality; fill-rule:evenodd; clip-rule:evenodd" xmlns:xlink="http://www.w3.org/1999/xlink">
<g><path style="opacity:0.961" fill="#027ce1" d="M 234.5,49.5 C 239.358,49.5288 244.358,49.6955 249.5,50C 255.275,50.4396 260.942,52.1063 266.5,55C 268.537,57.8634 271.204,60.0301 274.5,61.5C 277.937,67.3751 281.104,73.3751 284,79.5C 283.929,84.473 284.096,89.3063 284.5,94C 278.482,119.659 262.482,130.993 236.5,128C 227.076,126.912 219.409,122.745 213.5,115.5C 206.823,106.682 203.823,96.6824 204.5,85.5C 206.934,68.9284 215.767,57.595 231,51.5C 232.851,52.5368 234.017,51.8701 234.5,49.5 Z"/></g>
<g><path style="opacity:0.925" fill="#037ce1" d="M 341.5,68.5 C 345.802,68.8645 350.135,68.8645 354.5,68.5C 359.707,69.6724 364.54,71.6724 369,74.5C 378.959,84.5935 381.959,96.5935 378,110.5C 368.384,127.537 354.551,132.704 336.5,126C 321.854,117.913 316.854,105.746 321.5,89.5C 321.291,88.914 320.957,88.414 320.5,88C 325.878,79.1081 332.878,72.6081 341.5,68.5 Z M 347.5,90.5 C 350.049,90.3874 352.382,91.0541 354.5,92.5C 359.576,98.7894 358.243,103.789 350.5,107.5C 341.773,105.377 339.606,100.377 344,92.5C 345.302,91.9152 346.469,91.2485 347.5,90.5 Z"/></g>
<g><path style="opacity:0.949" fill="#027ce1" d="M 123.5,146.5 C 130.532,146.83 137.532,146.497 144.5,145.5C 144.376,144.893 144.043,144.56 143.5,144.5C 148.643,131.208 158.309,122.375 172.5,118C 183.867,116.052 194.533,117.885 204.5,123.5C 207.876,126.842 211.209,130.175 214.5,133.5C 216.385,138 218.552,142.333 221,146.5C 235.059,146.581 249.225,146.414 263.5,146C 266.788,144.642 268.288,142.142 268,138.5C 269.403,135.362 271.07,132.362 273,129.5C 274.257,127.254 276.09,125.921 278.5,125.5C 278.33,124.178 278.663,123.011 279.5,122C 299.646,111.919 314.979,116.586 325.5,136C 325.973,139.529 326.973,142.862 328.5,146C 345.365,146.812 362.198,146.645 379,145.5C 394.806,150.64 403.639,161.473 405.5,178C 404.722,181.147 403.889,184.313 403,187.5C 396.657,200.172 390.323,212.839 384,225.5C 381.513,227.809 379.513,230.476 378,233.5C 376.674,242.028 375.508,250.528 374.5,259C 375.285,261.908 375.619,264.742 375.5,267.5C 374.06,274.774 373.06,282.107 372.5,289.5C 372.519,292.319 372.852,295.153 373.5,298C 372.89,299.947 372.057,301.781 371,303.5C 370.809,309.083 370.309,314.583 369.5,320C 369.959,323.342 370.292,326.675 370.5,330C 368.905,336.688 367.905,343.521 367.5,350.5C 367.563,353.999 367.896,357.499 368.5,361C 365.069,365.854 364.736,370.854 367.5,376C 366.833,376.333 366.167,376.667 365.5,377C 365.53,381.531 365.53,386.031 365.5,390.5C 364.273,393.399 363.939,396.233 364.5,399C 362.737,400.654 362.404,402.487 363.5,404.5C 360.296,411.294 356.796,417.96 353,424.5C 344.459,436.195 333.459,444.861 320,450.5C 313.959,452.408 307.793,453.742 301.5,454.5C 267.172,455.667 232.838,455.833 198.5,455C 192.153,453.884 185.82,452.551 179.5,451C 173.221,448.527 167.221,445.527 161.5,442C 155.688,436.617 150.188,430.783 145,424.5C 143.777,420.385 141.777,416.718 139,413.5C 137.28,404.733 135.113,396.233 132.5,388C 133.416,383.687 133.749,379.187 133.5,374.5C 132.04,364.653 130.707,354.819 129.5,345C 131.554,343.318 131.221,341.651 128.5,340C 129.022,331.534 129.022,322.701 128.5,313.5C 127.389,312.389 126.722,311.055 126.5,309.5C 127.32,305.256 127.654,301.089 127.5,297C 124.579,276.769 122.746,256.603 122,236.5C 121.5,236 121,235.5 120.5,235C 121.116,233.6 121.449,232.1 121.5,230.5C 119.955,225.74 118.122,221.073 116,216.5C 113.71,213.42 111.543,210.253 109.5,207C 108.218,202.056 105.218,197.889 100.5,194.5C 94.2889,186.057 92.9556,176.89 96.5,167C 96.131,163.947 97.131,161.113 99.5,158.5C 103.652,153.206 108.818,149.206 115,146.5C 117.873,146.627 120.706,146.627 123.5,146.5 Z M 177.5,138.5 C 180.941,138.537 184.441,138.871 188,139.5C 190.505,141.34 193.005,143.173 195.5,145C 195,145.5 194.5,146 194,146.5C 185.354,146.854 176.854,146.354 168.5,145C 171.37,142.56 174.37,140.394 177.5,138.5 Z M 293.5,138.5 C 295.92,138.292 298.253,138.626 300.5,139.5C 302.167,141.333 303.833,143.167 305.5,145C 303.371,146.103 301.037,146.603 298.5,146.5C 296.036,146.41 293.87,145.743 292,144.5C 291.586,144.957 291.086,145.291 290.5,145.5C 289.417,144.635 289.251,143.635 290,142.5C 291.032,140.973 292.199,139.64 293.5,138.5 Z M 121.5,167.5 C 138.167,167.5 154.833,167.5 171.5,167.5C 171.666,172.511 171.499,177.511 171,182.5C 170.5,183 170,183.5 169.5,184C 154.5,184.667 139.5,184.667 124.5,184C 121.056,182.762 118.39,180.595 116.5,177.5C 117.213,175.224 117.713,172.891 118,170.5C 119.145,169.364 120.312,168.364 121.5,167.5 Z M 326.5,167.5 C 343.503,167.333 360.503,167.5 377.5,168C 380.375,170.915 382.042,174.082 382.5,177.5C 380.167,178.5 378.5,180.167 377.5,182.5C 376.271,183.281 374.938,183.781 373.5,184C 357.795,184.466 342.295,184.633 327,184.5C 326.501,178.843 326.334,173.176 326.5,167.5 Z M 142.5,205.5 C 152.167,205.5 161.833,205.5 171.5,205.5C 171.334,211.842 171.5,218.175 172,224.5C 176.227,227.271 180.227,230.271 184,233.5C 184.333,233.167 184.667,232.833 185,232.5C 191.038,236.686 197.372,240.352 204,243.5C 205.763,243.694 207.597,243.694 209.5,243.5C 214.078,245.805 218.745,247.805 223.5,249.5C 225.922,249.255 228.255,249.255 230.5,249.5C 232.091,251.986 234.091,252.652 236.5,251.5C 238.187,251.76 239.687,252.427 241,253.5C 247.34,252.364 253.673,252.697 260,254.5C 264.314,253.053 268.647,252.72 273,253.5C 279.996,251.024 287.162,248.857 294.5,247C 295.931,246.535 297.097,245.701 298,244.5C 307.117,241.532 316.284,237.032 325.5,231C 326.357,230.311 327.023,229.478 327.5,228.5C 326.18,220.97 326.18,213.47 327.5,206C 337.161,205.5 346.828,205.334 356.5,205.5C 355.407,209.93 355.407,214.096 356.5,218C 354.958,220.982 353.791,224.149 353,227.5C 345.951,233.888 338.951,240.221 332,246.5C 331.667,246.167 331.333,245.833 331,245.5C 328.555,246.977 326.388,248.81 324.5,251C 314.408,255.615 303.908,260.115 293,264.5C 292.667,264.167 292.333,263.833 292,263.5C 286.883,265.314 282.049,266.98 277.5,268.5C 275.088,267.182 272.754,267.349 270.5,269C 260.833,269.667 251.167,269.667 241.5,269C 211.703,264.825 184.036,253.658 158.5,235.5C 152.107,230.275 146.607,224.275 142,217.5C 141.685,214.628 141.185,211.795 140.5,209C 141.429,207.923 142.096,206.756 142.5,205.5 Z M 145.5,253.5 C 163.254,266.427 181.921,276.094 201.5,282.5C 202.478,282.977 203.311,283.643 204,284.5C 206.211,284.377 208.378,284.377 210.5,284.5C 217.184,286.007 223.684,288.007 230,290.5C 232.515,289.326 235.015,289.659 237.5,291.5C 241.381,289.885 245.047,290.218 248.5,292.5C 256.486,291.038 264.486,290.705 272.5,291.5C 274.815,289.412 277.315,289.078 280,290.5C 285.304,288.844 290.637,287.177 296,285.5C 296.333,285.833 296.667,286.167 297,286.5C 299.643,284.44 302.476,283.774 305.5,284.5C 306.345,282.238 307.678,281.571 309.5,282.5C 324.07,276.221 337.737,268.554 350.5,259.5C 352.4,263.821 352.4,267.987 350.5,272C 350.909,275.478 351.242,278.978 351.5,282.5C 349.882,289.713 348.549,297.046 347.5,304.5C 347.709,305.086 348.043,305.586 348.5,306C 347.128,322.323 345.462,338.656 343.5,355C 343.762,362.428 343.762,370.095 343.5,378C 341.906,383.673 341.073,389.506 341,395.5C 336.261,413.599 324.428,425.599 305.5,431.5C 304.188,430.54 302.854,430.706 301.5,432C 284.833,432.167 268.167,432.333 251.5,432.5C 232.636,432.123 214.136,432.123 196,432.5C 183.955,429.638 173.622,423.638 165,414.5C 164.439,411.71 163.106,409.377 161,407.5C 158.784,404.148 157.951,400.648 158.5,397C 155.984,395.024 155.318,392.69 156.5,390C 154.27,373.623 152.77,357.123 152,340.5C 150.863,337.68 150.696,334.68 151.5,331.5C 150.081,324.436 149.081,317.269 148.5,310C 147.893,300.028 147.893,290.695 148.5,282C 145.779,280.349 145.446,278.682 147.5,277C 146.249,274.047 146.249,271.047 147.5,268C 146.297,266.632 145.297,265.132 144.5,263.5C 145.068,260.115 145.401,256.782 145.5,253.5 Z"/></g>
<g><path style="opacity:0.004" fill="#071aff" d="M 143.5,144.5 C 144.043,144.56 144.376,144.893 144.5,145.5C 137.532,146.497 130.532,146.83 123.5,146.5C 130.167,145.833 136.833,145.167 143.5,144.5 Z"/></g>
<g><path style="opacity:0.005" fill="#116cff" d="M 96.5,316.5 C 95.8333,311.833 95.1667,307.167 94.5,302.5C 94.3338,296.158 94.5005,289.825 95,283.5C 95.7175,282.549 96.5509,282.383 97.5,283C 97.7981,294.136 97.4648,305.303 96.5,316.5 Z"/></g>
<g><path style="opacity:0.958" fill="#027ce1" d="M 171.5,289.5 C 174.91,289.457 178.243,289.957 181.5,291C 187.257,294.525 193.257,296.691 199.5,297.5C 203.981,299.55 208.648,301.217 213.5,302.5C 215.766,301.443 217.766,301.943 219.5,304C 237.224,307.203 255.224,308.203 273.5,307C 276.086,305.739 278.586,305.572 281,306.5C 284.598,305.912 288.098,304.912 291.5,303.5C 293.467,304.682 294.8,304.015 295.5,301.5C 296.167,301.833 296.833,302.167 297.5,302.5C 301.784,301.179 306.117,300.012 310.5,299C 311.876,296.457 313.043,296.291 314,298.5C 316.869,294.556 320.536,292.89 325,293.5C 325.263,310.009 325.763,326.342 326.5,342.5C 324.466,345.909 321.966,348.909 319,351.5C 317.23,350.724 315.397,350.89 313.5,352C 309.487,354.433 305.487,356.767 301.5,359C 296.25,359.193 291.083,359.693 286,360.5C 280.462,358.126 275.295,355.126 270.5,351.5C 265.668,354.492 260.834,357.492 256,360.5C 249.853,359.832 243.687,358.999 237.5,358C 234.065,355.197 230.232,353.031 226,351.5C 221.963,354.879 217.463,357.379 212.5,359C 206.5,359.667 200.5,359.667 194.5,359C 191.55,357.385 188.884,355.385 186.5,353C 183.167,351.667 179.833,350.333 176.5,349C 174.641,347.442 173.141,345.609 172,343.5C 171.5,325.503 171.333,307.503 171.5,289.5 Z"/></g>
<g><path style="opacity:0.004" fill="#0000ff" d="M 94.5,302.5 C 95.1667,307.167 95.8333,311.833 96.5,316.5C 96.2172,317.289 95.7172,317.956 95,318.5C 94.5006,313.177 94.334,307.844 94.5,302.5 Z"/></g>
</svg>
