<?xml version="1.0" encoding="UTF-8"?>
<!DOCTYPE svg PUBLIC "-//W3C//DTD SVG 1.1//EN" "http://www.w3.org/Graphics/SVG/1.1/DTD/svg11.dtd">
<svg xmlns="http://www.w3.org/2000/svg" version="1.1" width="500px" height="500px" style="shape-rendering:geometricPrecision; text-rendering:geometricPrecision; image-rendering:optimizeQuality; fill-rule:evenodd; clip-rule:evenodd" xmlns:xlink="http://www.w3.org/1999/xlink">
<g><path style="opacity:0.974" fill="#fefffe" d="M 154.5,193.5 C 140.837,188.089 129.337,179.089 120,166.5C 108.796,147.455 101.296,127.955 97.5,108C 95.4063,103.457 94.7396,99.124 95.5,95C 94.8546,90.8372 93.8546,86.5038 92.5,82C 92.8592,75.8191 92.8592,69.1525 92.5,62C 93.0325,46.4082 97.1992,31.9082 105,18.5C 113.218,7.31671 124.051,1.31671 137.5,0.5C 152.435,0.323604 166.768,4.15694 180.5,12C 213.261,32.3669 238.095,59.8669 255,94.5C 266.082,126.059 259.249,154.059 234.5,178.5C 251.063,214.613 270.063,249.613 291.5,283.5C 306.097,308.376 321.43,332.709 337.5,356.5C 357.347,387.536 377.18,418.536 397,449.5C 402.784,469.263 395.95,484.43 376.5,495C 373.57,495.606 370.737,496.44 368,497.5C 366.657,496.786 365.324,497.12 364,498.5C 350.077,500.183 338.243,495.517 328.5,484.5C 315.383,454.703 303.05,424.203 291.5,393C 289.623,390.749 288.123,388.249 287,385.5C 277.84,361.537 267.673,337.704 256.5,314C 256.833,313.667 257.167,313.333 257.5,313C 238.754,274.008 219.587,235.174 200,196.5C 199.333,195.833 198.667,195.167 198,194.5C 186.445,197.817 174.778,198.15 163,195.5C 162.228,195.645 161.561,195.978 161,196.5C 159.261,194.682 157.094,193.682 154.5,193.5 Z"/></g>
<g><path style="opacity:0.004" fill="#fefffe" d="M 154.5,193.5 C 153.833,194.167 153.833,194.167 154.5,193.5 Z"/></g>
</svg>
