<?xml version="1.0" encoding="UTF-8"?>
<!DOCTYPE svg PUBLIC "-//W3C//DTD SVG 1.1//EN" "http://www.w3.org/Graphics/SVG/1.1/DTD/svg11.dtd">
<svg xmlns="http://www.w3.org/2000/svg" version="1.1" width="1000px" height="842px" style="shape-rendering:geometricPrecision; text-rendering:geometricPrecision; image-rendering:optimizeQuality; fill-rule:evenodd; clip-rule:evenodd" xmlns:xlink="http://www.w3.org/1999/xlink">
<g><path style="opacity:0.998" fill="#333333" d="M 465.5,-0.5 C 489.167,-0.5 512.833,-0.5 536.5,-0.5C 636.158,3.99955 729.825,30.1662 817.5,78C 873.171,109.667 919.338,151.834 956,204.5C 980.366,242.436 994.866,283.769 999.5,328.5C 999.5,342.833 999.5,357.167 999.5,371.5C 993.936,424.958 974.769,472.958 942,515.5C 903.219,563.962 856.386,602.462 801.5,631C 706.885,678.493 606.551,701.993 500.5,701.5C 473.568,701.194 446.735,699.527 420,696.5C 327.858,774.753 221.691,823.087 101.5,841.5C 97.8333,841.5 94.1667,841.5 90.5,841.5C 74.3825,835.271 68.2159,823.605 72,806.5C 75.1728,800.819 78.8395,795.486 83,790.5C 96.9666,774.865 111.3,759.532 126,744.5C 154.883,709.407 175.383,669.74 187.5,625.5C 148.796,603.319 113.629,576.319 82,544.5C 52.89,513.976 30.5567,478.976 15,439.5C 6.95815,417.345 1.79148,394.678 -0.5,371.5C -0.5,357.5 -0.5,343.5 -0.5,329.5C 5.74062,275.275 25.574,226.608 59,183.5C 99.9828,132.509 149.816,92.6757 208.5,64C 289.959,25.3852 375.626,3.8852 465.5,-0.5 Z"/></g>
</svg>
