<?xml version="1.0" encoding="UTF-8"?>
<!DOCTYPE svg PUBLIC "-//W3C//DTD SVG 1.1//EN" "http://www.w3.org/Graphics/SVG/1.1/DTD/svg11.dtd">
<svg xmlns="http://www.w3.org/2000/svg" version="1.1" width="500px" height="500px" style="shape-rendering:geometricPrecision; text-rendering:geometricPrecision; image-rendering:optimizeQuality; fill-rule:evenodd; clip-rule:evenodd" xmlns:xlink="http://www.w3.org/1999/xlink">
<g><path style="opacity:0.114" fill="#f3b9dc" d="M 112.5,34.5 C 110.012,36.3878 107.012,37.0545 103.5,36.5C 103.611,35.8826 103.944,35.3826 104.5,35C 107.146,34.5026 109.813,34.3359 112.5,34.5 Z"/></g>
<g><path style="opacity:0.999" fill="#cb218c" d="M 112.5,34.5 C 123.167,34.5 133.833,34.5 144.5,34.5C 147.684,36.4136 151.351,37.0803 155.5,36.5C 155.5,37.1667 155.5,37.8333 155.5,38.5C 159.253,40.0765 163.253,41.0765 167.5,41.5C 167.5,42.8333 167.5,44.1667 167.5,45.5C 169.277,45.2137 170.944,44.5471 172.5,43.5C 174.702,45.4635 177.035,45.7969 179.5,44.5C 179.833,44.5 180.167,44.5 180.5,44.5C 180.5,45.5 180.5,46.5 180.5,47.5C 184.926,48.547 189.259,49.8803 193.5,51.5C 194.167,51.5 194.833,51.5 195.5,51.5C 195.5,52.8333 196.167,53.5 197.5,53.5C 199.199,53.5271 200.533,54.1938 201.5,55.5C 201.821,57.0481 202.821,57.7148 204.5,57.5C 205.833,58.1667 207.167,58.8333 208.5,59.5C 208.5,60.8333 209.167,61.5 210.5,61.5C 211.833,62.1667 213.167,62.8333 214.5,63.5C 214.5,64.8333 215.167,65.5 216.5,65.5C 217.833,66.1667 219.167,66.8333 220.5,67.5C 220.833,70.5 222.5,72.1667 225.5,72.5C 227.5,73.8333 229.5,75.1667 231.5,76.5C 231.5,77.8333 232.167,78.5 233.5,78.5C 233.5,79.8333 234.167,80.5 235.5,80.5C 235.5,81.8333 236.167,82.5 237.5,82.5C 237.5,83.8333 238.167,84.5 239.5,84.5C 241.139,88.8059 244.139,91.8059 248.5,93.5C 249.167,93.5 249.833,93.5 250.5,93.5C 254.861,91.8059 257.861,88.8059 259.5,84.5C 260.833,84.5 261.5,83.8333 261.5,82.5C 262.833,82.5 263.5,81.8333 263.5,80.5C 264.833,80.5 265.5,79.8333 265.5,78.5C 266.833,78.5 267.5,77.8333 267.5,76.5C 268.833,75.8333 270.167,75.1667 271.5,74.5C 272.833,74.5 273.5,73.8333 273.5,72.5C 278.001,71.4197 281.667,69.0864 284.5,65.5C 289.961,65.3624 293.295,62.6958 294.5,57.5C 297.923,57.876 300.256,56.5426 301.5,53.5C 302.833,53.5 303.5,52.8333 303.5,51.5C 304.167,51.5 304.833,51.5 305.5,51.5C 309.833,50.1667 314.167,48.8333 318.5,47.5C 318.5,46.5 318.5,45.5 318.5,44.5C 319.167,44.5 319.833,44.5 320.5,44.5C 320.917,45.1239 321.584,45.4573 322.5,45.5C 325.959,44.0691 329.459,42.7358 333,41.5C 335.079,42.4028 337.246,43.0694 339.5,43.5C 340.5,43.1667 341.5,42.8333 342.5,42.5C 341.359,41.5745 341.359,40.7412 342.5,40C 344.715,39.8295 346.715,39.1628 348.5,38C 362.578,37.1658 376.911,36.6658 391.5,36.5C 393.167,36.5 394.833,36.5 396.5,36.5C 396.5,37.5 396.5,38.5 396.5,39.5C 407.912,39.9057 418.578,42.5723 428.5,47.5C 432.833,48.8333 437.167,50.1667 441.5,51.5C 442.833,52.1667 444.167,52.8333 445.5,53.5C 445.5,54.8333 446.167,55.5 447.5,55.5C 448.305,57.2128 449.305,58.8794 450.5,60.5C 451.736,59.7542 453.07,59.4208 454.5,59.5C 455.666,64.7718 459,67.7718 464.5,68.5C 464.5,69.8333 465.167,70.5 466.5,70.5C 466.5,71.8333 467.167,72.5 468.5,72.5C 468.5,73.1667 468.5,73.8333 468.5,74.5C 469.743,76.7531 471.41,78.7531 473.5,80.5C 474.799,82.7582 475.799,85.0916 476.5,87.5C 478.322,87.8308 479.989,88.4975 481.5,89.5C 482.6,90.6049 483.267,91.9382 483.5,93.5C 483.5,94.8333 484.167,95.5 485.5,95.5C 486.72,97.2821 487.386,99.2821 487.5,101.5C 487.5,102.833 487.5,104.167 487.5,105.5C 488.5,105.5 489.5,105.5 490.5,105.5C 490.5,106.167 490.5,106.833 490.5,107.5C 490.018,108.416 489.685,109.416 489.5,110.5C 491.862,115.248 493.195,120.248 493.5,125.5C 494.5,125.5 495.5,125.5 496.5,125.5C 496.5,125.833 496.5,126.167 496.5,126.5C 496.077,128.781 496.744,130.448 498.5,131.5C 498.205,133.735 498.539,135.735 499.5,137.5C 499.5,149.167 499.5,160.833 499.5,172.5C 497.835,181.628 495.835,190.961 493.5,200.5C 493.728,202.207 494.062,203.874 494.5,205.5C 494.5,205.833 494.5,206.167 494.5,206.5C 493.5,206.5 492.5,206.5 491.5,206.5C 490.124,209.658 489.458,212.991 489.5,216.5C 488.5,216.5 487.5,216.5 486.5,216.5C 484.276,219.316 482.942,222.65 482.5,226.5C 482.685,227.584 483.018,228.584 483.5,229.5C 483.5,230.167 483.5,230.833 483.5,231.5C 482.833,232.833 482.167,234.167 481.5,235.5C 478.457,236.744 477.124,239.077 477.5,242.5C 476.149,246.542 473.815,249.875 470.5,252.5C 469.167,252.5 468.5,253.167 468.5,254.5C 467.42,256.996 466.086,259.33 464.5,261.5C 463.167,261.5 462.5,262.167 462.5,263.5C 461.167,265.5 459.833,267.5 458.5,269.5C 457.167,269.5 456.5,270.167 456.5,271.5C 455.167,271.5 454.5,272.167 454.5,273.5C 448.22,280.782 441.553,287.782 434.5,294.5C 433.022,294.238 431.689,294.571 430.5,295.5C 426.985,299.182 423.318,302.682 419.5,306C 418.258,306.311 417.258,305.811 416.5,304.5C 415.534,306.396 415.201,308.396 415.5,310.5C 413.856,310.714 412.356,310.38 411,309.5C 410.626,310.416 410.126,311.25 409.5,312C 410.357,312.689 411.023,313.522 411.5,314.5C 408.662,316.653 406.662,319.32 405.5,322.5C 404.167,322.5 403.5,323.167 403.5,324.5C 402.167,324.5 401.5,325.167 401.5,326.5C 400.167,326.5 399.5,327.167 399.5,328.5C 398.167,328.5 397.5,329.167 397.5,330.5C 396.167,330.5 395.5,331.167 395.5,332.5C 394.167,332.5 393.5,333.167 393.5,334.5C 392.167,334.5 391.5,335.167 391.5,336.5C 390.167,336.5 389.5,337.167 389.5,338.5C 388.5,338.5 387.5,338.5 386.5,338.5C 386.5,339.5 386.5,340.5 386.5,341.5C 385.167,341.5 384.5,342.167 384.5,343.5C 383.167,343.5 382.5,344.167 382.5,345.5C 381.167,345.5 380.5,346.167 380.5,347.5C 379.167,347.5 378.5,348.167 378.5,349.5C 377.167,349.5 376.5,350.167 376.5,351.5C 375.167,351.5 374.5,352.167 374.5,353.5C 373.167,353.5 372.5,354.167 372.5,355.5C 371.833,355.5 371.167,355.5 370.5,355.5C 369.325,355.281 368.325,355.614 367.5,356.5C 363.8,360.535 359.8,364.202 355.5,367.5C 354.05,368.85 353.383,370.516 353.5,372.5C 352.167,375.167 350.167,377.167 347.5,378.5C 344.5,378.833 342.833,380.5 342.5,383.5C 340.236,384.219 337.903,384.552 335.5,384.5C 335.326,386.861 334.993,389.194 334.5,391.5C 333.167,391.5 332.5,392.167 332.5,393.5C 330.833,393.5 329.167,393.5 327.5,393.5C 327.5,394.833 327.5,396.167 327.5,397.5C 326.833,397.5 326.167,397.5 325.5,397.5C 322.298,397.629 319.965,399.129 318.5,402C 317.207,402.49 315.873,402.657 314.5,402.5C 314.5,403.5 314.5,404.5 314.5,405.5C 311.715,405.933 309.381,407.266 307.5,409.5C 305.679,410.728 304.679,412.394 304.5,414.5C 302.058,414.119 301.391,414.786 302.5,416.5C 301.675,417.386 300.675,417.719 299.5,417.5C 299.326,419.861 298.993,422.194 298.5,424.5C 295.99,425.157 293.823,426.491 292,428.5C 290.838,427.813 289.672,427.647 288.5,428C 287.699,431.683 286.033,434.85 283.5,437.5C 281.746,439.589 280.413,441.922 279.5,444.5C 278.167,444.5 277.5,445.167 277.5,446.5C 276.167,446.5 275.5,447.167 275.5,448.5C 274.167,448.5 273.5,449.167 273.5,450.5C 272.167,450.5 271.5,451.167 271.5,452.5C 267.858,455.141 264.525,458.141 261.5,461.5C 260.85,461.196 260.183,460.863 259.5,460.5C 258.158,462.005 256.492,462.672 254.5,462.5C 249.922,461.748 245.256,461.414 240.5,461.5C 237.833,458.5 235.167,455.5 232.5,452.5C 236.944,447.362 236.111,446.362 230,449.5C 226.894,448.063 224.394,445.896 222.5,443C 220.975,441.991 219.308,441.491 217.5,441.5C 217.179,439.952 216.179,439.285 214.5,439.5C 213.804,434.804 211.137,432.137 206.5,431.5C 206.418,427.658 204.418,425.658 200.5,425.5C 198.833,421.167 195.833,418.167 191.5,416.5C 186.828,412.493 182.161,408.493 177.5,404.5C 176.5,400.833 174.167,398.5 170.5,397.5C 170.5,396.167 169.833,395.5 168.5,395.5C 168.5,394.167 167.833,393.5 166.5,393.5C 166.5,392.167 165.833,391.5 164.5,391.5C 164.5,390.167 163.833,389.5 162.5,389.5C 162.5,387.833 162.5,386.167 162.5,384.5C 160.435,384.483 158.435,384.15 156.5,383.5C 156.262,380.931 154.929,379.265 152.5,378.5C 150.57,375.483 149.237,372.149 148.5,368.5C 146.167,368.5 143.833,368.5 141.5,368.5C 138.833,367.167 136.833,365.167 135.5,362.5C 131.969,357.623 128.469,352.623 125,347.5C 122.129,344.308 118.629,341.975 114.5,340.5C 112.411,338.746 110.078,337.413 107.5,336.5C 107.5,335.167 106.833,334.5 105.5,334.5C 105.5,333.167 104.833,332.5 103.5,332.5C 103.5,331.167 102.833,330.5 101.5,330.5C 101.5,329.167 100.833,328.5 99.5,328.5C 99.5,327.167 98.8333,326.5 97.5,326.5C 97.5,324.833 97.5,323.167 97.5,321.5C 96.0222,321.762 94.6888,321.429 93.5,320.5C 89.2375,316.762 85.9042,312.428 83.5,307.5C 81.8333,307.5 80.1667,307.5 78.5,307.5C 78.5792,306.07 78.2458,304.736 77.5,303.5C 72.1667,299.5 67.5,294.833 63.5,289.5C 62.2638,288.754 60.9305,288.421 59.5,288.5C 58.8333,288.5 58.1667,288.5 57.5,288.5C 57.5,287.167 56.8333,286.5 55.5,286.5C 55.5,285.167 54.8333,284.5 53.5,284.5C 53.5,283.833 53.5,283.167 53.5,282.5C 50.9528,278.269 47.9528,274.269 44.5,270.5C 43.9191,265.78 41.2524,263.446 36.5,263.5C 36.2623,260.931 34.929,259.265 32.5,258.5C 32.5,258.167 32.5,257.833 32.5,257.5C 31.3585,254.279 29.6918,251.279 27.5,248.5C 26.4763,247.147 25.143,246.48 23.5,246.5C 23.5,245.833 23.5,245.167 23.5,244.5C 22.2074,240.914 21.2074,237.248 20.5,233.5C 19.5,233.5 18.5,233.5 17.5,233.5C 17.5,232.167 16.8333,231.5 15.5,231.5C 15.5,230.833 15.5,230.167 15.5,229.5C 15.5,228.167 14.8333,227.5 13.5,227.5C 13.9227,225.219 13.256,223.552 11.5,222.5C 11.5,222.167 11.5,221.833 11.5,221.5C 11.0725,218.436 10.4058,215.436 9.5,212.5C 6.7536,206.059 4.7536,199.225 3.5,192C 3.59433,189.625 3.92766,187.291 4.5,185C 2.87937,179.962 2.2127,174.795 2.5,169.5C 1.5,169.5 0.5,169.5 -0.5,169.5C -0.5,158.5 -0.5,147.5 -0.5,136.5C 0.451145,135.081 0.784479,133.415 0.5,131.5C 2.25605,130.448 2.92271,128.781 2.5,126.5C 2.5,125.167 2.5,123.833 2.5,122.5C 4.17649,121.817 4.84316,120.483 4.5,118.5C 4.5,117.833 4.5,117.167 4.5,116.5C 6.17649,115.817 6.84316,114.483 6.5,112.5C 6.5,111.833 6.5,111.167 6.5,110.5C 7.5,110.5 8.5,110.5 9.5,110.5C 9.92752,107.436 10.5942,104.436 11.5,101.5C 11.1568,99.5168 11.8235,98.1834 13.5,97.5C 15.1765,96.8166 15.8432,95.4832 15.5,93.5C 17.1765,92.8166 17.8432,91.4832 17.5,89.5C 18.675,89.719 19.675,89.3857 20.5,88.5C 23.1522,84.8683 24.8189,80.8683 25.5,76.5C 28.0685,76.2623 29.7352,74.929 30.5,72.5C 33.5818,71.0855 35.5818,68.7522 36.5,65.5C 37.8333,65.5 38.5,64.8333 38.5,63.5C 39.8333,63.5 40.5,62.8333 40.5,61.5C 41.6049,60.3995 42.9382,59.7329 44.5,59.5C 45.8333,59.5 46.5,58.8333 46.5,57.5C 46.8333,57.5 47.1667,57.5 47.5,57.5C 48.8333,57.5 49.5,56.8333 49.5,55.5C 50.1667,55.5 50.8333,55.5 51.5,55.5C 52.8333,55.5 53.5,54.8333 53.5,53.5C 54.1667,53.5 54.8333,53.5 55.5,53.5C 62.1517,50.0111 69.1517,47.3444 76.5,45.5C 76.5,44.5 76.5,43.5 76.5,42.5C 79.0821,42.9746 81.0821,42.3079 82.5,40.5C 83.1667,40.5 83.8333,40.5 84.5,40.5C 86.7812,40.9227 88.4479,40.256 89.5,38.5C 90.1667,38.5 90.8333,38.5 91.5,38.5C 92.8333,38.5 94.1667,38.5 95.5,38.5C 97.4832,38.8432 98.8166,38.1765 99.5,36.5C 100.833,36.5 102.167,36.5 103.5,36.5C 107.012,37.0545 110.012,36.3878 112.5,34.5 Z"/></g>
<g><path style="opacity:0.139" fill="#f2bfe1" d="M 144.5,34.5 C 147.518,34.3354 150.518,34.502 153.5,35C 154.416,35.2784 155.082,35.7784 155.5,36.5C 151.351,37.0803 147.684,36.4136 144.5,34.5 Z"/></g>
<g><path style="opacity:0.169" fill="#eaa3d2" d="M 356.5,34.5 C 353.316,36.4136 349.649,37.0803 345.5,36.5C 345.611,35.8826 345.944,35.3826 346.5,35C 349.817,34.5017 353.15,34.335 356.5,34.5 Z"/></g>
<g><path style="opacity:0.029" fill="#f9dbee" d="M 386.5,34.5 C 390.489,34.1164 394.155,34.783 397.5,36.5C 397.167,36.5 396.833,36.5 396.5,36.5C 394.833,36.5 393.167,36.5 391.5,36.5C 389.219,36.9227 387.552,36.256 386.5,34.5 Z"/></g>
<g><path style="opacity:0.039" fill="#ffe2ff" d="M 95.5,36.5 C 95.5,37.1667 95.5,37.8333 95.5,38.5C 94.1667,38.5 92.8333,38.5 91.5,38.5C 92.1834,36.8235 93.5168,36.1568 95.5,36.5 Z"/></g>
<g><path style="opacity:0.125" fill="#eb9ad0" d="M 95.5,36.5 C 96.8333,36.5 98.1667,36.5 99.5,36.5C 98.8166,38.1765 97.4832,38.8432 95.5,38.5C 95.5,37.8333 95.5,37.1667 95.5,36.5 Z"/></g>
<g><path style="opacity:0.067" fill="#f3bce6" d="M 155.5,36.5 C 158.388,35.9898 160.721,36.6565 162.5,38.5C 160.167,38.5 157.833,38.5 155.5,38.5C 155.5,37.8333 155.5,37.1667 155.5,36.5 Z"/></g>
<g><path style="opacity:0.067" fill="#f7c6e4" d="M 341.5,36.5 C 340.448,38.256 338.781,38.9227 336.5,38.5C 337.635,36.7868 339.302,36.1201 341.5,36.5 Z"/></g>
<g><path style="opacity:0.104" fill="#e59dd3" d="M 398.5,36.5 C 400.167,36.5 401.833,36.5 403.5,36.5C 403.5,37.1667 403.5,37.8333 403.5,38.5C 401.219,38.9227 399.552,38.256 398.5,36.5 Z"/></g>
<g><path style="opacity:0.014" fill="#fcf2f8" d="M 403.5,36.5 C 405.483,36.1568 406.817,36.8235 407.5,38.5C 406.167,38.5 404.833,38.5 403.5,38.5C 403.5,37.8333 403.5,37.1667 403.5,36.5 Z"/></g>
<g><path style="opacity:0.092" fill="#e39fcb" d="M 89.5,38.5 C 88.4479,40.256 86.7812,40.9227 84.5,40.5C 85.5521,38.744 87.2188,38.0773 89.5,38.5 Z"/></g>
<g><path style="opacity:0.039" fill="#fdcdec" d="M 165.5,38.5 C 167.698,38.1201 169.365,38.7868 170.5,40.5C 168.219,40.9227 166.552,40.256 165.5,38.5 Z"/></g>
<g><path style="opacity:0.076" fill="#edafd9" d="M 334.5,38.5 C 333.082,40.3079 331.082,40.9746 328.5,40.5C 330.102,38.9261 332.102,38.2594 334.5,38.5 Z"/></g>
<g><path style="opacity:0.204" fill="#d456a3" d="M 396.5,36.5 C 396.833,36.5 397.167,36.5 397.5,36.5C 397.833,36.5 398.167,36.5 398.5,36.5C 399.552,38.256 401.219,38.9227 403.5,38.5C 404.833,38.5 406.167,38.5 407.5,38.5C 408.833,38.5 410.167,38.5 411.5,38.5C 412.183,40.1765 413.517,40.8432 415.5,40.5C 416.5,40.5 417.5,40.5 418.5,40.5C 419.183,42.1765 420.517,42.8432 422.5,42.5C 424.718,42.6138 426.718,43.2804 428.5,44.5C 428.5,45.5 428.5,46.5 428.5,47.5C 418.578,42.5723 407.912,39.9057 396.5,39.5C 396.5,38.5 396.5,37.5 396.5,36.5 Z"/></g>
<g><path style="opacity:0.037" fill="#edcfea" d="M 411.5,38.5 C 413.38,38.2291 414.713,38.8958 415.5,40.5C 413.517,40.8432 412.183,40.1765 411.5,38.5 Z"/></g>
<g><path style="opacity:0.061" fill="#f8acd7" d="M 82.5,40.5 C 81.0821,42.3079 79.0821,42.9746 76.5,42.5C 77.9899,40.7202 79.9899,40.0535 82.5,40.5 Z"/></g>
<g><path style="opacity:0.025" fill="#f1cce5" d="M 172.5,40.5 C 173.833,40.5 174.5,41.1667 174.5,42.5C 174.5,41.1667 173.833,40.5 172.5,40.5 Z"/></g>
<g><path style="opacity:0.1" fill="#e89cc7" d="M 328.5,40.5 C 327.817,42.1765 326.483,42.8432 324.5,42.5C 325.183,40.8235 326.517,40.1568 328.5,40.5 Z"/></g>
<g><path style="opacity:0.024" fill="#fad0ef" d="M 418.5,40.5 C 420.38,40.2291 421.713,40.8958 422.5,42.5C 420.517,42.8432 419.183,42.1765 418.5,40.5 Z"/></g>
<g><path style="opacity:0.915" fill="#d0409a" d="M 356.5,34.5 C 366.5,34.5 376.5,34.5 386.5,34.5C 387.552,36.256 389.219,36.9227 391.5,36.5C 376.911,36.6658 362.578,37.1658 348.5,38C 346.715,39.1628 344.715,39.8295 342.5,40C 341.359,40.7412 341.359,41.5745 342.5,42.5C 341.5,42.8333 340.5,43.1667 339.5,43.5C 337.246,43.0694 335.079,42.4028 333,41.5C 329.459,42.7358 325.959,44.0691 322.5,45.5C 321.584,45.4573 320.917,45.1239 320.5,44.5C 321.833,44.5 322.5,43.8333 322.5,42.5C 323.167,42.5 323.833,42.5 324.5,42.5C 326.483,42.8432 327.817,42.1765 328.5,40.5C 331.082,40.9746 333.082,40.3079 334.5,38.5C 335.167,38.5 335.833,38.5 336.5,38.5C 338.781,38.9227 340.448,38.256 341.5,36.5C 342.833,36.5 344.167,36.5 345.5,36.5C 349.649,37.0803 353.316,36.4136 356.5,34.5 Z"/></g>
<g><path style="opacity:0.027" fill="#e9beda" d="M 322.5,42.5 C 322.5,43.8333 321.833,44.5 320.5,44.5C 319.833,44.5 319.167,44.5 318.5,44.5C 319.287,42.8958 320.62,42.2291 322.5,42.5 Z"/></g>
<g><path style="opacity:0.867" fill="#d1489b" d="M 155.5,38.5 C 157.833,38.5 160.167,38.5 162.5,38.5C 163.5,38.5 164.5,38.5 165.5,38.5C 166.552,40.256 168.219,40.9227 170.5,40.5C 171.167,40.5 171.833,40.5 172.5,40.5C 172.5,41.8333 173.167,42.5 174.5,42.5C 176.698,42.1201 178.365,42.7868 179.5,44.5C 177.035,45.7969 174.702,45.4635 172.5,43.5C 170.944,44.5471 169.277,45.2137 167.5,45.5C 167.5,44.1667 167.5,42.8333 167.5,41.5C 163.253,41.0765 159.253,40.0765 155.5,38.5 Z"/></g>
<g><path style="opacity:0.059" fill="#e383b7" d="M 428.5,44.5 C 433.568,45.5904 437.901,47.9237 441.5,51.5C 437.167,50.1667 432.833,48.8333 428.5,47.5C 428.5,46.5 428.5,45.5 428.5,44.5 Z"/></g>
<g><path style="opacity:0.053" fill="#dd70b4" d="M 76.5,42.5 C 76.5,43.5 76.5,44.5 76.5,45.5C 69.1517,47.3444 62.1517,50.0111 55.5,53.5C 56.8204,51.6362 58.4871,49.9695 60.5,48.5C 65.5098,45.6317 70.8432,43.6317 76.5,42.5 Z"/></g>
<g><path style="opacity:0.027" fill="#e88dc4" d="M 180.5,44.5 C 185.84,45.1536 190.173,47.487 193.5,51.5C 189.259,49.8803 184.926,48.547 180.5,47.5C 180.5,46.5 180.5,45.5 180.5,44.5 Z"/></g>
<g><path style="opacity:0.243" fill="#e07eb9" d="M 318.5,44.5 C 318.5,45.5 318.5,46.5 318.5,47.5C 314.167,48.8333 309.833,50.1667 305.5,51.5C 308.827,47.487 313.16,45.1536 318.5,44.5 Z"/></g>
<g><path style="opacity:0.009" fill="#fefffe" d="M 195.5,51.5 C 196.833,51.5 197.5,52.1667 197.5,53.5C 197.5,52.1667 196.833,51.5 195.5,51.5 Z"/></g>
<g><path style="opacity:0.013" fill="#fefffe" d="M 303.5,51.5 C 303.5,52.8333 302.833,53.5 301.5,53.5C 301.5,52.1667 302.167,51.5 303.5,51.5 Z"/></g>
<g><path style="opacity:0.047" fill="#fec2ea" d="M 53.5,53.5 C 53.5,54.8333 52.8333,55.5 51.5,55.5C 51.5,54.1667 52.1667,53.5 53.5,53.5 Z"/></g>
<g><path style="opacity:0.046" fill="#e9bfde" d="M 445.5,53.5 C 446.833,53.5 447.5,54.1667 447.5,55.5C 447.5,54.1667 446.833,53.5 445.5,53.5 Z"/></g>
<g><path style="opacity:0.02" fill="#f8dbee" d="M 49.5,55.5 C 49.5,56.8333 48.8333,57.5 47.5,57.5C 47.5,56.1667 48.1667,55.5 49.5,55.5 Z"/></g>
<g><path style="opacity:0.019" fill="#eeafdc" d="M 201.5,55.5 C 203.179,55.2852 204.179,55.9519 204.5,57.5C 202.821,57.7148 201.821,57.0481 201.5,55.5 Z"/></g>
<g><path style="opacity:0.404" fill="#e889c0" d="M 301.5,53.5 C 300.256,56.5426 297.923,57.876 294.5,57.5C 296.292,55.4307 298.626,54.0974 301.5,53.5 Z"/></g>
<g><path style="opacity:0.02" fill="#fed1f2" d="M 46.5,57.5 C 46.5,58.8333 45.8333,59.5 44.5,59.5C 44.5,58.1667 45.1667,57.5 46.5,57.5 Z"/></g>
<g><path style="opacity:0.021" fill="#f1d7f1" d="M 208.5,59.5 C 209.833,59.5 210.5,60.1667 210.5,61.5C 210.5,60.1667 209.833,59.5 208.5,59.5 Z"/></g>
<g><path style="opacity:0.023" fill="#f1d9f1" d="M 290.5,59.5 C 290.5,60.8333 289.833,61.5 288.5,61.5C 288.5,60.1667 289.167,59.5 290.5,59.5 Z"/></g>
<g><path style="opacity:0.439" fill="#da73ad" d="M 447.5,55.5 C 448.552,55.3505 449.552,55.5172 450.5,56C 452.319,56.7403 453.652,57.9069 454.5,59.5C 453.07,59.4208 451.736,59.7542 450.5,60.5C 449.305,58.8794 448.305,57.2128 447.5,55.5 Z"/></g>
<g><path style="opacity:0.011" fill="#fefffe" d="M 40.5,61.5 C 40.5,62.8333 39.8333,63.5 38.5,63.5C 38.5,62.1667 39.1667,61.5 40.5,61.5 Z"/></g>
<g><path style="opacity:0.012" fill="#fee8fe" d="M 38.5,63.5 C 38.5,64.8333 37.8333,65.5 36.5,65.5C 36.5,64.1667 37.1667,63.5 38.5,63.5 Z"/></g>
<g><path style="opacity:0.016" fill="#fedbfe" d="M 214.5,63.5 C 215.833,63.5 216.5,64.1667 216.5,65.5C 216.5,64.1667 215.833,63.5 214.5,63.5 Z"/></g>
<g><path style="opacity:0.631" fill="#d5569e" d="M 294.5,57.5 C 293.295,62.6958 289.961,65.3624 284.5,65.5C 284.5,64.8333 284.5,64.1667 284.5,63.5C 285.833,62.8333 287.167,62.1667 288.5,61.5C 289.833,61.5 290.5,60.8333 290.5,59.5C 291.605,58.3995 292.938,57.7329 294.5,57.5 Z"/></g>
<g><path style="opacity:0.009" fill="#fefffe" d="M 460.5,63.5 C 461.5,63.8333 462.167,64.5 462.5,65.5C 461.167,65.5 460.5,64.8333 460.5,63.5 Z"/></g>
<g><path style="opacity:0.596" fill="#dc5aa5" d="M 454.5,59.5 C 456.482,60.8075 458.482,62.1408 460.5,63.5C 460.5,64.8333 461.167,65.5 462.5,65.5C 462.5,66.8333 463.167,67.5 464.5,67.5C 464.5,67.8333 464.5,68.1667 464.5,68.5C 459,67.7718 455.666,64.7718 454.5,59.5 Z"/></g>
<g><path style="opacity:0.011" fill="#fed1e7" d="M 462.5,65.5 C 463.833,65.5 464.5,66.1667 464.5,67.5C 464.5,66.1667 463.833,65.5 462.5,65.5 Z"/></g>
<g><path style="opacity:0.021" fill="#f3cbef" d="M 36.5,65.5 C 35.5818,68.7522 33.5818,71.0855 30.5,72.5C 31.436,69.2324 33.436,66.899 36.5,65.5 Z"/></g>
<g><path style="opacity:0.014" fill="#fbc1e7" d="M 464.5,67.5 C 466.048,67.8212 466.715,68.8212 466.5,70.5C 465.167,70.5 464.5,69.8333 464.5,68.5C 464.5,68.1667 464.5,67.8333 464.5,67.5 Z"/></g>
<g><path style="opacity:0.129" fill="#ea9dcc" d="M 284.5,63.5 C 284.5,64.1667 284.5,64.8333 284.5,65.5C 281.667,69.0864 278.001,71.4197 273.5,72.5C 273.414,71.5041 273.748,70.6708 274.5,70C 278.129,68.1911 281.462,66.0245 284.5,63.5 Z"/></g>
<g><path style="opacity:0.027" fill="#f0afd8" d="M 220.5,67.5 C 222.911,68.517 224.578,70.1837 225.5,72.5C 222.5,72.1667 220.833,70.5 220.5,67.5 Z"/></g>
<g><path style="opacity:0.023" fill="#fee6fe" d="M 466.5,70.5 C 467.833,70.5 468.5,71.1667 468.5,72.5C 468.5,71.1667 467.833,70.5 466.5,70.5 Z"/></g>
<g><path style="opacity:0.035" fill="#e3b6da" d="M 273.5,72.5 C 273.5,73.8333 272.833,74.5 271.5,74.5C 271.5,73.1667 272.167,72.5 273.5,72.5 Z"/></g>
<g><path style="opacity:0.012" fill="#fac5f3" d="M 468.5,72.5 C 469.833,72.5 470.5,73.1667 470.5,74.5C 469.833,74.5 469.167,74.5 468.5,74.5C 468.5,73.8333 468.5,73.1667 468.5,72.5 Z"/></g>
<g><path style="opacity:0.011" fill="#ecd9f5" d="M 30.5,72.5 C 29.7352,74.929 28.0685,76.2623 25.5,76.5C 26.5387,74.4689 28.2054,73.1355 30.5,72.5 Z"/></g>
<g><path style="opacity:0.008" fill="#fefffe" d="M 231.5,76.5 C 232.833,76.5 233.5,77.1667 233.5,78.5C 233.5,77.1667 232.833,76.5 231.5,76.5 Z"/></g>
<g><path style="opacity:0.004" fill="#fefffe" d="M 267.5,76.5 C 267.5,77.8333 266.833,78.5 265.5,78.5C 265.833,77.5 266.5,76.8333 267.5,76.5 Z"/></g>
<g><path style="opacity:0.016" fill="#fee8fe" d="M 233.5,78.5 C 234.833,78.5 235.5,79.1667 235.5,80.5C 235.5,79.1667 234.833,78.5 233.5,78.5 Z"/></g>
<g><path style="opacity:0.013" fill="#fee3fe" d="M 265.5,78.5 C 265.5,79.8333 264.833,80.5 263.5,80.5C 263.5,79.1667 264.167,78.5 265.5,78.5 Z"/></g>
<g><path style="opacity:0.022" fill="#fecfee" d="M 235.5,80.5 C 236.833,80.5 237.5,81.1667 237.5,82.5C 237.5,81.1667 236.833,80.5 235.5,80.5 Z"/></g>
<g><path style="opacity:0.025" fill="#f1d7fe" d="M 263.5,80.5 C 263.5,81.8333 262.833,82.5 261.5,82.5C 261.5,81.1667 262.167,80.5 263.5,80.5 Z"/></g>
<g><path style="opacity:0.01" fill="#fee6fe" d="M 21.5,82.5 C 21.5,83.8333 20.8333,84.5 19.5,84.5C 19.5,83.1667 20.1667,82.5 21.5,82.5 Z"/></g>
<g><path style="opacity:0.025" fill="#febce3" d="M 237.5,82.5 C 238.833,82.5 239.5,83.1667 239.5,84.5C 239.5,83.1667 238.833,82.5 237.5,82.5 Z"/></g>
<g><path style="opacity:0.031" fill="#fec8e8" d="M 261.5,82.5 C 261.5,83.8333 260.833,84.5 259.5,84.5C 259.5,83.1667 260.167,82.5 261.5,82.5 Z"/></g>
<g><path style="opacity:0.467" fill="#da66ac" d="M 468.5,74.5 C 469.167,74.5 469.833,74.5 470.5,74.5C 475.732,78.3919 479.398,83.3919 481.5,89.5C 479.989,88.4975 478.322,87.8308 476.5,87.5C 475.799,85.0916 474.799,82.7582 473.5,80.5C 471.41,78.7531 469.743,76.7531 468.5,74.5 Z"/></g>
<g><path style="opacity:0.129" fill="#e07fbc" d="M 25.5,76.5 C 24.8189,80.8683 23.1522,84.8683 20.5,88.5C 19.675,89.3857 18.675,89.719 17.5,89.5C 17.8432,91.4832 17.1765,92.8166 15.5,93.5C 15.3433,92.1266 15.51,90.7932 16,89.5C 17.4119,87.9354 18.5786,86.2687 19.5,84.5C 20.8333,84.5 21.5,83.8333 21.5,82.5C 22.5462,80.2641 23.8795,78.2641 25.5,76.5 Z"/></g>
<g><path style="opacity:0.022" fill="#e681bf" d="M 239.5,84.5 C 242.792,86.4581 245.792,88.7915 248.5,91.5C 248.5,92.1667 248.5,92.8333 248.5,93.5C 244.139,91.8059 241.139,88.8059 239.5,84.5 Z"/></g>
<g><path style="opacity:0.082" fill="#e37fbb" d="M 259.5,84.5 C 257.861,88.8059 254.861,91.8059 250.5,93.5C 250.5,92.8333 250.5,92.1667 250.5,91.5C 253.208,88.7915 256.208,86.4581 259.5,84.5 Z"/></g>
<g><path style="opacity:0.01" fill="#fefffe" d="M 248.5,91.5 C 249.167,91.5 249.833,91.5 250.5,91.5C 250.5,92.1667 250.5,92.8333 250.5,93.5C 249.833,93.5 249.167,93.5 248.5,93.5C 248.5,92.8333 248.5,92.1667 248.5,91.5 Z"/></g>
<g><path style="opacity:0.016" fill="#fec6e2" d="M 483.5,93.5 C 484.833,93.5 485.5,94.1667 485.5,95.5C 485.5,94.1667 484.833,93.5 483.5,93.5 Z"/></g>
<g><path style="opacity:0.216" fill="#e288bb" d="M 15.5,93.5 C 15.8432,95.4832 15.1765,96.8166 13.5,97.5C 13.1568,95.5168 13.8235,94.1834 15.5,93.5 Z"/></g>
<g><path style="opacity:0.06" fill="#e28ec3" d="M 487.5,101.5 C 489.201,102.211 490.201,103.545 490.5,105.5C 489.5,105.5 488.5,105.5 487.5,105.5C 487.5,104.167 487.5,102.833 487.5,101.5 Z"/></g>
<g><path style="opacity:0.043" fill="#edabd5" d="M 11.5,101.5 C 10.5942,104.436 9.92752,107.436 9.5,110.5C 8.5,110.5 7.5,110.5 6.5,110.5C 6.34332,109.127 6.50999,107.793 7,106.5C 8.06691,104.308 9.56691,102.642 11.5,101.5 Z"/></g>
<g><path style="opacity:0.053" fill="#f0aeda" d="M 6.5,112.5 C 6.84316,114.483 6.17649,115.817 4.5,116.5C 4.15684,114.517 4.82351,113.183 6.5,112.5 Z"/></g>
<g><path style="opacity:0.049" fill="#f1c6df" d="M 4.5,118.5 C 4.84316,120.483 4.17649,121.817 2.5,122.5C 2.15684,120.517 2.82351,119.183 4.5,118.5 Z"/></g>
<g><path style="opacity:0.055" fill="#f1b6dd" d="M 494.5,118.5 C 496.176,119.183 496.843,120.517 496.5,122.5C 494.824,121.817 494.157,120.483 494.5,118.5 Z"/></g>
<g><path style="opacity:0.545" fill="#d762a8" d="M 490.5,107.5 C 493.186,110.563 494.519,114.229 494.5,118.5C 494.157,120.483 494.824,121.817 496.5,122.5C 496.5,123.5 496.5,124.5 496.5,125.5C 495.5,125.5 494.5,125.5 493.5,125.5C 493.195,120.248 491.862,115.248 489.5,110.5C 489.685,109.416 490.018,108.416 490.5,107.5 Z"/></g>
<g><path style="opacity:0.067" fill="#eec6e4" d="M 2.5,126.5 C 2.92271,128.781 2.25605,130.448 0.5,131.5C 0.0772868,129.219 0.743953,127.552 2.5,126.5 Z"/></g>
<g><path style="opacity:0.069" fill="#f2c5e6" d="M 496.5,126.5 C 498.256,127.552 498.923,129.219 498.5,131.5C 496.744,130.448 496.077,128.781 496.5,126.5 Z"/></g>
<g><path style="opacity:0.858" fill="#d54e9f" d="M -0.5,169.5 C 0.5,169.5 1.5,169.5 2.5,169.5C 2.2127,174.795 2.87937,179.962 4.5,185C 3.92766,187.291 3.59433,189.625 3.5,192C 4.7536,199.225 6.7536,206.059 9.5,212.5C 8.5,212.5 7.5,212.5 6.5,212.5C 6.5,211.833 6.5,211.167 6.5,210.5C 6.71481,208.821 6.04814,207.821 4.5,207.5C 4.5,206.5 4.5,205.5 4.5,204.5C 4.92271,202.219 4.25605,200.552 2.5,199.5C 2.5,199.167 2.5,198.833 2.5,198.5C 3.01017,195.612 2.34351,193.279 0.5,191.5C 0.67158,190.508 0.338246,189.842 -0.5,189.5C -0.5,182.833 -0.5,176.167 -0.5,169.5 Z"/></g>
<g><path style="opacity:0.035" fill="#f3c5e8" d="M 0.5,191.5 C 2.34351,193.279 3.01017,195.612 2.5,198.5C 1.88258,198.389 1.38258,198.056 1,197.5C 0.504543,195.527 0.337876,193.527 0.5,191.5 Z"/></g>
<g><path style="opacity:0.024" fill="#f0c9e4" d="M 498.5,193.5 C 498.923,195.781 498.256,197.448 496.5,198.5C 496.077,196.219 496.744,194.552 498.5,193.5 Z"/></g>
<g><path style="opacity:0.294" fill="#df78b4" d="M 499.5,172.5 C 499.5,178.5 499.5,184.5 499.5,190.5C 498.596,191.209 498.263,192.209 498.5,193.5C 496.744,194.552 496.077,196.219 496.5,198.5C 496.662,200.527 496.495,202.527 496,204.5C 495.617,205.056 495.117,205.389 494.5,205.5C 494.062,203.874 493.728,202.207 493.5,200.5C 495.835,190.961 497.835,181.628 499.5,172.5 Z"/></g>
<g><path style="opacity:0.015" fill="#f7c3e4" d="M 2.5,199.5 C 4.25605,200.552 4.92271,202.219 4.5,204.5C 2.74395,203.448 2.07729,201.781 2.5,199.5 Z"/></g>
<g><path style="opacity:0.016" fill="#f0d8eb" d="M 4.5,207.5 C 6.04814,207.821 6.71481,208.821 6.5,210.5C 4.95186,210.179 4.28519,209.179 4.5,207.5 Z"/></g>
<g><path style="opacity:0.069" fill="#e9aed3" d="M 6.5,212.5 C 7.5,212.5 8.5,212.5 9.5,212.5C 10.4058,215.436 11.0725,218.436 11.5,221.5C 10.6236,221.631 9.95689,221.298 9.5,220.5C 8.48659,217.812 7.48659,215.146 6.5,212.5 Z"/></g>
<g><path style="opacity:0.758" fill="#d556a1" d="M 494.5,206.5 C 492.081,214.428 489.081,222.094 485.5,229.5C 484.833,229.5 484.167,229.5 483.5,229.5C 483.018,228.584 482.685,227.584 482.5,226.5C 482.942,222.65 484.276,219.316 486.5,216.5C 487.5,216.5 488.5,216.5 489.5,216.5C 489.458,212.991 490.124,209.658 491.5,206.5C 492.5,206.5 493.5,206.5 494.5,206.5 Z"/></g>
<g><path style="opacity:0.067" fill="#f3badd" d="M 11.5,222.5 C 13.256,223.552 13.9227,225.219 13.5,227.5C 11.7868,226.365 11.1201,224.698 11.5,222.5 Z"/></g>
<g><path style="opacity:0.043" fill="#ecb0d2" d="M 13.5,227.5 C 14.8333,227.5 15.5,228.167 15.5,229.5C 14.1667,229.5 13.5,228.833 13.5,227.5 Z"/></g>
<g><path style="opacity:0.01" fill="#fefffe" d="M 483.5,229.5 C 484.167,229.5 484.833,229.5 485.5,229.5C 485.5,230.833 484.833,231.5 483.5,231.5C 483.5,230.833 483.5,230.167 483.5,229.5 Z"/></g>
<g><path style="opacity:0.046" fill="#ecb9e4" d="M 15.5,231.5 C 16.8333,231.5 17.5,232.167 17.5,233.5C 16.1667,233.5 15.5,232.833 15.5,231.5 Z"/></g>
<g><path style="opacity:0.231" fill="#e07fb8" d="M 17.5,233.5 C 18.5,233.5 19.5,233.5 20.5,233.5C 21.2074,237.248 22.2074,240.914 23.5,244.5C 22.2652,244.279 21.2652,243.612 20.5,242.5C 18.6639,239.748 17.6639,236.748 17.5,233.5 Z"/></g>
<g><path style="opacity:0.096" fill="#e890ca" d="M 481.5,235.5 C 480.532,238.1 479.199,240.434 477.5,242.5C 477.124,239.077 478.457,236.744 481.5,235.5 Z"/></g>
<g><path style="opacity:0.049" fill="#e49ac7" d="M 23.5,246.5 C 25.143,246.48 26.4763,247.147 27.5,248.5C 29.6918,251.279 31.3585,254.279 32.5,257.5C 28.6302,254.626 25.6302,250.959 23.5,246.5 Z"/></g>
<g><path style="opacity:0.008" fill="#f9c4f3" d="M 470.5,252.5 C 470.5,253.833 469.833,254.5 468.5,254.5C 468.5,253.167 469.167,252.5 470.5,252.5 Z"/></g>
<g><path style="opacity:0.027" fill="#f3bee7" d="M 32.5,258.5 C 34.929,259.265 36.2623,260.931 36.5,263.5C 34.4689,262.461 33.1355,260.795 32.5,258.5 Z"/></g>
<g><path style="opacity:0.009" fill="#e2aac5" d="M 464.5,261.5 C 464.5,262.833 463.833,263.5 462.5,263.5C 462.5,262.167 463.167,261.5 464.5,261.5 Z"/></g>
<g><path style="opacity:0.01" fill="#fefffe" d="M 38.5,267.5 C 39.8333,267.5 40.5,268.167 40.5,269.5C 40.5,268.167 39.8333,267.5 38.5,267.5 Z"/></g>
<g><path style="opacity:0.043" fill="#ffd4f1" d="M 40.5,269.5 C 41.8333,269.5 42.5,270.167 42.5,271.5C 42.5,270.167 41.8333,269.5 40.5,269.5 Z"/></g>
<g><path style="opacity:0.005" fill="#fefffe" d="M 458.5,269.5 C 458.167,270.5 457.5,271.167 456.5,271.5C 456.5,270.167 457.167,269.5 458.5,269.5 Z"/></g>
<g><path style="opacity:0.025" fill="#f2b9db" d="M 42.5,271.5 C 43.8333,271.5 44.5,272.167 44.5,273.5C 44.5,272.167 43.8333,271.5 42.5,271.5 Z"/></g>
<g><path style="opacity:0.008" fill="#dadbda" d="M 456.5,271.5 C 456.5,272.833 455.833,273.5 454.5,273.5C 454.5,272.167 455.167,271.5 456.5,271.5 Z"/></g>
<g><path style="opacity:0.049" fill="#dd6ab0" d="M 36.5,263.5 C 41.2524,263.446 43.9191,265.78 44.5,270.5C 47.9528,274.269 50.9528,278.269 53.5,282.5C 52.8333,282.5 52.1667,282.5 51.5,282.5C 48.7915,279.792 46.4581,276.792 44.5,273.5C 44.5,272.167 43.8333,271.5 42.5,271.5C 42.5,270.167 41.8333,269.5 40.5,269.5C 40.5,268.167 39.8333,267.5 38.5,267.5C 37.8333,266.167 37.1667,264.833 36.5,263.5 Z"/></g>
<g><path style="opacity:0.015" fill="#ead8ea" d="M 51.5,282.5 C 52.1667,282.5 52.8333,282.5 53.5,282.5C 53.5,283.167 53.5,283.833 53.5,284.5C 52.1667,284.5 51.5,283.833 51.5,282.5 Z"/></g>
<g><path style="opacity:0.018" fill="#ecdbec" d="M 53.5,284.5 C 54.8333,284.5 55.5,285.167 55.5,286.5C 54.1667,286.5 53.5,285.833 53.5,284.5 Z"/></g>
<g><path style="opacity:0.019" fill="#ecdbec" d="M 55.5,286.5 C 56.8333,286.5 57.5,287.167 57.5,288.5C 56.1667,288.5 55.5,287.833 55.5,286.5 Z"/></g>
<g><path style="opacity:0.014" fill="#fee6e5" d="M 57.5,288.5 C 58.1667,288.5 58.8333,288.5 59.5,288.5C 59.5,289.167 59.5,289.833 59.5,290.5C 58.1667,290.5 57.5,289.833 57.5,288.5 Z"/></g>
<g><path style="opacity:0.592" fill="#d456a0" d="M 59.5,288.5 C 60.9305,288.421 62.2638,288.754 63.5,289.5C 67.5,294.833 72.1667,299.5 77.5,303.5C 78.2458,304.736 78.5792,306.07 78.5,307.5C 72.5053,302.837 66.8386,297.837 61.5,292.5C 61.5,291.167 60.8333,290.5 59.5,290.5C 59.5,289.833 59.5,289.167 59.5,288.5 Z"/></g>
<g><path style="opacity:0.009" fill="#fed4fe" d="M 59.5,290.5 C 60.8333,290.5 61.5,291.167 61.5,292.5C 60.1667,292.5 59.5,291.833 59.5,290.5 Z"/></g>
<g><path style="opacity:0.876" fill="#d44d9d" d="M 434.5,294.5 C 425.395,303.44 416.395,312.606 407.5,322C 406.906,322.464 406.239,322.631 405.5,322.5C 406.662,319.32 408.662,316.653 411.5,314.5C 411.023,313.522 410.357,312.689 409.5,312C 410.126,311.25 410.626,310.416 411,309.5C 412.356,310.38 413.856,310.714 415.5,310.5C 415.201,308.396 415.534,306.396 416.5,304.5C 417.258,305.811 418.258,306.311 419.5,306C 423.318,302.682 426.985,299.182 430.5,295.5C 431.689,294.571 433.022,294.238 434.5,294.5 Z"/></g>
<g><path style="opacity:0.608" fill="#e176b5" d="M 78.5,307.5 C 80.1667,307.5 81.8333,307.5 83.5,307.5C 85.9042,312.428 89.2375,316.762 93.5,320.5C 94.6888,321.429 96.0222,321.762 97.5,321.5C 97.5,323.167 97.5,324.833 97.5,326.5C 90.1667,321.167 83.8333,314.833 78.5,307.5 Z"/></g>
<g><path style="opacity:0.023" fill="#cc98b2" d="M 405.5,322.5 C 405.5,323.833 404.833,324.5 403.5,324.5C 403.5,323.167 404.167,322.5 405.5,322.5 Z"/></g>
<g><path style="opacity:0.024" fill="#e3a1c8" d="M 403.5,324.5 C 403.5,325.833 402.833,326.5 401.5,326.5C 401.5,325.167 402.167,324.5 403.5,324.5 Z"/></g>
<g><path style="opacity:0.025" fill="#f2b2d9" d="M 97.5,326.5 C 98.8333,326.5 99.5,327.167 99.5,328.5C 98.1667,328.5 97.5,327.833 97.5,326.5 Z"/></g>
<g><path style="opacity:0.012" fill="#e3aad4" d="M 401.5,326.5 C 401.5,327.833 400.833,328.5 399.5,328.5C 399.5,327.167 400.167,326.5 401.5,326.5 Z"/></g>
<g><path style="opacity:0.024" fill="#f0b8e2" d="M 99.5,328.5 C 100.833,328.5 101.5,329.167 101.5,330.5C 100.167,330.5 99.5,329.833 99.5,328.5 Z"/></g>
<g><path style="opacity:0.025" fill="#e3aad4" d="M 399.5,328.5 C 399.5,329.833 398.833,330.5 397.5,330.5C 397.5,329.167 398.167,328.5 399.5,328.5 Z"/></g>
<g><path style="opacity:0.025" fill="#f1cce5" d="M 101.5,330.5 C 102.833,330.5 103.5,331.167 103.5,332.5C 102.167,332.5 101.5,331.833 101.5,330.5 Z"/></g>
<g><path style="opacity:0.014" fill="#f1b8d4" d="M 397.5,330.5 C 397.5,331.833 396.833,332.5 395.5,332.5C 395.5,331.167 396.167,330.5 397.5,330.5 Z"/></g>
<g><path style="opacity:0.025" fill="#f1ccf1" d="M 103.5,332.5 C 104.833,332.5 105.5,333.167 105.5,334.5C 104.167,334.5 103.5,333.833 103.5,332.5 Z"/></g>
<g><path style="opacity:0.022" fill="#efb4e0" d="M 395.5,332.5 C 395.5,333.833 394.833,334.5 393.5,334.5C 393.5,333.167 394.167,332.5 395.5,332.5 Z"/></g>
<g><path style="opacity:0.023" fill="#e3d7e3" d="M 105.5,334.5 C 106.833,334.5 107.5,335.167 107.5,336.5C 106.167,336.5 105.5,335.833 105.5,334.5 Z"/></g>
<g><path style="opacity:0.018" fill="#edbbdc" d="M 393.5,334.5 C 393.5,335.833 392.833,336.5 391.5,336.5C 391.5,335.167 392.167,334.5 393.5,334.5 Z"/></g>
<g><path style="opacity:0.017" fill="#ecc8ec" d="M 391.5,336.5 C 391.5,337.833 390.833,338.5 389.5,338.5C 389.5,337.167 390.167,336.5 391.5,336.5 Z"/></g>
<g><path style="opacity:0.039" fill="#f3b1db" d="M 107.5,336.5 C 110.078,337.413 112.411,338.746 114.5,340.5C 114.5,341.5 114.5,342.5 114.5,343.5C 111.167,342.167 108.833,339.833 107.5,336.5 Z"/></g>
<g><path style="opacity:0.051" fill="#dca8c8" d="M 389.5,338.5 C 389.5,340.5 388.5,341.5 386.5,341.5C 386.5,340.5 386.5,339.5 386.5,338.5C 387.5,338.5 388.5,338.5 389.5,338.5 Z"/></g>
<g><path style="opacity:0.015" fill="#e9d1e8" d="M 386.5,341.5 C 386.5,342.833 385.833,343.5 384.5,343.5C 384.5,342.167 385.167,341.5 386.5,341.5 Z"/></g>
<g><path style="opacity:0.005" fill="#fefffe" d="M 114.5,343.5 C 115.833,343.5 116.5,344.167 116.5,345.5C 115.5,345.167 114.833,344.5 114.5,343.5 Z"/></g>
<g><path style="opacity:0.012" fill="#fecce5" d="M 384.5,343.5 C 384.5,344.833 383.833,345.5 382.5,345.5C 382.5,344.167 383.167,343.5 384.5,343.5 Z"/></g>
<g><path style="opacity:0.008" fill="#fed4fe" d="M 116.5,345.5 C 117.833,345.5 118.5,346.167 118.5,347.5C 118.5,346.167 117.833,345.5 116.5,345.5 Z"/></g>
<g><path style="opacity:0.01" fill="#fedffe" d="M 382.5,345.5 C 382.5,346.833 381.833,347.5 380.5,347.5C 380.5,346.167 381.167,345.5 382.5,345.5 Z"/></g>
<g><path style="opacity:0.78" fill="#d04ba0" d="M 114.5,340.5 C 118.629,341.975 122.129,344.308 125,347.5C 128.469,352.623 131.969,357.623 135.5,362.5C 131.211,358.886 126.878,355.219 122.5,351.5C 122.5,350.167 121.833,349.5 120.5,349.5C 120.5,348.167 119.833,347.5 118.5,347.5C 118.5,346.167 117.833,345.5 116.5,345.5C 116.5,344.167 115.833,343.5 114.5,343.5C 114.5,342.5 114.5,341.5 114.5,340.5 Z"/></g>
<g><path style="opacity:0.008" fill="#fed4fe" d="M 118.5,347.5 C 119.833,347.5 120.5,348.167 120.5,349.5C 119.167,349.5 118.5,348.833 118.5,347.5 Z"/></g>
<g><path style="opacity:0.01" fill="#fedffe" d="M 380.5,347.5 C 380.5,348.833 379.833,349.5 378.5,349.5C 378.5,348.167 379.167,347.5 380.5,347.5 Z"/></g>
<g><path style="opacity:0.004" fill="#fefffe" d="M 120.5,349.5 C 121.833,349.5 122.5,350.167 122.5,351.5C 121.5,351.167 120.833,350.5 120.5,349.5 Z"/></g>
<g><path style="opacity:0.01" fill="#fedbfe" d="M 378.5,349.5 C 378.5,350.833 377.833,351.5 376.5,351.5C 376.5,350.167 377.167,349.5 378.5,349.5 Z"/></g>
<g><path style="opacity:0.007" fill="#fefffe" d="M 376.5,351.5 C 376.167,352.5 375.5,353.167 374.5,353.5C 374.5,352.167 375.167,351.5 376.5,351.5 Z"/></g>
<g><path style="opacity:0.005" fill="#fefffe" d="M 374.5,353.5 C 374.167,354.5 373.5,355.167 372.5,355.5C 372.5,354.167 373.167,353.5 374.5,353.5 Z"/></g>
<g><path style="opacity:0.005" fill="#fefffe" d="M 370.5,355.5 C 371.167,355.5 371.833,355.5 372.5,355.5C 372.167,356.5 371.5,357.167 370.5,357.5C 370.5,356.833 370.5,356.167 370.5,355.5 Z"/></g>
<g><path style="opacity:0.086" fill="#d858a3" d="M 370.5,355.5 C 370.5,356.167 370.5,356.833 370.5,357.5C 364.839,362.494 359.172,367.494 353.5,372.5C 353.383,370.516 354.05,368.85 355.5,367.5C 359.8,364.202 363.8,360.535 367.5,356.5C 368.325,355.614 369.325,355.281 370.5,355.5 Z"/></g>
<g><path style="opacity:0.8" fill="#da64aa" d="M 141.5,368.5 C 143.833,368.5 146.167,368.5 148.5,368.5C 149.237,372.149 150.57,375.483 152.5,378.5C 152.167,378.5 151.833,378.5 151.5,378.5C 147.5,375.833 144.167,372.5 141.5,368.5 Z"/></g>
<g><path style="opacity:0.063" fill="#e5a5d3" d="M 151.5,378.5 C 151.833,378.5 152.167,378.5 152.5,378.5C 154.929,379.265 156.262,380.931 156.5,383.5C 153.833,382.833 152.167,381.167 151.5,378.5 Z"/></g>
<g><path style="opacity:0.071" fill="#e487c4" d="M 347.5,378.5 C 346.833,381.167 345.167,382.833 342.5,383.5C 342.833,380.5 344.5,378.833 347.5,378.5 Z"/></g>
<g><path style="opacity:0.514" fill="#e38cc1" d="M 156.5,383.5 C 158.435,384.15 160.435,384.483 162.5,384.5C 162.5,386.167 162.5,387.833 162.5,389.5C 159.833,388.167 157.833,386.167 156.5,383.5 Z"/></g>
<g><path style="opacity:0.612" fill="#e176b5" d="M 342.5,383.5 C 340.5,386.833 337.833,389.5 334.5,391.5C 334.993,389.194 335.326,386.861 335.5,384.5C 337.903,384.552 340.236,384.219 342.5,383.5 Z"/></g>
<g><path style="opacity:0.015" fill="#fec4ea" d="M 162.5,389.5 C 163.833,389.5 164.5,390.167 164.5,391.5C 163.167,391.5 162.5,390.833 162.5,389.5 Z"/></g>
<g><path style="opacity:0.014" fill="#fed1e7" d="M 164.5,391.5 C 165.833,391.5 166.5,392.167 166.5,393.5C 165.167,393.5 164.5,392.833 164.5,391.5 Z"/></g>
<g><path style="opacity:0.023" fill="#f1bce3" d="M 334.5,391.5 C 334.5,392.833 333.833,393.5 332.5,393.5C 332.5,392.167 333.167,391.5 334.5,391.5 Z"/></g>
<g><path style="opacity:0.012" fill="#fee3e2" d="M 166.5,393.5 C 167.833,393.5 168.5,394.167 168.5,395.5C 167.167,395.5 166.5,394.833 166.5,393.5 Z"/></g>
<g><path style="opacity:0.427" fill="#e97fbf" d="M 332.5,393.5 C 331.833,395.5 330.5,396.833 328.5,397.5C 328.167,397.5 327.833,397.5 327.5,397.5C 327.5,396.167 327.5,394.833 327.5,393.5C 329.167,393.5 330.833,393.5 332.5,393.5 Z"/></g>
<g><path style="opacity:0.013" fill="#fed1e7" d="M 168.5,395.5 C 169.833,395.5 170.5,396.167 170.5,397.5C 169.167,397.5 168.5,396.833 168.5,395.5 Z"/></g>
<g><path style="opacity:0.027" fill="#f7bce0" d="M 170.5,397.5 C 174.167,398.5 176.5,400.833 177.5,404.5C 174.785,402.452 172.452,400.118 170.5,397.5 Z"/></g>
<g><path style="opacity:0.008" fill="#f2b5da" d="M 325.5,397.5 C 326.167,397.5 326.833,397.5 327.5,397.5C 327.833,397.5 328.167,397.5 328.5,397.5C 327.167,400.833 324.833,403.167 321.5,404.5C 322.413,401.922 323.746,399.589 325.5,397.5 Z"/></g>
<g><path style="opacity:0.013" fill="#fed1e7" d="M 321.5,404.5 C 321.5,405.833 320.833,406.5 319.5,406.5C 319.5,405.167 320.167,404.5 321.5,404.5 Z"/></g>
<g><path style="opacity:0.008" fill="#fefffe" d="M 319.5,406.5 C 319.5,407.833 318.833,408.5 317.5,408.5C 317.5,407.167 318.167,406.5 319.5,406.5 Z"/></g>
<g><path style="opacity:0.006" fill="#fefffe" d="M 317.5,408.5 C 317.5,409.833 316.833,410.5 315.5,410.5C 315.5,409.167 316.167,408.5 317.5,408.5 Z"/></g>
<g><path style="opacity:0.92" fill="#d0409b" d="M 325.5,397.5 C 323.746,399.589 322.413,401.922 321.5,404.5C 320.167,404.5 319.5,405.167 319.5,406.5C 318.167,406.5 317.5,407.167 317.5,408.5C 316.167,408.5 315.5,409.167 315.5,410.5C 314.167,410.5 313.5,411.167 313.5,412.5C 304.526,420.805 295.526,429.139 286.5,437.5C 285.5,437.5 284.5,437.5 283.5,437.5C 286.033,434.85 287.699,431.683 288.5,428C 289.672,427.647 290.838,427.813 292,428.5C 293.823,426.491 295.99,425.157 298.5,424.5C 298.993,422.194 299.326,419.861 299.5,417.5C 300.675,417.719 301.675,417.386 302.5,416.5C 301.391,414.786 302.058,414.119 304.5,414.5C 304.679,412.394 305.679,410.728 307.5,409.5C 309.381,407.266 311.715,405.933 314.5,405.5C 314.5,404.5 314.5,403.5 314.5,402.5C 315.873,402.657 317.207,402.49 318.5,402C 319.965,399.129 322.298,397.629 325.5,397.5 Z"/></g>
<g><path style="opacity:0.007" fill="#fefffe" d="M 315.5,410.5 C 315.167,411.5 314.5,412.167 313.5,412.5C 313.5,411.167 314.167,410.5 315.5,410.5 Z"/></g>
<g><path style="opacity:0.027" fill="#df74b6" d="M 191.5,416.5 C 195.833,418.167 198.833,421.167 200.5,425.5C 196.5,423.5 193.5,420.5 191.5,416.5 Z"/></g>
<g><path style="opacity:0.227" fill="#d874b0" d="M 200.5,425.5 C 204.418,425.658 206.418,427.658 206.5,431.5C 203.833,430.167 201.833,428.167 200.5,425.5 Z"/></g>
<g><path style="opacity:0.384" fill="#df85c0" d="M 206.5,431.5 C 211.137,432.137 213.804,434.804 214.5,439.5C 211.167,437.5 208.5,434.833 206.5,431.5 Z"/></g>
<g><path style="opacity:0.063" fill="#d5b5cd" d="M 214.5,439.5 C 216.179,439.285 217.179,439.952 217.5,441.5C 217.5,441.833 217.5,442.167 217.5,442.5C 215.5,442.5 214.5,441.5 214.5,439.5 Z"/></g>
<g><path style="opacity:0.039" fill="#f097ce" d="M 283.5,437.5 C 284.5,437.5 285.5,437.5 286.5,437.5C 284.79,440.509 282.457,442.842 279.5,444.5C 280.413,441.922 281.746,439.589 283.5,437.5 Z"/></g>
<g><path style="opacity:0.021" fill="#f2cce5" d="M 217.5,442.5 C 218.833,442.5 219.5,443.167 219.5,444.5C 219.5,443.167 218.833,442.5 217.5,442.5 Z"/></g>
<g><path style="opacity:0.02" fill="#f0c6e2" d="M 219.5,444.5 C 220.833,444.5 221.5,445.167 221.5,446.5C 221.5,445.167 220.833,444.5 219.5,444.5 Z"/></g>
<g><path style="opacity:0.02" fill="#f0b8e2" d="M 279.5,444.5 C 279.5,445.833 278.833,446.5 277.5,446.5C 277.5,445.167 278.167,444.5 279.5,444.5 Z"/></g>
<g><path style="opacity:0.018" fill="#eecfee" d="M 221.5,446.5 C 222.833,446.5 223.5,447.167 223.5,448.5C 223.5,447.167 222.833,446.5 221.5,446.5 Z"/></g>
<g><path style="opacity:0.017" fill="#ecc8ec" d="M 277.5,446.5 C 277.5,447.833 276.833,448.5 275.5,448.5C 275.5,447.167 276.167,446.5 277.5,446.5 Z"/></g>
<g><path style="opacity:0.015" fill="#ead8ea" d="M 223.5,448.5 C 224.833,448.5 225.5,449.167 225.5,450.5C 225.5,449.167 224.833,448.5 223.5,448.5 Z"/></g>
<g><path style="opacity:0.014" fill="#e9d4e9" d="M 275.5,448.5 C 275.5,449.833 274.833,450.5 273.5,450.5C 273.5,449.167 274.167,448.5 275.5,448.5 Z"/></g>
<g><path style="opacity:0.01" fill="#fedffe" d="M 273.5,450.5 C 273.5,451.833 272.833,452.5 271.5,452.5C 271.5,451.167 272.167,450.5 273.5,450.5 Z"/></g>
<g><path style="opacity:0.005" fill="#fefffe" d="M 229.5,454.5 C 230.833,454.5 231.5,455.167 231.5,456.5C 230.5,456.167 229.833,455.5 229.5,454.5 Z"/></g>
<g><path style="opacity:0.955" fill="#d34aa0" d="M 217.5,442.5 C 217.5,442.167 217.5,441.833 217.5,441.5C 219.308,441.491 220.975,441.991 222.5,443C 224.394,445.896 226.894,448.063 230,449.5C 236.111,446.362 236.944,447.362 232.5,452.5C 235.167,455.5 237.833,458.5 240.5,461.5C 245.256,461.414 249.922,461.748 254.5,462.5C 254.5,463.167 254.5,463.833 254.5,464.5C 249.821,464.666 245.155,464.499 240.5,464C 237.31,461.636 234.31,459.136 231.5,456.5C 231.5,455.167 230.833,454.5 229.5,454.5C 227.833,453.5 226.5,452.167 225.5,450.5C 225.5,449.167 224.833,448.5 223.5,448.5C 223.5,447.167 222.833,446.5 221.5,446.5C 221.5,445.167 220.833,444.5 219.5,444.5C 219.5,443.167 218.833,442.5 217.5,442.5 Z"/></g>
<g><path style="opacity:0.059" fill="#dc8bbf" d="M 261.5,461.5 C 259.824,463.834 257.491,464.834 254.5,464.5C 254.5,463.833 254.5,463.167 254.5,462.5C 256.492,462.672 258.158,462.005 259.5,460.5C 260.183,460.863 260.85,461.196 261.5,461.5 Z"/></g>
</svg>
