<?xml version="1.0" encoding="UTF-8"?>
<!DOCTYPE svg PUBLIC "-//W3C//DTD SVG 1.1//EN" "http://www.w3.org/Graphics/SVG/1.1/DTD/svg11.dtd">
<svg xmlns="http://www.w3.org/2000/svg" version="1.1" width="500px" height="500px" style="shape-rendering:geometricPrecision; text-rendering:geometricPrecision; image-rendering:optimizeQuality; fill-rule:evenodd; clip-rule:evenodd" xmlns:xlink="http://www.w3.org/1999/xlink">
<g><path style="opacity:0.946" fill="#fefffe" d="M 345.5,59.5 C 360.653,57.8191 367.153,64.4857 365,79.5C 364,81.1667 363,82.8333 362,84.5C 345.695,99.8043 329.695,115.471 314,131.5C 307.618,142.402 310.451,149.735 322.5,153.5C 324.942,152.964 327.275,152.131 329.5,151C 347.226,132.605 365.559,114.939 384.5,98C 399.755,96.6465 405.588,103.48 402,118.5C 385.75,135.751 369.084,152.751 352,169.5C 346.044,178.725 347.877,185.892 357.5,191C 360.634,191.79 363.634,191.457 366.5,190C 383.862,172.304 401.528,154.971 419.5,138C 426.31,134.219 432.477,135.052 438,140.5C 438.667,146.833 438.667,153.167 438,159.5C 410.5,188.333 382.333,216.5 353.5,244C 332.833,255.333 312.167,255.333 291.5,244C 279.721,233.554 268.554,222.387 258,210.5C 244.757,188.046 245.423,166.046 260,144.5C 288.287,116.047 316.787,87.7132 345.5,59.5 Z"/></g>
<g><path style="opacity:0.963" fill="#fefefe" d="M 80.5,66.5 C 190.417,174.917 299.917,283.917 409,393.5C 418.427,407.588 417.26,420.755 405.5,433C 393.76,439.982 381.76,440.315 369.5,434C 324.306,388.894 279.306,343.561 234.5,298C 200.793,288.319 171.127,271.652 145.5,248C 127.569,231.073 110.736,213.24 95,194.5C 70.0682,154.191 65.2348,111.525 80.5,66.5 Z"/></g>
<g><path style="opacity:0.954" fill="#fefffe" d="M 171.5,297.5 C 183.792,304.146 196.458,309.979 209.5,315C 211.007,315.837 211.507,317.004 211,318.5C 189.608,349.561 168.608,380.894 148,412.5C 141.167,419.333 134.333,426.167 127.5,433C 116.04,439.897 104.374,440.23 92.5,434C 82.2694,425.438 73.1027,415.938 65,405.5C 60.2458,396.009 60.5791,386.675 66,377.5C 73.8025,368.697 81.9691,360.197 90.5,352C 117.911,334.306 144.911,316.139 171.5,297.5 Z"/></g>
</svg>
