<?xml version="1.0" encoding="UTF-8"?>
<!DOCTYPE svg PUBLIC "-//W3C//DTD SVG 1.1//EN" "http://www.w3.org/Graphics/SVG/1.1/DTD/svg11.dtd">
<svg xmlns="http://www.w3.org/2000/svg" version="1.1" width="1000px" height="1000px" style="shape-rendering:geometricPrecision; text-rendering:geometricPrecision; image-rendering:optimizeQuality; fill-rule:evenodd; clip-rule:evenodd" xmlns:xlink="http://www.w3.org/1999/xlink">
<g><path style="opacity:0.982" fill="#cb218c" d="M 719.5,166.5 C 718.833,166.5 718.5,166.833 718.5,167.5C 717.833,167.5 717.5,167.833 717.5,168.5C 716.833,168.5 716.5,168.833 716.5,169.5C 715.833,169.5 715.5,169.833 715.5,170.5C 714.833,170.5 714.5,170.833 714.5,171.5C 713.833,171.5 713.5,171.833 713.5,172.5C 712.833,172.5 712.5,172.833 712.5,173.5C 711.833,173.5 711.5,173.833 711.5,174.5C 710.833,174.5 710.5,174.833 710.5,175.5C 709.833,175.5 709.5,175.833 709.5,176.5C 708.833,176.5 708.5,176.833 708.5,177.5C 707.833,177.5 707.5,177.833 707.5,178.5C 706.833,178.5 706.5,178.833 706.5,179.5C 705.833,179.5 705.5,179.833 705.5,180.5C 704.833,180.5 704.5,180.833 704.5,181.5C 703.833,181.5 703.5,181.833 703.5,182.5C 702.833,182.5 702.5,182.833 702.5,183.5C 701.833,183.5 701.5,183.833 701.5,184.5C 700.833,184.5 700.5,184.833 700.5,185.5C 699.833,185.5 699.5,185.833 699.5,186.5C 698.833,186.5 698.5,186.833 698.5,187.5C 697.833,187.5 697.5,187.833 697.5,188.5C 696.833,188.5 696.5,188.833 696.5,189.5C 695.833,189.5 695.5,189.833 695.5,190.5C 694.833,190.5 694.5,190.833 694.5,191.5C 693.833,191.5 693.5,191.833 693.5,192.5C 692.833,192.5 692.5,192.833 692.5,193.5C 691.833,193.5 691.5,193.833 691.5,194.5C 690.833,194.5 690.5,194.833 690.5,195.5C 689.833,195.5 689.5,195.833 689.5,196.5C 688.833,196.5 688.5,196.833 688.5,197.5C 687.833,197.5 687.5,197.833 687.5,198.5C 686.833,198.5 686.5,198.833 686.5,199.5C 685.833,199.5 685.5,199.833 685.5,200.5C 662.142,222.691 639.642,245.691 618,269.5C 612.36,287.721 618.527,299.887 636.5,306C 645.103,307.464 652.77,305.464 659.5,300C 692.5,267 725.5,234 758.5,201C 773.067,193.262 785.9,195.429 797,207.5C 803.491,219.623 802.824,231.29 795,242.5C 762,275.5 729,308.5 696,341.5C 687.435,358.75 691.602,371.917 708.5,381C 716.947,383.555 724.947,382.555 732.5,378C 765.833,344.667 799.167,311.333 832.5,278C 843.516,271.233 854.849,270.733 866.5,276.5C 868.167,278.833 870.167,280.833 872.5,282.5C 872.932,283.71 873.599,284.71 874.5,285.5C 879.902,298.315 878.069,309.982 869,320.5C 818.833,370.667 768.667,420.833 718.5,471C 680.17,505.497 637.504,511.831 590.5,490C 585.833,487 581.167,484 576.5,481C 558.695,464.196 541.195,447.029 524,429.5C 494.074,392.681 488.407,352.347 507,308.5C 511.549,299.956 516.882,291.956 523,284.5C 575.833,231.667 628.667,178.833 681.5,126C 696.162,117.201 709.328,119.035 721,131.5C 728.281,143.495 727.781,155.162 719.5,166.5 Z"/></g>
<g><path style="opacity:0.992" fill="#cb218c" d="M 819.5,841.5 C 818.662,841.842 818.328,842.508 818.5,843.5C 817.11,844.899 816.11,846.566 815.5,848.5C 814.026,849.436 813.026,850.77 812.5,852.5C 809.736,855.719 806.736,858.719 803.5,861.5C 801.205,862.475 799.205,863.808 797.5,865.5C 776.837,875.734 756.837,874.567 737.5,862C 647.554,772.054 557.554,682.054 467.5,592C 448.301,585.078 430.801,578.911 415,573.5C 411.815,570.687 408.815,569.354 406,569.5C 402.533,567.204 398.533,564.871 394,562.5C 361.1,546.868 328.6,525.034 296.5,497C 267.946,468.446 239.446,439.946 211,411.5C 152.805,342.056 132.805,262.722 151,173.5C 154.201,161.03 157.868,148.696 162,136.5C 162.718,135.549 163.551,135.383 164.5,136C 380.333,351.833 596.167,567.667 812,783.5C 825.258,801.391 827.758,820.724 819.5,841.5 Z"/></g>
<g><path style="opacity:0.004" fill="#ca228a" d="M 719.5,166.5 C 720.833,167.167 720.833,167.167 719.5,166.5 Z"/></g>
<g><path style="opacity:0.004" fill="#c9218b" d="M 718.5,167.5 C 718.833,167.5 719.167,167.5 719.5,167.5C 719.315,168.17 718.981,168.17 718.5,167.5 Z"/></g>
<g><path style="opacity:0.004" fill="#c9218b" d="M 717.5,168.5 C 717.833,168.5 718.167,168.5 718.5,168.5C 718.315,169.17 717.981,169.17 717.5,168.5 Z"/></g>
<g><path style="opacity:0.004" fill="#c9218b" d="M 716.5,169.5 C 716.833,169.5 717.167,169.5 717.5,169.5C 717.315,170.17 716.981,170.17 716.5,169.5 Z"/></g>
<g><path style="opacity:0.004" fill="#c9218b" d="M 715.5,170.5 C 715.833,170.5 716.167,170.5 716.5,170.5C 716.315,171.17 715.981,171.17 715.5,170.5 Z"/></g>
<g><path style="opacity:0.004" fill="#c9218b" d="M 714.5,171.5 C 714.833,171.5 715.167,171.5 715.5,171.5C 715.315,172.17 714.981,172.17 714.5,171.5 Z"/></g>
<g><path style="opacity:0.004" fill="#c9218b" d="M 713.5,172.5 C 713.833,172.5 714.167,172.5 714.5,172.5C 714.315,173.17 713.981,173.17 713.5,172.5 Z"/></g>
<g><path style="opacity:0.004" fill="#c9218b" d="M 712.5,173.5 C 712.833,173.5 713.167,173.5 713.5,173.5C 713.315,174.17 712.981,174.17 712.5,173.5 Z"/></g>
<g><path style="opacity:0.004" fill="#c9218b" d="M 711.5,174.5 C 711.833,174.5 712.167,174.5 712.5,174.5C 712.315,175.17 711.981,175.17 711.5,174.5 Z"/></g>
<g><path style="opacity:0.004" fill="#c9218b" d="M 710.5,175.5 C 710.833,175.5 711.167,175.5 711.5,175.5C 711.315,176.17 710.981,176.17 710.5,175.5 Z"/></g>
<g><path style="opacity:0.004" fill="#c9218b" d="M 709.5,176.5 C 709.833,176.5 710.167,176.5 710.5,176.5C 710.315,177.17 709.981,177.17 709.5,176.5 Z"/></g>
<g><path style="opacity:0.004" fill="#c9218b" d="M 708.5,177.5 C 708.833,177.5 709.167,177.5 709.5,177.5C 709.315,178.17 708.981,178.17 708.5,177.5 Z"/></g>
<g><path style="opacity:0.004" fill="#c9218b" d="M 707.5,178.5 C 707.833,178.5 708.167,178.5 708.5,178.5C 708.315,179.17 707.981,179.17 707.5,178.5 Z"/></g>
<g><path style="opacity:0.004" fill="#c9218b" d="M 706.5,179.5 C 706.833,179.5 707.167,179.5 707.5,179.5C 707.315,180.17 706.981,180.17 706.5,179.5 Z"/></g>
<g><path style="opacity:0.004" fill="#c9218b" d="M 705.5,180.5 C 705.833,180.5 706.167,180.5 706.5,180.5C 706.315,181.17 705.981,181.17 705.5,180.5 Z"/></g>
<g><path style="opacity:0.004" fill="#c9218b" d="M 704.5,181.5 C 704.833,181.5 705.167,181.5 705.5,181.5C 705.315,182.17 704.981,182.17 704.5,181.5 Z"/></g>
<g><path style="opacity:0.004" fill="#c9218b" d="M 703.5,182.5 C 703.833,182.5 704.167,182.5 704.5,182.5C 704.315,183.17 703.981,183.17 703.5,182.5 Z"/></g>
<g><path style="opacity:0.004" fill="#c9218b" d="M 702.5,183.5 C 702.833,183.5 703.167,183.5 703.5,183.5C 703.315,184.17 702.981,184.17 702.5,183.5 Z"/></g>
<g><path style="opacity:0.004" fill="#c9218b" d="M 701.5,184.5 C 701.833,184.5 702.167,184.5 702.5,184.5C 702.315,185.17 701.981,185.17 701.5,184.5 Z"/></g>
<g><path style="opacity:0.004" fill="#c9218b" d="M 700.5,185.5 C 700.833,185.5 701.167,185.5 701.5,185.5C 701.315,186.17 700.981,186.17 700.5,185.5 Z"/></g>
<g><path style="opacity:0.004" fill="#c9218b" d="M 699.5,186.5 C 699.833,186.5 700.167,186.5 700.5,186.5C 700.315,187.17 699.981,187.17 699.5,186.5 Z"/></g>
<g><path style="opacity:0.004" fill="#c9218b" d="M 698.5,187.5 C 698.833,187.5 699.167,187.5 699.5,187.5C 699.315,188.17 698.981,188.17 698.5,187.5 Z"/></g>
<g><path style="opacity:0.004" fill="#c9218b" d="M 697.5,188.5 C 697.833,188.5 698.167,188.5 698.5,188.5C 698.315,189.17 697.981,189.17 697.5,188.5 Z"/></g>
<g><path style="opacity:0.004" fill="#c9218b" d="M 696.5,189.5 C 696.833,189.5 697.167,189.5 697.5,189.5C 697.315,190.17 696.981,190.17 696.5,189.5 Z"/></g>
<g><path style="opacity:0.004" fill="#c9218b" d="M 695.5,190.5 C 695.833,190.5 696.167,190.5 696.5,190.5C 696.315,191.17 695.981,191.17 695.5,190.5 Z"/></g>
<g><path style="opacity:0.004" fill="#c9218b" d="M 694.5,191.5 C 694.833,191.5 695.167,191.5 695.5,191.5C 695.315,192.17 694.981,192.17 694.5,191.5 Z"/></g>
<g><path style="opacity:0.004" fill="#c9218b" d="M 693.5,192.5 C 693.833,192.5 694.167,192.5 694.5,192.5C 694.315,193.17 693.981,193.17 693.5,192.5 Z"/></g>
<g><path style="opacity:0.004" fill="#c9218b" d="M 692.5,193.5 C 692.833,193.5 693.167,193.5 693.5,193.5C 693.315,194.17 692.981,194.17 692.5,193.5 Z"/></g>
<g><path style="opacity:0.004" fill="#c9218b" d="M 691.5,194.5 C 691.833,194.5 692.167,194.5 692.5,194.5C 692.315,195.17 691.981,195.17 691.5,194.5 Z"/></g>
<g><path style="opacity:0.004" fill="#c9218b" d="M 690.5,195.5 C 690.833,195.5 691.167,195.5 691.5,195.5C 691.315,196.17 690.981,196.17 690.5,195.5 Z"/></g>
<g><path style="opacity:0.004" fill="#c9218b" d="M 689.5,196.5 C 689.833,196.5 690.167,196.5 690.5,196.5C 690.315,197.17 689.981,197.17 689.5,196.5 Z"/></g>
<g><path style="opacity:0.004" fill="#c9218b" d="M 688.5,197.5 C 688.833,197.5 689.167,197.5 689.5,197.5C 689.315,198.17 688.981,198.17 688.5,197.5 Z"/></g>
<g><path style="opacity:0.004" fill="#c9218b" d="M 687.5,198.5 C 687.833,198.5 688.167,198.5 688.5,198.5C 688.315,199.17 687.981,199.17 687.5,198.5 Z"/></g>
<g><path style="opacity:0.004" fill="#c9218b" d="M 686.5,199.5 C 686.833,199.5 687.167,199.5 687.5,199.5C 687.315,200.17 686.981,200.17 686.5,199.5 Z"/></g>
<g><path style="opacity:0.004" fill="#c9218b" d="M 685.5,200.5 C 685.833,200.5 686.167,200.5 686.5,200.5C 686.315,201.17 685.981,201.17 685.5,200.5 Z"/></g>
<g><path style="opacity:0.004" fill="#cc238c" d="M 866.5,275.5 C 867.833,276.167 867.833,276.167 866.5,275.5 Z"/></g>
<g><path style="opacity:0.004" fill="#cb228b" d="M 872.5,281.5 C 873.833,282.167 873.833,282.167 872.5,281.5 Z"/></g>
<g><path style="opacity:0.004" fill="#ca228a" d="M 874.5,284.5 C 875.833,285.167 875.833,285.167 874.5,284.5 Z"/></g>
<g><path style="opacity:0.987" fill="#cb218c" d="M 342.5,594.5 C 367.398,607.414 392.898,619.08 419,629.5C 419.667,630.5 419.667,631.5 419,632.5C 377.667,694.5 336.333,756.5 295,818.5C 279.773,834.396 263.94,849.562 247.5,864C 223.192,877.159 200.525,874.825 179.5,857C 163.604,841.773 148.438,825.94 134,809.5C 121.951,787.855 122.951,766.855 137,746.5C 151.833,731.667 166.667,716.833 181.5,702C 235.576,666.639 289.243,630.806 342.5,594.5 Z"/></g>
<g><path style="opacity:0.004" fill="#cc238c" d="M 819.5,841.5 C 820.833,842.167 820.833,842.167 819.5,841.5 Z"/></g>
<g><path style="opacity:0.004" fill="#cc238c" d="M 818.5,843.5 C 819.833,844.167 819.833,844.167 818.5,843.5 Z"/></g>
<g><path style="opacity:0.004" fill="#ca228a" d="M 815.5,848.5 C 816.833,849.167 816.833,849.167 815.5,848.5 Z"/></g>
<g><path style="opacity:0.004" fill="#cb228b" d="M 812.5,852.5 C 813.833,853.167 813.833,853.167 812.5,852.5 Z"/></g>
<g><path style="opacity:0.004" fill="#ca228c" d="M 803.5,861.5 C 804.833,862.167 804.833,862.167 803.5,861.5 Z"/></g>
<g><path style="opacity:0.004" fill="#ca228c" d="M 797.5,865.5 C 798.833,866.167 798.833,866.167 797.5,865.5 Z"/></g>
</svg>
