<?xml version="1.0" encoding="utf-8"?>
<svg version="1.1" xmlns:xlink="http://www.w3.org/1999/xlink" width="19px" height="19px" xmlns="http://www.w3.org/2000/svg">
  <g transform="matrix(1 0 0 1 -82 -180 )">
    <path d="M 18.360576923076923 6.812224322621298  C 18.786858974358974 6.884057971014494  19 7.067632850241545  19 7.362948960302458  C 19 7.538542323041377  18.901041666666668 7.730098718756562  18.703125 7.937618147448015  L 14.55829326923077 12.175803402646503  L 15.540264423076923 18.16194076874606  C 15.547876602564104 18.217811384162992  15.551682692307693 18.297626549044317  15.551682692307693 18.401386263390044  C 15.551682692307693 18.56899810964083  15.51171875 18.710670027305188  15.431790865384617 18.826402016383113  C 15.35186298076923 18.94213400546104  15.235777243589745 19  15.083533653846153 19  C 14.938902243589745 19  14.786658653846153 18.952110901071205  14.626802884615383 18.85633270321361  L 9.5 16.03087586641462  L 4.373197115384615 18.85633270321361  C 4.205729166666667 18.952110901071205  4.053485576923077 19  3.916466346153846 19  C 3.7566105769230766 19  3.63671875 18.94213400546104  3.556790865384615 18.826402016383113  C 3.476862980769231 18.710670027305188  3.4368990384615383 18.56899810964083  3.4368990384615383 18.401386263390044  C 3.4368990384615383 18.35349716446125  3.4445112179487185 18.27368199957992  3.4597355769230766 18.16194076874606  L 4.441706730769231 12.175803402646503  L 0.2854567307692308 7.937618147448015  C 0.09515224358974358 7.722117202268431  0 7.530560806553246  0 7.362948960302458  C 0 7.067632850241545  0.2131410256410256 6.884057971014494  0.6394230769230769 6.812224322621298  L 6.37139423076923 5.938248267170762  L 8.940504807692308 0.4908632640201629  C 9.085136217948719 0.16362108800672026  9.271634615384615 0  9.5 0  C 9.728365384615383 0  9.914863782051283 0.16362108800672026  10.059495192307693 0.4908632640201629  L 12.62860576923077 5.938248267170762  L 18.360576923076923 6.812224322621298  Z " fill-rule="nonzero" fill="#333333" stroke="none" transform="matrix(1 0 0 1 82 180 )" />
  </g>
</svg>