<?xml version="1.0" encoding="UTF-8"?>
<!DOCTYPE svg PUBLIC "-//W3C//DTD SVG 1.1//EN" "http://www.w3.org/Graphics/SVG/1.1/DTD/svg11.dtd">
<svg xmlns="http://www.w3.org/2000/svg" version="1.1" width="560px" height="1211px" style="shape-rendering:geometricPrecision; text-rendering:geometricPrecision; image-rendering:optimizeQuality; fill-rule:evenodd; clip-rule:evenodd" xmlns:xlink="http://www.w3.org/1999/xlink">
<g><path style="opacity:0.144" fill="#fea361" d="M 273.5,-0.5 C 274.167,-0.5 274.833,-0.5 275.5,-0.5C 277.648,10.0416 278.815,20.7083 279,31.5C 273.859,36.3296 267.692,38.8296 260.5,39C 256.833,39.6667 253.167,39.6667 249.5,39C 246.542,38.7707 244.042,37.604 242,35.5C 240.257,25.2241 239.09,14.8908 238.5,4.5C 242.877,5.40148 247.211,6.73482 251.5,8.5C 256.173,7.7133 260.84,6.87997 265.5,6C 268.053,3.57476 270.72,1.40809 273.5,-0.5 Z"/></g>
<g><path style="opacity:0.144" fill="#fea361" d="M 133.5,-0.5 C 134.167,-0.5 134.833,-0.5 135.5,-0.5C 137.648,10.0416 138.815,20.7083 139,31.5C 133.859,36.3296 127.692,38.8296 120.5,39C 116.833,39.6667 113.167,39.6667 109.5,39C 106.542,38.7707 104.042,37.604 102,35.5C 100.41,25.2053 99.2433,14.8719 98.5,4.5C 103.002,5.49722 107.502,6.83055 112,8.5C 116.519,7.7891 121.019,6.95576 125.5,6C 128.053,3.57476 130.72,1.40809 133.5,-0.5 Z"/></g>
<g><path style="opacity:0.144" fill="#fea361" d="M 413.5,-0.5 C 414.167,-0.5 414.833,-0.5 415.5,-0.5C 417.487,10.0613 418.653,20.7279 419,31.5C 417.457,33.3783 415.624,34.8783 413.5,36C 405.428,38.8022 397.428,39.8022 389.5,39C 386.542,38.7707 384.042,37.604 382,35.5C 380.257,25.2241 379.09,14.8908 378.5,4.5C 382.877,5.40148 387.211,6.73482 391.5,8.5C 396.173,7.7133 400.84,6.87997 405.5,6C 408.053,3.57476 410.72,1.40809 413.5,-0.5 Z"/></g>
<g><path style="opacity:0.144" fill="#fea361" d="M 553.5,-0.5 C 554.167,-0.5 554.833,-0.5 555.5,-0.5C 556.76,7.93983 558.093,16.2732 559.5,24.5C 559.5,26.8333 559.5,29.1667 559.5,31.5C 554.075,36.093 547.742,38.7597 540.5,39.5C 537.003,39.4724 533.336,39.3057 529.5,39C 526.542,38.7707 524.042,37.604 522,35.5C 520.7,25.5901 519.2,15.7568 517.5,6C 518.43,5.0093 519.596,4.5093 521,4.5C 532.902,9.96617 543.735,8.2995 553.5,-0.5 Z"/></g>
<g><path style="opacity:0.144" fill="#fea361" d="M 64.5,20.5 C 65.7479,21.3339 66.4146,22.6672 66.5,24.5C 67.8743,34.6612 69.2077,44.8279 70.5,55C 70.1667,56.1667 69.8333,57.3333 69.5,58.5C 61.4766,62.9551 52.8099,65.2884 43.5,65.5C 40.0689,64.9851 36.7356,64.1518 33.5,63C 31.3367,50.6943 29.3367,38.361 27.5,26C 32.0165,26.6117 36.3498,28.1117 40.5,30.5C 45.4449,29.4361 50.4449,28.6027 55.5,28C 58.9405,25.9579 61.9405,23.4579 64.5,20.5 Z"/></g>
<g><path style="opacity:0.144" fill="#fea361" d="M 203.5,20.5 C 204.496,20.4142 205.329,20.7476 206,21.5C 207.746,31.7919 208.746,42.1253 209,52.5C 204.152,57.1218 198.319,59.6218 191.5,60C 187.5,60.6667 183.5,60.6667 179.5,60C 176.542,59.7707 174.042,58.604 172,56.5C 170.421,46.2057 169.255,35.8723 168.5,25.5C 173.002,26.4972 177.502,27.8306 182,29.5C 186.519,28.7891 191.019,27.9558 195.5,27C 198.053,24.5748 200.72,22.4081 203.5,20.5 Z"/></g>
<g><path style="opacity:0.144" fill="#fea361" d="M 343.5,20.5 C 344.496,20.4142 345.329,20.7476 346,21.5C 347.746,31.7919 348.746,42.1253 349,52.5C 344.152,57.1218 338.319,59.6218 331.5,60C 327.5,60.6667 323.5,60.6667 319.5,60C 316.542,59.7707 314.042,58.604 312,56.5C 310.421,46.2057 309.255,35.8723 308.5,25.5C 312.877,26.4015 317.211,27.7348 321.5,29.5C 326.196,28.8296 330.863,27.9963 335.5,27C 338.053,24.5748 340.72,22.4081 343.5,20.5 Z"/></g>
<g><path style="opacity:0.144" fill="#fea361" d="M 483.5,20.5 C 484.496,20.4142 485.329,20.7476 486,21.5C 487.746,31.7919 488.746,42.1253 489,52.5C 484.152,57.1218 478.319,59.6218 471.5,60C 467.5,60.6667 463.5,60.6667 459.5,60C 456.542,59.7707 454.042,58.604 452,56.5C 450.41,46.2053 449.243,35.8719 448.5,25.5C 452.877,26.4015 457.211,27.7348 461.5,29.5C 466.196,28.8296 470.863,27.9963 475.5,27C 478.053,24.5748 480.72,22.4081 483.5,20.5 Z"/></g>
<g><path style="opacity:0.144" fill="#fea361" d="M 132.5,75.5 C 133.822,75.33 134.989,75.6634 136,76.5C 137.757,86.7913 138.757,97.1246 139,107.5C 136.079,109.712 132.912,111.545 129.5,113C 123.93,113.691 118.43,114.524 113,115.5C 110.198,114.67 107.365,113.837 104.5,113C 103.333,112.5 102.5,111.667 102,110.5C 100.257,100.224 99.0904,89.8908 98.5,79.5C 103.135,80.5469 107.635,81.8802 112,83.5C 120.295,84.2211 127.129,81.5544 132.5,75.5 Z"/></g>
<g><path style="opacity:0.144" fill="#fea361" d="M 272.5,75.5 C 273.822,75.33 274.989,75.6634 276,76.5C 277.746,86.7919 278.746,97.1253 279,107.5C 276.079,109.712 272.912,111.545 269.5,113C 263.93,113.691 258.43,114.524 253,115.5C 250.198,114.67 247.365,113.837 244.5,113C 243.333,112.5 242.5,111.667 242,110.5C 240.257,100.225 239.091,89.8917 238.5,79.5C 243.135,80.5469 247.635,81.8802 252,83.5C 260.295,84.2211 267.129,81.5544 272.5,75.5 Z"/></g>
<g><path style="opacity:0.144" fill="#fea361" d="M 412.5,75.5 C 413.822,75.33 414.989,75.6634 416,76.5C 417.746,86.7919 418.746,97.1253 419,107.5C 416.079,109.712 412.912,111.545 409.5,113C 403.93,113.691 398.43,114.524 393,115.5C 390.198,114.67 387.365,113.837 384.5,113C 383.333,112.5 382.5,111.667 382,110.5C 380.257,100.225 379.091,89.8917 378.5,79.5C 383.135,80.5469 387.635,81.8802 392,83.5C 400.295,84.2211 407.129,81.5544 412.5,75.5 Z"/></g>
<g><path style="opacity:0.144" fill="#fea361" d="M 559.5,99.5 C 559.5,102.167 559.5,104.833 559.5,107.5C 551.477,112.677 542.644,115.344 533,115.5C 529.405,114.711 525.905,113.544 522.5,112C 520.392,101.301 519.059,90.4681 518.5,79.5C 523.135,80.5469 527.635,81.8802 532,83.5C 535.828,82.959 539.661,82.459 543.5,82C 546.362,81.0695 548.695,79.4029 550.5,77C 552.044,75.8129 553.711,75.4795 555.5,76C 556.882,83.9233 558.215,91.7566 559.5,99.5 Z"/></g>
<g><path style="opacity:0.144" fill="#fea361" d="M 63.5,95.5 C 65.4534,96.2439 66.4534,97.7439 66.5,100C 68.2852,109.441 69.1185,118.941 69,128.5C 64.0592,132.037 58.5592,134.203 52.5,135C 47.4652,135.384 42.6318,135.551 38,135.5C 35.828,134.415 33.828,133.081 32,131.5C 30.4215,121.206 29.2548,110.872 28.5,100.5C 33.084,101.528 37.584,102.861 42,104.5C 50.7301,104.878 57.8968,101.878 63.5,95.5 Z"/></g>
<g><path style="opacity:0.144" fill="#fea361" d="M 203.5,95.5 C 205.453,96.2439 206.453,97.7439 206.5,100C 208.292,109.48 208.959,118.98 208.5,128.5C 203.809,132.122 198.476,134.289 192.5,135C 187.465,135.384 182.632,135.551 178,135.5C 175.828,134.415 173.828,133.081 172,131.5C 170.41,121.205 169.243,110.872 168.5,100.5C 173.084,101.528 177.584,102.861 182,104.5C 190.73,104.878 197.897,101.878 203.5,95.5 Z"/></g>
<g><path style="opacity:0.144" fill="#fea361" d="M 343.5,95.5 C 345.511,96.4166 346.511,98.0832 346.5,100.5C 347.623,108.318 348.623,116.151 349.5,124C 349.194,127.849 347.194,130.516 343.5,132C 335.047,134.998 326.547,136.164 318,135.5C 315.828,134.415 313.828,133.081 312,131.5C 310.41,121.205 309.243,110.872 308.5,100.5C 313.084,101.528 317.584,102.861 322,104.5C 330.73,104.878 337.897,101.878 343.5,95.5 Z"/></g>
<g><path style="opacity:0.144" fill="#fea361" d="M 483.5,95.5 C 485.511,96.4166 486.511,98.0832 486.5,100.5C 487.623,108.318 488.623,116.151 489.5,124C 489.194,127.849 487.194,130.516 483.5,132C 475.047,134.998 466.547,136.164 458,135.5C 455.828,134.415 453.828,133.081 452,131.5C 450.257,121.224 449.09,110.891 448.5,100.5C 453.084,101.528 457.584,102.861 462,104.5C 470.73,104.878 477.897,101.878 483.5,95.5 Z"/></g>
<g><path style="opacity:0.144" fill="#fea361" d="M 132.5,150.5 C 133.822,150.33 134.989,150.663 136,151.5C 137.757,161.791 138.757,172.125 139,182.5C 136.331,185.164 133.164,186.998 129.5,188C 124.319,188.793 119.152,189.627 114,190.5C 109.944,190.02 106.111,188.853 102.5,187C 100.308,176.63 99.1414,166.13 99,155.5C 99.414,155.043 99.914,154.709 100.5,154.5C 108.09,158.88 116.09,159.713 124.5,157C 127.355,154.969 130.022,152.803 132.5,150.5 Z"/></g>
<g><path style="opacity:0.144" fill="#fea361" d="M 272.5,150.5 C 273.822,150.33 274.989,150.663 276,151.5C 277.746,161.792 278.746,172.125 279,182.5C 276.331,185.164 273.164,186.998 269.5,188C 264.319,188.793 259.152,189.627 254,190.5C 249.944,190.02 246.111,188.853 242.5,187C 240.308,176.63 239.141,166.13 239,155.5C 239.414,155.043 239.914,154.709 240.5,154.5C 248.09,158.88 256.09,159.713 264.5,157C 267.355,154.969 270.022,152.803 272.5,150.5 Z"/></g>
<g><path style="opacity:0.144" fill="#fea361" d="M 412.5,150.5 C 413.822,150.33 414.989,150.663 416,151.5C 417.746,161.792 418.746,172.125 419,182.5C 416.331,185.164 413.164,186.998 409.5,188C 404.142,188.798 398.808,189.632 393.5,190.5C 389.63,189.966 385.963,188.8 382.5,187C 380.305,176.63 379.138,166.13 379,155.5C 379.414,155.043 379.914,154.709 380.5,154.5C 388.09,158.88 396.09,159.713 404.5,157C 407.355,154.969 410.022,152.803 412.5,150.5 Z"/></g>
<g><path style="opacity:0.145" fill="#fea361" d="M 559.5,175.5 C 559.5,177.833 559.5,180.167 559.5,182.5C 556.545,184.94 553.211,186.773 549.5,188C 544.142,188.798 538.808,189.632 533.5,190.5C 529.63,189.966 525.963,188.8 522.5,187C 520.833,176.667 519.167,166.333 517.5,156C 518.5,155.5 519.5,155 520.5,154.5C 528.09,158.88 536.09,159.713 544.5,157C 546.792,155.71 548.792,154.043 550.5,152C 552.044,150.813 553.711,150.48 555.5,151C 556.892,159.256 558.225,167.423 559.5,175.5 Z"/></g>
<g><path style="opacity:0.144" fill="#fea361" d="M 62.5,171.5 C 63.8333,171.5 65.1667,171.5 66.5,171.5C 67.8321,182.149 68.6654,192.815 69,203.5C 66.3741,206.231 63.2074,208.064 59.5,209C 54.3189,209.793 49.1523,210.627 44,211.5C 40.7999,210.793 37.6332,209.96 34.5,209C 33.3333,208.5 32.5,207.667 32,206.5C 30.3366,196.533 29.3366,186.533 29,176.5C 29.414,176.043 29.914,175.709 30.5,175.5C 38.0895,179.88 46.0895,180.713 54.5,178C 57.3553,175.969 60.022,173.803 62.5,171.5 Z"/></g>
<g><path style="opacity:0.144" fill="#fea361" d="M 202.5,171.5 C 203.822,171.33 204.989,171.663 206,172.5C 207.757,182.791 208.757,193.125 209,203.5C 206.374,206.231 203.207,208.064 199.5,209C 194.319,209.793 189.152,210.627 184,211.5C 180.406,210.815 176.906,209.815 173.5,208.5C 171.889,205.78 171.056,202.78 171,199.5C 169.669,191.862 169.002,184.195 169,176.5C 169.414,176.043 169.914,175.709 170.5,175.5C 178.09,179.88 186.09,180.713 194.5,178C 197.355,175.969 200.022,173.803 202.5,171.5 Z"/></g>
<g><path style="opacity:0.144" fill="#fea361" d="M 482.5,171.5 C 483.822,171.33 484.989,171.663 486,172.5C 487.746,182.792 488.746,193.125 489,203.5C 486.374,206.231 483.207,208.064 479.5,209C 474.319,209.793 469.152,210.627 464,211.5C 459.944,211.02 456.111,209.853 452.5,208C 450.308,197.63 449.141,187.13 449,176.5C 449.414,176.043 449.914,175.709 450.5,175.5C 458.09,179.88 466.09,180.713 474.5,178C 477.355,175.969 480.022,173.803 482.5,171.5 Z"/></g>
<g><path style="opacity:0.144" fill="#fea361" d="M 342.5,171.5 C 343.822,171.33 344.989,171.663 346,172.5C 347.757,182.791 348.757,193.125 349,203.5C 346.374,206.231 343.207,208.064 339.5,209C 330.262,211.964 321.262,211.631 312.5,208C 310.308,197.63 309.141,187.13 309,176.5C 309.414,176.043 309.914,175.709 310.5,175.5C 318.09,179.88 326.09,180.713 334.5,178C 337.355,175.969 340.022,173.803 342.5,171.5 Z"/></g>
<g><path style="opacity:0.144" fill="#fea361" d="M 132.5,225.5 C 133.822,225.33 134.989,225.663 136,226.5C 137.746,236.792 138.746,247.125 139,257.5C 135.457,261.574 130.957,263.741 125.5,264C 117.802,266.09 110.468,265.757 103.5,263C 101.845,260.493 101.011,257.659 101,254.5C 99.669,246.528 99.0023,238.528 99,230.5C 99.3333,230.167 99.6667,229.833 100,229.5C 103.76,231.296 107.593,232.962 111.5,234.5C 119.973,234.567 126.973,231.567 132.5,225.5 Z"/></g>
<g><path style="opacity:0.144" fill="#fea361" d="M 272.5,225.5 C 273.822,225.33 274.989,225.663 276,226.5C 277.746,236.792 278.746,247.125 279,257.5C 275.457,261.574 270.957,263.741 265.5,264C 257.802,266.09 250.468,265.757 243.5,263C 241.845,260.493 241.011,257.659 241,254.5C 239.575,246.537 238.909,238.537 239,230.5C 239.333,230.167 239.667,229.833 240,229.5C 243.76,231.296 247.593,232.962 251.5,234.5C 259.973,234.567 266.973,231.567 272.5,225.5 Z"/></g>
<g><path style="opacity:0.145" fill="#fea361" d="M 412.5,225.5 C 413.822,225.33 414.989,225.663 416,226.5C 417.581,236.811 418.581,247.144 419,257.5C 415.285,261.189 410.785,263.355 405.5,264C 397.802,266.09 390.468,265.757 383.5,263C 381.845,260.493 381.011,257.659 381,254.5C 379.575,246.537 378.909,238.537 379,230.5C 379.333,230.167 379.667,229.833 380,229.5C 383.667,231.167 387.333,232.833 391,234.5C 395.448,233.629 399.948,232.796 404.5,232C 407.355,229.969 410.022,227.803 412.5,225.5 Z"/></g>
<g><path style="opacity:0.144" fill="#fea361" d="M 559.5,249.5 C 559.5,252.167 559.5,254.833 559.5,257.5C 555.577,261.094 550.911,263.26 545.5,264C 537.802,266.09 530.468,265.757 523.5,263C 523,262.5 522.5,262 522,261.5C 520.646,252.691 519.48,243.858 518.5,235C 518.423,232.949 518.923,231.116 520,229.5C 523.667,231.167 527.333,232.833 531,234.5C 539.345,234.506 546.511,231.673 552.5,226C 553.5,225.333 554.5,225.333 555.5,226C 556.718,233.948 558.052,241.781 559.5,249.5 Z"/></g>
<g><path style="opacity:0.144" fill="#fea361" d="M 202.5,246.5 C 203.822,246.33 204.989,246.663 206,247.5C 207.757,257.791 208.757,268.125 209,278.5C 205.457,282.574 200.957,284.741 195.5,285C 188.004,287.195 180.671,286.861 173.5,284C 173,283.5 172.5,283 172,282.5C 170.254,272.208 169.254,261.875 169,251.5C 169.333,251.167 169.667,250.833 170,250.5C 173.76,252.296 177.593,253.962 181.5,255.5C 189.973,255.567 196.973,252.567 202.5,246.5 Z"/></g>
<g><path style="opacity:0.144" fill="#fea361" d="M 482.5,246.5 C 483.822,246.33 484.989,246.663 486,247.5C 487.746,257.792 488.746,268.125 489,278.5C 485.457,282.574 480.957,284.741 475.5,285C 468.004,287.195 460.671,286.861 453.5,284C 451.845,281.493 451.011,278.659 451,275.5C 449.669,267.528 449.002,259.528 449,251.5C 449.333,251.167 449.667,250.833 450,250.5C 453.76,252.296 457.593,253.962 461.5,255.5C 469.973,255.567 476.973,252.567 482.5,246.5 Z"/></g>
<g><path style="opacity:0.144" fill="#fea361" d="M 63.5,246.5 C 64.4959,246.414 65.3292,246.748 66,247.5C 67.9099,257.773 68.9099,268.106 69,278.5C 65.4974,282.566 60.9974,284.732 55.5,285C 47.7321,287.504 40.2321,287.004 33,283.5C 30.684,272.976 29.184,262.309 28.5,251.5C 33.0719,251.947 37.4053,253.28 41.5,255.5C 46.1499,254.668 50.8166,253.835 55.5,253C 58.0534,250.575 60.7201,248.408 63.5,246.5 Z"/></g>
<g><path style="opacity:0.145" fill="#fea361" d="M 342.5,246.5 C 343.822,246.33 344.989,246.663 346,247.5C 347.746,257.792 348.746,268.125 349,278.5C 345.457,282.574 340.957,284.741 335.5,285C 328.004,287.195 320.671,286.861 313.5,284C 311.845,281.493 311.011,278.659 311,275.5C 309.669,267.528 309.002,259.528 309,251.5C 309.333,251.167 309.667,250.833 310,250.5C 313.76,252.296 317.593,253.962 321.5,255.5C 329.973,255.567 336.973,252.567 342.5,246.5 Z"/></g>
<g><path style="opacity:0.144" fill="#fea361" d="M 133.5,300.5 C 134.458,300.953 135.292,301.619 136,302.5C 137.354,311.309 138.52,320.142 139.5,329C 139.194,332.849 137.194,335.516 133.5,337C 125.047,339.998 116.547,341.164 108,340.5C 105.828,339.415 103.828,338.081 102,336.5C 100.257,326.224 99.0904,315.891 98.5,305.5C 103.084,306.528 107.584,307.861 112,309.5C 120.73,309.878 127.897,306.878 133.5,300.5 Z"/></g>
<g><path style="opacity:0.144" fill="#fea361" d="M 273.5,300.5 C 274.458,300.953 275.292,301.619 276,302.5C 277.663,312.467 278.663,322.467 279,332.5C 274.436,336.916 268.936,339.416 262.5,340C 257.465,340.384 252.632,340.551 248,340.5C 246.22,339.406 244.386,338.406 242.5,337.5C 240.348,326.947 239.014,316.28 238.5,305.5C 243.084,306.528 247.584,307.861 252,309.5C 260.73,309.878 267.897,306.878 273.5,300.5 Z"/></g>
<g><path style="opacity:0.144" fill="#fea361" d="M 413.5,300.5 C 414.458,300.953 415.292,301.619 416,302.5C 417.663,312.467 418.663,322.467 419,332.5C 414.436,336.916 408.936,339.416 402.5,340C 397.465,340.384 392.632,340.551 388,340.5C 386.22,339.406 384.386,338.406 382.5,337.5C 380.348,326.947 379.014,316.28 378.5,305.5C 383.084,306.528 387.584,307.861 392,309.5C 400.73,309.878 407.897,306.878 413.5,300.5 Z"/></g>
<g><path style="opacity:0.144" fill="#fea361" d="M 559.5,325.5 C 559.5,327.833 559.5,330.167 559.5,332.5C 554.729,336.821 549.062,339.321 542.5,340C 537.465,340.384 532.632,340.551 528,340.5C 526.806,339.57 525.473,338.903 524,338.5C 522.139,337.391 521.305,335.725 521.5,333.5C 520.006,324.213 519.006,314.88 518.5,305.5C 523.084,306.528 527.584,307.861 532,309.5C 536.563,308.951 541.063,308.118 545.5,307C 548.333,304.833 551.167,302.667 554,300.5C 554.667,301.167 555.333,301.833 556,302.5C 556.935,310.346 558.102,318.013 559.5,325.5 Z"/></g>
<g><path style="opacity:0.144" fill="#fea361" d="M 63.5,321.5 C 64.4959,321.414 65.3292,321.748 66,322.5C 67.91,332.774 68.91,343.107 69,353.5C 67.482,355.348 65.6487,356.848 63.5,358C 55.7339,360.954 47.7339,361.954 39.5,361C 36.5424,360.771 34.0424,359.604 32,357.5C 30.5856,347.185 29.4189,336.852 28.5,326.5C 33.0017,327.497 37.5017,328.831 42,330.5C 50.6794,330.726 57.8461,327.726 63.5,321.5 Z"/></g>
<g><path style="opacity:0.144" fill="#fea361" d="M 203.5,321.5 C 204.496,321.414 205.329,321.748 206,322.5C 207.746,332.792 208.746,343.125 209,353.5C 203.859,358.33 197.692,360.83 190.5,361C 186.833,361.667 183.167,361.667 179.5,361C 176.542,360.771 174.042,359.604 172,357.5C 170.421,347.206 169.255,336.872 168.5,326.5C 173.002,327.497 177.502,328.831 182,330.5C 186.519,329.789 191.019,328.956 195.5,328C 198.053,325.575 200.72,323.408 203.5,321.5 Z"/></g>
<g><path style="opacity:0.144" fill="#fea361" d="M 343.5,321.5 C 344.496,321.414 345.329,321.748 346,322.5C 347.746,332.792 348.746,343.125 349,353.5C 343.859,358.33 337.692,360.83 330.5,361C 326.833,361.667 323.167,361.667 319.5,361C 316.542,360.771 314.042,359.604 312,357.5C 310.421,347.206 309.255,336.872 308.5,326.5C 313.002,327.497 317.502,328.831 322,330.5C 326.519,329.789 331.019,328.956 335.5,328C 338.053,325.575 340.72,323.408 343.5,321.5 Z"/></g>
<g><path style="opacity:0.144" fill="#fea361" d="M 483.5,321.5 C 484.496,321.414 485.329,321.748 486,322.5C 487.746,332.792 488.746,343.125 489,353.5C 483.859,358.33 477.692,360.83 470.5,361C 466.833,361.667 463.167,361.667 459.5,361C 456.542,360.771 454.042,359.604 452,357.5C 450.41,347.205 449.243,336.872 448.5,326.5C 453.002,327.497 457.502,328.831 462,330.5C 466.519,329.789 471.019,328.956 475.5,328C 478.053,325.575 480.72,323.408 483.5,321.5 Z"/></g>
<g><path style="opacity:0.144" fill="#fea361" d="M 132.5,376.5 C 133.822,376.33 134.989,376.663 136,377.5C 137.757,387.791 138.757,398.125 139,408.5C 136.079,410.712 132.912,412.545 129.5,414C 123.93,414.691 118.43,415.524 113,416.5C 110.198,415.67 107.365,414.837 104.5,414C 103.333,413.5 102.5,412.667 102,411.5C 100.257,401.224 99.0904,390.891 98.5,380.5C 103.135,381.547 107.635,382.88 112,384.5C 120.295,385.221 127.129,382.554 132.5,376.5 Z"/></g>
<g><path style="opacity:0.144" fill="#fea361" d="M 272.5,376.5 C 273.822,376.33 274.989,376.663 276,377.5C 277.746,387.792 278.746,398.125 279,408.5C 275.863,410.986 272.363,412.819 268.5,414C 263.275,414.763 258.108,415.597 253,416.5C 250.198,415.67 247.365,414.837 244.5,414C 243.333,413.5 242.5,412.667 242,411.5C 240.257,401.225 239.091,390.892 238.5,380.5C 243.135,381.547 247.635,382.88 252,384.5C 260.295,385.221 267.129,382.554 272.5,376.5 Z"/></g>
<g><path style="opacity:0.144" fill="#fea361" d="M 412.5,376.5 C 413.822,376.33 414.989,376.663 416,377.5C 417.746,387.792 418.746,398.125 419,408.5C 411.108,413.596 402.442,416.263 393,416.5C 390.198,415.67 387.365,414.837 384.5,414C 383.333,413.5 382.5,412.667 382,411.5C 380.257,401.225 379.091,390.892 378.5,380.5C 383.135,381.547 387.635,382.88 392,384.5C 400.295,385.221 407.129,382.554 412.5,376.5 Z"/></g>
<g><path style="opacity:0.144" fill="#fea361" d="M 559.5,400.5 C 559.5,403.167 559.5,405.833 559.5,408.5C 551.425,413.545 542.592,416.212 533,416.5C 529.405,415.711 525.905,414.544 522.5,413C 520.392,402.301 519.059,391.468 518.5,380.5C 523.135,381.547 527.635,382.88 532,384.5C 535.828,383.959 539.661,383.459 543.5,383C 546.362,382.07 548.695,380.403 550.5,378C 552.044,376.813 553.711,376.48 555.5,377C 556.882,384.923 558.215,392.757 559.5,400.5 Z"/></g>
<g><path style="opacity:0.144" fill="#fea361" d="M 62.5,397.5 C 63.8333,397.5 65.1667,397.5 66.5,397.5C 67.8558,408.147 68.6891,418.814 69,429.5C 66.0788,431.712 62.9121,433.545 59.5,435C 53.9468,435.803 48.4468,436.636 43,437.5C 38.7869,436.987 35.1202,435.32 32,432.5C 30.4215,422.206 29.2548,411.872 28.5,401.5C 33.276,402.65 37.9427,403.983 42.5,405.5C 50.6067,406.103 57.2734,403.437 62.5,397.5 Z"/></g>
<g><path style="opacity:0.144" fill="#fea361" d="M 202.5,397.5 C 203.833,397.5 205.167,397.5 206.5,397.5C 207.832,408.147 208.665,418.814 209,429.5C 201.176,434.808 192.51,437.474 183,437.5C 178.787,436.987 175.12,435.32 172,432.5C 170.41,422.205 169.243,411.872 168.5,401.5C 173.276,402.65 177.943,403.983 182.5,405.5C 190.607,406.103 197.273,403.437 202.5,397.5 Z"/></g>
<g><path style="opacity:0.144" fill="#fea361" d="M 342.5,397.5 C 343.822,397.33 344.989,397.663 346,398.5C 347.91,408.774 348.91,419.107 349,429.5C 341.176,434.808 332.51,437.474 323,437.5C 320.198,436.67 317.365,435.837 314.5,435C 313.333,434.5 312.5,433.667 312,432.5C 310.41,422.205 309.243,411.872 308.5,401.5C 313.276,402.65 317.943,403.983 322.5,405.5C 330.607,406.103 337.273,403.437 342.5,397.5 Z"/></g>
<g><path style="opacity:0.144" fill="#fea361" d="M 482.5,397.5 C 483.822,397.33 484.989,397.663 486,398.5C 487.757,408.791 488.757,419.125 489,429.5C 481.176,434.808 472.51,437.474 463,437.5C 460.198,436.67 457.365,435.837 454.5,435C 453.333,434.5 452.5,433.667 452,432.5C 450.257,422.224 449.09,411.891 448.5,401.5C 453.135,402.547 457.635,403.88 462,405.5C 470.295,406.221 477.129,403.554 482.5,397.5 Z"/></g>
<g><path style="opacity:0.144" fill="#fea361" d="M 132.5,451.5 C 133.822,451.33 134.989,451.663 136,452.5C 137.746,462.792 138.746,473.125 139,483.5C 136.592,485.956 133.759,487.789 130.5,489C 123.53,490.226 116.697,491.059 110,491.5C 107.26,490.856 104.76,489.689 102.5,488C 100.308,477.63 99.1414,467.13 99,456.5C 99.414,456.043 99.914,455.709 100.5,455.5C 108.897,460.306 117.564,460.806 126.5,457C 128.396,454.932 130.396,453.099 132.5,451.5 Z"/></g>
<g><path style="opacity:0.144" fill="#fea361" d="M 412.5,451.5 C 413.822,451.33 414.989,451.663 416,452.5C 417.746,462.792 418.746,473.125 419,483.5C 416.592,485.956 413.759,487.789 410.5,489C 403.53,490.226 396.697,491.059 390,491.5C 387.26,490.856 384.76,489.689 382.5,488C 380.833,477.667 379.167,467.333 377.5,457C 378.5,456.5 379.5,456 380.5,455.5C 388.897,460.306 397.564,460.806 406.5,457C 408.396,454.932 410.396,453.099 412.5,451.5 Z"/></g>
<g><path style="opacity:0.144" fill="#fea361" d="M 559.5,475.5 C 559.5,478.167 559.5,480.833 559.5,483.5C 555.263,487.282 550.263,489.448 544.5,490C 537.921,491.954 531.588,491.954 525.5,490C 524.421,489.044 523.255,488.211 522,487.5C 520.618,477.268 519.118,467.101 517.5,457C 518.5,456.5 519.5,456 520.5,455.5C 528.097,459.827 536.097,460.66 544.5,458C 546.792,456.71 548.792,455.043 550.5,453C 552.044,451.813 553.711,451.48 555.5,452C 556.798,459.936 558.131,467.769 559.5,475.5 Z"/></g>
<g><path style="opacity:0.144" fill="#fea361" d="M 272.5,451.5 C 273.822,451.33 274.989,451.663 276,452.5C 277.746,462.792 278.746,473.125 279,483.5C 276.592,485.956 273.759,487.789 270.5,489C 263.53,490.226 256.697,491.059 250,491.5C 247.26,490.856 244.76,489.689 242.5,488C 240.305,477.63 239.138,467.13 239,456.5C 239.414,456.043 239.914,455.709 240.5,455.5C 248.897,460.306 257.564,460.806 266.5,457C 268.396,454.932 270.396,453.099 272.5,451.5 Z"/></g>
<g><path style="opacity:0.144" fill="#fea361" d="M 62.5,472.5 C 63.8333,472.5 65.1667,472.5 66.5,472.5C 67.8321,483.149 68.6654,493.815 69,504.5C 66.8995,507.467 64.0662,509.3 60.5,510C 53.5305,511.226 46.6972,512.059 40,512.5C 38.6764,511.12 37.3431,510.786 36,511.5C 34.4301,510.386 33.0968,509.053 32,507.5C 30.3366,497.533 29.3366,487.533 29,477.5C 29.3333,477.167 29.6667,476.833 30,476.5C 33.6667,478.167 37.3333,479.833 41,481.5C 45.423,480.485 49.923,479.652 54.5,479C 57.3553,476.969 60.022,474.803 62.5,472.5 Z"/></g>
<g><path style="opacity:0.144" fill="#fea361" d="M 202.5,472.5 C 203.822,472.33 204.989,472.663 206,473.5C 207.757,483.791 208.757,494.125 209,504.5C 206.88,507.43 204.047,509.263 200.5,510C 193.53,511.226 186.697,512.059 180,512.5C 177.26,511.856 174.76,510.689 172.5,509C 170.308,498.63 169.141,488.13 169,477.5C 169.414,477.043 169.914,476.709 170.5,476.5C 178.897,481.306 187.564,481.806 196.5,478C 198.396,475.932 200.396,474.099 202.5,472.5 Z"/></g>
<g><path style="opacity:0.144" fill="#fea361" d="M 342.5,472.5 C 343.822,472.33 344.989,472.663 346,473.5C 347.757,483.791 348.757,494.125 349,504.5C 346.592,506.956 343.759,508.789 340.5,510C 333.53,511.226 326.697,512.059 320,512.5C 317.26,511.856 314.76,510.689 312.5,509C 310.308,498.63 309.141,488.13 309,477.5C 309.414,477.043 309.914,476.709 310.5,476.5C 318.897,481.306 327.564,481.806 336.5,478C 338.396,475.932 340.396,474.099 342.5,472.5 Z"/></g>
<g><path style="opacity:0.144" fill="#fea361" d="M 482.5,472.5 C 483.822,472.33 484.989,472.663 486,473.5C 487.746,483.792 488.746,494.125 489,504.5C 486.592,506.956 483.759,508.789 480.5,510C 473.53,511.226 466.697,512.059 460,512.5C 457.26,511.856 454.76,510.689 452.5,509C 450.308,498.63 449.141,488.13 449,477.5C 449.414,477.043 449.914,476.709 450.5,476.5C 458.897,481.306 467.564,481.806 476.5,478C 478.396,475.932 480.396,474.099 482.5,472.5 Z"/></g>
<g><path style="opacity:0.144" fill="#fea361" d="M 133.5,526.5 C 134.496,526.414 135.329,526.748 136,527.5C 137.746,537.792 138.746,548.125 139,558.5C 133.859,563.33 127.692,565.83 120.5,566C 116.833,566.667 113.167,566.667 109.5,566C 106.542,565.771 104.042,564.604 102,562.5C 100.41,552.205 99.2433,541.872 98.5,531.5C 103.002,532.497 107.502,533.831 112,535.5C 116.519,534.789 121.019,533.956 125.5,533C 128.053,530.575 130.72,528.408 133.5,526.5 Z"/></g>
<g><path style="opacity:0.144" fill="#fea361" d="M 273.5,526.5 C 274.496,526.414 275.329,526.748 276,527.5C 277.581,537.811 278.581,548.144 279,558.5C 273.859,563.33 267.692,565.83 260.5,566C 256.833,566.667 253.167,566.667 249.5,566C 246.542,565.771 244.042,564.604 242,562.5C 240.257,552.224 239.09,541.891 238.5,531.5C 242.877,532.401 247.211,533.735 251.5,535.5C 256.173,534.713 260.84,533.88 265.5,533C 268.053,530.575 270.72,528.408 273.5,526.5 Z"/></g>
<g><path style="opacity:0.144" fill="#fea361" d="M 413.5,526.5 C 414.496,526.414 415.329,526.748 416,527.5C 417.581,537.811 418.581,548.144 419,558.5C 417.457,560.378 415.624,561.878 413.5,563C 405.428,565.802 397.428,566.802 389.5,566C 386.542,565.771 384.042,564.604 382,562.5C 380.257,552.224 379.09,541.891 378.5,531.5C 382.877,532.401 387.211,533.735 391.5,535.5C 396.173,534.713 400.84,533.88 405.5,533C 408.053,530.575 410.72,528.408 413.5,526.5 Z"/></g>
<g><path style="opacity:0.144" fill="#fea361" d="M 559.5,551.5 C 559.5,553.833 559.5,556.167 559.5,558.5C 554.446,563.025 548.446,565.525 541.5,566C 535.295,566.984 529.295,566.317 523.5,564C 523,563.5 522.5,563 522,562.5C 520.7,552.59 519.2,542.757 517.5,533C 518.43,532.009 519.596,531.509 521,531.5C 529.264,536.012 537.764,536.178 546.5,532C 548.993,529.92 551.659,528.086 554.5,526.5C 555.192,527.025 555.692,527.692 556,528.5C 556.935,536.346 558.102,544.013 559.5,551.5 Z"/></g>
<g><path style="opacity:0.144" fill="#fea361" d="M 62.5,547.5 C 63.8221,547.33 64.9887,547.663 66,548.5C 67.9099,558.773 68.9099,569.106 69,579.5C 65.4974,583.566 60.9974,585.732 55.5,586C 51.5,586.5 47.5,587 43.5,587.5C 39.729,587.35 36.229,586.35 33,584.5C 30.684,573.976 29.184,563.309 28.5,552.5C 33.0719,552.947 37.4053,554.28 41.5,556.5C 46.1257,555.529 50.7924,554.696 55.5,554C 57.9071,551.817 60.2404,549.65 62.5,547.5 Z"/></g>
<g><path style="opacity:0.144" fill="#fea361" d="M 202.5,547.5 C 203.822,547.33 204.989,547.663 206,548.5C 207.757,558.791 208.757,569.125 209,579.5C 205.457,583.574 200.957,585.741 195.5,586C 188.004,588.195 180.671,587.861 173.5,585C 173,584.5 172.5,584 172,583.5C 170.254,573.208 169.254,562.875 169,552.5C 169.333,552.167 169.667,551.833 170,551.5C 173.76,553.296 177.593,554.962 181.5,556.5C 189.973,556.567 196.973,553.567 202.5,547.5 Z"/></g>
<g><path style="opacity:0.144" fill="#fea361" d="M 342.5,547.5 C 343.822,547.33 344.989,547.663 346,548.5C 347.746,558.792 348.746,569.125 349,579.5C 345.457,583.574 340.957,585.741 335.5,586C 327.802,588.09 320.468,587.757 313.5,585C 311.845,582.493 311.011,579.659 311,576.5C 309.669,568.528 309.002,560.528 309,552.5C 309.333,552.167 309.667,551.833 310,551.5C 313.76,553.296 317.593,554.962 321.5,556.5C 329.973,556.567 336.973,553.567 342.5,547.5 Z"/></g>
<g><path style="opacity:0.144" fill="#fea361" d="M 482.5,547.5 C 483.822,547.33 484.989,547.663 486,548.5C 487.746,558.792 488.746,569.125 489,579.5C 485.457,583.574 480.957,585.741 475.5,586C 467.802,588.09 460.468,587.757 453.5,585C 451.845,582.493 451.011,579.659 451,576.5C 449.669,568.528 449.002,560.528 449,552.5C 449.333,552.167 449.667,551.833 450,551.5C 453.76,553.296 457.593,554.962 461.5,556.5C 469.973,556.567 476.973,553.567 482.5,547.5 Z"/></g>
<g><path style="opacity:0.144" fill="#fea361" d="M 133.5,601.5 C 134.75,601.577 135.583,602.244 136,603.5C 137.663,613.467 138.663,623.467 139,633.5C 134.144,638.124 128.311,640.624 121.5,641C 116.799,641.375 112.299,641.542 108,641.5C 106.22,640.406 104.386,639.406 102.5,638.5C 100.348,627.947 99.0142,617.28 98.5,606.5C 103.084,607.528 107.584,608.861 112,610.5C 120.688,610.726 127.854,607.726 133.5,601.5 Z"/></g>
<g><path style="opacity:0.144" fill="#fea361" d="M 273.5,601.5 C 274.75,601.577 275.583,602.244 276,603.5C 277.663,613.467 278.663,623.467 279,633.5C 274.144,638.124 268.311,640.624 261.5,641C 256.799,641.375 252.299,641.542 248,641.5C 246.22,640.406 244.386,639.406 242.5,638.5C 240.326,627.948 238.993,617.281 238.5,606.5C 243.084,607.528 247.584,608.861 252,610.5C 260.688,610.726 267.854,607.726 273.5,601.5 Z"/></g>
<g><path style="opacity:0.144" fill="#fea361" d="M 413.5,601.5 C 414.75,601.577 415.583,602.244 416,603.5C 417.663,613.467 418.663,623.467 419,633.5C 414.144,638.124 408.311,640.624 401.5,641C 396.799,641.375 392.299,641.542 388,641.5C 386.22,640.406 384.386,639.406 382.5,638.5C 380.783,628.313 379.117,618.147 377.5,608C 378.108,607.13 378.941,606.63 380,606.5C 392.404,612.229 403.571,610.562 413.5,601.5 Z"/></g>
<g><path style="opacity:0.144" fill="#fea361" d="M 559.5,627.5 C 559.5,629.5 559.5,631.5 559.5,633.5C 556.109,636.709 552.109,638.876 547.5,640C 539.281,642.143 531.448,641.977 524,639.5C 523.055,639.095 522.388,638.428 522,637.5C 520.536,627.614 519.036,617.78 517.5,608C 518.108,607.13 518.941,606.63 520,606.5C 532.575,612.156 544.075,610.489 554.5,601.5C 555.192,602.025 555.692,602.692 556,603.5C 556.953,611.676 558.12,619.676 559.5,627.5 Z"/></g>
<g><path style="opacity:0.144" fill="#fea361" d="M 63.5,622.5 C 65.4534,623.244 66.4534,624.744 66.5,627C 68.2924,636.48 68.9591,645.98 68.5,655.5C 63.8094,659.122 58.4761,661.289 52.5,662C 47.4652,662.384 42.6318,662.551 38,662.5C 35.828,661.415 33.828,660.081 32,658.5C 30.4215,648.206 29.2548,637.872 28.5,627.5C 33.084,628.528 37.584,629.861 42,631.5C 50.7301,631.878 57.8968,628.878 63.5,622.5 Z"/></g>
<g><path style="opacity:0.143" fill="#fea361" d="M 203.5,622.5 C 204.458,622.953 205.292,623.619 206,624.5C 207.663,634.467 208.663,644.467 209,654.5C 204.144,659.124 198.311,661.624 191.5,662C 186.799,662.375 182.299,662.542 178,662.5C 175.828,661.415 173.828,660.081 172,658.5C 170.257,648.224 169.09,637.891 168.5,627.5C 173.084,628.528 177.584,629.861 182,631.5C 190.73,631.878 197.897,628.878 203.5,622.5 Z"/></g>
<g><path style="opacity:0.144" fill="#fea361" d="M 343.5,622.5 C 344.458,622.953 345.292,623.619 346,624.5C 347.663,634.467 348.663,644.467 349,654.5C 344.144,659.124 338.311,661.624 331.5,662C 326.799,662.375 322.299,662.542 318,662.5C 316.22,661.406 314.386,660.406 312.5,659.5C 310.347,648.946 309.014,638.279 308.5,627.5C 313.084,628.528 317.584,629.861 322,631.5C 330.73,631.878 337.897,628.878 343.5,622.5 Z"/></g>
<g><path style="opacity:0.144" fill="#fea361" d="M 483.5,622.5 C 484.458,622.953 485.292,623.619 486,624.5C 487.663,634.467 488.663,644.467 489,654.5C 484.144,659.124 478.311,661.624 471.5,662C 466.799,662.375 462.299,662.542 458,662.5C 456.22,661.406 454.386,660.406 452.5,659.5C 450.348,648.947 449.014,638.28 448.5,627.5C 453.084,628.528 457.584,629.861 462,631.5C 470.73,631.878 477.897,628.878 483.5,622.5 Z"/></g>
<g><path style="opacity:0.144" fill="#fea361" d="M 132.5,677.5 C 133.822,677.33 134.989,677.663 136,678.5C 137.746,688.792 138.746,699.125 139,709.5C 136.079,711.712 132.912,713.545 129.5,715C 124.142,715.798 118.808,716.632 113.5,717.5C 109.63,716.966 105.963,715.8 102.5,714C 100.833,703.667 99.1667,693.333 97.5,683C 98.5,682.5 99.5,682 100.5,681.5C 108.081,685.947 116.081,686.78 124.5,684C 127.355,681.969 130.022,679.803 132.5,677.5 Z"/></g>
<g><path style="opacity:0.144" fill="#fea361" d="M 272.5,677.5 C 273.822,677.33 274.989,677.663 276,678.5C 277.581,688.811 278.581,699.144 279,709.5C 276.079,711.712 272.912,713.545 269.5,715C 264.142,715.798 258.808,716.632 253.5,717.5C 249.63,716.966 245.963,715.8 242.5,714C 240.67,703.691 239.003,693.357 237.5,683C 238.108,682.13 238.941,681.63 240,681.5C 244.051,683.28 248.218,684.613 252.5,685.5C 256.5,685 260.5,684.5 264.5,684C 267.355,681.969 270.022,679.803 272.5,677.5 Z"/></g>
<g><path style="opacity:0.144" fill="#fea361" d="M 412.5,677.5 C 413.822,677.33 414.989,677.663 416,678.5C 417.581,688.811 418.581,699.144 419,709.5C 416.079,711.712 412.912,713.545 409.5,715C 404.142,715.798 398.808,716.632 393.5,717.5C 389.63,716.966 385.963,715.8 382.5,714C 380.67,703.691 379.003,693.357 377.5,683C 378.108,682.13 378.941,681.63 380,681.5C 387.732,685.903 395.898,686.736 404.5,684C 407.355,681.969 410.022,679.803 412.5,677.5 Z"/></g>
<g><path style="opacity:0.144" fill="#fea361" d="M 559.5,702.5 C 559.5,704.833 559.5,707.167 559.5,709.5C 551.685,714.7 543.019,717.367 533.5,717.5C 529.63,716.966 525.963,715.8 522.5,714C 520.713,703.881 519.047,693.714 517.5,683.5C 517.887,682.28 518.72,681.613 520,681.5C 527.732,685.903 535.898,686.736 544.5,684C 547.403,681.428 550.569,679.261 554,677.5C 554.945,677.905 555.612,678.572 556,679.5C 556.935,687.346 558.102,695.013 559.5,702.5 Z"/></g>
<g><path style="opacity:0.144" fill="#fea361" d="M 62.5,698.5 C 63.8333,698.5 65.1667,698.5 66.5,698.5C 67.8321,709.149 68.6654,719.815 69,730.5C 58.1968,737.491 46.6968,739.324 34.5,736C 33.6667,735.167 32.8333,734.333 32,733.5C 30.4215,723.206 29.2548,712.872 28.5,702.5C 33.1354,703.547 37.6354,704.88 42,706.5C 50.2952,707.221 57.1285,704.554 62.5,698.5 Z"/></g>
<g><path style="opacity:0.144" fill="#fea361" d="M 202.5,698.5 C 203.822,698.33 204.989,698.663 206,699.5C 207.757,709.791 208.757,720.125 209,730.5C 201.108,735.596 192.442,738.263 183,738.5C 180.198,737.67 177.365,736.837 174.5,736C 173.333,735.5 172.5,734.667 172,733.5C 170.257,723.224 169.09,712.891 168.5,702.5C 173.135,703.547 177.635,704.88 182,706.5C 190.295,707.221 197.129,704.554 202.5,698.5 Z"/></g>
<g><path style="opacity:0.144" fill="#fea361" d="M 342.5,698.5 C 343.822,698.33 344.989,698.663 346,699.5C 347.746,709.792 348.746,720.125 349,730.5C 341.108,735.596 332.442,738.263 323,738.5C 320.198,737.67 317.365,736.837 314.5,736C 313.333,735.5 312.5,734.667 312,733.5C 310.257,723.225 309.091,712.892 308.5,702.5C 313.135,703.547 317.635,704.88 322,706.5C 330.295,707.221 337.129,704.554 342.5,698.5 Z"/></g>
<g><path style="opacity:0.144" fill="#fea361" d="M 482.5,698.5 C 483.822,698.33 484.989,698.663 486,699.5C 487.746,709.792 488.746,720.125 489,730.5C 481.108,735.596 472.442,738.263 463,738.5C 459.131,737.765 455.464,736.432 452,734.5C 450.339,723.88 449.172,713.213 448.5,702.5C 453.135,703.547 457.635,704.88 462,706.5C 470.295,707.221 477.129,704.554 482.5,698.5 Z"/></g>
<g><path style="opacity:0.144" fill="#fea361" d="M 132.5,752.5 C 133.822,752.33 134.989,752.663 136,753.5C 137.746,763.792 138.746,774.125 139,784.5C 136.374,787.231 133.207,789.064 129.5,790C 124.319,790.793 119.152,791.627 114,792.5C 109.944,792.02 106.111,790.853 102.5,789C 100.67,778.691 99.0031,768.357 97.5,758C 98.5,757.5 99.5,757 100.5,756.5C 108.897,761.306 117.564,761.806 126.5,758C 128.396,755.932 130.396,754.099 132.5,752.5 Z"/></g>
<g><path style="opacity:0.144" fill="#fea361" d="M 272.5,752.5 C 273.822,752.33 274.989,752.663 276,753.5C 277.581,763.811 278.581,774.144 279,784.5C 276.374,787.231 273.207,789.064 269.5,790C 264.319,790.793 259.152,791.627 254,792.5C 249.944,792.02 246.111,790.853 242.5,789C 240.67,778.691 239.003,768.357 237.5,758C 238.5,757.5 239.5,757 240.5,756.5C 248.09,760.88 256.09,761.713 264.5,759C 267.355,756.969 270.022,754.803 272.5,752.5 Z"/></g>
<g><path style="opacity:0.144" fill="#fea361" d="M 412.5,752.5 C 413.822,752.33 414.989,752.663 416,753.5C 417.581,763.811 418.581,774.144 419,784.5C 416.374,787.231 413.207,789.064 409.5,790C 404.319,790.793 399.152,791.627 394,792.5C 389.944,792.02 386.111,790.853 382.5,789C 380.713,778.881 379.047,768.714 377.5,758.5C 378.328,757.585 379.328,756.919 380.5,756.5C 388.09,760.88 396.09,761.713 404.5,759C 407.355,756.969 410.022,754.803 412.5,752.5 Z"/></g>
<g><path style="opacity:0.144" fill="#fea361" d="M 559.5,777.5 C 559.5,779.833 559.5,782.167 559.5,784.5C 556.644,787.097 553.311,788.93 549.5,790C 544.319,790.793 539.152,791.627 534,792.5C 529.944,792.02 526.111,790.853 522.5,789C 520.713,778.881 519.047,768.714 517.5,758.5C 518.328,757.585 519.328,756.919 520.5,756.5C 528.09,760.88 536.09,761.713 544.5,759C 547.403,756.428 550.569,754.261 554,752.5C 554.945,752.905 555.612,753.572 556,754.5C 556.935,762.346 558.102,770.013 559.5,777.5 Z"/></g>
<g><path style="opacity:0.144" fill="#fea361" d="M 62.5,773.5 C 63.8221,773.33 64.9887,773.663 66,774.5C 67.91,784.774 68.91,795.107 69,805.5C 66.5925,807.956 63.7591,809.789 60.5,811C 53.5305,812.226 46.6972,813.059 40,813.5C 38.6764,812.12 37.3431,811.786 36,812.5C 34.4301,811.386 33.0968,810.053 32,808.5C 30.3366,798.533 29.3366,788.533 29,778.5C 29.414,778.043 29.914,777.709 30.5,777.5C 38.8975,782.306 47.5641,782.806 56.5,779C 58.3962,776.932 60.3962,775.099 62.5,773.5 Z"/></g>
<g><path style="opacity:0.144" fill="#fea361" d="M 202.5,773.5 C 203.822,773.33 204.989,773.663 206,774.5C 207.746,784.792 208.746,795.125 209,805.5C 206.592,807.956 203.759,809.789 200.5,811C 193.519,812.144 186.686,812.977 180,813.5C 177.26,812.856 174.76,811.689 172.5,810C 170.308,799.63 169.141,789.13 169,778.5C 169.414,778.043 169.914,777.709 170.5,777.5C 178.897,782.306 187.564,782.806 196.5,779C 198.396,776.932 200.396,775.099 202.5,773.5 Z"/></g>
<g><path style="opacity:0.143" fill="#fea361" d="M 342.5,773.5 C 343.822,773.33 344.989,773.663 346,774.5C 347.746,784.792 348.746,795.125 349,805.5C 346.592,807.956 343.759,809.789 340.5,811C 333.519,812.144 326.686,812.977 320,813.5C 317.26,812.856 314.76,811.689 312.5,810C 310.833,799.667 309.167,789.333 307.5,779C 308.5,778.5 309.5,778 310.5,777.5C 318.897,782.306 327.564,782.806 336.5,779C 338.396,776.932 340.396,775.099 342.5,773.5 Z"/></g>
<g><path style="opacity:0.144" fill="#fea361" d="M 482.5,773.5 C 483.822,773.33 484.989,773.663 486,774.5C 487.746,784.792 488.746,795.125 489,805.5C 486.374,808.231 483.207,810.064 479.5,811C 472.866,812.236 466.366,813.069 460,813.5C 457.26,812.856 454.76,811.689 452.5,810C 450.833,799.667 449.167,789.333 447.5,779C 448.5,778.5 449.5,778 450.5,777.5C 458.897,782.306 467.564,782.806 476.5,779C 478.396,776.932 480.396,775.099 482.5,773.5 Z"/></g>
<g><path style="opacity:0.144" fill="#fea361" d="M 132.5,821.5 C 133.822,821.33 134.989,821.663 136,822.5C 137.581,832.811 138.581,843.144 139,853.5C 136.88,856.43 134.047,858.263 130.5,859C 123.682,860.287 117.016,861.121 110.5,861.5C 107.548,860.932 104.881,859.766 102.5,858C 100.144,847.649 98.9772,837.149 99,826.5C 99.3333,826.167 99.6667,825.833 100,825.5C 103.667,827.167 107.333,828.833 111,830.5C 115.448,829.629 119.948,828.796 124.5,828C 127.355,825.969 130.022,823.803 132.5,821.5 Z"/></g>
<g><path style="opacity:0.144" fill="#fea361" d="M 272.5,821.5 C 273.822,821.33 274.989,821.663 276,822.5C 277.581,832.811 278.581,843.144 279,853.5C 276.592,855.956 273.759,857.789 270.5,859C 263.682,860.287 257.016,861.121 250.5,861.5C 247.548,860.932 244.881,859.766 242.5,858C 240.67,847.692 239.003,837.358 237.5,827C 238.416,826.626 239.25,826.126 240,825.5C 243.667,827.167 247.333,828.833 251,830.5C 255.448,829.629 259.948,828.796 264.5,828C 267.355,825.969 270.022,823.803 272.5,821.5 Z"/></g>
<g><path style="opacity:0.144" fill="#fea361" d="M 412.5,821.5 C 414.124,821.36 415.29,822.027 416,823.5C 417.663,833.467 418.663,843.467 419,853.5C 416.592,855.956 413.759,857.789 410.5,859C 403.682,860.287 397.016,861.121 390.5,861.5C 387.548,860.932 384.881,859.766 382.5,858C 380.713,847.881 379.047,837.714 377.5,827.5C 378.242,826.713 379.075,826.047 380,825.5C 383.667,827.167 387.333,828.833 391,830.5C 399.612,830.634 406.779,827.634 412.5,821.5 Z"/></g>
<g><path style="opacity:0.144" fill="#fea361" d="M 559.5,846.5 C 559.5,848.833 559.5,851.167 559.5,853.5C 552.241,858.598 544.075,861.264 535,861.5C 530.365,861.749 526.032,860.416 522,857.5C 520.662,847.458 519.162,837.458 517.5,827.5C 518.242,826.713 519.075,826.047 520,825.5C 523.667,827.167 527.333,828.833 531,830.5C 535.448,829.629 539.948,828.796 544.5,828C 547.403,825.428 550.569,823.261 554,821.5C 554.945,821.905 555.612,822.572 556,823.5C 556.935,831.346 558.102,839.013 559.5,846.5 Z"/></g>
<g><path style="opacity:0.144" fill="#fea361" d="M 202.5,842.5 C 203.822,842.33 204.989,842.663 206,843.5C 207.746,853.792 208.746,864.125 209,874.5C 207.213,876.958 204.879,878.624 202,879.5C 194.733,881.218 187.566,882.218 180.5,882.5C 177.548,881.932 174.881,880.766 172.5,879C 170.305,868.63 169.138,858.13 169,847.5C 169.333,847.167 169.667,846.833 170,846.5C 173.667,848.167 177.333,849.833 181,851.5C 185.448,850.629 189.948,849.796 194.5,849C 197.355,846.969 200.022,844.803 202.5,842.5 Z"/></g>
<g><path style="opacity:0.144" fill="#fea361" d="M 342.5,842.5 C 343.822,842.33 344.989,842.663 346,843.5C 347.746,853.792 348.746,864.125 349,874.5C 346.88,877.43 344.047,879.263 340.5,880C 333.693,881.351 327.026,882.184 320.5,882.5C 317.548,881.932 314.881,880.766 312.5,879C 310.305,868.63 309.138,858.13 309,847.5C 309.333,847.167 309.667,846.833 310,846.5C 313.667,848.167 317.333,849.833 321,851.5C 325.448,850.629 329.948,849.796 334.5,849C 337.355,846.969 340.022,844.803 342.5,842.5 Z"/></g>
<g><path style="opacity:0.143" fill="#fea361" d="M 482.5,842.5 C 483.822,842.33 484.989,842.663 486,843.5C 487.581,853.811 488.581,864.144 489,874.5C 486.88,877.43 484.047,879.263 480.5,880C 473.693,881.351 467.026,882.184 460.5,882.5C 457.548,881.932 454.881,880.766 452.5,879C 450.144,868.649 448.977,858.149 449,847.5C 449.333,847.167 449.667,846.833 450,846.5C 453.667,848.167 457.333,849.833 461,851.5C 465.448,850.629 469.948,849.796 474.5,849C 477.355,846.969 480.022,844.803 482.5,842.5 Z"/></g>
<g><path style="opacity:0.144" fill="#fea361" d="M 62.5,842.5 C 63.8221,842.33 64.9887,842.663 66,843.5C 67.7573,853.791 68.7573,864.125 69,874.5C 67.2125,876.958 64.8792,878.624 62,879.5C 54.7332,881.218 47.5665,882.218 40.5,882.5C 37.548,881.932 34.8813,880.766 32.5,879C 30.3081,868.63 29.1414,858.13 29,847.5C 29.3333,847.167 29.6667,846.833 30,846.5C 33.6667,848.167 37.3333,849.833 41,851.5C 45.4484,850.629 49.9484,849.796 54.5,849C 57.3553,846.969 60.022,844.803 62.5,842.5 Z"/></g>
<g><path style="opacity:0.145" fill="#fea361" d="M 133.5,896.5 C 134.75,896.577 135.583,897.244 136,898.5C 137.663,908.467 138.663,918.467 139,928.5C 134.144,933.124 128.311,935.624 121.5,936C 116.799,936.375 112.299,936.542 108,936.5C 106.22,935.406 104.386,934.406 102.5,933.5C 100.348,922.947 99.0142,912.28 98.5,901.5C 103.084,902.528 107.584,903.861 112,905.5C 120.688,905.726 127.854,902.726 133.5,896.5 Z"/></g>
<g><path style="opacity:0.144" fill="#fea361" d="M 273.5,896.5 C 274.75,896.577 275.583,897.244 276,898.5C 277.663,908.467 278.663,918.467 279,928.5C 274.144,933.124 268.311,935.624 261.5,936C 256.799,936.375 252.299,936.542 248,936.5C 246.22,935.406 244.386,934.406 242.5,933.5C 240.326,922.948 238.993,912.281 238.5,901.5C 243.084,902.528 247.584,903.861 252,905.5C 260.688,905.726 267.854,902.726 273.5,896.5 Z"/></g>
<g><path style="opacity:0.145" fill="#fea361" d="M 413.5,896.5 C 414.75,896.577 415.583,897.244 416,898.5C 417.663,908.467 418.663,918.467 419,928.5C 414.144,933.124 408.311,935.624 401.5,936C 396.799,936.375 392.299,936.542 388,936.5C 386.22,935.406 384.386,934.406 382.5,933.5C 380.783,923.313 379.117,913.147 377.5,903C 378.108,902.13 378.941,901.63 380,901.5C 392.404,907.229 403.571,905.562 413.5,896.5 Z"/></g>
<g><path style="opacity:0.144" fill="#fea361" d="M 559.5,922.5 C 559.5,924.5 559.5,926.5 559.5,928.5C 556.109,931.709 552.109,933.876 547.5,935C 539.281,937.143 531.448,936.977 524,934.5C 523.055,934.095 522.388,933.428 522,932.5C 520.498,922.481 518.998,912.481 517.5,902.5C 518.167,902.167 518.833,901.833 519.5,901.5C 532.246,907.203 543.913,905.536 554.5,896.5C 555.192,897.025 555.692,897.692 556,898.5C 556.953,906.676 558.12,914.676 559.5,922.5 Z"/></g>
<g><path style="opacity:0.143" fill="#fea361" d="M 63.5,917.5 C 64.4959,917.414 65.3292,917.748 66,918.5C 67.7573,928.791 68.7573,939.125 69,949.5C 67.4571,951.378 65.6238,952.878 63.5,954C 55.4283,956.802 47.4283,957.802 39.5,957C 36.5424,956.771 34.0424,955.604 32,953.5C 30.4215,943.206 29.2548,932.872 28.5,922.5C 33.0017,923.497 37.5017,924.831 42,926.5C 46.4941,925.667 50.9941,924.834 55.5,924C 58.0534,921.575 60.7201,919.408 63.5,917.5 Z"/></g>
<g><path style="opacity:0.144" fill="#fea361" d="M 203.5,917.5 C 204.496,917.414 205.329,917.748 206,918.5C 207.746,928.792 208.746,939.125 209,949.5C 207.457,951.378 205.624,952.878 203.5,954C 195.428,956.802 187.428,957.802 179.5,957C 176.542,956.771 174.042,955.604 172,953.5C 170.41,943.205 169.243,932.872 168.5,922.5C 172.872,923.4 177.205,924.733 181.5,926.5C 190.197,926.509 197.531,923.509 203.5,917.5 Z"/></g>
<g><path style="opacity:0.145" fill="#fea361" d="M 343.5,917.5 C 344.496,917.414 345.329,917.748 346,918.5C 347.746,928.792 348.746,939.125 349,949.5C 347.457,951.378 345.624,952.878 343.5,954C 335.428,956.802 327.428,957.802 319.5,957C 316.542,956.771 314.042,955.604 312,953.5C 310.257,943.224 309.09,932.891 308.5,922.5C 312.872,923.4 317.205,924.733 321.5,926.5C 330.197,926.509 337.531,923.509 343.5,917.5 Z"/></g>
<g><path style="opacity:0.144" fill="#fea361" d="M 483.5,917.5 C 484.496,917.414 485.329,917.748 486,918.5C 487.581,928.811 488.581,939.144 489,949.5C 487.457,951.378 485.624,952.878 483.5,954C 475.428,956.802 467.428,957.802 459.5,957C 456.542,956.771 454.042,955.604 452,953.5C 450.257,943.225 449.091,932.892 448.5,922.5C 452.872,923.4 457.205,924.733 461.5,926.5C 470.197,926.509 477.531,923.509 483.5,917.5 Z"/></g>
<g><path style="opacity:0.144" fill="#fea361" d="M 132.5,972.5 C 133.822,972.33 134.989,972.663 136,973.5C 137.746,983.792 138.746,994.125 139,1004.5C 129.419,1010.68 118.919,1012.85 107.5,1011C 105.481,1010.55 103.648,1009.72 102,1008.5C 100.339,997.88 99.1724,987.213 98.5,976.5C 103.135,977.547 107.635,978.88 112,980.5C 120.295,981.221 127.129,978.554 132.5,972.5 Z"/></g>
<g><path style="opacity:0.144" fill="#fea361" d="M 272.5,972.5 C 273.822,972.33 274.989,972.663 276,973.5C 277.213,982.494 278.38,991.494 279.5,1000.5C 278.893,1004.01 276.893,1006.51 273.5,1008C 265.11,1011.16 256.444,1012.16 247.5,1011C 245.481,1010.55 243.648,1009.72 242,1008.5C 240.316,997.881 239.149,987.214 238.5,976.5C 243.135,977.547 247.635,978.88 252,980.5C 260.295,981.221 267.129,978.554 272.5,972.5 Z"/></g>
<g><path style="opacity:0.144" fill="#fea361" d="M 412.5,972.5 C 413.822,972.33 414.989,972.663 416,973.5C 417.126,982.672 418.292,991.839 419.5,1001C 418.64,1004.2 416.64,1006.53 413.5,1008C 403.249,1012.06 392.915,1012.4 382.5,1009C 380.833,998.667 379.167,988.333 377.5,978C 378.108,977.13 378.941,976.63 380,976.5C 384.065,977.855 388.065,979.188 392,980.5C 400.295,981.221 407.129,978.554 412.5,972.5 Z"/></g>
<g><path style="opacity:0.144" fill="#fea361" d="M 559.5,997.5 C 559.5,999.833 559.5,1002.17 559.5,1004.5C 547.932,1011.75 535.599,1013.25 522.5,1009C 520.67,998.691 519.003,988.357 517.5,978C 518.108,977.13 518.941,976.63 520,976.5C 531.539,982.09 542.372,980.924 552.5,973C 553.5,972.333 554.5,972.333 555.5,973C 556.801,981.269 558.134,989.435 559.5,997.5 Z"/></g>
<g><path style="opacity:0.144" fill="#fea361" d="M 62.5,993.5 C 63.8333,993.5 65.1667,993.5 66.5,993.5C 67.8321,1004.15 68.6654,1014.82 69,1025.5C 58.1968,1032.49 46.6968,1034.32 34.5,1031C 33.6667,1030.17 32.8333,1029.33 32,1028.5C 30.4215,1018.21 29.2548,1007.87 28.5,997.5C 33.1354,998.547 37.6354,999.88 42,1001.5C 50.2952,1002.22 57.1285,999.554 62.5,993.5 Z"/></g>
<g><path style="opacity:0.144" fill="#fea361" d="M 202.5,993.5 C 203.822,993.33 204.989,993.663 206,994.5C 207.757,1004.79 208.757,1015.12 209,1025.5C 201.108,1030.6 192.442,1033.26 183,1033.5C 180.198,1032.67 177.365,1031.84 174.5,1031C 173.333,1030.5 172.5,1029.67 172,1028.5C 170.257,1018.22 169.09,1007.89 168.5,997.5C 173.135,998.547 177.635,999.88 182,1001.5C 190.295,1002.22 197.129,999.554 202.5,993.5 Z"/></g>
<g><path style="opacity:0.144" fill="#fea361" d="M 342.5,993.5 C 343.822,993.33 344.989,993.663 346,994.5C 347.746,1004.79 348.746,1015.13 349,1025.5C 341.108,1030.6 332.442,1033.26 323,1033.5C 320.198,1032.67 317.365,1031.84 314.5,1031C 313.333,1030.5 312.5,1029.67 312,1028.5C 310.257,1018.23 309.091,1007.89 308.5,997.5C 313.135,998.547 317.635,999.88 322,1001.5C 330.295,1002.22 337.129,999.554 342.5,993.5 Z"/></g>
<g><path style="opacity:0.145" fill="#fea361" d="M 482.5,993.5 C 483.822,993.33 484.989,993.663 486,994.5C 487.746,1004.79 488.746,1015.13 489,1025.5C 481.108,1030.6 472.442,1033.26 463,1033.5C 459.131,1032.77 455.464,1031.43 452,1029.5C 450.339,1018.88 449.172,1008.21 448.5,997.5C 453.135,998.547 457.635,999.88 462,1001.5C 470.295,1002.22 477.129,999.554 482.5,993.5 Z"/></g>
<g><path style="opacity:0.144" fill="#fea361" d="M 132.5,1047.5 C 133.822,1047.33 134.989,1047.66 136,1048.5C 137.746,1058.79 138.746,1069.13 139,1079.5C 136.374,1082.23 133.207,1084.06 129.5,1085C 124.319,1085.79 119.152,1086.63 114,1087.5C 109.944,1087.02 106.111,1085.85 102.5,1084C 100.67,1073.69 99.0031,1063.36 97.5,1053C 98.5,1052.5 99.5,1052 100.5,1051.5C 108.09,1055.88 116.09,1056.71 124.5,1054C 127.355,1051.97 130.022,1049.8 132.5,1047.5 Z"/></g>
<g><path style="opacity:0.145" fill="#fea361" d="M 272.5,1047.5 C 273.822,1047.33 274.989,1047.66 276,1048.5C 277.581,1058.81 278.581,1069.14 279,1079.5C 276.374,1082.23 273.207,1084.06 269.5,1085C 264.319,1085.79 259.152,1086.63 254,1087.5C 249.944,1087.02 246.111,1085.85 242.5,1084C 240.67,1073.69 239.003,1063.36 237.5,1053C 238.5,1052.5 239.5,1052 240.5,1051.5C 248.09,1055.88 256.09,1056.71 264.5,1054C 267.355,1051.97 270.022,1049.8 272.5,1047.5 Z"/></g>
<g><path style="opacity:0.144" fill="#fea361" d="M 412.5,1047.5 C 413.822,1047.33 414.989,1047.66 416,1048.5C 417.581,1058.81 418.581,1069.14 419,1079.5C 416.374,1082.23 413.207,1084.06 409.5,1085C 404.319,1085.79 399.152,1086.63 394,1087.5C 389.944,1087.02 386.111,1085.85 382.5,1084C 380.713,1073.88 379.047,1063.71 377.5,1053.5C 378.328,1052.59 379.328,1051.92 380.5,1051.5C 388.09,1055.88 396.09,1056.71 404.5,1054C 407.355,1051.97 410.022,1049.8 412.5,1047.5 Z"/></g>
<g><path style="opacity:0.144" fill="#fea361" d="M 559.5,1072.5 C 559.5,1074.83 559.5,1077.17 559.5,1079.5C 556.644,1082.1 553.311,1083.93 549.5,1085C 544.319,1085.79 539.152,1086.63 534,1087.5C 529.944,1087.02 526.111,1085.85 522.5,1084C 520.713,1073.88 519.047,1063.71 517.5,1053.5C 518.328,1052.59 519.328,1051.92 520.5,1051.5C 528.09,1055.88 536.09,1056.71 544.5,1054C 547.403,1051.43 550.569,1049.26 554,1047.5C 554.945,1047.91 555.612,1048.57 556,1049.5C 556.935,1057.35 558.102,1065.01 559.5,1072.5 Z"/></g>
<g><path style="opacity:0.144" fill="#fea361" d="M 202.5,1068.5 C 203.822,1068.33 204.989,1068.66 206,1069.5C 207.746,1079.79 208.746,1090.13 209,1100.5C 206.592,1102.96 203.759,1104.79 200.5,1106C 193.519,1107.14 186.686,1107.98 180,1108.5C 177.26,1107.86 174.76,1106.69 172.5,1105C 170.308,1094.63 169.141,1084.13 169,1073.5C 169.414,1073.04 169.914,1072.71 170.5,1072.5C 178.897,1077.31 187.564,1077.81 196.5,1074C 198.396,1071.93 200.396,1070.1 202.5,1068.5 Z"/></g>
<g><path style="opacity:0.144" fill="#fea361" d="M 342.5,1068.5 C 343.822,1068.33 344.989,1068.66 346,1069.5C 347.746,1079.79 348.746,1090.13 349,1100.5C 346.592,1102.96 343.759,1104.79 340.5,1106C 333.519,1107.14 326.686,1107.98 320,1108.5C 317.26,1107.86 314.76,1106.69 312.5,1105C 310.833,1094.67 309.167,1084.33 307.5,1074C 308.5,1073.5 309.5,1073 310.5,1072.5C 318.897,1077.31 327.564,1077.81 336.5,1074C 338.396,1071.93 340.396,1070.1 342.5,1068.5 Z"/></g>
<g><path style="opacity:0.144" fill="#fea361" d="M 482.5,1068.5 C 483.822,1068.33 484.989,1068.66 486,1069.5C 487.746,1079.79 488.746,1090.13 489,1100.5C 486.374,1103.23 483.207,1105.06 479.5,1106C 472.866,1107.24 466.366,1108.07 460,1108.5C 457.26,1107.86 454.76,1106.69 452.5,1105C 450.833,1094.67 449.167,1084.33 447.5,1074C 448.5,1073.5 449.5,1073 450.5,1072.5C 458.897,1077.31 467.564,1077.81 476.5,1074C 478.396,1071.93 480.396,1070.1 482.5,1068.5 Z"/></g>
<g><path style="opacity:0.144" fill="#fea361" d="M 62.5,1068.5 C 63.8221,1068.33 64.9887,1068.66 66,1069.5C 67.91,1079.77 68.91,1090.11 69,1100.5C 66.5925,1102.96 63.7591,1104.79 60.5,1106C 53.5305,1107.23 46.6972,1108.06 40,1108.5C 37.9777,1107.21 35.8111,1106.21 33.5,1105.5C 31.8893,1102.78 31.056,1099.78 31,1096.5C 29.6692,1088.86 29.0025,1081.2 29,1073.5C 29.414,1073.04 29.914,1072.71 30.5,1072.5C 38.8975,1077.31 47.5641,1077.81 56.5,1074C 58.3962,1071.93 60.3962,1070.1 62.5,1068.5 Z"/></g>
<g><path style="opacity:0.144" fill="#fea361" d="M 133.5,1115.5 C 134.458,1115.95 135.292,1116.62 136,1117.5C 137.828,1127.45 138.828,1137.45 139,1147.5C 134.436,1151.92 128.936,1154.42 122.5,1155C 117.465,1155.38 112.632,1155.55 108,1155.5C 105.828,1154.41 103.828,1153.08 102,1151.5C 100.257,1141.22 99.0904,1130.89 98.5,1120.5C 103.084,1121.53 107.584,1122.86 112,1124.5C 120.73,1124.88 127.897,1121.88 133.5,1115.5 Z"/></g>
<g><path style="opacity:0.144" fill="#fea361" d="M 273.5,1115.5 C 274.458,1115.95 275.292,1116.62 276,1117.5C 277.663,1127.47 278.663,1137.47 279,1147.5C 274.436,1151.92 268.936,1154.42 262.5,1155C 257.465,1155.38 252.632,1155.55 248,1155.5C 245.828,1154.41 243.828,1153.08 242,1151.5C 240.257,1141.23 239.091,1130.89 238.5,1120.5C 243.084,1121.53 247.584,1122.86 252,1124.5C 260.73,1124.88 267.897,1121.88 273.5,1115.5 Z"/></g>
<g><path style="opacity:0.145" fill="#fea361" d="M 413.5,1115.5 C 414.458,1115.95 415.292,1116.62 416,1117.5C 417.663,1127.47 418.663,1137.47 419,1147.5C 414.436,1151.92 408.936,1154.42 402.5,1155C 397.465,1155.38 392.632,1155.55 388,1155.5C 386.22,1154.41 384.386,1153.41 382.5,1152.5C 380.348,1141.95 379.014,1131.28 378.5,1120.5C 383.084,1121.53 387.584,1122.86 392,1124.5C 400.73,1124.88 407.897,1121.88 413.5,1115.5 Z"/></g>
<g><path style="opacity:0.144" fill="#fea361" d="M 559.5,1140.5 C 559.5,1142.83 559.5,1145.17 559.5,1147.5C 554.729,1151.82 549.062,1154.32 542.5,1155C 537.465,1155.38 532.632,1155.55 528,1155.5C 526.806,1154.57 525.473,1153.9 524,1153.5C 522.139,1152.39 521.305,1150.72 521.5,1148.5C 520.006,1139.21 519.006,1129.88 518.5,1120.5C 523.084,1121.53 527.584,1122.86 532,1124.5C 536.563,1123.95 541.063,1123.12 545.5,1122C 548.333,1119.83 551.167,1117.67 554,1115.5C 554.667,1116.17 555.333,1116.83 556,1117.5C 556.935,1125.35 558.102,1133.01 559.5,1140.5 Z"/></g>
<g><path style="opacity:0.144" fill="#fea361" d="M 64.5,1137.5 C 65.7251,1138.15 66.3917,1139.32 66.5,1141C 68.3708,1152.13 69.5374,1163.29 70,1174.5C 67.2458,1176.13 64.4125,1177.63 61.5,1179C 54.0002,1180.19 46.6669,1181.02 39.5,1181.5C 37.4595,1180.76 35.4595,1179.93 33.5,1179C 31.2207,1166.71 29.2207,1154.38 27.5,1142C 32.026,1143.06 36.526,1144.56 41,1146.5C 50.2107,1146.65 58.0441,1143.65 64.5,1137.5 Z"/></g>
<g><path style="opacity:0.144" fill="#fea361" d="M 203.5,1136.5 C 205.453,1137.24 206.453,1138.74 206.5,1141C 208.292,1150.48 208.959,1159.98 208.5,1169.5C 203.79,1173.13 198.457,1175.29 192.5,1176C 187.465,1176.38 182.632,1176.55 178,1176.5C 175.828,1175.41 173.828,1174.08 172,1172.5C 170.41,1162.21 169.243,1151.87 168.5,1141.5C 173.084,1142.53 177.584,1143.86 182,1145.5C 190.73,1145.88 197.897,1142.88 203.5,1136.5 Z"/></g>
<g><path style="opacity:0.144" fill="#fea361" d="M 343.5,1136.5 C 345.511,1137.42 346.511,1139.08 346.5,1141.5C 347.623,1149.32 348.623,1157.15 349.5,1165C 349.194,1168.85 347.194,1171.52 343.5,1173C 340.043,1174.74 336.377,1175.74 332.5,1176C 327.465,1176.38 322.632,1176.55 318,1176.5C 315.828,1175.41 313.828,1174.08 312,1172.5C 310.41,1162.21 309.243,1151.87 308.5,1141.5C 313.084,1142.53 317.584,1143.86 322,1145.5C 330.73,1145.88 337.897,1142.88 343.5,1136.5 Z"/></g>
<g><path style="opacity:0.144" fill="#fea361" d="M 483.5,1136.5 C 485.511,1137.42 486.511,1139.08 486.5,1141.5C 487.623,1149.32 488.623,1157.15 489.5,1165C 489.194,1168.85 487.194,1171.52 483.5,1173C 480.043,1174.74 476.377,1175.74 472.5,1176C 467.465,1176.38 462.632,1176.55 458,1176.5C 455.828,1175.41 453.828,1174.08 452,1172.5C 450.257,1162.22 449.09,1151.89 448.5,1141.5C 453.084,1142.53 457.584,1143.86 462,1145.5C 470.73,1145.88 477.897,1142.88 483.5,1136.5 Z"/></g>
<g><path style="opacity:0.144" fill="#fea361" d="M 139.5,1210.5 C 126.5,1210.5 113.5,1210.5 100.5,1210.5C 99.8214,1203.58 98.8214,1196.75 97.5,1190C 98.5,1189.5 99.5,1189 100.5,1188.5C 108.09,1192.88 116.09,1193.71 124.5,1191C 127.403,1188.43 130.569,1186.26 134,1184.5C 134.772,1184.64 135.439,1184.98 136,1185.5C 137.034,1193.9 138.2,1202.24 139.5,1210.5 Z"/></g>
<g><path style="opacity:0.144" fill="#fea361" d="M 279.5,1210.5 C 266.5,1210.5 253.5,1210.5 240.5,1210.5C 239.783,1203.59 238.783,1196.76 237.5,1190C 238.5,1189.5 239.5,1189 240.5,1188.5C 248.053,1192.88 256.053,1193.71 264.5,1191C 267.403,1188.43 270.569,1186.26 274,1184.5C 274.772,1184.64 275.439,1184.98 276,1185.5C 276.926,1193.92 278.093,1202.25 279.5,1210.5 Z"/></g>
<g><path style="opacity:0.145" fill="#fea361" d="M 419.5,1210.5 C 406.5,1210.5 393.5,1210.5 380.5,1210.5C 379.783,1203.59 378.783,1196.76 377.5,1190C 378.5,1189.5 379.5,1189 380.5,1188.5C 388.053,1192.88 396.053,1193.71 404.5,1191C 407.403,1188.43 410.569,1186.26 414,1184.5C 414.772,1184.64 415.439,1184.98 416,1185.5C 416.926,1193.92 418.093,1202.25 419.5,1210.5 Z"/></g>
<g><path style="opacity:0.144" fill="#fea361" d="M 559.5,1209.5 C 559.5,1209.83 559.5,1210.17 559.5,1210.5C 546.5,1210.5 533.5,1210.5 520.5,1210.5C 519.826,1203.78 518.826,1197.11 517.5,1190.5C 518.328,1189.59 519.328,1188.92 520.5,1188.5C 528.045,1192.94 536.045,1193.78 544.5,1191C 547.403,1188.43 550.569,1186.26 554,1184.5C 554.945,1184.91 555.612,1185.57 556,1186.5C 556.935,1194.35 558.102,1202.01 559.5,1209.5 Z"/></g>
<g><path style="opacity:0.13" fill="#fea360" d="M 206.5,1210.5 C 200.833,1210.5 195.167,1210.5 189.5,1210.5C 191.74,1209.74 194.073,1208.9 196.5,1208C 199.075,1204.62 202.242,1203.12 206,1203.5C 206.497,1205.81 206.663,1208.14 206.5,1210.5 Z"/></g>
<g><path style="opacity:0.134" fill="#fea360" d="M 346.5,1210.5 C 340.833,1210.5 335.167,1210.5 329.5,1210.5C 331.74,1209.74 334.073,1208.9 336.5,1208C 339.075,1204.62 342.242,1203.12 346,1203.5C 346.497,1205.81 346.663,1208.14 346.5,1210.5 Z"/></g>
<g><path style="opacity:0.13" fill="#fea361" d="M 486.5,1210.5 C 480.833,1210.5 475.167,1210.5 469.5,1210.5C 471.74,1209.74 474.073,1208.9 476.5,1208C 479.075,1204.62 482.242,1203.12 486,1203.5C 486.497,1205.81 486.663,1208.14 486.5,1210.5 Z"/></g>
<g><path style="opacity:0.129" fill="#fea261" d="M 66.5,1210.5 C 62.8333,1210.5 59.1667,1210.5 55.5,1210.5C 58.5012,1207.51 61.8346,1204.84 65.5,1202.5C 66.48,1205.09 66.8134,1207.75 66.5,1210.5 Z"/></g>
<g><path style="opacity:0.119" fill="#fea461" d="M 177.5,1210.5 C 174.5,1210.5 171.5,1210.5 168.5,1210.5C 168.312,1208.9 168.812,1207.56 170,1206.5C 172.769,1207.47 175.269,1208.8 177.5,1210.5 Z"/></g>
<g><path style="opacity:0.127" fill="#fea362" d="M 317.5,1210.5 C 314.5,1210.5 311.5,1210.5 308.5,1210.5C 308.312,1208.9 308.812,1207.56 310,1206.5C 312.769,1207.47 315.269,1208.8 317.5,1210.5 Z"/></g>
<g><path style="opacity:0.127" fill="#fea461" d="M 457.5,1210.5 C 454.5,1210.5 451.5,1210.5 448.5,1210.5C 448.312,1208.9 448.812,1207.56 450,1206.5C 452.769,1207.47 455.269,1208.8 457.5,1210.5 Z"/></g>
<g><path style="opacity:0.119" fill="#fea15e" d="M 34.5,1210.5 C 32.5,1210.5 30.5,1210.5 28.5,1210.5C 27.913,1209.23 27.913,1208.23 28.5,1207.5C 30.9192,1207.91 32.9192,1208.91 34.5,1210.5 Z"/></g>
</svg>
