<?xml version="1.0" encoding="UTF-8"?>
<!DOCTYPE svg PUBLIC "-//W3C//DTD SVG 1.1//EN" "http://www.w3.org/Graphics/SVG/1.1/DTD/svg11.dtd">
<svg xmlns="http://www.w3.org/2000/svg" version="1.1" width="500px" height="500px" style="shape-rendering:geometricPrecision; text-rendering:geometricPrecision; image-rendering:optimizeQuality; fill-rule:evenodd; clip-rule:evenodd" xmlns:xlink="http://www.w3.org/1999/xlink">
<g><path style="opacity:0.989" fill="#2c2c2c" d="M 205.5,153.5 C 219.818,154.833 234.484,155.499 249.5,155.5C 264.167,155.333 278.833,155.167 293.5,155C 294.942,154.623 295.942,153.79 296.5,152.5C 312.998,141.747 329.998,131.747 347.5,122.5C 351.486,120.119 355.82,119.119 360.5,119.5C 362.371,119.859 363.871,120.859 365,122.5C 366.237,126.06 366.737,129.727 366.5,133.5C 365.184,136.087 364.517,139.087 364.5,142.5C 364.348,169.134 364.682,195.801 365.5,222.5C 365.5,242.833 365.5,263.167 365.5,283.5C 361.972,288.022 358.305,292.522 354.5,297C 351.518,297.498 348.518,297.665 345.5,297.5C 346.041,246.474 346.541,195.474 347,144.5C 330.892,154.136 314.726,163.636 298.5,173C 265.833,173.667 233.167,173.667 200.5,173C 184.279,163.638 168.112,154.138 152,144.5C 151.5,158.829 151.333,173.163 151.5,187.5C 150.292,186.766 148.959,186.433 147.5,186.5C 146.374,173.924 141.707,162.924 133.5,153.5C 133.334,143.161 133.5,132.828 134,122.5C 139.035,117.768 144.535,117.268 150.5,121C 168.861,131.845 187.194,142.678 205.5,153.5 Z"/></g>
<g><path style="opacity:0.378" fill="#232323" d="M 360.5,119.5 C 355.82,119.119 351.486,120.119 347.5,122.5C 351.231,118.663 355.565,117.663 360.5,119.5 Z"/></g>
<g><path style="opacity:0.978" fill="#000000" d="M 133.5,153.5 C 141.707,162.924 146.374,173.924 147.5,186.5C 148.959,186.433 150.292,186.766 151.5,187.5C 162.975,189.891 168.975,197.058 169.5,209C 168.703,220.623 162.703,227.79 151.5,230.5C 145.31,230.177 139.31,230.51 133.5,231.5C 105.791,231.957 78.1241,231.457 50.5,230C 35.7101,224.53 27.7101,213.863 26.5,198C 29.2083,174.963 42.2083,163.63 65.5,164C 80.4147,143.767 99.748,138.1 123.5,147C 126.986,148.996 130.319,151.163 133.5,153.5 Z"/></g>
<g><path style="opacity:0.509" fill="#1c1c1c" d="M 296.5,152.5 C 295.942,153.79 294.942,154.623 293.5,155C 278.833,155.167 264.167,155.333 249.5,155.5C 234.484,155.499 219.818,154.833 205.5,153.5C 235.877,153.818 266.21,153.485 296.5,152.5 Z"/></g>
<g><path style="opacity:0.399" fill="#282828" d="M 366.5,133.5 C 365.953,163.164 365.62,192.83 365.5,222.5C 364.682,195.801 364.348,169.134 364.5,142.5C 364.517,139.087 365.184,136.087 366.5,133.5 Z"/></g>
<g><path style="opacity:0.986" fill="#2d2d2d" d="M 151.5,230.5 C 151.167,253.51 151.5,276.51 152.5,299.5C 163.23,308.62 175.397,314.287 189,316.5C 192,317.5 195,318.5 198,319.5C 198.333,319.167 198.667,318.833 199,318.5C 200.079,320.394 201.413,320.727 203,319.5C 207.762,320.656 212.595,321.656 217.5,322.5C 238.007,323.821 258.507,323.821 279,322.5C 292.743,320.449 306.576,317.449 320.5,313.5C 317.219,320.445 315.553,327.779 315.5,335.5C 312.833,335.833 310.167,336.167 307.5,336.5C 299.262,337.191 291.262,338.524 283.5,340.5C 271.993,341.976 260.16,342.643 248,342.5C 237.287,342.702 226.787,342.035 216.5,340.5C 203.546,338.578 190.546,336.245 177.5,333.5C 162.217,330.365 149.217,323.365 138.5,312.5C 136.55,309.594 134.883,306.594 133.5,303.5C 133.5,279.5 133.5,255.5 133.5,231.5C 139.31,230.51 145.31,230.177 151.5,230.5 Z"/></g>
<g><path style="opacity:0.934" fill="#000000" d="M 191.5,236.5 C 193.199,236.34 194.866,236.506 196.5,237C 200,240.5 203.5,244 207,247.5C 210.79,243.031 215.124,239.364 220,236.5C 227.346,238.486 230.679,243.153 230,250.5C 226.651,253.682 223.484,257.015 220.5,260.5C 223.484,263.985 226.651,267.318 230,270.5C 230.688,277.665 227.521,282.332 220.5,284.5C 215.301,281.812 210.801,278.145 207,273.5C 203.199,278.145 198.699,281.812 193.5,284.5C 186.479,282.332 183.312,277.665 184,270.5C 187.349,267.318 190.516,263.985 193.5,260.5C 190.516,257.015 187.349,253.682 184,250.5C 183.333,248.167 183.333,245.833 184,243.5C 186.396,240.933 188.896,238.6 191.5,236.5 Z"/></g>
<g><path style="opacity:0.934" fill="#000000" d="M 276.5,236.5 C 278.655,236.372 280.655,236.872 282.5,238C 285.667,241.167 288.833,244.333 292,247.5C 295.5,244 299,240.5 302.5,237C 307.482,236.24 311.315,238.073 314,242.5C 315.373,244.695 315.706,247.029 315,249.5C 312.02,253.314 308.854,256.981 305.5,260.5C 308.484,263.985 311.651,267.318 315,270.5C 315.667,272.5 315.667,274.5 315,276.5C 312.5,279 310,281.5 307.5,284C 305.365,284.635 303.365,284.301 301.5,283C 298.333,279.833 295.167,276.667 292,273.5C 288.199,278.145 283.699,281.812 278.5,284.5C 273.381,282.548 269.714,279.048 267.5,274C 267.862,272.775 268.362,271.609 269,270.5C 272.349,267.318 275.516,263.985 278.5,260.5C 275.516,257.015 272.349,253.682 269,250.5C 267,248.167 267,245.833 269,243.5C 271.396,240.933 273.896,238.6 276.5,236.5 Z"/></g>
<g><path style="opacity:0.986" fill="#000000" d="M 315.5,335.5 C 315.553,327.779 317.219,320.445 320.5,313.5C 326.006,303.905 334.339,298.572 345.5,297.5C 348.518,297.665 351.518,297.498 354.5,297C 358.305,292.522 361.972,288.022 365.5,283.5C 382.154,273.512 399.154,273.012 416.5,282C 429.473,291.051 436.14,303.551 436.5,319.5C 450.322,320.49 457.656,327.99 458.5,342C 457.489,352.381 452.155,359.381 442.5,363C 408.833,363.667 375.167,363.667 341.5,363C 327.126,359.128 318.459,349.962 315.5,335.5 Z"/></g>
<g><path style="opacity:0.594" fill="#222222" d="M 133.5,303.5 C 134.883,306.594 136.55,309.594 138.5,312.5C 134.757,310.735 133.09,307.735 133.5,303.5 Z"/></g>
<g><path style="opacity:0.582" fill="#222222" d="M 177.5,333.5 C 190.546,336.245 203.546,338.578 216.5,340.5C 210.718,341.224 204.718,340.557 198.5,338.5C 196.939,339.347 195.439,339.014 194,337.5C 193.667,337.833 193.333,338.167 193,338.5C 187.672,337.049 182.505,335.382 177.5,333.5 Z"/></g>
<g><path style="opacity:0.343" fill="#222222" d="M 307.5,336.5 C 300.081,338.289 292.248,339.955 284,341.5C 283.601,341.272 283.435,340.938 283.5,340.5C 291.262,338.524 299.262,337.191 307.5,336.5 Z"/></g>
</svg>
