<?xml version="1.0" encoding="UTF-8"?>
<!DOCTYPE svg PUBLIC "-//W3C//DTD SVG 1.1//EN" "http://www.w3.org/Graphics/SVG/1.1/DTD/svg11.dtd">
<svg xmlns="http://www.w3.org/2000/svg" version="1.1" width="1000px" height="1000px" style="shape-rendering:geometricPrecision; text-rendering:geometricPrecision; image-rendering:optimizeQuality; fill-rule:evenodd; clip-rule:evenodd" xmlns:xlink="http://www.w3.org/1999/xlink">
<g><path style="opacity:0.999" fill="#4c15ba" d="M 999.5,44.5 C 999.5,44.8333 999.5,45.1667 999.5,45.5C 998.167,45.8333 998.167,46.1667 999.5,46.5C 999.5,102.833 999.5,159.167 999.5,215.5C 998.167,218.833 998.167,222.167 999.5,225.5C 999.5,238.167 999.5,250.833 999.5,263.5C 997.2,309.322 996.867,355.322 998.5,401.5C 998.369,418.687 997.703,435.854 996.5,453C 996.316,484.826 996.649,516.66 997.5,548.5C 997.154,566.014 996.488,583.514 995.5,601C 996.07,609.155 996.403,617.322 996.5,625.5C 995.239,655.82 994.572,686.154 994.5,716.5C 995.408,751.027 995.408,785.193 994.5,819C 993.624,820.586 992.624,822.086 991.5,823.5C 991.694,825.07 991.694,826.57 991.5,828C 989.606,829.101 988.939,830.434 989.5,832C 986.351,834.735 984.351,837.735 983.5,841C 982.552,841.483 981.552,841.649 980.5,841.5C 980.649,842.552 980.483,843.552 980,844.5C 973.439,850.636 967.439,856.636 962,862.5C 961.667,862.167 961.333,861.833 961,861.5C 956.712,865.479 952.379,869.479 948,873.5C 947.667,873.167 947.333,872.833 947,872.5C 943.243,877.554 938.243,881.221 932,883.5C 931.581,884.672 930.915,885.672 930,886.5C 929,886.5 928,886.5 927,886.5C 926.626,887.416 926.126,888.25 925.5,889C 922.369,890.482 919.535,892.315 917,894.5C 916.667,894.167 916.333,893.833 916,893.5C 912.703,896.213 909.703,898.547 907,900.5C 906.667,900.167 906.333,899.833 906,899.5C 903.667,901.167 901.333,902.833 899,904.5C 898.667,904.167 898.333,903.833 898,903.5C 894.333,905.833 890.667,908.167 887,910.5C 886.586,910.043 886.086,909.709 885.5,909.5C 884.667,910.5 883.833,911.5 883,912.5C 881.667,912.5 880.333,912.5 879,912.5C 876.031,914.707 872.864,916.707 869.5,918.5C 868.914,918.291 868.414,917.957 868,917.5C 867.333,918.833 866.333,919.833 865,920.5C 863.667,920.5 862.333,920.5 861,920.5C 860,921.5 859,922.5 858,923.5C 856.403,923.36 854.903,923.36 853.5,923.5C 848.695,925.74 843.862,928.073 839,930.5C 838.586,930.043 838.086,929.709 837.5,929.5C 836.481,930.687 835.314,931.687 834,932.5C 833.667,932.167 833.333,931.833 833,931.5C 828.542,933.2 824.209,935.2 820,937.5C 818.211,937.623 816.378,937.623 814.5,937.5C 813.481,938.687 812.314,939.687 811,940.5C 809.211,940.623 807.378,940.623 805.5,940.5C 804.086,941.624 802.586,942.624 801,943.5C 799.073,943.761 797.073,943.761 795,943.5C 793.444,944.62 791.944,945.62 790.5,946.5C 789.833,946.167 789.167,945.833 788.5,945.5C 785.29,945.627 782.29,946.961 779.5,949.5C 777.939,948.653 776.439,948.986 775,950.5C 773.708,949.209 772.542,949.209 771.5,950.5C 770.603,951.598 769.77,951.598 769,950.5C 768.323,952.689 767.156,953.022 765.5,951.5C 763.332,953.455 760.998,954.121 758.5,953.5C 757.252,954.04 756.085,954.707 755,955.5C 752.551,955.063 750.217,955.063 748,955.5C 747.692,956.308 747.192,956.975 746.5,957.5C 745.284,956.998 744.117,956.665 743,956.5C 742.333,957.167 741.667,957.833 741,958.5C 739.612,957.446 738.112,957.28 736.5,958C 735.109,959.02 733.609,959.853 732,960.5C 730.602,959.949 729.268,959.616 728,959.5C 726.532,961.816 724.699,962.149 722.5,960.5C 720.289,961.685 717.955,962.685 715.5,963.5C 713.899,962.835 712.399,962.501 711,962.5C 709.532,964.816 707.699,965.149 705.5,963.5C 702.634,964.889 699.967,965.889 697.5,966.5C 695.549,965.744 693.716,965.411 692,965.5C 690.372,967.712 688.372,968.046 686,966.5C 682.933,967.968 679.933,968.968 677,969.5C 673.12,968.65 669.454,968.65 666,969.5C 665.311,970.357 664.478,971.023 663.5,971.5C 661.275,970.899 659.109,970.566 657,970.5C 654.841,972.65 652.341,972.983 649.5,971.5C 645.468,973.035 641.468,974.035 637.5,974.5C 634.968,974.086 632.468,973.752 630,973.5C 628.806,974.43 627.473,975.097 626,975.5C 620.518,974.62 615.185,974.62 610,975.5C 608.687,976.573 607.187,977.24 605.5,977.5C 601.928,976.747 598.428,976.413 595,976.5C 590.526,978.622 585.859,978.955 581,977.5C 572.605,978.983 564.272,979.983 556,980.5C 514.667,980.491 473.334,980.491 432,980.5C 422.897,979.959 413.73,978.959 404.5,977.5C 399.475,978.89 394.641,978.557 390,976.5C 386.226,976.536 382.392,976.869 378.5,977.5C 376.945,977.278 375.611,976.611 374.5,975.5C 368.959,974.614 363.292,974.614 357.5,975.5C 355.971,975.471 354.804,974.804 354,973.5C 351.38,973.657 348.713,973.991 346,974.5C 344.715,974.05 343.548,973.383 342.5,972.5C 338.521,971.617 334.355,971.617 330,972.5C 326.957,970.941 323.791,970.607 320.5,971.5C 317.654,970.601 314.82,969.601 312,968.5C 310.284,968.411 308.451,968.744 306.5,969.5C 305.522,969.023 304.689,968.357 304,967.5C 301.063,966.589 297.897,966.589 294.5,967.5C 293.522,967.023 292.689,966.357 292,965.5C 290.601,965.501 289.101,965.835 287.5,966.5C 286.522,966.023 285.689,965.357 285,964.5C 282.385,963.689 279.552,963.689 276.5,964.5C 275.522,964.023 274.689,963.357 274,962.5C 270.302,963.914 266.635,963.247 263,960.5C 259.966,959.772 257.133,959.772 254.5,960.5C 252.172,959.783 250.005,958.783 248,957.5C 246.124,959.123 244.79,958.79 244,956.5C 240.726,957.685 237.393,957.018 234,954.5C 231.682,954.516 229.349,954.516 227,954.5C 225.013,953.782 223.179,952.782 221.5,951.5C 219.519,952.089 217.519,951.755 215.5,950.5C 214.687,949.347 213.687,949.347 212.5,950.5C 211.251,948.525 209.751,948.191 208,949.5C 205.247,946.942 202.247,945.608 199,945.5C 197.354,947.141 196.354,946.807 196,944.5C 195.667,944.833 195.333,945.167 195,945.5C 194.311,944.643 193.478,943.977 192.5,943.5C 190.622,943.623 188.789,943.623 187,943.5C 185.414,942.624 183.914,941.624 182.5,940.5C 180.622,940.623 178.789,940.623 177,940.5C 176.683,938.699 176.016,938.366 175,939.5C 174.692,938.692 174.192,938.025 173.5,937.5C 171.622,937.623 169.789,937.623 168,937.5C 166.686,936.687 165.519,935.687 164.5,934.5C 163.914,934.709 163.414,935.043 163,935.5C 160.379,934.387 157.879,933.054 155.5,931.5C 154.914,931.709 154.414,932.043 154,932.5C 152.757,930.167 151.091,929.5 149,930.5C 146.731,930.067 144.564,928.734 142.5,926.5C 140.93,926.694 139.43,926.694 138,926.5C 137,925.5 136,924.5 135,923.5C 133.667,923.5 132.333,923.5 131,923.5C 129.667,922.833 128.667,921.833 128,920.5C 127.586,920.957 127.086,921.291 126.5,921.5C 124.441,920.433 122.608,919.1 121,917.5C 119.667,917.5 118.333,917.5 117,917.5C 114.734,915.766 112.568,914.1 110.5,912.5C 107.876,913.116 105.709,912.116 104,909.5C 103.667,909.833 103.333,910.167 103,910.5C 100.379,908.436 98.0454,906.769 96,905.5C 95.6667,905.833 95.3333,906.167 95,906.5C 93.3987,904.028 91.3987,903.028 89,903.5C 84.6278,899.949 79.4611,896.782 73.5,894C 72.8742,893.25 72.3742,892.416 72,891.5C 70.4419,892.345 69.4419,891.679 69,889.5C 68,889.5 67,889.5 66,889.5C 55.1643,880.486 44.331,872.32 33.5,865C 21.8851,854.213 11.8851,843.213 3.5,832C 3.83333,831.667 4.16667,831.333 4.5,831C 1.78619,829.003 0.786192,826.503 1.5,823.5C 1.14451,822.478 0.477842,821.811 -0.5,821.5C -0.5,821.167 -0.5,820.833 -0.5,820.5C 0.833333,820.167 0.833333,819.833 -0.5,819.5C -0.5,561.5 -0.5,303.5 -0.5,45.5C 0.376442,45.6309 1.04311,45.2975 1.5,44.5C 1.30618,42.9299 1.30618,41.4299 1.5,40C 4.58687,34.0103 8.75354,28.8436 14,24.5C 14.3333,24.8333 14.6667,25.1667 15,25.5C 17.3526,22.3976 20.0193,20.3976 23,19.5C 24.1475,20.4581 25.1475,20.1247 26,18.5C 26.3333,18.8333 26.6667,19.1667 27,19.5C 35.5372,16.5826 43.8705,16.9159 52,20.5C 53.5655,19.9394 54.8989,20.6061 56,22.5C 57,22.5 58,22.5 59,22.5C 61.8699,25.4645 65.3699,27.6312 69.5,29C 70.1258,29.7504 70.6258,30.5838 71,31.5C 73.3304,30.8438 74.9971,31.8438 76,34.5C 76.3333,34.1667 76.6667,33.8333 77,33.5C 82,36.8333 87,40.1667 92,43.5C 92.3333,43.1667 92.6667,42.8333 93,42.5C 93.4419,44.6785 94.4419,45.3452 96,44.5C 98.9693,46.8681 101.969,49.2015 105,51.5C 107.33,50.8438 108.997,51.8438 110,54.5C 111.558,53.6548 112.558,54.3215 113,56.5C 113.333,56.1667 113.667,55.8333 114,55.5C 122.73,61.3933 132.23,66.8933 142.5,72C 143.126,72.7504 143.626,73.5838 144,74.5C 145.558,73.6548 146.558,74.3215 147,76.5C 148,76.5 149,76.5 150,76.5C 150.915,77.3279 151.581,78.3279 152,79.5C 157.777,81.0706 163.11,84.0706 168,88.5C 169.558,87.6548 170.558,88.3215 171,90.5C 172,90.5 173,90.5 174,90.5C 174.915,91.3279 175.581,92.3279 176,93.5C 177,93.5 178,93.5 179,93.5C 179.915,94.3279 180.581,95.3279 181,96.5C 182,96.5 183,96.5 184,96.5C 184.915,97.3279 185.581,98.3279 186,99.5C 186.333,99.1667 186.667,98.8333 187,98.5C 197.996,106.273 208.496,112.44 218.5,117C 220.676,118.119 222.843,119.952 225,122.5C 225.333,122.167 225.667,121.833 226,121.5C 228.225,122.939 230.225,124.606 232,126.5C 232.333,126.167 232.667,125.833 233,125.5C 234.667,127.167 236.333,128.833 238,130.5C 238.333,130.167 238.667,129.833 239,129.5C 242.415,132.107 245.749,134.44 249,136.5C 250,136.5 251,136.5 252,136.5C 252.915,137.328 253.581,138.328 254,139.5C 256.33,138.844 257.997,139.844 259,142.5C 260.558,141.655 261.558,142.321 262,144.5C 262.333,144.167 262.667,143.833 263,143.5C 264.171,144.893 265.671,145.727 267.5,146C 269.166,146.997 270.666,148.497 272,150.5C 272.333,150.167 272.667,149.833 273,149.5C 278.162,152.655 283.162,155.988 288,159.5C 289.558,158.655 290.558,159.321 291,161.5C 292,161.5 293,161.5 294,161.5C 294.915,162.328 295.581,163.328 296,164.5C 296.333,164.167 296.667,163.833 297,163.5C 302.192,166.322 306.692,169.322 310.5,172.5C 436.167,173.833 561.833,173.833 687.5,172.5C 693.381,169.054 699.881,165.054 707,160.5C 707.333,160.833 707.667,161.167 708,161.5C 708.442,159.321 709.442,158.655 711,159.5C 712.003,156.844 713.67,155.844 716,156.5C 717.003,153.844 718.67,152.844 721,153.5C 722.333,152.167 723.667,150.833 725,149.5C 725.333,149.833 725.667,150.167 726,150.5C 735.997,143.938 745.33,137.938 754,132.5C 754.333,132.833 754.667,133.167 755,133.5C 756.333,132.167 757.667,130.833 759,129.5C 759.333,129.833 759.667,130.167 760,130.5C 760.442,128.321 761.442,127.655 763,128.5C 767.89,124.071 773.223,121.071 779,119.5C 779.419,118.328 780.085,117.328 781,116.5C 782,116.5 783,116.5 784,116.5C 784.419,115.328 785.085,114.328 786,113.5C 787,113.5 788,113.5 789,113.5C 790.333,112.167 791.667,110.833 793,109.5C 793.333,109.833 793.667,110.167 794,110.5C 794.442,108.321 795.442,107.655 797,108.5C 798.507,106.992 800.173,105.659 802,104.5C 802.333,104.833 802.667,105.167 803,105.5C 803.442,103.321 804.442,102.655 806,103.5C 807.775,101.606 809.775,99.9389 812,98.5C 812.333,98.8333 812.667,99.1667 813,99.5C 814.012,97.1358 815.345,95.8024 817,95.5C 817.333,95.8333 817.667,96.1667 818,96.5C 818.419,95.3279 819.085,94.3279 820,93.5C 821,93.5 822,93.5 823,93.5C 824.003,90.8438 825.67,89.8438 828,90.5C 828.442,88.3215 829.442,87.6548 831,88.5C 832.351,87.0394 833.851,85.706 835.5,84.5C 836.086,84.7093 836.586,85.0426 837,85.5C 837.442,83.3215 838.442,82.6548 840,83.5C 842.699,80.8034 845.699,78.4701 849,76.5C 850.016,77.6341 850.683,77.3008 851,75.5C 851.333,75.8333 851.667,76.1667 852,76.5C 854.242,75.063 856.575,73.063 859,70.5C 863.713,68.7254 868.38,66.0587 873,62.5C 873.333,62.8333 873.667,63.1667 874,63.5C 876.699,60.8034 879.699,58.4701 883,56.5C 884,56.5 885,56.5 886,56.5C 886.442,54.3215 887.442,53.6548 889,54.5C 890.003,51.8438 891.67,50.8438 894,51.5C 894.374,50.5838 894.874,49.7504 895.5,49C 898.547,48.3562 901.047,46.8562 903,44.5C 904.566,45.0606 905.899,44.3939 907,42.5C 907.333,42.8333 907.667,43.1667 908,43.5C 908.442,41.3215 909.442,40.6548 911,41.5C 922.59,34.7615 934.257,27.4281 946,19.5C 947.395,20.8146 948.395,20.4812 949,18.5C 949.333,18.8333 949.667,19.1667 950,19.5C 958.319,16.7036 966.485,17.037 974.5,20.5C 975.965,19.3913 976.965,19.8913 977.5,22C 983.359,23.852 988.526,27.352 993,32.5C 995.119,37.1121 997.286,41.1121 999.5,44.5 Z"/></g>
<g><path style="opacity:0.004" fill="#1f1051" d="M 999.5,310.5 C 999.5,316.833 999.5,323.167 999.5,329.5C 998.167,323.167 998.167,316.833 999.5,310.5 Z"/></g>
<g><path style="opacity:0.004" fill="#000000" d="M 995.5,691.5 C 996.641,694.64 996.808,697.973 996,701.5C 995.502,698.183 995.335,694.85 995.5,691.5 Z"/></g>
<g><path style="opacity:0.004" fill="#000000" d="M 215.5,950.5 C 214.833,951.167 214.833,951.167 215.5,950.5 Z"/></g>
<g><path style="opacity:0.004" fill="#000000" d="M 771.5,950.5 C 772.833,951.167 772.833,951.167 771.5,950.5 Z"/></g>
<g><path style="opacity:0.004" fill="#000000" d="M 279.5,964.5 C 280.833,965.167 280.833,965.167 279.5,964.5 Z"/></g>
<g><path style="opacity:0.004" fill="#000000" d="M 704.5,964.5 C 705.833,965.167 705.833,965.167 704.5,964.5 Z"/></g>
<g><path style="opacity:0.004" fill="#000000" d="M 297.5,968.5 C 297.897,967.475 298.563,967.308 299.5,968C 298.906,968.464 298.239,968.631 297.5,968.5 Z"/></g>
<g><path style="opacity:0.004" fill="#000000" d="M 684.5,967.5 C 685.833,968.167 685.833,968.167 684.5,967.5 Z"/></g>
<g><path style="opacity:0.004" fill="#000000" d="M 406.5,978.5 C 407.833,979.167 407.833,979.167 406.5,978.5 Z"/></g>
<g><path style="opacity:0.004" fill="#000000" d="M 578.5,978.5 C 579.833,979.167 579.833,979.167 578.5,978.5 Z"/></g>
</svg>
