<?xml version="1.0" encoding="UTF-8"?>
<!DOCTYPE svg PUBLIC "-//W3C//DTD SVG 1.1//EN" "http://www.w3.org/Graphics/SVG/1.1/DTD/svg11.dtd">
<svg xmlns="http://www.w3.org/2000/svg" version="1.1" width="500px" height="500px" style="shape-rendering:geometricPrecision; text-rendering:geometricPrecision; image-rendering:optimizeQuality; fill-rule:evenodd; clip-rule:evenodd" xmlns:xlink="http://www.w3.org/1999/xlink">
<g><path style="opacity:0.998" fill="#ffa361" d="M 499.5,19.5 C 499.5,64.8333 499.5,110.167 499.5,155.5C 498.167,155.833 498.167,156.167 499.5,156.5C 499.5,157.5 499.5,158.5 499.5,159.5C 498.167,162.833 498.167,166.167 499.5,169.5C 499.5,182.167 499.5,194.833 499.5,207.5C 498.167,215.5 498.167,223.5 499.5,231.5C 499.5,244.167 499.5,256.833 499.5,269.5C 498.639,275.829 497.973,282.329 497.5,289C 497.481,326.493 497.647,363.993 498,401.5C 496.874,404.77 496.707,407.603 497.5,410C 496.671,411.816 495.837,413.649 495,415.5C 490.889,420.98 486.389,426.147 481.5,431C 473.152,436.375 465.152,442.042 457.5,448C 437.061,458.316 417.561,466.483 399,472.5C 397.853,471.542 396.853,471.875 396,473.5C 395.586,473.043 395.086,472.709 394.5,472.5C 392.362,473.405 390.195,474.405 388,475.5C 386.594,474.332 385.428,474.665 384.5,476.5C 382.694,475.141 381.194,475.475 380,477.5C 377.903,477.694 375.737,477.694 373.5,477.5C 371.208,478.358 368.875,479.358 366.5,480.5C 364.443,479.178 362.61,479.511 361,481.5C 358.902,480.122 357.068,480.456 355.5,482.5C 353.117,481.095 350.95,481.429 349,483.5C 348,483.167 347,482.833 346,482.5C 342.512,483.289 339.012,484.289 335.5,485.5C 332.781,484.138 330.281,484.471 328,486.5C 324.768,485.015 321.768,485.349 319,487.5C 315.289,486.038 311.789,486.371 308.5,488.5C 307.558,488.392 306.725,488.059 306,487.5C 302.744,488.348 299.411,489.015 296,489.5C 262.668,490.806 229.334,490.806 196,489.5C 192.459,488.971 188.959,488.304 185.5,487.5C 184.554,487.987 183.554,488.32 182.5,488.5C 179.389,486.348 176.056,486.015 172.5,487.5C 169.88,485.472 167.047,485.138 164,486.5C 161.57,484.394 158.903,484.061 156,485.5C 153.901,483.466 151.568,483.132 149,484.5C 147.05,482.429 144.883,482.095 142.5,483.5C 141.452,482.617 140.285,481.95 139,481.5C 136.442,481.718 133.942,481.718 131.5,481.5C 130.065,479.599 128.398,479.266 126.5,480.5C 125.065,478.599 123.398,478.266 121.5,479.5C 120.251,477.525 118.751,477.191 117,478.5C 115.921,476.606 114.587,476.273 113,477.5C 110.805,476.405 108.638,475.405 106.5,474.5C 105.038,475.471 103.705,475.138 102.5,473.5C 101.094,474.668 99.9277,474.335 99,472.5C 97.4748,472.112 95.8082,472.112 94,472.5C 93.1475,470.875 92.1475,470.542 91,471.5C 90.1475,469.875 89.1475,469.542 88,470.5C 85.1229,469.544 82.4562,468.211 80,466.5C 78.6667,466.5 77.3333,466.5 76,466.5C 63.64,461.178 50.8067,455.011 37.5,448C 33.0641,445.492 29.5641,442.659 27,439.5C 26.6667,439.833 26.3333,440.167 26,440.5C 25,439.167 24,437.833 23,436.5C 22.6667,436.833 22.3333,437.167 22,437.5C 16.6357,433.156 11.3024,428.156 6,422.5C 3.57658,419.261 1.40991,415.928 -0.5,412.5C -0.5,281.5 -0.5,150.5 -0.5,19.5C 0.316435,17.8564 1.64977,16.6897 3.5,16C 2.54195,14.8525 2.87528,13.8525 4.5,13C 11.6625,8.10742 19.9958,7.44076 29.5,11C 50.6614,23.6555 73.1614,36.8222 97,50.5C 98.0968,52.0526 99.4301,53.386 101,54.5C 102,54.5 103,54.5 104,54.5C 109.46,57.986 114.793,61.6527 120,65.5C 120.333,65.1667 120.667,64.8333 121,64.5C 131.543,71.2609 142.709,78.0942 154.5,85C 217.833,85.6667 281.167,85.6667 344.5,85C 386.627,60.5222 429.794,35.0222 474,8.5C 478.725,7.92581 483.392,8.59248 488,10.5C 489.016,9.36589 489.683,9.69923 490,11.5C 490.333,11.1667 490.667,10.8333 491,10.5C 491.908,12.4386 493.408,13.4386 495.5,13.5C 496.253,15.8798 497.587,17.8798 499.5,19.5 Z"/></g>
</svg>
