<?xml version="1.0" encoding="UTF-8"?>
<!DOCTYPE svg PUBLIC "-//W3C//DTD SVG 1.1//EN" "http://www.w3.org/Graphics/SVG/1.1/DTD/svg11.dtd">
<svg xmlns="http://www.w3.org/2000/svg" version="1.1" width="43px" height="43px" style="shape-rendering:geometricPrecision; text-rendering:geometricPrecision; image-rendering:optimizeQuality; fill-rule:evenodd; clip-rule:evenodd" xmlns:xlink="http://www.w3.org/1999/xlink">
<g><path style="opacity:1" fill="#fafbfe" d="M -0.5,-0.5 C 4.83333,-0.5 10.1667,-0.5 15.5,-0.5C 13.4677,0.0904835 11.4677,1.42382 9.5,3.5C 8.09368,3.97306 7.42702,4.97306 7.5,6.5C 6.83333,6.83333 6.16667,7.16667 5.5,7.5C 2.18421,10.1264 0.184207,13.4597 -0.5,17.5C -0.5,11.5 -0.5,5.5 -0.5,-0.5 Z"/></g>
<g><path style="opacity:1" fill="#fdfdfe" d="M 25.5,-0.5 C 31.1667,-0.5 36.8333,-0.5 42.5,-0.5C 42.5,4.83333 42.5,10.1667 42.5,15.5C 41.8571,13.9236 40.8571,12.5903 39.5,11.5C 39.6716,10.5084 39.3382,9.84171 38.5,9.5C 37.8333,6.83333 36.1667,5.16667 33.5,4.5C 33.5,3.83333 33.1667,3.5 32.5,3.5C 31.4863,2.32627 30.153,1.6596 28.5,1.5C 28.5,0.833333 28.1667,0.5 27.5,0.5C 26.5084,0.67158 25.8417,0.338246 25.5,-0.5 Z"/></g>
<g><path style="opacity:1" fill="#d3defb" d="M 28.5,1.5 C 30.153,1.6596 31.4863,2.32627 32.5,3.5C 32.3259,5.86105 31.9926,8.19438 31.5,10.5C 29.8008,10.6602 28.1341,10.4935 26.5,10C 27.056,9.61742 27.3893,9.11742 27.5,8.5C 27.9926,6.19438 28.3259,3.86105 28.5,1.5 Z"/></g>
<g><path style="opacity:1" fill="#c1cff2" d="M 15.5,-0.5 C 18.8333,-0.5 22.1667,-0.5 25.5,-0.5C 25.8417,0.338246 26.5084,0.67158 27.5,0.5C 27.3404,2.15298 26.6737,3.48631 25.5,4.5C 24.5987,5.29049 23.9321,6.29049 23.5,7.5C 22.2125,6.7702 20.2125,6.7702 17.5,7.5C 17.8693,5.00651 17.2027,4.33985 15.5,5.5C 13.5891,5.4257 12.4224,4.4257 12,2.5C 11.2917,3.38053 10.4584,4.0472 9.5,4.5C 9.5,4.16667 9.5,3.83333 9.5,3.5C 11.4677,1.42382 13.4677,0.0904835 15.5,-0.5 Z"/></g>
<g><path style="opacity:1" fill="#265de7" d="M 27.5,0.5 C 28.1667,0.5 28.5,0.833333 28.5,1.5C 28.3259,3.86105 27.9926,6.19438 27.5,8.5C 26.8333,8.16667 26.1667,7.83333 25.5,7.5C 25.5,6.5 25.5,5.5 25.5,4.5C 26.6737,3.48631 27.3404,2.15298 27.5,0.5 Z"/></g>
<g><path style="opacity:1" fill="#2b3f86" d="M 9.5,3.5 C 9.5,3.83333 9.5,4.16667 9.5,4.5C 9.16667,5.5 8.5,6.16667 7.5,6.5C 7.42702,4.97306 8.09368,3.97306 9.5,3.5 Z"/></g>
<g><path style="opacity:1" fill="#57669c" d="M 25.5,4.5 C 25.5,5.5 25.5,6.5 25.5,7.5C 24.8333,7.5 24.1667,7.5 23.5,7.5C 23.9321,6.29049 24.5987,5.29049 25.5,4.5 Z"/></g>
<g><path style="opacity:1" fill="#334990" d="M 7.5,6.5 C 7.57298,8.02694 6.90632,9.02694 5.5,9.5C 5.5,8.83333 5.5,8.16667 5.5,7.5C 6.16667,7.16667 6.83333,6.83333 7.5,6.5 Z"/></g>
<g><path style="opacity:1" fill="#cbd5f3" d="M 33.5,4.5 C 36.1667,5.16667 37.8333,6.83333 38.5,9.5C 38.8506,13.1587 37.8506,16.1587 35.5,18.5C 34.8333,18.5 34.5,18.1667 34.5,17.5C 33.9198,13.19 33.5865,8.85665 33.5,4.5 Z"/></g>
<g><path style="opacity:1" fill="#e8d8e5" d="M 27.5,21.5 C 26.5092,23.1227 27.1759,24.1227 29.5,24.5C 29.5,26.5 29.5,28.5 29.5,30.5C 26.9003,33.4603 23.567,34.7937 19.5,34.5C 17.6923,33.6832 16.1923,34.3498 15,36.5C 14.6411,33.4557 13.9745,33.1224 13,35.5C 11.0475,33.6627 10.0475,31.3294 10,28.5C 9.66667,28.8333 9.33333,29.1667 9,29.5C 8.36581,26.4453 8.53248,23.4453 9.5,20.5C 11.0418,21.3007 12.7085,21.634 14.5,21.5C 14.5,19.8333 14.5,18.1667 14.5,16.5C 16.0269,16.573 17.0269,15.9063 17.5,14.5C 18.8333,13.5 18.8333,12.5 17.5,11.5C 17.5173,9.97189 18.184,9.47189 19.5,10C 20.8329,12.5814 22.6663,14.7481 25,16.5C 24.204,19.0297 23.8707,21.6963 24,24.5C 24.0755,21.5527 25.2422,20.5527 27.5,21.5 Z"/></g>
<g><path style="opacity:1" fill="#233260" d="M 12.5,8.5 C 13.9649,9.73685 15.6316,10.7368 17.5,11.5C 18.8333,12.5 18.8333,13.5 17.5,14.5C 13.2388,14.2464 11.5722,12.2464 12.5,8.5 Z"/></g>
<g><path style="opacity:1" fill="#e5d5e4" d="M 23.5,7.5 C 24.1667,7.5 24.8333,7.5 25.5,7.5C 24.3782,9.05178 23.8782,10.7184 24,12.5C 26.4675,13.1043 28.4675,14.4376 30,16.5C 30.3333,15.1667 30.6667,13.8333 31,12.5C 32.6819,13.8646 32.8486,15.3646 31.5,17C 32.448,17.4828 33.448,17.6495 34.5,17.5C 34.5,18.1667 34.8333,18.5 35.5,18.5C 34.5946,19.7024 34.5946,21.0357 35.5,22.5C 34.8333,22.1667 34.1667,21.8333 33.5,21.5C 32.8658,20.0532 31.6991,19.3866 30,19.5C 28.9302,19.528 28.0968,19.8614 27.5,20.5C 27.5,20.8333 27.5,21.1667 27.5,21.5C 25.2422,20.5527 24.0755,21.5527 24,24.5C 23.8707,21.6963 24.204,19.0297 25,16.5C 22.6663,14.7481 20.8329,12.5814 19.5,10C 18.184,9.47189 17.5173,9.97189 17.5,11.5C 15.6316,10.7368 13.9649,9.73685 12.5,8.5C 13.3065,7.27187 14.3065,6.27187 15.5,5.5C 17.2027,4.33985 17.8693,5.00651 17.5,7.5C 20.2125,6.7702 22.2125,6.7702 23.5,7.5 Z"/></g>
<g><path style="opacity:1" fill="#b2a6c7" d="M 32.5,3.5 C 33.1667,3.5 33.5,3.83333 33.5,4.5C 33.5865,8.85665 33.9198,13.19 34.5,17.5C 33.448,17.6495 32.448,17.4828 31.5,17C 32.8486,15.3646 32.6819,13.8646 31,12.5C 30.6667,13.8333 30.3333,15.1667 30,16.5C 28.4675,14.4376 26.4675,13.1043 24,12.5C 23.8782,10.7184 24.3782,9.05178 25.5,7.5C 26.1667,7.83333 26.8333,8.16667 27.5,8.5C 27.3893,9.11742 27.056,9.61742 26.5,10C 28.1341,10.4935 29.8008,10.6602 31.5,10.5C 31.9926,8.19438 32.3259,5.86105 32.5,3.5 Z"/></g>
<g><path style="opacity:1" fill="#8491c6" d="M 38.5,9.5 C 39.3382,9.84171 39.6716,10.5084 39.5,11.5C 39.3367,13.8568 39.5034,16.1902 40,18.5C 40.8893,17.1118 41.3893,17.2785 41.5,19C 41.101,20.7275 40.4343,22.2275 39.5,23.5C 38.9101,22.234 38.4101,20.9007 38,19.5C 37.1482,20.5707 36.3149,21.5707 35.5,22.5C 34.5946,21.0357 34.5946,19.7024 35.5,18.5C 37.8506,16.1587 38.8506,13.1587 38.5,9.5 Z"/></g>
<g><path style="opacity:1" fill="#edbbbf" d="M 14.5,16.5 C 14.5,18.1667 14.5,19.8333 14.5,21.5C 12.7085,21.634 11.0418,21.3007 9.5,20.5C 8.65084,14.9754 10.3175,13.6421 14.5,16.5 Z"/></g>
<g><path style="opacity:1" fill="#cbd5f4" d="M 15.5,5.5 C 14.3065,6.27187 13.3065,7.27187 12.5,8.5C 11.5722,12.2464 13.2388,14.2464 17.5,14.5C 17.0269,15.9063 16.0269,16.573 14.5,16.5C 10.3175,13.6421 8.65084,14.9754 9.5,20.5C 8.53248,23.4453 8.36581,26.4453 9,29.5C 9.33333,29.1667 9.66667,28.8333 10,28.5C 10.0475,31.3294 11.0475,33.6627 13,35.5C 13.9745,33.1224 14.6411,33.4557 15,36.5C 16.1923,34.3498 17.6923,33.6832 19.5,34.5C 17.493,36.6885 16.493,39.3552 16.5,42.5C 16.1667,42.5 15.8333,42.5 15.5,42.5C 13.1667,41.1667 10.8333,39.8333 8.5,38.5C 9.12395,38.0831 9.45728,37.4164 9.5,36.5C 7.91472,31.9899 7.08139,27.3232 7,22.5C 6.22492,27.0448 5.72492,31.3781 5.5,35.5C 4.54163,35.0472 3.7083,34.3805 3,33.5C 1.50858,29.4569 0.341911,25.4569 -0.5,21.5C -0.5,20.1667 -0.5,18.8333 -0.5,17.5C 0.184207,13.4597 2.18421,10.1264 5.5,7.5C 5.5,8.16667 5.5,8.83333 5.5,9.5C 6.90632,9.02694 7.57298,8.02694 7.5,6.5C 8.5,6.16667 9.16667,5.5 9.5,4.5C 10.4584,4.0472 11.2917,3.38053 12,2.5C 12.4224,4.4257 13.5891,5.4257 15.5,5.5 Z"/></g>
<g><path style="opacity:1" fill="#889acc" d="M 5.5,9.5 C 5.14595,11.5412 5.14595,13.3745 5.5,15C 4.47869,18.3087 3.47869,18.3087 2.5,15C 3.14024,12.8796 4.14024,11.0463 5.5,9.5 Z"/></g>
<g><path style="opacity:1" fill="#1a1823" d="M 27.5,20.5 C 28.0968,19.8614 28.9302,19.528 30,19.5C 31.6991,19.3866 32.8658,20.0532 33.5,21.5C 33.1667,21.5 32.8333,21.5 32.5,21.5C 30.9582,20.6993 29.2915,20.366 27.5,20.5 Z"/></g>
<g><path style="opacity:1" fill="#15336f" d="M 27.5,21.5 C 27.5,21.1667 27.5,20.8333 27.5,20.5C 29.2915,20.366 30.9582,20.6993 32.5,21.5C 32.1667,22.1667 31.8333,22.8333 31.5,23.5C 30.1667,22.8333 28.8333,22.1667 27.5,21.5 Z"/></g>
<g><path style="opacity:1" fill="#68b1e3" d="M 27.5,21.5 C 28.8333,22.1667 30.1667,22.8333 31.5,23.5C 31.1583,24.3382 30.4916,24.6716 29.5,24.5C 27.1759,24.1227 26.5092,23.1227 27.5,21.5 Z"/></g>
<g><path style="opacity:1" fill="#b4c5ed" d="M 39.5,11.5 C 40.8571,12.5903 41.8571,13.9236 42.5,15.5C 42.5,19.1667 42.5,22.8333 42.5,26.5C 41.6873,28.2608 40.6873,29.9275 39.5,31.5C 38.5028,31.5299 37.8361,31.0299 37.5,30C 38.6094,27.9534 39.2761,25.7867 39.5,23.5C 40.4343,22.2275 41.101,20.7275 41.5,19C 41.3893,17.2785 40.8893,17.1118 40,18.5C 39.5034,16.1902 39.3367,13.8568 39.5,11.5 Z"/></g>
<g><path style="opacity:1" fill="#fcfdfe" d="M -0.5,21.5 C 0.341911,25.4569 1.50858,29.4569 3,33.5C 3.7083,34.3805 4.54163,35.0472 5.5,35.5C 6.30646,36.7281 7.30646,37.7281 8.5,38.5C 10.8333,39.8333 13.1667,41.1667 15.5,42.5C 10.1667,42.5 4.83333,42.5 -0.5,42.5C -0.5,35.5 -0.5,28.5 -0.5,21.5 Z"/></g>
<g><path style="opacity:1" fill="#c3a5b3" d="M 32.5,21.5 C 32.8333,21.5 33.1667,21.5 33.5,21.5C 34.1667,21.8333 34.8333,22.1667 35.5,22.5C 34.9613,25.7809 32.9613,28.4475 29.5,30.5C 29.5,28.5 29.5,26.5 29.5,24.5C 30.4916,24.6716 31.1583,24.3382 31.5,23.5C 31.8333,22.8333 32.1667,22.1667 32.5,21.5 Z"/></g>
<g><path style="opacity:1" fill="#fcfdfe" d="M 42.5,26.5 C 42.5,31.8333 42.5,37.1667 42.5,42.5C 37.1667,42.5 31.8333,42.5 26.5,42.5C 27.5,41.8333 28.5,41.1667 29.5,40.5C 32.1473,40.0713 34.1473,38.7379 35.5,36.5C 37.1827,35.1466 38.5161,33.4799 39.5,31.5C 40.6873,29.9275 41.6873,28.2608 42.5,26.5 Z"/></g>
<g><path style="opacity:1" fill="#4276dc" d="M 8.5,38.5 C 7.30646,37.7281 6.30646,36.7281 5.5,35.5C 5.72492,31.3781 6.22492,27.0448 7,22.5C 7.08139,27.3232 7.91472,31.9899 9.5,36.5C 9.45728,37.4164 9.12395,38.0831 8.5,38.5 Z"/></g>
<g><path style="opacity:1" fill="#657dad" d="M 39.5,23.5 C 39.2761,25.7867 38.6094,27.9534 37.5,30C 37.8361,31.0299 38.5028,31.5299 39.5,31.5C 38.5161,33.4799 37.1827,35.1466 35.5,36.5C 35.3601,34.8762 36.0267,33.7096 37.5,33C 35.4783,31.8675 35.1449,30.2009 36.5,28C 36.9586,26.0584 37.9586,24.5584 39.5,23.5 Z"/></g>
<g><path style="opacity:1" fill="#b5c4e9" d="M 39.5,23.5 C 37.9586,24.5584 36.9586,26.0584 36.5,28C 35.1449,30.2009 35.4783,31.8675 37.5,33C 36.0267,33.7096 35.3601,34.8762 35.5,36.5C 34.1473,38.7379 32.1473,40.0713 29.5,40.5C 28.5,41.1667 27.5,41.8333 26.5,42.5C 23.1667,42.5 19.8333,42.5 16.5,42.5C 16.493,39.3552 17.493,36.6885 19.5,34.5C 23.567,34.7937 26.9003,33.4603 29.5,30.5C 32.9613,28.4475 34.9613,25.7809 35.5,22.5C 36.3149,21.5707 37.1482,20.5707 38,19.5C 38.4101,20.9007 38.9101,22.234 39.5,23.5 Z"/></g>
<g><path style="opacity:1" fill="#2469e4" d="M 29.5,40.5 C 28.7611,40.631 28.0944,40.4643 27.5,40C 31.5108,31.2273 32.1775,31.394 29.5,40.5 Z"/></g>
</svg>
