<?xml version="1.0" encoding="UTF-8"?>
<!DOCTYPE svg PUBLIC "-//W3C//DTD SVG 1.1//EN" "http://www.w3.org/Graphics/SVG/1.1/DTD/svg11.dtd">
<svg xmlns="http://www.w3.org/2000/svg" version="1.1" width="500px" height="500px" style="shape-rendering:geometricPrecision; text-rendering:geometricPrecision; image-rendering:optimizeQuality; fill-rule:evenodd; clip-rule:evenodd" xmlns:xlink="http://www.w3.org/1999/xlink">
<g><path style="opacity:0.98" fill="#fefffe" d="M 375.5,-0.5 C 379.5,-0.5 383.5,-0.5 387.5,-0.5C 399.697,6.26784 402.53,15.9345 396,28.5C 374,50.5 352,72.5 330,94.5C 324.633,103.6 325.8,111.767 333.5,119C 339.674,123.039 346.008,123.373 352.5,120C 375.805,97.6951 398.805,75.0285 421.5,52C 431.541,47.3418 440.041,49.1752 447,57.5C 449.852,63.3548 450.185,69.3548 448,75.5C 425,99.1667 402,122.833 379,146.5C 374.164,160.827 379.164,169.494 394,172.5C 397.763,172.135 401.263,170.968 404.5,169C 426.5,147 448.5,125 470.5,103C 483.065,96.4699 492.732,99.3032 499.5,111.5C 499.5,115.5 499.5,119.5 499.5,123.5C 498.024,125.769 496.524,128.102 495,130.5C 461.5,164 428,197.5 394.5,231C 370.432,252.178 343.432,256.845 313.5,245C 307.323,242.081 301.656,238.414 296.5,234C 286.333,223.833 276.167,213.667 266,203.5C 244.537,176.669 241.87,148.002 258,117.5C 260.615,113.217 263.615,109.217 267,105.5C 300.833,71.6667 334.667,37.8333 368.5,4C 370.898,2.47576 373.231,0.97576 375.5,-0.5 Z"/></g>
<g><path style="opacity:0.991" fill="#fefffe" d="M 26.5,8.5 C 170.465,151.965 314.299,295.632 458,439.5C 467.795,456.296 466.295,471.963 453.5,486.5C 438.446,498.738 422.78,499.572 406.5,489C 347.167,429.667 287.833,370.333 228.5,311C 187.475,298.562 150.808,278.562 118.5,251C 98,230.5 77.5,210 57,189.5C 14.4468,134.85 4.28017,74.517 26.5,8.5 Z"/></g>
<g><path style="opacity:0.985" fill="#fefffe" d="M 145.5,312.5 C 161.636,321.233 178.303,328.9 195.5,335.5C 196.583,336.365 196.749,337.365 196,338.5C 169.333,378.5 142.667,418.5 116,458.5C 105.5,469 95,479.5 84.5,490C 71.3379,498.184 58.0046,498.518 44.5,491C 32.6958,480.197 21.1958,469.03 10,457.5C 0.426543,443.413 0.0932099,429.079 9,414.5C 19.5,404 30,393.5 40.5,383C 75.9105,359.972 110.91,336.472 145.5,312.5 Z"/></g>
</svg>
