<?xml version="1.0" encoding="UTF-8"?>
<!DOCTYPE svg PUBLIC "-//W3C//DTD SVG 1.1//EN" "http://www.w3.org/Graphics/SVG/1.1/DTD/svg11.dtd">
<svg xmlns="http://www.w3.org/2000/svg" version="1.1" width="1000px" height="1000px" style="shape-rendering:geometricPrecision; text-rendering:geometricPrecision; image-rendering:optimizeQuality; fill-rule:evenodd; clip-rule:evenodd" xmlns:xlink="http://www.w3.org/1999/xlink">
<g><path style="opacity:0.967" fill="#00cd83" d="M 591.5,96.5 C 635.501,96.3333 679.501,96.5 723.5,97C 746.043,101.877 760.543,115.377 767,137.5C 768.45,166.463 768.95,195.463 768.5,224.5C 795.502,224.333 822.502,224.5 849.5,225C 872.742,228.911 887.909,242.078 895,264.5C 895.667,310.833 895.667,357.167 895,403.5C 888.911,425.253 874.744,438.419 852.5,443C 824.502,443.5 796.502,443.667 768.5,443.5C 768.667,470.502 768.5,497.502 768,524.5C 763.515,551.652 747.682,567.485 720.5,572C 699.667,572.167 678.833,572.333 658,572.5C 635.132,572.635 612.299,572.135 589.5,571C 565.459,564.625 551.626,549.125 548,524.5C 547.5,497.835 547.333,471.169 547.5,444.5C 519.143,444.901 490.809,444.401 462.5,443C 439.22,437.387 425.054,422.887 420,399.5C 419.833,377.833 419.667,356.167 419.5,334.5C 419.359,311.127 419.859,287.793 421,264.5C 427.985,242.516 442.818,229.35 465.5,225C 492.831,224.5 520.165,224.333 547.5,224.5C 547.333,197.498 547.5,170.498 548,143.5C 552.703,118.635 567.203,102.968 591.5,96.5 Z M 600.5,139.5 C 638.501,139.333 676.501,139.5 714.5,140C 718.896,140.73 721.73,143.23 723,147.5C 723.333,183.833 723.667,220.167 724,256.5C 726.052,263.219 730.552,267.052 737.5,268C 773.5,268.333 809.5,268.667 845.5,269C 848,270.167 849.833,272 851,274.5C 852.143,294.451 852.643,314.451 852.5,334.5C 852.333,353.167 852.167,371.833 852,390.5C 850.932,395.235 848.099,398.402 843.5,400C 807.167,400.333 770.833,400.667 734.5,401C 729,402.5 725.5,406 724,411.5C 723.667,448.167 723.333,484.833 723,521.5C 721.5,524.333 719.333,526.5 716.5,528C 677.5,528.667 638.5,528.667 599.5,528C 595.667,526.833 593.167,524.333 592,520.5C 591.667,484.167 591.333,447.833 591,411.5C 589.594,406.427 586.428,402.927 581.5,401C 545.167,400.667 508.833,400.333 472.5,400C 468.501,399.332 465.668,397.165 464,393.5C 462.857,373.716 462.357,353.882 462.5,334C 462.357,314.118 462.857,294.284 464,274.5C 465.251,271.619 467.417,269.786 470.5,269C 506.5,268.667 542.5,268.333 578.5,268C 585.132,267.364 589.298,263.864 591,257.5C 591.333,220.833 591.667,184.167 592,147.5C 593.773,143.56 596.606,140.893 600.5,139.5 Z"/></g>
<g><path style="opacity:0.967" fill="#00cd83" d="M 254.5,418.5 C 281.195,418.085 307.861,418.585 334.5,420C 356.23,424.73 369.73,437.896 375,459.5C 376.369,479.805 376.869,500.138 376.5,520.5C 394.836,520.333 413.17,520.5 431.5,521C 453.932,524.429 468.765,536.929 476,558.5C 477.127,574.291 477.627,590.124 477.5,606C 477.333,620.167 477.167,634.333 477,648.5C 471.824,671.009 457.991,684.842 435.5,690C 415.836,690.5 396.169,690.667 376.5,690.5C 376.884,710.864 376.384,731.197 375,751.5C 370.015,771.818 357.515,784.985 337.5,791C 321.876,792.127 306.21,792.627 290.5,792.5C 274.79,792.627 259.124,792.127 243.5,791C 223.458,784.959 210.958,771.792 206,751.5C 204.587,731.203 204.087,710.869 204.5,690.5C 184.831,690.667 165.164,690.5 145.5,690C 123.779,685.279 110.279,672.113 105,650.5C 104.833,635.5 104.667,620.5 104.5,605.5C 104.363,589.116 104.863,572.783 106,556.5C 113.209,536.287 127.376,524.454 148.5,521C 167.164,520.5 185.83,520.333 204.5,520.5C 204.333,502.497 204.5,484.497 205,466.5C 209.962,438.369 226.462,422.369 254.5,418.5 Z M 255.5,462.5 C 278.836,462.333 302.169,462.5 325.5,463C 327.286,463.785 328.786,464.951 330,466.5C 331.318,495.747 331.984,525.081 332,554.5C 334.007,559.838 337.841,563.004 343.5,564C 371.5,564.333 399.5,564.667 427.5,565C 430.428,566.26 432.261,568.427 433,571.5C 433.667,594.5 433.667,617.5 433,640.5C 432.167,644 430,646.167 426.5,647C 398.167,647.333 369.833,647.667 341.5,648C 338.098,649.4 335.264,651.567 333,654.5C 331.69,683.772 331.024,713.105 331,742.5C 330.602,745.232 329.102,747.065 326.5,748C 302.5,748.667 278.5,748.667 254.5,748C 252.448,747.07 250.948,745.57 250,743.5C 249.667,714.833 249.333,686.167 249,657.5C 247.569,654.073 245.402,651.24 242.5,649C 213.253,647.682 183.919,647.016 154.5,647C 151,646.167 148.833,644 148,640.5C 147.333,617.167 147.333,593.833 148,570.5C 149.122,568.376 150.622,566.543 152.5,565C 181.167,564.667 209.833,564.333 238.5,564C 244,562.5 247.5,559 249,553.5C 249.333,525.167 249.667,496.833 250,468.5C 251.36,465.977 253.193,463.977 255.5,462.5 Z"/></g>
<g><path style="opacity:0.971" fill="#00cc83" d="M 590.5,643.5 C 612.836,643.333 635.169,643.5 657.5,644C 676.781,647.947 688.948,659.447 694,678.5C 694.5,686.493 694.666,694.493 694.5,702.5C 714.277,699.008 731.111,704.342 745,718.5C 749.907,724.651 752.907,731.651 754,739.5C 754.667,762.167 754.667,784.833 754,807.5C 748.638,829.19 734.804,841.357 712.5,844C 706.509,844.499 700.509,844.666 694.5,844.5C 698.568,868.863 690.235,887.363 669.5,900C 666.226,901.202 662.893,902.202 659.5,903C 635.833,903.667 612.167,903.667 588.5,903C 567.422,897.244 555.589,883.411 553,861.5C 552.501,855.843 552.334,850.176 552.5,844.5C 533.529,847.232 517.362,841.898 504,828.5C 499.662,822.824 496.662,816.49 495,809.5C 494.333,785.5 494.333,761.5 495,737.5C 499.59,718.577 511.423,707.077 530.5,703C 537.826,702.5 545.159,702.334 552.5,702.5C 549.428,682.214 555.428,665.38 570.5,652C 576.73,647.876 583.397,645.043 590.5,643.5 Z M 596.5,687.5 C 614.503,687.333 632.503,687.5 650.5,688C 651.325,704.093 651.825,720.259 652,736.5C 653.5,740.667 656.333,743.5 660.5,745C 676.5,745.333 692.5,745.667 708.5,746C 709,746.5 709.5,747 710,747.5C 710.667,764.833 710.667,782.167 710,799.5C 693.907,800.325 677.741,800.825 661.5,801C 656.794,802.105 653.627,804.938 652,809.5C 651.826,826.074 651.326,842.574 650.5,859C 632.833,859.667 615.167,859.667 597.5,859C 596.965,841.841 596.131,824.675 595,807.5C 592.736,804.567 589.902,802.4 586.5,801C 570.259,800.825 554.093,800.325 538,799.5C 537.167,781.824 537.334,764.157 538.5,746.5C 554.789,745.681 571.123,745.181 587.5,745C 591.667,743.5 594.5,740.667 596,736.5C 596.5,720.17 596.667,703.837 596.5,687.5 Z"/></g>
</svg>
