<?xml version="1.0" encoding="UTF-8"?>
<!DOCTYPE svg PUBLIC "-//W3C//DTD SVG 1.1//EN" "http://www.w3.org/Graphics/SVG/1.1/DTD/svg11.dtd">
<svg xmlns="http://www.w3.org/2000/svg" version="1.1" width="2000px" height="2000px" style="shape-rendering:geometricPrecision; text-rendering:geometricPrecision; image-rendering:optimizeQuality; fill-rule:evenodd; clip-rule:evenodd" xmlns:xlink="http://www.w3.org/1999/xlink">
<g><path style="opacity:0.998" fill="#cb218c" d="M 957.5,-0.5 C 985.5,-0.5 1013.5,-0.5 1041.5,-0.5C 1286.79,12.929 1499.79,101.762 1680.5,266C 1861.81,438.25 1966.64,649.417 1995,899.5C 1996.66,918.643 1998.16,937.643 1999.5,956.5C 1999.5,985.167 1999.5,1013.83 1999.5,1042.5C 1982.88,1320.87 1872.88,1554.37 1669.5,1743C 1490.66,1901.16 1281.33,1986.66 1041.5,1999.5C 1013.5,1999.5 985.5,1999.5 957.5,1999.5C 678.174,1983.07 444.007,1872.73 255,1668.5C 97.9685,1489.98 12.8018,1281.32 -0.5,1042.5C -0.5,1013.83 -0.5,985.167 -0.5,956.5C 16.2291,677.581 126.562,443.747 330.5,255C 509.228,97.5418 718.228,12.3751 957.5,-0.5 Z"/></g>
<g><path style="opacity:1" fill="#fefefe" d="M 833.5,522.5 C 943.501,522.333 1053.5,522.5 1163.5,523C 1206.27,529.141 1238.11,550.975 1259,588.5C 1270,615.339 1280.5,642.339 1290.5,669.5C 1341.83,669.333 1393.17,669.5 1444.5,670C 1490.91,675.281 1528.08,696.447 1556,733.5C 1571.09,754.024 1579.76,777.024 1582,802.5C 1582.67,981.5 1582.67,1160.5 1582,1339.5C 1578.58,1382.19 1560.08,1416.69 1526.5,1443C 1500.62,1462.93 1471.29,1473.93 1438.5,1476C 1144.83,1476.67 851.167,1476.67 557.5,1476C 503.522,1470.28 462.356,1444.44 434,1398.5C 424.084,1380.42 418.417,1361.08 417,1340.5C 416.333,1161.17 416.333,981.833 417,802.5C 421.152,765.027 437.319,733.86 465.5,709C 490.873,686.486 520.54,673.486 554.5,670C 605.832,669.5 657.166,669.333 708.5,669.5C 719.915,638.427 732.415,607.761 746,577.5C 767.774,547.365 796.941,529.032 833.5,522.5 Z"/></g>
<g><path style="opacity:1" fill="#cb228c" d="M 1018.5,1329.5 C 1000.11,1329.94 981.775,1329.27 963.5,1327.5C 897.545,1319.27 841.712,1291.27 796,1243.5C 732.076,1173.12 712.743,1091.79 738,999.5C 755.27,948.133 785.437,905.966 828.5,873C 886.699,829.057 952.366,810.39 1025.5,817C 1115.83,826.727 1186,869.227 1236,944.5C 1268.65,999.791 1278.98,1059.12 1267,1122.5C 1255.23,1175.56 1229.39,1220.39 1189.5,1257C 1141,1300.91 1084,1325.08 1018.5,1329.5 Z"/></g>
<g><path style="opacity:1" fill="#fefefe" d="M 988.5,907.5 C 1060.08,905.866 1115.24,934.866 1154,994.5C 1181.33,1046.8 1181.33,1099.14 1154,1151.5C 1112.7,1214.56 1054.2,1243.06 978.5,1237C 921.882,1229.62 878.049,1202.12 847,1154.5C 817.793,1101.55 817.126,1048.21 845,994.5C 878.449,941.856 926.282,912.856 988.5,907.5 Z"/></g>
<g><path style="opacity:1" fill="#f9e3f0" d="M 963.5,1327.5 C 981.775,1329.27 1000.11,1329.94 1018.5,1329.5C 1000.98,1330.83 983.312,1330.66 965.5,1329C 964.584,1328.72 963.918,1328.22 963.5,1327.5 Z"/></g>
</svg>
