<?xml version="1.0" encoding="UTF-8"?>
<!DOCTYPE svg PUBLIC "-//W3C//DTD SVG 1.1//EN" "http://www.w3.org/Graphics/SVG/1.1/DTD/svg11.dtd">
<svg xmlns="http://www.w3.org/2000/svg" version="1.1" width="500px" height="500px" style="shape-rendering:geometricPrecision; text-rendering:geometricPrecision; image-rendering:optimizeQuality; fill-rule:evenodd; clip-rule:evenodd" xmlns:xlink="http://www.w3.org/1999/xlink">
<g><path style="opacity:0.955" fill="#fdfdfd" d="M 237.5,-0.5 C 241.167,-0.5 244.833,-0.5 248.5,-0.5C 248.611,0.117425 248.944,0.617425 249.5,1C 252.372,1.3148 255.205,1.8148 258,2.5C 258.873,2.26454 259.707,1.9312 260.5,1.5C 268.027,5.20117 274.86,9.86784 281,15.5C 283.076,19.9062 285.243,24.2396 287.5,28.5C 287.5,29.8333 288.167,30.5 289.5,30.5C 289.517,32.5648 289.85,34.5648 290.5,36.5C 290.5,37.1667 290.5,37.8333 290.5,38.5C 290.5,38.8333 290.5,39.1667 290.5,39.5C 290.5,40.5 290.5,41.5 290.5,42.5C 293.136,59.7797 287.802,74.613 274.5,87C 268.622,90.7535 262.455,93.9202 256,96.5C 246.6,96.753 237.1,96.4197 227.5,95.5C 227.5,94.1667 226.833,93.5 225.5,93.5C 215.513,91.0033 207.846,85.3366 202.5,76.5C 200.529,72.2105 198.196,68.2105 195.5,64.5C 195.931,63.7065 196.265,62.8732 196.5,62C 192.741,45.6885 195.575,30.8552 205,17.5C 209.839,11.8278 215.672,7.49442 222.5,4.5C 224.179,4.71481 225.179,4.04814 225.5,2.5C 228.044,2.89567 230.211,2.22901 232,0.5C 234.118,1.73873 235.951,1.40539 237.5,-0.5 Z"/></g>
<g><path style="opacity:0.009" fill="#000000" d="M 225.5,2.5 C 225.179,4.04814 224.179,4.71481 222.5,4.5C 223.29,3.59872 224.29,2.93205 225.5,2.5 Z"/></g>
<g><path style="opacity:0.006" fill="#000000" d="M 369.5,24.5 C 367.167,24.5 364.833,24.5 362.5,24.5C 362.783,23.7109 363.283,23.0442 364,22.5C 365.948,23.1094 367.782,23.776 369.5,24.5 Z"/></g>
<g><path style="opacity:0.009" fill="#000000" d="M 380.5,24.5 C 379.5,24.5 378.5,24.5 377.5,24.5C 378.5,21.8333 379.5,21.8333 380.5,24.5 Z"/></g>
<g><path style="opacity:0.924" fill="#fcfcfc" d="M 377.5,24.5 C 378.5,24.5 379.5,24.5 380.5,24.5C 382.5,24.8333 384.5,25.1667 386.5,25.5C 386.5,26.8333 387.167,27.5 388.5,27.5C 390.483,27.1568 391.817,27.8235 392.5,29.5C 393.209,30.404 394.209,30.7373 395.5,30.5C 397.564,33.046 399.897,35.3793 402.5,37.5C 403.562,39.0217 404.229,40.6883 404.5,42.5C 404.5,43.8333 405.167,44.5 406.5,44.5C 411.607,59.3256 409.607,72.9923 400.5,85.5C 388.804,96.3445 375.137,99.5111 359.5,95C 339.507,85.5625 332.507,70.0625 338.5,48.5C 338.291,47.914 337.957,47.414 337.5,47C 339.473,44.3716 341.14,41.5383 342.5,38.5C 346.326,33.6639 350.993,29.9973 356.5,27.5C 357.833,27.5 358.5,26.8333 358.5,25.5C 359.833,25.1667 361.167,24.8333 362.5,24.5C 364.833,24.5 367.167,24.5 369.5,24.5C 372.024,24.043 374.691,24.043 377.5,24.5 Z M 374.5,49.5 C 374.833,50.5 375.5,51.1667 376.5,51.5C 377.766,52.0899 379.099,52.5899 380.5,53C 380.043,53.414 379.709,53.914 379.5,54.5C 382.737,56.8752 383.737,59.8752 382.5,63.5C 381.5,63.8333 380.833,64.5 380.5,65.5C 378.828,68.1842 376.494,70.1842 373.5,71.5C 362.593,68.3655 360.093,62.0322 366,52.5C 368.509,50.5626 371.343,49.5626 374.5,49.5 Z"/></g>
<g><path style="opacity:0.012" fill="#000000" d="M 386.5,25.5 C 387.5,25.8333 388.167,26.5 388.5,27.5C 387.167,27.5 386.5,26.8333 386.5,25.5 Z"/></g>
<g><path style="opacity:0.063" fill="#414141" d="M 358.5,25.5 C 358.5,26.8333 357.833,27.5 356.5,27.5C 356.5,26.1667 357.167,25.5 358.5,25.5 Z"/></g>
<g><path style="opacity:0.009" fill="#000000" d="M 287.5,28.5 C 288.5,28.8333 289.167,29.5 289.5,30.5C 288.167,30.5 287.5,29.8333 287.5,28.5 Z"/></g>
<g><path style="opacity:0.01" fill="#000000" d="M 395.5,30.5 C 394.209,30.7373 393.209,30.404 392.5,29.5C 393.895,28.1854 394.895,28.5188 395.5,30.5 Z"/></g>
<g><path style="opacity:0.008" fill="#000000" d="M 290.5,36.5 C 292.933,37.5477 292.933,38.2144 290.5,38.5C 290.5,37.8333 290.5,37.1667 290.5,36.5 Z"/></g>
<g><path style="opacity:0.012" fill="#000000" d="M 290.5,39.5 C 292.985,40.2601 292.985,41.2601 290.5,42.5C 290.5,41.5 290.5,40.5 290.5,39.5 Z"/></g>
<g><path style="opacity:0.043" fill="#6b6b6b" d="M 404.5,42.5 C 405.833,42.5 406.5,43.1667 406.5,44.5C 406.5,43.1667 405.833,42.5 404.5,42.5 Z"/></g>
<g><path style="opacity:0.022" fill="#000000" d="M 374.5,49.5 C 375.833,49.5 376.5,50.1667 376.5,51.5C 375.5,51.1667 374.833,50.5 374.5,49.5 Z"/></g>
<g><path style="opacity:0.008" fill="#000000" d="M 382.5,63.5 C 382.5,64.8333 381.833,65.5 380.5,65.5C 380.833,64.5 381.5,63.8333 382.5,63.5 Z"/></g>
<g><path style="opacity:0.942" fill="#fdfdfd" d="M 270.5,118.5 C 271.404,117.791 271.737,116.791 271.5,115.5C 271.265,113.572 271.599,111.405 272.5,109C 274.418,104.291 277.085,100.124 280.5,96.5C 281.246,95.2638 281.579,93.9305 281.5,92.5C 282.791,92.7373 283.791,92.404 284.5,91.5C 287.5,91.8333 288.833,90.5 288.5,87.5C 305.594,80.4718 321.427,82.4718 336,93.5C 341.22,100.985 344.387,109.318 345.5,118.5C 368.193,118.187 390.86,118.521 413.5,119.5C 434.657,128.542 442.99,144.542 438.5,167.5C 431.497,182.003 424.497,196.503 417.5,211C 414.358,216.471 410.858,221.638 407,226.5C 405.612,236.988 404.446,247.488 403.5,258C 403.164,261.377 403.497,264.543 404.5,267.5C 402.269,276.364 400.935,285.364 400.5,294.5C 400.361,299.782 400.695,304.949 401.5,310C 400.667,310.833 399.833,311.667 399,312.5C 397.291,336.817 395.791,361.15 394.5,385.5C 393.167,385.5 392.5,386.167 392.5,387.5C 392.5,391.5 392.5,395.5 392.5,399.5C 392.5,401.5 392.5,403.5 392.5,405.5C 391.308,410.311 391.308,414.977 392.5,419.5C 391.872,421.258 390.872,422.758 389.5,424C 390.611,427.192 390.278,430.359 388.5,433.5C 389.246,434.736 389.579,436.07 389.5,437.5C 388.5,437.5 387.5,437.5 386.5,437.5C 385.435,444.462 383.102,450.962 379.5,457C 364.133,480.87 342.133,494.37 313.5,497.5C 270.837,498.667 228.171,498.833 185.5,498C 179.966,496.762 174.299,495.762 168.5,495C 162.235,492.227 155.902,489.56 149.5,487C 144.217,483.089 138.883,479.256 133.5,475.5C 130.637,470.595 126.971,466.429 122.5,463C 122.833,462.667 123.167,462.333 123.5,462C 120.247,457.204 117.081,452.371 114,447.5C 113.822,443.788 112.655,440.454 110.5,437.5C 110.255,435.255 110.255,432.922 110.5,430.5C 107.064,421.998 106.064,413.498 107.5,405C 105.597,395.466 104.597,385.966 104.5,376.5C 104.5,371.5 104.5,366.5 104.5,361.5C 103.554,359.868 102.554,358.201 101.5,356.5C 102.593,351.14 102.593,345.806 101.5,340.5C 101.5,335.5 101.5,330.5 101.5,325.5C 99.8837,323.688 98.8837,321.521 98.5,319C 99.0366,316.025 99.3699,313.025 99.5,310C 96.2871,278.91 93.4538,248.077 91,217.5C 85.4758,207.78 80.3091,197.78 75.5,187.5C 72.8268,183.829 69.8268,180.496 66.5,177.5C 66.7373,176.209 66.404,175.209 65.5,174.5C 64.2334,172.227 62.5667,170.227 60.5,168.5C 60.8333,167.833 61.1667,167.167 61.5,166.5C 59.9362,164.425 58.9362,162.092 58.5,159.5C 58.8159,154.08 59.8159,148.914 61.5,144C 61.1667,143.667 60.8333,143.333 60.5,143C 61.3085,139.87 62.9752,137.37 65.5,135.5C 66.404,134.791 66.7373,133.791 66.5,132.5C 76.4854,120.725 89.152,116.059 104.5,118.5C 109.899,118.554 115.233,118.054 120.5,117C 120.043,116.586 119.709,116.086 119.5,115.5C 121.771,112.836 123.771,110.003 125.5,107C 125.167,106.667 124.833,106.333 124.5,106C 127.507,101.774 130.84,97.9403 134.5,94.5C 136.179,94.7148 137.179,94.0481 137.5,92.5C 142.666,88.2591 148.666,85.4257 155.5,84C 183.728,80.2068 203.062,91.3734 213.5,117.5C 232.667,118.453 251.667,118.787 270.5,118.5 Z M 157.5,118.5 C 155.714,116.078 154.048,116.078 152.5,118.5C 151.325,118.719 150.325,118.386 149.5,117.5C 153.1,113.733 157.433,111.067 162.5,109.5C 166.228,109.358 170.061,109.691 174,110.5C 177.636,112.061 180.802,114.228 183.5,117C 182.975,117.692 182.308,118.192 181.5,118.5C 173.68,118.423 165.68,118.423 157.5,118.5 Z M 303.5,109.5 C 310.614,108.294 315.614,110.961 318.5,117.5C 312.217,118.372 306.05,118.705 300,118.5C 299.056,117.737 298.556,116.737 298.5,115.5C 300.175,113.469 301.841,111.469 303.5,109.5 Z M 154.5,163.5 C 153.5,163.833 152.833,164.5 152.5,165.5C 133.821,165.833 115.155,165.5 96.5,164.5C 94.3435,163.21 92.0101,162.376 89.5,162C 84.8862,156.007 85.5529,150.34 91.5,145C 112.167,144.333 132.833,144.333 153.5,145C 154.476,151.076 154.81,157.242 154.5,163.5 Z M 344.5,144.5 C 365.169,144.333 385.836,144.5 406.5,145C 413.774,149.978 414.441,155.311 408.5,161C 408.833,161.333 409.167,161.667 409.5,162C 406.673,162.701 404.006,163.701 401.5,165C 382.503,165.5 363.503,165.667 344.5,165.5C 344.5,158.5 344.5,151.5 344.5,144.5 Z M 251.5,248.5 C 251.5,249.833 252.167,250.5 253.5,250.5C 256.579,250.26 259.579,250.593 262.5,251.5C 267.174,250.497 271.84,249.497 276.5,248.5C 277.833,251.167 279.167,251.167 280.5,248.5C 283.597,247.912 286.597,246.912 289.5,245.5C 290.554,245.68 291.554,246.013 292.5,246.5C 297.978,243.798 303.645,241.464 309.5,239.5C 310.086,239.709 310.586,240.043 311,240.5C 320.975,235.58 331.142,230.08 341.5,224C 342.5,222.333 343.833,221 345.5,220C 344.515,210.583 344.182,201.083 344.5,191.5C 356.5,191.5 368.5,191.5 380.5,191.5C 380.557,192.609 380.89,193.609 381.5,194.5C 380.756,197.36 380.089,200.36 379.5,203.5C 380.319,207.118 380.319,210.784 379.5,214.5C 377.204,214.804 376.871,215.804 378.5,217.5C 361.342,235.384 341.175,249.051 318,258.5C 314.04,260.042 310.04,261.375 306,262.5C 304.284,261.448 303.284,262.114 303,264.5C 302.667,264.167 302.333,263.833 302,263.5C 295.979,265.64 289.812,267.306 283.5,268.5C 280.821,267.76 278.154,268.094 275.5,269.5C 263.5,270.833 251.5,270.833 239.5,269.5C 237.477,268.145 235.477,267.812 233.5,268.5C 230.833,267.833 228.167,267.167 225.5,266.5C 224.833,266.833 224.167,267.167 223.5,267.5C 220.279,265.957 216.946,264.624 213.5,263.5C 212.833,263.833 212.167,264.167 211.5,264.5C 208.816,262.627 205.816,261.627 202.5,261.5C 201.833,258.833 201.167,258.833 200.5,261.5C 191.005,257.736 181.505,253.736 172,249.5C 159.468,242.55 147.301,235.05 135.5,227C 128.706,220.408 122.373,213.408 116.5,206C 116.297,201.586 116.63,197.086 117.5,192.5C 129.486,191.334 141.486,191.167 153.5,192C 154.317,199.754 154.817,207.588 155,215.5C 159.453,219.066 164.12,222.4 169,225.5C 169.333,225.167 169.667,224.833 170,224.5C 175.57,228.555 181.57,231.888 188,234.5C 188.333,234.167 188.667,233.833 189,233.5C 190.351,234.961 191.851,236.294 193.5,237.5C 194.167,237.167 194.833,236.833 195.5,236.5C 203.024,239.51 210.524,242.51 218,245.5C 222.531,244.512 226.698,245.512 230.5,248.5C 233.461,247.275 236.294,247.609 239,249.5C 243.111,248.596 247.278,248.263 251.5,248.5 Z M 192.5,286.5 C 193.548,288.933 194.214,288.933 194.5,286.5C 204.733,289.644 215.067,292.644 225.5,295.5C 227.098,295.39 228.765,295.057 230.5,294.5C 231.551,295.885 232.884,296.885 234.5,297.5C 239.374,295.914 244.041,296.247 248.5,298.5C 260.106,297.731 271.606,296.398 283,294.5C 285.27,295.275 287.437,295.608 289.5,295.5C 298.885,292.581 308.219,289.581 317.5,286.5C 317.786,288.933 318.452,288.933 319.5,286.5C 339.41,279.373 358.077,269.373 375.5,256.5C 376.298,256.957 376.631,257.624 376.5,258.5C 373.833,259.5 373.833,260.5 376.5,261.5C 375.752,263.584 375.752,265.584 376.5,267.5C 375.102,269.13 374.102,270.964 373.5,273C 374.16,282.725 374.16,292.892 373.5,303.5C 371.519,304.105 371.185,305.105 372.5,306.5C 371.784,308.556 371.117,310.723 370.5,313C 370.735,317.708 370.735,322.541 370.5,327.5C 369.784,332.034 369.117,336.701 368.5,341.5C 369.711,342.72 369.711,343.887 368.5,345C 369.094,345.464 369.761,345.631 370.5,345.5C 369.313,346.534 368.48,347.867 368,349.5C 367.731,356.654 367.565,363.654 367.5,370.5C 365.974,371.492 365.307,372.992 365.5,375C 366.2,378.268 366.533,381.435 366.5,384.5C 365.769,389.855 365.102,395.355 364.5,401C 364.735,401.873 365.069,402.707 365.5,403.5C 364.047,405.467 363.047,407.633 362.5,410C 362.917,412.193 363.251,414.359 363.5,416.5C 362.167,417.5 362.167,418.5 363.5,419.5C 362.99,422.539 362.323,425.539 361.5,428.5C 359.576,428.711 359.243,429.377 360.5,430.5C 359.726,434.276 358.059,437.609 355.5,440.5C 355.709,441.086 356.043,441.586 356.5,442C 352.817,445.854 349.484,450.02 346.5,454.5C 341.021,459.077 335.021,462.911 328.5,466C 325.298,466.547 322.298,467.547 319.5,469C 274.139,470.495 229.139,470.995 184.5,470.5C 179.799,469.916 175.132,468.583 170.5,466.5C 169.895,464.519 168.895,464.185 167.5,465.5C 151.797,457.126 141.131,444.46 135.5,427.5C 137.933,427.214 137.933,426.548 135.5,425.5C 134.946,422.665 134.946,419.498 135.5,416C 134.953,415.075 134.287,414.242 133.5,413.5C 132.395,393.502 130.729,373.668 128.5,354C 128.998,351.523 129.331,349.023 129.5,346.5C 127.025,330.698 125.025,315.031 123.5,299.5C 124.168,289.502 124.168,279.335 123.5,269C 122.237,266.245 121.237,263.412 120.5,260.5C 122.933,260.214 122.933,259.548 120.5,258.5C 121.579,256.919 121.579,255.253 120.5,253.5C 120.453,252 121.119,251 122.5,250.5C 126.959,254.235 131.626,257.735 136.5,261C 143.904,265.208 151.404,269.374 159,273.5C 167.527,277.177 176.027,280.843 184.5,284.5C 185.167,284.167 185.833,283.833 186.5,283.5C 187.281,284.737 188.281,285.737 189.5,286.5C 190.527,285.209 191.527,285.209 192.5,286.5 Z"/></g>
<g><path style="opacity:0.345" fill="#9e9e9e" d="M 288.5,87.5 C 288.833,90.5 287.5,91.8333 284.5,91.5C 285.5,89.8333 286.833,88.5 288.5,87.5 Z"/></g>
<g><path style="opacity:0.055" fill="#737373" d="M 137.5,92.5 C 137.179,94.0481 136.179,94.7148 134.5,94.5C 134.973,93.0937 135.973,92.427 137.5,92.5 Z"/></g>
<g><path style="opacity:0.008" fill="#000000" d="M 225.5,93.5 C 226.833,93.5 227.5,94.1667 227.5,95.5C 226.5,95.1667 225.833,94.5 225.5,93.5 Z"/></g>
<g><path style="opacity:0.012" fill="#000000" d="M 271.5,115.5 C 271.737,116.791 271.404,117.791 270.5,118.5C 269.185,117.105 269.519,116.105 271.5,115.5 Z"/></g>
<g><path style="opacity:0.011" fill="#000000" d="M 157.5,118.5 C 155.833,118.5 154.167,118.5 152.5,118.5C 154.048,116.078 155.714,116.078 157.5,118.5 Z"/></g>
<g><path style="opacity:0.008" fill="#000000" d="M 66.5,132.5 C 66.7373,133.791 66.404,134.791 65.5,135.5C 64.1854,134.105 64.5188,133.105 66.5,132.5 Z"/></g>
<g><path style="opacity:0.005" fill="#000000" d="M 154.5,163.5 C 154.5,164.833 153.833,165.5 152.5,165.5C 152.833,164.5 153.5,163.833 154.5,163.5 Z"/></g>
<g><path style="opacity:0.007" fill="#000000" d="M 65.5,174.5 C 66.404,175.209 66.7373,176.209 66.5,177.5C 64.5188,176.895 64.1854,175.895 65.5,174.5 Z"/></g>
<g><path style="opacity:0.009" fill="#000000" d="M 380.5,191.5 C 382.552,192.053 382.885,193.053 381.5,194.5C 380.89,193.609 380.557,192.609 380.5,191.5 Z"/></g>
<g><path style="opacity:0.01" fill="#000000" d="M 379.5,214.5 C 379.737,215.791 379.404,216.791 378.5,217.5C 376.871,215.804 377.204,214.804 379.5,214.5 Z"/></g>
<g><path style="opacity:0.017" fill="#000000" d="M 251.5,248.5 C 252.833,248.5 253.5,249.167 253.5,250.5C 253.5,249.167 252.833,248.5 251.5,248.5 Z"/></g>
<g><path style="opacity:0.007" fill="#000000" d="M 276.5,248.5 C 277.833,248.5 279.167,248.5 280.5,248.5C 279.167,251.167 277.833,251.167 276.5,248.5 Z"/></g>
<g><path style="opacity:0.013" fill="#000000" d="M 120.5,258.5 C 122.933,259.548 122.933,260.214 120.5,260.5C 120.5,259.833 120.5,259.167 120.5,258.5 Z"/></g>
<g><path style="opacity:0.008" fill="#000000" d="M 376.5,258.5 C 376.5,259.5 376.5,260.5 376.5,261.5C 373.833,260.5 373.833,259.5 376.5,258.5 Z"/></g>
<g><path style="opacity:0.012" fill="#000000" d="M 202.5,261.5 C 201.833,261.5 201.167,261.5 200.5,261.5C 201.167,258.833 201.833,258.833 202.5,261.5 Z"/></g>
<g><path style="opacity:0.004" fill="#000000" d="M 60.5,287.5 C 60.8966,286.475 61.5632,286.308 62.5,287C 61.9056,287.464 61.2389,287.631 60.5,287.5 Z"/></g>
<g><path style="opacity:0.008" fill="#000000" d="M 192.5,286.5 C 193.167,286.5 193.833,286.5 194.5,286.5C 194.214,288.933 193.548,288.933 192.5,286.5 Z"/></g>
<g><path style="opacity:0.008" fill="#000000" d="M 317.5,286.5 C 318.167,286.5 318.833,286.5 319.5,286.5C 318.452,288.933 317.786,288.933 317.5,286.5 Z"/></g>
<g><path style="opacity:0.004" fill="#000000" d="M 59.5,289.5 C 60.5,289.5 61.5,289.5 62.5,289.5C 62.6666,302.171 62.4999,314.838 62,327.5C 61.586,327.957 61.086,328.291 60.5,328.5C 59.5009,315.517 59.1675,302.517 59.5,289.5 Z"/></g>
<g><path style="opacity:0.953" fill="#fdfdfd" d="M 333.5,302.5 C 334.833,302.5 335.5,301.833 335.5,300.5C 338.187,300.336 340.854,300.503 343.5,301C 342.249,320.424 342.249,339.757 343.5,359C 342.181,363.981 339.347,367.815 335,370.5C 334.586,370.043 334.086,369.709 333.5,369.5C 331.885,370.154 330.218,370.654 328.5,371C 323.506,374.833 318.173,378.166 312.5,381C 305.808,381.831 299.142,381.664 292.5,380.5C 286.445,378.057 280.945,374.724 276,370.5C 270.548,373.927 265.048,377.26 259.5,380.5C 250.236,382.173 241.236,381.34 232.5,378C 229.091,376.12 226.258,373.62 224,370.5C 222.887,371.711 221.72,371.711 220.5,370.5C 209.46,380.959 196.46,384.126 181.5,380C 175.617,374.199 168.617,370.366 160.5,368.5C 158.823,366.324 156.989,364.324 155,362.5C 154.5,339.836 154.333,317.169 154.5,294.5C 156.527,294.338 158.527,294.505 160.5,295C 168.83,298.719 177.33,302.219 186,305.5C 186.772,305.355 187.439,305.022 188,304.5C 193.735,307.451 199.735,309.784 206,311.5C 206.561,310.978 207.228,310.645 208,310.5C 211.602,311.546 215.102,312.713 218.5,314C 222.354,314.354 226.188,314.854 230,315.5C 233.212,314.568 236.379,314.901 239.5,316.5C 246,316.833 252.5,317.167 259,317.5C 272.322,317.086 285.155,315.919 297.5,314C 307.318,311.302 317.318,308.135 327.5,304.5C 328.086,304.709 328.586,305.043 329,305.5C 330.092,303.883 331.592,302.883 333.5,302.5 Z"/></g>
<g><path style="opacity:0.008" fill="#000000" d="M 335.5,300.5 C 335.5,301.833 334.833,302.5 333.5,302.5C 333.833,301.5 334.5,300.833 335.5,300.5 Z"/></g>
<g><path style="opacity:0.008" fill="#000000" d="M 373.5,303.5 C 373.737,304.791 373.404,305.791 372.5,306.5C 371.185,305.105 371.519,304.105 373.5,303.5 Z"/></g>
<g><path style="opacity:0.005" fill="#000000" d="M 101.5,325.5 C 101.5,330.5 101.5,335.5 101.5,340.5C 100.784,335.966 100.117,331.299 99.5,326.5C 99.9569,325.702 100.624,325.369 101.5,325.5 Z"/></g>
<g><path style="opacity:0.007" fill="#000000" d="M 370.5,327.5 C 370.5,333.5 370.5,339.5 370.5,345.5C 369.761,345.631 369.094,345.464 368.5,345C 369.711,343.887 369.711,342.72 368.5,341.5C 369.117,336.701 369.784,332.034 370.5,327.5 Z"/></g>
<g><path style="opacity:0.007" fill="#000000" d="M 104.5,361.5 C 104.5,366.5 104.5,371.5 104.5,376.5C 103.754,372.148 103.087,367.648 102.5,363C 102.836,361.97 103.503,361.47 104.5,361.5 Z"/></g>
<g><path style="opacity:0.01" fill="#000000" d="M 367.5,370.5 C 367.819,375.363 367.486,380.03 366.5,384.5C 366.533,381.435 366.2,378.268 365.5,375C 365.307,372.992 365.974,371.492 367.5,370.5 Z"/></g>
<g><path style="opacity:0.008" fill="#000000" d="M 394.5,385.5 C 394.167,386.5 393.5,387.167 392.5,387.5C 392.5,386.167 393.167,385.5 394.5,385.5 Z"/></g>
<g><path style="opacity:0.006" fill="#000000" d="M 392.5,399.5 C 393.289,399.783 393.956,400.283 394.5,401C 393.167,402 393.167,403 394.5,404C 393.956,404.717 393.289,405.217 392.5,405.5C 392.5,403.5 392.5,401.5 392.5,399.5 Z"/></g>
<g><path style="opacity:0.102" fill="#5b5b5b" d="M 363.5,416.5 C 364.625,417.348 364.625,418.348 363.5,419.5C 362.167,418.5 362.167,417.5 363.5,416.5 Z"/></g>
<g><path style="opacity:0.007" fill="#000000" d="M 135.5,425.5 C 137.933,426.548 137.933,427.214 135.5,427.5C 135.5,426.833 135.5,426.167 135.5,425.5 Z"/></g>
<g><path style="opacity:0.055" fill="#5b5b5b" d="M 361.5,428.5 C 361.672,429.492 361.338,430.158 360.5,430.5C 359.243,429.377 359.576,428.711 361.5,428.5 Z"/></g>
<g><path style="opacity:0.012" fill="#000000" d="M 170.5,466.5 C 169.209,466.737 168.209,466.404 167.5,465.5C 168.895,464.185 169.895,464.519 170.5,466.5 Z"/></g>
</svg>
