<?xml version="1.0" encoding="UTF-8"?>
<!DOCTYPE svg PUBLIC "-//W3C//DTD SVG 1.1//EN" "http://www.w3.org/Graphics/SVG/1.1/DTD/svg11.dtd">
<svg xmlns="http://www.w3.org/2000/svg" version="1.1" width="500px" height="500px" style="shape-rendering:geometricPrecision; text-rendering:geometricPrecision; image-rendering:optimizeQuality; fill-rule:evenodd; clip-rule:evenodd" xmlns:xlink="http://www.w3.org/1999/xlink">
<g><path style="opacity:0.971" fill="#fefffe" d="M 306.5,-0.5 C 333.833,-0.5 361.167,-0.5 388.5,-0.5C 403.372,3.54255 412.205,13.2092 415,28.5C 415.5,45.1633 415.667,61.83 415.5,78.5C 431.503,78.3334 447.503,78.5001 463.5,79C 479.442,80.6101 489.609,89.1101 494,104.5C 494.667,132.833 494.667,161.167 494,189.5C 490.5,202.333 482.333,210.5 469.5,214C 451.503,214.5 433.503,214.667 415.5,214.5C 415.667,231.503 415.5,248.503 415,265.5C 412.287,281.213 403.121,290.713 387.5,294C 374.167,294.167 360.833,294.333 347.5,294.5C 332.457,294.625 317.457,294.125 302.5,293C 290.837,288.67 283.337,280.503 280,268.5C 279.5,250.503 279.333,232.503 279.5,214.5C 261.497,214.667 243.497,214.5 225.5,214C 211.462,209.963 202.962,200.796 200,186.5C 199.833,173.333 199.667,160.167 199.5,147C 199.376,132.123 199.876,117.29 201,102.5C 206.228,88.2739 216.394,80.4405 231.5,79C 247.497,78.5001 263.497,78.3334 279.5,78.5C 279.333,60.8302 279.5,43.1635 280,25.5C 284.122,11.8769 292.955,3.21023 306.5,-0.5 Z M 310.5,26.5 C 335.169,26.3334 359.836,26.5 384.5,27C 385.667,28.1667 386.833,29.3333 388,30.5C 388.333,53.5 388.667,76.5 389,99.5C 389.774,101.939 391.274,103.773 393.5,105C 416.5,105.333 439.5,105.667 462.5,106C 465.773,106.94 467.606,109.107 468,112.5C 468.97,136.563 468.637,160.563 467,184.5C 465.681,186.487 463.848,187.654 461.5,188C 438.079,188.02 414.745,188.687 391.5,190C 390.107,191.171 389.273,192.671 389,194.5C 388.667,217.167 388.333,239.833 388,262.5C 387.215,264.286 386.049,265.786 384.5,267C 359.079,267.981 333.746,267.647 308.5,266C 307.874,265.25 307.374,264.416 307,263.5C 306.96,239.784 306.293,216.117 305,192.5C 303.833,191.333 302.667,190.167 301.5,189C 278.5,188.667 255.5,188.333 232.5,188C 229.768,187.602 227.935,186.102 227,183.5C 226.019,158.413 226.353,133.413 228,108.5C 228.903,107.299 230.069,106.465 231.5,106C 255.254,105.98 278.921,105.314 302.5,104C 304.768,102.442 305.934,100.276 306,97.5C 306.333,74.8333 306.667,52.1667 307,29.5C 308.145,28.3636 309.312,27.3636 310.5,26.5 Z"/></g>
<g><path style="opacity:0.971" fill="#fefffe" d="M 94.5,199.5 C 111.17,199.333 127.837,199.5 144.5,200C 160.333,202.5 169.5,211.667 172,227.5C 172.5,239.162 172.667,250.829 172.5,262.5C 184.505,262.333 196.505,262.5 208.5,263C 221.441,265.542 229.941,273.042 234,285.5C 235.098,295.285 235.598,305.119 235.5,315C 235.598,324.881 235.098,334.715 234,344.5C 230.418,356.415 222.585,363.915 210.5,367C 197.838,367.5 185.171,367.667 172.5,367.5C 172.667,379.505 172.5,391.505 172,403.5C 169.992,415.845 163.159,424.345 151.5,429C 140.889,430.119 130.222,430.619 119.5,430.5C 110.167,430.333 100.833,430.167 91.5,430C 78.9912,426.825 71.1578,418.991 68,406.5C 67.5001,393.504 67.3334,380.504 67.5,367.5C 54.4957,367.667 41.4957,367.5 28.5,367C 16.4323,363.933 8.59899,356.433 5,344.5C 4.33333,325.167 4.33333,305.833 5,286.5C 9.01509,273.819 17.5151,265.986 30.5,263C 42.8288,262.5 55.1622,262.333 67.5,262.5C 67.3334,249.496 67.5001,236.496 68,223.5C 72.3065,210.354 81.1398,202.354 94.5,199.5 Z M 97.5,226.5 C 112.504,226.333 127.504,226.5 142.5,227C 143.333,227.833 144.167,228.667 145,229.5C 145.333,247.5 145.667,265.5 146,283.5C 146.785,285.286 147.951,286.786 149.5,288C 168.077,289.308 186.743,289.975 205.5,290C 206.333,290.833 207.167,291.667 208,292.5C 208.667,307.5 208.667,322.5 208,337.5C 207.626,338.416 207.126,339.25 206.5,340C 188.833,340.333 171.167,340.667 153.5,341C 150.966,341.516 148.8,342.683 147,344.5C 145.692,363.077 145.025,381.743 145,400.5C 144.626,401.416 144.126,402.25 143.5,403C 127.833,403.667 112.167,403.667 96.5,403C 96,402.5 95.5,402 95,401.5C 93.6919,382.923 93.0252,364.257 93,345.5C 91.8333,344.333 90.6667,343.167 89.5,342C 70.8851,340.718 52.2185,340.052 33.5,340C 32.2986,339.097 31.4652,337.931 31,336.5C 30.3333,322.167 30.3333,307.833 31,293.5C 31.4652,292.069 32.2986,290.903 33.5,290C 51.5,289.667 69.5,289.333 87.5,289C 89.0806,288.293 90.5806,287.46 92,286.5C 93.3081,267.923 93.9748,249.257 94,230.5C 94.6897,228.65 95.8564,227.316 97.5,226.5 Z"/></g>
<g><path style="opacity:0.97" fill="#fefffe" d="M 348.5,499.5 C 333.5,499.5 318.5,499.5 303.5,499.5C 287.009,492.878 280.009,480.545 282.5,462.5C 266.974,465.292 255.474,459.958 248,446.5C 247.178,444.212 246.511,441.878 246,439.5C 245.333,426.167 245.333,412.833 246,399.5C 250.789,380.668 262.956,372.668 282.5,375.5C 279.726,356.515 287.393,344.348 305.5,339C 320.879,338.082 336.213,338.416 351.5,340C 366.297,347.083 372.63,358.916 370.5,375.5C 388.403,372.688 400.236,379.688 406,396.5C 406.667,411.833 406.667,427.167 406,442.5C 399.66,458.593 387.827,465.26 370.5,462.5C 372.548,480.778 365.215,493.111 348.5,499.5 Z M 309.5,365.5 C 320.833,365.5 332.167,365.5 343.5,365.5C 343.333,376.172 343.5,386.839 344,397.5C 345.637,399.81 347.804,401.31 350.5,402C 360.167,402.333 369.833,402.667 379.5,403C 380.825,413.803 380.825,424.637 379.5,435.5C 369.183,436.332 358.849,436.832 348.5,437C 347.069,437.465 345.903,438.299 345,439.5C 343.546,450.397 343.046,461.397 343.5,472.5C 332.167,472.5 320.833,472.5 309.5,472.5C 309.666,462.494 309.5,452.494 309,442.5C 308.315,439.943 306.815,438.109 304.5,437C 293.923,436.821 283.423,436.321 273,435.5C 272.5,424.505 272.333,413.505 272.5,402.5C 283.578,402.931 294.578,402.431 305.5,401C 307.487,399.681 308.654,397.848 309,395.5C 309.5,385.506 309.666,375.506 309.5,365.5 Z"/></g>
</svg>
