<?xml version="1.0" encoding="UTF-8"?>
<!DOCTYPE svg PUBLIC "-//W3C//DTD SVG 1.1//EN" "http://www.w3.org/Graphics/SVG/1.1/DTD/svg11.dtd">
<svg xmlns="http://www.w3.org/2000/svg" version="1.1" width="500px" height="500px" style="shape-rendering:geometricPrecision; text-rendering:geometricPrecision; image-rendering:optimizeQuality; fill-rule:evenodd; clip-rule:evenodd" xmlns:xlink="http://www.w3.org/1999/xlink">
<g><path style="opacity:0.264" fill="#4d16ba" d="M 220.5,45.5 C 224.167,45.5 227.833,45.5 231.5,45.5C 230.167,46.1667 228.833,46.8333 227.5,47.5C 224.612,48.0102 222.279,47.3435 220.5,45.5 Z"/></g>
<g><path style="opacity:0.888" fill="#4e16bd" d="M 231.5,45.5 C 243.5,45.5 255.5,45.5 267.5,45.5C 268.833,46.1667 270.167,46.8333 271.5,47.5C 256.833,47.5 242.167,47.5 227.5,47.5C 228.833,46.8333 230.167,46.1667 231.5,45.5 Z"/></g>
<g><path style="opacity:0.264" fill="#4d16ba" d="M 267.5,45.5 C 271.167,45.5 274.833,45.5 278.5,45.5C 276.721,47.3435 274.388,48.0102 271.5,47.5C 270.167,46.8333 268.833,46.1667 267.5,45.5 Z"/></g>
<g><path style="opacity:0.815" fill="#4e16bd" d="M 220.5,45.5 C 222.279,47.3435 224.612,48.0102 227.5,47.5C 212.859,49.0701 198.192,51.4034 183.5,54.5C 182.287,54.2528 181.62,53.5862 181.5,52.5C 194.217,49.2124 207.217,46.8791 220.5,45.5 Z"/></g>
<g><path style="opacity:0.997" fill="#4d16bb" d="M 227.5,47.5 C 242.167,47.5 256.833,47.5 271.5,47.5C 289.073,49.235 306.573,52.235 324,56.5C 325.03,56.1639 325.53,55.4972 325.5,54.5C 387.01,69.5497 435.843,102.883 472,154.5C 486.851,178.226 496.018,203.893 499.5,231.5C 499.5,243.167 499.5,254.833 499.5,266.5C 491.314,321.512 464.981,365.679 420.5,399C 358.667,442.625 290.001,459.959 214.5,451C 179.846,445.615 146.846,435.115 115.5,419.5C 83.2396,427.94 51.073,436.606 19,445.5C 26.8545,412.752 35.3545,380.085 44.5,347.5C 35.014,333.206 25.514,318.872 16,304.5C 8.18614,290.903 2.68614,276.569 -0.5,261.5C -0.5,251.167 -0.5,240.833 -0.5,230.5C 7.13438,181.404 29.801,140.571 67.5,108C 100.795,80.1874 138.795,61.6874 181.5,52.5C 181.62,53.5862 182.287,54.2528 183.5,54.5C 198.192,51.4034 212.859,49.0701 227.5,47.5 Z M 139.5,224.5 C 159.977,224.143 169.81,234.143 169,254.5C 163.924,268.958 153.757,275.125 138.5,273C 121.095,266.024 115.928,253.857 123,236.5C 127.245,230.641 132.745,226.641 139.5,224.5 Z M 244.5,224.5 C 264.977,224.143 274.81,234.143 274,254.5C 268.924,268.958 258.757,275.125 243.5,273C 226.095,266.024 220.928,253.857 228,236.5C 232.245,230.641 237.745,226.641 244.5,224.5 Z M 349.5,224.5 C 369.977,224.143 379.81,234.143 379,254.5C 373.924,268.958 363.757,275.125 348.5,273C 331.095,266.024 325.928,253.857 333,236.5C 337.245,230.641 342.745,226.641 349.5,224.5 Z"/></g>
<g><path style="opacity:0.644" fill="#4e16bc" d="M 278.5,45.5 C 294.541,47.1154 310.208,50.1154 325.5,54.5C 325.53,55.4972 325.03,56.1639 324,56.5C 306.573,52.235 289.073,49.235 271.5,47.5C 274.388,48.0102 276.721,47.3435 278.5,45.5 Z"/></g>
</svg>
