<?xml version="1.0" encoding="UTF-8"?>
<!DOCTYPE svg PUBLIC "-//W3C//DTD SVG 1.1//EN" "http://www.w3.org/Graphics/SVG/1.1/DTD/svg11.dtd">
<svg xmlns="http://www.w3.org/2000/svg" version="1.1" width="500px" height="500px" style="shape-rendering:geometricPrecision; text-rendering:geometricPrecision; image-rendering:optimizeQuality; fill-rule:evenodd; clip-rule:evenodd" xmlns:xlink="http://www.w3.org/1999/xlink">
<g><path style="opacity:0.952" fill="#fcfcfc" d="M 234.5,49.5 C 239.358,49.5288 244.358,49.6955 249.5,50C 255.275,50.4396 260.942,52.1063 266.5,55C 268.537,57.8634 271.204,60.0301 274.5,61.5C 277.937,67.3751 281.104,73.3751 284,79.5C 283.929,84.473 284.096,89.3063 284.5,94C 278.482,119.659 262.482,130.993 236.5,128C 227.076,126.912 219.409,122.745 213.5,115.5C 206.823,106.682 203.823,96.6824 204.5,85.5C 206.934,68.9284 215.767,57.595 231,51.5C 232.851,52.5368 234.017,51.8701 234.5,49.5 Z"/></g>
<g><path style="opacity:0.918" fill="#f8f8f8" d="M 341.5,68.5 C 345.802,68.8645 350.135,68.8645 354.5,68.5C 359.707,69.6724 364.54,71.6724 369,74.5C 378.959,84.5935 381.959,96.5935 378,110.5C 368.384,127.537 354.551,132.704 336.5,126C 321.854,117.913 316.854,105.746 321.5,89.5C 321.291,88.914 320.957,88.414 320.5,88C 325.878,79.1081 332.878,72.6081 341.5,68.5 Z M 347.5,90.5 C 350.049,90.3874 352.382,91.0541 354.5,92.5C 359.576,98.7894 358.243,103.789 350.5,107.5C 341.773,105.377 339.606,100.377 344,92.5C 345.302,91.9152 346.469,91.2485 347.5,90.5 Z"/></g>
<g><path style="opacity:0.94" fill="#fbfbfb" d="M 265.5,145.5 C 265.5,146.167 265.833,146.5 266.5,146.5C 267.404,145.791 267.737,144.791 267.5,143.5C 268.256,136.986 270.923,131.319 275.5,126.5C 276.325,125.614 277.325,125.281 278.5,125.5C 278.33,124.178 278.663,123.011 279.5,122C 299.646,111.919 314.979,116.586 325.5,136C 325.973,139.529 326.973,142.862 328.5,146C 345.365,146.812 362.198,146.645 379,145.5C 394.806,150.64 403.639,161.473 405.5,178C 404.722,181.147 403.889,184.313 403,187.5C 396.657,200.172 390.323,212.839 384,225.5C 381.513,227.809 379.513,230.476 378,233.5C 376.674,242.028 375.508,250.528 374.5,259C 375.285,261.908 375.619,264.742 375.5,267.5C 374.06,274.774 373.06,282.107 372.5,289.5C 372.519,292.319 372.852,295.153 373.5,298C 372.89,299.947 372.057,301.781 371,303.5C 370.809,309.083 370.309,314.583 369.5,320C 369.959,323.342 370.292,326.675 370.5,330C 369.809,331.067 369.309,332.234 369,333.5C 368.03,343.793 367.53,353.793 367.5,363.5C 366.167,363.5 365.5,364.167 365.5,365.5C 365.5,368.5 365.5,371.5 365.5,374.5C 365.5,375.167 365.5,375.833 365.5,376.5C 365.804,377.15 366.137,377.817 366.5,378.5C 365.594,384.94 364.594,391.107 363.5,397C 364.772,399.044 364.439,400.878 362.5,402.5C 355.882,427.23 340.216,443.73 315.5,452C 310.825,452.797 306.159,453.63 301.5,454.5C 267.172,455.667 232.838,455.833 198.5,455C 187.532,453.842 177.199,450.676 167.5,445.5C 163.037,443.185 159.037,440.351 155.5,437C 152.03,432.858 148.53,428.692 145,424.5C 143.777,420.385 141.777,416.718 139,413.5C 137.28,404.733 135.113,396.233 132.5,388C 133.416,383.687 133.749,379.187 133.5,374.5C 132.323,368.572 131.656,362.572 131.5,356.5C 131.5,352.167 131.5,347.833 131.5,343.5C 130.365,342.526 129.365,341.359 128.5,340C 129.022,331.534 129.022,322.701 128.5,313.5C 127.389,312.389 126.722,311.055 126.5,309.5C 127.32,305.256 127.654,301.089 127.5,297C 124.579,276.769 122.746,256.603 122,236.5C 121.5,236 121,235.5 120.5,235C 121.116,233.6 121.449,232.1 121.5,230.5C 119.955,225.74 118.122,221.073 116,216.5C 113.71,213.42 111.543,210.253 109.5,207C 109.833,206.667 110.167,206.333 110.5,206C 105.697,199.858 100.864,193.691 96,187.5C 90.7457,168.637 97.0791,154.97 115,146.5C 117.873,146.627 120.706,146.627 123.5,146.5C 130.5,146.5 137.5,146.5 144.5,146.5C 144.5,145.167 144.5,143.833 144.5,142.5C 145.642,140.626 146.975,138.793 148.5,137C 148.167,136.667 147.833,136.333 147.5,136C 151.507,130.66 156.174,125.993 161.5,122C 163.518,121.495 165.518,120.995 167.5,120.5C 168.833,120.5 169.5,119.833 169.5,118.5C 194.445,114.057 211.611,123.39 221,146.5C 235.77,146.784 250.603,146.451 265.5,145.5 Z M 174.5,146.5 C 174.189,145.522 173.522,144.855 172.5,144.5C 171.264,145.246 169.93,145.579 168.5,145.5C 172.514,140.361 177.681,138.028 184,138.5C 188.302,139.794 192.135,141.961 195.5,145C 195,145.5 194.5,146 194,146.5C 187.651,146.384 181.151,146.384 174.5,146.5 Z M 292.5,146.5 C 292.631,145.761 292.464,145.094 292,144.5C 291.329,145.252 290.496,145.586 289.5,145.5C 290.309,139.59 293.642,137.423 299.5,139C 301.5,141 303.5,143 305.5,145C 301.365,146.431 297.032,146.931 292.5,146.5 Z M 171.5,182.5 C 170.5,182.833 169.833,183.5 169.5,184.5C 154.496,184.667 139.496,184.5 124.5,184C 121.056,182.762 118.39,180.595 116.5,177.5C 117.213,175.224 117.713,172.891 118,170.5C 118.903,169.299 120.069,168.465 121.5,168C 138.163,167.5 154.83,167.333 171.5,167.5C 171.5,172.5 171.5,177.5 171.5,182.5 Z M 326.5,167.5 C 343.503,167.333 360.503,167.5 377.5,168C 380.375,170.915 382.042,174.082 382.5,177.5C 380.167,178.5 378.5,180.167 377.5,182.5C 376.271,183.281 374.938,183.781 373.5,184C 357.795,184.466 342.295,184.633 327,184.5C 326.501,178.843 326.334,173.176 326.5,167.5 Z M 142.5,205.5 C 152.167,205.5 161.833,205.5 171.5,205.5C 171.334,211.842 171.5,218.175 172,224.5C 176.227,227.271 180.227,230.271 184,233.5C 184.333,233.167 184.667,232.833 185,232.5C 191.038,236.686 197.372,240.352 204,243.5C 205.763,243.694 207.597,243.694 209.5,243.5C 214.078,245.805 218.745,247.805 223.5,249.5C 225.922,249.255 228.255,249.255 230.5,249.5C 232.091,251.986 234.091,252.652 236.5,251.5C 238.187,251.76 239.687,252.427 241,253.5C 247.34,252.364 253.673,252.697 260,254.5C 264.314,253.053 268.647,252.72 273,253.5C 279.996,251.024 287.162,248.857 294.5,247C 295.931,246.535 297.097,245.701 298,244.5C 307.117,241.532 316.284,237.032 325.5,231C 326.357,230.311 327.023,229.478 327.5,228.5C 326.18,220.97 326.18,213.47 327.5,206C 337.161,205.5 346.828,205.334 356.5,205.5C 355.372,210.375 355.372,215.042 356.5,219.5C 355.094,219.973 354.427,220.973 354.5,222.5C 354.108,224.179 353.608,225.846 353,227.5C 350.345,229.99 347.845,232.656 345.5,235.5C 340.564,238.806 336.064,242.473 332,246.5C 331.667,246.167 331.333,245.833 331,245.5C 327.885,248.373 324.385,250.706 320.5,252.5C 318.62,252.229 317.287,252.896 316.5,254.5C 315.833,254.5 315.5,254.833 315.5,255.5C 314.105,254.185 313.105,254.519 312.5,256.5C 302.049,260.954 291.883,264.287 282,266.5C 278.286,267.637 274.452,268.47 270.5,269C 260.833,269.667 251.167,269.667 241.5,269C 211.703,264.825 184.036,253.658 158.5,235.5C 152.107,230.275 146.607,224.275 142,217.5C 141.545,214.146 141.045,210.813 140.5,207.5C 141.833,207.5 142.5,206.833 142.5,205.5 Z M 199.5,281.5 C 199.369,282.239 199.536,282.906 200,283.5C 200.671,282.748 201.504,282.414 202.5,282.5C 202.783,283.289 203.283,283.956 204,284.5C 206.211,284.377 208.378,284.377 210.5,284.5C 217.184,286.007 223.684,288.007 230,290.5C 232.515,289.326 235.015,289.659 237.5,291.5C 241.381,289.885 245.047,290.218 248.5,292.5C 256.486,291.038 264.486,290.705 272.5,291.5C 274.815,289.412 277.315,289.078 280,290.5C 285.304,288.844 290.637,287.177 296,285.5C 296.333,285.833 296.667,286.167 297,286.5C 299.643,284.44 302.476,283.774 305.5,284.5C 306.345,282.238 307.678,281.571 309.5,282.5C 324.07,276.221 337.737,268.554 350.5,259.5C 352.4,263.821 352.4,267.987 350.5,272C 350.909,275.478 351.242,278.978 351.5,282.5C 349.882,289.713 348.549,297.046 347.5,304.5C 347.709,305.086 348.043,305.586 348.5,306C 347.128,322.323 345.462,338.656 343.5,355C 343.762,362.428 343.762,370.095 343.5,378C 341.917,384.709 340.917,391.542 340.5,398.5C 338.576,398.711 338.243,399.377 339.5,400.5C 337.081,407.22 333.248,413.553 328,419.5C 324.642,421.39 321.476,423.39 318.5,425.5C 316.973,425.427 315.973,426.094 315.5,427.5C 310.884,429.763 306.217,431.263 301.5,432C 265.97,432.454 230.803,432.621 196,432.5C 192.866,431.091 189.699,430.091 186.5,429.5C 186.027,428.094 185.027,427.427 183.5,427.5C 179.118,426.141 175.118,423.974 171.5,421C 166.263,416.03 162.097,410.197 159,403.5C 158.654,401.782 158.154,400.115 157.5,398.5C 157.709,397.914 158.043,397.414 158.5,397C 155.984,395.024 155.318,392.69 156.5,390C 154.27,373.623 152.77,357.123 152,340.5C 150.863,337.68 150.696,334.68 151.5,331.5C 150.081,324.436 149.081,317.269 148.5,310C 147.893,300.028 147.893,290.695 148.5,282C 147.635,280.641 146.635,279.474 145.5,278.5C 146.289,278.217 146.956,277.717 147.5,277C 146.249,274.047 146.249,271.047 147.5,268C 147.164,266.97 146.497,266.47 145.5,266.5C 145.463,263.059 145.129,259.559 144.5,256C 144.63,254.941 145.13,254.108 146,253.5C 162.383,266.194 180.216,275.527 199.5,281.5 Z"/></g>
<g><path style="opacity:0.007" fill="#000000" d="M 169.5,118.5 C 169.5,119.833 168.833,120.5 167.5,120.5C 167.833,119.5 168.5,118.833 169.5,118.5 Z"/></g>
<g><path style="opacity:0.005" fill="#000000" d="M 144.5,142.5 C 144.5,143.833 144.5,145.167 144.5,146.5C 137.5,146.5 130.5,146.5 123.5,146.5C 129.979,145.509 136.646,145.176 143.5,145.5C 143.263,144.209 143.596,143.209 144.5,142.5 Z"/></g>
<g><path style="opacity:0.013" fill="#000000" d="M 267.5,143.5 C 267.737,144.791 267.404,145.791 266.5,146.5C 265.833,146.5 265.5,146.167 265.5,145.5C 265.833,144.5 266.5,143.833 267.5,143.5 Z"/></g>
<g><path style="opacity:0.012" fill="#020202" d="M 174.5,146.5 C 170.897,146.965 168.897,146.632 168.5,145.5C 169.93,145.579 171.264,145.246 172.5,144.5C 173.522,144.855 174.189,145.522 174.5,146.5 Z"/></g>
<g><path style="opacity:0.007" fill="#0d0d0d" d="M 292.5,146.5 C 290.801,146.66 289.134,146.494 287.5,146C 288.094,145.536 288.761,145.369 289.5,145.5C 290.496,145.586 291.329,145.252 292,144.5C 292.464,145.094 292.631,145.761 292.5,146.5 Z"/></g>
<g><path style="opacity:0.004" fill="#000000" d="M 171.5,182.5 C 171.5,183.833 170.833,184.5 169.5,184.5C 169.833,183.5 170.5,182.833 171.5,182.5 Z"/></g>
<g><path style="opacity:0.013" fill="#000000" d="M 142.5,205.5 C 142.5,206.833 141.833,207.5 140.5,207.5C 140.5,206.167 141.167,205.5 142.5,205.5 Z"/></g>
<g><path style="opacity:0.009" fill="#000000" d="M 356.5,219.5 C 356.715,221.179 356.048,222.179 354.5,222.5C 354.427,220.973 355.094,219.973 356.5,219.5 Z"/></g>
<g><path style="opacity:0.055" fill="#5b5b5b" d="M 320.5,252.5 C 319.486,253.674 318.153,254.34 316.5,254.5C 317.287,252.896 318.62,252.229 320.5,252.5 Z"/></g>
<g><path style="opacity:0.008" fill="#000000" d="M 315.5,255.5 C 314.791,256.404 313.791,256.737 312.5,256.5C 313.105,254.519 314.105,254.185 315.5,255.5 Z"/></g>
<g><path style="opacity:0.009" fill="#000000" d="M 145.5,266.5 C 146.497,266.47 147.164,266.97 147.5,268C 146.249,271.047 146.249,274.047 147.5,277C 146.956,277.717 146.289,278.217 145.5,278.5C 145.5,274.5 145.5,270.5 145.5,266.5 Z"/></g>
<g><path style="opacity:0.008" fill="#000000" d="M 199.5,281.5 C 200.791,281.263 201.791,281.596 202.5,282.5C 201.504,282.414 200.671,282.748 200,283.5C 199.536,282.906 199.369,282.239 199.5,281.5 Z"/></g>
<g><path style="opacity:0.005" fill="#000000" d="M 95.5,282.5 C 96.2389,282.369 96.9056,282.536 97.5,283C 97.1224,288.626 97.1224,294.46 97.5,300.5C 97.3333,305.833 97.1667,311.167 97,316.5C 96.3333,317.167 95.6667,317.833 95,318.5C 94.1888,306.424 94.3554,294.424 95.5,282.5 Z"/></g>
<g><path style="opacity:0.951" fill="#fdfdfd" d="M 182.5,291.5 C 182.821,293.048 183.821,293.715 185.5,293.5C 190.215,295.505 194.882,296.838 199.5,297.5C 204.269,299.756 209.269,301.423 214.5,302.5C 215.5,303.833 216.5,303.833 217.5,302.5C 222.526,304.657 227.86,305.99 233.5,306.5C 236.144,305.619 238.811,305.786 241.5,307C 252.167,307.667 262.833,307.667 273.5,307C 276.086,305.739 278.586,305.572 281,306.5C 285.832,305.619 290.332,304.619 294.5,303.5C 295.492,303.672 296.158,303.338 296.5,302.5C 301.56,301.319 306.56,299.985 311.5,298.5C 312.167,298.5 312.833,298.5 313.5,298.5C 316.596,294.692 320.429,293.025 325,293.5C 325.263,310.009 325.763,326.342 326.5,342.5C 324.709,345.132 322.709,347.465 320.5,349.5C 318.901,349.232 317.568,349.566 316.5,350.5C 311.203,352.815 306.203,355.648 301.5,359C 296.25,359.193 291.083,359.693 286,360.5C 280.462,358.126 275.295,355.126 270.5,351.5C 265.668,354.492 260.834,357.492 256,360.5C 249.853,359.832 243.687,358.999 237.5,358C 234.065,355.197 230.232,353.031 226,351.5C 221.963,354.879 217.463,357.379 212.5,359C 206.5,359.667 200.5,359.667 194.5,359C 191.55,357.385 188.884,355.385 186.5,353C 183.167,351.667 179.833,350.333 176.5,349C 174.641,347.442 173.141,345.609 172,343.5C 171.5,325.503 171.333,307.503 171.5,289.5C 175.335,289.417 179.002,290.083 182.5,291.5 Z"/></g>
<g><path style="opacity:0.006" fill="#232323" d="M 182.5,291.5 C 183.71,291.932 184.71,292.599 185.5,293.5C 183.821,293.715 182.821,293.048 182.5,291.5 Z"/></g>
<g><path style="opacity:0.009" fill="#000000" d="M 313.5,298.5 C 312.833,298.5 312.167,298.5 311.5,298.5C 312.548,296.067 313.214,296.067 313.5,298.5 Z"/></g>
<g><path style="opacity:0.027" fill="#3c3c3c" d="M 217.5,302.5 C 216.5,303.833 215.5,303.833 214.5,302.5C 215.348,301.375 216.348,301.375 217.5,302.5 Z"/></g>
<g><path style="opacity:0.027" fill="#2e2e2e" d="M 296.5,302.5 C 296.158,303.338 295.492,303.672 294.5,303.5C 294.711,301.576 295.377,301.243 296.5,302.5 Z"/></g>
<g><path style="opacity:0.006" fill="#000000" d="M 131.5,343.5 C 131.5,347.833 131.5,352.167 131.5,356.5C 130.804,352.769 130.138,348.935 129.5,345C 130.044,344.283 130.711,343.783 131.5,343.5 Z"/></g>
<g><path style="opacity:0.008" fill="#000000" d="M 316.5,350.5 C 317.568,349.566 318.901,349.232 320.5,349.5C 319.708,351.745 318.375,352.078 316.5,350.5 Z"/></g>
<g><path style="opacity:0.008" fill="#000000" d="M 367.5,363.5 C 367.167,364.5 366.5,365.167 365.5,365.5C 365.5,364.167 366.167,363.5 367.5,363.5 Z"/></g>
<g><path style="opacity:0.008" fill="#000000" d="M 365.5,374.5 C 367.933,375.548 367.933,376.214 365.5,376.5C 365.5,375.833 365.5,375.167 365.5,374.5 Z"/></g>
<g><path style="opacity:0.004" fill="#131313" d="M 340.5,398.5 C 340.672,399.492 340.338,400.158 339.5,400.5C 338.243,399.377 338.576,398.711 340.5,398.5 Z"/></g>
<g><path style="opacity:0.11" fill="#5e5e5e" d="M 318.5,425.5 C 318.027,426.906 317.027,427.573 315.5,427.5C 315.973,426.094 316.973,425.427 318.5,425.5 Z"/></g>
<g><path style="opacity:0.012" fill="#000000" d="M 183.5,427.5 C 185.027,427.427 186.027,428.094 186.5,429.5C 184.821,429.715 183.821,429.048 183.5,427.5 Z"/></g>
</svg>
