<?xml version="1.0" encoding="UTF-8"?>
<!DOCTYPE svg PUBLIC "-//W3C//DTD SVG 1.1//EN" "http://www.w3.org/Graphics/SVG/1.1/DTD/svg11.dtd">
<svg xmlns="http://www.w3.org/2000/svg" version="1.1" width="500px" height="500px" style="shape-rendering:geometricPrecision; text-rendering:geometricPrecision; image-rendering:optimizeQuality; fill-rule:evenodd; clip-rule:evenodd" xmlns:xlink="http://www.w3.org/1999/xlink">
<g><path style="opacity:0.132" fill="#edcbe1" d="M 245.5,0.5 C 245.5,1.5 245.5,2.5 245.5,3.5C 243.833,3.5 242.167,3.5 240.5,3.5C 240.167,3.5 239.833,3.5 239.5,3.5C 240.607,1.03108 242.607,0.031076 245.5,0.5 Z"/></g>
<g><path style="opacity:0.471" fill="#eda6cd" d="M 247.5,0.5 C 247.5,0.166667 247.5,-0.166667 247.5,-0.5C 250.5,-0.5 253.5,-0.5 256.5,-0.5C 255.866,0.94678 254.699,1.61345 253,1.5C 251.175,1.05663 249.342,0.723302 247.5,0.5 Z"/></g>
<g><path style="opacity:0.016" fill="#fce2fa" d="M 295.5,0.5 C 297.5,0.5 298.5,1.5 298.5,3.5C 297.5,3.5 296.5,3.5 295.5,3.5C 295.5,2.5 295.5,1.5 295.5,0.5 Z"/></g>
<g><path style="opacity:0.978" fill="#cb248d" d="M 256.5,-0.5 C 264.5,-0.5 272.5,-0.5 280.5,-0.5C 280.611,0.117425 280.944,0.617425 281.5,1C 284.482,1.49796 287.482,1.66463 290.5,1.5C 290.5,2.5 290.5,3.5 290.5,4.5C 292.604,4.2011 294.604,4.53443 296.5,5.5C 302.656,8.41178 308.989,11.0784 315.5,13.5C 316.5,13.5 317.5,13.5 318.5,13.5C 318.5,14.8333 319.167,15.5 320.5,15.5C 320.5,16.5 320.5,17.5 320.5,18.5C 321.5,18.5 322.5,18.5 323.5,18.5C 324.833,18.5 325.5,19.1667 325.5,20.5C 325.5,21.5 325.5,22.5 325.5,23.5C 327.322,23.8308 328.989,24.4975 330.5,25.5C 330.5,26.1667 330.5,26.8333 330.5,27.5C 331.167,29.5 331.833,31.5 332.5,33.5C 333.5,33.5 334.5,33.5 335.5,33.5C 344.105,35.4711 353.105,36.1377 362.5,35.5C 363.167,35.5 363.833,35.5 364.5,35.5C 364.5,36.5 364.5,37.5 364.5,38.5C 368.923,38.6904 373.256,39.3571 377.5,40.5C 378.833,40.5 379.5,41.1667 379.5,42.5C 382.057,43.5879 384.724,44.5879 387.5,45.5C 388.167,45.5 388.833,45.5 389.5,45.5C 389.5,46.5 389.5,47.5 389.5,48.5C 391.322,48.8308 392.989,49.4975 394.5,50.5C 395.167,50.5 395.833,50.5 396.5,50.5C 397.757,54.3467 400.424,56.68 404.5,57.5C 404.833,60.5 406.5,62.1667 409.5,62.5C 409.5,63.5 409.5,64.5 409.5,65.5C 410.5,65.5 411.5,65.5 412.5,65.5C 412.5,66.1667 412.5,66.8333 412.5,67.5C 411.596,68.209 411.263,69.209 411.5,70.5C 413.209,75.5443 414.043,80.8776 414,86.5C 416.423,83.7939 417.59,84.4606 417.5,88.5C 418.333,95.1584 418.5,101.825 418,108.5C 418.414,108.043 418.914,107.709 419.5,107.5C 420.281,108.729 420.781,110.062 421,111.5C 425.69,109.994 430.523,108.994 435.5,108.5C 440.386,109.981 445.386,110.814 450.5,111C 454.722,115.111 459.722,117.611 465.5,118.5C 465.286,120.144 465.62,121.644 466.5,123C 471.854,123.727 476.521,125.894 480.5,129.5C 482.011,130.502 483.678,131.169 485.5,131.5C 485.833,134.5 487.5,136.167 490.5,136.5C 490.5,137.167 490.5,137.833 490.5,138.5C 490.5,139.5 490.5,140.5 490.5,141.5C 491.503,144.337 492.836,147.003 494.5,149.5C 492.356,147.274 489.856,145.274 487,143.5C 486.667,141.833 486.333,140.167 486,138.5C 485.654,141.576 484.988,144.576 484,147.5C 482.019,145.641 481.019,143.308 481,140.5C 479.765,145.151 478.098,145.484 476,141.5C 475.217,143.433 475.717,144.933 477.5,146C 475.845,147.444 475.178,149.278 475.5,151.5C 474.448,151.649 473.448,151.483 472.5,151C 474.524,148.36 474.857,145.527 473.5,142.5C 470.816,144.373 467.816,145.373 464.5,145.5C 464.64,143.876 463.973,142.71 462.5,142C 463.888,141.111 463.722,140.611 462,140.5C 460.5,140.667 459.667,141.5 459.5,143C 459.934,145.316 460.934,147.316 462.5,149C 461.5,149.5 460.5,150 459.5,150.5C 457.929,148.585 455.929,147.585 453.5,147.5C 455.978,151.395 457.811,155.729 459,160.5C 459.915,159.672 460.581,158.672 461,157.5C 462.439,162.762 462.772,168.096 462,173.5C 460.989,174.337 459.822,174.67 458.5,174.5C 458.5,174.167 458.5,173.833 458.5,173.5C 459.092,170.873 459.425,168.206 459.5,165.5C 458.5,165.5 457.5,165.5 456.5,165.5C 456.5,164.833 456.5,164.167 456.5,163.5C 456.5,162.5 456.5,161.5 456.5,160.5C 455.5,160.5 454.5,160.5 453.5,160.5C 453.5,159.833 453.5,159.167 453.5,158.5C 454.097,158.265 454.43,157.765 454.5,157C 452.735,153.631 450.069,151.464 446.5,150.5C 445.833,150.5 445.167,150.5 444.5,150.5C 443.498,148.989 442.831,147.322 442.5,145.5C 439.068,145.243 435.734,144.576 432.5,143.5C 428.833,143.5 425.167,143.5 421.5,143.5C 420.378,142.844 419.045,142.511 417.5,142.5C 411.189,143.885 404.856,145.051 398.5,146C 399.938,146.219 401.271,146.719 402.5,147.5C 399.57,151.48 396.737,155.48 394,159.5C 392.883,162.07 392.05,164.737 391.5,167.5C 391.511,169.045 391.844,170.378 392.5,171.5C 392.5,172.833 392.5,174.167 392.5,175.5C 392.5,176.167 392.5,176.833 392.5,177.5C 392.5,199.5 392.5,221.5 392.5,243.5C 393.071,245.36 393.071,247.027 392.5,248.5C 388.5,248.5 384.5,248.5 380.5,248.5C 380.5,247.5 380.5,246.5 380.5,245.5C 380.5,244.833 380.5,244.167 380.5,243.5C 380.5,242.5 380.5,241.5 380.5,240.5C 380.5,240.167 380.5,239.833 380.5,239.5C 380.5,215.167 380.5,190.833 380.5,166.5C 380.5,165.833 380.5,165.167 380.5,164.5C 380.5,148.833 380.5,133.167 380.5,117.5C 380.5,112.833 380.5,108.167 380.5,103.5C 380.5,100.167 380.5,96.8333 380.5,93.5C 380.511,88.8367 379.011,84.8367 376,81.5C 371.01,76.7653 365.177,73.432 358.5,71.5C 354.958,71.1872 351.625,71.5206 348.5,72.5C 345.302,71.9644 342.635,72.631 340.5,74.5C 338.833,74.5 337.167,74.5 335.5,74.5C 332.692,74.6933 330.025,75.36 327.5,76.5C 327.169,78.3224 326.502,79.9891 325.5,81.5C 322.5,81.8333 320.833,83.5 320.5,86.5C 317.5,86.8333 315.833,88.5 315.5,91.5C 315.5,93.1667 315.5,94.8333 315.5,96.5C 315.5,97.1667 315.5,97.8333 315.5,98.5C 313.612,100.988 312.945,103.988 313.5,107.5C 313.5,108.5 313.5,109.5 313.5,110.5C 313.5,154.833 313.5,199.167 313.5,243.5C 314.071,245.36 314.071,247.027 313.5,248.5C 309.5,248.5 305.5,248.5 301.5,248.5C 300.506,247.001 300.506,245.334 301.5,243.5C 301.5,242.5 301.5,241.5 301.5,240.5C 301.5,240.167 301.5,239.833 301.5,239.5C 301.5,191.5 301.5,143.5 301.5,95.5C 301.5,85.1667 301.5,74.8333 301.5,64.5C 301.5,62.8333 301.5,61.1667 301.5,59.5C 301.258,51.268 297.258,45.9347 289.5,43.5C 288.306,42.2008 287.306,40.8675 286.5,39.5C 285.909,38.8485 285.243,38.1818 284.5,37.5C 275.822,34.2002 267.155,33.8668 258.5,36.5C 257.106,36.3793 255.772,36.046 254.5,35.5C 251.038,39.2744 246.704,41.2744 241.5,41.5C 241.33,42.8221 241.663,43.9887 242.5,45C 240.608,45.9734 238.608,46.6401 236.5,47C 239.061,49.4897 239.061,51.9897 236.5,54.5C 236.216,56.4147 236.549,58.0813 237.5,59.5C 237.5,61.1667 237.5,62.8333 237.5,64.5C 237.5,126.167 237.5,187.833 237.5,249.5C 233.167,249.5 228.833,249.5 224.5,249.5C 223.174,212.103 223.174,174.436 224.5,136.5C 224.5,125.5 224.5,114.5 224.5,103.5C 225.473,101.052 225.806,98.3854 225.5,95.5C 224.5,95.5 223.5,95.5 222.5,95.5C 222.5,95.1667 222.5,94.8333 222.5,94.5C 222.5,93.5 222.5,92.5 222.5,91.5C 221.5,91.5 220.5,91.5 219.5,91.5C 219.5,90.8333 219.5,90.1667 219.5,89.5C 220.404,88.791 220.737,87.791 220.5,86.5C 219.167,83.8333 217.833,81.1667 216.5,78.5C 214.5,77.8333 212.5,77.1667 210.5,76.5C 209.818,73.3246 207.818,71.8246 204.5,72C 199.98,71.1864 195.646,71.353 191.5,72.5C 190.167,72.5 188.833,72.5 187.5,72.5C 186.036,71.8401 184.369,71.5068 182.5,71.5C 178.024,72.5829 173.691,73.9162 169.5,75.5C 169.5,76.5 169.5,77.5 169.5,78.5C 167.381,78.4677 166.048,79.4677 165.5,81.5C 162.355,84.0579 160.688,87.3912 160.5,91.5C 160.5,92.1667 160.5,92.8333 160.5,93.5C 158.744,94.5521 158.077,96.2188 158.5,98.5C 158.5,161.833 158.5,225.167 158.5,288.5C 156.876,288.36 155.71,289.027 155,290.5C 154.5,298.827 154.334,307.16 154.5,315.5C 153.5,315.5 152.5,315.5 151.5,315.5C 149.935,311.27 147.268,307.937 143.5,305.5C 141.989,304.498 140.322,303.831 138.5,303.5C 138.5,302.167 137.833,301.5 136.5,301.5C 137.197,297.173 135.53,294.506 131.5,293.5C 131.167,290.5 129.5,288.833 126.5,288.5C 126.5,287.833 126.5,287.167 126.5,286.5C 125.355,283.535 124.189,280.535 123,277.5C 121.556,275.845 119.722,275.178 117.5,275.5C 117.304,270.36 114.638,267.36 109.5,266.5C 109.169,264.678 108.502,263.011 107.5,261.5C 106.737,259.433 105.404,257.766 103.5,256.5C 100.13,255.154 97.13,253.321 94.5,251C 89.6351,250.101 84.8018,249.267 80,248.5C 77.8333,248.667 75.6667,248.833 73.5,249C 72.244,249.417 71.5774,250.25 71.5,251.5C 70.8333,251.5 70.1667,251.5 69.5,251.5C 67.8333,251.5 66.1667,251.5 64.5,251.5C 64.5,252.5 64.5,253.5 64.5,254.5C 62.2188,254.077 60.5521,254.744 59.5,256.5C 59.1667,256.5 58.8333,256.5 58.5,256.5C 57.1667,256.5 55.8333,256.5 54.5,256.5C 51.9511,257.957 49.2844,259.29 46.5,260.5C 43.3968,265.144 41.0635,270.144 39.5,275.5C 39.1936,278.385 39.5269,281.052 40.5,283.5C 40.5,284.167 40.5,284.833 40.5,285.5C 40.5,285.833 40.5,286.167 40.5,286.5C 39.9084,289.127 39.5751,291.794 39.5,294.5C 40.7189,296.636 41.5522,298.969 42,301.5C 42.7083,302.381 43.5416,303.047 44.5,303.5C 46.0455,304.64 47.7121,305.64 49.5,306.5C 49.8212,308.048 50.8212,308.715 52.5,308.5C 52.5,308.833 52.5,309.167 52.5,309.5C 52.1568,311.483 52.8235,312.817 54.5,313.5C 54.8333,316.5 56.5,318.167 59.5,318.5C 59.5,319.5 59.5,320.5 59.5,321.5C 60.5,321.5 61.5,321.5 62.5,321.5C 62.5,322.833 63.1667,323.5 64.5,323.5C 64.5,323.833 64.5,324.167 64.5,324.5C 64.4466,328.794 66.4466,331.794 70.5,333.5C 71.6345,336.167 72.6345,338.833 73.5,341.5C 74.5,341.5 75.5,341.5 76.5,341.5C 76.281,342.675 76.6143,343.675 77.5,344.5C 78.6422,345.826 79.9755,346.826 81.5,347.5C 82.209,348.404 83.209,348.737 84.5,348.5C 84.5,349.167 84.5,349.833 84.5,350.5C 85.3917,353.67 87.0584,356.337 89.5,358.5C 90.8333,358.5 91.5,359.167 91.5,360.5C 93.1194,365.929 96.4528,369.929 101.5,372.5C 102.67,374.279 104.336,375.279 106.5,375.5C 106.5,376.167 106.5,376.833 106.5,377.5C 107.392,380.67 109.058,383.337 111.5,385.5C 113.252,387.909 115.585,389.576 118.5,390.5C 118.5,390.833 118.5,391.167 118.5,391.5C 119.476,397.319 122.81,400.986 128.5,402.5C 128.821,404.048 129.821,404.715 131.5,404.5C 131.527,406.199 132.194,407.533 133.5,408.5C 134.045,412.148 135.712,415.148 138.5,417.5C 139.297,421.955 141.63,425.288 145.5,427.5C 147.322,427.831 148.989,428.498 150.5,429.5C 150.833,432.5 152.5,434.167 155.5,434.5C 155.5,435.167 155.5,435.833 155.5,436.5C 156.167,438.5 156.833,440.5 157.5,442.5C 159.179,442.285 160.179,442.952 160.5,444.5C 161.502,446.011 162.169,447.678 162.5,449.5C 163.5,449.5 164.5,449.5 165.5,449.5C 166.502,451.011 167.169,452.678 167.5,454.5C 168.5,454.5 169.5,454.5 170.5,454.5C 170.5,455.5 170.5,456.5 170.5,457.5C 175.226,458.66 179.893,459.993 184.5,461.5C 185.5,461.5 186.5,461.5 187.5,461.5C 184.663,463.402 181.329,464.069 177.5,463.5C 177.5,462.5 177.5,461.5 177.5,460.5C 173.533,460.032 170.033,461.032 167,463.5C 167.979,465.279 167.646,466.945 166,468.5C 164.604,466.473 162.938,466.14 161,467.5C 159.812,466.437 159.312,465.103 159.5,463.5C 158.5,463.5 157.5,463.5 156.5,463.5C 157.682,465.814 159.015,468.148 160.5,470.5C 162.071,469.691 163.738,469.357 165.5,469.5C 166.55,474.779 168.716,475.445 172,471.5C 172.219,472.938 172.719,474.271 173.5,475.5C 177.077,476.17 177.91,477.836 176,480.5C 174.982,478.436 173.649,478.102 172,479.5C 170.527,479.097 169.194,478.43 168,477.5C 167.5,478 167,478.5 166.5,479C 169.039,482.037 171.706,484.87 174.5,487.5C 173.489,489.347 172.489,491.18 171.5,493C 175.194,493.02 178.86,492.52 182.5,491.5C 183.5,492 184.5,492.5 185.5,493C 185.167,493.333 184.833,493.667 184.5,494C 180.833,494.333 177.167,494.667 173.5,495C 179.056,496.239 184.722,496.906 190.5,497C 191.252,497.671 191.586,498.504 191.5,499.5C 188.833,499.5 186.167,499.5 183.5,499.5C 181.282,497.156 178.615,496.823 175.5,498.5C 174.167,498.5 172.833,498.5 171.5,498.5C 171.5,497.5 171.5,496.5 171.5,495.5C 169.5,495.5 167.5,495.5 165.5,495.5C 165.167,495.5 164.833,495.5 164.5,495.5C 164.5,494.5 164.5,493.5 164.5,492.5C 161.167,491.833 157.833,491.167 154.5,490.5C 154.167,490.5 153.833,490.5 153.5,490.5C 152.833,488.5 152.167,486.5 151.5,484.5C 148.167,483.167 144.833,481.833 141.5,480.5C 140.871,476.372 138.537,474.038 134.5,473.5C 134.167,473.5 133.833,473.5 133.5,473.5C 131.605,469.823 129.272,466.49 126.5,463.5C 124.952,463.179 124.285,462.179 124.5,460.5C 122.678,460.169 121.011,459.502 119.5,458.5C 119.385,452.98 116.718,449.647 111.5,448.5C 111.5,447.167 110.833,446.5 109.5,446.5C 109.5,445.5 109.5,444.5 109.5,443.5C 108.5,443.5 107.5,443.5 106.5,443.5C 106.5,443.167 106.5,442.833 106.5,442.5C 105.167,439.5 103.833,436.5 102.5,433.5C 100.821,433.715 99.8212,433.048 99.5,431.5C 97.8362,429.003 96.5029,426.337 95.5,423.5C 93.5,422.833 91.5,422.167 89.5,421.5C 88.4975,419.989 87.8308,418.322 87.5,416.5C 86.5,416.5 85.5,416.5 84.5,416.5C 84.5,414.833 84.5,413.167 84.5,411.5C 82.9857,407.469 80.319,404.469 76.5,402.5C 75.6143,401.675 75.281,400.675 75.5,399.5C 74.5,399.5 73.5,399.5 72.5,399.5C 72.5,398.5 72.5,397.5 72.5,396.5C 71.8519,394.914 71.3519,393.247 71,391.5C 66.0253,387.868 61.5253,383.868 57.5,379.5C 56.1667,379.5 55.5,378.833 55.5,377.5C 53.9488,372.408 50.6155,369.074 45.5,367.5C 45.1667,364.5 43.5,362.833 40.5,362.5C 40.5,361.833 40.5,361.167 40.5,360.5C 39.3884,356.943 37.7217,353.61 35.5,350.5C 34.2638,349.754 32.9305,349.421 31.5,349.5C 31.3045,344.36 28.6378,341.36 23.5,340.5C 23.5,339.5 23.5,338.5 23.5,337.5C 21.6776,337.169 20.0109,336.502 18.5,335.5C 18.5,334.5 18.5,333.5 18.5,332.5C 15.5343,327.7 12.3676,323.034 9,318.5C 7.98873,317.663 6.82207,317.33 5.5,317.5C 5.5,316.833 5.5,316.167 5.5,315.5C 6.13863,314.903 6.47196,314.07 6.5,313C 5.10549,310.321 4.43883,307.488 4.5,304.5C 3.5,304.5 2.5,304.5 1.5,304.5C 2.0545,300.988 1.38784,297.988 -0.5,295.5C -0.5,288.833 -0.5,282.167 -0.5,275.5C 0.117425,275.389 0.617425,275.056 1,274.5C 1.52615,270.401 2.35949,266.401 3.5,262.5C 3.5,261.5 3.5,260.5 3.5,259.5C 4.5,259.5 5.5,259.5 6.5,259.5C 9.04766,254.052 11.381,248.385 13.5,242.5C 15.0481,242.179 15.7148,241.179 15.5,239.5C 16.5,239.5 17.5,239.5 18.5,239.5C 18.5,238.167 18.5,236.833 18.5,235.5C 18.5,235.167 18.5,234.833 18.5,234.5C 19.6948,234.678 20.8615,235.011 22,235.5C 24.3632,233.923 26.5299,232.257 28.5,230.5C 32.1667,229.167 35.8333,229.167 39.5,230.5C 40.3876,227.286 41.721,224.286 43.5,221.5C 47.3911,220.498 51.3911,219.665 55.5,219C 56.1667,218.333 56.8333,217.667 57.5,217C 62.4889,216.501 67.4889,216.334 72.5,216.5C 72.2322,214.901 72.5655,213.568 73.5,212.5C 77.8333,212.5 82.1667,212.5 86.5,212.5C 86.8039,213.15 87.1373,213.817 87.5,214.5C 90.0865,215.48 92.7531,215.813 95.5,215.5C 97.8333,215.5 100.167,215.5 102.5,215.5C 102.5,216.5 102.5,217.5 102.5,218.5C 104.5,218.5 106.5,218.5 108.5,218.5C 108.5,219.5 108.5,220.5 108.5,221.5C 111.564,221.928 114.564,222.594 117.5,223.5C 117.737,222.209 117.404,221.209 116.5,220.5C 116.5,219.833 116.5,219.167 116.5,218.5C 116.364,174.917 116.364,131.25 116.5,87.5C 117.5,87.5 118.5,87.5 119.5,87.5C 119.5,85.8333 119.5,84.1667 119.5,82.5C 120.5,82.5 121.5,82.5 122.5,82.5C 122.675,80.3792 122.341,78.3792 121.5,76.5C 121.253,74.1417 121.919,72.1417 123.5,70.5C 124.5,70.5 125.5,70.5 126.5,70.5C 126.5,69.5 126.5,68.5 126.5,67.5C 126.5,66.8333 126.5,66.1667 126.5,65.5C 127.5,65.5 128.5,65.5 129.5,65.5C 130.833,62.8333 132.167,60.1667 133.5,57.5C 137.576,56.68 140.243,54.3467 141.5,50.5C 142.167,50.5 142.833,50.5 143.5,50.5C 145.5,49.8333 147.5,49.1667 149.5,48.5C 149.5,47.5 149.5,46.5 149.5,45.5C 150.167,45.5 150.833,45.5 151.5,45.5C 156.312,43.894 160.979,41.894 165.5,39.5C 168.428,38.5159 171.428,38.1826 174.5,38.5C 174.5,37.5 174.5,36.5 174.5,35.5C 177.5,35.5 180.5,35.5 183.5,35.5C 187.833,35.5 192.167,35.5 196.5,35.5C 198.5,35.5 200.5,35.5 202.5,35.5C 204.995,34.8011 207.328,33.8011 209.5,32.5C 209.5,31.5 209.5,30.5 209.5,29.5C 212.645,28.9233 214.145,26.9233 214,23.5C 216.667,21.5 219.333,19.5 222,17.5C 222.483,16.552 222.649,15.552 222.5,14.5C 223.791,14.7373 224.791,14.404 225.5,13.5C 225.831,11.6776 226.498,10.0109 227.5,8.5C 228.167,8.5 228.833,8.5 229.5,8.5C 233.121,7.62748 236.788,6.96081 240.5,6.5C 240.5,5.5 240.5,4.5 240.5,3.5C 242.167,3.5 243.833,3.5 245.5,3.5C 245.5,2.5 245.5,1.5 245.5,0.5C 246.167,0.5 246.833,0.5 247.5,0.5C 249.342,0.723302 251.175,1.05663 253,1.5C 254.699,1.61345 255.866,0.94678 256.5,-0.5 Z"/></g>
<g><path style="opacity:0.275" fill="#e48ec5" d="M 239.5,3.5 C 239.833,3.5 240.167,3.5 240.5,3.5C 240.5,4.5 240.5,5.5 240.5,6.5C 236.788,6.96081 233.121,7.62748 229.5,8.5C 229.5,7.5 229.5,6.5 229.5,5.5C 232.833,4.83333 236.167,4.16667 239.5,3.5 Z"/></g>
<g><path style="opacity:0.498" fill="#e288bb" d="M 298.5,3.5 C 301.076,3.46791 303.409,4.13458 305.5,5.5C 305.5,6.5 305.5,7.5 305.5,8.5C 303.409,7.13458 301.076,6.46791 298.5,6.5C 298.5,5.5 298.5,4.5 298.5,3.5 Z"/></g>
<g><path style="opacity:0.053" fill="#ebcce4" d="M 305.5,5.5 C 306.5,5.5 307.5,5.5 308.5,5.5C 308.5,6.5 308.5,7.5 308.5,8.5C 307.5,8.5 306.5,8.5 305.5,8.5C 305.5,7.5 305.5,6.5 305.5,5.5 Z"/></g>
<g><path style="opacity:0.776" fill="#db6cae" d="M 280.5,-0.5 C 284.167,-0.5 287.833,-0.5 291.5,-0.5C 292.568,0.434475 293.901,0.767809 295.5,0.5C 295.5,1.5 295.5,2.5 295.5,3.5C 296.5,3.5 297.5,3.5 298.5,3.5C 298.5,4.5 298.5,5.5 298.5,6.5C 301.076,6.46791 303.409,7.13458 305.5,8.5C 306.5,8.5 307.5,8.5 308.5,8.5C 309.167,8.5 309.833,8.5 310.5,8.5C 310.821,10.0481 311.821,10.7148 313.5,10.5C 314.167,10.5 314.833,10.5 315.5,10.5C 315.5,11.5 315.5,12.5 315.5,13.5C 308.989,11.0784 302.656,8.41178 296.5,5.5C 294.604,4.53443 292.604,4.2011 290.5,4.5C 290.5,3.5 290.5,2.5 290.5,1.5C 287.482,1.66463 284.482,1.49796 281.5,1C 280.944,0.617425 280.611,0.117425 280.5,-0.5 Z"/></g>
<g><path style="opacity:0.016" fill="#fce6f9" d="M 310.5,8.5 C 312.179,8.28519 313.179,8.95186 313.5,10.5C 311.821,10.7148 310.821,10.0481 310.5,8.5 Z"/></g>
<g><path style="opacity:0.118" fill="#e9add6" d="M 227.5,8.5 C 226.498,10.0109 225.831,11.6776 225.5,13.5C 224.5,13.5 223.5,13.5 222.5,13.5C 222.999,10.7361 224.665,9.06946 227.5,8.5 Z"/></g>
<g><path style="opacity:0.007" fill="#fefdfe" d="M 315.5,10.5 C 316.833,11.1667 317.833,12.1667 318.5,13.5C 317.5,13.5 316.5,13.5 315.5,13.5C 315.5,12.5 315.5,11.5 315.5,10.5 Z"/></g>
<g><path style="opacity:0.009" fill="#fbf0f6" d="M 220.5,13.5 C 220.179,15.0481 219.179,15.7148 217.5,15.5C 217.821,13.9519 218.821,13.2852 220.5,13.5 Z"/></g>
<g><path style="opacity:0.013" fill="#fefffe" d="M 318.5,13.5 C 319.833,13.5 320.5,14.1667 320.5,15.5C 320.5,14.1667 319.833,13.5 318.5,13.5 Z"/></g>
<g><path style="opacity:0.023" fill="#fde4fc" d="M 217.5,15.5 C 217.715,17.1788 217.048,18.1788 215.5,18.5C 215.285,16.8212 215.952,15.8212 217.5,15.5 Z"/></g>
<g><path style="opacity:0.016" fill="#fdddfc" d="M 320.5,15.5 C 321.5,15.5 322.5,15.5 323.5,15.5C 323.5,16.5 323.5,17.5 323.5,18.5C 323.5,17.5 323.5,16.5 323.5,15.5C 322.5,15.5 321.5,15.5 320.5,15.5 Z"/></g>
<g><path style="opacity:0.059" fill="#f2e1e0" d="M 215.5,18.5 C 215.179,20.0481 214.179,20.7148 212.5,20.5C 212.821,18.9519 213.821,18.2852 215.5,18.5 Z"/></g>
<g><path style="opacity:0.034" fill="#f0daee" d="M 325.5,20.5 C 328.264,20.9988 329.931,22.6655 330.5,25.5C 328.989,24.4975 327.322,23.8308 325.5,23.5C 325.5,22.5 325.5,21.5 325.5,20.5 Z"/></g>
<g><path style="opacity:0.02" fill="#fce4f9" d="M 212.5,20.5 C 212.167,23.5 210.5,25.1667 207.5,25.5C 208.833,23.5 210.5,21.8333 212.5,20.5 Z"/></g>
<g><path style="opacity:0.009" fill="#fefffe" d="M 330.5,25.5 C 331.833,25.5 332.5,26.1667 332.5,27.5C 331.833,27.5 331.167,27.5 330.5,27.5C 330.5,26.8333 330.5,26.1667 330.5,25.5 Z"/></g>
<g><path style="opacity:0.973" fill="#d34a9c" d="M 220.5,13.5 C 221.167,13.5 221.833,13.5 222.5,13.5C 223.5,13.5 224.5,13.5 225.5,13.5C 224.791,14.404 223.791,14.7373 222.5,14.5C 222.649,15.552 222.483,16.552 222,17.5C 219.333,19.5 216.667,21.5 214,23.5C 214.145,26.9233 212.645,28.9233 209.5,29.5C 209.5,30.5 209.5,31.5 209.5,32.5C 207.328,33.8011 204.995,34.8011 202.5,35.5C 202.821,33.9519 203.821,33.2852 205.5,33.5C 205.5,32.5 205.5,31.5 205.5,30.5C 207.256,29.4479 207.923,27.7812 207.5,25.5C 210.5,25.1667 212.167,23.5 212.5,20.5C 214.179,20.7148 215.179,20.0481 215.5,18.5C 217.048,18.1788 217.715,17.1788 217.5,15.5C 219.179,15.7148 220.179,15.0481 220.5,13.5 Z"/></g>
<g><path style="opacity:0.214" fill="#e8aed5" d="M 207.5,25.5 C 207.923,27.7812 207.256,29.4479 205.5,30.5C 205.12,28.302 205.787,26.6354 207.5,25.5 Z"/></g>
<g><path style="opacity:0.207" fill="#ef9ed0" d="M 330.5,27.5 C 331.167,27.5 331.833,27.5 332.5,27.5C 333.64,29.0455 334.64,30.7121 335.5,32.5C 335.5,32.8333 335.5,33.1667 335.5,33.5C 334.5,33.5 333.5,33.5 332.5,33.5C 331.833,31.5 331.167,29.5 330.5,27.5 Z"/></g>
<g><path style="opacity:0.109" fill="#f6e0f1" d="M 183.5,32.5 C 183.5,33.5 183.5,34.5 183.5,35.5C 180.5,35.5 177.5,35.5 174.5,35.5C 174.167,35.5 173.833,35.5 173.5,35.5C 173.881,34.0689 174.881,33.2355 176.5,33C 178.81,32.5034 181.143,32.3367 183.5,32.5 Z"/></g>
<g><path style="opacity:0.182" fill="#efa9d2" d="M 183.5,32.5 C 187.833,32.5 192.167,32.5 196.5,32.5C 196.5,33.5 196.5,34.5 196.5,35.5C 192.167,35.5 187.833,35.5 183.5,35.5C 183.5,34.5 183.5,33.5 183.5,32.5 Z"/></g>
<g><path style="opacity:0.052" fill="#f7d4ee" d="M 205.5,30.5 C 205.5,31.5 205.5,32.5 205.5,33.5C 203.821,33.2852 202.821,33.9519 202.5,35.5C 200.5,35.5 198.5,35.5 196.5,35.5C 196.5,34.5 196.5,33.5 196.5,32.5C 199.664,32.4422 202.664,31.7755 205.5,30.5 Z"/></g>
<g><path style="opacity:0.229" fill="#efbbdb" d="M 335.5,32.5 C 344.173,32.3336 352.84,32.5002 361.5,33C 362.252,33.6708 362.586,34.5041 362.5,35.5C 353.105,36.1377 344.105,35.4711 335.5,33.5C 335.5,33.1667 335.5,32.8333 335.5,32.5 Z"/></g>
<g><path style="opacity:0.153" fill="#f1c1e1" d="M 171.5,35.5 C 169.721,37.3435 167.388,38.0102 164.5,37.5C 164.611,36.8826 164.944,36.3826 165.5,36C 167.473,35.5045 169.473,35.3379 171.5,35.5 Z"/></g>
<g><path style="opacity:0.022" fill="#fcd7eb" d="M 367.5,35.5 C 369.781,35.0773 371.448,35.744 372.5,37.5C 370.219,37.9227 368.552,37.256 367.5,35.5 Z"/></g>
<g><path style="opacity:0.037" fill="#fed4ef" d="M 161.5,37.5 C 161.5,38.5 161.5,39.5 161.5,40.5C 160.5,40.5 159.5,40.5 158.5,40.5C 158.5,39.5 158.5,38.5 158.5,37.5C 159.5,37.5 160.5,37.5 161.5,37.5 Z"/></g>
<g><path style="opacity:0.035" fill="#f5deed" d="M 263.5,37.5 C 263.423,38.7498 262.756,39.5831 261.5,40C 259.866,40.4935 258.199,40.6602 256.5,40.5C 256.5,39.5 256.5,38.5 256.5,37.5C 258.833,37.5 261.167,37.5 263.5,37.5 Z"/></g>
<g><path style="opacity:0.027" fill="#f3e7f3" d="M 275.5,37.5 C 276.833,37.5 278.167,37.5 279.5,37.5C 279.5,38.5 279.5,39.5 279.5,40.5C 277.596,40.2624 276.262,39.2624 275.5,37.5 Z"/></g>
<g><path style="opacity:0.463" fill="#e26bb4" d="M 364.5,35.5 C 365.5,35.5 366.5,35.5 367.5,35.5C 368.552,37.256 370.219,37.9227 372.5,37.5C 374.167,37.5 375.833,37.5 377.5,37.5C 377.5,38.5 377.5,39.5 377.5,40.5C 373.256,39.3571 368.923,38.6904 364.5,38.5C 364.5,37.5 364.5,36.5 364.5,35.5 Z"/></g>
<g><path style="opacity:0.341" fill="#df71b3" d="M 171.5,35.5 C 172.167,35.5 172.833,35.5 173.5,35.5C 173.833,35.5 174.167,35.5 174.5,35.5C 174.5,36.5 174.5,37.5 174.5,38.5C 171.428,38.1826 168.428,38.5159 165.5,39.5C 160.979,41.894 156.312,43.894 151.5,45.5C 151.5,44.5 151.5,43.5 151.5,42.5C 153.479,40.8325 155.812,40.1658 158.5,40.5C 159.5,40.5 160.5,40.5 161.5,40.5C 161.5,39.5 161.5,38.5 161.5,37.5C 162.5,37.5 163.5,37.5 164.5,37.5C 167.388,38.0102 169.721,37.3435 171.5,35.5 Z"/></g>
<g><path style="opacity:0.067" fill="#dfc1d8" d="M 254.5,40.5 C 254.179,42.0481 253.179,42.7148 251.5,42.5C 251.402,39.7524 252.402,39.0857 254.5,40.5 Z"/></g>
<g><path style="opacity:0.475" fill="#eeb4da" d="M 377.5,37.5 C 380.165,38.8516 382.498,40.5182 384.5,42.5C 382.833,42.5 381.167,42.5 379.5,42.5C 379.5,41.1667 378.833,40.5 377.5,40.5C 377.5,39.5 377.5,38.5 377.5,37.5 Z"/></g>
<g><path style="opacity:0.044" fill="#f7ddf6" d="M 151.5,42.5 C 151.5,43.5 151.5,44.5 151.5,45.5C 150.833,45.5 150.167,45.5 149.5,45.5C 149.167,45.5 148.833,45.5 148.5,45.5C 148.5,44.5 148.5,43.5 148.5,42.5C 149.5,42.5 150.5,42.5 151.5,42.5 Z"/></g>
<g><path style="opacity:0.933" fill="#d550a1" d="M 286.5,39.5 C 284.263,38.551 281.929,37.8844 279.5,37.5C 278.167,37.5 276.833,37.5 275.5,37.5C 271.5,37.5 267.5,37.5 263.5,37.5C 261.167,37.5 258.833,37.5 256.5,37.5C 256.5,38.5 256.5,39.5 256.5,40.5C 255.833,40.5 255.167,40.5 254.5,40.5C 252.402,39.0857 251.402,39.7524 251.5,42.5C 249.263,43.449 246.929,44.1156 244.5,44.5C 244.5,45.5 244.5,46.5 244.5,47.5C 244.5,48.1667 244.5,48.8333 244.5,49.5C 241.5,49.8333 239.833,51.5 239.5,54.5C 238.5,54.5 237.5,54.5 236.5,54.5C 239.061,51.9897 239.061,49.4897 236.5,47C 238.608,46.6401 240.608,45.9734 242.5,45C 241.663,43.9887 241.33,42.8221 241.5,41.5C 246.704,41.2744 251.038,39.2744 254.5,35.5C 255.772,36.046 257.106,36.3793 258.5,36.5C 267.155,33.8668 275.822,34.2002 284.5,37.5C 285.243,38.1818 285.909,38.8485 286.5,39.5 Z"/></g>
<g><path style="opacity:0.218" fill="#e17fbf" d="M 379.5,42.5 C 381.167,42.5 382.833,42.5 384.5,42.5C 385.5,42.5 386.5,42.5 387.5,42.5C 387.5,43.5 387.5,44.5 387.5,45.5C 384.724,44.5879 382.057,43.5879 379.5,42.5 Z"/></g>
<g><path style="opacity:0.032" fill="#f4e2f4" d="M 387.5,42.5 C 389.048,42.8212 389.715,43.8212 389.5,45.5C 388.833,45.5 388.167,45.5 387.5,45.5C 387.5,44.5 387.5,43.5 387.5,42.5 Z"/></g>
<g><path style="opacity:0.161" fill="#eca4d5" d="M 251.5,42.5 C 251.631,43.3764 251.298,44.0431 250.5,44.5C 248.698,45.9856 246.698,46.9856 244.5,47.5C 244.5,46.5 244.5,45.5 244.5,44.5C 246.929,44.1156 249.263,43.449 251.5,42.5 Z"/></g>
<g><path style="opacity:0.388" fill="#d673b1" d="M 148.5,45.5 C 148.833,45.5 149.167,45.5 149.5,45.5C 149.5,46.5 149.5,47.5 149.5,48.5C 147.5,49.1667 145.5,49.8333 143.5,50.5C 143.5,49.5 143.5,48.5 143.5,47.5C 145.322,47.1692 146.989,46.5025 148.5,45.5 Z"/></g>
<g><path style="opacity:0.158" fill="#e596c7" d="M 279.5,37.5 C 281.929,37.8844 284.263,38.551 286.5,39.5C 287.306,40.8675 288.306,42.2008 289.5,43.5C 297.258,45.9347 301.258,51.268 301.5,59.5C 300.833,59.5 300.167,59.5 299.5,59.5C 298.634,57.1728 297.634,54.8395 296.5,52.5C 296.715,50.8212 296.048,49.8212 294.5,49.5C 289.996,45.6601 284.996,42.6601 279.5,40.5C 279.5,39.5 279.5,38.5 279.5,37.5 Z"/></g>
<g><path style="opacity:0.114" fill="#e87dbe" d="M 389.5,45.5 C 391.514,45.3915 393.18,46.0582 394.5,47.5C 394.5,48.5 394.5,49.5 394.5,50.5C 392.989,49.4975 391.322,48.8308 389.5,48.5C 389.5,47.5 389.5,46.5 389.5,45.5 Z"/></g>
<g><path style="opacity:0.021" fill="#fee6fd" d="M 394.5,47.5 C 396.5,47.5 397.5,48.5 397.5,50.5C 397.167,50.5 396.833,50.5 396.5,50.5C 395.833,50.5 395.167,50.5 394.5,50.5C 394.5,49.5 394.5,48.5 394.5,47.5 Z"/></g>
<g><path style="opacity:0.014" fill="#fbf2f8" d="M 143.5,47.5 C 143.5,48.5 143.5,49.5 143.5,50.5C 142.833,50.5 142.167,50.5 141.5,50.5C 141.427,48.9731 142.094,47.9731 143.5,47.5 Z"/></g>
<g><path style="opacity:0.008" fill="#fefffe" d="M 294.5,49.5 C 296.048,49.8212 296.715,50.8212 296.5,52.5C 295.094,52.0269 294.427,51.0269 294.5,49.5 Z"/></g>
<g><path style="opacity:0.163" fill="#f6d1ed" d="M 244.5,49.5 C 243.544,52.4386 241.877,54.772 239.5,56.5C 239.5,55.8333 239.5,55.1667 239.5,54.5C 239.833,51.5 241.5,49.8333 244.5,49.5 Z"/></g>
<g><path style="opacity:0.082" fill="#ee9cce" d="M 396.5,50.5 C 396.833,50.5 397.167,50.5 397.5,50.5C 401.081,51.6547 403.414,53.988 404.5,57.5C 400.424,56.68 397.757,54.3467 396.5,50.5 Z"/></g>
<g><path style="opacity:0.333" fill="#eca2ce" d="M 141.5,50.5 C 140.243,54.3467 137.576,56.68 133.5,57.5C 134.713,55.2719 136.38,53.2719 138.5,51.5C 139.325,50.6143 140.325,50.281 141.5,50.5 Z"/></g>
<g><path style="opacity:0.42" fill="#e791c0" d="M 236.5,54.5 C 237.5,54.5 238.5,54.5 239.5,54.5C 239.5,55.1667 239.5,55.8333 239.5,56.5C 239.5,57.5 239.5,58.5 239.5,59.5C 238.833,59.5 238.167,59.5 237.5,59.5C 236.549,58.0813 236.216,56.4147 236.5,54.5 Z"/></g>
<g><path style="opacity:0.048" fill="#f5c1e5" d="M 133.5,57.5 C 132.167,60.1667 130.833,62.8333 129.5,65.5C 128.5,65.5 127.5,65.5 126.5,65.5C 127.443,61.6111 129.777,58.9445 133.5,57.5 Z"/></g>
<g><path style="opacity:0.009" fill="#fefffe" d="M 237.5,59.5 C 238.167,59.5 238.833,59.5 239.5,59.5C 239.88,61.698 239.213,63.3646 237.5,64.5C 237.5,62.8333 237.5,61.1667 237.5,59.5 Z"/></g>
<g><path style="opacity:0.007" fill="#fefffe" d="M 299.5,59.5 C 300.167,59.5 300.833,59.5 301.5,59.5C 301.5,61.1667 301.5,62.8333 301.5,64.5C 299.787,63.3646 299.12,61.698 299.5,59.5 Z"/></g>
<g><path style="opacity:0.182" fill="#edb8e1" d="M 404.5,57.5 C 407.5,57.8333 409.167,59.5 409.5,62.5C 409.167,59.5 407.5,57.8333 404.5,57.5 Z"/></g>
<g><path style="opacity:0.029" fill="#e8d8ea" d="M 409.5,62.5 C 411.144,62.8102 412.144,63.8102 412.5,65.5C 411.5,65.5 410.5,65.5 409.5,65.5C 409.5,64.5 409.5,63.5 409.5,62.5 Z"/></g>
<g><path style="opacity:0.073" fill="#f0b0dc" d="M 126.5,67.5 C 126.5,68.5 126.5,69.5 126.5,70.5C 125.5,70.5 124.5,70.5 123.5,70.5C 123.5,69.5 123.5,68.5 123.5,67.5C 124.5,67.5 125.5,67.5 126.5,67.5 Z"/></g>
<g><path style="opacity:0.079" fill="#f0b2db" d="M 412.5,67.5 C 415.543,68.7438 416.876,71.0771 416.5,74.5C 414.824,73.8166 414.157,72.4832 414.5,70.5C 413.5,70.5 412.5,70.5 411.5,70.5C 411.263,69.209 411.596,68.209 412.5,67.5 Z"/></g>
<g><path style="opacity:0.022" fill="#fae1f1" d="M 187.5,72.5 C 188.833,72.5 190.167,72.5 191.5,72.5C 194.388,71.9898 196.721,72.6565 198.5,74.5C 193.167,74.5 187.833,74.5 182.5,74.5C 183.552,72.744 185.219,72.0773 187.5,72.5 Z"/></g>
<g><path style="opacity:0.91" fill="#d85ba7" d="M 191.5,72.5 C 195.646,71.353 199.98,71.1864 204.5,72C 207.818,71.8246 209.818,73.3246 210.5,76.5C 206.573,75.4746 202.573,74.8079 198.5,74.5C 196.721,72.6565 194.388,71.9898 191.5,72.5 Z"/></g>
<g><path style="opacity:0.031" fill="#fbe5f2" d="M 348.5,72.5 C 350.781,72.0773 352.448,72.744 353.5,74.5C 349.167,74.5 344.833,74.5 340.5,74.5C 342.635,72.631 345.302,71.9644 348.5,72.5 Z"/></g>
<g><path style="opacity:0.239" fill="#e890c3" d="M 348.5,72.5 C 351.625,71.5206 354.958,71.1872 358.5,71.5C 358.5,72.5 358.5,73.5 358.5,74.5C 356.833,74.5 355.167,74.5 353.5,74.5C 352.448,72.744 350.781,72.0773 348.5,72.5 Z"/></g>
<g><path style="opacity:0.561" fill="#d2519f" d="M 358.5,71.5 C 365.177,73.432 371.01,76.7653 376,81.5C 379.011,84.8367 380.511,88.8367 380.5,93.5C 379.5,93.5 378.5,93.5 377.5,93.5C 377.5,92.8333 377.5,92.1667 377.5,91.5C 377.5,90.1667 376.833,89.5 375.5,89.5C 375.5,88.5 375.5,87.5 375.5,86.5C 375.167,83.5 373.5,81.8333 370.5,81.5C 370.52,79.857 369.853,78.5237 368.5,77.5C 365.316,75.8901 361.983,74.8901 358.5,74.5C 358.5,73.5 358.5,72.5 358.5,71.5 Z"/></g>
<g><path style="opacity:0.429" fill="#d765a7" d="M 187.5,72.5 C 185.219,72.0773 183.552,72.744 182.5,74.5C 181.833,74.5 181.167,74.5 180.5,74.5C 177.068,74.7573 173.734,75.424 170.5,76.5C 170.5,77.5 170.5,78.5 170.5,79.5C 168.678,79.8308 167.011,80.4975 165.5,81.5C 166.048,79.4677 167.381,78.4677 169.5,78.5C 169.5,77.5 169.5,76.5 169.5,75.5C 173.691,73.9162 178.024,72.5829 182.5,71.5C 184.369,71.5068 186.036,71.8401 187.5,72.5 Z"/></g>
<g><path style="opacity:0.016" fill="#fee8fe" d="M 416.5,74.5 C 418.5,74.5 419.5,75.5 419.5,77.5C 418.5,77.5 417.5,77.5 416.5,77.5C 416.5,76.5 416.5,75.5 416.5,74.5 Z"/></g>
<g><path style="opacity:0.09" fill="#fcd9f2" d="M 198.5,74.5 C 202.573,74.8079 206.573,75.4746 210.5,76.5C 210.5,77.5 210.5,78.5 210.5,79.5C 208.523,78.8505 206.69,78.8505 205,79.5C 202.965,77.5643 200.798,75.8977 198.5,74.5 Z"/></g>
<g><path style="opacity:0.049" fill="#eea7d1" d="M 180.5,74.5 C 177.584,76.9216 174.251,78.5883 170.5,79.5C 170.5,78.5 170.5,77.5 170.5,76.5C 173.734,75.424 177.068,74.7573 180.5,74.5 Z"/></g>
<g><path style="opacity:0.357" fill="#eca6d3" d="M 358.5,74.5 C 361.983,74.8901 365.316,75.8901 368.5,77.5C 369.853,78.5237 370.52,79.857 370.5,81.5C 366.771,80.032 363.104,78.3653 359.5,76.5C 358.702,76.0431 358.369,75.3764 358.5,74.5 Z"/></g>
<g><path style="opacity:0.216" fill="#ecb1dc" d="M 335.5,74.5 C 335.586,75.4959 335.252,76.3292 334.5,77C 331.354,78.3384 328.354,79.8384 325.5,81.5C 326.502,79.9891 327.169,78.3224 327.5,76.5C 330.025,75.36 332.692,74.6933 335.5,74.5 Z"/></g>
<g><path style="opacity:0.765" fill="#d266a7" d="M 210.5,76.5 C 212.5,77.1667 214.5,77.8333 216.5,78.5C 217.833,81.1667 219.167,83.8333 220.5,86.5C 219.5,86.5 218.5,86.5 217.5,86.5C 217.5,85.1667 216.833,84.5 215.5,84.5C 215.5,83.5 215.5,82.5 215.5,81.5C 214.5,81.5 213.5,81.5 212.5,81.5C 211.167,81.5 210.5,80.8333 210.5,79.5C 210.5,78.5 210.5,77.5 210.5,76.5 Z"/></g>
<g><path style="opacity:0.272" fill="#df86bf" d="M 121.5,76.5 C 122.341,78.3792 122.675,80.3792 122.5,82.5C 121.5,82.5 120.5,82.5 119.5,82.5C 119.167,82.5 118.833,82.5 118.5,82.5C 118.025,79.6874 119.025,77.6874 121.5,76.5 Z"/></g>
<g><path style="opacity:0.016" fill="#fee1fd" d="M 212.5,81.5 C 213.5,81.5 214.5,81.5 215.5,81.5C 215.5,82.5 215.5,83.5 215.5,84.5C 214.5,84.5 213.5,84.5 212.5,84.5C 212.5,83.5 212.5,82.5 212.5,81.5 Z"/></g>
<g><path style="opacity:0.118" fill="#f6b7df" d="M 325.5,81.5 C 325.167,84.5 323.5,86.1667 320.5,86.5C 320.833,83.5 322.5,81.8333 325.5,81.5 Z"/></g>
<g><path style="opacity:0.357" fill="#eca9d5" d="M 370.5,81.5 C 373.5,81.8333 375.167,83.5 375.5,86.5C 372.5,86.1667 370.833,84.5 370.5,81.5 Z"/></g>
<g><path style="opacity:0.033" fill="#fedff3" d="M 215.5,84.5 C 216.833,84.5 217.5,85.1667 217.5,86.5C 216.167,86.5 215.5,85.8333 215.5,84.5 Z"/></g>
<g><path style="opacity:0.084" fill="#efcbe5" d="M 118.5,82.5 C 118.833,82.5 119.167,82.5 119.5,82.5C 119.5,84.1667 119.5,85.8333 119.5,87.5C 118.5,87.5 117.5,87.5 116.5,87.5C 116.077,85.2188 116.744,83.5521 118.5,82.5 Z"/></g>
<g><path style="opacity:0.131" fill="#f0bbe0" d="M 419.5,82.5 C 420.693,82.9704 421.36,83.9704 421.5,85.5C 422.136,87.408 422.136,89.0746 421.5,90.5C 419.798,88.1998 419.132,85.5331 419.5,82.5 Z"/></g>
<g><path style="opacity:0.282" fill="#ebb0d8" d="M 170.5,79.5 C 169.498,81.0109 168.831,82.6776 168.5,84.5C 164.678,85.1797 163.011,87.513 163.5,91.5C 162.5,91.5 161.5,91.5 160.5,91.5C 160.688,87.3912 162.355,84.0579 165.5,81.5C 167.011,80.4975 168.678,79.8308 170.5,79.5 Z"/></g>
<g><path style="opacity:0.058" fill="#f5c1e7" d="M 217.5,86.5 C 218.5,86.5 219.5,86.5 220.5,86.5C 220.737,87.791 220.404,88.791 219.5,89.5C 217.952,89.1788 217.285,88.1788 217.5,86.5 Z"/></g>
<g><path style="opacity:0.4" fill="#e993c9" d="M 320.5,86.5 C 320.169,88.3224 319.502,89.9891 318.5,91.5C 317.5,91.5 316.5,91.5 315.5,91.5C 315.833,88.5 317.5,86.8333 320.5,86.5 Z"/></g>
<g><path style="opacity:0.019" fill="#feeefe" d="M 375.5,89.5 C 376.833,89.5 377.5,90.1667 377.5,91.5C 376.167,91.5 375.5,90.8333 375.5,89.5 Z"/></g>
<g><path style="opacity:0.031" fill="#fee3fe" d="M 219.5,91.5 C 220.5,91.5 221.5,91.5 222.5,91.5C 222.5,92.5 222.5,93.5 222.5,94.5C 220.856,94.1898 219.856,93.1898 219.5,91.5 Z"/></g>
<g><path style="opacity:0.089" fill="#fae3f0" d="M 315.5,91.5 C 316.5,91.5 317.5,91.5 318.5,91.5C 318.741,94.0336 317.741,95.7002 315.5,96.5C 315.5,94.8333 315.5,93.1667 315.5,91.5 Z"/></g>
<g><path style="opacity:0.005" fill="#fefffe" d="M 301.5,95.5 C 301.5,143.5 301.5,191.5 301.5,239.5C 300.167,216.009 299.5,192.176 299.5,168C 299.667,144.167 299.833,120.333 300,96.5C 300.383,95.944 300.883,95.6107 301.5,95.5 Z"/></g>
<g><path style="opacity:0.008" fill="#f8e7f1" d="M 160.5,93.5 C 160.923,95.7812 160.256,97.4479 158.5,98.5C 158.077,96.2188 158.744,94.5521 160.5,93.5 Z"/></g>
<g><path style="opacity:0.063" fill="#f7def1" d="M 377.5,93.5 C 378.5,93.5 379.5,93.5 380.5,93.5C 380.5,96.8333 380.5,100.167 380.5,103.5C 379.069,103.119 378.236,102.119 378,100.5C 377.503,98.1902 377.337,95.8568 377.5,93.5 Z"/></g>
<g><path style="opacity:0.361" fill="#e098c4" d="M 222.5,95.5 C 223.5,95.5 224.5,95.5 225.5,95.5C 225.806,98.3854 225.473,101.052 224.5,103.5C 224.923,101.219 224.256,99.5521 222.5,98.5C 222.5,97.5 222.5,96.5 222.5,95.5 Z"/></g>
<g><path style="opacity:0.028" fill="#f8edef" d="M 315.5,98.5 C 315.664,101.187 315.497,103.854 315,106.5C 314.617,107.056 314.117,107.389 313.5,107.5C 312.945,103.988 313.612,100.988 315.5,98.5 Z"/></g>
<g><path style="opacity:0.971" fill="#cf3d96" d="M 411.5,70.5 C 412.5,70.5 413.5,70.5 414.5,70.5C 414.157,72.4832 414.824,73.8166 416.5,74.5C 416.5,75.5 416.5,76.5 416.5,77.5C 417.5,77.5 418.5,77.5 419.5,77.5C 419.5,79.1667 419.5,80.8333 419.5,82.5C 419.132,85.5331 419.798,88.1998 421.5,90.5C 421.5,91.8333 421.5,93.1667 421.5,94.5C 421.5,98.5 421.5,102.5 421.5,106.5C 428.167,106.5 434.833,106.5 441.5,106.5C 441.833,106.5 442.167,106.5 442.5,106.5C 442.5,107.5 442.5,108.5 442.5,109.5C 443.833,109.5 445.167,109.5 446.5,109.5C 448.5,109.5 450.5,109.5 452.5,109.5C 452.833,109.5 453.167,109.5 453.5,109.5C 454.552,111.256 456.219,111.923 458.5,111.5C 458.5,112.5 458.5,113.5 458.5,114.5C 459.833,114.5 461.167,114.5 462.5,114.5C 462.5,115.5 462.5,116.5 462.5,117.5C 466.438,118.13 470.105,119.463 473.5,121.5C 474.167,121.5 474.833,121.5 475.5,121.5C 475.5,122.5 475.5,123.5 475.5,124.5C 478.5,124.833 480.167,126.5 480.5,129.5C 476.521,125.894 471.854,123.727 466.5,123C 465.62,121.644 465.286,120.144 465.5,118.5C 459.722,117.611 454.722,115.111 450.5,111C 445.386,110.814 440.386,109.981 435.5,108.5C 430.523,108.994 425.69,109.994 421,111.5C 420.781,110.062 420.281,108.729 419.5,107.5C 418.914,107.709 418.414,108.043 418,108.5C 418.5,101.825 418.333,95.1584 417.5,88.5C 417.59,84.4606 416.423,83.7939 414,86.5C 414.043,80.8776 413.209,75.5443 411.5,70.5 Z"/></g>
<g><path style="opacity:0.004" fill="#fcf9fb" d="M 222.5,98.5 C 224.256,99.5521 224.923,101.219 224.5,103.5C 224.5,114.5 224.5,125.5 224.5,136.5C 223.299,123.946 222.632,111.279 222.5,98.5 Z"/></g>
<g><path style="opacity:0.102" fill="#f7d7eb" d="M 421.5,94.5 C 422.458,94.9528 423.292,95.6195 424,96.5C 424.497,99.146 424.664,101.813 424.5,104.5C 429.844,104.334 435.177,104.501 440.5,105C 441.056,105.383 441.389,105.883 441.5,106.5C 434.833,106.5 428.167,106.5 421.5,106.5C 421.5,102.5 421.5,98.5 421.5,94.5 Z"/></g>
<g><path style="opacity:0.19" fill="#e3a1c6" d="M 442.5,106.5 C 443.833,106.5 445.167,106.5 446.5,106.5C 446.5,107.5 446.5,108.5 446.5,109.5C 445.167,109.5 443.833,109.5 442.5,109.5C 442.5,108.5 442.5,107.5 442.5,106.5 Z"/></g>
<g><path style="opacity:0.023" fill="#efe7eb" d="M 446.5,106.5 C 449.32,106.087 451.32,107.087 452.5,109.5C 450.5,109.5 448.5,109.5 446.5,109.5C 446.5,108.5 446.5,107.5 446.5,106.5 Z"/></g>
<g><path style="opacity:0.013" fill="#fad4f1" d="M 453.5,109.5 C 455.781,109.077 457.448,109.744 458.5,111.5C 456.219,111.923 454.552,111.256 453.5,109.5 Z"/></g>
<g><path style="opacity:0.004" fill="#fefffe" d="M 313.5,110.5 C 314.947,111.134 315.613,112.301 315.5,114C 314.198,156.848 314.198,199.515 315.5,242C 315.164,243.03 314.497,243.53 313.5,243.5C 313.5,199.167 313.5,154.833 313.5,110.5 Z"/></g>
<g><path style="opacity:0.175" fill="#f5afdd" d="M 458.5,111.5 C 460.167,111.5 461.833,111.5 463.5,111.5C 463.5,112.5 463.5,113.5 463.5,114.5C 463.167,114.5 462.833,114.5 462.5,114.5C 461.167,114.5 459.833,114.5 458.5,114.5C 458.5,113.5 458.5,112.5 458.5,111.5 Z"/></g>
<g><path style="opacity:0.02" fill="#fee1fe" d="M 466.5,114.5 C 467.833,114.5 468.5,115.167 468.5,116.5C 468.5,115.167 467.833,114.5 466.5,114.5 Z"/></g>
<g><path style="opacity:0.004" fill="#fefffe" d="M 380.5,117.5 C 380.5,133.167 380.5,148.833 380.5,164.5C 379.883,164.389 379.383,164.056 379,163.5C 378.333,148.5 378.333,133.5 379,118.5C 379.383,117.944 379.883,117.611 380.5,117.5 Z"/></g>
<g><path style="opacity:0.38" fill="#e988c1" d="M 462.5,114.5 C 462.833,114.5 463.167,114.5 463.5,114.5C 464.5,114.5 465.5,114.5 466.5,114.5C 466.5,115.833 467.167,116.5 468.5,116.5C 470.664,116.721 472.33,117.721 473.5,119.5C 473.5,120.167 473.5,120.833 473.5,121.5C 470.105,119.463 466.438,118.13 462.5,117.5C 462.5,116.5 462.5,115.5 462.5,114.5 Z"/></g>
<g><path style="opacity:0.018" fill="#feeafe" d="M 473.5,119.5 C 474.833,119.5 475.5,120.167 475.5,121.5C 474.833,121.5 474.167,121.5 473.5,121.5C 473.5,120.833 473.5,120.167 473.5,119.5 Z"/></g>
<g><path style="opacity:0.032" fill="#edc0e3" d="M 475.5,121.5 C 476.675,121.281 477.675,121.614 478.5,122.5C 480.167,124.833 482.167,126.833 484.5,128.5C 485.386,129.325 485.719,130.325 485.5,131.5C 483.678,131.169 482.011,130.502 480.5,129.5C 480.167,126.5 478.5,124.833 475.5,124.5C 475.5,123.5 475.5,122.5 475.5,121.5 Z"/></g>
<g><path style="opacity:0.188" fill="#edabd9" d="M 485.5,131.5 C 488.5,131.833 490.167,133.5 490.5,136.5C 490.167,133.5 488.5,131.833 485.5,131.5 Z"/></g>
<g><path style="opacity:0.061" fill="#fec5eb" d="M 490.5,138.5 C 491.5,138.5 492.5,138.5 493.5,138.5C 493.5,139.5 493.5,140.5 493.5,141.5C 492.5,141.5 491.5,141.5 490.5,141.5C 490.5,140.5 490.5,139.5 490.5,138.5 Z"/></g>
<g><path style="opacity:0.075" fill="#f5e0ea" d="M 421.5,143.5 C 425.167,143.5 428.833,143.5 432.5,143.5C 432.5,144.5 432.5,145.5 432.5,146.5C 428.881,145.756 425.215,145.423 421.5,145.5C 421.5,144.833 421.5,144.167 421.5,143.5 Z"/></g>
<g><path style="opacity:0.25" fill="#e9a6d1" d="M 432.5,143.5 C 435.734,144.576 439.068,145.243 442.5,145.5C 442.831,147.322 443.498,148.989 444.5,150.5C 440.698,148.6 436.698,147.267 432.5,146.5C 432.5,145.5 432.5,144.5 432.5,143.5 Z"/></g>
<g><path style="opacity:0.988" fill="#cb238c" d="M 494.5,149.5 C 496.464,154.469 497.631,159.803 498,165.5C 498.383,166.056 498.883,166.389 499.5,166.5C 499.5,219.167 499.5,271.833 499.5,324.5C 498.883,324.611 498.383,324.944 498,325.5C 497.858,331.326 497.025,336.992 495.5,342.5C 495.5,345.167 495.5,347.833 495.5,350.5C 495.5,350.833 495.5,351.167 495.5,351.5C 494.5,351.5 493.5,351.5 492.5,351.5C 492.255,358.668 491.255,365.668 489.5,372.5C 488.5,372.5 487.5,372.5 486.5,372.5C 486.547,377.913 485.88,383.246 484.5,388.5C 484.507,390.369 484.84,392.036 485.5,393.5C 485.5,394.833 485.5,396.167 485.5,397.5C 485.5,398.167 485.5,398.833 485.5,399.5C 484.5,399.5 483.5,399.5 482.5,399.5C 480.724,405.902 479.557,412.569 479,419.5C 478.586,419.957 478.086,420.291 477.5,420.5C 475.597,428.047 474.43,435.714 474,443.5C 473.586,443.957 473.086,444.291 472.5,444.5C 470.668,451.494 469.001,458.494 467.5,465.5C 465.857,465.48 464.524,466.147 463.5,467.5C 461.065,472.049 458.398,476.382 455.5,480.5C 454.498,482.011 453.831,483.678 453.5,485.5C 453.167,485.5 452.833,485.5 452.5,485.5C 449.436,485.928 446.436,486.594 443.5,487.5C 443.5,488.5 443.5,489.5 443.5,490.5C 438.225,492.09 432.892,493.59 427.5,495C 427.043,495.414 426.709,495.914 426.5,496.5C 422.878,497.325 419.211,497.825 415.5,498C 414.944,498.383 414.611,498.883 414.5,499.5C 340.167,499.5 265.833,499.5 191.5,499.5C 191.586,498.504 191.252,497.671 190.5,497C 184.722,496.906 179.056,496.239 173.5,495C 177.167,494.667 180.833,494.333 184.5,494C 184.833,493.667 185.167,493.333 185.5,493C 184.5,492.5 183.5,492 182.5,491.5C 178.86,492.52 175.194,493.02 171.5,493C 172.489,491.18 173.489,489.347 174.5,487.5C 171.706,484.87 169.039,482.037 166.5,479C 167,478.5 167.5,478 168,477.5C 169.194,478.43 170.527,479.097 172,479.5C 173.649,478.102 174.982,478.436 176,480.5C 177.91,477.836 177.077,476.17 173.5,475.5C 172.719,474.271 172.219,472.938 172,471.5C 168.716,475.445 166.55,474.779 165.5,469.5C 163.738,469.357 162.071,469.691 160.5,470.5C 159.015,468.148 157.682,465.814 156.5,463.5C 157.5,463.5 158.5,463.5 159.5,463.5C 159.312,465.103 159.812,466.437 161,467.5C 162.938,466.14 164.604,466.473 166,468.5C 167.646,466.945 167.979,465.279 167,463.5C 170.033,461.032 173.533,460.032 177.5,460.5C 177.5,461.5 177.5,462.5 177.5,463.5C 181.329,464.069 184.663,463.402 187.5,461.5C 260.167,461.5 332.833,461.5 405.5,461.5C 407.833,461.5 410.167,461.5 412.5,461.5C 414.167,461.5 415.833,461.5 417.5,461.5C 419.011,460.498 420.678,459.831 422.5,459.5C 422.5,458.5 422.5,457.5 422.5,456.5C 423.833,456.5 424.5,455.833 424.5,454.5C 427.308,454.307 429.975,453.64 432.5,452.5C 432.365,449.583 433.032,446.916 434.5,444.5C 434.5,442.833 434.5,441.167 434.5,439.5C 434.5,439.167 434.5,438.833 434.5,438.5C 435.496,438.586 436.329,438.252 437,437.5C 437.313,433.343 438.147,429.343 439.5,425.5C 442.347,417.711 444.347,409.545 445.5,401C 445.494,398.967 445.161,397.134 444.5,395.5C 444.5,394.5 444.5,393.5 444.5,392.5C 444.5,392.167 444.5,391.833 444.5,391.5C 445.496,391.586 446.329,391.252 447,390.5C 447.796,387.961 447.629,385.628 446.5,383.5C 446.5,382.5 446.5,381.5 446.5,380.5C 448.124,380.64 449.29,379.973 450,378.5C 450.832,373.837 451.666,369.17 452.5,364.5C 452.495,362.304 452.162,360.304 451.5,358.5C 451.5,357.833 451.5,357.167 451.5,356.5C 451.5,355.5 451.5,354.5 451.5,353.5C 452.5,353.5 453.5,353.5 454.5,353.5C 454.806,350.615 454.473,347.948 453.5,345.5C 453.5,344.167 453.5,342.833 453.5,341.5C 454.5,341.5 455.5,341.5 456.5,341.5C 457.667,336.501 459.001,331.501 460.5,326.5C 460.684,323.795 460.017,321.462 458.5,319.5C 458.5,318.167 458.5,316.833 458.5,315.5C 457.24,268.655 457.24,221.655 458.5,174.5C 459.822,174.67 460.989,174.337 462,173.5C 462.772,168.096 462.439,162.762 461,157.5C 460.581,158.672 459.915,159.672 459,160.5C 457.811,155.729 455.978,151.395 453.5,147.5C 455.929,147.585 457.929,148.585 459.5,150.5C 460.5,150 461.5,149.5 462.5,149C 460.934,147.316 459.934,145.316 459.5,143C 459.667,141.5 460.5,140.667 462,140.5C 463.722,140.611 463.888,141.111 462.5,142C 463.973,142.71 464.64,143.876 464.5,145.5C 467.816,145.373 470.816,144.373 473.5,142.5C 474.857,145.527 474.524,148.36 472.5,151C 473.448,151.483 474.448,151.649 475.5,151.5C 475.178,149.278 475.845,147.444 477.5,146C 475.717,144.933 475.217,143.433 476,141.5C 478.098,145.484 479.765,145.151 481,140.5C 481.019,143.308 482.019,145.641 484,147.5C 484.988,144.576 485.654,141.576 486,138.5C 486.333,140.167 486.667,141.833 487,143.5C 489.856,145.274 492.356,147.274 494.5,149.5 Z"/></g>
<g><path style="opacity:0.155" fill="#eeb5d9" d="M 493.5,141.5 C 495.256,142.552 495.923,144.219 495.5,146.5C 493.744,145.448 493.077,143.781 493.5,141.5 Z"/></g>
<g><path style="opacity:0.016" fill="#eeb1d2" d="M 421.5,143.5 C 421.5,144.167 421.5,144.833 421.5,145.5C 418.157,146.286 414.823,147.286 411.5,148.5C 411.5,147.5 411.5,146.5 411.5,145.5C 414.833,144.833 418.167,144.167 421.5,143.5 Z"/></g>
<g><path style="opacity:0.98" fill="#d351a1" d="M 421.5,143.5 C 418.167,144.167 414.833,144.833 411.5,145.5C 411.5,146.5 411.5,147.5 411.5,148.5C 410.833,148.5 410.167,148.5 409.5,148.5C 406.5,148.833 404.833,150.5 404.5,153.5C 402.089,154.517 400.422,156.184 399.5,158.5C 398.167,158.5 397.5,159.167 397.5,160.5C 396.5,160.5 395.5,160.5 394.5,160.5C 394.5,162.167 394.5,163.833 394.5,165.5C 394.5,166.167 394.5,166.833 394.5,167.5C 392.824,168.183 392.157,169.517 392.5,171.5C 391.844,170.378 391.511,169.045 391.5,167.5C 392.05,164.737 392.883,162.07 394,159.5C 396.737,155.48 399.57,151.48 402.5,147.5C 401.271,146.719 399.938,146.219 398.5,146C 404.856,145.051 411.189,143.885 417.5,142.5C 419.045,142.511 420.378,142.844 421.5,143.5 Z"/></g>
<g><path style="opacity:0.097" fill="#f0dbf0" d="M 495.5,146.5 C 498.084,147.048 499.084,148.715 498.5,151.5C 497.5,151.5 496.5,151.5 495.5,151.5C 495.5,149.833 495.5,148.167 495.5,146.5 Z"/></g>
<g><path style="opacity:0.021" fill="#fbe6f2" d="M 409.5,148.5 C 408.918,149.931 408.085,151.264 407,152.5C 406.329,153.252 405.496,153.586 404.5,153.5C 404.833,150.5 406.5,148.833 409.5,148.5 Z"/></g>
<g><path style="opacity:0.129" fill="#efa5d6" d="M 446.5,150.5 C 450.069,151.464 452.735,153.631 454.5,157C 454.43,157.765 454.097,158.265 453.5,158.5C 451.748,156.091 449.415,154.424 446.5,153.5C 446.5,152.5 446.5,151.5 446.5,150.5 Z"/></g>
<g><path style="opacity:0.561" fill="#d769ab" d="M 490.5,141.5 C 491.5,141.5 492.5,141.5 493.5,141.5C 493.077,143.781 493.744,145.448 495.5,146.5C 495.5,148.167 495.5,149.833 495.5,151.5C 496.5,151.5 497.5,151.5 498.5,151.5C 498.263,152.791 498.596,153.791 499.5,154.5C 499.5,158.5 499.5,162.5 499.5,166.5C 498.883,166.389 498.383,166.056 498,165.5C 497.631,159.803 496.464,154.469 494.5,149.5C 492.836,147.003 491.503,144.337 490.5,141.5 Z"/></g>
<g><path style="opacity:0.023" fill="#f2e7fe" d="M 399.5,158.5 C 399.5,159.833 398.833,160.5 397.5,160.5C 397.5,159.167 398.167,158.5 399.5,158.5 Z"/></g>
<g><path style="opacity:0.051" fill="#fecdef" d="M 453.5,160.5 C 454.5,160.5 455.5,160.5 456.5,160.5C 456.5,161.5 456.5,162.5 456.5,163.5C 454.5,163.5 453.5,162.5 453.5,160.5 Z"/></g>
<g><path style="opacity:0.149" fill="#f7b7de" d="M 397.5,160.5 C 397.5,162.167 397.5,163.833 397.5,165.5C 396.5,165.5 395.5,165.5 394.5,165.5C 394.5,163.833 394.5,162.167 394.5,160.5C 395.5,160.5 396.5,160.5 397.5,160.5 Z"/></g>
<g><path style="opacity:0.006" fill="#fefffe" d="M 380.5,166.5 C 380.5,190.833 380.5,215.167 380.5,239.5C 378.879,239.213 377.879,238.213 377.5,236.5C 378.828,215.679 378.828,194.846 377.5,174C 377.713,170.974 378.713,168.474 380.5,166.5 Z"/></g>
<g><path style="opacity:0.016" fill="#f4d4ee" d="M 456.5,165.5 C 457.5,165.5 458.5,165.5 459.5,165.5C 459.425,168.206 459.092,170.873 458.5,173.5C 457.883,173.389 457.383,173.056 457,172.5C 456.503,170.19 456.337,167.857 456.5,165.5 Z"/></g>
<g><path style="opacity:0.051" fill="#f5def1" d="M 394.5,167.5 C 395.036,170.698 394.369,173.365 392.5,175.5C 392.5,174.167 392.5,172.833 392.5,171.5C 392.157,169.517 392.824,168.183 394.5,167.5 Z"/></g>
<g><path style="opacity:0.005" fill="#fefffe" d="M 392.5,177.5 C 393.425,199.015 393.925,220.682 394,242.5C 393.617,243.056 393.117,243.389 392.5,243.5C 392.5,221.5 392.5,199.5 392.5,177.5 Z"/></g>
<g><path style="opacity:0.288" fill="#e9add5" d="M 64.5,212.5 C 64.5,213.5 64.5,214.5 64.5,215.5C 62.1667,215.5 59.8333,215.5 57.5,215.5C 57.5,214.5 57.5,213.5 57.5,212.5C 59.8333,212.5 62.1667,212.5 64.5,212.5 Z"/></g>
<g><path style="opacity:0.455" fill="#de7ab7" d="M 95.5,212.5 C 95.5,213.5 95.5,214.5 95.5,215.5C 92.7531,215.813 90.0865,215.48 87.5,214.5C 87.1373,213.817 86.8039,213.15 86.5,212.5C 89.1897,212.339 92.1897,212.339 95.5,212.5 Z"/></g>
<g><path style="opacity:0.115" fill="#fbd8f1" d="M 95.5,212.5 C 97.1992,212.34 98.8659,212.506 100.5,213C 101.756,213.417 102.423,214.25 102.5,215.5C 100.167,215.5 97.8333,215.5 95.5,215.5C 95.5,214.5 95.5,213.5 95.5,212.5 Z"/></g>
<g><path style="opacity:0.194" fill="#efc7e2" d="M 52.5,215.5 C 51.4479,217.256 49.7812,217.923 47.5,217.5C 48.5521,215.744 50.2188,215.077 52.5,215.5 Z"/></g>
<g><path style="opacity:0.037" fill="#efe2e8" d="M 106.5,215.5 C 108.179,215.285 109.179,215.952 109.5,217.5C 107.821,217.715 106.821,217.048 106.5,215.5 Z"/></g>
<g><path style="opacity:0.106" fill="#edb6db" d="M 45.5,217.5 C 45.5,218.5 45.5,219.5 45.5,220.5C 44.5,220.5 43.5,220.5 42.5,220.5C 42.5,219.833 42.1667,219.5 41.5,219.5C 42.287,217.896 43.6203,217.229 45.5,217.5 Z"/></g>
<g><path style="opacity:0.165" fill="#e9abd4" d="M 110.5,217.5 C 112.565,217.517 114.565,217.85 116.5,218.5C 116.5,219.167 116.5,219.833 116.5,220.5C 116.631,221.239 116.464,221.906 116,222.5C 114.599,220.808 112.766,220.141 110.5,220.5C 110.5,219.5 110.5,218.5 110.5,217.5 Z"/></g>
<g><path style="opacity:0.522" fill="#d65ba6" d="M 102.5,215.5 C 103.833,215.5 105.167,215.5 106.5,215.5C 106.821,217.048 107.821,217.715 109.5,217.5C 109.833,217.5 110.167,217.5 110.5,217.5C 110.5,218.5 110.5,219.5 110.5,220.5C 112.766,220.141 114.599,220.808 116,222.5C 116.464,221.906 116.631,221.239 116.5,220.5C 117.404,221.209 117.737,222.209 117.5,223.5C 114.564,222.594 111.564,221.928 108.5,221.5C 108.5,220.5 108.5,219.5 108.5,218.5C 106.5,218.5 104.5,218.5 102.5,218.5C 102.5,217.5 102.5,216.5 102.5,215.5 Z"/></g>
<g><path style="opacity:0.757" fill="#e080b8" d="M 41.5,219.5 C 42.1667,219.5 42.5,219.833 42.5,220.5C 42.719,221.675 42.3857,222.675 41.5,223.5C 40.2638,222.754 38.9305,222.421 37.5,222.5C 37.6941,220.088 39.0274,219.088 41.5,219.5 Z"/></g>
<g><path style="opacity:0.2" fill="#e294c5" d="M 35.5,222.5 C 35.5,223.5 35.5,224.5 35.5,225.5C 33.6776,225.831 32.0109,226.498 30.5,227.5C 30.5,226.833 30.5,226.167 30.5,225.5C 31.6697,223.721 33.3364,222.721 35.5,222.5 Z"/></g>
<g><path style="opacity:0.014" fill="#fefffe" d="M 30.5,225.5 C 30.5,226.167 30.5,226.833 30.5,227.5C 29.8333,227.5 29.1667,227.5 28.5,227.5C 28.5,226.167 29.1667,225.5 30.5,225.5 Z"/></g>
<g><path style="opacity:0.998" fill="#d54b9e" d="M 73.5,212.5 C 72.5655,213.568 72.2322,214.901 72.5,216.5C 67.4889,216.334 62.4889,216.501 57.5,217C 56.8333,217.667 56.1667,218.333 55.5,219C 51.3911,219.665 47.3911,220.498 43.5,221.5C 41.721,224.286 40.3876,227.286 39.5,230.5C 35.8333,229.167 32.1667,229.167 28.5,230.5C 28.5,229.5 28.5,228.5 28.5,227.5C 29.1667,227.5 29.8333,227.5 30.5,227.5C 32.0109,226.498 33.6776,225.831 35.5,225.5C 35.5,224.5 35.5,223.5 35.5,222.5C 36.1667,222.5 36.8333,222.5 37.5,222.5C 38.9305,222.421 40.2638,222.754 41.5,223.5C 42.3857,222.675 42.719,221.675 42.5,220.5C 43.5,220.5 44.5,220.5 45.5,220.5C 45.5,219.5 45.5,218.5 45.5,217.5C 46.1667,217.5 46.8333,217.5 47.5,217.5C 49.7812,217.923 51.4479,217.256 52.5,215.5C 54.1667,215.5 55.8333,215.5 57.5,215.5C 59.8333,215.5 62.1667,215.5 64.5,215.5C 64.5,214.5 64.5,213.5 64.5,212.5C 67.6727,211.632 70.6727,211.632 73.5,212.5 Z"/></g>
<g><path style="opacity:0.298" fill="#e895c4" d="M 28.5,227.5 C 28.5,228.5 28.5,229.5 28.5,230.5C 26.5299,232.257 24.3632,233.923 22,235.5C 20.8615,235.011 19.6948,234.678 18.5,234.5C 21.2588,231.418 24.5922,229.084 28.5,227.5 Z"/></g>
<g><path style="opacity:0.204" fill="#f6b6dc" d="M 18.5,235.5 C 18.5,236.833 18.5,238.167 18.5,239.5C 17.5,239.5 16.5,239.5 15.5,239.5C 15.7148,241.179 15.0481,242.179 13.5,242.5C 13.2659,238.79 14.9326,236.456 18.5,235.5 Z"/></g>
<g><path style="opacity:0.005" fill="#fefffe" d="M 301.5,240.5 C 301.5,241.5 301.5,242.5 301.5,243.5C 298.833,242.5 298.833,241.5 301.5,240.5 Z"/></g>
<g><path style="opacity:0.005" fill="#fefffe" d="M 380.5,240.5 C 380.5,241.5 380.5,242.5 380.5,243.5C 377.833,242.5 377.833,241.5 380.5,240.5 Z"/></g>
<g><path style="opacity:0.024" fill="#f1f2fe" d="M 10.5,244.5 C 10.7148,246.179 10.0481,247.179 8.5,247.5C 8.28519,245.821 8.95186,244.821 10.5,244.5 Z"/></g>
<g><path style="opacity:0.004" fill="#fefffe" d="M 380.5,245.5 C 380.5,246.5 380.5,247.5 380.5,248.5C 377.833,247.5 377.833,246.5 380.5,245.5 Z"/></g>
<g><path style="opacity:0.334" fill="#e68fc6" d="M 224.5,249.5 C 228.833,249.5 233.167,249.5 237.5,249.5C 235.777,250.8 233.61,251.467 231,251.5C 228.39,251.467 226.223,250.8 224.5,249.5 Z"/></g>
<g><path style="opacity:0.325" fill="#e287c0" d="M 301.5,248.5 C 305.5,248.5 309.5,248.5 313.5,248.5C 313.5,249.5 313.5,250.5 313.5,251.5C 309.5,251.5 305.5,251.5 301.5,251.5C 301.5,250.5 301.5,249.5 301.5,248.5 Z"/></g>
<g><path style="opacity:0.331" fill="#e288c1" d="M 380.5,248.5 C 384.5,248.5 388.5,248.5 392.5,248.5C 392.5,249.5 392.5,250.5 392.5,251.5C 388.5,251.5 384.5,251.5 380.5,251.5C 380.5,250.5 380.5,249.5 380.5,248.5 Z"/></g>
<g><path style="opacity:0.341" fill="#db64aa" d="M 107.5,261.5 C 106.5,261.5 105.5,261.5 104.5,261.5C 102.821,261.715 101.821,261.048 101.5,259.5C 101.5,258.5 101.5,257.5 101.5,256.5C 100.167,256.5 98.8333,256.5 97.5,256.5C 97.1667,256.5 96.8333,256.5 96.5,256.5C 95.8166,254.824 94.4832,254.157 92.5,254.5C 92.5,253.5 92.5,252.5 92.5,251.5C 89.8333,251.5 87.1667,251.5 84.5,251.5C 84.1667,251.5 83.8333,251.5 83.5,251.5C 81.5,251.5 79.5,251.5 77.5,251.5C 75.5,251.5 73.5,251.5 71.5,251.5C 71.5774,250.25 72.244,249.417 73.5,249C 75.6667,248.833 77.8333,248.667 80,248.5C 84.8018,249.267 89.6351,250.101 94.5,251C 97.13,253.321 100.13,255.154 103.5,256.5C 105.404,257.766 106.737,259.433 107.5,261.5 Z"/></g>
<g><path style="opacity:0.025" fill="#fbcef6" d="M 69.5,251.5 C 69.5,252.5 69.5,253.5 69.5,254.5C 67.8333,254.5 66.1667,254.5 64.5,254.5C 64.5,253.5 64.5,252.5 64.5,251.5C 66.1667,251.5 67.8333,251.5 69.5,251.5 Z"/></g>
<g><path style="opacity:0.006" fill="#fefffe" d="M 77.5,251.5 C 79.5,251.5 81.5,251.5 83.5,251.5C 82.8658,252.947 81.6991,253.613 80,253.5C 78.6244,253.316 77.7911,252.649 77.5,251.5 Z"/></g>
<g><path style="opacity:0.199" fill="#f2bde3" d="M 84.5,251.5 C 87.1667,251.5 89.8333,251.5 92.5,251.5C 92.5,252.5 92.5,253.5 92.5,254.5C 89.0581,255.172 86.3914,254.172 84.5,251.5 Z"/></g>
<g><path style="opacity:0.053" fill="#f7e6ee" d="M 64.5,254.5 C 63.3646,256.213 61.698,256.88 59.5,256.5C 60.5521,254.744 62.2188,254.077 64.5,254.5 Z"/></g>
<g><path style="opacity:0.075" fill="#f8e5ef" d="M 92.5,254.5 C 94.4832,254.157 95.8166,254.824 96.5,256.5C 94.5168,256.843 93.1834,256.176 92.5,254.5 Z"/></g>
<g><path style="opacity:0.027" fill="#e8c7da" d="M 54.5,256.5 C 55.8333,256.5 57.1667,256.5 58.5,256.5C 57.9522,258.532 56.6188,259.532 54.5,259.5C 54.5,258.5 54.5,257.5 54.5,256.5 Z"/></g>
<g><path style="opacity:0.167" fill="#edbddc" d="M 97.5,256.5 C 98.8333,256.5 100.167,256.5 101.5,256.5C 101.5,257.5 101.5,258.5 101.5,259.5C 99.368,259.446 98.0347,258.446 97.5,256.5 Z"/></g>
<g><path style="opacity:0.402" fill="#e177ba" d="M 13.5,242.5 C 11.381,248.385 9.04766,254.052 6.5,259.5C 5.5,259.5 4.5,259.5 3.5,259.5C 3.31633,255.921 3.98299,252.587 5.5,249.5C 7.17876,249.715 8.17876,249.048 8.5,247.5C 10.0481,247.179 10.7148,246.179 10.5,244.5C 10.8212,242.952 11.8212,242.285 13.5,242.5 Z"/></g>
<g><path style="opacity:0.033" fill="#efd6ed" d="M 3.5,259.5 C 3.5,260.5 3.5,261.5 3.5,262.5C 2.5,262.5 1.5,262.5 0.5,262.5C 0.5,261.5 0.5,260.5 0.5,259.5C 1.5,259.5 2.5,259.5 3.5,259.5 Z"/></g>
<g><path style="opacity:0.765" fill="#d658a2" d="M 54.5,256.5 C 54.5,257.5 54.5,258.5 54.5,259.5C 53.1667,259.5 52.5,260.167 52.5,261.5C 51.5,261.5 50.5,261.5 49.5,261.5C 49.5,262.5 49.5,263.5 49.5,264.5C 48.1667,264.5 47.5,265.167 47.5,266.5C 46.5,266.5 45.5,266.5 44.5,266.5C 44.2627,267.791 44.596,268.791 45.5,269.5C 45.5,270.167 45.5,270.833 45.5,271.5C 44.5,271.5 43.5,271.5 42.5,271.5C 42.5,272.5 42.5,273.5 42.5,274.5C 42.5,274.833 42.5,275.167 42.5,275.5C 41.5,275.5 40.5,275.5 39.5,275.5C 41.0635,270.144 43.3968,265.144 46.5,260.5C 49.2844,259.29 51.9511,257.957 54.5,256.5 Z"/></g>
<g><path style="opacity:0.032" fill="#fee3f5" d="M 54.5,259.5 C 54.5,260.833 53.8333,261.5 52.5,261.5C 52.5,260.167 53.1667,259.5 54.5,259.5 Z"/></g>
<g><path style="opacity:0.025" fill="#fee4fe" d="M 52.5,261.5 C 52.5,263.5 51.5,264.5 49.5,264.5C 49.5,263.5 49.5,262.5 49.5,261.5C 50.5,261.5 51.5,261.5 52.5,261.5 Z"/></g>
<g><path style="opacity:0.216" fill="#eea5d5" d="M 104.5,261.5 C 105.5,261.5 106.5,261.5 107.5,261.5C 108.502,263.011 109.169,264.678 109.5,266.5C 106.5,266.167 104.833,264.5 104.5,261.5 Z"/></g>
<g><path style="opacity:0.038" fill="#f6dfee" d="M 49.5,264.5 C 49.5,265.833 48.8333,266.5 47.5,266.5C 47.5,265.167 48.1667,264.5 49.5,264.5 Z"/></g>
<g><path style="opacity:0.058" fill="#e9b8df" d="M 47.5,266.5 C 47.7148,268.179 47.0481,269.179 45.5,269.5C 44.596,268.791 44.2627,267.791 44.5,266.5C 45.5,266.5 46.5,266.5 47.5,266.5 Z"/></g>
<g><path style="opacity:0.063" fill="#f3d4f3" d="M 45.5,271.5 C 45.5,273.5 44.5,274.5 42.5,274.5C 42.5,273.5 42.5,272.5 42.5,271.5C 43.5,271.5 44.5,271.5 45.5,271.5 Z"/></g>
<g><path style="opacity:0.012" fill="#fefffe" d="M 111.5,271.5 C 113.179,271.285 114.179,271.952 114.5,273.5C 112.821,273.715 111.821,273.048 111.5,271.5 Z"/></g>
<g><path style="opacity:0.533" fill="#dc67ad" d="M 109.5,266.5 C 114.638,267.36 117.304,270.36 117.5,275.5C 119.722,275.178 121.556,275.845 123,277.5C 124.189,280.535 125.355,283.535 126.5,286.5C 125.833,286.5 125.167,286.5 124.5,286.5C 123.36,284.955 122.36,283.288 121.5,281.5C 121.167,278.5 119.5,276.833 116.5,276.5C 116.715,274.821 116.048,273.821 114.5,273.5C 114.179,271.952 113.179,271.285 111.5,271.5C 110.498,269.989 109.831,268.322 109.5,266.5 Z"/></g>
<g><path style="opacity:0.69" fill="#e284b9" d="M 0.5,262.5 C 1.5,262.5 2.5,262.5 3.5,262.5C 2.35949,266.401 1.52615,270.401 1,274.5C 0.617425,275.056 0.117425,275.389 -0.5,275.5C -0.5,272.167 -0.5,268.833 -0.5,265.5C 0.403972,264.791 0.737305,263.791 0.5,262.5 Z"/></g>
<g><path style="opacity:0.026" fill="#fbdfe5" d="M 114.5,273.5 C 116.048,273.821 116.715,274.821 116.5,276.5C 114.952,276.179 114.285,275.179 114.5,273.5 Z"/></g>
<g><path style="opacity:0.045" fill="#ecbfe3" d="M 116.5,276.5 C 119.5,276.833 121.167,278.5 121.5,281.5C 118.833,280.833 117.167,279.167 116.5,276.5 Z"/></g>
<g><path style="opacity:0.357" fill="#e696c3" d="M 39.5,275.5 C 40.5,275.5 41.5,275.5 42.5,275.5C 42.5,276.5 42.5,277.5 42.5,278.5C 40.744,279.552 40.0773,281.219 40.5,283.5C 39.5269,281.052 39.1936,278.385 39.5,275.5 Z"/></g>
<g><path style="opacity:0.02" fill="#fde9f0" d="M 42.5,278.5 C 42.6621,280.527 42.4955,282.527 42,284.5C 41.6174,285.056 41.1174,285.389 40.5,285.5C 40.5,284.833 40.5,284.167 40.5,283.5C 40.0773,281.219 40.744,279.552 42.5,278.5 Z"/></g>
<g><path style="opacity:0.016" fill="#fee8fe" d="M 124.5,286.5 C 125.167,286.5 125.833,286.5 126.5,286.5C 126.5,287.167 126.5,287.833 126.5,288.5C 125.167,288.5 124.5,287.833 124.5,286.5 Z"/></g>
<g><path style="opacity:0.225" fill="#f0b8e0" d="M 126.5,288.5 C 129.5,288.833 131.167,290.5 131.5,293.5C 128.5,293.167 126.833,291.5 126.5,288.5 Z"/></g>
<g><path style="opacity:0.155" fill="#f0b9d7" d="M 40.5,286.5 C 41.1174,286.611 41.6174,286.944 42,287.5C 42.4966,289.81 42.6633,292.143 42.5,294.5C 41.5,294.5 40.5,294.5 39.5,294.5C 39.5751,291.794 39.9084,289.127 40.5,286.5 Z"/></g>
<g><path style="opacity:0.322" fill="#e8aed1" d="M 131.5,293.5 C 135.53,294.506 137.197,297.173 136.5,301.5C 133.203,299.867 131.536,297.2 131.5,293.5 Z"/></g>
<g><path style="opacity:0.029" fill="#fae3fa" d="M 42.5,294.5 C 43.9744,295.436 44.9744,296.77 45.5,298.5C 44.5,298.5 43.5,298.5 42.5,298.5C 42.5,297.167 42.5,295.833 42.5,294.5 Z"/></g>
<g><path style="opacity:0.369" fill="#da70b3" d="M 39.5,294.5 C 40.5,294.5 41.5,294.5 42.5,294.5C 42.5,295.833 42.5,297.167 42.5,298.5C 43.5,298.5 44.5,298.5 45.5,298.5C 45.5,299.5 45.5,300.5 45.5,301.5C 44.6618,301.842 44.3284,302.508 44.5,303.5C 43.5416,303.047 42.7083,302.381 42,301.5C 41.5522,298.969 40.7189,296.636 39.5,294.5 Z"/></g>
<g><path style="opacity:0.072" fill="#eebdde" d="M 45.5,301.5 C 47.929,302.265 49.2623,303.931 49.5,306.5C 47.7121,305.64 46.0455,304.64 44.5,303.5C 44.3284,302.508 44.6618,301.842 45.5,301.5 Z"/></g>
<g><path style="opacity:0.012" fill="#feeafe" d="M 136.5,301.5 C 137.833,301.5 138.5,302.167 138.5,303.5C 137.167,303.5 136.5,302.833 136.5,301.5 Z"/></g>
<g><path style="opacity:0.042" fill="#f5cff1" d="M 138.5,303.5 C 140.322,303.831 141.989,304.498 143.5,305.5C 143.5,306.5 143.5,307.5 143.5,308.5C 142.069,307.918 140.736,307.085 139.5,306C 138.748,305.329 138.414,304.496 138.5,303.5 Z"/></g>
<g><path style="opacity:0.457" fill="#d654a6" d="M 158.5,288.5 C 158.5,298.833 158.5,309.167 158.5,319.5C 156.139,319.326 153.806,318.993 151.5,318.5C 151.5,317.5 151.5,316.5 151.5,315.5C 152.5,315.5 153.5,315.5 154.5,315.5C 154.334,307.16 154.5,298.827 155,290.5C 155.71,289.027 156.876,288.36 158.5,288.5 Z"/></g>
<g><path style="opacity:0.009" fill="#fefffe" d="M 49.5,306.5 C 51.0269,306.427 52.0269,307.094 52.5,308.5C 50.8212,308.715 49.8212,308.048 49.5,306.5 Z"/></g>
<g><path style="opacity:0.541" fill="#e27cb9" d="M -0.5,295.5 C 1.38784,297.988 2.0545,300.988 1.5,304.5C 2.5,304.5 3.5,304.5 4.5,304.5C 4.43883,307.488 5.10549,310.321 6.5,313C 6.47196,314.07 6.13863,314.903 5.5,315.5C 4.55104,313.263 3.88438,310.929 3.5,308.5C 2.5,308.5 1.5,308.5 0.5,308.5C 0.737305,307.209 0.403972,306.209 -0.5,305.5C -0.5,302.167 -0.5,298.833 -0.5,295.5 Z"/></g>
<g><path style="opacity:0.592" fill="#db74b3" d="M 143.5,305.5 C 147.268,307.937 149.935,311.27 151.5,315.5C 150.5,315.5 149.5,315.5 148.5,315.5C 148.5,314.167 147.833,313.5 146.5,313.5C 146.179,311.952 145.179,311.285 143.5,311.5C 143.5,310.5 143.5,309.5 143.5,308.5C 143.5,307.5 143.5,306.5 143.5,305.5 Z"/></g>
<g><path style="opacity:0.007" fill="#f8e2f1" d="M 0.5,308.5 C 1.5,308.5 2.5,308.5 3.5,308.5C 3.88438,310.929 4.55104,313.263 5.5,315.5C 5.5,316.167 5.5,316.833 5.5,317.5C 3.96522,316.156 2.63189,314.489 1.5,312.5C 0.754152,311.264 0.420818,309.93 0.5,308.5 Z"/></g>
<g><path style="opacity:0.148" fill="#f1bedc" d="M 52.5,309.5 C 54.1765,310.183 54.8432,311.517 54.5,313.5C 52.8235,312.817 52.1568,311.483 52.5,309.5 Z"/></g>
<g><path style="opacity:0.086" fill="#f4bbe2" d="M 54.5,313.5 C 55.5,313.5 56.5,313.5 57.5,313.5C 57.8308,315.322 58.4975,316.989 59.5,318.5C 56.5,318.167 54.8333,316.5 54.5,313.5 Z"/></g>
<g><path style="opacity:0.012" fill="#fefffe" d="M 146.5,313.5 C 147.833,313.5 148.5,314.167 148.5,315.5C 147.167,315.5 146.5,314.833 146.5,313.5 Z"/></g>
<g><path style="opacity:0.015" fill="#fde4fc" d="M 148.5,315.5 C 149.5,315.5 150.5,315.5 151.5,315.5C 151.5,316.5 151.5,317.5 151.5,318.5C 150.5,318.5 149.5,318.5 148.5,318.5C 148.5,317.5 148.5,316.5 148.5,315.5 Z"/></g>
<g><path style="opacity:0.016" fill="#fddced" d="M 59.5,318.5 C 60.5,318.5 61.5,318.5 62.5,318.5C 62.5,319.5 62.5,320.5 62.5,321.5C 62.5,320.5 62.5,319.5 62.5,318.5C 61.5,318.5 60.5,318.5 59.5,318.5 Z"/></g>
<g><path style="opacity:0.01" fill="#fefffe" d="M 5.5,320.5 C 6.5,320.5 7.5,320.5 8.5,320.5C 8.5,321.5 8.5,322.5 8.5,323.5C 7.16667,322.833 6.16667,321.833 5.5,320.5 Z"/></g>
<g><path style="opacity:0.576" fill="#de7bb7" d="M 5.5,317.5 C 6.82207,317.33 7.98873,317.663 9,318.5C 12.3676,323.034 15.5343,327.7 18.5,332.5C 17.5,332.5 16.5,332.5 15.5,332.5C 15.5,331.167 14.8333,330.5 13.5,330.5C 13.1788,328.952 12.1788,328.285 10.5,328.5C 10.5,327.5 10.5,326.5 10.5,325.5C 10.5,324.167 9.83333,323.5 8.5,323.5C 8.5,322.5 8.5,321.5 8.5,320.5C 7.5,320.5 6.5,320.5 5.5,320.5C 5.5,319.5 5.5,318.5 5.5,317.5 Z"/></g>
<g><path style="opacity:0.039" fill="#f9cae6" d="M 151.5,318.5 C 153.806,318.993 156.139,319.326 158.5,319.5C 158.5,320.833 158.5,322.167 158.5,323.5C 156.833,323.5 155.167,323.5 153.5,323.5C 153.169,321.678 152.502,320.011 151.5,318.5 Z"/></g>
<g><path style="opacity:0.007" fill="#fefffe" d="M 62.5,321.5 C 63.8333,321.5 64.5,322.167 64.5,323.5C 64.5,322.167 63.8333,321.5 62.5,321.5 Z"/></g>
<g><path style="opacity:0.027" fill="#fee8fe" d="M 8.5,323.5 C 9.83333,323.5 10.5,324.167 10.5,325.5C 9.16667,325.5 8.5,324.833 8.5,323.5 Z"/></g>
<g><path style="opacity:0.141" fill="#fad4ef" d="M 458.5,315.5 C 458.5,316.833 458.5,318.167 458.5,319.5C 458.975,322.082 458.308,324.082 456.5,325.5C 456.159,321.84 456.825,318.507 458.5,315.5 Z"/></g>
<g><path style="opacity:0.005" fill="#fefffe" d="M 13.5,330.5 C 14.8333,330.5 15.5,331.167 15.5,332.5C 14.1667,332.5 13.5,331.833 13.5,330.5 Z"/></g>
<g><path style="opacity:0.692" fill="#dc64b1" d="M 458.5,319.5 C 460.017,321.462 460.684,323.795 460.5,326.5C 459.001,331.501 457.667,336.501 456.5,341.5C 456.5,338.5 456.5,335.5 456.5,332.5C 456.5,330.167 456.5,327.833 456.5,325.5C 458.308,324.082 458.975,322.082 458.5,319.5 Z"/></g>
<g><path style="opacity:0.041" fill="#f5c7eb" d="M 15.5,332.5 C 16.5,332.5 17.5,332.5 18.5,332.5C 18.5,333.5 18.5,334.5 18.5,335.5C 17.5,335.5 16.5,335.5 15.5,335.5C 15.5,334.5 15.5,333.5 15.5,332.5 Z"/></g>
<g><path style="opacity:0.01" fill="#fefffe" d="M 72.5,333.5 C 73.8333,333.5 74.5,334.167 74.5,335.5C 74.5,334.167 73.8333,333.5 72.5,333.5 Z"/></g>
<g><path style="opacity:0.025" fill="#f3d0e8" d="M 456.5,332.5 C 456.5,335.5 456.5,338.5 456.5,341.5C 455.5,341.5 454.5,341.5 453.5,341.5C 452.925,337.845 453.925,334.845 456.5,332.5 Z"/></g>
<g><path style="opacity:0.009" fill="#fefffe" d="M 74.5,335.5 C 75.9063,335.973 76.573,336.973 76.5,338.5C 74.9519,338.179 74.2852,337.179 74.5,335.5 Z"/></g>
<g><path style="opacity:0.11" fill="#e289c0" d="M 499.5,324.5 C 499.5,329.833 499.5,335.167 499.5,340.5C 498.662,340.842 498.328,341.508 498.5,342.5C 497.5,342.5 496.5,342.5 495.5,342.5C 497.025,336.992 497.858,331.326 498,325.5C 498.383,324.944 498.883,324.611 499.5,324.5 Z"/></g>
<g><path style="opacity:0.11" fill="#ebb1da" d="M 18.5,335.5 C 20.0109,336.502 21.6776,337.169 23.5,337.5C 23.5,338.5 23.5,339.5 23.5,340.5C 23.1667,340.5 22.8333,340.5 22.5,340.5C 20.071,339.735 18.7377,338.069 18.5,335.5 Z"/></g>
<g><path style="opacity:0.161" fill="#ec99cd" d="M 64.5,324.5 C 65.4959,324.414 66.3292,324.748 67,325.5C 68.7133,328.357 70.5466,331.024 72.5,333.5C 72.5,334.833 73.1667,335.5 74.5,335.5C 74.2852,337.179 74.9519,338.179 76.5,338.5C 78.6118,340.5 80.2785,342.834 81.5,345.5C 81.5,346.167 81.5,346.833 81.5,347.5C 79.9755,346.826 78.6422,345.826 77.5,344.5C 76.6143,343.675 76.281,342.675 76.5,341.5C 75.5,341.5 74.5,341.5 73.5,341.5C 72.6345,338.833 71.6345,336.167 70.5,333.5C 66.4466,331.794 64.4466,328.794 64.5,324.5 Z"/></g>
<g><path style="opacity:0.011" fill="#fefffe" d="M 25.5,345.5 C 26.8333,345.5 27.5,346.167 27.5,347.5C 27.5,346.167 26.8333,345.5 25.5,345.5 Z"/></g>
<g><path style="opacity:0.016" fill="#fde9fc" d="M 81.5,345.5 C 83.5,345.5 84.5,346.5 84.5,348.5C 83.209,348.737 82.209,348.404 81.5,347.5C 81.5,346.833 81.5,346.167 81.5,345.5 Z"/></g>
<g><path style="opacity:0.081" fill="#efcfe7" d="M 495.5,342.5 C 496.5,342.5 497.5,342.5 498.5,342.5C 498.662,344.527 498.495,346.527 498,348.5C 497.583,349.756 496.75,350.423 495.5,350.5C 495.5,347.833 495.5,345.167 495.5,342.5 Z"/></g>
<g><path style="opacity:0.028" fill="#f6dced" d="M 27.5,347.5 C 28.5,347.5 29.5,347.5 30.5,347.5C 30.5,348.5 30.5,349.5 30.5,350.5C 28.5,350.5 27.5,349.5 27.5,347.5 Z"/></g>
<g><path style="opacity:0.006" fill="#fefffe" d="M 84.5,348.5 C 85.8333,348.5 86.5,349.167 86.5,350.5C 85.8333,350.5 85.1667,350.5 84.5,350.5C 84.5,349.833 84.5,349.167 84.5,348.5 Z"/></g>
<g><path style="opacity:0.886" fill="#db65a9" d="M 22.5,340.5 C 22.8333,340.5 23.1667,340.5 23.5,340.5C 28.6378,341.36 31.3045,344.36 31.5,349.5C 32.9305,349.421 34.2638,349.754 35.5,350.5C 37.7217,353.61 39.3884,356.943 40.5,360.5C 39.5,360.5 38.5,360.5 37.5,360.5C 37.3876,355.494 35.0542,352.161 30.5,350.5C 30.5,349.5 30.5,348.5 30.5,347.5C 29.5,347.5 28.5,347.5 27.5,347.5C 27.5,346.167 26.8333,345.5 25.5,345.5C 24.241,344.021 23.241,342.354 22.5,340.5 Z"/></g>
<g><path style="opacity:0.153" fill="#efbede" d="M 30.5,350.5 C 35.0542,352.161 37.3876,355.494 37.5,360.5C 34.1814,357.865 31.8481,354.532 30.5,350.5 Z"/></g>
<g><path style="opacity:0.12" fill="#e38fc5" d="M 84.5,350.5 C 85.1667,350.5 85.8333,350.5 86.5,350.5C 87.759,351.979 88.759,353.646 89.5,355.5C 89.5,356.5 89.5,357.5 89.5,358.5C 87.0584,356.337 85.3917,353.67 84.5,350.5 Z"/></g>
<g><path style="opacity:0.204" fill="#ebafd1" d="M 453.5,345.5 C 454.473,347.948 454.806,350.615 454.5,353.5C 453.5,353.5 452.5,353.5 451.5,353.5C 450.964,350.302 451.631,347.635 453.5,345.5 Z"/></g>
<g><path style="opacity:0.031" fill="#f4d8f0" d="M 89.5,355.5 C 90.9311,356.082 92.2644,356.915 93.5,358C 94.2524,358.671 94.5858,359.504 94.5,360.5C 93.5,360.5 92.5,360.5 91.5,360.5C 91.5,359.167 90.8333,358.5 89.5,358.5C 89.5,357.5 89.5,356.5 89.5,355.5 Z"/></g>
<g><path style="opacity:0.102" fill="#eed1e1" d="M 495.5,354.5 C 496.036,357.698 495.369,360.365 493.5,362.5C 492.964,359.302 493.631,356.635 495.5,354.5 Z"/></g>
<g><path style="opacity:0.017" fill="#feeeed" d="M 37.5,360.5 C 38.5,360.5 39.5,360.5 40.5,360.5C 40.5,361.167 40.5,361.833 40.5,362.5C 38.8212,362.715 37.8212,362.048 37.5,360.5 Z"/></g>
<g><path style="opacity:0.014" fill="#feedfe" d="M 94.5,360.5 C 95.8333,360.5 96.5,361.167 96.5,362.5C 96.5,361.167 95.8333,360.5 94.5,360.5 Z"/></g>
<g><path style="opacity:0.147" fill="#f6cdea" d="M 451.5,356.5 C 451.5,357.167 451.5,357.833 451.5,358.5C 451.923,360.781 451.256,362.448 449.5,363.5C 449.338,361.473 449.505,359.473 450,357.5C 450.383,356.944 450.883,356.611 451.5,356.5 Z"/></g>
<g><path style="opacity:0.012" fill="#fefffe" d="M 96.5,362.5 C 97.8333,363.167 98.8333,364.167 99.5,365.5C 98.5,365.5 97.5,365.5 96.5,365.5C 96.5,364.5 96.5,363.5 96.5,362.5 Z"/></g>
<g><path style="opacity:0.296" fill="#f3add5" d="M 40.5,362.5 C 43.5,362.833 45.1667,364.5 45.5,367.5C 42.5,367.167 40.8333,365.5 40.5,362.5 Z"/></g>
<g><path style="opacity:0.659" fill="#dc6bad" d="M 91.5,360.5 C 92.5,360.5 93.5,360.5 94.5,360.5C 94.5,361.833 95.1667,362.5 96.5,362.5C 96.5,363.5 96.5,364.5 96.5,365.5C 97.5,365.5 98.5,365.5 99.5,365.5C 100.502,367.011 101.169,368.678 101.5,370.5C 101.5,371.167 101.5,371.833 101.5,372.5C 96.4528,369.929 93.1194,365.929 91.5,360.5 Z"/></g>
<g><path style="opacity:0.749" fill="#d961ab" d="M 451.5,358.5 C 452.162,360.304 452.495,362.304 452.5,364.5C 451.666,369.17 450.832,373.837 450,378.5C 449.29,379.973 448.124,380.64 446.5,380.5C 446.5,377.833 446.5,375.167 446.5,372.5C 447.5,372.5 448.5,372.5 449.5,372.5C 449.5,370.833 449.5,369.167 449.5,367.5C 449.5,366.167 449.5,364.833 449.5,363.5C 451.256,362.448 451.923,360.781 451.5,358.5 Z"/></g>
<g><path style="opacity:0.543" fill="#d968ad" d="M 45.5,367.5 C 50.6155,369.074 53.9488,372.408 55.5,377.5C 54.5,377.5 53.5,377.5 52.5,377.5C 52.7148,375.821 52.0481,374.821 50.5,374.5C 50.1788,372.952 49.1788,372.285 47.5,372.5C 46.4975,370.989 45.8308,369.322 45.5,367.5 Z"/></g>
<g><path style="opacity:0.059" fill="#f3d5e9" d="M 493.5,366.5 C 493.975,370.416 492.975,373.749 490.5,376.5C 490.5,373.167 490.5,369.833 490.5,366.5C 491.5,366.5 492.5,366.5 493.5,366.5 Z"/></g>
<g><path style="opacity:0.035" fill="#fff7f7" d="M 449.5,367.5 C 449.5,369.167 449.5,370.833 449.5,372.5C 448.5,372.5 447.5,372.5 446.5,372.5C 446.273,370.067 447.273,368.401 449.5,367.5 Z"/></g>
<g><path style="opacity:0.016" fill="#fbf3f8" d="M 47.5,372.5 C 49.1788,372.285 50.1788,372.952 50.5,374.5C 48.9731,374.573 47.9731,373.906 47.5,372.5 Z"/></g>
<g><path style="opacity:0.118" fill="#f4bedf" d="M 101.5,370.5 C 104.5,370.833 106.167,372.5 106.5,375.5C 104.336,375.279 102.67,374.279 101.5,372.5C 101.5,371.833 101.5,371.167 101.5,370.5 Z"/></g>
<g><path style="opacity:0.024" fill="#f1dded" d="M 50.5,374.5 C 52.0481,374.821 52.7148,375.821 52.5,377.5C 50.9519,377.179 50.2852,376.179 50.5,374.5 Z"/></g>
<g><path style="opacity:0.011" fill="#fefffe" d="M 106.5,375.5 C 107.833,375.5 108.5,376.167 108.5,377.5C 107.833,377.5 107.167,377.5 106.5,377.5C 106.5,376.833 106.5,376.167 106.5,375.5 Z"/></g>
<g><path style="opacity:0.183" fill="#db77b7" d="M 106.5,377.5 C 107.167,377.5 107.833,377.5 108.5,377.5C 109.64,379.045 110.64,380.712 111.5,382.5C 111.5,383.5 111.5,384.5 111.5,385.5C 109.058,383.337 107.392,380.67 106.5,377.5 Z"/></g>
<g><path style="opacity:0.061" fill="#f1b6db" d="M 52.5,377.5 C 53.5,377.5 54.5,377.5 55.5,377.5C 55.5,378.833 56.1667,379.5 57.5,379.5C 57.5,380.5 57.5,381.5 57.5,382.5C 54.7361,382.001 53.0695,380.335 52.5,377.5 Z"/></g>
<g><path style="opacity:0.07" fill="#f2afda" d="M 111.5,382.5 C 113.728,383.713 115.728,385.38 117.5,387.5C 118.386,388.325 118.719,389.325 118.5,390.5C 115.585,389.576 113.252,387.909 111.5,385.5C 111.5,384.5 111.5,383.5 111.5,382.5 Z"/></g>
<g><path style="opacity:0.575" fill="#d657a3" d="M 495.5,351.5 C 495.5,352.5 495.5,353.5 495.5,354.5C 493.631,356.635 492.964,359.302 493.5,362.5C 493.5,363.833 493.5,365.167 493.5,366.5C 492.5,366.5 491.5,366.5 490.5,366.5C 490.5,369.833 490.5,373.167 490.5,376.5C 490.5,378.167 490.5,379.833 490.5,381.5C 488.692,382.918 488.025,384.918 488.5,387.5C 487.5,387.5 486.5,387.5 485.5,387.5C 485.5,389.5 485.5,391.5 485.5,393.5C 484.84,392.036 484.507,390.369 484.5,388.5C 485.88,383.246 486.547,377.913 486.5,372.5C 487.5,372.5 488.5,372.5 489.5,372.5C 491.255,365.668 492.255,358.668 492.5,351.5C 493.5,351.5 494.5,351.5 495.5,351.5 Z"/></g>
<g><path style="opacity:0.053" fill="#f6e8fa" d="M 446.5,380.5 C 446.5,381.5 446.5,382.5 446.5,383.5C 446.5,384.833 445.833,385.5 444.5,385.5C 444.077,383.219 444.744,381.552 446.5,380.5 Z"/></g>
<g><path style="opacity:0.006" fill="#fcf1fb" d="M 490.5,381.5 C 490.946,384.01 490.28,386.01 488.5,387.5C 488.025,384.918 488.692,382.918 490.5,381.5 Z"/></g>
<g><path style="opacity:0.013" fill="#e8d6ee" d="M 57.5,384.5 C 58.5,384.5 59.5,384.5 60.5,384.5C 60.8308,386.322 61.4975,387.989 62.5,389.5C 60.1837,388.578 58.517,386.911 57.5,384.5 Z"/></g>
<g><path style="opacity:0.867" fill="#d24f9d" d="M 57.5,379.5 C 61.5253,383.868 66.0253,387.868 71,391.5C 71.3519,393.247 71.8519,394.914 72.5,396.5C 70.9891,395.498 69.3224,394.831 67.5,394.5C 67.1667,391.5 65.5,389.833 62.5,389.5C 61.4975,387.989 60.8308,386.322 60.5,384.5C 59.5,384.5 58.5,384.5 57.5,384.5C 57.5,383.833 57.5,383.167 57.5,382.5C 57.5,381.5 57.5,380.5 57.5,379.5 Z"/></g>
<g><path style="opacity:0.41" fill="#dd7bba" d="M 446.5,383.5 C 447.629,385.628 447.796,387.961 447,390.5C 446.329,391.252 445.496,391.586 444.5,391.5C 444.5,389.5 444.5,387.5 444.5,385.5C 445.833,385.5 446.5,384.833 446.5,383.5 Z"/></g>
<g><path style="opacity:0.318" fill="#f0b2dc" d="M 62.5,389.5 C 65.5,389.833 67.1667,391.5 67.5,394.5C 64.5,394.167 62.8333,392.5 62.5,389.5 Z"/></g>
<g><path style="opacity:0.133" fill="#eebbda" d="M 488.5,387.5 C 488.817,390.572 488.484,393.572 487.5,396.5C 486.817,396.863 486.15,397.196 485.5,397.5C 485.5,396.167 485.5,394.833 485.5,393.5C 485.5,391.5 485.5,389.5 485.5,387.5C 486.5,387.5 487.5,387.5 488.5,387.5 Z"/></g>
<g><path style="opacity:0.22" fill="#e389c4" d="M 67.5,394.5 C 69.3224,394.831 70.9891,395.498 72.5,396.5C 72.5,397.5 72.5,398.5 72.5,399.5C 71.8333,399.5 71.1667,399.5 70.5,399.5C 68.7215,398.33 67.7215,396.664 67.5,394.5 Z"/></g>
<g><path style="opacity:0.191" fill="#eebfe6" d="M 444.5,392.5 C 444.5,393.5 444.5,394.5 444.5,395.5C 444.5,397.167 444.5,398.833 444.5,400.5C 443.5,400.5 442.5,400.5 441.5,400.5C 440.828,397.058 441.828,394.391 444.5,392.5 Z"/></g>
<g><path style="opacity:0.005" fill="#fefffe" d="M 70.5,399.5 C 71.1667,399.5 71.8333,399.5 72.5,399.5C 72.5,400.167 72.5,400.833 72.5,401.5C 71.1667,401.5 70.5,400.833 70.5,399.5 Z"/></g>
<g><path style="opacity:0.216" fill="#e89fcf" d="M 118.5,391.5 C 122.353,391.686 124.019,393.686 123.5,397.5C 126.5,397.833 128.167,399.5 128.5,402.5C 122.81,400.986 119.476,397.319 118.5,391.5 Z"/></g>
<g><path style="opacity:0.006" fill="#fefffe" d="M 72.5,402.5 C 73.8333,402.5 74.5,403.167 74.5,404.5C 74.5,403.167 73.8333,402.5 72.5,402.5 Z"/></g>
<g><path style="opacity:0.013" fill="#fefffe" d="M 128.5,402.5 C 130.027,402.427 131.027,403.094 131.5,404.5C 129.821,404.715 128.821,404.048 128.5,402.5 Z"/></g>
<g><path style="opacity:0.05" fill="#f0cce6" d="M 74.5,404.5 C 77.5,404.833 79.1667,406.5 79.5,409.5C 78.0689,408.918 76.7356,408.085 75.5,407C 74.7476,406.329 74.4142,405.496 74.5,404.5 Z"/></g>
<g><path style="opacity:0.114" fill="#f3cce8" d="M 485.5,401.5 C 485.664,404.187 485.497,406.854 485,409.5C 484.617,410.056 484.117,410.389 483.5,410.5C 482.945,406.988 483.612,403.988 485.5,401.5 Z"/></g>
<g><path style="opacity:0.102" fill="#f7cbec" d="M 441.5,403.5 C 442.055,407.012 441.388,410.012 439.5,412.5C 439.336,409.813 439.503,407.146 440,404.5C 440.383,403.944 440.883,403.611 441.5,403.5 Z"/></g>
<g><path style="opacity:0.655" fill="#d55aa4" d="M 72.5,399.5 C 73.5,399.5 74.5,399.5 75.5,399.5C 75.281,400.675 75.6143,401.675 76.5,402.5C 80.319,404.469 82.9857,407.469 84.5,411.5C 82.9891,410.498 81.3224,409.831 79.5,409.5C 79.1667,406.5 77.5,404.833 74.5,404.5C 74.5,403.167 73.8333,402.5 72.5,402.5C 72.5,402.167 72.5,401.833 72.5,401.5C 72.5,400.833 72.5,400.167 72.5,399.5 Z"/></g>
<g><path style="opacity:0.225" fill="#e59acb" d="M 79.5,409.5 C 81.3224,409.831 82.9891,410.498 84.5,411.5C 84.5,413.167 84.5,414.833 84.5,416.5C 82.8958,415.713 82.2291,414.38 82.5,412.5C 81.5,412.5 80.5,412.5 79.5,412.5C 79.5,411.5 79.5,410.5 79.5,409.5 Z"/></g>
<g><path style="opacity:0.239" fill="#eea8dc" d="M 133.5,408.5 C 136.543,411.207 139.209,414.207 141.5,417.5C 140.5,417.5 139.5,417.5 138.5,417.5C 135.712,415.148 134.045,412.148 133.5,408.5 Z"/></g>
<g><path style="opacity:0.627" fill="#d355a8" d="M 444.5,395.5 C 445.161,397.134 445.494,398.967 445.5,401C 444.347,409.545 442.347,417.711 439.5,425.5C 439.5,424.5 439.5,423.5 439.5,422.5C 439.5,419.833 439.5,417.167 439.5,414.5C 439.5,413.833 439.5,413.167 439.5,412.5C 441.388,410.012 442.055,407.012 441.5,403.5C 441.5,402.5 441.5,401.5 441.5,400.5C 442.5,400.5 443.5,400.5 444.5,400.5C 444.5,398.833 444.5,397.167 444.5,395.5 Z"/></g>
<g><path style="opacity:0.009" fill="#fefffe" d="M 141.5,417.5 C 142.833,417.5 143.5,418.167 143.5,419.5C 143.5,418.167 142.833,417.5 141.5,417.5 Z"/></g>
<g><path style="opacity:0.137" fill="#ecbcd8" d="M 483.5,413.5 C 483.663,415.857 483.497,418.19 483,420.5C 482.617,421.056 482.117,421.389 481.5,421.5C 480.527,419.052 480.194,416.385 480.5,413.5C 481.5,413.5 482.5,413.5 483.5,413.5 Z"/></g>
<g><path style="opacity:0.045" fill="#fad7f0" d="M 84.5,416.5 C 85.5,416.5 86.5,416.5 87.5,416.5C 87.8308,418.322 88.4975,419.989 89.5,421.5C 86.6655,420.931 84.9988,419.264 84.5,416.5 Z"/></g>
<g><path style="opacity:0.092" fill="#fad8f1" d="M 439.5,414.5 C 439.5,417.167 439.5,419.833 439.5,422.5C 438.5,422.5 437.5,422.5 436.5,422.5C 436.018,419.169 437.018,416.503 439.5,414.5 Z"/></g>
<g><path style="opacity:0.82" fill="#d45ca6" d="M 138.5,417.5 C 139.5,417.5 140.5,417.5 141.5,417.5C 141.5,418.833 142.167,419.5 143.5,419.5C 143.5,419.833 143.5,420.167 143.5,420.5C 143.884,422.929 144.551,425.263 145.5,427.5C 141.63,425.288 139.297,421.955 138.5,417.5 Z"/></g>
<g><path style="opacity:0.054" fill="#f1b5df" d="M 143.5,420.5 C 145.47,422.348 147.47,424.348 149.5,426.5C 150.386,427.325 150.719,428.325 150.5,429.5C 148.989,428.498 147.322,427.831 145.5,427.5C 144.551,425.263 143.884,422.929 143.5,420.5 Z"/></g>
<g><path style="opacity:0.416" fill="#dd7eba" d="M 89.5,421.5 C 91.5,422.167 93.5,422.833 95.5,423.5C 96.5029,426.337 97.8362,429.003 99.5,431.5C 98.5,431.5 97.5,431.5 96.5,431.5C 96.5,430.167 95.8333,429.5 94.5,429.5C 94.5,428.5 94.5,427.5 94.5,426.5C 91.5,426.167 89.8333,424.5 89.5,421.5 Z"/></g>
<g><path style="opacity:0.127" fill="#e17dbd" d="M 436.5,422.5 C 437.5,422.5 438.5,422.5 439.5,422.5C 439.5,423.5 439.5,424.5 439.5,425.5C 438.147,429.343 437.313,433.343 437,437.5C 436.329,438.252 435.496,438.586 434.5,438.5C 434.5,436.5 434.5,434.5 434.5,432.5C 436.256,431.448 436.923,429.781 436.5,427.5C 436.5,425.833 436.5,424.167 436.5,422.5 Z"/></g>
<g><path style="opacity:0.009" fill="#fee3fe" d="M 94.5,429.5 C 95.8333,429.5 96.5,430.167 96.5,431.5C 95.1667,431.5 94.5,430.833 94.5,429.5 Z"/></g>
<g><path style="opacity:0.025" fill="#f6f2f5" d="M 436.5,427.5 C 436.923,429.781 436.256,431.448 434.5,432.5C 434.077,430.219 434.744,428.552 436.5,427.5 Z"/></g>
<g><path style="opacity:0.009" fill="#faebf5" d="M 481.5,426.5 C 481.002,429.487 480.502,432.487 480,435.5C 479.617,436.056 479.117,436.389 478.5,436.5C 478.5,436.167 478.5,435.833 478.5,435.5C 478.5,432.5 478.5,429.5 478.5,426.5C 479.5,426.5 480.5,426.5 481.5,426.5 Z"/></g>
<g><path style="opacity:0.153" fill="#f3c0e0" d="M 150.5,429.5 C 153.264,429.999 154.931,431.665 155.5,434.5C 152.5,434.167 150.833,432.5 150.5,429.5 Z"/></g>
<g><path style="opacity:0.184" fill="#efadd8" d="M 96.5,431.5 C 97.5,431.5 98.5,431.5 99.5,431.5C 99.8212,433.048 100.821,433.715 102.5,433.5C 103.833,436.5 105.167,439.5 106.5,442.5C 102.595,439.299 99.2617,435.632 96.5,431.5 Z"/></g>
<g><path style="opacity:0.149" fill="#e9aad5" d="M 155.5,436.5 C 156.5,436.5 157.5,436.5 158.5,436.5C 158.833,439.5 160.5,441.167 163.5,441.5C 163.5,442.5 163.5,443.5 163.5,444.5C 162.5,444.5 161.5,444.5 160.5,444.5C 160.179,442.952 159.179,442.285 157.5,442.5C 156.833,440.5 156.167,438.5 155.5,436.5 Z"/></g>
<g><path style="opacity:0.118" fill="#eaa7d3" d="M 478.5,435.5 C 478.5,435.833 478.5,436.167 478.5,436.5C 478.663,438.857 478.497,441.19 478,443.5C 477.617,444.056 477.117,444.389 476.5,444.5C 475.597,441.609 475.264,438.609 475.5,435.5C 476.5,435.5 477.5,435.5 478.5,435.5 Z"/></g>
<g><path style="opacity:0.088" fill="#f6ceec" d="M 434.5,439.5 C 434.5,441.167 434.5,442.833 434.5,444.5C 433.5,444.5 432.5,444.5 431.5,444.5C 431.259,441.966 432.259,440.3 434.5,439.5 Z"/></g>
<g><path style="opacity:0.009" fill="#faebf4" d="M 106.5,443.5 C 107.5,443.5 108.5,443.5 109.5,443.5C 109.5,444.5 109.5,445.5 109.5,446.5C 107.5,446.5 106.5,445.5 106.5,443.5 Z"/></g>
<g><path style="opacity:0.023" fill="#fef2f1" d="M 163.5,444.5 C 164.833,444.5 165.5,445.167 165.5,446.5C 165.5,445.167 164.833,444.5 163.5,444.5 Z"/></g>
<g><path style="opacity:0.042" fill="#f6def6" d="M 109.5,446.5 C 110.833,446.5 111.5,447.167 111.5,448.5C 110.167,448.5 109.5,447.833 109.5,446.5 Z"/></g>
<g><path style="opacity:0.013" fill="#fefffe" d="M 165.5,446.5 C 167.5,446.5 168.5,447.5 168.5,449.5C 167.5,449.5 166.5,449.5 165.5,449.5C 165.5,448.5 165.5,447.5 165.5,446.5 Z"/></g>
<g><path style="opacity:0.525" fill="#e26dad" d="M 160.5,444.5 C 161.5,444.5 162.5,444.5 163.5,444.5C 163.5,445.833 164.167,446.5 165.5,446.5C 165.5,447.5 165.5,448.5 165.5,449.5C 164.5,449.5 163.5,449.5 162.5,449.5C 162.169,447.678 161.502,446.011 160.5,444.5 Z"/></g>
<g><path style="opacity:0.009" fill="#fefffe" d="M 168.5,449.5 C 169.833,449.5 170.5,450.167 170.5,451.5C 170.5,450.167 169.833,449.5 168.5,449.5 Z"/></g>
<g><path style="opacity:0.054" fill="#f3b9e0" d="M 476.5,448.5 C 476.5,450.167 476.5,451.833 476.5,453.5C 475.5,453.5 474.5,453.5 473.5,453.5C 473.5,451.833 473.5,450.167 473.5,448.5C 474.5,448.5 475.5,448.5 476.5,448.5 Z"/></g>
<g><path style="opacity:0.365" fill="#df93c2" d="M 431.5,444.5 C 432.5,444.5 433.5,444.5 434.5,444.5C 433.032,446.916 432.365,449.583 432.5,452.5C 429.975,453.64 427.308,454.307 424.5,454.5C 427.177,451.476 429.511,448.142 431.5,444.5 Z"/></g>
<g><path style="opacity:0.439" fill="#de78bb" d="M 165.5,449.5 C 166.5,449.5 167.5,449.5 168.5,449.5C 168.5,450.833 169.167,451.5 170.5,451.5C 170.5,452.5 170.5,453.5 170.5,454.5C 169.5,454.5 168.5,454.5 167.5,454.5C 167.169,452.678 166.502,451.011 165.5,449.5 Z"/></g>
<g><path style="opacity:0.035" fill="#fbd2ed" d="M 170.5,451.5 C 171.931,452.082 173.264,452.915 174.5,454C 175.252,454.671 175.586,455.504 175.5,456.5C 173.678,456.169 172.011,455.502 170.5,454.5C 170.5,453.5 170.5,452.5 170.5,451.5 Z"/></g>
<g><path style="opacity:0.933" fill="#d3489c" d="M 485.5,399.5 C 485.5,400.167 485.5,400.833 485.5,401.5C 483.612,403.988 482.945,406.988 483.5,410.5C 483.5,411.5 483.5,412.5 483.5,413.5C 482.5,413.5 481.5,413.5 480.5,413.5C 480.194,416.385 480.527,419.052 481.5,421.5C 481.5,423.167 481.5,424.833 481.5,426.5C 480.5,426.5 479.5,426.5 478.5,426.5C 478.5,429.5 478.5,432.5 478.5,435.5C 477.5,435.5 476.5,435.5 475.5,435.5C 475.264,438.609 475.597,441.609 476.5,444.5C 476.5,445.833 476.5,447.167 476.5,448.5C 475.5,448.5 474.5,448.5 473.5,448.5C 473.5,450.167 473.5,451.833 473.5,453.5C 473.5,454.167 473.5,454.833 473.5,455.5C 472.5,455.5 471.5,455.5 470.5,455.5C 470.325,457.621 470.659,459.621 471.5,461.5C 471.5,462.167 471.5,462.833 471.5,463.5C 470.5,463.5 469.5,463.5 468.5,463.5C 468.5,464.5 468.5,465.5 468.5,466.5C 468.5,466.833 468.5,467.167 468.5,467.5C 467.5,467.5 466.5,467.5 465.5,467.5C 464.551,469.737 463.884,472.071 463.5,474.5C 463.5,474.833 463.5,475.167 463.5,475.5C 461.952,475.821 461.285,476.821 461.5,478.5C 459.821,478.285 458.821,478.952 458.5,480.5C 457.5,480.5 456.5,480.5 455.5,480.5C 458.398,476.382 461.065,472.049 463.5,467.5C 464.524,466.147 465.857,465.48 467.5,465.5C 469.001,458.494 470.668,451.494 472.5,444.5C 473.086,444.291 473.586,443.957 474,443.5C 474.43,435.714 475.597,428.047 477.5,420.5C 478.086,420.291 478.586,419.957 479,419.5C 479.557,412.569 480.724,405.902 482.5,399.5C 483.5,399.5 484.5,399.5 485.5,399.5 Z"/></g>
<g><path style="opacity:0.225" fill="#e698cb" d="M 111.5,448.5 C 116.718,449.647 119.385,452.98 119.5,458.5C 118.5,458.5 117.5,458.5 116.5,458.5C 116.989,454.513 115.322,452.18 111.5,451.5C 111.5,450.5 111.5,449.5 111.5,448.5 Z"/></g>
<g><path style="opacity:0.005" fill="#fefffe" d="M 424.5,454.5 C 424.5,455.833 423.833,456.5 422.5,456.5C 422.5,455.167 423.167,454.5 424.5,454.5 Z"/></g>
<g><path style="opacity:0.006" fill="#fcf5fa" d="M 177.5,456.5 C 179.38,456.229 180.713,456.896 181.5,458.5C 179.517,458.843 178.183,458.176 177.5,456.5 Z"/></g>
<g><path style="opacity:0.251" fill="#e790c5" d="M 473.5,455.5 C 473.975,458.082 473.308,460.082 471.5,461.5C 470.659,459.621 470.325,457.621 470.5,455.5C 471.5,455.5 472.5,455.5 473.5,455.5 Z"/></g>
<g><path style="opacity:0.067" fill="#db7ab7" d="M 170.5,454.5 C 172.011,455.502 173.678,456.169 175.5,456.5C 176.167,456.5 176.833,456.5 177.5,456.5C 178.183,458.176 179.517,458.843 181.5,458.5C 182.5,458.5 183.5,458.5 184.5,458.5C 184.5,459.5 184.5,460.5 184.5,461.5C 179.893,459.993 175.226,458.66 170.5,457.5C 170.5,456.5 170.5,455.5 170.5,454.5 Z"/></g>
<g><path style="opacity:0.077" fill="#efd6ed" d="M 417.5,458.5 C 417.5,459.5 417.5,460.5 417.5,461.5C 415.833,461.5 414.167,461.5 412.5,461.5C 413.048,458.916 414.715,457.916 417.5,458.5 Z"/></g>
<g><path style="opacity:0.004" fill="#fefdfe" d="M 184.5,458.5 C 188.804,459.131 193.137,459.631 197.5,460C 263.68,460.821 329.846,460.655 396,459.5C 399.376,459.807 402.543,460.474 405.5,461.5C 332.833,461.5 260.167,461.5 187.5,461.5C 186.5,461.5 185.5,461.5 184.5,461.5C 184.5,460.5 184.5,459.5 184.5,458.5 Z"/></g>
<g><path style="opacity:0.378" fill="#e6a0cd" d="M 422.5,456.5 C 422.5,457.5 422.5,458.5 422.5,459.5C 420.678,459.831 419.011,460.498 417.5,461.5C 417.5,460.5 417.5,459.5 417.5,458.5C 418.82,457.058 420.486,456.392 422.5,456.5 Z"/></g>
<g><path style="opacity:0.135" fill="#f0bce0" d="M 119.5,458.5 C 121.011,459.502 122.678,460.169 124.5,460.5C 124.285,462.179 124.952,463.179 126.5,463.5C 126.5,464.5 126.5,465.5 126.5,466.5C 124.272,465.287 122.272,463.62 120.5,461.5C 119.614,460.675 119.281,459.675 119.5,458.5 Z"/></g>
<g><path style="opacity:0.071" fill="#edbddb" d="M 471.5,463.5 C 471.5,464.5 471.5,465.5 471.5,466.5C 470.5,466.5 469.5,466.5 468.5,466.5C 468.5,465.5 468.5,464.5 468.5,463.5C 469.5,463.5 470.5,463.5 471.5,463.5 Z"/></g>
<g><path style="opacity:0.178" fill="#dc78b7" d="M 126.5,463.5 C 129.272,466.49 131.605,469.823 133.5,473.5C 132.833,473.5 132.167,473.5 131.5,473.5C 131.179,471.952 130.179,471.285 128.5,471.5C 128.169,469.678 127.502,468.011 126.5,466.5C 126.5,465.5 126.5,464.5 126.5,463.5 Z"/></g>
<g><path style="opacity:0.014" fill="#feedfe" d="M 128.5,471.5 C 130.179,471.285 131.179,471.952 131.5,473.5C 129.973,473.573 128.973,472.906 128.5,471.5 Z"/></g>
<g><path style="opacity:0.12" fill="#e79ecb" d="M 468.5,467.5 C 468.396,470.939 466.73,473.272 463.5,474.5C 463.884,472.071 464.551,469.737 465.5,467.5C 466.5,467.5 467.5,467.5 468.5,467.5 Z"/></g>
<g><path style="opacity:0.069" fill="#f5cce9" d="M 131.5,473.5 C 132.167,473.5 132.833,473.5 133.5,473.5C 133.833,473.5 134.167,473.5 134.5,473.5C 135.502,475.011 136.169,476.678 136.5,478.5C 135.761,478.631 135.094,478.464 134.5,478C 133.252,476.6 132.252,475.1 131.5,473.5 Z"/></g>
<g><path style="opacity:0.014" fill="#ede2f7" d="M 463.5,475.5 C 463.715,477.179 463.048,478.179 461.5,478.5C 461.285,476.821 461.952,475.821 463.5,475.5 Z"/></g>
<g><path style="opacity:0.009" fill="#fefffe" d="M 136.5,478.5 C 137.833,478.5 138.5,479.167 138.5,480.5C 138.5,479.167 137.833,478.5 136.5,478.5 Z"/></g>
<g><path style="opacity:0.047" fill="#f0dce9" d="M 461.5,478.5 C 461.179,480.048 460.179,480.715 458.5,480.5C 458.821,478.952 459.821,478.285 461.5,478.5 Z"/></g>
<g><path style="opacity:0.161" fill="#f3bbda" d="M 455.5,480.5 C 456.5,480.5 457.5,480.5 458.5,480.5C 458.167,483.5 456.5,485.167 453.5,485.5C 453.831,483.678 454.498,482.011 455.5,480.5 Z"/></g>
<g><path style="opacity:0.459" fill="#d978b3" d="M 134.5,473.5 C 138.537,474.038 140.871,476.372 141.5,480.5C 144.833,481.833 148.167,483.167 151.5,484.5C 152.167,486.5 152.833,488.5 153.5,490.5C 151.989,489.498 150.322,488.831 148.5,488.5C 148.715,486.821 148.048,485.821 146.5,485.5C 143.51,484.339 140.843,482.672 138.5,480.5C 138.5,479.167 137.833,478.5 136.5,478.5C 136.169,476.678 135.502,475.011 134.5,473.5 Z"/></g>
<g><path style="opacity:0.018" fill="#feedfe" d="M 146.5,485.5 C 148.048,485.821 148.715,486.821 148.5,488.5C 146.952,488.179 146.285,487.179 146.5,485.5 Z"/></g>
<g><path style="opacity:0.036" fill="#ebe3f5" d="M 448.5,488.5 C 448.5,489.833 447.833,490.5 446.5,490.5C 446.5,489.167 447.167,488.5 448.5,488.5 Z"/></g>
<g><path style="opacity:0.28" fill="#ec96cd" d="M 154.5,490.5 C 157.833,491.167 161.167,491.833 164.5,492.5C 164.5,493.5 164.5,494.5 164.5,495.5C 161.252,495.584 158.252,494.751 155.5,493C 154.748,492.329 154.414,491.496 154.5,490.5 Z"/></g>
<g><path style="opacity:0.541" fill="#dd75b4" d="M 452.5,485.5 C 451.952,487.532 450.619,488.532 448.5,488.5C 447.167,488.5 446.5,489.167 446.5,490.5C 445.078,490.75 444.078,491.583 443.5,493C 440.632,494.383 437.632,495.216 434.5,495.5C 433.5,495.5 432.5,495.5 431.5,495.5C 431.5,496.5 431.5,497.5 431.5,498.5C 429.585,498.216 427.919,498.549 426.5,499.5C 422.5,499.5 418.5,499.5 414.5,499.5C 414.611,498.883 414.944,498.383 415.5,498C 419.211,497.825 422.878,497.325 426.5,496.5C 426.709,495.914 427.043,495.414 427.5,495C 432.892,493.59 438.225,492.09 443.5,490.5C 443.5,489.5 443.5,488.5 443.5,487.5C 446.436,486.594 449.436,485.928 452.5,485.5 Z"/></g>
<g><path style="opacity:0.221" fill="#ebadd0" d="M 165.5,495.5 C 167.5,495.5 169.5,495.5 171.5,495.5C 171.5,496.5 171.5,497.5 171.5,498.5C 169.801,498.66 168.134,498.494 166.5,498C 165.748,497.329 165.414,496.496 165.5,495.5 Z"/></g>
<g><path style="opacity:0.055" fill="#f0cbf0" d="M 434.5,495.5 C 434.5,496.5 434.5,497.5 434.5,498.5C 433.5,498.5 432.5,498.5 431.5,498.5C 431.5,497.5 431.5,496.5 431.5,495.5C 432.5,495.5 433.5,495.5 434.5,495.5 Z"/></g>
<g><path style="opacity:0.667" fill="#e38dc5" d="M 183.5,499.5 C 180.833,499.5 178.167,499.5 175.5,499.5C 175.5,499.167 175.5,498.833 175.5,498.5C 178.615,496.823 181.282,497.156 183.5,499.5 Z"/></g>
</svg>
