<?xml version="1.0" encoding="UTF-8"?>
<!DOCTYPE svg PUBLIC "-//W3C//DTD SVG 1.1//EN" "http://www.w3.org/Graphics/SVG/1.1/DTD/svg11.dtd">
<svg xmlns="http://www.w3.org/2000/svg" version="1.1" width="500px" height="500px" style="shape-rendering:geometricPrecision; text-rendering:geometricPrecision; image-rendering:optimizeQuality; fill-rule:evenodd; clip-rule:evenodd" xmlns:xlink="http://www.w3.org/1999/xlink">
<g><path style="opacity:0.967" fill="#fefffe" d="M 298.5,47.5 C 318.503,47.3334 338.503,47.5 358.5,48C 372.209,50.0416 380.375,57.875 383,71.5C 383.5,85.1626 383.667,98.8293 383.5,112.5C 398.17,112.333 412.837,112.5 427.5,113C 438.211,116.376 444.711,123.543 447,134.5C 447.667,156.5 447.667,178.5 447,200.5C 444.158,211.342 437.325,218.175 426.5,221C 412.171,221.5 397.837,221.667 383.5,221.5C 383.667,235.504 383.5,249.504 383,263.5C 380.585,274.914 373.752,282.081 362.5,285C 339.167,285.667 315.833,285.667 292.5,285C 282.828,281.328 276.661,274.494 274,264.5C 273.5,250.171 273.333,235.837 273.5,221.5C 258.83,221.667 244.163,221.5 229.5,221C 219.226,217.727 212.726,210.894 210,200.5C 209.333,177.833 209.333,155.167 210,132.5C 213.167,122.667 219.667,116.167 229.5,113C 244.163,112.5 258.83,112.333 273.5,112.5C 273.063,96.7757 273.563,81.1091 275,65.5C 279.604,55.0385 287.437,49.0385 298.5,47.5 Z M 299.5,69.5 C 319.592,69.0241 339.592,69.5241 359.5,71C 360,71.5 360.5,72 361,72.5C 361.024,92.2562 361.691,111.923 363,131.5C 363.75,132.126 364.584,132.626 365.5,133C 384.167,133.333 402.833,133.667 421.5,134C 422.931,134.465 424.097,135.299 425,136.5C 425.821,156.877 425.655,177.21 424.5,197.5C 423.335,198.584 422.002,199.417 420.5,200C 401.41,200.025 382.41,200.691 363.5,202C 362.874,202.75 362.374,203.584 362,204.5C 361.667,223.167 361.333,241.833 361,260.5C 359.992,262.259 358.492,263.426 356.5,264C 336.768,264.963 317.102,264.63 297.5,263C 296.874,262.25 296.374,261.416 296,260.5C 295.667,242.167 295.333,223.833 295,205.5C 294.426,203.508 293.259,202.008 291.5,201C 273.167,200.667 254.833,200.333 236.5,200C 234.671,199.727 233.171,198.893 232,197.5C 231.333,177.167 231.333,156.833 232,136.5C 232.903,135.299 234.069,134.465 235.5,134C 254.167,133.667 272.833,133.333 291.5,133C 293.049,131.786 294.215,130.286 295,128.5C 295.333,109.833 295.667,91.1667 296,72.5C 297.145,71.3636 298.312,70.3636 299.5,69.5 Z"/></g>
<g><path style="opacity:0.961" fill="#fefffe" d="M 122.5,209.5 C 137.504,209.333 152.504,209.5 167.5,210C 178.42,212.588 184.92,219.421 187,230.5C 187.5,240.494 187.666,250.494 187.5,260.5C 198.172,260.333 208.839,260.5 219.5,261C 228.237,263.404 234.071,268.904 237,277.5C 239,294.167 239,310.833 237,327.5C 234.071,336.096 228.237,341.596 219.5,344C 208.878,345.312 198.211,345.812 187.5,345.5C 187.666,355.172 187.5,364.839 187,374.5C 184.939,385.561 178.439,392.394 167.5,395C 152.167,395.667 136.833,395.667 121.5,395C 111.557,392.058 105.391,385.558 103,375.5C 102.5,365.506 102.334,355.506 102.5,345.5C 91.7892,345.812 81.1225,345.312 70.5,344C 61.7372,341.57 55.9038,336.07 53,327.5C 51.8974,319.225 51.3974,310.892 51.5,302.5C 51.6667,295.5 51.8333,288.5 52,281.5C 53.9515,270.881 60.1181,264.048 70.5,261C 81.1615,260.5 91.8281,260.333 102.5,260.5C 102.334,250.161 102.5,239.828 103,229.5C 105.691,218.977 112.191,212.31 122.5,209.5 Z M 126.5,231.5 C 138.838,231.333 151.171,231.5 163.5,232C 164,232.5 164.5,233 165,233.5C 165.333,248.167 165.667,262.833 166,277.5C 166.833,278.5 167.667,279.5 168.5,280.5C 183.122,281.317 197.789,281.817 212.5,282C 213.931,282.465 215.097,283.299 216,284.5C 216.667,296.5 216.667,308.5 216,320.5C 215.692,321.308 215.192,321.975 214.5,322.5C 199.545,323.318 184.545,323.818 169.5,324C 168.667,324.833 167.833,325.667 167,326.5C 165.698,341.407 165.032,356.407 165,371.5C 164.5,372 164,372.5 163.5,373C 150.591,373.822 137.758,373.655 125,372.5C 124.667,357.833 124.333,343.167 124,328.5C 123.215,326.714 122.049,325.214 120.5,324C 105.833,323.667 91.1667,323.333 76.5,323C 75.3333,322.5 74.5,321.667 74,320.5C 73.1869,308.121 73.3536,295.787 74.5,283.5C 75.376,282.749 76.376,282.249 77.5,282C 91.8333,281.667 106.167,281.333 120.5,281C 121.333,280.167 122.167,279.333 123,278.5C 124.302,263.593 124.968,248.593 125,233.5C 125.717,232.956 126.217,232.289 126.5,231.5 Z"/></g>
<g><path style="opacity:0.962" fill="#fefffe" d="M 292.5,321.5 C 305.171,321.333 317.838,321.5 330.5,322C 343.45,327.055 348.784,336.555 346.5,350.5C 370.509,350.526 380.509,362.526 376.5,386.5C 376.333,392.5 376.167,398.5 376,404.5C 370.894,417.98 361.061,423.646 346.5,421.5C 349.113,437.344 342.779,447.177 327.5,451C 316.833,451.667 306.167,451.667 295.5,451C 280.221,447.177 273.887,437.344 276.5,421.5C 261.939,423.646 252.106,417.98 247,404.5C 246.333,392.5 246.333,380.5 247,368.5C 248.975,360.523 253.808,355.023 261.5,352C 266.448,350.95 271.448,350.45 276.5,350.5C 274.343,336.465 279.677,326.798 292.5,321.5 Z M 297.5,343.5 C 306.833,343.5 316.167,343.5 325.5,343.5C 325.334,352.173 325.5,360.84 326,369.5C 326.903,370.701 328.069,371.535 329.5,372C 337.827,372.5 346.16,372.666 354.5,372.5C 354.5,381.5 354.5,390.5 354.5,399.5C 345.724,399.059 337.058,399.559 328.5,401C 327.667,401.833 326.833,402.667 326,403.5C 325.667,411.833 325.333,420.167 325,428.5C 316,429.833 307,429.833 298,428.5C 297.667,420.167 297.333,411.833 297,403.5C 296.167,402.667 295.333,401.833 294.5,401C 285.942,399.559 277.276,399.059 268.5,399.5C 268.5,390.5 268.5,381.5 268.5,372.5C 277.608,372.943 286.608,372.443 295.5,371C 296,370.5 296.5,370 297,369.5C 297.5,360.84 297.666,352.173 297.5,343.5 Z"/></g>
</svg>
