<?xml version="1.0" encoding="UTF-8"?>
<!DOCTYPE svg PUBLIC "-//W3C//DTD SVG 1.1//EN" "http://www.w3.org/Graphics/SVG/1.1/DTD/svg11.dtd">
<svg xmlns="http://www.w3.org/2000/svg" version="1.1" width="50px" height="50px" style="shape-rendering:geometricPrecision; text-rendering:geometricPrecision; image-rendering:optimizeQuality; fill-rule:evenodd; clip-rule:evenodd" xmlns:xlink="http://www.w3.org/1999/xlink">
<g><path style="opacity:1" fill="#fdfcfc" d="M -0.5,-0.5 C 5.83333,-0.5 12.1667,-0.5 18.5,-0.5C 16.7392,0.312714 15.0725,1.31271 13.5,2.5C 8.91079,4.12432 5.57746,7.12432 3.5,11.5C 2.32627,12.5137 1.6596,13.847 1.5,15.5C 0.833333,16.5 0.166667,17.5 -0.5,18.5C -0.5,12.1667 -0.5,5.83333 -0.5,-0.5 Z"/></g>
<g><path style="opacity:1" fill="#fcfbfc" d="M 29.5,-0.5 C 36.1667,-0.5 42.8333,-0.5 49.5,-0.5C 49.5,5.83333 49.5,12.1667 49.5,18.5C 48.8333,17.5 48.1667,16.5 47.5,15.5C 47.4431,14.391 47.1098,13.391 46.5,12.5C 44.087,7.75218 40.4204,4.41885 35.5,2.5C 33.5,1.5 31.5,0.5 29.5,-0.5 Z"/></g>
<g><path style="opacity:1" fill="#44395a" d="M 18.5,-0.5 C 22.1667,-0.5 25.8333,-0.5 29.5,-0.5C 31.5,0.5 33.5,1.5 35.5,2.5C 36.4938,5.15691 37.4938,7.82358 38.5,10.5C 37.8333,10.8333 37.1667,11.1667 36.5,11.5C 35.9532,8.78777 34.2865,7.28777 31.5,7C 25.9972,5.08296 20.3306,4.24963 14.5,4.5C 14.1667,3.83333 13.8333,3.16667 13.5,2.5C 15.0725,1.31271 16.7392,0.312714 18.5,-0.5 Z"/></g>
<g><path style="opacity:1" fill="#b64e7f" d="M 35.5,2.5 C 40.4204,4.41885 44.087,7.75218 46.5,12.5C 43.1167,14.2278 40.45,13.5612 38.5,10.5C 37.4938,7.82358 36.4938,5.15691 35.5,2.5 Z"/></g>
<g><path style="opacity:1" fill="#443044" d="M 3.5,11.5 C 6.68673,14.4105 7.18673,17.7438 5,21.5C 4.50776,20.451 4.67443,19.451 5.5,18.5C 4.67504,17.6143 3.67504,17.281 2.5,17.5C 1.66175,17.1583 1.32842,16.4916 1.5,15.5C 1.6596,13.847 2.32627,12.5137 3.5,11.5 Z"/></g>
<g><path style="opacity:1" fill="#a46e6d" d="M 20.5,8.5 C 24.1817,8.3347 27.8484,8.50137 31.5,9C 31.9574,9.41395 32.2907,9.91395 32.5,10.5C 28.5161,12.8341 24.1828,14.1674 19.5,14.5C 19.2069,17.7543 19.8736,20.7543 21.5,23.5C 20.8333,23.5 20.1667,23.5 19.5,23.5C 18.4479,21.744 16.7812,21.0773 14.5,21.5C 15.5676,20.5655 16.901,20.2322 18.5,20.5C 18.5,17.5 18.5,14.5 18.5,11.5C 20.9686,10.6829 23.6353,10.1829 26.5,10C 24.2922,9.80912 22.2922,9.30912 20.5,8.5 Z"/></g>
<g><path style="opacity:1" fill="#684257" d="M 14.5,4.5 C 20.3306,4.24963 25.9972,5.08296 31.5,7C 34.2865,7.28777 35.9532,8.78777 36.5,11.5C 35.0654,12.8241 34.0654,14.4908 33.5,16.5C 35.3932,19.6182 36.7265,22.9516 37.5,26.5C 38.9501,25.1502 39.6168,23.4835 39.5,21.5C 40.5,21.5 41.5,21.5 42.5,21.5C 42.6747,23.6208 42.3414,25.6208 41.5,27.5C 39.8361,28.7432 38.6695,30.4098 38,32.5C 37.6667,31.5 37.3333,30.5 37,29.5C 35.9887,30.3366 34.8221,30.67 33.5,30.5C 34.2565,28.7334 34.9231,26.9001 35.5,25C 35.1639,23.9701 34.4972,23.4701 33.5,23.5C 32.1667,23.5 30.8333,23.5 29.5,23.5C 29.1667,23.5 28.8333,23.5 28.5,23.5C 29.1834,21.8235 30.5168,21.1568 32.5,21.5C 31.0716,11.8233 29.2383,11.49 27,20.5C 25.4815,21.1634 24.3149,22.1634 23.5,23.5C 22.8333,23.5 22.1667,23.5 21.5,23.5C 19.8736,20.7543 19.2069,17.7543 19.5,14.5C 24.1828,14.1674 28.5161,12.8341 32.5,10.5C 32.2907,9.91395 31.9574,9.41395 31.5,9C 27.8484,8.50137 24.1817,8.3347 20.5,8.5C 18.1475,7.65974 16.1475,6.3264 14.5,4.5 Z"/></g>
<g><path style="opacity:1" fill="#e8d0bb" d="M 18.5,11.5 C 18.5,14.5 18.5,17.5 18.5,20.5C 16.901,20.2322 15.5676,20.5655 14.5,21.5C 13.9035,20.0646 13.9035,18.398 14.5,16.5C 15.8333,14.8333 17.1667,13.1667 18.5,11.5 Z"/></g>
<g><path style="opacity:1" fill="#cb9b90" d="M 28.5,23.5 C 26.9008,22.438 25.2341,22.438 23.5,23.5C 24.3149,22.1634 25.4815,21.1634 27,20.5C 29.2383,11.49 31.0716,11.8233 32.5,21.5C 30.5168,21.1568 29.1834,21.8235 28.5,23.5 Z"/></g>
<g><path style="opacity:1" fill="#356286" d="M 47.5,15.5 C 48.1667,16.5 48.8333,17.5 49.5,18.5C 49.5,22.1667 49.5,25.8333 49.5,29.5C 49.1667,29.5 48.8333,29.5 48.5,29.5C 46.5832,27.2252 45.5832,24.5585 45.5,21.5C 45.87,19.3327 46.5367,17.3327 47.5,15.5 Z"/></g>
<g><path style="opacity:1" fill="#6a9ba9" d="M 1.5,15.5 C 1.32842,16.4916 1.66175,17.1583 2.5,17.5C 1.50596,19.3344 1.50596,21.0011 2.5,22.5C 1.73685,24.3684 0.736849,26.0351 -0.5,27.5C -0.5,24.5 -0.5,21.5 -0.5,18.5C 0.166667,17.5 0.833333,16.5 1.5,15.5 Z"/></g>
<g><path style="opacity:1" fill="#a91e22" d="M 29.5,23.5 C 30.8333,23.5 32.1667,23.5 33.5,23.5C 32.8166,25.1765 31.4832,25.8432 29.5,25.5C 29.5,24.8333 29.5,24.1667 29.5,23.5 Z"/></g>
<g><path style="opacity:1" fill="#c18b88" d="M 13.5,2.5 C 13.8333,3.16667 14.1667,3.83333 14.5,4.5C 16.1475,6.3264 18.1475,7.65974 20.5,8.5C 22.2922,9.30912 24.2922,9.80912 26.5,10C 23.6353,10.1829 20.9686,10.6829 18.5,11.5C 17.1667,13.1667 15.8333,14.8333 14.5,16.5C 13.4479,14.744 11.7812,14.0773 9.5,14.5C 9.14857,19.0118 9.81523,23.3451 11.5,27.5C 12.1757,26.3984 12.8423,25.3984 13.5,24.5C 14.1667,27.1667 14.8333,29.8333 15.5,32.5C 14.5178,31.8592 13.5178,31.1925 12.5,30.5C 11.5147,32.772 10.6813,35.1053 10,37.5C 8.69195,34.2698 7.69195,30.9364 7,27.5C 6.05127,25.9069 4.88461,24.5736 3.5,23.5C 3.44367,20.483 3.11034,20.1497 2.5,22.5C 1.50596,21.0011 1.50596,19.3344 2.5,17.5C 3.67504,17.281 4.67504,17.6143 5.5,18.5C 4.67443,19.451 4.50776,20.451 5,21.5C 7.18673,17.7438 6.68673,14.4105 3.5,11.5C 5.57746,7.12432 8.91079,4.12432 13.5,2.5 Z"/></g>
<g><path style="opacity:1" fill="#7c4c56" d="M 14.5,16.5 C 13.9035,18.398 13.9035,20.0646 14.5,21.5C 16.7812,21.0773 18.4479,21.744 19.5,23.5C 17.8333,23.5 16.1667,23.5 14.5,23.5C 13.8333,23.5 13.5,23.8333 13.5,24.5C 12.8423,25.3984 12.1757,26.3984 11.5,27.5C 9.81523,23.3451 9.14857,19.0118 9.5,14.5C 11.7812,14.0773 13.4479,14.744 14.5,16.5 Z"/></g>
<g><path style="opacity:1" fill="#faf0d3" d="M 29.5,25.5 C 31.0124,27.1914 32.0124,29.1914 32.5,31.5C 31.1032,33.3793 29.4365,35.0459 27.5,36.5C 24.8684,38.0635 22.5351,37.7301 20.5,35.5C 19.5084,35.6716 18.8417,35.3382 18.5,34.5C 19.5695,31.74 20.5695,28.9067 21.5,26C 24.1637,24.487 26.8304,24.3204 29.5,25.5 Z"/></g>
<g><path style="opacity:1" fill="#291f40" d="M 38.5,10.5 C 40.45,13.5612 43.1167,14.2278 46.5,12.5C 47.1098,13.391 47.4431,14.391 47.5,15.5C 46.5367,17.3327 45.87,19.3327 45.5,21.5C 45.5832,24.5585 46.5832,27.2252 48.5,29.5C 47.9767,34.8843 45.6434,39.2176 41.5,42.5C 41.1961,41.8501 40.8627,41.1835 40.5,40.5C 42.0785,36.4907 43.0785,32.324 43.5,28C 42.9056,27.5357 42.2389,27.369 41.5,27.5C 42.3414,25.6208 42.6747,23.6208 42.5,21.5C 41.5,21.5 40.5,21.5 39.5,21.5C 39.6168,23.4835 38.9501,25.1502 37.5,26.5C 36.7265,22.9516 35.3932,19.6182 33.5,16.5C 34.0654,14.4908 35.0654,12.8241 36.5,11.5C 37.1667,11.1667 37.8333,10.8333 38.5,10.5 Z"/></g>
<g><path style="opacity:1" fill="#f3d6bf" d="M 28.5,23.5 C 28.8333,23.5 29.1667,23.5 29.5,23.5C 29.5,24.1667 29.5,24.8333 29.5,25.5C 26.8304,24.3204 24.1637,24.487 21.5,26C 20.5695,28.9067 19.5695,31.74 18.5,34.5C 16.9731,34.573 15.9731,33.9063 15.5,32.5C 14.8333,29.8333 14.1667,27.1667 13.5,24.5C 13.5,23.8333 13.8333,23.5 14.5,23.5C 14.7911,24.6491 15.6244,25.3158 17,25.5C 18.3756,25.3158 19.2089,24.6491 19.5,23.5C 20.1667,23.5 20.8333,23.5 21.5,23.5C 22.1667,23.5 22.8333,23.5 23.5,23.5C 25.2341,22.438 26.9008,22.438 28.5,23.5 Z"/></g>
<g><path style="opacity:1" fill="#c6312b" d="M 14.5,23.5 C 16.1667,23.5 17.8333,23.5 19.5,23.5C 19.2089,24.6491 18.3756,25.3158 17,25.5C 15.6244,25.3158 14.7911,24.6491 14.5,23.5 Z"/></g>
<g><path style="opacity:1" fill="#eba39c" d="M 33.5,23.5 C 34.4972,23.4701 35.1639,23.9701 35.5,25C 34.9231,26.9001 34.2565,28.7334 33.5,30.5C 33.5,31.1667 33.1667,31.5 32.5,31.5C 32.0124,29.1914 31.0124,27.1914 29.5,25.5C 31.4832,25.8432 32.8166,25.1765 33.5,23.5 Z"/></g>
<g><path style="opacity:1" fill="#f6f4f3" d="M 3.5,23.5 C 2.7878,25.9279 1.7878,28.2612 0.5,30.5C 1.8191,35.1446 4.15243,39.1446 7.5,42.5C 11.6577,46.7468 16.6577,49.0802 22.5,49.5C 14.8333,49.5 7.16667,49.5 -0.5,49.5C -0.5,42.1667 -0.5,34.8333 -0.5,27.5C 0.736849,26.0351 1.73685,24.3684 2.5,22.5C 3.11034,20.1497 3.44367,20.483 3.5,23.5 Z"/></g>
<g><path style="opacity:1" fill="#f9f9fb" d="M 48.5,29.5 C 48.8333,29.5 49.1667,29.5 49.5,29.5C 49.5,36.1667 49.5,42.8333 49.5,49.5C 41.8333,49.5 34.1667,49.5 26.5,49.5C 32.2875,48.9019 37.2875,46.5685 41.5,42.5C 45.6434,39.2176 47.9767,34.8843 48.5,29.5 Z"/></g>
<g><path style="opacity:1" fill="#1c1433" d="M 41.5,27.5 C 42.2389,27.369 42.9056,27.5357 43.5,28C 43.0785,32.324 42.0785,36.4907 40.5,40.5C 40.8627,41.1835 41.1961,41.8501 41.5,42.5C 38.4781,42.196 35.4781,41.696 32.5,41C 32.0257,39.2714 31.0257,38.1047 29.5,37.5C 29.1583,36.6618 28.4916,36.3284 27.5,36.5C 29.4365,35.0459 31.1032,33.3793 32.5,31.5C 33.1667,31.5 33.5,31.1667 33.5,30.5C 34.8221,30.67 35.9887,30.3366 37,29.5C 37.3333,30.5 37.6667,31.5 38,32.5C 38.6695,30.4098 39.8361,28.7432 41.5,27.5 Z"/></g>
<g><path style="opacity:1" fill="#b13d48" d="M 20.5,35.5 C 22.5351,37.7301 24.8684,38.0635 27.5,36.5C 28.4916,36.3284 29.1583,36.6618 29.5,37.5C 27.5979,38.3679 25.7645,39.3679 24,40.5C 22.3576,40.0222 21.1909,39.0222 20.5,37.5C 20.5,36.8333 20.5,36.1667 20.5,35.5 Z"/></g>
<g><path style="opacity:1" fill="#332a46" d="M 3.5,23.5 C 4.88461,24.5736 6.05127,25.9069 7,27.5C 7.69195,30.9364 8.69195,34.2698 10,37.5C 10.6813,35.1053 11.5147,32.772 12.5,30.5C 13.5178,31.1925 14.5178,31.8592 15.5,32.5C 15.9731,33.9063 16.9731,34.573 18.5,34.5C 18.8417,35.3382 19.5084,35.6716 20.5,35.5C 20.5,36.1667 20.5,36.8333 20.5,37.5C 16.8093,40.4998 12.476,42.1665 7.5,42.5C 4.15243,39.1446 1.8191,35.1446 0.5,30.5C 1.7878,28.2612 2.7878,25.9279 3.5,23.5 Z"/></g>
<g><path style="opacity:1" fill="#a7a6c5" d="M 20.5,37.5 C 21.1909,39.0222 22.3576,40.0222 24,40.5C 25.7645,39.3679 27.5979,38.3679 29.5,37.5C 31.0257,38.1047 32.0257,39.2714 32.5,41C 35.4781,41.696 38.4781,42.196 41.5,42.5C 37.2875,46.5685 32.2875,48.9019 26.5,49.5C 26.1667,49.5 25.8333,49.5 25.5,49.5C 25.4802,47.857 26.1468,46.5237 27.5,45.5C 24.9868,41.5366 22.6535,41.7033 20.5,46C 22.0629,46.7589 23.0629,47.9256 23.5,49.5C 23.1667,49.5 22.8333,49.5 22.5,49.5C 16.6577,49.0802 11.6577,46.7468 7.5,42.5C 12.476,42.1665 16.8093,40.4998 20.5,37.5 Z"/></g>
<g><path style="opacity:1" fill="#1f2047" d="M 25.5,49.5 C 24.8333,49.5 24.1667,49.5 23.5,49.5C 23.0629,47.9256 22.0629,46.7589 20.5,46C 22.6535,41.7033 24.9868,41.5366 27.5,45.5C 26.1468,46.5237 25.4802,47.857 25.5,49.5 Z"/></g>
</svg>
