<?xml version="1.0" encoding="UTF-8"?>
<!DOCTYPE svg PUBLIC "-//W3C//DTD SVG 1.1//EN" "http://www.w3.org/Graphics/SVG/1.1/DTD/svg11.dtd">
<svg xmlns="http://www.w3.org/2000/svg" version="1.1" width="500px" height="500px" style="shape-rendering:geometricPrecision; text-rendering:geometricPrecision; image-rendering:optimizeQuality; fill-rule:evenodd; clip-rule:evenodd" xmlns:xlink="http://www.w3.org/1999/xlink">
<g><path style="opacity:1" fill="#885892" d="M -0.5,-0.5 C 22.5,-0.5 45.5,-0.5 68.5,-0.5C 64.2522,1.39421 59.9189,3.22754 55.5,5C 44.2864,6.79957 33.6197,10.1329 23.5,15C 16.8333,21 10.1667,27 3.5,33C 2.20677,33.49 0.873441,33.6567 -0.5,33.5C -0.5,22.1667 -0.5,10.8333 -0.5,-0.5 Z"/></g>
<g><path style="opacity:1" fill="#7f4d89" d="M 68.5,-0.5 C 106.833,-0.5 145.167,-0.5 183.5,-0.5C 177.787,5.87807 172.453,12.5447 167.5,19.5C 165.5,19.5 163.5,19.5 161.5,19.5C 146.485,19.1673 131.485,19.5007 116.5,20.5C 114.874,21.9905 113.208,23.4905 111.5,25C 99.864,26.6147 88.1973,27.948 76.5,29C 67.5287,31.5067 58.862,34.6734 50.5,38.5C 45.2884,39.195 40.4551,40.8616 36,43.5C 36.0517,54.084 34.2184,64.4173 30.5,74.5C 27.2558,73.5371 24.2558,72.2038 21.5,70.5C 22.5735,69.7494 22.7401,68.7494 22,67.5C 19.4634,64.628 16.6301,62.128 13.5,60C 8.51048,59.9642 3.84381,58.7976 -0.5,56.5C -0.5,48.8333 -0.5,41.1667 -0.5,33.5C 0.873441,33.6567 2.20677,33.49 3.5,33C 10.1667,27 16.8333,21 23.5,15C 33.6197,10.1329 44.2864,6.79957 55.5,5C 59.9189,3.22754 64.2522,1.39421 68.5,-0.5 Z"/></g>
<g><path style="opacity:1" fill="#080507" d="M 183.5,-0.5 C 186.5,-0.5 189.5,-0.5 192.5,-0.5C 179.03,11.9677 168.697,26.6344 161.5,43.5C 159.844,45.4602 158.177,47.4602 156.5,49.5C 131.817,51.2114 111.317,61.2114 95,79.5C 82.5573,95.2765 70.8906,111.61 60,128.5C 56.2795,132.551 51.7795,135.384 46.5,137C 51.6077,147.067 58.2744,155.9 66.5,163.5C 67.2026,165.716 68.5359,167.549 70.5,169C 73.7342,171.748 77.0676,174.248 80.5,176.5C 80.1667,176.5 79.8333,176.5 79.5,176.5C 79.1667,176.5 78.8333,176.5 78.5,176.5C 74.228,174.226 70.228,171.559 66.5,168.5C 62.8333,164.167 58.8333,160.167 54.5,156.5C 49.4109,149.993 45.0775,142.993 41.5,135.5C 41.8333,134.833 42.1667,134.167 42.5,133.5C 47.1446,133.167 50.8113,131.167 53.5,127.5C 54.0431,127.44 54.3764,127.107 54.5,126.5C 53.3112,125.571 51.9778,125.238 50.5,125.5C 41.9391,123.246 34.6058,125.246 28.5,131.5C 26.461,132.911 25.461,134.911 25.5,137.5C 23.994,142.35 22.994,147.35 22.5,152.5C 23.6563,155.468 24.9897,158.301 26.5,161C 26.5633,163.942 25.23,164.942 22.5,164C 9.24003,149.986 1.57337,133.486 -0.5,114.5C -0.5,107.833 -0.5,101.167 -0.5,94.5C 3.70407,86.4667 10.0374,80.6333 18.5,77C 12.6789,73.4491 6.34558,71.6158 -0.5,71.5C -0.5,69.5 -0.5,67.5 -0.5,65.5C 7.21058,65.6413 14.5439,67.308 21.5,70.5C 24.2558,72.2038 27.2558,73.5371 30.5,74.5C 32.7346,75.2279 34.5679,76.5612 36,78.5C 36.5074,79.9961 36.0074,81.1627 34.5,82C 21.4827,79.7907 11.9827,84.624 6,96.5C 5.01928,106.668 5.85262,116.668 8.5,126.5C 9.79919,131.404 11.4659,136.071 13.5,140.5C 14.7347,143.301 16.2347,145.968 18,148.5C 19.4789,144.583 20.6455,140.583 21.5,136.5C 22.6594,131.683 25.326,128.016 29.5,125.5C 38.0433,120.711 46.8766,120.377 56,124.5C 67.7824,104.557 81.2824,85.8904 96.5,68.5C 97.7095,68.0679 98.7095,67.4013 99.5,66.5C 111.382,55.5603 125.382,48.8936 141.5,46.5C 146.41,45.8189 150.91,44.1522 155,41.5C 158.926,33.9768 163.092,26.6435 167.5,19.5C 172.453,12.5447 177.787,5.87807 183.5,-0.5 Z"/></g>
<g><path style="opacity:1" fill="#a65f6a" d="M 192.5,-0.5 C 205.5,-0.5 218.5,-0.5 231.5,-0.5C 206.951,12.3584 183.784,27.3584 162,44.5C 161.601,44.2716 161.435,43.9382 161.5,43.5C 168.697,26.6344 179.03,11.9677 192.5,-0.5 Z"/></g>
<g><path style="opacity:1" fill="#9f505b" d="M 231.5,-0.5 C 236.167,-0.5 240.833,-0.5 245.5,-0.5C 230.833,8.83333 216.167,18.1667 201.5,27.5C 192.229,32.1375 183.229,37.3041 174.5,43C 165.01,50.2448 155.344,57.2448 145.5,64C 142.175,64.1388 139.175,65.1388 136.5,67C 124.128,80.3702 112.128,94.0369 100.5,108C 98.5,108.333 96.5,108.667 94.5,109C 81.6673,122.637 72.0006,138.137 65.5,155.5C 65.9116,147.512 68.9116,140.679 74.5,135C 71.6967,134.245 69.0301,134.578 66.5,136C 62.7265,139.718 59.5599,143.884 57,148.5C 56.3838,141.348 58.3838,135.015 63,129.5C 69.449,122.055 77.2824,116.555 86.5,113C 95.8814,99.9266 106.215,87.5932 117.5,76C 118.833,75.6667 120.167,75.3333 121.5,75C 127.459,69.6763 133.459,64.343 139.5,59C 144.135,57.5457 148.802,56.2123 153.5,55C 154.223,52.9817 155.223,51.1484 156.5,49.5C 158.177,47.4602 159.844,45.4602 161.5,43.5C 161.435,43.9382 161.601,44.2716 162,44.5C 183.784,27.3584 206.951,12.3584 231.5,-0.5 Z"/></g>
<g><path style="opacity:1" fill="#45154e" d="M 394.5,-0.5 C 429.5,-0.5 464.5,-0.5 499.5,-0.5C 499.5,2.83333 499.5,6.16667 499.5,9.5C 485.59,6.67757 471.59,4.34424 457.5,2.5C 457.166,5.18802 457.832,7.52135 459.5,9.5C 453.233,11.3697 450.567,15.703 451.5,22.5C 434.195,21.0408 416.862,19.8742 399.5,19C 401.975,15.232 401.975,11.5654 399.5,8C 394.301,6.18191 388.967,4.84858 383.5,4C 387.506,3.12708 391.172,1.62708 394.5,-0.5 Z"/></g>
<g><path style="opacity:1" fill="#924853" d="M 245.5,-0.5 C 264.167,-0.5 282.833,-0.5 301.5,-0.5C 268.895,7.70381 237.895,20.0371 208.5,36.5C 207.171,33.7996 205.171,31.4663 202.5,29.5C 203.981,28.056 203.648,27.3894 201.5,27.5C 216.167,18.1667 230.833,8.83333 245.5,-0.5 Z"/></g>
<g><path style="opacity:1" fill="#070306" d="M 301.5,-0.5 C 307.167,-0.5 312.833,-0.5 318.5,-0.5C 319.752,1.33883 319.752,3.17216 318.5,5C 302.97,5.80022 287.97,8.96689 273.5,14.5C 252.185,20.8288 232.185,29.8288 213.5,41.5C 210.489,42.6693 207.822,44.336 205.5,46.5C 193.329,53.3409 181.996,61.3409 171.5,70.5C 149.927,89.0641 131.26,110.064 115.5,133.5C 111.866,137.411 108.699,141.744 106,146.5C 99.1557,160.189 92.3223,173.855 85.5,187.5C 76.0064,203.48 70.173,220.813 68,239.5C 65.5461,246.241 61.7128,252.075 56.5,257C 50.9126,259.312 45.2459,260.812 39.5,261.5C 26.1044,261.253 12.771,260.253 -0.5,258.5C -0.5,256.5 -0.5,254.5 -0.5,252.5C 12.1183,253.958 24.785,254.625 37.5,254.5C 45.3548,255.886 51.6882,253.553 56.5,247.5C 58.679,244.703 60.3456,241.537 61.5,238C 63.3668,237.289 64.8668,237.789 66,239.5C 66.4935,237.866 66.6602,236.199 66.5,234.5C 67.1092,225.107 68.7758,215.774 71.5,206.5C 72.038,204.883 72.3713,203.216 72.5,201.5C 73.6772,199.321 74.6772,196.987 75.5,194.5C 81.6762,182.811 87.3429,170.811 92.5,158.5C 96.1631,151.841 99.8298,145.174 103.5,138.5C 120.586,114.393 139.586,91.7262 160.5,70.5C 164.817,67.5136 168.817,64.1803 172.5,60.5C 175.117,59.2141 177.45,57.5475 179.5,55.5C 188.996,48.918 198.662,42.5846 208.5,36.5C 237.895,20.0371 268.895,7.70381 301.5,-0.5 Z"/></g>
<g><path style="opacity:1" fill="#7b3386" d="M 318.5,-0.5 C 327.833,-0.5 337.167,-0.5 346.5,-0.5C 348.554,2.37258 350.887,5.03924 353.5,7.5C 348.218,9.34339 348.218,10.1767 353.5,10C 348.233,12.4668 346.066,16.6334 347,22.5C 345.581,23.4601 344.081,24.2935 342.5,25C 320.462,30.2961 298.795,36.4628 277.5,43.5C 283.552,40.6309 289.552,37.4642 295.5,34C 300.926,30.8712 306.093,27.3712 311,23.5C 310.915,18.3271 308.915,13.9937 305,10.5C 294.894,14.3158 284.727,18.1491 274.5,22C 268.789,22.7423 263.122,23.7423 257.5,25C 253.019,27.0902 248.686,29.2569 244.5,31.5C 237.248,30.9566 231.915,33.7899 228.5,40C 220.742,42.1719 213.075,44.3386 205.5,46.5C 207.822,44.336 210.489,42.6693 213.5,41.5C 221.176,38.8296 228.509,35.3296 235.5,31C 248.975,27.3019 261.641,21.8019 273.5,14.5C 287.97,8.96689 302.97,5.80022 318.5,5C 319.752,3.17216 319.752,1.33883 318.5,-0.5 Z"/></g>
<g><path style="opacity:1" fill="#060407" d="M 499.5,9.5 C 499.5,11.5 499.5,13.5 499.5,15.5C 489.909,13.2606 480.243,11.7606 470.5,11C 476.333,16.1667 482.167,21.3333 488,26.5C 493.132,33.4297 496.632,41.0963 498.5,49.5C 497.925,56.3144 495.425,62.3144 491,67.5C 490.517,66.552 490.351,65.552 490.5,64.5C 490.328,63.5084 490.662,62.8417 491.5,62.5C 492.117,62.3893 492.617,62.056 493,61.5C 493.959,51.7004 491.626,42.7004 486,34.5C 479.893,27.041 473.059,20.3743 465.5,14.5C 463.54,12.8437 461.54,11.177 459.5,9.5C 457.832,7.52135 457.166,5.18802 457.5,2.5C 471.59,4.34424 485.59,6.67757 499.5,9.5 Z"/></g>
<g><path style="opacity:1" fill="#652c70" d="M 346.5,-0.5 C 360.5,-0.5 374.5,-0.5 388.5,-0.5C 384.213,1.93119 379.547,3.59785 374.5,4.5C 376.53,6.60703 378.697,8.60703 381,10.5C 381.309,11.7659 381.809,12.9326 382.5,14C 381.139,15.5843 380.472,17.4176 380.5,19.5C 376.058,20.1211 371.725,21.1211 367.5,22.5C 367.5,23.5 367.5,24.5 367.5,25.5C 369.099,25.2322 370.432,25.5655 371.5,26.5C 370.417,26.5394 369.417,26.8728 368.5,27.5C 366.456,25.7806 364.456,24.1139 362.5,22.5C 365.001,22.4891 365.168,21.8224 363,20.5C 361.048,21.7002 359.548,21.2002 358.5,19C 359.245,16.4291 359.579,13.9291 359.5,11.5C 357.922,10.7022 356.256,10.2022 354.5,10C 354.833,9.66667 355.167,9.33333 355.5,9C 354.584,8.72158 353.918,8.22158 353.5,7.5C 350.887,5.03924 348.554,2.37258 346.5,-0.5 Z"/></g>
<g><path style="opacity:1" fill="#9a76c8" d="M 499.5,15.5 C 499.5,35.8333 499.5,56.1667 499.5,76.5C 494.337,73.779 489.004,71.4457 483.5,69.5C 483.414,68.5041 483.748,67.6708 484.5,67C 486.811,66.7641 488.811,65.9307 490.5,64.5C 490.351,65.552 490.517,66.552 491,67.5C 495.425,62.3144 497.925,56.3144 498.5,49.5C 496.632,41.0963 493.132,33.4297 488,26.5C 482.167,21.3333 476.333,16.1667 470.5,11C 480.243,11.7606 489.909,13.2606 499.5,15.5 Z"/></g>
<g><path style="opacity:1" fill="#632a6e" d="M 161.5,19.5 C 161.611,20.1174 161.944,20.6174 162.5,21C 158.651,24.5205 155.651,28.6872 153.5,33.5C 150.787,37.3771 147.287,40.3771 143,42.5C 142.59,43.9007 142.09,45.234 141.5,46.5C 125.382,48.8936 111.382,55.5603 99.5,66.5C 94.8405,67.1667 90.1738,67.3334 85.5,67C 84.2005,61.6306 82.3672,56.4639 80,51.5C 77.7679,50.5917 75.6013,49.5917 73.5,48.5C 68.9402,50.6135 64.2735,52.4469 59.5,54C 57.0536,56.7307 54.0536,58.7307 50.5,60C 49.3511,62.4592 49.3511,64.9592 50.5,67.5C 49.0683,65.8597 47.7349,64.0264 46.5,62C 45.2668,58.3832 43.9335,54.8832 42.5,51.5C 40.0901,51.0791 38.2568,49.7458 37,47.5C 36.3333,46.5 36.3333,45.5 37,44.5C 41.7855,42.9616 46.2855,40.9616 50.5,38.5C 58.862,34.6734 67.5287,31.5067 76.5,29C 88.1973,27.948 99.864,26.6147 111.5,25C 113.208,23.4905 114.874,21.9905 116.5,20.5C 131.485,19.5007 146.485,19.1673 161.5,19.5 Z"/></g>
<g><path style="opacity:1" fill="#4d1c56" d="M 161.5,19.5 C 163.5,19.5 165.5,19.5 167.5,19.5C 163.092,26.6435 158.926,33.9768 155,41.5C 150.91,44.1522 146.41,45.8189 141.5,46.5C 142.09,45.234 142.59,43.9007 143,42.5C 147.287,40.3771 150.787,37.3771 153.5,33.5C 155.651,28.6872 158.651,24.5205 162.5,21C 161.944,20.6174 161.611,20.1174 161.5,19.5 Z"/></g>
<g><path style="opacity:1" fill="#5a2664" d="M 388.5,-0.5 C 390.5,-0.5 392.5,-0.5 394.5,-0.5C 391.172,1.62708 387.506,3.12708 383.5,4C 388.967,4.84858 394.301,6.18191 399.5,8C 401.975,11.5654 401.975,15.232 399.5,19C 416.862,19.8742 434.195,21.0408 451.5,22.5C 450.567,15.703 453.233,11.3697 459.5,9.5C 461.54,11.177 463.54,12.8437 465.5,14.5C 462.68,14.2475 460.014,14.7475 457.5,16C 455.257,18.4878 453.257,21.1544 451.5,24C 446.526,24.254 441.692,25.0873 437,26.5C 436.316,27.7839 436.483,28.9505 437.5,30C 440.833,31.3333 444.167,32.6667 447.5,34C 448.376,35.586 449.376,37.086 450.5,38.5C 452.598,38.9572 454.264,39.9572 455.5,41.5C 449.764,40.2373 444.098,40.404 438.5,42C 439.841,43.8265 439.341,44.9931 437,45.5C 431.485,44.5457 425.985,43.5457 420.5,42.5C 421.234,41.2921 421.567,39.9587 421.5,38.5C 422.873,38.6567 424.207,38.49 425.5,38C 425.018,36.9916 424.852,35.825 425,34.5C 423.984,35.6341 423.317,35.3008 423,33.5C 422.586,33.9574 422.086,34.2907 421.5,34.5C 414.383,31.7208 407.217,29.3874 400,27.5C 398.938,28.0968 397.772,28.4302 396.5,28.5C 388.179,27.6564 379.845,26.9897 371.5,26.5C 370.432,25.5655 369.099,25.2322 367.5,25.5C 367.5,24.5 367.5,23.5 367.5,22.5C 371.725,21.1211 376.058,20.1211 380.5,19.5C 380.472,17.4176 381.139,15.5843 382.5,14C 381.809,12.9326 381.309,11.7659 381,10.5C 378.697,8.60703 376.53,6.60703 374.5,4.5C 379.547,3.59785 384.213,1.93119 388.5,-0.5 Z"/></g>
<g><path style="opacity:1" fill="#6c3b75" d="M 465.5,14.5 C 473.059,20.3743 479.893,27.041 486,34.5C 491.626,42.7004 493.959,51.7004 493,61.5C 492.617,62.056 492.117,62.3893 491.5,62.5C 491.824,58.4454 491.491,54.4454 490.5,50.5C 487.163,53.1706 483.496,55.3373 479.5,57C 475.095,57.6959 470.761,57.3626 466.5,56C 463.781,52.8418 461.614,49.3418 460,45.5C 458.629,43.9586 457.129,42.6253 455.5,41.5C 454.264,39.9572 452.598,38.9572 450.5,38.5C 449.376,37.086 448.376,35.586 447.5,34C 444.167,32.6667 440.833,31.3333 437.5,30C 436.483,28.9505 436.316,27.7839 437,26.5C 441.692,25.0873 446.526,24.254 451.5,24C 453.257,21.1544 455.257,18.4878 457.5,16C 460.014,14.7475 462.68,14.2475 465.5,14.5 Z"/></g>
<g><path style="opacity:1" fill="#4c1955" d="M 273.5,14.5 C 261.641,21.8019 248.975,27.3019 235.5,31C 228.509,35.3296 221.176,38.8296 213.5,41.5C 232.185,29.8288 252.185,20.8288 273.5,14.5 Z"/></g>
<g><path style="opacity:1" fill="#6a2776" d="M 353.5,7.5 C 353.918,8.22158 354.584,8.72158 355.5,9C 355.167,9.33333 354.833,9.66667 354.5,10C 356.256,10.2022 357.922,10.7022 359.5,11.5C 359.579,13.9291 359.245,16.4291 358.5,19C 359.548,21.2002 361.048,21.7002 363,20.5C 365.168,21.8224 365.001,22.4891 362.5,22.5C 359.489,23.5606 356.489,24.7273 353.5,26C 344.608,27.0564 335.942,29.0564 327.5,32C 331.476,32.0741 335.476,31.9075 339.5,31.5C 342.625,31.4347 345.625,31.9347 348.5,33C 349.411,36.2264 350.744,39.2264 352.5,42C 352.646,44.1879 351.646,45.5212 349.5,46C 339.577,47.7696 329.577,49.103 319.5,50C 316.721,50.8888 314.055,52.0555 311.5,53.5C 277.484,59.8401 244.817,70.1734 213.5,84.5C 208.621,89.0812 203.288,92.2479 197.5,94C 195.667,95.8333 193.833,97.6667 192,99.5C 190.951,98.4829 189.784,98.3162 188.5,99C 186.981,100.351 185.648,101.851 184.5,103.5C 183.28,104.711 182.113,104.711 181,103.5C 179.333,105.167 177.667,106.833 176,108.5C 175.667,108.167 175.333,107.833 175,107.5C 160.324,119.677 146.824,133.01 134.5,147.5C 129.648,151.42 124.648,155.087 119.5,158.5C 119.892,156.821 120.392,155.154 121,153.5C 131.057,141.724 141.891,130.724 153.5,120.5C 156.06,115.721 159.727,112.055 164.5,109.5C 168.589,106.917 172.256,103.75 175.5,100C 182.611,96.9449 189.611,93.6115 196.5,90C 221.95,71.5936 248.95,56.0936 277.5,43.5C 298.795,36.4628 320.462,30.2961 342.5,25C 344.081,24.2935 345.581,23.4601 347,22.5C 346.066,16.6334 348.233,12.4668 353.5,10C 348.218,10.1767 348.218,9.34339 353.5,7.5 Z"/></g>
<g><path style="opacity:1" fill="#883a92" d="M 277.5,43.5 C 248.95,56.0936 221.95,71.5936 196.5,90C 189.611,93.6115 182.611,96.9449 175.5,100C 172.256,103.75 168.589,106.917 164.5,109.5C 173.533,99.2914 183.867,90.4581 195.5,83C 197.666,81.322 198.999,79.1553 199.5,76.5C 200.802,75.1931 202.135,75.1931 203.5,76.5C 210.507,70.6572 217.34,64.6572 224,58.5C 224.333,58.8333 224.667,59.1667 225,59.5C 226.299,56.2448 227.965,53.2448 230,50.5C 230.195,52.2072 230.195,53.8739 230,55.5C 231.513,52.4756 233.513,49.8089 236,47.5C 237.116,57.9455 238.449,57.9455 240,47.5C 240.419,46.3279 241.085,45.3279 242,44.5C 242.346,47.5755 243.012,50.5755 244,53.5C 246.557,51.6067 247.057,49.2734 245.5,46.5C 246.236,44.4595 247.069,42.4595 248,40.5C 248.388,44.2192 249.055,47.8859 250,51.5C 251.236,50.6008 252.07,49.4341 252.5,48C 250.393,42.3106 251.559,37.4773 256,33.5C 256.667,32.1667 256.667,30.8333 256,29.5C 252.284,29.5369 248.451,30.2035 244.5,31.5C 248.686,29.2569 253.019,27.0902 257.5,25C 263.122,23.7423 268.789,22.7423 274.5,22C 284.727,18.1491 294.894,14.3158 305,10.5C 308.915,13.9937 310.915,18.3271 311,23.5C 306.093,27.3712 300.926,30.8712 295.5,34C 289.552,37.4642 283.552,40.6309 277.5,43.5 Z"/></g>
<g><path style="opacity:1" fill="#8f4199" d="M 199.5,76.5 C 190.95,74.8918 182.284,73.8918 173.5,73.5C 173.715,71.8212 173.048,70.8212 171.5,70.5C 181.996,61.3409 193.329,53.3409 205.5,46.5C 213.075,44.3386 220.742,42.1719 228.5,40C 231.915,33.7899 237.248,30.9566 244.5,31.5C 248.451,30.2035 252.284,29.5369 256,29.5C 256.667,30.8333 256.667,32.1667 256,33.5C 251.559,37.4773 250.393,42.3106 252.5,48C 252.07,49.4341 251.236,50.6008 250,51.5C 249.055,47.8859 248.388,44.2192 248,40.5C 247.069,42.4595 246.236,44.4595 245.5,46.5C 247.057,49.2734 246.557,51.6067 244,53.5C 243.012,50.5755 242.346,47.5755 242,44.5C 241.085,45.3279 240.419,46.3279 240,47.5C 238.449,57.9455 237.116,57.9455 236,47.5C 233.513,49.8089 231.513,52.4756 230,55.5C 230.195,53.8739 230.195,52.2072 230,50.5C 227.965,53.2448 226.299,56.2448 225,59.5C 224.667,59.1667 224.333,58.8333 224,58.5C 217.34,64.6572 210.507,70.6572 203.5,76.5C 202.135,75.1931 200.802,75.1931 199.5,76.5 Z"/></g>
<g><path style="opacity:1" fill="#4f1b59" d="M 455.5,41.5 C 457.129,42.6253 458.629,43.9586 460,45.5C 461.614,49.3418 463.781,52.8418 466.5,56C 470.761,57.3626 475.095,57.6959 479.5,57C 483.496,55.3373 487.163,53.1706 490.5,50.5C 491.491,54.4454 491.824,58.4454 491.5,62.5C 490.662,62.8417 490.328,63.5084 490.5,64.5C 488.811,65.9307 486.811,66.7641 484.5,67C 483.748,67.6708 483.414,68.5041 483.5,69.5C 470.302,63.9482 456.635,59.7815 442.5,57C 424.822,56.9773 407.156,57.4773 389.5,58.5C 386.753,58.8134 384.086,58.48 381.5,57.5C 381,56.1195 380,55.4528 378.5,55.5C 344.9,59.7112 311.567,65.5446 278.5,73C 262.135,80.0853 246.802,88.9186 232.5,99.5C 228.993,101.754 225.327,103.754 221.5,105.5C 233.954,96.8855 246.288,88.0522 258.5,79C 273.75,72.5386 289.083,66.7052 304.5,61.5C 312.041,59.3566 319.707,57.5233 327.5,56C 354.471,51.7283 381.138,47.395 407.5,43C 411.821,42.501 416.154,42.3343 420.5,42.5C 425.985,43.5457 431.485,44.5457 437,45.5C 439.341,44.9931 439.841,43.8265 438.5,42C 444.098,40.404 449.764,40.2373 455.5,41.5 Z"/></g>
<g><path style="opacity:1" fill="#61236d" d="M 362.5,22.5 C 364.456,24.1139 366.456,25.7806 368.5,27.5C 369.417,26.8728 370.417,26.5394 371.5,26.5C 379.845,26.9897 388.179,27.6564 396.5,28.5C 397.772,28.4302 398.938,28.0968 400,27.5C 407.217,29.3874 414.383,31.7208 421.5,34.5C 422.086,34.2907 422.586,33.9574 423,33.5C 423.317,35.3008 423.984,35.6341 425,34.5C 424.852,35.825 425.018,36.9916 425.5,38C 424.207,38.49 422.873,38.6567 421.5,38.5C 421.567,39.9587 421.234,41.2921 420.5,42.5C 416.154,42.3343 411.821,42.501 407.5,43C 381.138,47.395 354.471,51.7283 327.5,56C 319.707,57.5233 312.041,59.3566 304.5,61.5C 274.826,68.7806 246.159,78.9472 218.5,92C 206.51,96.1596 194.843,101.16 183.5,107C 179.92,109.277 176.586,111.777 173.5,114.5C 168.927,117.059 164.594,120.059 160.5,123.5C 136.425,146.025 115.425,171.025 97.5,198.5C 97.3964,196.297 96.7298,194.297 95.5,192.5C 103.049,180.934 111.049,169.601 119.5,158.5C 124.648,155.087 129.648,151.42 134.5,147.5C 146.824,133.01 160.324,119.677 175,107.5C 175.333,107.833 175.667,108.167 176,108.5C 177.667,106.833 179.333,105.167 181,103.5C 182.113,104.711 183.28,104.711 184.5,103.5C 185.648,101.851 186.981,100.351 188.5,99C 189.784,98.3162 190.951,98.4829 192,99.5C 193.833,97.6667 195.667,95.8333 197.5,94C 203.288,92.2479 208.621,89.0812 213.5,84.5C 244.817,70.1734 277.484,59.8401 311.5,53.5C 314.055,52.0555 316.721,50.8888 319.5,50C 329.577,49.103 339.577,47.7696 349.5,46C 351.646,45.5212 352.646,44.1879 352.5,42C 350.744,39.2264 349.411,36.2264 348.5,33C 345.625,31.9347 342.625,31.4347 339.5,31.5C 335.476,31.9075 331.476,32.0741 327.5,32C 335.942,29.0564 344.608,27.0564 353.5,26C 356.489,24.7273 359.489,23.5606 362.5,22.5 Z"/></g>
<g><path style="opacity:1" fill="#5a2466" d="M 99.5,66.5 C 98.7095,67.4013 97.7095,68.0679 96.5,68.5C 92.7721,68.7947 89.1054,69.4614 85.5,70.5C 83.6066,75.8942 79.9399,79.3942 74.5,81C 67.4703,80.663 60.4703,79.8297 53.5,78.5C 53.9459,82.3603 52.6125,85.3603 49.5,87.5C 50.8963,84.3089 51.8963,80.9756 52.5,77.5C 51.6203,74.1985 50.9537,70.8651 50.5,67.5C 49.3511,64.9592 49.3511,62.4592 50.5,60C 54.0536,58.7307 57.0536,56.7307 59.5,54C 64.2735,52.4469 68.9402,50.6135 73.5,48.5C 75.6013,49.5917 77.7679,50.5917 80,51.5C 82.3672,56.4639 84.2005,61.6306 85.5,67C 90.1738,67.3334 94.8405,67.1667 99.5,66.5 Z"/></g>
<g><path style="opacity:1" fill="#a55d69" d="M 156.5,49.5 C 155.223,51.1484 154.223,52.9817 153.5,55C 148.802,56.2123 144.135,57.5457 139.5,59C 133.459,64.343 127.459,69.6763 121.5,75C 120.167,75.3333 118.833,75.6667 117.5,76C 106.215,87.5932 95.8814,99.9266 86.5,113C 77.2824,116.555 69.449,122.055 63,129.5C 58.3838,135.015 56.3838,141.348 57,148.5C 59.5599,143.884 62.7265,139.718 66.5,136C 69.0301,134.578 71.6967,134.245 74.5,135C 68.9116,140.679 65.9116,147.512 65.5,155.5C 65.4013,158.237 65.7347,160.904 66.5,163.5C 58.2744,155.9 51.6077,147.067 46.5,137C 51.7795,135.384 56.2795,132.551 60,128.5C 70.8906,111.61 82.5573,95.2765 95,79.5C 111.317,61.2114 131.817,51.2114 156.5,49.5 Z"/></g>
<g><path style="opacity:1" fill="#44154e" d="M 389.5,58.5 C 378.901,58.9756 368.234,60.1423 357.5,62C 340.633,66.7166 323.966,72.0499 307.5,78C 291.833,85 276.167,92 260.5,99C 244.12,109.221 228.453,120.388 213.5,132.5C 212.535,131.279 212.702,129.946 214,128.5C 217.896,123.726 221.563,118.726 225,113.5C 229.72,110.77 233.053,106.77 235,101.5C 236.154,100.257 237.488,99.2567 239,98.5C 239.667,97.8333 239.667,97.1667 239,96.5C 236.749,97.4123 234.583,98.4123 232.5,99.5C 246.802,88.9186 262.135,80.0853 278.5,73C 311.567,65.5446 344.9,59.7112 378.5,55.5C 380,55.4528 381,56.1195 381.5,57.5C 384.086,58.48 386.753,58.8134 389.5,58.5 Z"/></g>
<g><path style="opacity:1" fill="#743f7d" d="M 50.5,38.5 C 46.2855,40.9616 41.7855,42.9616 37,44.5C 36.3333,45.5 36.3333,46.5 37,47.5C 38.2568,49.7458 40.0901,51.0791 42.5,51.5C 43.9335,54.8832 45.2668,58.3832 46.5,62C 47.7349,64.0264 49.0683,65.8597 50.5,67.5C 50.9537,70.8651 51.6203,74.1985 52.5,77.5C 51.8963,80.9756 50.8963,84.3089 49.5,87.5C 45.9051,94.3624 41.5718,100.696 36.5,106.5C 36.7031,104.956 37.3698,103.622 38.5,102.5C 38.0233,101.522 37.3567,100.689 36.5,100C 25.7857,99.3692 19.9524,104.536 19,115.5C 14.5935,118.404 11.0935,122.071 8.5,126.5C 5.85262,116.668 5.01928,106.668 6,96.5C 11.9827,84.624 21.4827,79.7907 34.5,82C 36.0074,81.1627 36.5074,79.9961 36,78.5C 34.5679,76.5612 32.7346,75.2279 30.5,74.5C 34.2184,64.4173 36.0517,54.084 36,43.5C 40.4551,40.8616 45.2884,39.195 50.5,38.5 Z"/></g>
<g><path style="opacity:1" fill="#52195b" d="M 179.5,55.5 C 177.45,57.5475 175.117,59.2141 172.5,60.5C 173.833,57.6472 176.166,55.9805 179.5,55.5 Z"/></g>
<g><path style="opacity:1" fill="#9d78cd" d="M 499.5,83.5 C 499.5,123.167 499.5,162.833 499.5,202.5C 496.882,202.779 494.382,203.446 492,204.5C 491.768,203.263 491.268,202.263 490.5,201.5C 490.038,200.12 489.038,199.453 487.5,199.5C 484.217,200.327 480.884,200.66 477.5,200.5C 483.618,192.059 482.618,184.559 474.5,178C 467.633,172.957 461.3,167.457 455.5,161.5C 473.091,152.409 486.591,139.076 496,121.5C 496.758,119.231 496.591,117.064 495.5,115C 492.162,114.5 490.495,116 490.5,119.5C 489.183,116.167 487.683,112.834 486,109.5C 482.953,110.562 480.12,111.895 477.5,113.5C 473.111,114.403 469.111,116.069 465.5,118.5C 457.804,121.181 450.471,124.681 443.5,129C 440.669,130.666 438.336,132.832 436.5,135.5C 430.992,133.917 425.659,134.417 420.5,137C 417.899,139.83 417.899,142.663 420.5,145.5C 399.44,140.288 378.107,136.622 356.5,134.5C 356.5,129.5 356.5,124.5 356.5,119.5C 359.395,116.172 359.062,113.172 355.5,110.5C 352.918,103.742 348.918,97.9084 343.5,93C 342.552,92.5172 341.552,92.3505 340.5,92.5C 337.562,90.066 334.729,87.3993 332,84.5C 330.853,86.7312 329.853,89.0645 329,91.5C 324.148,93.1843 320.314,96.1843 317.5,100.5C 317.565,100.062 317.399,99.7284 317,99.5C 313.544,108.661 310.711,117.994 308.5,127.5C 305.678,128.507 302.678,129.34 299.5,130C 296.894,130.792 294.894,132.292 293.5,134.5C 292.839,135.718 292.172,137.051 291.5,138.5C 270.161,146.493 251.494,158.493 235.5,174.5C 229.904,165.902 222.904,158.569 214.5,152.5C 213.476,147.673 211.142,146.673 207.5,149.5C 205.473,149.338 203.473,149.505 201.5,150C 200.177,150.816 199.511,151.983 199.5,153.5C 198.707,158.327 198.707,163.327 199.5,168.5C 194.88,169.094 190.713,170.761 187,173.5C 186.652,177.19 188.152,180.023 191.5,182C 195.612,182.473 199.612,181.973 203.5,180.5C 206.647,187.461 210.313,194.127 214.5,200.5C 211.769,202.071 209.935,204.405 209,207.5C 207.109,211.611 206.109,215.944 206,220.5C 205.097,221.701 203.931,222.535 202.5,223C 203.056,223.383 203.389,223.883 203.5,224.5C 190.91,219.967 177.91,217.801 164.5,218C 163.663,219.011 163.33,220.178 163.5,221.5C 159.952,222.607 156.619,224.274 153.5,226.5C 158.234,208.683 166.067,192.017 177,176.5C 181.087,174.245 183.92,170.912 185.5,166.5C 185.043,165.702 184.376,165.369 183.5,165.5C 186.382,162.77 189.049,159.77 191.5,156.5C 228.313,123.74 269.98,98.5735 316.5,81C 331.713,75.929 347.046,71.2623 362.5,67C 381.815,65.6007 401.148,64.2673 420.5,63C 448.621,62.7806 474.954,69.6139 499.5,83.5 Z"/></g>
<g><path style="opacity:1" fill="#52215c" d="M -0.5,56.5 C 3.84381,58.7976 8.51048,59.9642 13.5,60C 16.6301,62.128 19.4634,64.628 22,67.5C 22.7401,68.7494 22.5735,69.7494 21.5,70.5C 14.5439,67.308 7.21058,65.6413 -0.5,65.5C -0.5,62.5 -0.5,59.5 -0.5,56.5 Z"/></g>
<g><path style="opacity:1" fill="#8a424d" d="M 201.5,27.5 C 203.648,27.3894 203.981,28.056 202.5,29.5C 205.171,31.4663 207.171,33.7996 208.5,36.5C 198.662,42.5846 188.996,48.918 179.5,55.5C 176.166,55.9805 173.833,57.6472 172.5,60.5C 168.817,64.1803 164.817,67.5136 160.5,70.5C 153.019,77.1419 145.352,83.6419 137.5,90C 133.123,94.6274 129.123,99.4607 125.5,104.5C 123.229,104.408 120.896,104.075 118.5,103.5C 116.253,104.406 114.253,105.739 112.5,107.5C 105.375,115.719 98.708,124.385 92.5,133.5C 90.5151,138.311 90.0151,143.311 91,148.5C 92.0736,149.618 93.2402,150.618 94.5,151.5C 92.8287,153.51 92.162,155.843 92.5,158.5C 88.0096,164.296 84.0096,170.296 80.5,176.5C 77.0676,174.248 73.7342,171.748 70.5,169C 68.5359,167.549 67.2026,165.716 66.5,163.5C 65.7347,160.904 65.4013,158.237 65.5,155.5C 72.0006,138.137 81.6673,122.637 94.5,109C 96.5,108.667 98.5,108.333 100.5,108C 112.128,94.0369 124.128,80.3702 136.5,67C 139.175,65.1388 142.175,64.1388 145.5,64C 155.344,57.2448 165.01,50.2448 174.5,43C 183.229,37.3041 192.229,32.1375 201.5,27.5 Z"/></g>
<g><path style="opacity:1" fill="#f7f7f7" d="M -0.5,71.5 C 6.34558,71.6158 12.6789,73.4491 18.5,77C 10.0374,80.6333 3.70407,86.4667 -0.5,94.5C -0.5,86.8333 -0.5,79.1667 -0.5,71.5 Z"/></g>
<g><path style="opacity:1" fill="#4e1c57" d="M 96.5,68.5 C 81.2824,85.8904 67.7824,104.557 56,124.5C 46.8766,120.377 38.0433,120.711 29.5,125.5C 30.2838,119.648 31.7838,113.981 34,108.5C 34.7083,107.619 35.5416,106.953 36.5,106.5C 41.5718,100.696 45.9051,94.3624 49.5,87.5C 52.6125,85.3603 53.9459,82.3603 53.5,78.5C 60.4703,79.8297 67.4703,80.663 74.5,81C 79.9399,79.3942 83.6066,75.8942 85.5,70.5C 89.1054,69.4614 92.7721,68.7947 96.5,68.5 Z"/></g>
<g><path style="opacity:1" fill="#401752" d="M 340.5,92.5 C 339.5,92.8333 338.833,93.5 338.5,94.5C 337.596,95.209 337.263,96.209 337.5,97.5C 332.362,97.4898 328.195,99.4898 325,103.5C 321.788,111.3 319.288,119.3 317.5,127.5C 315.5,127.5 313.5,127.5 311.5,127.5C 313.088,118.405 315.088,109.405 317.5,100.5C 320.314,96.1843 324.148,93.1843 329,91.5C 329.853,89.0645 330.853,86.7312 332,84.5C 334.729,87.3993 337.562,90.066 340.5,92.5 Z"/></g>
<g><path style="opacity:1" fill="#763453" d="M 160.5,70.5 C 139.586,91.7262 120.586,114.393 103.5,138.5C 104.32,136.188 105.153,133.854 106,131.5C 113.009,122.795 119.509,113.795 125.5,104.5C 129.123,99.4607 133.123,94.6274 137.5,90C 145.352,83.6419 153.019,77.1419 160.5,70.5 Z"/></g>
<g><path style="opacity:1" fill="#8d3697" d="M 171.5,70.5 C 173.048,70.8212 173.715,71.8212 173.5,73.5C 182.284,73.8918 190.95,74.8918 199.5,76.5C 198.999,79.1553 197.666,81.322 195.5,83C 183.867,90.4581 173.533,99.2914 164.5,109.5C 159.727,112.055 156.06,115.721 153.5,120.5C 151.059,121.557 148.725,122.89 146.5,124.5C 139.01,131.822 131.344,138.989 123.5,146C 113.149,146.507 110.483,142.34 115.5,133.5C 131.26,110.064 149.927,89.0641 171.5,70.5 Z"/></g>
<g><path style="opacity:1" fill="#050307" d="M 340.5,92.5 C 341.552,92.3505 342.552,92.5172 343.5,93C 348.918,97.9084 352.918,103.742 355.5,110.5C 356.299,113.43 356.632,116.43 356.5,119.5C 356.5,124.5 356.5,129.5 356.5,134.5C 355.312,149.231 350.812,162.898 343,175.5C 333.981,185.873 328.481,197.873 326.5,211.5C 324.994,212.747 323.494,212.747 322,211.5C 316.785,203.689 312.619,195.355 309.5,186.5C 304.605,172.869 303.272,158.869 305.5,144.5C 306.391,143.89 307.391,143.557 308.5,143.5C 308.791,150.988 308.958,158.655 309,166.5C 311.155,179.3 315.489,191.3 322,202.5C 323.899,194.04 327.399,186.374 332.5,179.5C 334.925,176.411 336.925,173.078 338.5,169.5C 340.341,167.151 341.674,164.485 342.5,161.5C 344.293,159.574 345.293,157.241 345.5,154.5C 347.132,151.442 348.299,148.109 349,144.5C 350.184,134.186 350.518,123.853 350,113.5C 347.535,107.363 343.868,102.03 339,97.5C 338.517,96.552 338.351,95.552 338.5,94.5C 338.833,93.5 339.5,92.8333 340.5,92.5 Z"/></g>
<g><path style="opacity:1" fill="#551d60" d="M 304.5,61.5 C 289.083,66.7052 273.75,72.5386 258.5,79C 246.288,88.0522 233.954,96.8855 221.5,105.5C 215.456,111.71 208.456,116.543 200.5,120C 192.802,127.693 184.469,134.693 175.5,141C 168.931,148.239 161.765,154.739 154,160.5C 140.515,178.793 127.515,197.46 115,216.5C 112.268,218.976 109.768,221.643 107.5,224.5C 105.399,230.383 102.065,235.383 97.5,239.5C 97.8923,237.821 98.3923,236.154 99,234.5C 107.842,222.144 116.175,209.478 124,196.5C 125.655,194.253 125.988,191.92 125,189.5C 141.698,168.796 159.865,149.296 179.5,131C 178.742,126.464 177.575,121.63 176,116.5C 170.368,119.628 169.535,118.961 173.5,114.5C 176.586,111.777 179.92,109.277 183.5,107C 194.843,101.16 206.51,96.1596 218.5,92C 246.159,78.9472 274.826,68.7806 304.5,61.5 Z"/></g>
<g><path style="opacity:1" fill="#3b1043" d="M 213.5,132.5 C 203.064,141.094 192.731,149.927 182.5,159C 173.205,169.071 166.039,180.571 161,193.5C 158.97,201.224 155.636,208.224 151,214.5C 148.575,219.978 146.075,225.312 143.5,230.5C 142.624,230.631 141.957,230.298 141.5,229.5C 144.02,222.247 145.353,214.913 145.5,207.5C 138.788,213.385 131.954,219.052 125,224.5C 122.263,222.548 120.096,220.048 118.5,217C 117.833,216.333 117.167,216.333 116.5,217C 106.967,229.229 98.3,242.062 90.5,255.5C 83.9457,261.638 80.779,269.305 81,278.5C 79.6667,279.167 78.6667,280.167 78,281.5C 78.6781,292.444 73.5114,296.777 62.5,294.5C 58.7614,294.486 55.428,293.82 52.5,292.5C 58.4254,292.808 64.2588,292.475 70,291.5C 71.0867,286.983 73.4201,283.316 77,280.5C 78.3839,273.627 80.3839,266.96 83,260.5C 88.4142,253.916 93.2476,246.916 97.5,239.5C 102.065,235.383 105.399,230.383 107.5,224.5C 109.768,221.643 112.268,218.976 115,216.5C 127.515,197.46 140.515,178.793 154,160.5C 161.765,154.739 168.931,148.239 175.5,141C 184.469,134.693 192.802,127.693 200.5,120C 208.456,116.543 215.456,111.71 221.5,105.5C 225.327,103.754 228.993,101.754 232.5,99.5C 234.583,98.4123 236.749,97.4123 239,96.5C 239.667,97.1667 239.667,97.8333 239,98.5C 237.488,99.2567 236.154,100.257 235,101.5C 233.053,106.77 229.72,110.77 225,113.5C 221.563,118.726 217.896,123.726 214,128.5C 212.702,129.946 212.535,131.279 213.5,132.5 Z"/></g>
<g><path style="opacity:1" fill="#3b1a48" d="M 338.5,94.5 C 338.351,95.552 338.517,96.552 339,97.5C 343.868,102.03 347.535,107.363 350,113.5C 350.518,123.853 350.184,134.186 349,144.5C 348.299,148.109 347.132,151.442 345.5,154.5C 345.383,145.129 343.55,136.129 340,127.5C 335.585,122.274 331.251,122.274 327,127.5C 322.515,141.797 322.515,156.13 327,170.5C 328.357,173.898 330.19,176.898 332.5,179.5C 327.399,186.374 323.899,194.04 322,202.5C 315.489,191.3 311.155,179.3 309,166.5C 308.958,158.655 308.791,150.988 308.5,143.5C 311.795,140.41 315.295,137.41 319,134.5C 319.833,131.829 319.333,129.496 317.5,127.5C 319.288,119.3 321.788,111.3 325,103.5C 328.195,99.4898 332.362,97.4898 337.5,97.5C 337.263,96.209 337.596,95.209 338.5,94.5 Z"/></g>
<g><path style="opacity:1" fill="#73457c" d="M 36.5,106.5 C 35.5416,106.953 34.7083,107.619 34,108.5C 31.7838,113.981 30.2838,119.648 29.5,125.5C 25.326,128.016 22.6594,131.683 21.5,136.5C 19.1432,136.337 16.8098,136.503 14.5,137C 13.6634,138.011 13.33,139.178 13.5,140.5C 11.4659,136.071 9.79919,131.404 8.5,126.5C 11.0935,122.071 14.5935,118.404 19,115.5C 19.9524,104.536 25.7857,99.3692 36.5,100C 37.3567,100.689 38.0233,101.522 38.5,102.5C 37.3698,103.622 36.7031,104.956 36.5,106.5 Z"/></g>
<g><path style="opacity:1" fill="#0f0912" d="M 317.5,100.5 C 315.088,109.405 313.088,118.405 311.5,127.5C 310.5,127.5 309.5,127.5 308.5,127.5C 310.711,117.994 313.544,108.661 317,99.5C 317.399,99.7284 317.565,100.062 317.5,100.5 Z"/></g>
<g><path style="opacity:1" fill="#401851" d="M 490.5,119.5 C 483.595,131.739 474.262,141.739 462.5,149.5C 463.442,144.195 463.609,138.861 463,133.5C 462.303,131.416 461.136,129.749 459.5,128.5C 465.827,124.67 472.494,121.337 479.5,118.5C 481.09,115.83 480.423,114.163 477.5,113.5C 480.12,111.895 482.953,110.562 486,109.5C 487.683,112.834 489.183,116.167 490.5,119.5 Z"/></g>
<g><path style="opacity:1" fill="#3c1550" d="M 355.5,110.5 C 359.062,113.172 359.395,116.172 356.5,119.5C 356.632,116.43 356.299,113.43 355.5,110.5 Z"/></g>
<g><path style="opacity:1" fill="#070209" d="M 477.5,113.5 C 480.423,114.163 481.09,115.83 479.5,118.5C 472.494,121.337 465.827,124.67 459.5,128.5C 457.118,129.351 455.118,130.684 453.5,132.5C 453.167,132.5 452.833,132.5 452.5,132.5C 449.408,134.713 446.074,136.379 442.5,137.5C 441.833,137.167 441.167,136.833 440.5,136.5C 441.568,134.26 443.234,132.426 445.5,131C 452.063,126.558 458.729,122.391 465.5,118.5C 469.111,116.069 473.111,114.403 477.5,113.5 Z"/></g>
<g><path style="opacity:1" fill="#050306" d="M 455.5,161.5 C 450.892,163.036 446.225,164.369 441.5,165.5C 438.053,165.814 434.72,166.648 431.5,168C 426.261,170.787 420.928,173.287 415.5,175.5C 413.685,176.63 411.685,177.296 409.5,177.5C 409.586,175.323 410.253,173.323 411.5,171.5C 411.069,170.707 410.735,169.873 410.5,169C 412.312,165.874 413.979,162.708 415.5,159.5C 420.5,155.167 425.167,150.5 429.5,145.5C 430.833,145.5 432.167,145.5 433.5,145.5C 433.938,145.435 434.272,145.601 434.5,146C 426.294,152.538 419.128,160.038 413,168.5C 412.333,169.5 412.333,170.5 413,171.5C 423.145,164.18 434.311,159.513 446.5,157.5C 448.553,157.598 450.22,156.931 451.5,155.5C 455.117,154.358 458.45,152.692 461.5,150.5C 462.167,150.5 462.5,150.167 462.5,149.5C 474.262,141.739 483.595,131.739 490.5,119.5C 490.495,116 492.162,114.5 495.5,115C 496.591,117.064 496.758,119.231 496,121.5C 486.591,139.076 473.091,152.409 455.5,161.5 Z"/></g>
<g><path style="opacity:1" fill="#5d2068" d="M 173.5,114.5 C 169.535,118.961 170.368,119.628 176,116.5C 177.575,121.63 178.742,126.464 179.5,131C 159.865,149.296 141.698,168.796 125,189.5C 125.988,191.92 125.655,194.253 124,196.5C 116.175,209.478 107.842,222.144 99,234.5C 98.3923,236.154 97.8923,237.821 97.5,239.5C 93.2476,246.916 88.4142,253.916 83,260.5C 80.3839,266.96 78.3839,273.627 77,280.5C 73.4201,283.316 71.0867,286.983 70,291.5C 64.2588,292.475 58.4254,292.808 52.5,292.5C 34.811,291.698 17.1443,291.698 -0.5,292.5C -0.5,291.833 -0.5,291.167 -0.5,290.5C 15.4756,289.728 31.4756,289.228 47.5,289C 51.2919,286.2 53.9585,282.533 55.5,278C 58.4453,277.861 60.7786,276.694 62.5,274.5C 72.0659,259.716 80.8992,244.383 89,228.5C 93.157,218.864 95.9903,208.864 97.5,198.5C 115.425,171.025 136.425,146.025 160.5,123.5C 164.594,120.059 168.927,117.059 173.5,114.5 Z"/></g>
<g><path style="opacity:1" fill="#fdfbfd" d="M -0.5,114.5 C 1.57337,133.486 9.24003,149.986 22.5,164C 25.23,164.942 26.5633,163.942 26.5,161C 24.9897,158.301 23.6563,155.468 22.5,152.5C 22.994,147.35 23.994,142.35 25.5,137.5C 26.5,137.5 27.5,137.5 28.5,137.5C 28.5,135.5 28.5,133.5 28.5,131.5C 34.6058,125.246 41.9391,123.246 50.5,125.5C 51.5,126.167 52.5,126.833 53.5,127.5C 50.8113,131.167 47.1446,133.167 42.5,133.5C 42.1667,134.167 41.8333,134.833 41.5,135.5C 45.0775,142.993 49.4109,149.993 54.5,156.5C 54.8504,164.184 58.8504,168.184 66.5,168.5C 70.228,171.559 74.228,174.226 78.5,176.5C 75.0871,184.485 73.0871,192.819 72.5,201.5C 72.3713,203.216 72.038,204.883 71.5,206.5C 69.086,207.911 67.4194,209.911 66.5,212.5C 63.8059,221.923 60.4726,231.257 56.5,240.5C 54.5768,244.668 51.9101,248.335 48.5,251.5C 45.2152,252.324 41.8818,252.824 38.5,253C 37.944,253.383 37.6107,253.883 37.5,254.5C 24.785,254.625 12.1183,253.958 -0.5,252.5C -0.5,243.167 -0.5,233.833 -0.5,224.5C 11.8201,223.587 23.8201,221.087 35.5,217C 38.6026,215.561 41.4359,213.727 44,211.5C 49.5529,198.735 51.8863,185.401 51,171.5C 48.1394,167.112 45.8061,162.446 44,157.5C 41.9824,155.65 40.1491,153.65 38.5,151.5C 37.6683,159.813 37.1683,168.147 37,176.5C 35.6155,179.386 33.4488,181.386 30.5,182.5C 27.2356,183.324 23.9023,183.658 20.5,183.5C 13.0252,179.929 6.02517,175.596 -0.5,170.5C -0.5,151.833 -0.5,133.167 -0.5,114.5 Z"/></g>
<g><path style="opacity:1" fill="#88708c" d="M 50.5,125.5 C 51.9778,125.238 53.3112,125.571 54.5,126.5C 54.3764,127.107 54.0431,127.44 53.5,127.5C 52.5,126.833 51.5,126.167 50.5,125.5 Z"/></g>
<g><path style="opacity:1" fill="#c7a5d8" d="M 308.5,127.5 C 309.5,127.5 310.5,127.5 311.5,127.5C 313.5,127.5 315.5,127.5 317.5,127.5C 319.333,129.496 319.833,131.829 319,134.5C 315.295,137.41 311.795,140.41 308.5,143.5C 307.391,143.557 306.391,143.89 305.5,144.5C 304.833,144.5 304.167,144.5 303.5,144.5C 297.167,144.167 293.833,140.833 293.5,134.5C 294.894,132.292 296.894,130.792 299.5,130C 302.678,129.34 305.678,128.507 308.5,127.5 Z"/></g>
<g><path style="opacity:1" fill="#3e1750" d="M 465.5,118.5 C 458.729,122.391 452.063,126.558 445.5,131C 443.234,132.426 441.568,134.26 440.5,136.5C 439.292,135.766 437.959,135.433 436.5,135.5C 438.336,132.832 440.669,130.666 443.5,129C 450.471,124.681 457.804,121.181 465.5,118.5 Z"/></g>
<g><path style="opacity:1" fill="#8d4058" d="M 125.5,104.5 C 119.509,113.795 113.009,122.795 106,131.5C 105.153,133.854 104.32,136.188 103.5,138.5C 99.8298,145.174 96.1631,151.841 92.5,158.5C 92.162,155.843 92.8287,153.51 94.5,151.5C 93.2402,150.618 92.0736,149.618 91,148.5C 90.0151,143.311 90.5151,138.311 92.5,133.5C 98.708,124.385 105.375,115.719 112.5,107.5C 114.253,105.739 116.253,104.406 118.5,103.5C 120.896,104.075 123.229,104.408 125.5,104.5 Z"/></g>
<g><path style="opacity:1" fill="#83318d" d="M 153.5,120.5 C 141.891,130.724 131.057,141.724 121,153.5C 120.392,155.154 119.892,156.821 119.5,158.5C 111.049,169.601 103.049,180.934 95.5,192.5C 92.0923,190.644 88.759,188.977 85.5,187.5C 92.3223,173.855 99.1557,160.189 106,146.5C 108.699,141.744 111.866,137.411 115.5,133.5C 110.483,142.34 113.149,146.507 123.5,146C 131.344,138.989 139.01,131.822 146.5,124.5C 148.725,122.89 151.059,121.557 153.5,120.5 Z"/></g>
<g><path style="opacity:1" fill="#623d73" d="M 345.5,154.5 C 345.293,157.241 344.293,159.574 342.5,161.5C 342.478,153.326 341.312,145.326 339,137.5C 337.392,133.646 334.726,132.646 331,134.5C 329.509,144.121 329.176,153.788 330,163.5C 330.374,164.416 330.874,165.25 331.5,166C 333.97,166.989 336.303,168.155 338.5,169.5C 336.925,173.078 334.925,176.411 332.5,179.5C 330.19,176.898 328.357,173.898 327,170.5C 322.515,156.13 322.515,141.797 327,127.5C 331.251,122.274 335.585,122.274 340,127.5C 343.55,136.129 345.383,145.129 345.5,154.5 Z"/></g>
<g><path style="opacity:1" fill="#835997" d="M 452.5,132.5 C 452.833,132.5 453.167,132.5 453.5,132.5C 454.978,132.238 456.311,132.571 457.5,133.5C 461.183,138.488 462.516,144.155 461.5,150.5C 458.45,152.692 455.117,154.358 451.5,155.5C 449.818,152.636 448.818,149.469 448.5,146C 449.62,141.402 450.954,136.902 452.5,132.5 Z"/></g>
<g><path style="opacity:1" fill="#845a98" d="M 342.5,161.5 C 341.674,164.485 340.341,167.151 338.5,169.5C 336.303,168.155 333.97,166.989 331.5,166C 330.874,165.25 330.374,164.416 330,163.5C 329.176,153.788 329.509,144.121 331,134.5C 334.726,132.646 337.392,133.646 339,137.5C 341.312,145.326 342.478,153.326 342.5,161.5 Z"/></g>
<g><path style="opacity:1" fill="#af88df" d="M 293.5,134.5 C 293.833,140.833 297.167,144.167 303.5,144.5C 302.027,155.865 302.194,167.198 304,178.5C 305.116,181.756 306.949,184.422 309.5,186.5C 312.619,195.355 316.785,203.689 322,211.5C 323.494,212.747 324.994,212.747 326.5,211.5C 328.481,197.873 333.981,185.873 343,175.5C 350.812,162.898 355.312,149.231 356.5,134.5C 378.107,136.622 399.44,140.288 420.5,145.5C 421.5,145.5 422.5,145.5 423.5,145.5C 419.291,149.248 416.624,153.915 415.5,159.5C 413.979,162.708 412.312,165.874 410.5,169C 410.735,169.873 411.069,170.707 411.5,171.5C 410.253,173.323 409.586,175.323 409.5,177.5C 411.685,177.296 413.685,176.63 415.5,175.5C 415.369,176.376 415.702,177.043 416.5,177.5C 425.488,174.628 433.822,170.628 441.5,165.5C 446.225,164.369 450.892,163.036 455.5,161.5C 461.3,167.457 467.633,172.957 474.5,178C 482.618,184.559 483.618,192.059 477.5,200.5C 466.293,202.031 455.293,204.531 444.5,208C 433.926,213.122 423.259,217.955 412.5,222.5C 409.32,220.153 405.653,218.653 401.5,218C 392.806,217.031 384.139,215.864 375.5,214.5C 372.46,215.349 369.626,216.682 367,218.5C 366.667,218.167 366.333,217.833 366,217.5C 359.037,221.104 351.871,221.437 344.5,218.5C 336.565,222.269 328.231,224.769 319.5,226C 311.48,231.022 305.146,237.688 300.5,246C 296.187,245.755 291.853,245.755 287.5,246C 278.042,249.083 275.209,255.25 279,264.5C 281.819,268.493 285.653,270.16 290.5,269.5C 290.219,273.188 289.719,276.855 289,280.5C 287.933,282.283 286.433,282.783 284.5,282C 281.121,280.261 277.788,278.428 274.5,276.5C 273.808,277.025 273.308,277.692 273,278.5C 267.754,273.925 263.254,268.758 259.5,263C 260.694,260.342 259.694,259.176 256.5,259.5C 248.051,251.894 239.384,244.394 230.5,237C 226.812,235.487 223.145,233.987 219.5,232.5C 214.193,229.847 208.86,227.18 203.5,224.5C 203.389,223.883 203.056,223.383 202.5,223C 203.931,222.535 205.097,221.701 206,220.5C 206.109,215.944 207.109,211.611 209,207.5C 209.935,204.405 211.769,202.071 214.5,200.5C 217.5,202.5 220.5,204.5 223.5,206.5C 226.68,211.752 231.347,213.752 237.5,212.5C 241.603,214.258 245.77,215.925 250,217.5C 251.885,217.138 252.719,215.971 252.5,214C 245.971,201.261 240.305,188.095 235.5,174.5C 251.494,158.493 270.161,146.493 291.5,138.5C 292.172,137.051 292.839,135.718 293.5,134.5 Z"/></g>
<g><path style="opacity:1" fill="#c7a5d8" d="M 436.5,135.5 C 437.959,135.433 439.292,135.766 440.5,136.5C 441.167,136.833 441.833,137.167 442.5,137.5C 443.209,138.404 444.209,138.737 445.5,138.5C 445.719,139.675 445.386,140.675 444.5,141.5C 443.261,141.942 442.261,142.609 441.5,143.5C 438.67,143.963 436.003,144.629 433.5,145.5C 432.167,145.5 430.833,145.5 429.5,145.5C 427.5,145.5 425.5,145.5 423.5,145.5C 422.5,145.5 421.5,145.5 420.5,145.5C 417.899,142.663 417.899,139.83 420.5,137C 425.659,134.417 430.992,133.917 436.5,135.5 Z"/></g>
<g><path style="opacity:1" fill="#6a4171" d="M 28.5,131.5 C 28.5,133.5 28.5,135.5 28.5,137.5C 27.5,137.5 26.5,137.5 25.5,137.5C 25.461,134.911 26.461,132.911 28.5,131.5 Z"/></g>
<g><path style="opacity:1" fill="#4e1e57" d="M 21.5,136.5 C 20.6455,140.583 19.4789,144.583 18,148.5C 16.2347,145.968 14.7347,143.301 13.5,140.5C 13.33,139.178 13.6634,138.011 14.5,137C 16.8098,136.503 19.1432,136.337 21.5,136.5 Z"/></g>
<g><path style="opacity:1" fill="#613f70" d="M 452.5,132.5 C 450.954,136.902 449.62,141.402 448.5,146C 448.818,149.469 449.818,152.636 451.5,155.5C 450.22,156.931 448.553,157.598 446.5,157.5C 445.685,156.571 444.852,155.571 444,154.5C 443.581,150.608 442.748,146.942 441.5,143.5C 442.261,142.609 443.261,141.942 444.5,141.5C 445.386,140.675 445.719,139.675 445.5,138.5C 444.209,138.737 443.209,138.404 442.5,137.5C 446.074,136.379 449.408,134.713 452.5,132.5 Z"/></g>
<g><path style="opacity:1" fill="#5b376a" d="M 459.5,128.5 C 461.136,129.749 462.303,131.416 463,133.5C 463.609,138.861 463.442,144.195 462.5,149.5C 462.5,150.167 462.167,150.5 461.5,150.5C 462.516,144.155 461.183,138.488 457.5,133.5C 456.311,132.571 454.978,132.238 453.5,132.5C 455.118,130.684 457.118,129.351 459.5,128.5 Z"/></g>
<g><path style="opacity:1" fill="#411b52" d="M 423.5,145.5 C 425.5,145.5 427.5,145.5 429.5,145.5C 425.167,150.5 420.5,155.167 415.5,159.5C 416.624,153.915 419.291,149.248 423.5,145.5 Z"/></g>
<g><path style="opacity:1" fill="#3e1652" d="M 214.5,152.5 C 211.982,151.736 209.649,150.736 207.5,149.5C 211.142,146.673 213.476,147.673 214.5,152.5 Z"/></g>
<g><path style="opacity:1" fill="#050307" d="M 207.5,149.5 C 209.649,150.736 211.982,151.736 214.5,152.5C 222.904,158.569 229.904,165.902 235.5,174.5C 240.305,188.095 245.971,201.261 252.5,214C 252.719,215.971 251.885,217.138 250,217.5C 245.77,215.925 241.603,214.258 237.5,212.5C 232.794,210.705 228.127,208.705 223.5,206.5C 220.5,204.5 217.5,202.5 214.5,200.5C 210.313,194.127 206.647,187.461 203.5,180.5C 203.833,180.5 204.167,180.5 204.5,180.5C 207.151,183.091 209.818,185.757 212.5,188.5C 214.167,190.833 216.167,192.833 218.5,194.5C 219.992,197.323 222.326,198.99 225.5,199.5C 230.073,203.525 235.406,205.691 241.5,206C 238.928,199.701 236.262,193.534 233.5,187.5C 233.293,184.759 232.293,182.426 230.5,180.5C 230.672,179.508 230.338,178.842 229.5,178.5C 224.182,168.35 216.349,160.683 206,155.5C 205.505,157.473 205.338,159.473 205.5,161.5C 200.185,161.503 198.185,158.836 199.5,153.5C 199.511,151.983 200.177,150.816 201.5,150C 203.473,149.505 205.473,149.338 207.5,149.5 Z"/></g>
<g><path style="opacity:1" fill="#3d1b4d" d="M 441.5,143.5 C 442.748,146.942 443.581,150.608 444,154.5C 444.852,155.571 445.685,156.571 446.5,157.5C 434.311,159.513 423.145,164.18 413,171.5C 412.333,170.5 412.333,169.5 413,168.5C 419.128,160.038 426.294,152.538 434.5,146C 434.272,145.601 433.938,145.435 433.5,145.5C 436.003,144.629 438.67,143.963 441.5,143.5 Z"/></g>
<g><path style="opacity:1" fill="#fc69ff" d="M -0.5,224.5 C -0.5,206.5 -0.5,188.5 -0.5,170.5C 6.02517,175.596 13.0252,179.929 20.5,183.5C 23.3035,184.638 26.3035,184.805 29.5,184C 30.056,183.617 30.3893,183.117 30.5,182.5C 33.4488,181.386 35.6155,179.386 37,176.5C 37.1683,168.147 37.6683,159.813 38.5,151.5C 40.1491,153.65 41.9824,155.65 44,157.5C 45.8061,162.446 48.1394,167.112 51,171.5C 51.8863,185.401 49.5529,198.735 44,211.5C 41.4359,213.727 38.6026,215.561 35.5,217C 23.8201,221.087 11.8201,223.587 -0.5,224.5 Z"/></g>
<g><path style="opacity:1" fill="#3b124d" d="M 303.5,144.5 C 304.167,144.5 304.833,144.5 305.5,144.5C 303.272,158.869 304.605,172.869 309.5,186.5C 306.949,184.422 305.116,181.756 304,178.5C 302.194,167.198 302.027,155.865 303.5,144.5 Z"/></g>
<g><path style="opacity:1" fill="#431a54" d="M 199.5,153.5 C 198.185,158.836 200.185,161.503 205.5,161.5C 205.338,159.473 205.505,157.473 206,155.5C 216.349,160.683 224.182,168.35 229.5,178.5C 218.568,172.801 212.901,176.134 212.5,188.5C 209.818,185.757 207.151,183.091 204.5,180.5C 207.744,178.445 210.91,176.111 214,173.5C 214.923,169.419 213.256,167.419 209,167.5C 205.857,168.107 202.69,168.441 199.5,168.5C 198.707,163.327 198.707,158.327 199.5,153.5 Z"/></g>
<g><path style="opacity:1" fill="#a86c74" d="M 54.5,156.5 C 58.8333,160.167 62.8333,164.167 66.5,168.5C 58.8504,168.184 54.8504,164.184 54.5,156.5 Z"/></g>
<g><path style="opacity:1" fill="#53215d" d="M 191.5,156.5 C 189.049,159.77 186.382,162.77 183.5,165.5C 182.828,166.267 181.995,166.934 181,167.5C 180.333,166.833 180.333,166.167 181,165.5C 184.098,161.893 187.598,158.893 191.5,156.5 Z"/></g>
<g><path style="opacity:1" fill="#7c3f7a" d="M 92.5,158.5 C 87.3429,170.811 81.6762,182.811 75.5,194.5C 76.5151,188.438 77.8485,182.438 79.5,176.5C 79.8333,176.5 80.1667,176.5 80.5,176.5C 84.0096,170.296 88.0096,164.296 92.5,158.5 Z"/></g>
<g><path style="opacity:1" fill="#c7a5d9" d="M 204.5,180.5 C 204.167,180.5 203.833,180.5 203.5,180.5C 199.612,181.973 195.612,182.473 191.5,182C 188.152,180.023 186.652,177.19 187,173.5C 190.713,170.761 194.88,169.094 199.5,168.5C 202.69,168.441 205.857,168.107 209,167.5C 213.256,167.419 214.923,169.419 214,173.5C 210.91,176.111 207.744,178.445 204.5,180.5 Z"/></g>
<g><path style="opacity:1" fill="#3d154f" d="M 441.5,165.5 C 433.822,170.628 425.488,174.628 416.5,177.5C 415.702,177.043 415.369,176.376 415.5,175.5C 420.928,173.287 426.261,170.787 431.5,168C 434.72,166.648 438.053,165.814 441.5,165.5 Z"/></g>
<g><path style="opacity:1" fill="#5e326e" d="M 229.5,178.5 C 230.338,178.842 230.672,179.508 230.5,180.5C 227.418,178.931 224.585,179.265 222,181.5C 219.646,185.533 218.48,189.866 218.5,194.5C 216.167,192.833 214.167,190.833 212.5,188.5C 212.901,176.134 218.568,172.801 229.5,178.5 Z"/></g>
<g><path style="opacity:1" fill="#835997" d="M 230.5,180.5 C 232.293,182.426 233.293,184.759 233.5,187.5C 234.35,193.964 231.683,197.964 225.5,199.5C 222.326,198.99 219.992,197.323 218.5,194.5C 218.48,189.866 219.646,185.533 222,181.5C 224.585,179.265 227.418,178.931 230.5,180.5 Z"/></g>
<g><path style="opacity:1" fill="#b69abc" d="M 78.5,176.5 C 78.8333,176.5 79.1667,176.5 79.5,176.5C 77.8485,182.438 76.5151,188.438 75.5,194.5C 74.6772,196.987 73.6772,199.321 72.5,201.5C 73.0871,192.819 75.0871,184.485 78.5,176.5 Z"/></g>
<g><path style="opacity:1" fill="#feb4ff" d="M 30.5,182.5 C 30.3893,183.117 30.056,183.617 29.5,184C 26.3035,184.805 23.3035,184.638 20.5,183.5C 23.9023,183.658 27.2356,183.324 30.5,182.5 Z"/></g>
<g><path style="opacity:1" fill="#4b265c" d="M 233.5,187.5 C 236.262,193.534 238.928,199.701 241.5,206C 235.406,205.691 230.073,203.525 225.5,199.5C 231.683,197.964 234.35,193.964 233.5,187.5 Z"/></g>
<g><path style="opacity:1" fill="#050407" d="M 490.5,201.5 C 490.768,203.099 490.434,204.432 489.5,205.5C 476.64,206.504 463.973,208.671 451.5,212C 434.346,219.08 417.68,226.913 401.5,235.5C 399.302,235.125 397.302,234.458 395.5,233.5C 401.033,229.571 406.7,225.904 412.5,222.5C 423.259,217.955 433.926,213.122 444.5,208C 455.293,204.531 466.293,202.031 477.5,200.5C 480.884,200.66 484.217,200.327 487.5,199.5C 489.038,199.453 490.038,200.12 490.5,201.5 Z"/></g>
<g><path style="opacity:1" fill="#401852" d="M 490.5,201.5 C 491.268,202.263 491.768,203.263 492,204.5C 494.382,203.446 496.882,202.779 499.5,202.5C 499.5,206.167 499.5,209.833 499.5,213.5C 496.431,210.423 493.097,207.756 489.5,205.5C 490.434,204.432 490.768,203.099 490.5,201.5 Z"/></g>
<g><path style="opacity:1" fill="#340e3d" d="M 143.5,230.5 C 142.884,231.798 142.884,232.798 143.5,233.5C 138.205,236.554 133.039,239.887 128,243.5C 127.333,245.167 127.333,246.833 128,248.5C 130.375,250.52 132.875,252.187 135.5,253.5C 130.674,276.281 127.341,299.281 125.5,322.5C 118.09,324.019 110.757,325.852 103.5,328C 96.3783,332.86 94.5449,339.36 98,347.5C 104.184,353.675 111.684,357.341 120.5,358.5C 120.918,359.222 121.584,359.722 122.5,360C 119.735,360.421 118.568,361.921 119,364.5C 120,363.167 121,363.167 122,364.5C 122.556,362.405 123.056,362.238 123.5,364C 122.743,370.613 120.243,376.447 116,381.5C 115.077,380.241 114.243,378.908 113.5,377.5C 108.579,380.671 107.079,385.004 109,390.5C 107.878,392.624 106.378,394.457 104.5,396C 101.79,397.015 99.4566,398.515 97.5,400.5C 94.5535,401.321 91.5535,401.821 88.5,402C 89.5,402.333 90.5,402.667 91.5,403C 89.8333,403.333 88.1667,403.667 86.5,404C 89.7699,404.124 91.4366,405.791 91.5,409C 89.5457,420.115 82.8791,425.615 71.5,425.5C 70.3044,425.154 70.3044,424.654 71.5,424C 70.5,423.5 69.5,423 68.5,422.5C 67.549,423.326 66.549,423.492 65.5,423C 66.6039,421.869 66.2705,421.035 64.5,420.5C 63.549,421.326 62.549,421.492 61.5,421C 56.1667,417 50.8333,413 45.5,409C 46.428,408.612 47.0946,407.945 47.5,407C 41.0837,398.579 33.917,390.746 26,383.5C 19.6667,373.5 13.3333,363.5 7,353.5C 5.78733,350.232 5.454,346.899 6,343.5C 8.14128,346.321 10.9746,347.654 14.5,347.5C 13.0426,342.461 11.376,337.461 9.5,332.5C 6.83538,330.004 4.16872,327.67 1.5,325.5C 0.833333,325.5 0.166667,325.5 -0.5,325.5C -0.5,314.5 -0.5,303.5 -0.5,292.5C 17.1443,291.698 34.811,291.698 52.5,292.5C 55.428,293.82 58.7614,294.486 62.5,294.5C 73.5114,296.777 78.6781,292.444 78,281.5C 78.6667,280.167 79.6667,279.167 81,278.5C 80.779,269.305 83.9457,261.638 90.5,255.5C 98.3,242.062 106.967,229.229 116.5,217C 117.167,216.333 117.833,216.333 118.5,217C 120.096,220.048 122.263,222.548 125,224.5C 131.954,219.052 138.788,213.385 145.5,207.5C 145.353,214.913 144.02,222.247 141.5,229.5C 141.957,230.298 142.624,230.631 143.5,230.5 Z"/></g>
<g><path style="opacity:1" fill="#3c154e" d="M 223.5,206.5 C 228.127,208.705 232.794,210.705 237.5,212.5C 231.347,213.752 226.68,211.752 223.5,206.5 Z"/></g>
<g><path style="opacity:1" fill="#6a3874" d="M 71.5,206.5 C 68.7758,215.774 67.1092,225.107 66.5,234.5C 65.0051,232.669 64.3384,230.502 64.5,228C 66.115,223.042 66.7816,217.875 66.5,212.5C 67.4194,209.911 69.086,207.911 71.5,206.5 Z"/></g>
<g><path style="opacity:1" fill="#371544" d="M 221.5,242.5 C 216.873,240.288 212.206,240.121 207.5,242C 206.934,242.995 206.267,243.828 205.5,244.5C 205.719,243.325 205.386,242.325 204.5,241.5C 202.106,239.932 199.606,238.599 197,237.5C 188.521,238.257 180.021,239.257 171.5,240.5C 169.44,240.428 167.44,240.095 165.5,239.5C 164.83,241.291 164.163,242.958 163.5,244.5C 163.579,241.729 163.079,239.063 162,236.5C 158.725,235.054 155.558,233.388 152.5,231.5C 155.439,228.082 159.106,225.582 163.5,224C 185.218,223.074 204.551,229.241 221.5,242.5 Z"/></g>
<g><path style="opacity:1" fill="#652f70" d="M 85.5,187.5 C 88.759,188.977 92.0923,190.644 95.5,192.5C 96.7298,194.297 97.3964,196.297 97.5,198.5C 95.9903,208.864 93.157,218.864 89,228.5C 80.8992,244.383 72.0659,259.716 62.5,274.5C 54.7159,278.433 48.5493,276.766 44,269.5C 43.5026,266.854 43.3359,264.187 43.5,261.5C 42.1667,261.5 40.8333,261.5 39.5,261.5C 45.2459,260.812 50.9126,259.312 56.5,257C 61.7128,252.075 65.5461,246.241 68,239.5C 70.173,220.813 76.0064,203.48 85.5,187.5 Z"/></g>
<g><path style="opacity:1" fill="#c6a4d7" d="M 152.5,231.5 C 155.558,233.388 158.725,235.054 162,236.5C 163.079,239.063 163.579,241.729 163.5,244.5C 157.194,249.829 149.861,252.829 141.5,253.5C 139.5,253.5 137.5,253.5 135.5,253.5C 132.875,252.187 130.375,250.52 128,248.5C 127.333,246.833 127.333,245.167 128,243.5C 133.039,239.887 138.205,236.554 143.5,233.5C 146.402,232.422 149.402,231.756 152.5,231.5 Z"/></g>
<g><path style="opacity:1" fill="#2d1239" d="M 489.5,205.5 C 493.097,207.756 496.431,210.423 499.5,213.5C 499.5,234.167 499.5,254.833 499.5,275.5C 494.76,280.875 488.76,284.209 481.5,285.5C 481.666,276.494 481.5,267.494 481,258.5C 480.79,256.942 480.29,255.609 479.5,254.5C 478.198,247.56 476.032,240.894 473,234.5C 464.447,223.885 455.947,223.885 447.5,234.5C 446.055,251.059 449.221,266.726 457,281.5C 459.364,284.69 461.864,287.69 464.5,290.5C 464.539,291.583 464.873,292.583 465.5,293.5C 462.65,295.865 460.816,298.865 460,302.5C 456.653,304.06 453.153,305.227 449.5,306C 451.134,306.494 452.801,306.66 454.5,306.5C 437.688,307.02 421.022,309.353 404.5,313.5C 403.274,310.796 401.107,309.463 398,309.5C 384.448,313.375 373.114,310.042 364,299.5C 363.138,297.913 362.471,296.246 362,294.5C 361.71,287.964 361.544,281.631 361.5,275.5C 366.344,267.812 371.677,260.479 377.5,253.5C 387.95,254.972 397.617,252.805 406.5,247C 408.524,244.36 408.857,241.527 407.5,238.5C 405.081,238.086 403.081,237.086 401.5,235.5C 417.68,226.913 434.346,219.08 451.5,212C 463.973,208.671 476.64,206.504 489.5,205.5 Z"/></g>
<g><path style="opacity:1" fill="#c6a4d7" d="M 395.5,233.5 C 397.302,234.458 399.302,235.125 401.5,235.5C 403.081,237.086 405.081,238.086 407.5,238.5C 408.857,241.527 408.524,244.36 406.5,247C 397.617,252.805 387.95,254.972 377.5,253.5C 375.833,252.5 374.5,251.167 373.5,249.5C 373.587,244.912 375.587,241.412 379.5,239C 384.65,236.548 389.984,234.715 395.5,233.5 Z"/></g>
<g><path style="opacity:1" fill="#81568a" d="M 66.5,212.5 C 66.7816,217.875 66.115,223.042 64.5,228C 64.3384,230.502 65.0051,232.669 66.5,234.5C 66.6602,236.199 66.4935,237.866 66,239.5C 64.8668,237.789 63.3668,237.289 61.5,238C 60.3456,241.537 58.679,244.703 56.5,247.5C 56.5,245.167 56.5,242.833 56.5,240.5C 60.4726,231.257 63.8059,221.923 66.5,212.5 Z"/></g>
<g><path style="opacity:1" fill="#5c396b" d="M 479.5,254.5 C 480.476,266.486 480.642,278.486 480,290.5C 478.741,293.217 476.574,294.55 473.5,294.5C 470.327,293.554 467.327,292.22 464.5,290.5C 461.864,287.69 459.364,284.69 457,281.5C 449.221,266.726 446.055,251.059 447.5,234.5C 455.947,223.885 464.447,223.885 473,234.5C 476.032,240.894 478.198,247.56 479.5,254.5 Z"/></g>
<g><path style="opacity:1" fill="#845a98" d="M 458.5,232.5 C 460.936,232.317 463.103,232.984 465,234.5C 473.748,250.148 477.415,266.815 476,284.5C 471.374,288.779 467.374,288.113 464,282.5C 455.916,266.374 454.082,249.708 458.5,232.5 Z"/></g>
<g><path style="opacity:1" fill="#2d1139" d="M 205.5,244.5 C 204.496,245.683 203.662,247.016 203,248.5C 201.709,262.836 203.209,276.836 207.5,290.5C 201.158,290.666 194.825,290.5 188.5,290C 181.691,287.943 174.691,286.943 167.5,287C 157.239,284.376 147.239,280.876 137.5,276.5C 138.833,268.833 140.167,261.167 141.5,253.5C 149.861,252.829 157.194,249.829 163.5,244.5C 164.163,242.958 164.83,241.291 165.5,239.5C 167.44,240.095 169.44,240.428 171.5,240.5C 180.021,239.257 188.521,238.257 197,237.5C 199.606,238.599 202.106,239.932 204.5,241.5C 205.386,242.325 205.719,243.325 205.5,244.5 Z"/></g>
<g><path style="opacity:1" fill="#5c396b" d="M 221.5,242.5 C 223.062,242.733 224.395,243.4 225.5,244.5C 226.75,247.067 227.917,249.733 229,252.5C 229.5,264.829 229.667,277.162 229.5,289.5C 227.777,291.78 227.111,294.447 227.5,297.5C 220.423,295.646 213.423,293.979 206.5,292.5C 208.424,292.289 208.757,291.623 207.5,290.5C 203.209,276.836 201.709,262.836 203,248.5C 203.662,247.016 204.496,245.683 205.5,244.5C 206.267,243.828 206.934,242.995 207.5,242C 212.206,240.121 216.873,240.288 221.5,242.5 Z"/></g>
<g><path style="opacity:1" fill="#97769e" d="M 56.5,240.5 C 56.5,242.833 56.5,245.167 56.5,247.5C 51.6882,253.553 45.3548,255.886 37.5,254.5C 37.6107,253.883 37.944,253.383 38.5,253C 41.8818,252.824 45.2152,252.324 48.5,251.5C 51.9101,248.335 54.5768,244.668 56.5,240.5 Z"/></g>
<g><path style="opacity:1" fill="#845a97" d="M 213.5,249.5 C 216.862,249.07 219.695,250.07 222,252.5C 226.5,265.501 226.5,278.501 222,291.5C 218.154,294.55 215.154,293.884 213,289.5C 210.702,278.272 210.035,266.939 211,255.5C 211.236,253.189 212.069,251.189 213.5,249.5 Z"/></g>
<g><path style="opacity:1" fill="#070409" d="M 373.5,249.5 C 374.5,251.167 375.833,252.5 377.5,253.5C 371.677,260.479 366.344,267.812 361.5,275.5C 358.753,281.328 355.753,286.995 352.5,292.5C 354.419,275.663 361.419,261.329 373.5,249.5 Z"/></g>
<g><path style="opacity:1" fill="#030104" d="M 135.5,253.5 C 137.5,253.5 139.5,253.5 141.5,253.5C 140.167,261.167 138.833,268.833 137.5,276.5C 136.059,284.149 134.725,291.816 133.5,299.5C 132.833,307.167 132.167,314.833 131.5,322.5C 129.5,322.5 127.5,322.5 125.5,322.5C 127.341,299.281 130.674,276.281 135.5,253.5 Z"/></g>
<g><path style="opacity:1" fill="#3d164f" d="M 219.5,232.5 C 223.145,233.987 226.812,235.487 230.5,237C 239.384,244.394 248.051,251.894 256.5,259.5C 258.567,268.3 262.734,275.967 269,282.5C 271.539,288.58 274.372,294.58 277.5,300.5C 276.807,301.518 276.141,302.518 275.5,303.5C 268.725,288.62 260.892,274.286 252,260.5C 246.833,255.333 241.667,250.167 236.5,245C 230.766,240.812 225.099,236.646 219.5,232.5 Z"/></g>
<g><path style="opacity:1" fill="#6d2879" d="M -0.5,258.5 C 12.771,260.253 26.1044,261.253 39.5,261.5C 40.8333,261.5 42.1667,261.5 43.5,261.5C 43.3359,264.187 43.5026,266.854 44,269.5C 48.5493,276.766 54.7159,278.433 62.5,274.5C 60.7786,276.694 58.4453,277.861 55.5,278C 53.9585,282.533 51.2919,286.2 47.5,289C 31.4756,289.228 15.4756,289.728 -0.5,290.5C -0.5,279.833 -0.5,269.167 -0.5,258.5 Z"/></g>
<g><path style="opacity:1" fill="#30123b" d="M 225.5,244.5 C 234.242,250.801 242.076,258.134 249,266.5C 254.675,277.192 260.841,287.525 267.5,297.5C 264.071,299.886 260.238,300.886 256,300.5C 246.888,300.329 238.055,298.996 229.5,296.5C 229.5,294.167 229.5,291.833 229.5,289.5C 229.667,277.162 229.5,264.829 229,252.5C 227.917,249.733 226.75,247.067 225.5,244.5 Z"/></g>
<g><path style="opacity:1" fill="#401850" d="M 137.5,276.5 C 147.239,280.876 157.239,284.376 167.5,287C 174.691,286.943 181.691,287.943 188.5,290C 194.825,290.5 201.158,290.666 207.5,290.5C 208.757,291.623 208.424,292.289 206.5,292.5C 190.412,291.943 174.412,292.777 158.5,295C 155.256,295.97 152.09,297.137 149,298.5C 146.618,297.256 144.785,295.423 143.5,293C 141.866,292.506 140.199,292.34 138.5,292.5C 138.014,295.755 139.014,298.422 141.5,300.5C 141.376,301.107 141.043,301.44 140.5,301.5C 140.389,300.883 140.056,300.383 139.5,300C 137.527,299.505 135.527,299.338 133.5,299.5C 134.725,291.816 136.059,284.149 137.5,276.5 Z"/></g>
<g><path style="opacity:1" fill="#361544" d="M 479.5,254.5 C 480.29,255.609 480.79,256.942 481,258.5C 481.5,267.494 481.666,276.494 481.5,285.5C 488.76,284.209 494.76,280.875 499.5,275.5C 499.5,285.833 499.5,296.167 499.5,306.5C 484.5,306.5 469.5,306.5 454.5,306.5C 452.801,306.66 451.134,306.494 449.5,306C 453.153,305.227 456.653,304.06 460,302.5C 460.816,298.865 462.65,295.865 465.5,293.5C 464.873,292.583 464.539,291.583 464.5,290.5C 467.327,292.22 470.327,293.554 473.5,294.5C 476.574,294.55 478.741,293.217 480,290.5C 480.642,278.486 480.476,266.486 479.5,254.5 Z"/></g>
<g><path style="opacity:1" fill="#3f174f" d="M 361.5,275.5 C 361.544,281.631 361.71,287.964 362,294.5C 362.471,296.246 363.138,297.913 364,299.5C 373.114,310.042 384.448,313.375 398,309.5C 401.107,309.463 403.274,310.796 404.5,313.5C 399.075,315.377 393.741,317.544 388.5,320C 393.235,319.652 397.901,318.652 402.5,317C 413.108,315.365 423.774,314.532 434.5,314.5C 432.337,315.469 430.004,316.302 427.5,317C 413.549,317.088 400.049,319.588 387,324.5C 381.807,323.533 376.974,321.7 372.5,319C 371.695,317.887 371.028,316.721 370.5,315.5C 374.931,317.215 379.265,319.215 383.5,321.5C 384.958,319.862 385.292,318.195 384.5,316.5C 374.049,312.353 363.716,308.019 353.5,303.5C 351.431,299.956 351.098,296.29 352.5,292.5C 355.753,286.995 358.753,281.328 361.5,275.5 Z"/></g>
<g><path style="opacity:1" fill="#040205" d="M 483.5,69.5 C 489.004,71.4457 494.337,73.779 499.5,76.5C 499.5,78.8333 499.5,81.1667 499.5,83.5C 474.954,69.6139 448.621,62.7806 420.5,63C 401.148,64.2673 381.815,65.6007 362.5,67C 347.046,71.2623 331.713,75.929 316.5,81C 269.98,98.5735 228.313,123.74 191.5,156.5C 187.598,158.893 184.098,161.893 181,165.5C 180.333,166.167 180.333,166.833 181,167.5C 181.995,166.934 182.828,166.267 183.5,165.5C 184.376,165.369 185.043,165.702 185.5,166.5C 183.92,170.912 181.087,174.245 177,176.5C 166.067,192.017 158.234,208.683 153.5,226.5C 156.619,224.274 159.952,222.607 163.5,221.5C 163.33,220.178 163.663,219.011 164.5,218C 177.91,217.801 190.91,219.967 203.5,224.5C 208.86,227.18 214.193,229.847 219.5,232.5C 225.099,236.646 230.766,240.812 236.5,245C 241.667,250.167 246.833,255.333 252,260.5C 260.892,274.286 268.725,288.62 275.5,303.5C 275.67,304.822 275.337,305.989 274.5,307C 269.546,310.285 264.88,313.952 260.5,318C 259.552,318.483 258.552,318.649 257.5,318.5C 254.164,316.269 250.497,314.603 246.5,313.5C 238.239,308.078 229.239,304.411 219.5,302.5C 217.485,301.076 215.152,300.41 212.5,300.5C 209.873,299.908 207.206,299.575 204.5,299.5C 191.312,298.244 177.979,298.411 164.5,300C 158.252,300.912 152.585,303.078 147.5,306.5C 144.824,307.008 142.157,307.175 139.5,307C 137.922,304.661 138.255,302.828 140.5,301.5C 141.043,301.44 141.376,301.107 141.5,300.5C 139.014,298.422 138.014,295.755 138.5,292.5C 140.199,292.34 141.866,292.506 143.5,293C 144.785,295.423 146.618,297.256 149,298.5C 152.09,297.137 155.256,295.97 158.5,295C 174.412,292.777 190.412,291.943 206.5,292.5C 213.423,293.979 220.423,295.646 227.5,297.5C 238.01,301.757 248.01,307.09 257.5,313.5C 263.201,311.662 268.535,309.162 273.5,306C 271.28,303.287 269.28,300.454 267.5,297.5C 260.841,287.525 254.675,277.192 249,266.5C 242.076,258.134 234.242,250.801 225.5,244.5C 224.395,243.4 223.062,242.733 221.5,242.5C 204.551,229.241 185.218,223.074 163.5,224C 159.106,225.582 155.439,228.082 152.5,231.5C 149.402,231.756 146.402,232.422 143.5,233.5C 142.884,232.798 142.884,231.798 143.5,230.5C 146.075,225.312 148.575,219.978 151,214.5C 155.636,208.224 158.97,201.224 161,193.5C 166.039,180.571 173.205,169.071 182.5,159C 192.731,149.927 203.064,141.094 213.5,132.5C 228.453,120.388 244.12,109.221 260.5,99C 276.167,92 291.833,85 307.5,78C 323.966,72.0499 340.633,66.7166 357.5,62C 368.234,60.1423 378.901,58.9756 389.5,58.5C 407.156,57.4773 424.822,56.9773 442.5,57C 456.635,59.7815 470.302,63.9482 483.5,69.5 Z"/></g>
<g><path style="opacity:1" fill="#9c77cb" d="M 133.5,299.5 C 135.527,299.338 137.527,299.505 139.5,300C 140.056,300.383 140.389,300.883 140.5,301.5C 138.255,302.828 137.922,304.661 139.5,307C 142.157,307.175 144.824,307.008 147.5,306.5C 149.401,306.433 151.234,306.767 153,307.5C 162.297,304.301 171.797,301.967 181.5,300.5C 178.764,302.554 176.431,305.054 174.5,308C 160.805,306.863 154.472,313.363 155.5,327.5C 148.513,326.169 141.513,324.836 134.5,323.5C 133.416,323.685 132.416,324.018 131.5,324.5C 131.5,323.833 131.5,323.167 131.5,322.5C 132.167,314.833 132.833,307.167 133.5,299.5 Z"/></g>
<g><path style="opacity:1" fill="#3c134e" d="M 204.5,299.5 C 196.699,299.926 189.032,300.259 181.5,300.5C 171.797,301.967 162.297,304.301 153,307.5C 151.234,306.767 149.401,306.433 147.5,306.5C 152.585,303.078 158.252,300.912 164.5,300C 177.979,298.411 191.312,298.244 204.5,299.5 Z"/></g>
<g><path style="opacity:1" fill="#af89df" d="M 204.5,299.5 C 207.206,299.575 209.873,299.908 212.5,300.5C 213.5,301.167 214.5,301.833 215.5,302.5C 204.485,302.065 201.485,306.565 206.5,316C 210.787,317.488 215.12,318.822 219.5,320C 234.661,328.08 249.661,336.413 264.5,345C 268.295,345.837 271.961,345.504 275.5,344C 278.899,337.932 283.065,332.432 288,327.5C 289.667,329.833 291.333,332.167 293,334.5C 293.969,337.328 293.303,339.662 291,341.5C 289.667,341.5 288.333,341.5 287,341.5C 285.903,343.053 284.57,344.386 283,345.5C 281.984,344.366 281.317,344.699 281,346.5C 279.984,345.366 279.317,345.699 279,347.5C 278.667,347.167 278.333,346.833 278,346.5C 277.552,348.224 276.718,348.891 275.5,348.5C 281.547,353.818 287.714,353.818 294,348.5C 294.692,349.025 295.192,349.692 295.5,350.5C 289.322,361.749 279.989,365.583 267.5,362C 262.637,358.46 257.804,354.96 253,351.5C 252.282,352.451 251.449,352.617 250.5,352C 249.391,348.85 247.725,346.85 245.5,346C 243.314,344.691 241.147,344.524 239,345.5C 237.846,343.043 236.512,343.043 235,345.5C 234.667,344.5 234.333,343.5 234,342.5C 230.845,345.564 229.512,345.23 230,341.5C 229.196,342.804 228.029,343.471 226.5,343.5C 222.866,342.404 219.199,341.904 215.5,342C 214.833,342.667 214.167,343.333 213.5,344C 219.052,348.278 222.718,353.778 224.5,360.5C 223.267,363.735 221.601,366.735 219.5,369.5C 223.474,375.47 227.807,381.137 232.5,386.5C 231.033,385.708 229.7,385.708 228.5,386.5C 229.833,388.167 231.167,389.833 232.5,391.5C 231.48,393.432 231.313,395.432 232,397.5C 241.686,429.096 260.186,453.93 287.5,472C 292.31,474.827 297.476,476.327 303,476.5C 313.051,475.797 322.885,473.964 332.5,471C 355.817,453.523 363.65,430.69 356,402.5C 354.526,399.244 353.36,395.911 352.5,392.5C 359.216,382.386 366.049,382.052 373,391.5C 374.266,395.644 376.099,399.477 378.5,403C 378.167,403.333 377.833,403.667 377.5,404C 379.06,407.347 380.227,410.847 381,414.5C 382.333,415.167 383.667,415.833 385,416.5C 388.947,414.22 392.613,411.553 396,408.5C 396.777,400.981 398.443,393.647 401,386.5C 405.585,377.658 410.918,369.325 417,361.5C 416.874,364.098 415.874,366.431 414,368.5C 411.079,375.478 412.579,381.312 418.5,386C 414.244,392.26 409.244,397.927 403.5,403C 403.833,403.167 404.167,403.333 404.5,403.5C 416.253,392.636 427.087,380.969 437,368.5C 438.131,363.743 438.965,358.91 439.5,354C 441.354,352.477 442.854,350.644 444,348.5C 445.073,348.201 446.24,348.201 447.5,348.5C 448.552,348.351 449.552,348.517 450.5,349C 454.998,355.082 460.998,357.582 468.5,356.5C 474.982,356.1 481.315,354.933 487.5,353C 491.486,352.501 495.486,352.334 499.5,352.5C 499.5,383.167 499.5,413.833 499.5,444.5C 492.52,461.004 481.853,474.837 467.5,486C 461.1,490.522 454.767,495.022 448.5,499.5C 384.833,499.5 321.167,499.5 257.5,499.5C 208.758,464.096 175.092,417.763 156.5,360.5C 169.309,357.859 174.142,350.192 171,337.5C 166.5,333.008 161.333,329.675 155.5,327.5C 154.472,313.363 160.805,306.863 174.5,308C 176.431,305.054 178.764,302.554 181.5,300.5C 189.032,300.259 196.699,299.926 204.5,299.5 Z"/></g>
<g><path style="opacity:1" fill="#401850" d="M 229.5,289.5 C 229.5,291.833 229.5,294.167 229.5,296.5C 238.055,298.996 246.888,300.329 256,300.5C 260.238,300.886 264.071,299.886 267.5,297.5C 269.28,300.454 271.28,303.287 273.5,306C 268.535,309.162 263.201,311.662 257.5,313.5C 248.01,307.09 238.01,301.757 227.5,297.5C 227.111,294.447 227.777,291.78 229.5,289.5 Z"/></g>
<g><path style="opacity:1" fill="#b18be1" d="M 412.5,222.5 C 406.7,225.904 401.033,229.571 395.5,233.5C 389.984,234.715 384.65,236.548 379.5,239C 375.587,241.412 373.587,244.912 373.5,249.5C 361.419,261.329 354.419,275.663 352.5,292.5C 351.098,296.29 351.431,299.956 353.5,303.5C 353.328,304.492 353.662,305.158 354.5,305.5C 357.448,310.985 362.115,313.985 368.5,314.5C 368.842,315.338 369.508,315.672 370.5,315.5C 371.028,316.721 371.695,317.887 372.5,319C 376.974,321.7 381.807,323.533 387,324.5C 400.049,319.588 413.549,317.088 427.5,317C 430.004,316.302 432.337,315.469 434.5,314.5C 456.125,313.533 477.792,312.866 499.5,312.5C 499.5,314.5 499.5,316.5 499.5,318.5C 491.036,318.799 482.702,319.966 474.5,322C 465.383,324.868 456.383,328.202 447.5,332C 445.791,333.916 444.457,336.082 443.5,338.5C 443.972,342.264 445.305,345.598 447.5,348.5C 446.24,348.201 445.073,348.201 444,348.5C 442.854,350.644 441.354,352.477 439.5,354C 438.965,358.91 438.131,363.743 437,368.5C 427.087,380.969 416.253,392.636 404.5,403.5C 404.167,403.333 403.833,403.167 403.5,403C 409.244,397.927 414.244,392.26 418.5,386C 412.579,381.312 411.079,375.478 414,368.5C 415.874,366.431 416.874,364.098 417,361.5C 410.918,369.325 405.585,377.658 401,386.5C 398.443,393.647 396.777,400.981 396,408.5C 392.613,411.553 388.947,414.22 385,416.5C 383.667,415.833 382.333,415.167 381,414.5C 380.227,410.847 379.06,407.347 377.5,404C 377.833,403.667 378.167,403.333 378.5,403C 376.099,399.477 374.266,395.644 373,391.5C 366.049,382.052 359.216,382.386 352.5,392.5C 347.286,381.743 341.286,371.41 334.5,361.5C 333.205,360.512 331.872,359.512 330.5,358.5C 328.598,357.489 326.598,357.322 324.5,358C 323.29,362.983 320.957,367.316 317.5,371C 306.047,378.095 293.714,382.928 280.5,385.5C 275.857,384.517 271.191,384.35 266.5,385C 255.297,388.968 243.963,389.468 232.5,386.5C 227.807,381.137 223.474,375.47 219.5,369.5C 221.601,366.735 223.267,363.735 224.5,360.5C 222.718,353.778 219.052,348.278 213.5,344C 214.167,343.333 214.833,342.667 215.5,342C 219.199,341.904 222.866,342.404 226.5,343.5C 228.029,343.471 229.196,342.804 230,341.5C 229.512,345.23 230.845,345.564 234,342.5C 234.333,343.5 234.667,344.5 235,345.5C 236.512,343.043 237.846,343.043 239,345.5C 241.147,344.524 243.314,344.691 245.5,346C 247.725,346.85 249.391,348.85 250.5,352C 251.449,352.617 252.282,352.451 253,351.5C 257.804,354.96 262.637,358.46 267.5,362C 279.989,365.583 289.322,361.749 295.5,350.5C 295.192,349.692 294.692,349.025 294,348.5C 287.714,353.818 281.547,353.818 275.5,348.5C 276.718,348.891 277.552,348.224 278,346.5C 278.333,346.833 278.667,347.167 279,347.5C 279.317,345.699 279.984,345.366 281,346.5C 281.317,344.699 281.984,344.366 283,345.5C 284.57,344.386 285.903,343.053 287,341.5C 288.333,341.5 289.667,341.5 291,341.5C 293.303,339.662 293.969,337.328 293,334.5C 291.333,332.167 289.667,329.833 288,327.5C 283.065,332.432 278.899,337.932 275.5,344C 271.961,345.504 268.295,345.837 264.5,345C 249.661,336.413 234.661,328.08 219.5,320C 215.12,318.822 210.787,317.488 206.5,316C 201.485,306.565 204.485,302.065 215.5,302.5C 216.833,302.5 218.167,302.5 219.5,302.5C 229.239,304.411 238.239,308.078 246.5,313.5C 248.726,317.442 252.059,319.609 256.5,320C 257.056,319.617 257.389,319.117 257.5,318.5C 258.552,318.649 259.552,318.483 260.5,318C 264.88,313.952 269.546,310.285 274.5,307C 275.337,305.989 275.67,304.822 275.5,303.5C 276.141,302.518 276.807,301.518 277.5,300.5C 274.372,294.58 271.539,288.58 269,282.5C 262.734,275.967 258.567,268.3 256.5,259.5C 259.694,259.176 260.694,260.342 259.5,263C 263.254,268.758 267.754,273.925 273,278.5C 273.308,277.692 273.808,277.025 274.5,276.5C 277.788,278.428 281.121,280.261 284.5,282C 286.433,282.783 287.933,282.283 289,280.5C 289.719,276.855 290.219,273.188 290.5,269.5C 285.653,270.16 281.819,268.493 279,264.5C 275.209,255.25 278.042,249.083 287.5,246C 291.853,245.755 296.187,245.755 300.5,246C 305.146,237.688 311.48,231.022 319.5,226C 328.231,224.769 336.565,222.269 344.5,218.5C 351.871,221.437 359.037,221.104 366,217.5C 366.333,217.833 366.667,218.167 367,218.5C 369.626,216.682 372.46,215.349 375.5,214.5C 384.139,215.864 392.806,217.031 401.5,218C 405.653,218.653 409.32,220.153 412.5,222.5 Z"/></g>
<g><path style="opacity:1" fill="#49245b" d="M 212.5,300.5 C 215.152,300.41 217.485,301.076 219.5,302.5C 218.167,302.5 216.833,302.5 215.5,302.5C 214.5,301.833 213.5,301.167 212.5,300.5 Z"/></g>
<g><path style="opacity:1" fill="#040106" d="M 353.5,303.5 C 363.716,308.019 374.049,312.353 384.5,316.5C 385.292,318.195 384.958,319.862 383.5,321.5C 379.265,319.215 374.931,317.215 370.5,315.5C 369.508,315.672 368.842,315.338 368.5,314.5C 363.87,311.514 359.203,308.514 354.5,305.5C 353.662,305.158 353.328,304.492 353.5,303.5 Z"/></g>
<g><path style="opacity:1" fill="#070409" d="M 454.5,306.5 C 469.5,306.5 484.5,306.5 499.5,306.5C 499.5,308.5 499.5,310.5 499.5,312.5C 477.792,312.866 456.125,313.533 434.5,314.5C 423.774,314.532 413.108,315.365 402.5,317C 397.901,318.652 393.235,319.652 388.5,320C 393.741,317.544 399.075,315.377 404.5,313.5C 421.022,309.353 437.688,307.02 454.5,306.5 Z"/></g>
<g><path style="opacity:1" fill="#370f48" d="M 354.5,305.5 C 359.203,308.514 363.87,311.514 368.5,314.5C 362.115,313.985 357.448,310.985 354.5,305.5 Z"/></g>
<g><path style="opacity:1" fill="#401953" d="M 246.5,313.5 C 250.497,314.603 254.164,316.269 257.5,318.5C 257.389,319.117 257.056,319.617 256.5,320C 252.059,319.609 248.726,317.442 246.5,313.5 Z"/></g>
<g><path style="opacity:1" fill="#e08df5" d="M 499.5,320.5 C 499.5,321.167 499.5,321.833 499.5,322.5C 484.133,322.9 470.3,327.566 458,336.5C 457.243,344.591 461.076,348.924 469.5,349.5C 477.579,347.739 485.246,345.573 492.5,343C 494.81,342.503 497.143,342.337 499.5,342.5C 499.5,344.833 499.5,347.167 499.5,349.5C 489.25,351.56 478.917,352.727 468.5,353C 464.317,352.134 460.317,350.801 456.5,349C 453.091,344.553 452.591,339.719 455,334.5C 456.771,333.696 458.271,332.529 459.5,331C 466.932,328.191 474.265,325.191 481.5,322C 487.477,321.169 493.477,320.669 499.5,320.5 Z"/></g>
<g><path style="opacity:1" fill="#ef8ffb" d="M 499.5,322.5 C 499.5,329.167 499.5,335.833 499.5,342.5C 497.143,342.337 494.81,342.503 492.5,343C 485.246,345.573 477.579,347.739 469.5,349.5C 461.076,348.924 457.243,344.591 458,336.5C 470.3,327.566 484.133,322.9 499.5,322.5 Z"/></g>
<g><path style="opacity:1" fill="#884690" d="M 131.5,326.5 C 131.5,327.167 131.5,327.833 131.5,328.5C 122.853,325.604 115.686,327.604 110,334.5C 109.333,337.5 109.333,340.5 110,343.5C 116.326,348.881 123.493,351.548 131.5,351.5C 131.833,352.833 132.167,354.167 132.5,355.5C 130.283,354.631 127.95,354.298 125.5,354.5C 125.649,355.552 125.483,356.552 125,357.5C 118.899,355.523 113.066,353.023 107.5,350C 103.695,345.909 102.528,341.076 104,335.5C 106.54,333.295 108.707,330.795 110.5,328C 117.445,326.77 124.445,326.27 131.5,326.5 Z"/></g>
<g><path style="opacity:1" fill="#e285ed" d="M 131.5,328.5 C 142.144,328.074 152.144,330.24 161.5,335C 168.122,341.438 167.789,347.604 160.5,353.5C 153.524,354.664 146.524,354.831 139.5,354C 136.588,353.725 133.921,352.891 131.5,351.5C 131.5,350.5 131.5,349.5 131.5,348.5C 125.792,349.31 120.792,347.81 116.5,344C 115.009,341.379 114.342,338.545 114.5,335.5C 118.021,335.17 121.021,333.67 123.5,331C 125.899,330.289 128.232,330.456 130.5,331.5C 131.386,330.675 131.719,329.675 131.5,328.5 Z"/></g>
<g><path style="opacity:1" fill="#ef8efb" d="M 131.5,348.5 C 131.5,343.5 131.5,338.5 131.5,333.5C 140.536,335.094 149.536,335.927 158.5,336C 164.313,338.128 165.813,341.961 163,347.5C 161.202,349.972 158.868,351.639 156,352.5C 147.571,351.012 139.404,349.678 131.5,348.5 Z"/></g>
<g><path style="opacity:1" fill="#44144d" d="M -0.5,325.5 C 0.166667,325.5 0.833333,325.5 1.5,325.5C 2.35503,326.531 3.0217,327.697 3.5,329C 2.21231,331.863 1.54565,334.863 1.5,338C 2.95087,345.757 3.7842,353.59 4,361.5C 5.14235,367.712 6.97568,373.712 9.5,379.5C 17.7458,388.317 26.0791,397.15 34.5,406C 43.0837,411.923 51.5837,418.09 60,424.5C 63.3333,429.167 66.6667,433.833 70,438.5C 70.49,439.793 70.6567,441.127 70.5,442.5C 66.5,444.833 62.5,447.167 58.5,449.5C 58.0472,448.542 57.3805,447.708 56.5,447C 54.6183,446.802 52.9516,446.302 51.5,445.5C 54.2469,445.813 56.9135,445.48 59.5,444.5C 34.9213,437.902 14.9213,424.569 -0.5,404.5C -0.5,378.167 -0.5,351.833 -0.5,325.5 Z"/></g>
<g><path style="opacity:1" fill="#632e6a" d="M 125.5,322.5 C 127.5,322.5 129.5,322.5 131.5,322.5C 131.5,323.167 131.5,323.833 131.5,324.5C 131.5,325.167 131.5,325.833 131.5,326.5C 124.445,326.27 117.445,326.77 110.5,328C 108.707,330.795 106.54,333.295 104,335.5C 102.528,341.076 103.695,345.909 107.5,350C 113.066,353.023 118.899,355.523 125,357.5C 125.483,356.552 125.649,355.552 125.5,354.5C 127.95,354.298 130.283,354.631 132.5,355.5C 132.5,356.833 132.5,358.167 132.5,359.5C 130.5,359.5 128.5,359.5 126.5,359.5C 124.565,358.85 122.565,358.517 120.5,358.5C 111.684,357.341 104.184,353.675 98,347.5C 94.5449,339.36 96.3783,332.86 103.5,328C 110.757,325.852 118.09,324.019 125.5,322.5 Z"/></g>
<g><path style="opacity:1" fill="#c06cc8" d="M 131.5,328.5 C 131.719,329.675 131.386,330.675 130.5,331.5C 128.232,330.456 125.899,330.289 123.5,331C 121.021,333.67 118.021,335.17 114.5,335.5C 114.342,338.545 115.009,341.379 116.5,344C 120.792,347.81 125.792,349.31 131.5,348.5C 131.5,349.5 131.5,350.5 131.5,351.5C 123.493,351.548 116.326,348.881 110,343.5C 109.333,340.5 109.333,337.5 110,334.5C 115.686,327.604 122.853,325.604 131.5,328.5 Z"/></g>
<g><path style="opacity:1" fill="#cc87e9" d="M 155.5,327.5 C 161.333,329.675 166.5,333.008 171,337.5C 174.142,350.192 169.309,357.859 156.5,360.5C 148.833,360.5 141.167,360.5 133.5,360.5C 132.833,360.5 132.5,360.167 132.5,359.5C 132.5,358.167 132.5,356.833 132.5,355.5C 132.167,354.167 131.833,352.833 131.5,351.5C 133.921,352.891 136.588,353.725 139.5,354C 146.524,354.831 153.524,354.664 160.5,353.5C 167.789,347.604 168.122,341.438 161.5,335C 152.144,330.24 142.144,328.074 131.5,328.5C 131.5,327.833 131.5,327.167 131.5,326.5C 131.5,325.833 131.5,325.167 131.5,324.5C 132.416,324.018 133.416,323.685 134.5,323.5C 141.513,324.836 148.513,326.169 155.5,327.5 Z"/></g>
<g><path style="opacity:1" fill="#c48be9" d="M 499.5,318.5 C 499.5,319.167 499.5,319.833 499.5,320.5C 493.477,320.669 487.477,321.169 481.5,322C 474.265,325.191 466.932,328.191 459.5,331C 458.271,332.529 456.771,333.696 455,334.5C 452.591,339.719 453.091,344.553 456.5,349C 460.317,350.801 464.317,352.134 468.5,353C 478.917,352.727 489.25,351.56 499.5,349.5C 499.5,350.5 499.5,351.5 499.5,352.5C 495.486,352.334 491.486,352.501 487.5,353C 481.315,354.933 474.982,356.1 468.5,356.5C 460.998,357.582 454.998,355.082 450.5,349C 449.552,348.517 448.552,348.351 447.5,348.5C 445.305,345.598 443.972,342.264 443.5,338.5C 444.457,336.082 445.791,333.916 447.5,332C 456.383,328.202 465.383,324.868 474.5,322C 482.702,319.966 491.036,318.799 499.5,318.5 Z"/></g>
<g><path style="opacity:1" fill="#070409" d="M 330.5,358.5 C 328.243,359.401 326.743,361.068 326,363.5C 325.319,369.353 325.819,375.019 327.5,380.5C 327.289,385.673 326.289,390.673 324.5,395.5C 321.955,403.122 318.621,403.456 314.5,396.5C 311.403,392.383 309.57,387.717 309,382.5C 296.418,389.517 282.918,392.517 268.5,391.5C 267.65,398.799 267.317,406.132 267.5,413.5C 268.134,416.916 266.8,418.916 263.5,419.5C 258.447,418.434 254.113,416.101 250.5,412.5C 246.643,408.325 243.643,403.658 241.5,398.5C 243.308,398.491 244.975,398.991 246.5,400C 248.037,401.707 249.704,403.207 251.5,404.5C 253.296,405.793 254.963,407.293 256.5,409C 258.134,409.494 259.801,409.66 261.5,409.5C 261.879,404.703 261.379,400.036 260,395.5C 259.261,394.426 258.261,393.759 257,393.5C 253.895,394.367 250.728,394.701 247.5,394.5C 243.985,394.288 240.652,394.288 237.5,394.5C 240.273,402.844 243.607,410.844 247.5,418.5C 253.893,431.888 262.56,443.555 273.5,453.5C 280.888,460.379 289.221,465.879 298.5,470C 308.705,470.411 318.705,469.078 328.5,466C 332.241,464.262 335.408,461.762 338,458.5C 343.945,450.887 348.612,442.553 352,433.5C 352.498,430.518 352.665,427.518 352.5,424.5C 352.947,411.029 349.613,398.696 342.5,387.5C 342.249,385.83 341.582,384.33 340.5,383C 341.554,381.612 341.72,380.112 341,378.5C 338.227,373.287 335.727,367.954 333.5,362.5C 333.624,361.893 333.957,361.56 334.5,361.5C 341.286,371.41 347.286,381.743 352.5,392.5C 353.36,395.911 354.526,399.244 356,402.5C 363.65,430.69 355.817,453.523 332.5,471C 322.885,473.964 313.051,475.797 303,476.5C 297.476,476.327 292.31,474.827 287.5,472C 260.186,453.93 241.686,429.096 232,397.5C 231.313,395.432 231.48,393.432 232.5,391.5C 231.167,389.833 229.833,388.167 228.5,386.5C 229.7,385.708 231.033,385.708 232.5,386.5C 243.963,389.468 255.297,388.968 266.5,385C 271.191,384.35 275.857,384.517 280.5,385.5C 293.714,382.928 306.047,378.095 317.5,371C 320.957,367.316 323.29,362.983 324.5,358C 326.598,357.322 328.598,357.489 330.5,358.5 Z"/></g>
<g><path style="opacity:1" fill="#370f3f" d="M 1.5,325.5 C 4.16872,327.67 6.83538,330.004 9.5,332.5C 11.376,337.461 13.0426,342.461 14.5,347.5C 10.9746,347.654 8.14128,346.321 6,343.5C 5.454,346.899 5.78733,350.232 7,353.5C 13.3333,363.5 19.6667,373.5 26,383.5C 33.917,390.746 41.0837,398.579 47.5,407C 47.0946,407.945 46.428,408.612 45.5,409C 50.8333,413 56.1667,417 61.5,421C 62.549,421.492 63.549,421.326 64.5,420.5C 66.2705,421.035 66.6039,421.869 65.5,423C 66.549,423.492 67.549,423.326 68.5,422.5C 69.5,423 70.5,423.5 71.5,424C 70.3044,424.654 70.3044,425.154 71.5,425.5C 82.8791,425.615 89.5457,420.115 91.5,409C 91.4366,405.791 89.7699,404.124 86.5,404C 88.1667,403.667 89.8333,403.333 91.5,403C 90.5,402.667 89.5,402.333 88.5,402C 91.5535,401.821 94.5535,401.321 97.5,400.5C 99.4566,398.515 101.79,397.015 104.5,396C 106.378,394.457 107.878,392.624 109,390.5C 107.079,385.004 108.579,380.671 113.5,377.5C 114.243,378.908 115.077,380.241 116,381.5C 120.243,376.447 122.743,370.613 123.5,364C 123.056,362.238 122.556,362.405 122,364.5C 121,363.167 120,363.167 119,364.5C 118.568,361.921 119.735,360.421 122.5,360C 121.584,359.722 120.918,359.222 120.5,358.5C 122.565,358.517 124.565,358.85 126.5,359.5C 126.833,360.833 127.167,362.167 127.5,363.5C 125.054,371.651 121.887,379.651 118,387.5C 115.37,391.132 112.37,394.465 109,397.5C 110.297,404.052 110.964,410.718 111,417.5C 110.408,421.276 109.408,424.943 108,428.5C 105.819,431.344 103.653,434.178 101.5,437C 105.166,442.997 109.832,447.997 115.5,452C 121.396,453.867 127.229,453.7 133,451.5C 143.635,454.41 149.135,450.077 149.5,438.5C 150.959,438.433 152.292,438.766 153.5,439.5C 158.802,446.476 164.136,453.476 169.5,460.5C 168.402,461.601 168.235,462.934 169,464.5C 172.804,471.744 175.304,479.411 176.5,487.5C 177.133,492.636 175.466,496.636 171.5,499.5C 161.167,499.5 150.833,499.5 140.5,499.5C 130.817,492.285 121.817,484.118 113.5,475C 108.197,471.883 102.864,469.55 97.5,468C 90.7791,462.612 84.7791,456.612 79.5,450C 77.9221,448.906 76.2554,448.072 74.5,447.5C 76.6602,446.266 78.8269,444.933 81,443.5C 81.9415,440.77 80.9415,439.437 78,439.5C 75.3173,440.093 72.8173,441.093 70.5,442.5C 70.6567,441.127 70.49,439.793 70,438.5C 66.6667,433.833 63.3333,429.167 60,424.5C 51.5837,418.09 43.0837,411.923 34.5,406C 26.0791,397.15 17.7458,388.317 9.5,379.5C 6.97568,373.712 5.14235,367.712 4,361.5C 3.7842,353.59 2.95087,345.757 1.5,338C 1.54565,334.863 2.21231,331.863 3.5,329C 3.0217,327.697 2.35503,326.531 1.5,325.5 Z"/></g>
<g><path style="opacity:1" fill="#060408" d="M 126.5,359.5 C 128.5,359.5 130.5,359.5 132.5,359.5C 132.5,360.167 132.833,360.5 133.5,360.5C 139.541,407.753 160.208,447.253 195.5,479C 203.383,483.877 210.383,489.877 216.5,497C 219.191,497.156 221.524,497.989 223.5,499.5C 220.167,499.5 216.833,499.5 213.5,499.5C 196.497,489.301 181.83,476.301 169.5,460.5C 164.136,453.476 158.802,446.476 153.5,439.5C 149.538,430.243 145.038,421.243 140,412.5C 133.793,396.672 129.626,380.338 127.5,363.5C 127.167,362.167 126.833,360.833 126.5,359.5 Z"/></g>
<g><path style="opacity:1" fill="#9e78cd" d="M 133.5,360.5 C 141.167,360.5 148.833,360.5 156.5,360.5C 175.092,417.763 208.758,464.096 257.5,499.5C 246.167,499.5 234.833,499.5 223.5,499.5C 221.524,497.989 219.191,497.156 216.5,497C 210.383,489.877 203.383,483.877 195.5,479C 160.208,447.253 139.541,407.753 133.5,360.5 Z"/></g>
<g><path style="opacity:1" fill="#4d1d56" d="M 330.5,358.5 C 331.872,359.512 333.205,360.512 334.5,361.5C 333.957,361.56 333.624,361.893 333.5,362.5C 335.727,367.954 338.227,373.287 341,378.5C 341.72,380.112 341.554,381.612 340.5,383C 341.582,384.33 342.249,385.83 342.5,387.5C 342.44,388.043 342.107,388.376 341.5,388.5C 339.043,386.775 336.377,386.275 333.5,387C 329.973,389.362 326.973,392.196 324.5,395.5C 326.289,390.673 327.289,385.673 327.5,380.5C 325.819,375.019 325.319,369.353 326,363.5C 326.743,361.068 328.243,359.401 330.5,358.5 Z"/></g>
<g><path style="opacity:1" fill="#ede9f1" d="M 319.5,376.5 C 320.765,377.514 321.431,379.014 321.5,381C 321.697,384.751 320.53,387.918 318,390.5C 312.898,385.057 313.398,380.39 319.5,376.5 Z"/></g>
<g><path style="opacity:1" fill="#4d1b56" d="M 314.5,396.5 C 308.813,397.885 303.146,399.718 297.5,402C 292.094,405.732 286.427,409.065 280.5,412C 276.27,413.29 271.936,413.79 267.5,413.5C 267.317,406.132 267.65,398.799 268.5,391.5C 282.918,392.517 296.418,389.517 309,382.5C 309.57,387.717 311.403,392.383 314.5,396.5 Z"/></g>
<g><path style="opacity:1" fill="#350f3c" d="M 342.5,387.5 C 349.613,398.696 352.947,411.029 352.5,424.5C 344.329,423.944 336.329,422.444 328.5,420C 325.167,419.333 321.833,419.333 318.5,420C 311.383,422.455 304.716,425.789 298.5,430C 289.313,437.023 280.98,444.857 273.5,453.5C 262.56,443.555 253.893,431.888 247.5,418.5C 247.615,416.053 248.615,414.053 250.5,412.5C 254.113,416.101 258.447,418.434 263.5,419.5C 266.8,418.916 268.134,416.916 267.5,413.5C 271.936,413.79 276.27,413.29 280.5,412C 286.427,409.065 292.094,405.732 297.5,402C 303.146,399.718 308.813,397.885 314.5,396.5C 318.621,403.456 321.955,403.122 324.5,395.5C 326.973,392.196 329.973,389.362 333.5,387C 336.377,386.275 339.043,386.775 341.5,388.5C 342.107,388.376 342.44,388.043 342.5,387.5 Z"/></g>
<g><path style="opacity:1" fill="#f5f4f5" d="M 251.5,404.5 C 249.707,401.366 248.374,398.033 247.5,394.5C 250.728,394.701 253.895,394.367 257,393.5C 258.261,393.759 259.261,394.426 260,395.5C 261.379,400.036 261.879,404.703 261.5,409.5C 259.801,409.66 258.134,409.494 256.5,409C 254.963,407.293 253.296,405.793 251.5,404.5 Z"/></g>
<g><path style="opacity:1" fill="#3e1246" d="M 127.5,363.5 C 129.626,380.338 133.793,396.672 140,412.5C 145.038,421.243 149.538,430.243 153.5,439.5C 152.292,438.766 150.959,438.433 149.5,438.5C 149.135,450.077 143.635,454.41 133,451.5C 127.229,453.7 121.396,453.867 115.5,452C 109.832,447.997 105.166,442.997 101.5,437C 103.653,434.178 105.819,431.344 108,428.5C 109.408,424.943 110.408,421.276 111,417.5C 110.964,410.718 110.297,404.052 109,397.5C 112.37,394.465 115.37,391.132 118,387.5C 121.887,379.651 125.054,371.651 127.5,363.5 Z"/></g>
<g><path style="opacity:1" fill="#4c1c55" d="M 247.5,394.5 C 248.374,398.033 249.707,401.366 251.5,404.5C 249.704,403.207 248.037,401.707 246.5,400C 244.975,398.991 243.308,398.491 241.5,398.5C 243.643,403.658 246.643,408.325 250.5,412.5C 248.615,414.053 247.615,416.053 247.5,418.5C 243.607,410.844 240.273,402.844 237.5,394.5C 240.652,394.288 243.985,394.288 247.5,394.5 Z"/></g>
<g><path style="opacity:1" fill="#060306" d="M -0.5,404.5 C 14.9213,424.569 34.9213,437.902 59.5,444.5C 56.9135,445.48 54.2469,445.813 51.5,445.5C 50.5,445.5 49.5,445.5 48.5,445.5C 45.997,444.629 43.3303,443.963 40.5,443.5C 33.2709,441.219 26.6043,437.885 20.5,433.5C 13.6509,428.89 7.31754,423.557 1.5,417.5C 0.833333,417.167 0.166667,416.833 -0.5,416.5C -0.5,412.5 -0.5,408.5 -0.5,404.5 Z"/></g>
<g><path style="opacity:1" fill="#f770f9" d="M -0.5,416.5 C 0.166667,416.833 0.833333,417.167 1.5,417.5C 2.41511,419.754 3.74844,421.754 5.5,423.5C 3.29719,423.396 1.29719,422.73 -0.5,421.5C -0.5,419.833 -0.5,418.167 -0.5,416.5 Z"/></g>
<g><path style="opacity:1" fill="#812f8e" d="M 352.5,424.5 C 352.665,427.518 352.498,430.518 352,433.5C 348.612,442.553 343.945,450.887 338,458.5C 335.408,461.762 332.241,464.262 328.5,466C 318.705,469.078 308.705,470.411 298.5,470C 289.221,465.879 280.888,460.379 273.5,453.5C 280.98,444.857 289.313,437.023 298.5,430C 304.716,425.789 311.383,422.455 318.5,420C 321.833,419.333 325.167,419.333 328.5,420C 336.329,422.444 344.329,423.944 352.5,424.5 Z"/></g>
<g><path style="opacity:1" fill="#fdfcfd" d="M -0.5,421.5 C 1.29719,422.73 3.29719,423.396 5.5,423.5C 9.40604,428.394 14.406,431.728 20.5,433.5C 26.6043,437.885 33.2709,441.219 40.5,443.5C 40.6107,444.117 40.944,444.617 41.5,445C 43.8098,445.497 46.1432,445.663 48.5,445.5C 49.5,445.5 50.5,445.5 51.5,445.5C 52.9516,446.302 54.6183,446.802 56.5,447C 57.3805,447.708 58.0472,448.542 58.5,449.5C 56.233,450.423 53.8997,451.256 51.5,452C 49.7888,453.133 49.2888,454.633 50,456.5C 54.8333,461.333 59.6667,466.167 64.5,471C 72.7268,475.939 80.7268,481.105 88.5,486.5C 92.5652,491.568 97.2318,495.902 102.5,499.5C 94.5,499.5 86.5,499.5 78.5,499.5C 66.2925,488.792 55.2925,476.959 45.5,464C 35.5936,459.865 25.5936,456.032 15.5,452.5C 10.4043,449.795 5.07094,447.462 -0.5,445.5C -0.5,437.5 -0.5,429.5 -0.5,421.5 Z"/></g>
<g><path style="opacity:1" fill="#773b81" d="M 1.5,417.5 C 7.31754,423.557 13.6509,428.89 20.5,433.5C 14.406,431.728 9.40604,428.394 5.5,423.5C 3.74844,421.754 2.41511,419.754 1.5,417.5 Z"/></g>
<g><path style="opacity:1" fill="#060407" d="M 74.5,447.5 C 69.3258,450.477 63.9925,453.311 58.5,456C 62.1667,459.667 65.8333,463.333 69.5,467C 88.2967,479.399 107.963,490.232 128.5,499.5C 123.5,499.5 118.5,499.5 113.5,499.5C 105.363,494.93 97.0297,490.597 88.5,486.5C 80.7268,481.105 72.7268,475.939 64.5,471C 59.6667,466.167 54.8333,461.333 50,456.5C 49.2888,454.633 49.7888,453.133 51.5,452C 53.8997,451.256 56.233,450.423 58.5,449.5C 62.5,447.167 66.5,444.833 70.5,442.5C 72.8173,441.093 75.3173,440.093 78,439.5C 80.9415,439.437 81.9415,440.77 81,443.5C 78.8269,444.933 76.6602,446.266 74.5,447.5 Z"/></g>
<g><path style="opacity:1" fill="#64356d" d="M 40.5,443.5 C 43.3303,443.963 45.997,444.629 48.5,445.5C 46.1432,445.663 43.8098,445.497 41.5,445C 40.944,444.617 40.6107,444.117 40.5,443.5 Z"/></g>
<g><path style="opacity:1" fill="#fc8bff" d="M -0.5,445.5 C 5.07094,447.462 10.4043,449.795 15.5,452.5C 21.1533,469.443 29.82,485.109 41.5,499.5C 27.5,499.5 13.5,499.5 -0.5,499.5C -0.5,481.5 -0.5,463.5 -0.5,445.5 Z"/></g>
<g><path style="opacity:1" fill="#fc6aff" d="M 15.5,452.5 C 25.5936,456.032 35.5936,459.865 45.5,464C 55.2925,476.959 66.2925,488.792 78.5,499.5C 66.1667,499.5 53.8333,499.5 41.5,499.5C 29.82,485.109 21.1533,469.443 15.5,452.5 Z"/></g>
<g><path style="opacity:1" fill="#43144c" d="M 169.5,460.5 C 181.83,476.301 196.497,489.301 213.5,499.5C 199.5,499.5 185.5,499.5 171.5,499.5C 175.466,496.636 177.133,492.636 176.5,487.5C 175.304,479.411 172.804,471.744 169,464.5C 168.235,462.934 168.402,461.601 169.5,460.5 Z"/></g>
<g><path style="opacity:1" fill="#41134a" d="M 74.5,447.5 C 76.2554,448.072 77.9221,448.906 79.5,450C 84.7791,456.612 90.7791,462.612 97.5,468C 102.864,469.55 108.197,471.883 113.5,475C 121.817,484.118 130.817,492.285 140.5,499.5C 136.5,499.5 132.5,499.5 128.5,499.5C 107.963,490.232 88.2967,479.399 69.5,467C 65.8333,463.333 62.1667,459.667 58.5,456C 63.9925,453.311 69.3258,450.477 74.5,447.5 Z"/></g>
<g><path style="opacity:1" fill="#9e78ce" d="M 499.5,444.5 C 499.5,462.833 499.5,481.167 499.5,499.5C 482.5,499.5 465.5,499.5 448.5,499.5C 454.767,495.022 461.1,490.522 467.5,486C 481.853,474.837 492.52,461.004 499.5,444.5 Z"/></g>
<g><path style="opacity:1" fill="#4a1a53" d="M 88.5,486.5 C 97.0297,490.597 105.363,494.93 113.5,499.5C 109.833,499.5 106.167,499.5 102.5,499.5C 97.2318,495.902 92.5652,491.568 88.5,486.5 Z"/></g>
</svg>
