<?xml version="1.0" encoding="UTF-8"?>
<!DOCTYPE svg PUBLIC "-//W3C//DTD SVG 1.1//EN" "http://www.w3.org/Graphics/SVG/1.1/DTD/svg11.dtd">
<svg xmlns="http://www.w3.org/2000/svg" version="1.1" width="64px" height="64px" style="shape-rendering:geometricPrecision; text-rendering:geometricPrecision; image-rendering:optimizeQuality; fill-rule:evenodd; clip-rule:evenodd" xmlns:xlink="http://www.w3.org/1999/xlink">
<g><path style="opacity:0.833" fill="#fefffe" d="M 19.5,23.5 C 18.0096,19.4262 18.1762,15.4262 20,11.5C 26.4077,7.78639 30.241,9.61972 31.5,17C 30.8516,25.5764 26.8516,27.7431 19.5,23.5 Z"/></g>
<g><path style="opacity:0.848" fill="#fefffe" d="M 43.5,24.5 C 36.248,27.4269 32.5813,24.9269 32.5,17C 34.0446,10.143 37.878,8.30965 44,11.5C 45.9667,15.9061 45.8,20.2394 43.5,24.5 Z"/></g>
<g><path style="opacity:0.836" fill="#fefffe" d="M 19.5,23.5 C 21.4316,28.4316 20.4316,32.5983 16.5,36C 11.2599,36.7772 8.25991,34.4439 7.5,29C 8.99592,21.4848 12.9959,19.6515 19.5,23.5 Z"/></g>
<g><path style="opacity:0.835" fill="#fefffe" d="M 45.5,36.5 C 42.4614,32.9351 41.7947,28.9351 43.5,24.5C 48.7142,19.8673 52.7142,20.7007 55.5,27C 55.0826,33.392 51.7492,36.5587 45.5,36.5 Z"/></g>
<g><path style="opacity:0.91" fill="#fefffe" d="M 45.5,36.5 C 49.4529,41.3352 49.4529,46.1686 45.5,51C 43.8632,51.6012 42.1966,52.1012 40.5,52.5C 34.8507,52.3947 29.1841,52.3947 23.5,52.5C 15.9394,51.2373 13.4394,46.904 16,39.5C 20.5188,35.9784 24.6855,32.145 28.5,28C 34.6187,26.8941 38.9521,29.2275 41.5,35C 42.745,35.7914 44.0783,36.2914 45.5,36.5 Z"/></g>
</svg>
