<?xml version="1.0" encoding="UTF-8"?>
<!DOCTYPE svg PUBLIC "-//W3C//DTD SVG 1.1//EN" "http://www.w3.org/Graphics/SVG/1.1/DTD/svg11.dtd">
<svg xmlns="http://www.w3.org/2000/svg" version="1.1" width="1000px" height="1000px" style="shape-rendering:geometricPrecision; text-rendering:geometricPrecision; image-rendering:optimizeQuality; fill-rule:evenodd; clip-rule:evenodd" xmlns:xlink="http://www.w3.org/1999/xlink">
<g><path style="opacity:0.994" fill="#333333" d="M 435.5,26.5 C 444.833,26.5 454.167,26.5 463.5,26.5C 463.667,179.167 463.5,331.834 463,484.5C 340.09,574.61 217.424,664.943 95,755.5C 29.7154,666.419 0.0487352,566.419 6,455.5C 15.2747,331.796 65.1081,227.963 155.5,144C 235.375,73.4116 328.708,34.245 435.5,26.5 Z"/></g>
<g><path style="opacity:0.995" fill="#333333" d="M 536.5,58.5 C 674.204,60.5206 789.038,112.187 881,213.5C 975.217,325.551 1010.55,454.218 987,599.5C 958.16,738.258 882.993,843.425 761.5,915C 655.3,972.695 543.3,987.695 425.5,960C 319.236,932.315 233.569,874.648 168.5,787C 290.803,696.51 413.136,606.01 535.5,515.5C 536.5,363.168 536.833,210.835 536.5,58.5 Z"/></g>
</svg>
