<?xml version="1.0" encoding="UTF-8"?>
<!DOCTYPE svg PUBLIC "-//W3C//DTD SVG 1.1//EN" "http://www.w3.org/Graphics/SVG/1.1/DTD/svg11.dtd">
<svg xmlns="http://www.w3.org/2000/svg" version="1.1" width="26px" height="26px" style="shape-rendering:geometricPrecision; text-rendering:geometricPrecision; image-rendering:optimizeQuality; fill-rule:evenodd; clip-rule:evenodd" xmlns:xlink="http://www.w3.org/1999/xlink">
<g><path style="opacity:1" fill="#cb228c" d="M -0.5,-0.5 C 8.16667,-0.5 16.8333,-0.5 25.5,-0.5C 25.5,5.16667 25.5,10.8333 25.5,16.5C 22.8127,16.3359 20.146,16.5026 17.5,17C 16.5562,19.7191 16.2229,22.5525 16.5,25.5C 10.8333,25.5 5.16667,25.5 -0.5,25.5C -0.5,16.8333 -0.5,8.16667 -0.5,-0.5 Z"/></g>
<g><path style="opacity:1" fill="#f7daec" d="M 25.5,16.5 C 25.5,17.1667 25.5,17.8333 25.5,18.5C 23.1667,18.5 20.8333,18.5 18.5,18.5C 18.5,20.8333 18.5,23.1667 18.5,25.5C 17.8333,25.5 17.1667,25.5 16.5,25.5C 16.2229,22.5525 16.5562,19.7191 17.5,17C 20.146,16.5026 22.8127,16.3359 25.5,16.5 Z"/></g>
<g><path style="opacity:1" fill="#e593c6" d="M 25.5,18.5 C 25.5,19.1667 25.5,19.8333 25.5,20.5C 25.1667,20.5 24.8333,20.5 24.5,20.5C 23.0813,19.5489 21.4147,19.2155 19.5,19.5C 19.2155,21.4147 19.5489,23.0813 20.5,24.5C 20.5,24.8333 20.5,25.1667 20.5,25.5C 19.8333,25.5 19.1667,25.5 18.5,25.5C 18.5,23.1667 18.5,20.8333 18.5,18.5C 20.8333,18.5 23.1667,18.5 25.5,18.5 Z"/></g>
<g><path style="opacity:1" fill="#cc258e" d="M 24.5,20.5 C 23.5,22.1667 22.1667,23.5 20.5,24.5C 19.5489,23.0813 19.2155,21.4147 19.5,19.5C 21.4147,19.2155 23.0813,19.5489 24.5,20.5 Z"/></g>
<g><path style="opacity:1" fill="#fdf6fa" d="M 24.5,20.5 C 24.8333,20.5 25.1667,20.5 25.5,20.5C 25.5,22.1667 25.5,23.8333 25.5,25.5C 23.8333,25.5 22.1667,25.5 20.5,25.5C 20.5,25.1667 20.5,24.8333 20.5,24.5C 22.1667,23.5 23.5,22.1667 24.5,20.5 Z"/></g>
</svg>
