<?xml version="1.0" encoding="utf-8"?>
<svg version="1.1" xmlns:xlink="http://www.w3.org/1999/xlink" width="19px" height="19px" xmlns="http://www.w3.org/2000/svg">
  <g transform="matrix(1 0 0 1 -12 -180 )">
    <path d="M 10.972005208333334 4.861328125  C 11.046223958333334 4.935546875  11.083333333333334 5.030381944444442  11.083333333333334 5.145833333333334  L 11.083333333333334 10.6875  C 11.083333333333334 10.802951388888888  11.046223958333334 10.897786458333332  10.972005208333334 10.972005208333332  C 10.897786458333334 11.046223958333332  10.80295138888889 11.083333333333332  10.6875 11.083333333333332  L 6.729166666666667 11.083333333333332  C 6.6137152777777795 11.083333333333332  6.518880208333333 11.046223958333332  6.444661458333333 10.972005208333332  C 6.370442708333333 10.897786458333332  6.333333333333333 10.802951388888888  6.333333333333333 10.6875  L 6.333333333333333 9.895833333333332  C 6.333333333333333 9.780381944444445  6.370442708333333 9.685546875  6.444661458333333 9.611328125  C 6.518880208333333 9.537109375  6.6137152777777795 9.5  6.729166666666667 9.5  L 9.5 9.5  L 9.5 5.145833333333334  C 9.5 5.030381944444442  9.537109375 4.935546875  9.611328125 4.861328125  C 9.685546875000002 4.787109375  9.780381944444446 4.75  9.895833333333334 4.75  L 10.6875 4.75  C 10.80295138888889 4.75  10.897786458333334 4.787109375  10.972005208333334 4.861328125  Z M 15.326171875 12.876953125  C 15.928168402777779 11.846137152777775  16.229166666666664 10.720486111111112  16.229166666666664 9.5  C 16.229166666666664 8.279513888888888  15.928168402777779 7.153862847222222  15.326171875 6.123046875  C 14.724175347222225 5.092230902777776  13.907769097222225 4.275824652777776  12.876953125 3.673828125  C 11.846137152777779 3.071831597222222  10.720486111111112 2.770833333333334  9.5 2.770833333333334  C 8.27951388888889 2.770833333333334  7.153862847222223 3.071831597222222  6.123046875 3.673828125  C 5.092230902777778 4.275824652777776  4.275824652777778 5.092230902777776  3.673828125 6.123046875  C 3.0718315972222223 7.153862847222222  2.7708333333333335 8.279513888888888  2.7708333333333335 9.5  C 2.7708333333333335 10.720486111111112  3.0718315972222223 11.846137152777775  3.673828125 12.876953125  C 4.275824652777778 13.90776909722222  5.092230902777778 14.724175347222221  6.123046875 15.326171875  C 7.153862847222223 15.928168402777779  8.27951388888889 16.229166666666664  9.5 16.229166666666664  C 10.720486111111112 16.229166666666664  11.846137152777779 15.928168402777779  12.876953125 15.326171875  C 13.907769097222225 14.724175347222221  14.724175347222225 13.90776909722222  15.326171875 12.876953125  Z M 17.725911458333336 4.7314453125  C 18.575303819444443 6.186957465277776  19 7.776475694444442  19 9.5  C 19 11.223524305555555  18.575303819444443 12.81304253472222  17.725911458333336 14.2685546875  C 16.876519097222225 15.724066840277779  15.724066840277779 16.87651909722222  14.2685546875 17.725911458333336  C 12.813042534722225 18.575303819444446  11.223524305555555 19  9.5 19  C 7.776475694444445 19  6.186957465277778 18.575303819444446  4.7314453125 17.725911458333336  C 3.2759331597222223 16.87651909722222  2.123480902777778 15.724066840277779  1.2740885416666667 14.2685546875  C 0.42469618055555547 12.81304253472222  0 11.223524305555555  0 9.5  C 0 7.776475694444442  0.42469618055555547 6.186957465277776  1.2740885416666667 4.7314453125  C 2.123480902777778 3.275933159722222  3.2759331597222223 2.123480902777776  4.7314453125 1.274088541666666  C 6.186957465277778 0.4246961805555539  7.776475694444445 0  9.5 0  C 11.223524305555555 0  12.813042534722225 0.4246961805555539  14.2685546875 1.274088541666666  C 15.724066840277779 2.123480902777776  16.876519097222225 3.275933159722222  17.725911458333336 4.7314453125  Z " fill-rule="nonzero" fill="#333333" stroke="none" transform="matrix(1 0 0 1 12 180 )" />
  </g>
</svg>