<?xml version="1.0" encoding="UTF-8"?>
<!DOCTYPE svg PUBLIC "-//W3C//DTD SVG 1.1//EN" "http://www.w3.org/Graphics/SVG/1.1/DTD/svg11.dtd">
<svg xmlns="http://www.w3.org/2000/svg" version="1.1" width="1000px" height="1000px" style="shape-rendering:geometricPrecision; text-rendering:geometricPrecision; image-rendering:optimizeQuality; fill-rule:evenodd; clip-rule:evenodd" xmlns:xlink="http://www.w3.org/1999/xlink">
<g><path style="opacity:0.99" fill="#333333" d="M 521.5,-0.5 C 532.833,-0.5 544.167,-0.5 555.5,-0.5C 605.117,5.29841 643.117,29.2984 669.5,71.5C 730.38,63.8784 780.213,83.5451 819,130.5C 836.612,155.264 844.779,182.93 843.5,213.5C 903.182,211.257 949.682,234.59 983,283.5C 991.431,298.629 996.931,314.629 999.5,331.5C 999.5,435.833 999.5,540.167 999.5,644.5C 982.451,733.574 964.285,822.574 945,911.5C 930.061,951.104 902.561,977.937 862.5,992C 851.583,995.48 840.583,997.98 829.5,999.5C 677.833,999.5 526.167,999.5 374.5,999.5C 330.767,994.384 294.267,975.384 265,942.5C 183.622,844.124 102.622,745.458 22,646.5C 10.0256,628.065 2.52557,608.065 -0.5,586.5C -0.5,575.833 -0.5,565.167 -0.5,554.5C 5.70507,514.774 25.0384,482.94 57.5,459C 100.439,429.747 147.439,420.747 198.5,432C 211.212,434.775 223.045,439.609 234,446.5C 234.333,361.833 234.667,277.167 235,192.5C 237.671,166.467 247.338,143.467 264,123.5C 302.781,81.5696 350.615,64.4029 407.5,72C 433.976,29.9174 471.976,5.75077 521.5,-0.5 Z M 528.5,71.5 C 557.19,68.6567 580.023,78.6567 597,101.5C 602.839,110.713 603.839,120.38 600,130.5C 599.5,253.5 599.333,376.5 599.5,499.5C 609.167,499.5 618.833,499.5 628.5,499.5C 628.333,397.499 628.5,295.499 629,193.5C 635.185,169.646 650.019,153.812 673.5,146C 703.356,138.003 728.856,145.17 750,167.5C 757.015,175.534 761.349,184.867 763,195.5C 763.5,296.833 763.667,398.166 763.5,499.5C 770.5,499.5 777.5,499.5 784.5,499.5C 784.333,445.832 784.5,392.166 785,338.5C 791.577,312.587 807.744,295.754 833.5,288C 862.4,281.413 886.9,288.913 907,310.5C 913.771,319.045 918.105,328.712 920,339.5C 920.978,442.852 920.644,546.185 919,649.5C 902.923,729.216 886.59,808.883 870,888.5C 863.538,906.971 850.871,918.305 832,922.5C 825.073,921.954 819.24,919.12 814.5,914C 673.167,913.333 531.833,913.333 390.5,914C 368.126,924.854 348.626,921.021 332,902.5C 251.667,804.833 171.333,707.167 91,609.5C 70.4779,574.765 75.3112,543.932 105.5,517C 130.388,499.429 157.388,495.429 186.5,505C 199.268,510.093 210.102,517.927 219,528.5C 250.333,566.5 281.667,604.5 313,642.5C 314.135,492.836 314.802,343.169 315,193.5C 321.789,168.044 337.956,151.877 363.5,145C 397.007,138.054 423.507,148.554 443,176.5C 448.411,185.322 452.744,194.656 456,204.5C 456.5,302.833 456.667,401.166 456.5,499.5C 466.167,499.5 475.833,499.5 485.5,499.5C 485.667,377.166 485.5,254.833 485,132.5C 475.405,120.766 475.072,108.766 484,96.5C 496.049,83.0623 510.883,74.729 528.5,71.5 Z"/></g>
</svg>
