<?xml version="1.0" encoding="UTF-8"?>
<!DOCTYPE svg PUBLIC "-//W3C//DTD SVG 1.1//EN" "http://www.w3.org/Graphics/SVG/1.1/DTD/svg11.dtd">
<svg xmlns="http://www.w3.org/2000/svg" version="1.1" width="29px" height="24px" style="shape-rendering:geometricPrecision; text-rendering:geometricPrecision; image-rendering:optimizeQuality; fill-rule:evenodd; clip-rule:evenodd" xmlns:xlink="http://www.w3.org/1999/xlink">
<g><path style="opacity:1" fill="#fcf3f8" d="M -0.5,-0.5 C 0.5,-0.5 1.5,-0.5 2.5,-0.5C 1.83333,0.833333 0.833333,1.83333 -0.5,2.5C -0.5,1.5 -0.5,0.5 -0.5,-0.5 Z"/></g>
<g><path style="opacity:1" fill="#fcf1f7" d="M 11.5,-0.5 C 17.1667,-0.5 22.8333,-0.5 28.5,-0.5C 28.5,3.16667 28.5,6.83333 28.5,10.5C 24.8534,7.18871 21.1867,3.85537 17.5,0.5C 16.5344,2.39605 16.2011,4.39605 16.5,6.5C 7.34442,4.15141 4.34442,7.31807 7.5,16C 10.4816,16.498 13.4816,16.6646 16.5,16.5C 16.2011,18.604 16.5344,20.604 17.5,22.5C 21.1867,19.1446 24.8534,15.8113 28.5,12.5C 28.5,16.1667 28.5,19.8333 28.5,23.5C 22.8333,23.5 17.1667,23.5 11.5,23.5C 8.53225,22.0309 5.36558,20.6975 2,19.5C 1.33333,14.1667 1.33333,8.83333 2,3.5C 5.36558,2.30245 8.53225,0.969121 11.5,-0.5 Z"/></g>
<g><path style="opacity:1" fill="#cc298f" d="M 28.5,10.5 C 28.5,11.1667 28.5,11.8333 28.5,12.5C 24.8534,15.8113 21.1867,19.1446 17.5,22.5C 16.5344,20.604 16.2011,18.604 16.5,16.5C 13.4816,16.6646 10.4816,16.498 7.5,16C 4.34442,7.31807 7.34442,4.15141 16.5,6.5C 16.2011,4.39605 16.5344,2.39605 17.5,0.5C 21.1867,3.85537 24.8534,7.18871 28.5,10.5 Z"/></g>
<g><path style="opacity:1" fill="#cd2c90" d="M 2.5,-0.5 C 5.5,-0.5 8.5,-0.5 11.5,-0.5C 8.53225,0.969121 5.36558,2.30245 2,3.5C 1.33333,8.83333 1.33333,14.1667 2,19.5C 5.36558,20.6975 8.53225,22.0309 11.5,23.5C 8.5,23.5 5.5,23.5 2.5,23.5C 1.83333,22.1667 0.833333,21.1667 -0.5,20.5C -0.5,14.5 -0.5,8.5 -0.5,2.5C 0.833333,1.83333 1.83333,0.833333 2.5,-0.5 Z"/></g>
<g><path style="opacity:1" fill="#fbf0f7" d="M -0.5,20.5 C 0.833333,21.1667 1.83333,22.1667 2.5,23.5C 1.5,23.5 0.5,23.5 -0.5,23.5C -0.5,22.5 -0.5,21.5 -0.5,20.5 Z"/></g>
</svg>
