<?xml version="1.0" encoding="UTF-8"?>
<!DOCTYPE svg PUBLIC "-//W3C//DTD SVG 1.1//EN" "http://www.w3.org/Graphics/SVG/1.1/DTD/svg11.dtd">
<svg xmlns="http://www.w3.org/2000/svg" version="1.1" width="500px" height="500px" style="shape-rendering:geometricPrecision; text-rendering:geometricPrecision; image-rendering:optimizeQuality; fill-rule:evenodd; clip-rule:evenodd" xmlns:xlink="http://www.w3.org/1999/xlink">
<g><path style="opacity:0.915" fill="#fefffe" d="M 76.5,-0.5 C 191.833,-0.5 307.167,-0.5 422.5,-0.5C 423.918,1.30794 425.918,1.97461 428.5,1.5C 428.5,2.5 428.5,3.5 428.5,4.5C 429.5,4.5 430.5,4.5 431.5,4.5C 431.5,5.5 431.5,6.5 431.5,7.5C 432.5,7.5 433.5,7.5 434.5,7.5C 434.5,8.5 434.5,9.5 434.5,10.5C 435.5,10.5 436.5,10.5 437.5,10.5C 437.5,11.5 437.5,12.5 437.5,13.5C 440.645,14.0767 442.145,16.0767 442,19.5C 442.667,173.833 442.667,328.167 442,482.5C 441.02,484.059 440.187,485.726 439.5,487.5C 437.929,488.309 436.262,488.643 434.5,488.5C 435.5,493.5 433.5,495.5 428.5,494.5C 428.5,495.5 428.5,496.5 428.5,497.5C 426.517,497.157 425.183,497.824 424.5,499.5C 413.167,499.5 401.833,499.5 390.5,499.5C 389.448,497.744 387.781,497.077 385.5,497.5C 385.5,496.5 385.5,495.5 385.5,494.5C 384.5,494.5 383.5,494.5 382.5,494.5C 382.5,493.5 382.5,492.5 382.5,491.5C 381.5,491.5 380.5,491.5 379.5,491.5C 379.5,490.5 379.5,489.5 379.5,488.5C 378.5,488.5 377.5,488.5 376.5,488.5C 376.5,487.5 376.5,486.5 376.5,485.5C 375.5,485.5 374.5,485.5 373.5,485.5C 373.5,484.5 373.5,483.5 373.5,482.5C 372.5,482.5 371.5,482.5 370.5,482.5C 370.5,481.5 370.5,480.5 370.5,479.5C 363.5,475.833 358.167,470.5 354.5,463.5C 350.833,463.167 348.833,461.167 348.5,457.5C 347.5,457.5 346.5,457.5 345.5,457.5C 345.5,456.5 345.5,455.5 345.5,454.5C 344.5,454.5 343.5,454.5 342.5,454.5C 342.5,450.5 340.5,448.5 336.5,448.5C 334.351,443.834 331.185,439.834 327,436.5C 326.517,435.552 326.351,434.552 326.5,433.5C 325.448,433.649 324.448,433.483 323.5,433C 319.96,428.962 316.294,425.129 312.5,421.5C 311.754,420.264 311.421,418.93 311.5,417.5C 310.5,417.5 309.5,417.5 308.5,417.5C 308.5,416.5 308.5,415.5 308.5,414.5C 307.5,414.5 306.5,414.5 305.5,414.5C 305.5,413.5 305.5,412.5 305.5,411.5C 304.5,411.5 303.5,411.5 302.5,411.5C 302.5,410.5 302.5,409.5 302.5,408.5C 301.5,408.5 300.5,408.5 299.5,408.5C 299.5,407.5 299.5,406.5 299.5,405.5C 298.5,405.5 297.5,405.5 296.5,405.5C 296.5,404.5 296.5,403.5 296.5,402.5C 295.448,402.649 294.448,402.483 293.5,402C 291.71,399.509 289.543,397.342 287,395.5C 286.517,394.552 286.351,393.552 286.5,392.5C 285.5,392.5 284.5,392.5 283.5,392.5C 279.658,386.256 274.824,380.59 269,375.5C 268.51,374.207 268.343,372.873 268.5,371.5C 266.567,371.271 264.9,370.438 263.5,369C 260.333,365.167 256.833,361.667 253,358.5C 252.517,357.552 252.351,356.552 252.5,355.5C 250.5,355.5 248.5,355.5 246.5,355.5C 245.801,357.995 244.801,360.328 243.5,362.5C 242.5,362.5 241.5,362.5 240.5,362.5C 240.5,363.5 240.5,364.5 240.5,365.5C 239.5,365.5 238.5,365.5 237.5,365.5C 237.5,366.5 237.5,367.5 237.5,368.5C 236.5,368.5 235.5,368.5 234.5,368.5C 234.5,369.5 234.5,370.5 234.5,371.5C 229.859,373.976 226.359,377.643 224,382.5C 219.145,384.184 216.311,387.517 215.5,392.5C 214.5,392.5 213.5,392.5 212.5,392.5C 212.5,393.5 212.5,394.5 212.5,395.5C 211.5,395.5 210.5,395.5 209.5,395.5C 209.649,396.552 209.483,397.552 209,398.5C 204.833,402.667 200.667,406.833 196.5,411C 195.552,411.483 194.552,411.649 193.5,411.5C 193.5,412.5 193.5,413.5 193.5,414.5C 192.5,414.5 191.5,414.5 190.5,414.5C 190.5,415.5 190.5,416.5 190.5,417.5C 189.5,417.5 188.5,417.5 187.5,417.5C 187.5,418.5 187.5,419.5 187.5,420.5C 186.5,420.5 185.5,420.5 184.5,420.5C 183.029,424.653 180.363,427.987 176.5,430.5C 175.614,431.325 175.281,432.325 175.5,433.5C 174.5,433.5 173.5,433.5 172.5,433.5C 172.719,434.675 172.386,435.675 171.5,436.5C 168.213,439.076 165.38,442.076 163,445.5C 162.517,446.448 162.351,447.448 162.5,448.5C 161.5,448.5 160.5,448.5 159.5,448.5C 159.5,449.5 159.5,450.5 159.5,451.5C 158.5,451.5 157.5,451.5 156.5,451.5C 156.5,452.5 156.5,453.5 156.5,454.5C 155.5,454.5 154.5,454.5 153.5,454.5C 153.5,455.5 153.5,456.5 153.5,457.5C 152.5,457.5 151.5,457.5 150.5,457.5C 150.5,458.5 150.5,459.5 150.5,460.5C 149.5,460.5 148.5,460.5 147.5,460.5C 147.5,461.5 147.5,462.5 147.5,463.5C 146.5,463.5 145.5,463.5 144.5,463.5C 142.5,466.833 140.5,470.167 138.5,473.5C 137.5,473.5 136.5,473.5 135.5,473.5C 135.5,474.5 135.5,475.5 135.5,476.5C 134.5,476.5 133.5,476.5 132.5,476.5C 132.5,477.5 132.5,478.5 132.5,479.5C 131.5,479.5 130.5,479.5 129.5,479.5C 129.35,483.98 127.017,485.98 122.5,485.5C 122.5,486.5 122.5,487.5 122.5,488.5C 121.5,488.5 120.5,488.5 119.5,488.5C 119.5,489.5 119.5,490.5 119.5,491.5C 118.5,491.5 117.5,491.5 116.5,491.5C 116.5,492.5 116.5,493.5 116.5,494.5C 115.5,494.5 114.5,494.5 113.5,494.5C 113.5,495.5 113.5,496.5 113.5,497.5C 111.517,497.157 110.183,497.824 109.5,499.5C 97.8333,499.5 86.1667,499.5 74.5,499.5C 73.8166,497.824 72.4832,497.157 70.5,497.5C 70.5,496.5 70.5,495.5 70.5,494.5C 69.5,494.5 68.5,494.5 67.5,494.5C 67.5,493.5 67.5,492.5 67.5,491.5C 66.5,491.5 65.5,491.5 64.5,491.5C 64.5,490.5 64.5,489.5 64.5,488.5C 63.5,488.5 62.5,488.5 61.5,488.5C 61.5,487.5 61.5,486.5 61.5,485.5C 59.6096,485.703 58.1096,485.037 57,483.5C 56.8333,406 56.6667,328.5 56.5,251C 56.5144,171.766 57.181,92.5997 58.5,13.5C 59.5,13.5 60.5,13.5 61.5,13.5C 61.5,12.5 61.5,11.5 61.5,10.5C 62.5,10.5 63.5,10.5 64.5,10.5C 64.5,9.5 64.5,8.5 64.5,7.5C 65.5,7.5 66.5,7.5 67.5,7.5C 67.5,6.5 67.5,5.5 67.5,4.5C 68.5,4.5 69.5,4.5 70.5,4.5C 70.5,3.5 70.5,2.5 70.5,1.5C 73.0821,1.97461 75.0821,1.30794 76.5,-0.5 Z M 106.5,44.5 C 204.552,44.7807 302.552,44.7807 400.5,44.5C 400.667,169.167 400.5,293.834 400,418.5C 398.173,420.24 398.34,421.907 400.5,423.5C 397.931,425.976 397.931,428.476 400.5,431C 398.077,434.825 398.077,438.491 400.5,442C 399.552,442.483 398.552,442.649 397.5,442.5C 397.5,441.5 397.5,440.5 397.5,439.5C 396.5,439.5 395.5,439.5 394.5,439.5C 394.5,438.5 394.5,437.5 394.5,436.5C 393.5,436.5 392.5,436.5 391.5,436.5C 391.5,435.5 391.5,434.5 391.5,433.5C 390.5,433.5 389.5,433.5 388.5,433.5C 388.5,432.5 388.5,431.5 388.5,430.5C 387.5,430.5 386.5,430.5 385.5,430.5C 385.5,429.5 385.5,428.5 385.5,427.5C 384.5,427.5 383.5,427.5 382.5,427.5C 382.649,426.448 382.483,425.448 382,424.5C 379.528,422.544 377.695,420.211 376.5,417.5C 375.5,417.5 374.5,417.5 373.5,417.5C 373.719,416.325 373.386,415.325 372.5,414.5C 367.778,409.49 363.111,404.49 358.5,399.5C 357.614,398.675 357.281,397.675 357.5,396.5C 356.5,396.5 355.5,396.5 354.5,396.5C 354.5,395.5 354.5,394.5 354.5,393.5C 353.5,393.5 352.5,393.5 351.5,393.5C 351.649,392.448 351.483,391.448 351,390.5C 343.879,384.204 337.379,377.371 331.5,370C 329.975,368.991 328.308,368.491 326.5,368.5C 326.66,366.801 326.494,365.134 326,363.5C 323.836,361.852 321.669,360.185 319.5,358.5C 314.307,350.94 308.307,344.106 301.5,338C 300.552,337.517 299.552,337.351 298.5,337.5C 298.5,336.5 298.5,335.5 298.5,334.5C 297.5,334.5 296.5,334.5 295.5,334.5C 295.167,330.833 293.167,328.833 289.5,328.5C 289.66,326.801 289.494,325.134 289,323.5C 286.502,321.846 284.002,320.18 281.5,318.5C 279.198,314.364 276.032,311.031 272,308.5C 270.01,305.512 267.677,302.845 265,300.5C 264.517,299.552 264.351,298.552 264.5,297.5C 263.5,297.5 262.5,297.5 261.5,297.5C 261.5,296.5 261.5,295.5 261.5,294.5C 260.5,294.5 259.5,294.5 258.5,294.5C 258.637,289.806 256.303,287.639 251.5,288C 249.59,285.518 247.257,285.018 244.5,286.5C 243.691,288.071 243.357,289.738 243.5,291.5C 242.5,291.5 241.5,291.5 240.5,291.5C 239.277,295.365 236.611,297.865 232.5,299C 231.842,300.905 230.675,302.405 229,303.5C 228.667,305.167 228.333,306.833 228,308.5C 226.867,306.789 225.367,306.289 223.5,307C 222.833,309 222.167,311 221.5,313C 219.866,313.494 218.199,313.66 216.5,313.5C 216.492,316.545 216.159,319.545 215.5,322.5C 214.5,322.5 213.5,322.5 212.5,322.5C 212.5,323.5 212.5,324.5 212.5,325.5C 211.5,325.5 210.5,325.5 209.5,325.5C 209.5,326.5 209.5,327.5 209.5,328.5C 205.5,328.5 203.5,330.5 203.5,334.5C 201.567,334.729 199.9,335.562 198.5,337C 197.663,338.011 197.33,339.178 197.5,340.5C 196.5,340.5 195.5,340.5 194.5,340.5C 193.295,343.382 191.295,345.716 188.5,347.5C 187.902,348.795 187.402,350.128 187,351.5C 183.313,354.353 180.147,357.686 177.5,361.5C 173.784,362.563 171.117,364.897 169.5,368.5C 167.726,369.187 166.059,370.02 164.5,371C 167.468,373.178 167.135,374.344 163.5,374.5C 163.5,375.5 163.5,376.5 163.5,377.5C 162.5,377.5 161.5,377.5 160.5,377.5C 160.5,378.5 160.5,379.5 160.5,380.5C 159.5,380.5 158.5,380.5 157.5,380.5C 157.5,381.5 157.5,382.5 157.5,383.5C 156.448,383.351 155.448,383.517 154.5,384C 153.667,385.5 152.5,386.667 151,387.5C 150.517,388.448 150.351,389.448 150.5,390.5C 149.5,390.5 148.5,390.5 147.5,390.5C 147.719,391.675 147.386,392.675 146.5,393.5C 143.5,395.833 140.833,398.5 138.5,401.5C 137.675,402.386 136.675,402.719 135.5,402.5C 135.069,405.449 133.902,408.116 132,410.5C 128.758,411.782 126.091,413.782 124,416.5C 123.51,417.793 123.343,419.127 123.5,420.5C 122.448,420.351 121.448,420.517 120.5,421C 119.667,422.5 118.5,423.667 117,424.5C 116.517,425.448 116.351,426.448 116.5,427.5C 115.5,427.5 114.5,427.5 113.5,427.5C 113.5,428.5 113.5,429.5 113.5,430.5C 112.5,430.5 111.5,430.5 110.5,430.5C 110.5,431.5 110.5,432.5 110.5,433.5C 109.5,433.5 108.5,433.5 107.5,433.5C 107.5,434.5 107.5,435.5 107.5,436.5C 106.5,436.5 105.5,436.5 104.5,436.5C 104.5,437.5 104.5,438.5 104.5,439.5C 103.5,439.5 102.5,439.5 101.5,439.5C 101.539,441.359 100.706,442.692 99,443.5C 98.5193,310.931 98.3527,178.264 98.5,45.5C 100.199,45.6204 101.865,45.9537 103.5,46.5C 105.038,46.5466 106.038,45.8799 106.5,44.5 Z"/></g>
</svg>
