<?xml version="1.0" encoding="UTF-8"?>
<!DOCTYPE svg PUBLIC "-//W3C//DTD SVG 1.1//EN" "http://www.w3.org/Graphics/SVG/1.1/DTD/svg11.dtd">
<svg xmlns="http://www.w3.org/2000/svg" version="1.1" width="500px" height="500px" style="shape-rendering:geometricPrecision; text-rendering:geometricPrecision; image-rendering:optimizeQuality; fill-rule:evenodd; clip-rule:evenodd" xmlns:xlink="http://www.w3.org/1999/xlink">
<g><path style="opacity:0.982" fill="#fefffe" d="M 77.5,-0.5 C 192.5,-0.5 307.5,-0.5 422.5,-0.5C 422.821,1.04814 423.821,1.71481 425.5,1.5C 425.5,2.5 425.5,3.5 425.5,4.5C 426.5,4.5 427.5,4.5 428.5,4.5C 428.5,5.5 428.5,6.5 428.5,7.5C 429.5,7.5 430.5,7.5 431.5,7.5C 431.5,8.5 431.5,9.5 431.5,10.5C 432.5,10.5 433.5,10.5 434.5,10.5C 434.5,11.5 434.5,12.5 434.5,13.5C 435.5,13.5 436.5,13.5 437.5,13.5C 438.816,92.1098 439.483,170.777 439.5,249.5C 439.483,328.223 438.816,406.89 437.5,485.5C 436.5,485.5 435.5,485.5 434.5,485.5C 434.5,486.5 434.5,487.5 434.5,488.5C 433.5,488.5 432.5,488.5 431.5,488.5C 431.5,489.5 431.5,490.5 431.5,491.5C 430.5,491.5 429.5,491.5 428.5,491.5C 428.5,492.5 428.5,493.5 428.5,494.5C 427.5,494.5 426.5,494.5 425.5,494.5C 425.5,495.5 425.5,496.5 425.5,497.5C 422.918,497.025 420.918,497.692 419.5,499.5C 409.5,499.5 399.5,499.5 389.5,499.5C 388.082,497.692 386.082,497.025 383.5,497.5C 383.5,496.5 383.5,495.5 383.5,494.5C 382.5,494.5 381.5,494.5 380.5,494.5C 380.5,493.5 380.5,492.5 380.5,491.5C 379.448,491.649 378.448,491.483 377.5,491C 374.321,487.322 370.988,483.822 367.5,480.5C 366.675,479.614 365.675,479.281 364.5,479.5C 364.719,478.325 364.386,477.325 363.5,476.5C 362.305,474.703 360.638,473.703 358.5,473.5C 358.719,472.325 358.386,471.325 357.5,470.5C 350.323,464.663 344.657,457.663 340.5,449.5C 339.5,449.5 338.5,449.5 337.5,449.5C 337.5,448.5 337.5,447.5 337.5,446.5C 336.5,446.5 335.5,446.5 334.5,446.5C 334.5,445.5 334.5,444.5 334.5,443.5C 333.5,443.5 332.5,443.5 331.5,443.5C 331.5,442.5 331.5,441.5 331.5,440.5C 330.5,440.5 329.5,440.5 328.5,440.5C 328.5,439.5 328.5,438.5 328.5,437.5C 327.5,437.5 326.5,437.5 325.5,437.5C 325.5,436.5 325.5,435.5 325.5,434.5C 324.5,434.5 323.5,434.5 322.5,434.5C 322.5,433.5 322.5,432.5 322.5,431.5C 321.5,431.5 320.5,431.5 319.5,431.5C 315.631,425.151 310.797,419.484 305,414.5C 303.87,412.067 302.704,409.734 301.5,407.5C 300.5,407.5 299.5,407.5 298.5,407.5C 297.199,405.328 296.199,402.995 295.5,400.5C 294.5,400.5 293.5,400.5 292.5,400.5C 292.5,399.5 292.5,398.5 292.5,397.5C 291.5,397.5 290.5,397.5 289.5,397.5C 289.5,396.5 289.5,395.5 289.5,394.5C 288.5,394.5 287.5,394.5 286.5,394.5C 286.5,393.5 286.5,392.5 286.5,391.5C 285.5,391.5 284.5,391.5 283.5,391.5C 283.5,390.5 283.5,389.5 283.5,388.5C 280.228,386.849 277.228,384.683 274.5,382C 272.826,380.494 271.826,378.661 271.5,376.5C 270.5,376.5 269.5,376.5 268.5,376.5C 268.028,373.185 266.195,370.851 263,369.5C 259.965,366.063 257.465,362.397 255.5,358.5C 254.5,358.5 253.5,358.5 252.5,358.5C 252.5,357.5 252.5,356.5 252.5,355.5C 250.5,355.5 248.5,355.5 246.5,355.5C 246.5,356.5 246.5,357.5 246.5,358.5C 245.5,358.5 244.5,358.5 243.5,358.5C 243.5,359.5 243.5,360.5 243.5,361.5C 242.5,361.5 241.5,361.5 240.5,361.5C 240.5,362.5 240.5,363.5 240.5,364.5C 239.5,364.5 238.5,364.5 237.5,364.5C 237.5,365.5 237.5,366.5 237.5,367.5C 236.5,367.5 235.5,367.5 234.5,367.5C 234.5,368.5 234.5,369.5 234.5,370.5C 233.5,370.5 232.5,370.5 231.5,370.5C 231.5,371.5 231.5,372.5 231.5,373.5C 230.5,373.5 229.5,373.5 228.5,373.5C 228.66,375.199 228.494,376.866 228,378.5C 223.225,382.088 219.391,386.421 216.5,391.5C 215.5,391.5 214.5,391.5 213.5,391.5C 213.5,392.5 213.5,393.5 213.5,394.5C 212.5,394.5 211.5,394.5 210.5,394.5C 210.5,395.5 210.5,396.5 210.5,397.5C 209.5,397.5 208.5,397.5 207.5,397.5C 207.5,398.5 207.5,399.5 207.5,400.5C 206.5,400.5 205.5,400.5 204.5,400.5C 201.294,405.881 197.127,410.548 192,414.5C 188.856,419.278 185.689,423.945 182.5,428.5C 181.5,428.5 180.5,428.5 179.5,428.5C 179.5,429.5 179.5,430.5 179.5,431.5C 178.5,431.5 177.5,431.5 176.5,431.5C 176.5,432.5 176.5,433.5 176.5,434.5C 175.5,434.5 174.5,434.5 173.5,434.5C 173.5,435.5 173.5,436.5 173.5,437.5C 172.5,437.5 171.5,437.5 170.5,437.5C 170.5,438.5 170.5,439.5 170.5,440.5C 169.5,440.5 168.5,440.5 167.5,440.5C 167.5,441.5 167.5,442.5 167.5,443.5C 166.5,443.5 165.5,443.5 164.5,443.5C 164.5,444.5 164.5,445.5 164.5,446.5C 163.5,446.5 162.5,446.5 161.5,446.5C 161.5,447.5 161.5,448.5 161.5,449.5C 160.5,449.5 159.5,449.5 158.5,449.5C 158.579,450.93 158.246,452.264 157.5,453.5C 151.317,459.961 145.65,466.628 140.5,473.5C 139.5,473.5 138.5,473.5 137.5,473.5C 137.5,474.5 137.5,475.5 137.5,476.5C 136.5,476.5 135.5,476.5 134.5,476.5C 134.5,477.5 134.5,478.5 134.5,479.5C 133.5,479.5 132.5,479.5 131.5,479.5C 131.5,480.5 131.5,481.5 131.5,482.5C 130.5,482.5 129.5,482.5 128.5,482.5C 128.5,483.5 128.5,484.5 128.5,485.5C 127.5,485.5 126.5,485.5 125.5,485.5C 125.5,486.5 125.5,487.5 125.5,488.5C 124.5,488.5 123.5,488.5 122.5,488.5C 122.5,489.5 122.5,490.5 122.5,491.5C 121.5,491.5 120.5,491.5 119.5,491.5C 119.5,492.5 119.5,493.5 119.5,494.5C 118.448,494.351 117.448,494.517 116.5,495C 114.425,496.568 112.425,498.068 110.5,499.5C 100.167,499.5 89.8333,499.5 79.5,499.5C 78.0821,497.692 76.0821,497.025 73.5,497.5C 73.5,496.5 73.5,495.5 73.5,494.5C 72.5,494.5 71.5,494.5 70.5,494.5C 70.5,493.5 70.5,492.5 70.5,491.5C 69.5,491.5 68.5,491.5 67.5,491.5C 67.5,490.5 67.5,489.5 67.5,488.5C 66.5,488.5 65.5,488.5 64.5,488.5C 64.5,487.5 64.5,486.5 64.5,485.5C 63.5,485.5 62.5,485.5 61.5,485.5C 60.1841,407.057 59.5175,328.557 59.5,250C 59.6667,173.5 59.8333,97 60,20.5C 60.949,16.8199 62.449,13.4865 64.5,10.5C 65.5,10.5 66.5,10.5 67.5,10.5C 67.5,9.5 67.5,8.5 67.5,7.5C 68.5,7.5 69.5,7.5 70.5,7.5C 70.5,6.5 70.5,5.5 70.5,4.5C 73.1278,3.19944 75.4611,1.53277 77.5,-0.5 Z"/></g>
</svg>
