<?xml version="1.0" encoding="UTF-8"?>
<!DOCTYPE svg PUBLIC "-//W3C//DTD SVG 1.1//EN" "http://www.w3.org/Graphics/SVG/1.1/DTD/svg11.dtd">
<svg xmlns="http://www.w3.org/2000/svg" version="1.1" width="40px" height="42px" style="shape-rendering:geometricPrecision; text-rendering:geometricPrecision; image-rendering:optimizeQuality; fill-rule:evenodd; clip-rule:evenodd" xmlns:xlink="http://www.w3.org/1999/xlink">
<g><path style="opacity:1" fill="#fcfafe" d="M -0.5,-0.5 C 5.83333,-0.5 12.1667,-0.5 18.5,-0.5C 14.7454,2.47997 11.2454,5.81331 8,9.5C 7.79798,14.9885 6.79798,20.3219 5,25.5C 3.62901,28.2661 1.79568,30.5994 -0.5,32.5C -0.5,21.5 -0.5,10.5 -0.5,-0.5 Z"/></g>
<g><path style="opacity:1" fill="#fcfbfe" d="M 20.5,-0.5 C 26.8333,-0.5 33.1667,-0.5 39.5,-0.5C 39.5,10.5 39.5,21.5 39.5,32.5C 36.9493,30.4223 35.116,27.7556 34,24.5C 32.4233,18.8647 31.09,13.1981 30,7.5C 28.0478,5.10644 25.5478,3.60644 22.5,3C 21.695,1.88732 21.0283,0.72065 20.5,-0.5 Z"/></g>
<g><path style="opacity:1" fill="#a062ef" d="M 18.5,-0.5 C 19.1667,-0.5 19.8333,-0.5 20.5,-0.5C 21.0283,0.72065 21.695,1.88732 22.5,3C 25.5478,3.60644 28.0478,5.10644 30,7.5C 31.09,13.1981 32.4233,18.8647 34,24.5C 35.116,27.7556 36.9493,30.4223 39.5,32.5C 39.5,33.1667 39.5,33.8333 39.5,34.5C 34.9296,35.441 30.263,35.7744 25.5,35.5C 25.385,37.9468 24.385,39.9468 22.5,41.5C 20.5,41.5 18.5,41.5 16.5,41.5C 14.615,39.9468 13.615,37.9468 13.5,35.5C 8.73704,35.7744 4.07037,35.441 -0.5,34.5C -0.5,33.8333 -0.5,33.1667 -0.5,32.5C 1.79568,30.5994 3.62901,28.2661 5,25.5C 6.79798,20.3219 7.79798,14.9885 8,9.5C 11.2454,5.81331 14.7454,2.47997 18.5,-0.5 Z"/></g>
<g><path style="opacity:1" fill="#fefefe" d="M -0.5,34.5 C 4.07037,35.441 8.73704,35.7744 13.5,35.5C 13.615,37.9468 14.615,39.9468 16.5,41.5C 10.8333,41.5 5.16667,41.5 -0.5,41.5C -0.5,39.1667 -0.5,36.8333 -0.5,34.5 Z"/></g>
<g><path style="opacity:1" fill="#fefefe" d="M 39.5,34.5 C 39.5,36.8333 39.5,39.1667 39.5,41.5C 33.8333,41.5 28.1667,41.5 22.5,41.5C 24.385,39.9468 25.385,37.9468 25.5,35.5C 30.263,35.7744 34.9296,35.441 39.5,34.5 Z"/></g>
</svg>
