<?xml version="1.0" encoding="UTF-8"?>
<!DOCTYPE svg PUBLIC "-//W3C//DTD SVG 1.1//EN" "http://www.w3.org/Graphics/SVG/1.1/DTD/svg11.dtd">
<svg xmlns="http://www.w3.org/2000/svg" version="1.1" width="500px" height="500px" style="shape-rendering:geometricPrecision; text-rendering:geometricPrecision; image-rendering:optimizeQuality; fill-rule:evenodd; clip-rule:evenodd" xmlns:xlink="http://www.w3.org/1999/xlink">
<g><path style="opacity:0.989" fill="#4d15bb" d="M 264.5,2.5 C 291.5,2.5 318.5,2.5 345.5,2.5C 346.873,36.8458 359.373,66.1792 383,90.5C 402.835,108.914 426.335,120.081 453.5,124C 458.519,124.411 463.519,124.911 468.5,125.5C 468.828,152.741 468.495,179.907 467.5,207C 422.597,206.255 382.097,192.755 346,166.5C 346.423,220.435 346.589,274.269 346.5,328C 348.994,393.066 322.66,442.4 267.5,476C 213.115,502.925 159.782,501.258 107.5,471C 70.7274,445.864 47.8941,411.364 39,367.5C 31.1767,299.977 55.6767,247.477 112.5,210C 144.418,192.483 178.418,186.15 214.5,191C 215.828,218.101 215.828,245.267 214.5,272.5C 183.252,265.361 156.919,273.694 135.5,297.5C 130.664,304.827 126.497,312.494 123,320.5C 114.547,359.076 127.381,387.909 161.5,407C 195.731,420.317 224.897,413.151 249,385.5C 256.399,375.307 261.065,363.973 263,351.5C 263.171,235.127 263.671,118.793 264.5,2.5 Z"/></g>
</svg>
