<?xml version="1.0" encoding="UTF-8"?>
<!DOCTYPE svg PUBLIC "-//W3C//DTD SVG 1.1//EN" "http://www.w3.org/Graphics/SVG/1.1/DTD/svg11.dtd">
<svg xmlns="http://www.w3.org/2000/svg" version="1.1" width="3px" height="13px" style="shape-rendering:geometricPrecision; text-rendering:geometricPrecision; image-rendering:optimizeQuality; fill-rule:evenodd; clip-rule:evenodd" xmlns:xlink="http://www.w3.org/1999/xlink">
<g><path style="opacity:1" fill="#6637c3" d="M -0.5,-0.5 C 0.5,-0.5 1.5,-0.5 2.5,-0.5C 2.5,0.5 2.5,1.5 2.5,2.5C 1.5,2.5 0.5,2.5 -0.5,2.5C -0.5,1.5 -0.5,0.5 -0.5,-0.5 Z"/></g>
<g><path style="opacity:1" fill="#fefffe" d="M -0.5,2.5 C 0.5,2.5 1.5,2.5 2.5,2.5C 2.5,3.16667 2.5,3.83333 2.5,4.5C 1.5,4.5 0.5,4.5 -0.5,4.5C -0.5,3.83333 -0.5,3.16667 -0.5,2.5 Z"/></g>
<g><path style="opacity:1" fill="#6637c3" d="M -0.5,4.5 C 0.5,4.5 1.5,4.5 2.5,4.5C 2.5,5.5 2.5,6.5 2.5,7.5C 1.5,7.5 0.5,7.5 -0.5,7.5C -0.5,6.5 -0.5,5.5 -0.5,4.5 Z"/></g>
<g><path style="opacity:1" fill="#fefffe" d="M -0.5,7.5 C 0.5,7.5 1.5,7.5 2.5,7.5C 2.5,8.16667 2.5,8.83333 2.5,9.5C 1.5,9.5 0.5,9.5 -0.5,9.5C -0.5,8.83333 -0.5,8.16667 -0.5,7.5 Z"/></g>
<g><path style="opacity:1" fill="#6637c3" d="M -0.5,9.5 C 0.5,9.5 1.5,9.5 2.5,9.5C 2.5,10.5 2.5,11.5 2.5,12.5C 1.5,12.5 0.5,12.5 -0.5,12.5C -0.5,11.5 -0.5,10.5 -0.5,9.5 Z"/></g>
</svg>
