<?xml version="1.0" encoding="UTF-8"?>
<!DOCTYPE svg PUBLIC "-//W3C//DTD SVG 1.1//EN" "http://www.w3.org/Graphics/SVG/1.1/DTD/svg11.dtd">
<svg xmlns="http://www.w3.org/2000/svg" version="1.1" width="500px" height="500px" style="shape-rendering:geometricPrecision; text-rendering:geometricPrecision; image-rendering:optimizeQuality; fill-rule:evenodd; clip-rule:evenodd" xmlns:xlink="http://www.w3.org/1999/xlink">
<g><path style="opacity:0.984" fill="#fefefe" d="M 195.5,99.5 C 224.852,99.1484 254.185,99.6484 283.5,101C 306.277,102.089 328.277,106.755 349.5,115C 369.619,123.284 382.952,137.784 389.5,158.5C 394.546,157.049 399.713,156.382 405,156.5C 443.346,154.332 472.013,169.666 491,202.5C 499.805,223.768 500.805,245.435 494,267.5C 477.61,304.457 449.11,321.623 408.5,319C 390.974,316.402 375.641,309.235 362.5,297.5C 319.73,375.221 254.063,409.055 165.5,399C 110.648,387.794 68.8148,358.294 40,310.5C 14.594,264.481 3.59405,215.148 7,162.5C 8.96151,141.039 19.7948,126.206 39.5,118C 56.68,112.031 74.3467,108.364 92.5,107C 126.969,104.207 161.302,101.707 195.5,99.5 Z M 408.5,185.5 C 445.593,183.871 466.927,201.371 472.5,238C 467.835,275.157 446.835,292.824 409.5,291C 395.979,288.491 384.812,281.991 376,271.5C 375.362,270.391 374.862,269.225 374.5,268C 381.959,244.414 386.125,220.248 387,195.5C 393.569,190.708 400.735,187.375 408.5,185.5 Z"/></g>
<g><path style="opacity:1" fill="#a21145" d="M 192.5,110.5 C 239.394,108.7 285.727,112.867 331.5,123C 343.502,126.11 354.835,130.776 365.5,137C 379.038,147.81 378.705,158.143 364.5,168C 342.853,178.079 320.186,184.746 296.5,188C 231.881,196.184 167.215,196.518 102.5,189C 77.4911,185.867 53.4911,179.2 30.5,169C 24.5815,166.083 20.4148,161.583 18,155.5C 17.0349,151.218 17.7016,147.218 20,143.5C 23.5813,139.248 27.748,135.748 32.5,133C 50.6976,125.034 69.6976,120.034 89.5,118C 123.89,114.128 158.224,111.628 192.5,110.5 Z"/></g>
</svg>
