<?xml version="1.0" encoding="UTF-8"?>
<!DOCTYPE svg PUBLIC "-//W3C//DTD SVG 1.1//EN" "http://www.w3.org/Graphics/SVG/1.1/DTD/svg11.dtd">
<svg xmlns="http://www.w3.org/2000/svg" version="1.1" width="40px" height="40px" style="shape-rendering:geometricPrecision; text-rendering:geometricPrecision; image-rendering:optimizeQuality; fill-rule:evenodd; clip-rule:evenodd" xmlns:xlink="http://www.w3.org/1999/xlink">
<g><path style="opacity:0.863" fill="#b2a5d5" d="M 39.5,6.5 C 39.5,15.5 39.5,24.5 39.5,33.5C 26.1667,34.8333 12.8333,34.8333 -0.5,33.5C -0.5,24.5 -0.5,15.5 -0.5,6.5C 12.8333,5.16667 26.1667,5.16667 39.5,6.5 Z M 4.5,9.5 C 14.5,8.16667 24.5,8.16667 34.5,9.5C 29.5401,13.2882 24.7068,17.2882 20,21.5C 14.8936,17.3703 9.72693,13.3703 4.5,9.5 Z M 13.5,20.5 C 9.54213,23.2854 5.70879,26.2854 2,29.5C 1.33333,23.1667 1.33333,16.8333 2,10.5C 6.02613,13.6984 9.85946,17.0317 13.5,20.5 Z M 35.5,11.5 C 36.8164,14.0866 37.483,17.0866 37.5,20.5C 37.3333,23.5 37.1667,26.5 37,29.5C 33.4069,26.6184 29.9069,23.6184 26.5,20.5C 29.3395,17.2654 32.3395,14.2654 35.5,11.5 Z M 14.5,21.5 C 18.4092,25.8122 21.9092,25.4789 25,20.5C 27.0881,24.924 30.2547,28.424 34.5,31C 24.5,31.6667 14.5,31.6667 4.5,31C 7.16667,29 9.83333,27 12.5,25C 13.8228,24.1841 14.4894,23.0174 14.5,21.5 Z"/></g>
<g><path style="opacity:0.127" fill="#665f7b" d="M 34.5,9.5 C 24.5,8.16667 14.5,8.16667 4.5,9.5C 3.95691,9.44001 3.62358,9.10667 3.5,8.5C 14.4849,7.33425 25.4849,7.16758 36.5,8C 35.9558,8.71719 35.2891,9.21719 34.5,9.5 Z"/></g>
</svg>
