<?xml version="1.0" encoding="UTF-8"?>
<!DOCTYPE svg PUBLIC "-//W3C//DTD SVG 1.1//EN" "http://www.w3.org/Graphics/SVG/1.1/DTD/svg11.dtd">
<svg xmlns="http://www.w3.org/2000/svg" version="1.1" width="960px" height="566px" style="shape-rendering:geometricPrecision; text-rendering:geometricPrecision; image-rendering:optimizeQuality; fill-rule:evenodd; clip-rule:evenodd" xmlns:xlink="http://www.w3.org/1999/xlink">
<g><path style="opacity:0.947" fill="#fefefe" d="M -0.5,432.5 C -0.5,310.167 -0.5,187.833 -0.5,65.5C 5.01384,56.591 13.0138,53.4244 23.5,56C 63.0667,79.6125 102.733,102.946 142.5,126C 201.5,126.667 260.5,126.667 319.5,126C 356.969,103.428 394.636,81.0949 432.5,59C 441.378,54.1292 450.045,54.4625 458.5,60C 459.667,61.8333 460.833,63.6667 462,65.5C 462.707,185.503 462.373,305.503 461,425.5C 460.014,431.138 457.681,436.138 454,440.5C 437.117,456.687 417.617,468.854 395.5,477C 363.691,489.361 332.191,496.528 301,498.5C 300,499.167 299,499.833 298,500.5C 295.568,499.707 293.234,499.374 291,499.5C 289.667,500.167 288.333,500.833 287,501.5C 284.974,500.981 282.974,500.647 281,500.5C 275.917,501.307 270.75,501.807 265.5,502C 240.5,502.667 215.5,502.667 190.5,502C 185.115,501.786 179.781,501.286 174.5,500.5C 172.329,500.727 170.162,501.06 168,501.5C 166.667,500.833 165.333,500.167 164,499.5C 121.17,497.797 78.6699,486.297 36.5,465C 32.8333,462.667 29.1667,460.333 25.5,458C 20.7886,453.62 15.7886,449.62 10.5,446C 6.59066,441.601 2.924,437.101 -0.5,432.5 Z M 36.5,107.5 C 68.685,125.97 100.185,144.637 131,163.5C 132.147,162.542 133.147,162.875 134,164.5C 134.333,164.167 134.667,163.833 135,163.5C 136.438,164.718 138.105,165.385 140,165.5C 201.386,164.173 262.719,164.173 324,165.5C 332.656,161.506 341.49,157.006 350.5,152C 375.354,137.135 400.187,122.301 425,107.5C 425.086,210.836 424.419,314.17 423,417.5C 419.871,420.73 416.538,423.73 413,426.5C 412.667,426.167 412.333,425.833 412,425.5C 407.252,428.791 402.419,431.958 397.5,435C 386.351,440.404 376.017,444.737 366.5,448C 345.515,453.671 324.515,458.171 303.5,461.5C 302.558,461.392 301.725,461.059 301,460.5C 298.312,462.385 295.478,462.718 292.5,461.5C 289.505,463.6 286.338,463.934 283,462.5C 278.488,464.73 273.821,465.063 269,463.5C 266.79,464.022 264.623,464.688 262.5,465.5C 258.226,465.405 253.559,465.071 248.5,464.5C 235.17,467.135 221.837,467.135 208.5,464.5C 203.278,465.027 198.445,465.36 194,465.5C 189.722,463.169 185.222,462.836 180.5,464.5C 177.812,464.519 175.312,463.852 173,462.5C 169.501,463.867 166.167,463.534 163,461.5C 137.309,460.091 111.976,454.757 87,445.5C 79.4205,443.832 71.9205,440.999 64.5,437C 54.1535,431.639 44.6535,425.139 36,417.5C 35.1844,314.156 35.351,210.822 36.5,107.5 Z"/></g>
<g><path style="opacity:0.953" fill="#fefffe" d="M 556.5,87.5 C 570.765,87.201 583.765,91.0344 595.5,99C 601.914,105.494 606.247,113.161 608.5,122C 608.561,123.711 607.894,125.044 606.5,126C 604.444,126.311 602.444,126.811 600.5,127.5C 595.553,126.717 590.553,126.217 585.5,126C 581.887,122.387 578.221,118.721 574.5,115C 546.907,108.917 534.74,120.083 538,148.5C 543.076,162.958 553.243,169.125 568.5,167C 571.167,165.667 573.833,164.333 576.5,163C 579.521,158.982 582.854,155.316 586.5,152C 593.167,151.333 599.833,151.333 606.5,152C 607.939,152.991 608.939,154.324 609.5,156C 600.286,183.957 580.952,195.624 551.5,191C 521.992,183.809 508.159,164.976 510,134.5C 513.624,107.043 529.124,91.3765 556.5,87.5 Z"/></g>
<g><path style="opacity:0.96" fill="#fefffe" d="M 667.5,87.5 C 700.421,88.7556 718.421,105.756 721.5,138.5C 719.58,172.058 701.914,189.725 668.5,191.5C 636.262,189.429 619.262,172.262 617.5,140C 619.203,108.013 635.869,90.5128 667.5,87.5 Z M 667.5,113.5 C 687.416,115.59 695.916,126.59 693,146.5C 688.33,161.429 678.163,167.596 662.5,165C 648.309,159.8 642.476,149.633 645,134.5C 647.608,122.134 655.108,115.134 667.5,113.5 Z"/></g>
<g><path style="opacity:0.961" fill="#fefffe" d="M 897.5,87.5 C 938.638,91.1513 956.138,113.485 950,154.5C 944.014,175.481 930.181,187.647 908.5,191C 875.408,194.223 855.241,179.723 848,147.5C 845.4,123.198 854.567,105.031 875.5,93C 882.734,90.2881 890.068,88.4548 897.5,87.5 Z M 898.5,113.5 C 916.697,115.863 925.197,126.196 924,144.5C 922.468,155.096 916.634,161.929 906.5,165C 889.199,167.611 878.699,160.444 875,143.5C 874.026,126.396 881.859,116.396 898.5,113.5 Z"/></g>
<g><path style="opacity:0.958" fill="#fefffe" d="M 737.5,89.5 C 741.719,88.979 745.386,90.1457 748.5,93C 759.686,106.184 771.519,118.684 784,130.5C 789.969,125.533 795.635,120.199 801,114.5C 806.943,106.721 813.443,99.3876 820.5,92.5C 824.816,88.7817 828.982,88.7817 833,92.5C 833.667,123.5 833.667,154.5 833,185.5C 832.215,187.286 831.049,188.786 829.5,190C 823.5,190.667 817.5,190.667 811.5,190C 809.671,189.727 808.171,188.893 807,187.5C 806.667,174.833 806.333,162.167 806,149.5C 805.586,149.043 805.086,148.709 804.5,148.5C 799.042,154.459 793.376,160.292 787.5,166C 784.697,166.755 782.03,166.422 779.5,165C 773.947,159.1 768.28,153.767 762.5,149C 761.53,160.06 761.53,171.226 762.5,182.5C 762.55,185.574 761.217,187.741 758.5,189C 751.5,189.667 744.5,189.667 737.5,189C 736.692,188.692 736.025,188.192 735.5,187.5C 734.791,156.338 734.624,125.005 735,93.5C 735.662,92.0161 736.496,90.6828 737.5,89.5 Z"/></g>
<g><path style="opacity:0.869" fill="#fefefe" d="M 145.5,199.5 C 150.971,199.536 156.471,199.536 162,199.5C 167.643,201.236 173.143,203.402 178.5,206C 188.821,214.574 188.988,222.407 179,229.5C 177.333,228.167 175.667,228.167 174,229.5C 170.5,226.667 167,223.833 163.5,221C 150.986,217.765 140.153,220.598 131,229.5C 120.069,229.531 116.402,224.197 120,213.5C 127.048,206.062 135.548,201.395 145.5,199.5 Z"/></g>
<g><path style="opacity:0.961" fill="#fefffe" d="M 559.5,225.5 C 594.91,227.574 612.91,246.241 613.5,281.5C 611.813,289.58 609.813,297.58 607.5,305.5C 607.719,306.938 608.219,308.271 609,309.5C 614.166,314.489 618.332,320.156 621.5,326.5C 621.392,327.442 621.059,328.275 620.5,329C 611.167,329.667 601.833,329.667 592.5,329C 590.573,326.62 588.073,325.453 585,325.5C 566.1,332.017 547.933,330.517 530.5,321C 515.893,310.283 508.893,295.783 509.5,277.5C 511.601,246.067 528.268,228.734 559.5,225.5 Z M 557.5,251.5 C 574.971,251.804 584.637,260.638 586.5,278C 584.101,296.87 573.435,305.204 554.5,303C 544.366,299.929 538.532,293.096 537,282.5C 534.881,266.037 541.714,255.703 557.5,251.5 Z"/></g>
<g><path style="opacity:0.957" fill="#fefffe" d="M 629.5,227.5 C 635.509,227.334 641.509,227.501 647.5,228C 649.333,228.5 650.5,229.667 651,231.5C 650.122,253.449 650.456,275.449 652,297.5C 654.811,302.829 659.311,305.496 665.5,305.5C 672.035,305.818 676.868,303.151 680,297.5C 680.182,274.969 680.682,252.469 681.5,230C 681.905,229.055 682.572,228.388 683.5,228C 690.536,227.28 697.536,227.447 704.5,228.5C 705.981,254.511 705.814,280.511 704,306.5C 696.229,322.06 683.562,329.727 666,329.5C 649.599,330.049 637.266,323.382 629,309.5C 628.08,306.899 627.413,304.232 627,301.5C 626.803,293.451 626.303,285.451 625.5,277.5C 626.778,266.614 626.778,255.614 625.5,244.5C 626.15,239.851 626.65,235.184 627,230.5C 627.698,229.309 628.531,228.309 629.5,227.5 Z"/></g>
<g><path style="opacity:0.957" fill="#fefffe" d="M 728.5,227.5 C 746.836,227.333 765.17,227.5 783.5,228C 785.776,228.874 787.11,230.541 787.5,233C 786.487,236.467 786.487,239.967 787.5,243.5C 787.596,245.926 786.93,248.093 785.5,250C 774.931,251.287 764.265,251.954 753.5,252C 748.213,255.91 748.213,259.91 753.5,264C 762.833,264.333 772.167,264.667 781.5,265C 783.862,267.871 784.862,271.204 784.5,275C 784.631,279.367 783.631,283.367 781.5,287C 780.127,287.875 778.627,288.375 777,288.5C 768.907,287.36 760.74,287.527 752.5,289C 750.264,293.14 749.93,297.473 751.5,302C 751.905,302.945 752.572,303.612 753.5,304C 764.572,304.068 775.572,304.735 786.5,306C 787.126,306.75 787.626,307.584 788,308.5C 788.667,313.833 788.667,319.167 788,324.5C 787.626,325.416 787.126,326.25 786.5,327C 783.925,327.958 781.259,328.458 778.5,328.5C 764.394,327.507 750.227,327.507 736,328.5C 731.143,329.341 727.143,328.008 724,324.5C 724.217,294.498 724.05,264.331 723.5,234C 723.645,230.497 725.312,228.33 728.5,227.5 Z"/></g>
<g><path style="opacity:0.862" fill="#fefefe" d="M 335.5,232.5 C 345.598,235.031 348.432,241.031 344,250.5C 331.563,264.423 316.063,269.59 297.5,266C 288.77,264.586 282.27,260.086 278,252.5C 277.571,247.4 279.905,243.4 285,240.5C 287.333,240.5 289.667,240.5 292,240.5C 296.37,245.022 301.537,247.355 307.5,247.5C 312.644,246.672 317.644,245.338 322.5,243.5C 326.232,238.926 330.565,235.26 335.5,232.5 Z"/></g>
<g><path style="opacity:0.932" fill="#fefefe" d="M 149.5,284.5 C 158.488,285.392 166.655,289.059 174,295.5C 177.83,302.358 181.33,308.858 184.5,315C 183.858,318.457 184.524,321.79 186.5,325C 185.184,330.803 185.184,336.636 186.5,342.5C 184.849,344.402 184.516,346.402 185.5,348.5C 183.218,353.647 181.218,358.647 179.5,363.5C 170.134,381.789 156.134,386.622 137.5,378C 127.079,369.518 121.746,358.685 121.5,345.5C 128.003,341.414 134.67,337.581 141.5,334C 134.167,329.333 126.833,324.667 119.5,320C 121.999,309.987 126.666,301.154 133.5,293.5C 138.658,289.308 143.991,286.308 149.5,284.5 Z"/></g>
<g><path style="opacity:0.935" fill="#fefefe" d="M 306.5,284.5 C 319.629,285.652 329.462,291.985 336,303.5C 339.42,309.382 340.92,315.549 340.5,322C 333.833,326 327.167,330 320.5,334C 327.33,337.581 333.997,341.414 340.5,345.5C 340.448,358.772 335.115,369.605 324.5,378C 305.336,386.544 291.669,381.544 283.5,363C 281.699,362.683 281.366,362.016 282.5,361C 280.699,360.683 280.366,360.016 281.5,359C 279.699,358.683 279.366,358.016 280.5,357C 278.875,356.147 278.542,355.147 279.5,354C 278.272,349.953 276.938,345.953 275.5,342C 276.833,336.667 276.833,331.333 275.5,326C 277.464,323.833 277.798,321.499 276.5,319C 278.211,316.544 279.544,313.877 280.5,311C 282.648,304.769 285.981,298.769 290.5,293C 296.094,289.715 301.428,286.881 306.5,284.5 Z"/></g>
<g><path style="opacity:0.946" fill="#fefffe" d="M 807.5,363.5 C 833.956,365.098 844.79,378.765 840,404.5C 835.973,411.882 830.973,418.549 825,424.5C 824.177,428.664 822.01,431.831 818.5,434C 812.167,434.667 805.833,434.667 799.5,434C 797.484,432.972 796.484,431.305 796.5,429C 797.072,425.616 798.239,422.449 800,419.5C 805,413.833 810,408.167 815,402.5C 818.684,390.521 814.518,386.021 802.5,389C 800.392,391.895 798.059,394.561 795.5,397C 789.833,397.667 784.167,397.667 778.5,397C 777.128,395.758 776.128,394.258 775.5,392.5C 778.646,374.347 789.313,364.68 807.5,363.5 Z"/></g>
<g><path style="opacity:0.959" fill="#fefffe" d="M 629.5,364.5 C 633.803,363.796 637.303,365.13 640,368.5C 654.561,399.527 668.727,430.694 682.5,462C 681.663,463.011 681.33,464.178 681.5,465.5C 675.117,466.429 668.784,466.763 662.5,466.5C 661.205,465.902 659.872,465.402 658.5,465C 655.593,461.849 652.926,458.516 650.5,455C 644.244,453.897 637.911,453.397 631.5,453.5C 626.167,453.667 620.833,453.833 615.5,454C 614.069,454.465 612.903,455.299 612,456.5C 610.597,462.07 607.097,465.404 601.5,466.5C 595.28,465.895 589.114,465.228 583,464.5C 582.542,461.442 582.876,458.442 584,455.5C 597.617,426.259 611.284,396.925 625,367.5C 626.409,366.219 627.909,365.219 629.5,364.5 Z M 631.5,410.5 C 632.376,410.369 633.043,410.702 633.5,411.5C 635.705,416.741 638.038,421.908 640.5,427C 640.043,427.414 639.709,427.914 639.5,428.5C 634.615,429.802 629.782,429.802 625,428.5C 626.27,422.271 628.437,416.271 631.5,410.5 Z"/></g>
<g><path style="opacity:0.957" fill="#fefffe" d="M 518.5,365.5 C 537.17,365.333 555.836,365.5 574.5,366C 575.701,366.903 576.535,368.069 577,369.5C 577.667,375.167 577.667,380.833 577,386.5C 576.692,387.308 576.192,387.975 575.5,388.5C 565.213,389.31 554.88,389.81 544.5,390C 543.333,390.5 542.5,391.333 542,392.5C 541.333,397.167 541.333,401.833 542,406.5C 542.374,407.416 542.874,408.25 543.5,409C 549.508,410.437 555.508,410.604 561.5,409.5C 565.381,409.935 569.047,410.935 572.5,412.5C 573.621,418.114 573.788,423.78 573,429.5C 572.682,431.061 571.849,432.228 570.5,433C 564.116,433.206 557.783,433.706 551.5,434.5C 547.384,432.685 544.218,433.685 542,437.5C 541.667,445.833 541.333,454.167 541,462.5C 540.024,464.887 538.191,466.054 535.5,466C 530.167,466.667 524.833,466.667 519.5,466C 517.508,465.426 516.008,464.259 515,462.5C 514.556,433.246 514.39,404.08 514.5,375C 514.217,370.98 515.55,367.814 518.5,365.5 Z"/></g>
<g><path style="opacity:0.963" fill="#fefffe" d="M 693.5,365.5 C 717.075,365.173 740.575,365.506 764,366.5C 764.667,368.5 764.667,370.5 764,372.5C 752.971,392.564 741.971,412.564 731,432.5C 729.259,435.309 728.092,438.309 727.5,441.5C 739.897,441.98 752.23,442.813 764.5,444C 765.126,444.75 765.626,445.584 766,446.5C 766.667,451.833 766.667,457.167 766,462.5C 765.167,463.333 764.333,464.167 763.5,465C 737.835,465.5 712.169,465.667 686.5,465.5C 686.337,463.143 686.503,460.81 687,458.5C 700.254,435.989 712.42,412.989 723.5,389.5C 713.653,389.437 703.987,389.437 694.5,389.5C 692.742,388.872 691.242,387.872 690,386.5C 689.809,380.917 689.309,375.417 688.5,370C 689.445,367.554 691.111,366.054 693.5,365.5 Z"/></g>
<g><path style="opacity:0.934" fill="#fefffe" d="M 809.5,439.5 C 822.724,442.299 826.557,449.966 821,462.5C 819.421,464.041 817.587,465.208 815.5,466C 800.509,469.329 793.676,463.495 795,448.5C 798.132,442.528 802.965,439.528 809.5,439.5 Z"/></g>
</svg>
