<?xml version="1.0" encoding="UTF-8"?>
<!DOCTYPE svg PUBLIC "-//W3C//DTD SVG 1.1//EN" "http://www.w3.org/Graphics/SVG/1.1/DTD/svg11.dtd">
<svg xmlns="http://www.w3.org/2000/svg" version="1.1" width="500px" height="500px" style="shape-rendering:geometricPrecision; text-rendering:geometricPrecision; image-rendering:optimizeQuality; fill-rule:evenodd; clip-rule:evenodd" xmlns:xlink="http://www.w3.org/1999/xlink">
<g><path style="opacity:0.976" fill="#4d15ba" d="M 141.5,-0.5 C 213.5,-0.5 285.5,-0.5 357.5,-0.5C 392.507,0.446141 423.84,11.6128 451.5,33C 479.774,58.9483 495.774,91.1149 499.5,129.5C 499.5,208.833 499.5,288.167 499.5,367.5C 488.072,449.255 441.072,493.255 358.5,499.5C 286.5,499.5 214.5,499.5 142.5,499.5C 110.809,498.325 81.8086,488.825 55.5,471C 25.8403,447.629 8.3403,417.129 3,379.5C 1.37999,366.051 0.213325,352.717 -0.5,339.5C -0.5,280.167 -0.5,220.833 -0.5,161.5C -0.0991427,139.989 2.73419,118.656 8,97.5C 24.6696,47.1642 58.8362,15.9976 110.5,4C 120.921,2.07535 131.254,0.575349 141.5,-0.5 Z M 176.5,45.5 C 225.834,45.3333 275.168,45.5 324.5,46C 340.554,46.1871 356.554,47.1871 372.5,49C 409.331,54.5063 434.164,74.6729 447,109.5C 450.486,120.571 452.486,131.905 453,143.5C 454.996,214.5 454.996,285.5 453,356.5C 452.488,392.379 437.321,419.879 407.5,439C 386.018,449.214 363.352,453.881 339.5,453C 273.825,454.805 208.158,454.472 142.5,452C 106.989,451.175 79.8226,436.008 61,406.5C 50.3997,382.313 45.7331,356.979 47,330.5C 46.3333,276.5 46.3333,222.5 47,168.5C 46.2022,144.746 49.8689,121.746 58,99.5C 65.9659,83.5323 77.4659,70.699 92.5,61C 102.401,56.1439 112.734,52.4773 123.5,50C 141.239,47.5469 158.906,46.0469 176.5,45.5 Z M 244.5,166.5 C 282.852,166.753 310.352,184.086 327,218.5C 341.37,266.918 326.204,302.751 281.5,326C 235.729,340.077 200.563,326.577 176,285.5C 159.264,241.943 169.764,206.443 207.5,179C 219.181,172.496 231.514,168.329 244.5,166.5 Z"/></g>
<g><path style="opacity:0.948" fill="#4d15ba" d="M 379.5,84.5 C 403.308,84.8072 415.141,96.8072 415,120.5C 409.693,140.916 396.526,149.416 375.5,146C 357.736,138.964 350.569,126.13 354,107.5C 358.004,94.6548 366.504,86.9881 379.5,84.5 Z"/></g>
<g><path style="opacity:0.972" fill="#4d15bb" d="M 239.5,120.5 C 293.248,117.955 334.414,139.288 363,184.5C 385,227.833 385,271.167 363,314.5C 326.2,369.792 275.366,389.292 210.5,373C 179.901,362.735 156.068,343.902 139,316.5C 121.303,283.571 116.97,248.904 126,212.5C 130.974,196.885 138.307,182.551 148,169.5C 158.644,157.514 170.478,147.014 183.5,138C 200.943,127.814 219.609,121.98 239.5,120.5 Z M 244.5,166.5 C 231.514,168.329 219.181,172.496 207.5,179C 169.764,206.443 159.264,241.943 176,285.5C 200.563,326.577 235.729,340.077 281.5,326C 326.204,302.751 341.37,266.918 327,218.5C 310.352,184.086 282.852,166.753 244.5,166.5 Z"/></g>
</svg>
