<?xml version="1.0" encoding="UTF-8"?>
<!DOCTYPE svg PUBLIC "-//W3C//DTD SVG 1.1//EN" "http://www.w3.org/Graphics/SVG/1.1/DTD/svg11.dtd">
<svg xmlns="http://www.w3.org/2000/svg" version="1.1" width="31px" height="31px" style="shape-rendering:geometricPrecision; text-rendering:geometricPrecision; image-rendering:optimizeQuality; fill-rule:evenodd; clip-rule:evenodd" xmlns:xlink="http://www.w3.org/1999/xlink">
<g><path style="opacity:0.929" fill="#d1c2fa" d="M 2.5,-0.5 C 4.16667,-0.5 5.83333,-0.5 7.5,-0.5C 8.70084,2.06821 10.0342,4.56821 11.5,7C 10.4304,8.70919 9.09711,10.2092 7.5,11.5C 9.83333,16.5 13.5,20.1667 18.5,22.5C 19.7908,20.9029 21.2908,19.5696 23,18.5C 25.4318,19.9658 27.9318,21.2992 30.5,22.5C 30.5,24.1667 30.5,25.8333 30.5,27.5C 29.1667,28.1667 28.1667,29.1667 27.5,30.5C 24.5,30.5 21.5,30.5 18.5,30.5C 9.83333,26.5 3.5,20.1667 -0.5,11.5C -0.5,8.5 -0.5,5.5 -0.5,2.5C 0.833333,1.83333 1.83333,0.833333 2.5,-0.5 Z"/></g>
</svg>
