<?xml version="1.0" encoding="UTF-8"?>
<!DOCTYPE svg PUBLIC "-//W3C//DTD SVG 1.1//EN" "http://www.w3.org/Graphics/SVG/1.1/DTD/svg11.dtd">
<svg xmlns="http://www.w3.org/2000/svg" version="1.1" width="500px" height="500px" style="shape-rendering:geometricPrecision; text-rendering:geometricPrecision; image-rendering:optimizeQuality; fill-rule:evenodd; clip-rule:evenodd" xmlns:xlink="http://www.w3.org/1999/xlink">
<g><path style="opacity:0.987" fill="#4d16ba" d="M 499.5,93.5 C 499.5,94.8333 499.5,96.1667 499.5,97.5C 485.319,116.558 468.819,133.558 450,148.5C 450.597,229.071 424.93,299.738 373,360.5C 314.563,422.371 242.563,453.371 157,453.5C 100.154,453.381 47.6544,438.381 -0.5,408.5C -0.5,407.5 -0.5,406.5 -0.5,405.5C 53.9167,411.396 103.25,398.229 147.5,366C 106.287,361.322 76.4541,340.488 58,303.5C 56.1192,299.693 54.9526,295.693 54.5,291.5C 68.5155,294.111 82.5155,293.944 96.5,291C 54.4332,278.931 28.9332,251.431 20,208.5C 18.8626,201.88 18.3626,195.214 18.5,188.5C 26.5811,192.202 34.9144,195.369 43.5,198C 49.0519,199.846 54.7186,200.512 60.5,200C 21.0469,166.097 10.2136,124.597 28,75.5C 29.6186,71.2352 31.9519,67.5685 35,64.5C 78.9599,116.701 134.46,150.534 201.5,166C 215.762,168.241 230.095,169.741 244.5,170.5C 236.594,112.465 259.594,72.2982 313.5,50C 355.104,38.7741 391.271,47.9408 422,77.5C 444.666,72.9149 465.833,64.5816 485.5,52.5C 486.512,54.8369 486.345,57.1703 485,59.5C 476.612,78.883 464.112,95.0497 447.5,108C 465.391,105.359 482.725,100.526 499.5,93.5 Z"/></g>
</svg>
