<?xml version="1.0" encoding="UTF-8"?>
<!DOCTYPE svg PUBLIC "-//W3C//DTD SVG 1.1//EN" "http://www.w3.org/Graphics/SVG/1.1/DTD/svg11.dtd">
<svg xmlns="http://www.w3.org/2000/svg" version="1.1" width="382px" height="382px" style="shape-rendering:geometricPrecision; text-rendering:geometricPrecision; image-rendering:optimizeQuality; fill-rule:evenodd; clip-rule:evenodd" xmlns:xlink="http://www.w3.org/1999/xlink">
<g><path style="opacity:0.991" fill="#fcfcfc" d="M 381.5,71.5 C 381.5,72.5 381.5,73.5 381.5,74.5C 370.942,89.2277 358.442,102.228 344,113.5C 344.735,143.528 339.902,172.528 329.5,200.5C 327.896,201.287 327.229,202.62 327.5,204.5C 308.054,255.123 274.72,293.956 227.5,321C 220.487,324.84 213.154,328.007 205.5,330.5C 203.62,330.229 202.287,330.896 201.5,332.5C 151.299,349.789 100.632,350.956 49.5,336C 31.8743,330.018 15.2076,322.185 -0.5,312.5C -0.5,311.5 -0.5,310.5 -0.5,309.5C 40.1975,313.481 77.1975,303.815 110.5,280.5C 111.043,280.44 111.376,280.107 111.5,279.5C 110.675,278.614 109.675,278.281 108.5,278.5C 79.6649,274.837 58.4982,260.171 45,234.5C 42.9444,230.732 41.7777,226.732 41.5,222.5C 51.5489,225.231 61.5489,225.064 71.5,222C 38.1631,211.158 19.1631,188.325 14.5,153.5C 13.9455,149.988 14.6122,146.988 16.5,144.5C 23.0478,147.238 29.7144,149.571 36.5,151.5C 39.5698,153.507 42.9031,153.84 46.5,152.5C 45.9953,151.081 44.9953,150.415 43.5,150.5C 19.6609,129.874 10.4942,103.874 16,72.5C 17.5403,64.7535 20.207,57.4202 24,50.5C 25.6501,47.894 27.1501,47.894 28.5,50.5C 28.427,52.0269 29.0937,53.0269 30.5,53.5C 60.0816,86.6197 96.0816,109.62 138.5,122.5C 140.78,124.223 143.447,124.889 146.5,124.5C 159.376,127.257 172.376,129.257 185.5,130.5C 180.123,88.744 196.123,58.5773 233.5,40C 267.024,28.8337 296.857,35.0004 323,58.5C 329.558,56.8695 336.058,55.0361 342.5,53C 352.443,49.3029 362.109,45.1363 371.5,40.5C 366.703,57.7874 357.036,71.6207 342.5,82C 355.683,79.4434 368.683,75.9434 381.5,71.5 Z"/></g>
<g><path style="opacity:0.102" fill="#696969" d="M 28.5,50.5 C 29.9063,50.9731 30.573,51.9731 30.5,53.5C 29.0937,53.0269 28.427,52.0269 28.5,50.5 Z"/></g>
<g><path style="opacity:0.147" fill="#949494" d="M 138.5,122.5 C 141.373,122.802 144.039,123.469 146.5,124.5C 143.447,124.889 140.78,124.223 138.5,122.5 Z"/></g>
<g><path style="opacity:0.049" fill="#787878" d="M 16.5,144.5 C 14.6122,146.988 13.9455,149.988 14.5,153.5C 13.5206,150.375 13.1872,147.042 13.5,143.5C 14.791,143.263 15.791,143.596 16.5,144.5 Z"/></g>
<g><path style="opacity:0.125" fill="#b2b2b2" d="M 43.5,150.5 C 44.9953,150.415 45.9953,151.081 46.5,152.5C 42.9031,153.84 39.5698,153.507 36.5,151.5C 39.1761,152.008 41.8428,152.175 44.5,152C 43.944,151.617 43.6107,151.117 43.5,150.5 Z"/></g>
<g><path style="opacity:0.11" fill="#6d6d6d" d="M 329.5,200.5 C 329.34,202.153 328.674,203.486 327.5,204.5C 327.229,202.62 327.896,201.287 329.5,200.5 Z"/></g>
<g><path style="opacity:0.013" fill="#4d4d4d" d="M 108.5,278.5 C 109.675,278.281 110.675,278.614 111.5,279.5C 111.376,280.107 111.043,280.44 110.5,280.5C 109.833,279.833 109.167,279.167 108.5,278.5 Z"/></g>
<g><path style="opacity:0.004" fill="#494949" d="M 205.5,330.5 C 204.486,331.674 203.153,332.34 201.5,332.5C 202.287,330.896 203.62,330.229 205.5,330.5 Z"/></g>
</svg>
